M48
; DRILL file {KiCad 9.0.1} date 2025-05-10T06:39:08-0700
; FORMAT={-:-/ absolute / metric / decimal}
; #@! TF.CreationDate,2025-05-10T06:39:08-07:00
; #@! TF.GenerationSoftware,Kicad,Pcbnew,9.0.1
; #@! TF.FileFunction,NonPlated,1,2,NPTH
FMAT,2
METRIC
; #@! TA.AperFunction,NonPlated,NPTH,ComponentDrill
T1C2.200
%
G90
G05
T1
X16.0Y-16.0
X16.58Y-77.46
X37.0Y-77.0
X38.0Y-16.0
X42.0Y-17.0
X42.0Y-21.0
X42.0Y-27.0
X42.0Y-33.0
X42.0Y-39.0
X42.0Y-45.0
X42.0Y-50.0
X42.0Y-55.0
X42.0Y-60.0
X42.0Y-65.0
X42.0Y-70.0
X42.0Y-74.0
X46.0Y-16.0
X46.0Y-77.0
X102.853Y-76.0
X103.0Y-16.0
M30
