M48
; DRILL file {KiCad 9.0.1} date 2025-05-10T06:39:08-0700
; FORMAT={-:-/ absolute / metric / decimal}
; #@! TF.CreationDate,2025-05-10T06:39:08-07:00
; #@! TF.GenerationSoftware,Kicad,Pcbnew,9.0.1
; #@! TF.FileFunction,Plated,1,2,PTH
FMAT,2
METRIC
; #@! TA.AperFunction,Plated,PTH,ViaDrill
T1C0.300
; #@! TA.AperFunction,Plated,PTH,ComponentDrill
T2C0.700
; #@! TA.AperFunction,Plated,PTH,ComponentDrill
T3C0.762
; #@! TA.AperFunction,Plated,PTH,ComponentDrill
T4C0.800
; #@! TA.AperFunction,Plated,PTH,ComponentDrill
T5C0.900
; #@! TA.AperFunction,Plated,PTH,ComponentDrill
T6C1.000
; #@! TA.AperFunction,Plated,PTH,ComponentDrill
T7C1.016
; #@! TA.AperFunction,Plated,PTH,ComponentDrill
T8C3.200
%
G90
G05
T1
X21.0Y-25.0
X23.0Y-50.0
X29.0Y-29.0
X29.0Y-30.0
X38.0Y-47.16
X38.0Y-51.0
X52.0Y-60.64
X52.0Y-63.64
X53.0Y-59.64
X54.0Y-58.64
X64.0Y-44.64
X68.0Y-67.64
X69.0Y-66.64
X70.0Y-41.635
X70.0Y-47.64
X70.0Y-65.64
X72.0Y-68.64
X73.0Y-50.64
X73.005Y-57.64
X73.963Y-38.797
X74.0Y-43.84
X74.0Y-46.64
X74.199Y-42.64
X75.0Y-73.0
X77.0Y-77.64
X78.0Y-36.04
X78.0Y-54.64
X79.0Y-38.64
X79.0Y-40.64
X79.0Y-44.64
X79.0Y-72.0
X79.934Y-50.64
X80.0Y-42.64
X82.999Y-60.639
X87.0Y-69.64
X96.0Y-40.64
X96.0Y-42.64
X98.0Y-70.0
X100.0Y-40.0
X101.0Y-62.0
T2
X33.46Y-64.0
X36.5Y-46.46
X36.5Y-51.54
X36.5Y-54.46
X36.5Y-59.54
X38.54Y-64.0
X58.46Y-70.64
X63.54Y-70.64
X84.82Y-47.067
X84.82Y-50.218
X84.82Y-53.367
X84.82Y-56.517
X84.82Y-59.667
X84.82Y-62.817
X84.82Y-65.968
X84.82Y-69.117
X84.82Y-72.267
X84.82Y-75.417
X89.9Y-47.067
X89.9Y-50.218
X89.9Y-53.367
X89.9Y-56.517
X89.9Y-59.667
X89.9Y-62.817
X89.9Y-65.968
X89.9Y-69.117
X89.9Y-72.267
X89.9Y-75.417
T3
X36.5Y-35.0
X36.5Y-37.54
X36.5Y-40.08
X36.5Y-42.62
T4
X37.0Y-22.32
X37.0Y-24.86
X37.0Y-27.4
X37.0Y-29.94
X75.595Y-33.58
X75.595Y-39.58
X83.215Y-33.58
X83.215Y-39.58
T5
X34.73Y-67.165
X37.27Y-67.165
X46.0Y-28.0
X46.0Y-30.54
X46.0Y-33.08
X46.0Y-35.62
X46.0Y-38.16
X46.0Y-40.7
X46.0Y-43.24
X46.0Y-45.78
X46.0Y-48.32
X46.0Y-50.86
X46.0Y-53.4
X46.0Y-55.94
X46.0Y-58.48
X46.0Y-61.02
X46.0Y-63.56
X67.73Y-69.58
X70.27Y-69.58
X71.4Y-28.0
X71.4Y-30.54
X71.4Y-33.08
X71.4Y-35.62
X71.4Y-38.16
X71.4Y-40.7
X71.4Y-43.24
X71.4Y-45.78
X71.4Y-48.32
X71.4Y-50.86
X71.4Y-53.4
X71.4Y-55.94
X71.4Y-58.48
X71.4Y-61.02
X71.4Y-63.56
X81.735Y-44.247
X81.735Y-46.788
X81.735Y-50.258
X81.735Y-52.797
X81.735Y-56.267
X81.735Y-58.807
X81.735Y-62.277
X81.735Y-64.817
X81.735Y-68.287
X81.735Y-70.828
X81.735Y-74.297
X81.735Y-76.837
T6
X16.76Y-20.6
X16.76Y-23.14
X16.76Y-25.68
X16.76Y-28.22
X16.76Y-30.76
X16.76Y-33.3
X16.76Y-35.84
X16.76Y-38.38
X16.76Y-40.92
X16.76Y-43.46
X16.76Y-46.0
X16.76Y-48.54
X16.76Y-51.08
X16.76Y-53.62
X16.76Y-56.16
X22.46Y-64.46
X22.46Y-67.0
X25.0Y-64.46
X25.0Y-67.0
X27.54Y-64.46
X27.54Y-67.0
X30.08Y-64.46
X30.08Y-67.0
X32.0Y-20.6
X32.0Y-23.14
X32.0Y-25.68
X32.0Y-28.22
X32.0Y-30.76
X32.0Y-33.3
X32.0Y-35.84
X32.0Y-38.38
X32.0Y-40.92
X32.0Y-43.46
X32.0Y-46.0
X32.0Y-48.54
X32.0Y-51.08
X32.0Y-53.62
X32.0Y-56.16
X46.9Y-70.58
X49.4Y-70.58
X51.9Y-70.58
X83.96Y-22.16
X85.345Y-25.0
X86.73Y-22.16
X88.115Y-25.0
X89.5Y-22.16
X90.885Y-25.0
X92.27Y-22.16
X93.655Y-25.0
X94.21Y-53.447
X94.21Y-55.987
X94.21Y-58.527
X94.21Y-61.067
X95.04Y-22.16
X96.751Y-53.447
X96.751Y-55.987
X96.751Y-58.527
X96.751Y-61.067
T7
X88.49Y-34.258
X88.49Y-36.797
X88.49Y-39.337
X88.49Y-41.877
X92.49Y-68.757
X92.49Y-71.297
X92.49Y-73.837
X92.49Y-76.377
T8
X77.0Y-23.58
X102.0Y-23.58
M30
