%TF.GenerationSoftware,KiCad,Pcbnew,9.0.1*%
%TF.CreationDate,2025-05-10T06:39:08-07:00*%
%TF.ProjectId,ARDU_RF_TEMP,41524455-5f52-4465-9f54-454d502e6b69,rev?*%
%TF.SameCoordinates,Original*%
%TF.FileFunction,Drillmap*%
%TF.FilePolarity,Positive*%
%FSLAX45Y45*%
G04 Gerber Fmt 4.5, Leading zero omitted, Abs format (unit mm)*
G04 Created by KiCad (PCBNEW 9.0.1) date 2025-05-10 06:39:08*
%MOMM*%
%LPD*%
G01*
G04 APERTURE LIST*
%ADD10C,0.050000*%
%ADD11C,0.200000*%
%ADD12C,0.100000*%
%ADD13C,0.101600*%
%ADD14C,0.320000*%
G04 APERTURE END LIST*
D10*
X1300000Y-1300000D02*
X10500000Y-1300000D01*
X10500000Y-8000000D01*
X1300000Y-8000000D01*
X1300000Y-1300000D01*
D11*
D12*
X2085000Y-2485000D02*
X2115000Y-2515000D01*
X2115000Y-2485000D02*
X2085000Y-2515000D01*
X2285000Y-4985000D02*
X2315000Y-5015000D01*
X2315000Y-4985000D02*
X2285000Y-5015000D01*
X2885000Y-2885000D02*
X2915000Y-2915000D01*
X2915000Y-2885000D02*
X2885000Y-2915000D01*
X2885000Y-2985000D02*
X2915000Y-3015000D01*
X2915000Y-2985000D02*
X2885000Y-3015000D01*
X3785000Y-4701000D02*
X3815000Y-4731000D01*
X3815000Y-4701000D02*
X3785000Y-4731000D01*
X3785000Y-5085000D02*
X3815000Y-5115000D01*
X3815000Y-5085000D02*
X3785000Y-5115000D01*
X5185000Y-6049000D02*
X5215000Y-6079000D01*
X5215000Y-6049000D02*
X5185000Y-6079000D01*
X5185000Y-6349000D02*
X5215000Y-6379000D01*
X5215000Y-6349000D02*
X5185000Y-6379000D01*
X5285000Y-5949000D02*
X5315000Y-5979000D01*
X5315000Y-5949000D02*
X5285000Y-5979000D01*
X5385000Y-5849000D02*
X5415000Y-5879000D01*
X5415000Y-5849000D02*
X5385000Y-5879000D01*
X6385000Y-4449000D02*
X6415000Y-4479000D01*
X6415000Y-4449000D02*
X6385000Y-4479000D01*
X6785000Y-6749000D02*
X6815000Y-6779000D01*
X6815000Y-6749000D02*
X6785000Y-6779000D01*
X6885000Y-6649000D02*
X6915000Y-6679000D01*
X6915000Y-6649000D02*
X6885000Y-6679000D01*
X6985000Y-4148500D02*
X7015000Y-4178500D01*
X7015000Y-4148500D02*
X6985000Y-4178500D01*
X6985000Y-4749000D02*
X7015000Y-4779000D01*
X7015000Y-4749000D02*
X6985000Y-4779000D01*
X6985000Y-6549000D02*
X7015000Y-6579000D01*
X7015000Y-6549000D02*
X6985000Y-6579000D01*
X7185000Y-6849000D02*
X7215000Y-6879000D01*
X7215000Y-6849000D02*
X7185000Y-6879000D01*
X7285000Y-5049000D02*
X7315000Y-5079000D01*
X7315000Y-5049000D02*
X7285000Y-5079000D01*
X7285500Y-5749000D02*
X7315500Y-5779000D01*
X7315500Y-5749000D02*
X7285500Y-5779000D01*
X7381323Y-3864676D02*
X7411323Y-3894676D01*
X7411323Y-3864676D02*
X7381323Y-3894676D01*
X7385000Y-4369000D02*
X7415000Y-4399000D01*
X7415000Y-4369000D02*
X7385000Y-4399000D01*
X7385000Y-4649000D02*
X7415000Y-4679000D01*
X7415000Y-4649000D02*
X7385000Y-4679000D01*
X7404900Y-4249000D02*
X7434900Y-4279000D01*
X7434900Y-4249000D02*
X7404900Y-4279000D01*
X7485000Y-7285000D02*
X7515000Y-7315000D01*
X7515000Y-7285000D02*
X7485000Y-7315000D01*
X7685000Y-7749000D02*
X7715000Y-7779000D01*
X7715000Y-7749000D02*
X7685000Y-7779000D01*
X7785000Y-3589000D02*
X7815000Y-3619000D01*
X7815000Y-3589000D02*
X7785000Y-3619000D01*
X7785000Y-5449000D02*
X7815000Y-5479000D01*
X7815000Y-5449000D02*
X7785000Y-5479000D01*
X7885000Y-3849000D02*
X7915000Y-3879000D01*
X7915000Y-3849000D02*
X7885000Y-3879000D01*
X7885000Y-4049000D02*
X7915000Y-4079000D01*
X7915000Y-4049000D02*
X7885000Y-4079000D01*
X7885000Y-4449000D02*
X7915000Y-4479000D01*
X7915000Y-4449000D02*
X7885000Y-4479000D01*
X7885000Y-7185000D02*
X7915000Y-7215000D01*
X7915000Y-7185000D02*
X7885000Y-7215000D01*
X7978400Y-5049000D02*
X8008400Y-5079000D01*
X8008400Y-5049000D02*
X7978400Y-5079000D01*
X7985000Y-4249000D02*
X8015000Y-4279000D01*
X8015000Y-4249000D02*
X7985000Y-4279000D01*
X8284948Y-6048948D02*
X8314948Y-6078948D01*
X8314948Y-6048948D02*
X8284948Y-6078948D01*
X8685000Y-6949000D02*
X8715000Y-6979000D01*
X8715000Y-6949000D02*
X8685000Y-6979000D01*
X9585000Y-4049000D02*
X9615000Y-4079000D01*
X9615000Y-4049000D02*
X9585000Y-4079000D01*
X9585000Y-4249000D02*
X9615000Y-4279000D01*
X9615000Y-4249000D02*
X9585000Y-4279000D01*
X9785000Y-6985000D02*
X9815000Y-7015000D01*
X9815000Y-6985000D02*
X9785000Y-7015000D01*
X9985000Y-3985000D02*
X10015000Y-4015000D01*
X10015000Y-3985000D02*
X9985000Y-4015000D01*
X10085000Y-6185000D02*
X10115000Y-6215000D01*
X10115000Y-6185000D02*
X10085000Y-6215000D01*
X3381000Y-6400000D02*
G75*
G02*
X3311000Y-6400000I-35000J0D01*
G01*
X3311000Y-6400000D02*
G75*
G02*
X3381000Y-6400000I35000J0D01*
G01*
X3685000Y-4646000D02*
G75*
G02*
X3615000Y-4646000I-35000J0D01*
G01*
X3615000Y-4646000D02*
G75*
G02*
X3685000Y-4646000I35000J0D01*
G01*
X3685000Y-5154000D02*
G75*
G02*
X3615000Y-5154000I-35000J0D01*
G01*
X3615000Y-5154000D02*
G75*
G02*
X3685000Y-5154000I35000J0D01*
G01*
X3685000Y-5446000D02*
G75*
G02*
X3615000Y-5446000I-35000J0D01*
G01*
X3615000Y-5446000D02*
G75*
G02*
X3685000Y-5446000I35000J0D01*
G01*
X3685000Y-5954000D02*
G75*
G02*
X3615000Y-5954000I-35000J0D01*
G01*
X3615000Y-5954000D02*
G75*
G02*
X3685000Y-5954000I35000J0D01*
G01*
X3889000Y-6400000D02*
G75*
G02*
X3819000Y-6400000I-35000J0D01*
G01*
X3819000Y-6400000D02*
G75*
G02*
X3889000Y-6400000I35000J0D01*
G01*
X5881000Y-7064000D02*
G75*
G02*
X5811000Y-7064000I-35000J0D01*
G01*
X5811000Y-7064000D02*
G75*
G02*
X5881000Y-7064000I35000J0D01*
G01*
X6389000Y-7064000D02*
G75*
G02*
X6319000Y-7064000I-35000J0D01*
G01*
X6319000Y-7064000D02*
G75*
G02*
X6389000Y-7064000I35000J0D01*
G01*
X8517000Y-4706750D02*
G75*
G02*
X8447000Y-4706750I-35000J0D01*
G01*
X8447000Y-4706750D02*
G75*
G02*
X8517000Y-4706750I35000J0D01*
G01*
X8517000Y-5021750D02*
G75*
G02*
X8447000Y-5021750I-35000J0D01*
G01*
X8447000Y-5021750D02*
G75*
G02*
X8517000Y-5021750I35000J0D01*
G01*
X8517000Y-5336750D02*
G75*
G02*
X8447000Y-5336750I-35000J0D01*
G01*
X8447000Y-5336750D02*
G75*
G02*
X8517000Y-5336750I35000J0D01*
G01*
X8517000Y-5651750D02*
G75*
G02*
X8447000Y-5651750I-35000J0D01*
G01*
X8447000Y-5651750D02*
G75*
G02*
X8517000Y-5651750I35000J0D01*
G01*
X8517000Y-5966750D02*
G75*
G02*
X8447000Y-5966750I-35000J0D01*
G01*
X8447000Y-5966750D02*
G75*
G02*
X8517000Y-5966750I35000J0D01*
G01*
X8517000Y-6281750D02*
G75*
G02*
X8447000Y-6281750I-35000J0D01*
G01*
X8447000Y-6281750D02*
G75*
G02*
X8517000Y-6281750I35000J0D01*
G01*
X8517000Y-6596750D02*
G75*
G02*
X8447000Y-6596750I-35000J0D01*
G01*
X8447000Y-6596750D02*
G75*
G02*
X8517000Y-6596750I35000J0D01*
G01*
X8517000Y-6911750D02*
G75*
G02*
X8447000Y-6911750I-35000J0D01*
G01*
X8447000Y-6911750D02*
G75*
G02*
X8517000Y-6911750I35000J0D01*
G01*
X8517000Y-7226750D02*
G75*
G02*
X8447000Y-7226750I-35000J0D01*
G01*
X8447000Y-7226750D02*
G75*
G02*
X8517000Y-7226750I35000J0D01*
G01*
X8517000Y-7541750D02*
G75*
G02*
X8447000Y-7541750I-35000J0D01*
G01*
X8447000Y-7541750D02*
G75*
G02*
X8517000Y-7541750I35000J0D01*
G01*
X9025000Y-4706750D02*
G75*
G02*
X8955000Y-4706750I-35000J0D01*
G01*
X8955000Y-4706750D02*
G75*
G02*
X9025000Y-4706750I35000J0D01*
G01*
X9025000Y-5021750D02*
G75*
G02*
X8955000Y-5021750I-35000J0D01*
G01*
X8955000Y-5021750D02*
G75*
G02*
X9025000Y-5021750I35000J0D01*
G01*
X9025000Y-5336750D02*
G75*
G02*
X8955000Y-5336750I-35000J0D01*
G01*
X8955000Y-5336750D02*
G75*
G02*
X9025000Y-5336750I35000J0D01*
G01*
X9025000Y-5651750D02*
G75*
G02*
X8955000Y-5651750I-35000J0D01*
G01*
X8955000Y-5651750D02*
G75*
G02*
X9025000Y-5651750I35000J0D01*
G01*
X9025000Y-5966750D02*
G75*
G02*
X8955000Y-5966750I-35000J0D01*
G01*
X8955000Y-5966750D02*
G75*
G02*
X9025000Y-5966750I35000J0D01*
G01*
X9025000Y-6281750D02*
G75*
G02*
X8955000Y-6281750I-35000J0D01*
G01*
X8955000Y-6281750D02*
G75*
G02*
X9025000Y-6281750I35000J0D01*
G01*
X9025000Y-6596750D02*
G75*
G02*
X8955000Y-6596750I-35000J0D01*
G01*
X8955000Y-6596750D02*
G75*
G02*
X9025000Y-6596750I35000J0D01*
G01*
X9025000Y-6911750D02*
G75*
G02*
X8955000Y-6911750I-35000J0D01*
G01*
X8955000Y-6911750D02*
G75*
G02*
X9025000Y-6911750I35000J0D01*
G01*
X9025000Y-7226750D02*
G75*
G02*
X8955000Y-7226750I-35000J0D01*
G01*
X8955000Y-7226750D02*
G75*
G02*
X9025000Y-7226750I35000J0D01*
G01*
X9025000Y-7541750D02*
G75*
G02*
X8955000Y-7541750I-35000J0D01*
G01*
X8955000Y-7541750D02*
G75*
G02*
X9025000Y-7541750I35000J0D01*
G01*
X3650000Y-3461900D02*
X3650000Y-3538100D01*
X3611900Y-3500000D02*
X3688100Y-3500000D01*
X3650000Y-3715900D02*
X3650000Y-3792100D01*
X3611900Y-3754000D02*
X3688100Y-3754000D01*
X3650000Y-3969900D02*
X3650000Y-4046100D01*
X3611900Y-4008000D02*
X3688100Y-4008000D01*
X3650000Y-4223900D02*
X3650000Y-4300100D01*
X3611900Y-4262000D02*
X3688100Y-4262000D01*
X3728284Y-2260285D02*
X3728284Y-2203716D01*
X3671715Y-2203716D01*
X3671715Y-2260285D01*
X3728284Y-2260285D01*
X3728284Y-2514285D02*
X3728284Y-2457716D01*
X3671715Y-2457716D01*
X3671715Y-2514285D01*
X3728284Y-2514285D01*
X3728284Y-2768285D02*
X3728284Y-2711716D01*
X3671715Y-2711716D01*
X3671715Y-2768285D01*
X3728284Y-2768285D01*
X3728284Y-3022284D02*
X3728284Y-2965715D01*
X3671715Y-2965715D01*
X3671715Y-3022284D01*
X3728284Y-3022284D01*
X7587784Y-3386284D02*
X7587784Y-3329715D01*
X7531215Y-3329715D01*
X7531215Y-3386284D01*
X7587784Y-3386284D01*
X7587784Y-3986284D02*
X7587784Y-3929715D01*
X7531215Y-3929715D01*
X7531215Y-3986284D01*
X7587784Y-3986284D01*
X8349784Y-3386284D02*
X8349784Y-3329715D01*
X8293215Y-3329715D01*
X8293215Y-3386284D01*
X8349784Y-3386284D01*
X8349784Y-3986284D02*
X8349784Y-3929715D01*
X8293215Y-3929715D01*
X8293215Y-3986284D01*
X8349784Y-3986284D01*
X3473000Y-6761500D02*
X3518000Y-6716500D01*
X3473000Y-6671500D01*
X3428000Y-6716500D01*
X3473000Y-6761500D01*
X3727000Y-6761500D02*
X3772000Y-6716500D01*
X3727000Y-6671500D01*
X3682000Y-6716500D01*
X3727000Y-6761500D01*
X4600000Y-2845000D02*
X4645000Y-2800000D01*
X4600000Y-2755000D01*
X4555000Y-2800000D01*
X4600000Y-2845000D01*
X4600000Y-3099000D02*
X4645000Y-3054000D01*
X4600000Y-3009000D01*
X4555000Y-3054000D01*
X4600000Y-3099000D01*
X4600000Y-3353000D02*
X4645000Y-3308000D01*
X4600000Y-3263000D01*
X4555000Y-3308000D01*
X4600000Y-3353000D01*
X4600000Y-3607000D02*
X4645000Y-3562000D01*
X4600000Y-3517000D01*
X4555000Y-3562000D01*
X4600000Y-3607000D01*
X4600000Y-3861000D02*
X4645000Y-3816000D01*
X4600000Y-3771000D01*
X4555000Y-3816000D01*
X4600000Y-3861000D01*
X4600000Y-4115000D02*
X4645000Y-4070000D01*
X4600000Y-4025000D01*
X4555000Y-4070000D01*
X4600000Y-4115000D01*
X4600000Y-4369000D02*
X4645000Y-4324000D01*
X4600000Y-4279000D01*
X4555000Y-4324000D01*
X4600000Y-4369000D01*
X4600000Y-4623000D02*
X4645000Y-4578000D01*
X4600000Y-4533000D01*
X4555000Y-4578000D01*
X4600000Y-4623000D01*
X4600000Y-4877000D02*
X4645000Y-4832000D01*
X4600000Y-4787000D01*
X4555000Y-4832000D01*
X4600000Y-4877000D01*
X4600000Y-5131000D02*
X4645000Y-5086000D01*
X4600000Y-5041000D01*
X4555000Y-5086000D01*
X4600000Y-5131000D01*
X4600000Y-5385000D02*
X4645000Y-5340000D01*
X4600000Y-5295000D01*
X4555000Y-5340000D01*
X4600000Y-5385000D01*
X4600000Y-5639000D02*
X4645000Y-5594000D01*
X4600000Y-5549000D01*
X4555000Y-5594000D01*
X4600000Y-5639000D01*
X4600000Y-5893000D02*
X4645000Y-5848000D01*
X4600000Y-5803000D01*
X4555000Y-5848000D01*
X4600000Y-5893000D01*
X4600000Y-6147000D02*
X4645000Y-6102000D01*
X4600000Y-6057000D01*
X4555000Y-6102000D01*
X4600000Y-6147000D01*
X4600000Y-6401000D02*
X4645000Y-6356000D01*
X4600000Y-6311000D01*
X4555000Y-6356000D01*
X4600000Y-6401000D01*
X6773000Y-7003000D02*
X6818000Y-6958000D01*
X6773000Y-6913000D01*
X6728000Y-6958000D01*
X6773000Y-7003000D01*
X7027000Y-7003000D02*
X7072000Y-6958000D01*
X7027000Y-6913000D01*
X6982000Y-6958000D01*
X7027000Y-7003000D01*
X7140000Y-2845000D02*
X7185000Y-2800000D01*
X7140000Y-2755000D01*
X7095000Y-2800000D01*
X7140000Y-2845000D01*
X7140000Y-3099000D02*
X7185000Y-3054000D01*
X7140000Y-3009000D01*
X7095000Y-3054000D01*
X7140000Y-3099000D01*
X7140000Y-3353000D02*
X7185000Y-3308000D01*
X7140000Y-3263000D01*
X7095000Y-3308000D01*
X7140000Y-3353000D01*
X7140000Y-3607000D02*
X7185000Y-3562000D01*
X7140000Y-3517000D01*
X7095000Y-3562000D01*
X7140000Y-3607000D01*
X7140000Y-3861000D02*
X7185000Y-3816000D01*
X7140000Y-3771000D01*
X7095000Y-3816000D01*
X7140000Y-3861000D01*
X7140000Y-4115000D02*
X7185000Y-4070000D01*
X7140000Y-4025000D01*
X7095000Y-4070000D01*
X7140000Y-4115000D01*
X7140000Y-4369000D02*
X7185000Y-4324000D01*
X7140000Y-4279000D01*
X7095000Y-4324000D01*
X7140000Y-4369000D01*
X7140000Y-4623000D02*
X7185000Y-4578000D01*
X7140000Y-4533000D01*
X7095000Y-4578000D01*
X7140000Y-4623000D01*
X7140000Y-4877000D02*
X7185000Y-4832000D01*
X7140000Y-4787000D01*
X7095000Y-4832000D01*
X7140000Y-4877000D01*
X7140000Y-5131000D02*
X7185000Y-5086000D01*
X7140000Y-5041000D01*
X7095000Y-5086000D01*
X7140000Y-5131000D01*
X7140000Y-5385000D02*
X7185000Y-5340000D01*
X7140000Y-5295000D01*
X7095000Y-5340000D01*
X7140000Y-5385000D01*
X7140000Y-5639000D02*
X7185000Y-5594000D01*
X7140000Y-5549000D01*
X7095000Y-5594000D01*
X7140000Y-5639000D01*
X7140000Y-5893000D02*
X7185000Y-5848000D01*
X7140000Y-5803000D01*
X7095000Y-5848000D01*
X7140000Y-5893000D01*
X7140000Y-6147000D02*
X7185000Y-6102000D01*
X7140000Y-6057000D01*
X7095000Y-6102000D01*
X7140000Y-6147000D01*
X7140000Y-6401000D02*
X7185000Y-6356000D01*
X7140000Y-6311000D01*
X7095000Y-6356000D01*
X7140000Y-6401000D01*
X8173500Y-4469750D02*
X8218500Y-4424750D01*
X8173500Y-4379750D01*
X8128500Y-4424750D01*
X8173500Y-4469750D01*
X8173500Y-4723750D02*
X8218500Y-4678750D01*
X8173500Y-4633750D01*
X8128500Y-4678750D01*
X8173500Y-4723750D01*
X8173500Y-5070750D02*
X8218500Y-5025750D01*
X8173500Y-4980750D01*
X8128500Y-5025750D01*
X8173500Y-5070750D01*
X8173500Y-5324750D02*
X8218500Y-5279750D01*
X8173500Y-5234750D01*
X8128500Y-5279750D01*
X8173500Y-5324750D01*
X8173500Y-5671750D02*
X8218500Y-5626750D01*
X8173500Y-5581750D01*
X8128500Y-5626750D01*
X8173500Y-5671750D01*
X8173500Y-5925750D02*
X8218500Y-5880750D01*
X8173500Y-5835750D01*
X8128500Y-5880750D01*
X8173500Y-5925750D01*
X8173500Y-6272750D02*
X8218500Y-6227750D01*
X8173500Y-6182750D01*
X8128500Y-6227750D01*
X8173500Y-6272750D01*
X8173500Y-6526750D02*
X8218500Y-6481750D01*
X8173500Y-6436750D01*
X8128500Y-6481750D01*
X8173500Y-6526750D01*
X8173500Y-6873750D02*
X8218500Y-6828750D01*
X8173500Y-6783750D01*
X8128500Y-6828750D01*
X8173500Y-6873750D01*
X8173500Y-7127750D02*
X8218500Y-7082750D01*
X8173500Y-7037750D01*
X8128500Y-7082750D01*
X8173500Y-7127750D01*
X8173500Y-7474750D02*
X8218500Y-7429750D01*
X8173500Y-7384750D01*
X8128500Y-7429750D01*
X8173500Y-7474750D01*
X8173500Y-7728750D02*
X8218500Y-7683750D01*
X8173500Y-7638750D01*
X8128500Y-7683750D01*
X8173500Y-7728750D01*
X1626000Y-2010000D02*
X1726000Y-2110000D01*
X1726000Y-2010000D02*
X1626000Y-2110000D01*
X1726000Y-2060000D02*
G75*
G02*
X1626000Y-2060000I-50000J0D01*
G01*
X1626000Y-2060000D02*
G75*
G02*
X1726000Y-2060000I50000J0D01*
G01*
X1626000Y-2264000D02*
X1726000Y-2364000D01*
X1726000Y-2264000D02*
X1626000Y-2364000D01*
X1726000Y-2314000D02*
G75*
G02*
X1626000Y-2314000I-50000J0D01*
G01*
X1626000Y-2314000D02*
G75*
G02*
X1726000Y-2314000I50000J0D01*
G01*
X1626000Y-2518000D02*
X1726000Y-2618000D01*
X1726000Y-2518000D02*
X1626000Y-2618000D01*
X1726000Y-2568000D02*
G75*
G02*
X1626000Y-2568000I-50000J0D01*
G01*
X1626000Y-2568000D02*
G75*
G02*
X1726000Y-2568000I50000J0D01*
G01*
X1626000Y-2772000D02*
X1726000Y-2872000D01*
X1726000Y-2772000D02*
X1626000Y-2872000D01*
X1726000Y-2822000D02*
G75*
G02*
X1626000Y-2822000I-50000J0D01*
G01*
X1626000Y-2822000D02*
G75*
G02*
X1726000Y-2822000I50000J0D01*
G01*
X1626000Y-3026000D02*
X1726000Y-3126000D01*
X1726000Y-3026000D02*
X1626000Y-3126000D01*
X1726000Y-3076000D02*
G75*
G02*
X1626000Y-3076000I-50000J0D01*
G01*
X1626000Y-3076000D02*
G75*
G02*
X1726000Y-3076000I50000J0D01*
G01*
X1626000Y-3280000D02*
X1726000Y-3380000D01*
X1726000Y-3280000D02*
X1626000Y-3380000D01*
X1726000Y-3330000D02*
G75*
G02*
X1626000Y-3330000I-50000J0D01*
G01*
X1626000Y-3330000D02*
G75*
G02*
X1726000Y-3330000I50000J0D01*
G01*
X1626000Y-3534000D02*
X1726000Y-3634000D01*
X1726000Y-3534000D02*
X1626000Y-3634000D01*
X1726000Y-3584000D02*
G75*
G02*
X1626000Y-3584000I-50000J0D01*
G01*
X1626000Y-3584000D02*
G75*
G02*
X1726000Y-3584000I50000J0D01*
G01*
X1626000Y-3788000D02*
X1726000Y-3888000D01*
X1726000Y-3788000D02*
X1626000Y-3888000D01*
X1726000Y-3838000D02*
G75*
G02*
X1626000Y-3838000I-50000J0D01*
G01*
X1626000Y-3838000D02*
G75*
G02*
X1726000Y-3838000I50000J0D01*
G01*
X1626000Y-4042000D02*
X1726000Y-4142000D01*
X1726000Y-4042000D02*
X1626000Y-4142000D01*
X1726000Y-4092000D02*
G75*
G02*
X1626000Y-4092000I-50000J0D01*
G01*
X1626000Y-4092000D02*
G75*
G02*
X1726000Y-4092000I50000J0D01*
G01*
X1626000Y-4296000D02*
X1726000Y-4396000D01*
X1726000Y-4296000D02*
X1626000Y-4396000D01*
X1726000Y-4346000D02*
G75*
G02*
X1626000Y-4346000I-50000J0D01*
G01*
X1626000Y-4346000D02*
G75*
G02*
X1726000Y-4346000I50000J0D01*
G01*
X1626000Y-4550000D02*
X1726000Y-4650000D01*
X1726000Y-4550000D02*
X1626000Y-4650000D01*
X1726000Y-4600000D02*
G75*
G02*
X1626000Y-4600000I-50000J0D01*
G01*
X1626000Y-4600000D02*
G75*
G02*
X1726000Y-4600000I50000J0D01*
G01*
X1626000Y-4804000D02*
X1726000Y-4904000D01*
X1726000Y-4804000D02*
X1626000Y-4904000D01*
X1726000Y-4854000D02*
G75*
G02*
X1626000Y-4854000I-50000J0D01*
G01*
X1626000Y-4854000D02*
G75*
G02*
X1726000Y-4854000I50000J0D01*
G01*
X1626000Y-5058000D02*
X1726000Y-5158000D01*
X1726000Y-5058000D02*
X1626000Y-5158000D01*
X1726000Y-5108000D02*
G75*
G02*
X1626000Y-5108000I-50000J0D01*
G01*
X1626000Y-5108000D02*
G75*
G02*
X1726000Y-5108000I50000J0D01*
G01*
X1626000Y-5312000D02*
X1726000Y-5412000D01*
X1726000Y-5312000D02*
X1626000Y-5412000D01*
X1726000Y-5362000D02*
G75*
G02*
X1626000Y-5362000I-50000J0D01*
G01*
X1626000Y-5362000D02*
G75*
G02*
X1726000Y-5362000I50000J0D01*
G01*
X1626000Y-5566000D02*
X1726000Y-5666000D01*
X1726000Y-5566000D02*
X1626000Y-5666000D01*
X1726000Y-5616000D02*
G75*
G02*
X1626000Y-5616000I-50000J0D01*
G01*
X1626000Y-5616000D02*
G75*
G02*
X1726000Y-5616000I50000J0D01*
G01*
X2196000Y-6396000D02*
X2296000Y-6496000D01*
X2296000Y-6396000D02*
X2196000Y-6496000D01*
X2296000Y-6446000D02*
G75*
G02*
X2196000Y-6446000I-50000J0D01*
G01*
X2196000Y-6446000D02*
G75*
G02*
X2296000Y-6446000I50000J0D01*
G01*
X2196000Y-6650000D02*
X2296000Y-6750000D01*
X2296000Y-6650000D02*
X2196000Y-6750000D01*
X2296000Y-6700000D02*
G75*
G02*
X2196000Y-6700000I-50000J0D01*
G01*
X2196000Y-6700000D02*
G75*
G02*
X2296000Y-6700000I50000J0D01*
G01*
X2450000Y-6396000D02*
X2550000Y-6496000D01*
X2550000Y-6396000D02*
X2450000Y-6496000D01*
X2550000Y-6446000D02*
G75*
G02*
X2450000Y-6446000I-50000J0D01*
G01*
X2450000Y-6446000D02*
G75*
G02*
X2550000Y-6446000I50000J0D01*
G01*
X2450000Y-6650000D02*
X2550000Y-6750000D01*
X2550000Y-6650000D02*
X2450000Y-6750000D01*
X2550000Y-6700000D02*
G75*
G02*
X2450000Y-6700000I-50000J0D01*
G01*
X2450000Y-6700000D02*
G75*
G02*
X2550000Y-6700000I50000J0D01*
G01*
X2704000Y-6396000D02*
X2804000Y-6496000D01*
X2804000Y-6396000D02*
X2704000Y-6496000D01*
X2804000Y-6446000D02*
G75*
G02*
X2704000Y-6446000I-50000J0D01*
G01*
X2704000Y-6446000D02*
G75*
G02*
X2804000Y-6446000I50000J0D01*
G01*
X2704000Y-6650000D02*
X2804000Y-6750000D01*
X2804000Y-6650000D02*
X2704000Y-6750000D01*
X2804000Y-6700000D02*
G75*
G02*
X2704000Y-6700000I-50000J0D01*
G01*
X2704000Y-6700000D02*
G75*
G02*
X2804000Y-6700000I50000J0D01*
G01*
X2958000Y-6396000D02*
X3058000Y-6496000D01*
X3058000Y-6396000D02*
X2958000Y-6496000D01*
X3058000Y-6446000D02*
G75*
G02*
X2958000Y-6446000I-50000J0D01*
G01*
X2958000Y-6446000D02*
G75*
G02*
X3058000Y-6446000I50000J0D01*
G01*
X2958000Y-6650000D02*
X3058000Y-6750000D01*
X3058000Y-6650000D02*
X2958000Y-6750000D01*
X3058000Y-6700000D02*
G75*
G02*
X2958000Y-6700000I-50000J0D01*
G01*
X2958000Y-6700000D02*
G75*
G02*
X3058000Y-6700000I50000J0D01*
G01*
X3150000Y-2010000D02*
X3250000Y-2110000D01*
X3250000Y-2010000D02*
X3150000Y-2110000D01*
X3250000Y-2060000D02*
G75*
G02*
X3150000Y-2060000I-50000J0D01*
G01*
X3150000Y-2060000D02*
G75*
G02*
X3250000Y-2060000I50000J0D01*
G01*
X3150000Y-2264000D02*
X3250000Y-2364000D01*
X3250000Y-2264000D02*
X3150000Y-2364000D01*
X3250000Y-2314000D02*
G75*
G02*
X3150000Y-2314000I-50000J0D01*
G01*
X3150000Y-2314000D02*
G75*
G02*
X3250000Y-2314000I50000J0D01*
G01*
X3150000Y-2518000D02*
X3250000Y-2618000D01*
X3250000Y-2518000D02*
X3150000Y-2618000D01*
X3250000Y-2568000D02*
G75*
G02*
X3150000Y-2568000I-50000J0D01*
G01*
X3150000Y-2568000D02*
G75*
G02*
X3250000Y-2568000I50000J0D01*
G01*
X3150000Y-2772000D02*
X3250000Y-2872000D01*
X3250000Y-2772000D02*
X3150000Y-2872000D01*
X3250000Y-2822000D02*
G75*
G02*
X3150000Y-2822000I-50000J0D01*
G01*
X3150000Y-2822000D02*
G75*
G02*
X3250000Y-2822000I50000J0D01*
G01*
X3150000Y-3026000D02*
X3250000Y-3126000D01*
X3250000Y-3026000D02*
X3150000Y-3126000D01*
X3250000Y-3076000D02*
G75*
G02*
X3150000Y-3076000I-50000J0D01*
G01*
X3150000Y-3076000D02*
G75*
G02*
X3250000Y-3076000I50000J0D01*
G01*
X3150000Y-3280000D02*
X3250000Y-3380000D01*
X3250000Y-3280000D02*
X3150000Y-3380000D01*
X3250000Y-3330000D02*
G75*
G02*
X3150000Y-3330000I-50000J0D01*
G01*
X3150000Y-3330000D02*
G75*
G02*
X3250000Y-3330000I50000J0D01*
G01*
X3150000Y-3534000D02*
X3250000Y-3634000D01*
X3250000Y-3534000D02*
X3150000Y-3634000D01*
X3250000Y-3584000D02*
G75*
G02*
X3150000Y-3584000I-50000J0D01*
G01*
X3150000Y-3584000D02*
G75*
G02*
X3250000Y-3584000I50000J0D01*
G01*
X3150000Y-3788000D02*
X3250000Y-3888000D01*
X3250000Y-3788000D02*
X3150000Y-3888000D01*
X3250000Y-3838000D02*
G75*
G02*
X3150000Y-3838000I-50000J0D01*
G01*
X3150000Y-3838000D02*
G75*
G02*
X3250000Y-3838000I50000J0D01*
G01*
X3150000Y-4042000D02*
X3250000Y-4142000D01*
X3250000Y-4042000D02*
X3150000Y-4142000D01*
X3250000Y-4092000D02*
G75*
G02*
X3150000Y-4092000I-50000J0D01*
G01*
X3150000Y-4092000D02*
G75*
G02*
X3250000Y-4092000I50000J0D01*
G01*
X3150000Y-4296000D02*
X3250000Y-4396000D01*
X3250000Y-4296000D02*
X3150000Y-4396000D01*
X3250000Y-4346000D02*
G75*
G02*
X3150000Y-4346000I-50000J0D01*
G01*
X3150000Y-4346000D02*
G75*
G02*
X3250000Y-4346000I50000J0D01*
G01*
X3150000Y-4550000D02*
X3250000Y-4650000D01*
X3250000Y-4550000D02*
X3150000Y-4650000D01*
X3250000Y-4600000D02*
G75*
G02*
X3150000Y-4600000I-50000J0D01*
G01*
X3150000Y-4600000D02*
G75*
G02*
X3250000Y-4600000I50000J0D01*
G01*
X3150000Y-4804000D02*
X3250000Y-4904000D01*
X3250000Y-4804000D02*
X3150000Y-4904000D01*
X3250000Y-4854000D02*
G75*
G02*
X3150000Y-4854000I-50000J0D01*
G01*
X3150000Y-4854000D02*
G75*
G02*
X3250000Y-4854000I50000J0D01*
G01*
X3150000Y-5058000D02*
X3250000Y-5158000D01*
X3250000Y-5058000D02*
X3150000Y-5158000D01*
X3250000Y-5108000D02*
G75*
G02*
X3150000Y-5108000I-50000J0D01*
G01*
X3150000Y-5108000D02*
G75*
G02*
X3250000Y-5108000I50000J0D01*
G01*
X3150000Y-5312000D02*
X3250000Y-5412000D01*
X3250000Y-5312000D02*
X3150000Y-5412000D01*
X3250000Y-5362000D02*
G75*
G02*
X3150000Y-5362000I-50000J0D01*
G01*
X3150000Y-5362000D02*
G75*
G02*
X3250000Y-5362000I50000J0D01*
G01*
X3150000Y-5566000D02*
X3250000Y-5666000D01*
X3250000Y-5566000D02*
X3150000Y-5666000D01*
X3250000Y-5616000D02*
G75*
G02*
X3150000Y-5616000I-50000J0D01*
G01*
X3150000Y-5616000D02*
G75*
G02*
X3250000Y-5616000I50000J0D01*
G01*
X4640000Y-7008000D02*
X4740000Y-7108000D01*
X4740000Y-7008000D02*
X4640000Y-7108000D01*
X4740000Y-7058000D02*
G75*
G02*
X4640000Y-7058000I-50000J0D01*
G01*
X4640000Y-7058000D02*
G75*
G02*
X4740000Y-7058000I50000J0D01*
G01*
X4890000Y-7008000D02*
X4990000Y-7108000D01*
X4990000Y-7008000D02*
X4890000Y-7108000D01*
X4990000Y-7058000D02*
G75*
G02*
X4890000Y-7058000I-50000J0D01*
G01*
X4890000Y-7058000D02*
G75*
G02*
X4990000Y-7058000I50000J0D01*
G01*
X5140000Y-7008000D02*
X5240000Y-7108000D01*
X5240000Y-7008000D02*
X5140000Y-7108000D01*
X5240000Y-7058000D02*
G75*
G02*
X5140000Y-7058000I-50000J0D01*
G01*
X5140000Y-7058000D02*
G75*
G02*
X5240000Y-7058000I50000J0D01*
G01*
X8346000Y-2166000D02*
X8446000Y-2266000D01*
X8446000Y-2166000D02*
X8346000Y-2266000D01*
X8446000Y-2216000D02*
G75*
G02*
X8346000Y-2216000I-50000J0D01*
G01*
X8346000Y-2216000D02*
G75*
G02*
X8446000Y-2216000I50000J0D01*
G01*
X8484500Y-2450000D02*
X8584500Y-2550000D01*
X8584500Y-2450000D02*
X8484500Y-2550000D01*
X8584500Y-2500000D02*
G75*
G02*
X8484500Y-2500000I-50000J0D01*
G01*
X8484500Y-2500000D02*
G75*
G02*
X8584500Y-2500000I50000J0D01*
G01*
X8623000Y-2166000D02*
X8723000Y-2266000D01*
X8723000Y-2166000D02*
X8623000Y-2266000D01*
X8723000Y-2216000D02*
G75*
G02*
X8623000Y-2216000I-50000J0D01*
G01*
X8623000Y-2216000D02*
G75*
G02*
X8723000Y-2216000I50000J0D01*
G01*
X8761500Y-2450000D02*
X8861500Y-2550000D01*
X8861500Y-2450000D02*
X8761500Y-2550000D01*
X8861500Y-2500000D02*
G75*
G02*
X8761500Y-2500000I-50000J0D01*
G01*
X8761500Y-2500000D02*
G75*
G02*
X8861500Y-2500000I50000J0D01*
G01*
X8900000Y-2166000D02*
X9000000Y-2266000D01*
X9000000Y-2166000D02*
X8900000Y-2266000D01*
X9000000Y-2216000D02*
G75*
G02*
X8900000Y-2216000I-50000J0D01*
G01*
X8900000Y-2216000D02*
G75*
G02*
X9000000Y-2216000I50000J0D01*
G01*
X9038500Y-2450000D02*
X9138500Y-2550000D01*
X9138500Y-2450000D02*
X9038500Y-2550000D01*
X9138500Y-2500000D02*
G75*
G02*
X9038500Y-2500000I-50000J0D01*
G01*
X9038500Y-2500000D02*
G75*
G02*
X9138500Y-2500000I50000J0D01*
G01*
X9177000Y-2166000D02*
X9277000Y-2266000D01*
X9277000Y-2166000D02*
X9177000Y-2266000D01*
X9277000Y-2216000D02*
G75*
G02*
X9177000Y-2216000I-50000J0D01*
G01*
X9177000Y-2216000D02*
G75*
G02*
X9277000Y-2216000I50000J0D01*
G01*
X9315500Y-2450000D02*
X9415500Y-2550000D01*
X9415500Y-2450000D02*
X9315500Y-2550000D01*
X9415500Y-2500000D02*
G75*
G02*
X9315500Y-2500000I-50000J0D01*
G01*
X9315500Y-2500000D02*
G75*
G02*
X9415500Y-2500000I50000J0D01*
G01*
X9371050Y-5294750D02*
X9471050Y-5394750D01*
X9471050Y-5294750D02*
X9371050Y-5394750D01*
X9471050Y-5344750D02*
G75*
G02*
X9371050Y-5344750I-50000J0D01*
G01*
X9371050Y-5344750D02*
G75*
G02*
X9471050Y-5344750I50000J0D01*
G01*
X9371050Y-5548750D02*
X9471050Y-5648750D01*
X9471050Y-5548750D02*
X9371050Y-5648750D01*
X9471050Y-5598750D02*
G75*
G02*
X9371050Y-5598750I-50000J0D01*
G01*
X9371050Y-5598750D02*
G75*
G02*
X9471050Y-5598750I50000J0D01*
G01*
X9371050Y-5802750D02*
X9471050Y-5902750D01*
X9471050Y-5802750D02*
X9371050Y-5902750D01*
X9471050Y-5852750D02*
G75*
G02*
X9371050Y-5852750I-50000J0D01*
G01*
X9371050Y-5852750D02*
G75*
G02*
X9471050Y-5852750I50000J0D01*
G01*
X9371050Y-6056750D02*
X9471050Y-6156750D01*
X9471050Y-6056750D02*
X9371050Y-6156750D01*
X9471050Y-6106750D02*
G75*
G02*
X9371050Y-6106750I-50000J0D01*
G01*
X9371050Y-6106750D02*
G75*
G02*
X9471050Y-6106750I50000J0D01*
G01*
X9454000Y-2166000D02*
X9554000Y-2266000D01*
X9554000Y-2166000D02*
X9454000Y-2266000D01*
X9554000Y-2216000D02*
G75*
G02*
X9454000Y-2216000I-50000J0D01*
G01*
X9454000Y-2216000D02*
G75*
G02*
X9554000Y-2216000I50000J0D01*
G01*
X9625050Y-5294750D02*
X9725050Y-5394750D01*
X9725050Y-5294750D02*
X9625050Y-5394750D01*
X9725050Y-5344750D02*
G75*
G02*
X9625050Y-5344750I-50000J0D01*
G01*
X9625050Y-5344750D02*
G75*
G02*
X9725050Y-5344750I50000J0D01*
G01*
X9625050Y-5548750D02*
X9725050Y-5648750D01*
X9725050Y-5548750D02*
X9625050Y-5648750D01*
X9725050Y-5598750D02*
G75*
G02*
X9625050Y-5598750I-50000J0D01*
G01*
X9625050Y-5598750D02*
G75*
G02*
X9725050Y-5598750I50000J0D01*
G01*
X9625050Y-5802750D02*
X9725050Y-5902750D01*
X9725050Y-5802750D02*
X9625050Y-5902750D01*
X9725050Y-5852750D02*
G75*
G02*
X9625050Y-5852750I-50000J0D01*
G01*
X9625050Y-5852750D02*
G75*
G02*
X9725050Y-5852750I50000J0D01*
G01*
X9625050Y-6056750D02*
X9725050Y-6156750D01*
X9725050Y-6056750D02*
X9625050Y-6156750D01*
X9725050Y-6106750D02*
G75*
G02*
X9625050Y-6106750I-50000J0D01*
G01*
X9625050Y-6106750D02*
G75*
G02*
X9725050Y-6106750I50000J0D01*
G01*
D13*
X8798180Y-3374950D02*
X8899780Y-3476550D01*
X8899780Y-3374950D02*
X8798180Y-3476550D01*
X8848980Y-3374950D02*
X8848980Y-3476550D01*
X8798180Y-3425750D02*
X8899780Y-3425750D01*
X8798180Y-3628950D02*
X8899780Y-3730550D01*
X8899780Y-3628950D02*
X8798180Y-3730550D01*
X8848980Y-3628950D02*
X8848980Y-3730550D01*
X8798180Y-3679750D02*
X8899780Y-3679750D01*
X8798180Y-3882950D02*
X8899780Y-3984550D01*
X8899780Y-3882950D02*
X8798180Y-3984550D01*
X8848980Y-3882950D02*
X8848980Y-3984550D01*
X8798180Y-3933750D02*
X8899780Y-3933750D01*
X8798180Y-4136950D02*
X8899780Y-4238550D01*
X8899780Y-4136950D02*
X8798180Y-4238550D01*
X8848980Y-4136950D02*
X8848980Y-4238550D01*
X8798180Y-4187750D02*
X8899780Y-4187750D01*
X9198180Y-6824950D02*
X9299780Y-6926550D01*
X9299780Y-6824950D02*
X9198180Y-6926550D01*
X9248980Y-6824950D02*
X9248980Y-6926550D01*
X9198180Y-6875750D02*
X9299780Y-6875750D01*
X9198180Y-7078950D02*
X9299780Y-7180550D01*
X9299780Y-7078950D02*
X9198180Y-7180550D01*
X9248980Y-7078950D02*
X9248980Y-7180550D01*
X9198180Y-7129750D02*
X9299780Y-7129750D01*
X9198180Y-7332950D02*
X9299780Y-7434550D01*
X9299780Y-7332950D02*
X9198180Y-7434550D01*
X9248980Y-7332950D02*
X9248980Y-7434550D01*
X9198180Y-7383750D02*
X9299780Y-7383750D01*
X9198180Y-7586950D02*
X9299780Y-7688550D01*
X9299780Y-7586950D02*
X9198180Y-7688550D01*
X9248980Y-7586950D02*
X9248980Y-7688550D01*
X9198180Y-7637750D02*
X9299780Y-7637750D01*
D14*
X7540000Y-2198000D02*
X7860000Y-2518000D01*
X7860000Y-2198000D02*
X7540000Y-2518000D01*
X7813138Y-2471138D02*
X7813138Y-2244862D01*
X7586862Y-2244862D01*
X7586862Y-2471138D01*
X7813138Y-2471138D01*
X10040000Y-2198000D02*
X10360000Y-2518000D01*
X10360000Y-2198000D02*
X10040000Y-2518000D01*
X10313138Y-2471138D02*
X10313138Y-2244862D01*
X10086862Y-2244862D01*
X10086862Y-2471138D01*
X10313138Y-2471138D01*
D11*
X1558277Y-8313984D02*
X1558277Y-8113984D01*
X1558277Y-8113984D02*
X1605896Y-8113984D01*
X1605896Y-8113984D02*
X1634467Y-8123508D01*
X1634467Y-8123508D02*
X1653515Y-8142555D01*
X1653515Y-8142555D02*
X1663039Y-8161603D01*
X1663039Y-8161603D02*
X1672562Y-8199698D01*
X1672562Y-8199698D02*
X1672562Y-8228269D01*
X1672562Y-8228269D02*
X1663039Y-8266365D01*
X1663039Y-8266365D02*
X1653515Y-8285412D01*
X1653515Y-8285412D02*
X1634467Y-8304460D01*
X1634467Y-8304460D02*
X1605896Y-8313984D01*
X1605896Y-8313984D02*
X1558277Y-8313984D01*
X1758277Y-8313984D02*
X1758277Y-8180650D01*
X1758277Y-8218746D02*
X1767801Y-8199698D01*
X1767801Y-8199698D02*
X1777324Y-8190174D01*
X1777324Y-8190174D02*
X1796372Y-8180650D01*
X1796372Y-8180650D02*
X1815420Y-8180650D01*
X1882086Y-8313984D02*
X1882086Y-8180650D01*
X1882086Y-8113984D02*
X1872562Y-8123508D01*
X1872562Y-8123508D02*
X1882086Y-8133031D01*
X1882086Y-8133031D02*
X1891610Y-8123508D01*
X1891610Y-8123508D02*
X1882086Y-8113984D01*
X1882086Y-8113984D02*
X1882086Y-8133031D01*
X2005896Y-8313984D02*
X1986848Y-8304460D01*
X1986848Y-8304460D02*
X1977324Y-8285412D01*
X1977324Y-8285412D02*
X1977324Y-8113984D01*
X2110658Y-8313984D02*
X2091610Y-8304460D01*
X2091610Y-8304460D02*
X2082086Y-8285412D01*
X2082086Y-8285412D02*
X2082086Y-8113984D01*
X2339229Y-8313984D02*
X2339229Y-8113984D01*
X2339229Y-8113984D02*
X2405896Y-8256841D01*
X2405896Y-8256841D02*
X2472563Y-8113984D01*
X2472563Y-8113984D02*
X2472563Y-8313984D01*
X2653515Y-8313984D02*
X2653515Y-8209222D01*
X2653515Y-8209222D02*
X2643991Y-8190174D01*
X2643991Y-8190174D02*
X2624944Y-8180650D01*
X2624944Y-8180650D02*
X2586848Y-8180650D01*
X2586848Y-8180650D02*
X2567801Y-8190174D01*
X2653515Y-8304460D02*
X2634467Y-8313984D01*
X2634467Y-8313984D02*
X2586848Y-8313984D01*
X2586848Y-8313984D02*
X2567801Y-8304460D01*
X2567801Y-8304460D02*
X2558277Y-8285412D01*
X2558277Y-8285412D02*
X2558277Y-8266365D01*
X2558277Y-8266365D02*
X2567801Y-8247317D01*
X2567801Y-8247317D02*
X2586848Y-8237793D01*
X2586848Y-8237793D02*
X2634467Y-8237793D01*
X2634467Y-8237793D02*
X2653515Y-8228269D01*
X2748753Y-8180650D02*
X2748753Y-8380650D01*
X2748753Y-8190174D02*
X2767801Y-8180650D01*
X2767801Y-8180650D02*
X2805896Y-8180650D01*
X2805896Y-8180650D02*
X2824943Y-8190174D01*
X2824943Y-8190174D02*
X2834467Y-8199698D01*
X2834467Y-8199698D02*
X2843991Y-8218746D01*
X2843991Y-8218746D02*
X2843991Y-8275888D01*
X2843991Y-8275888D02*
X2834467Y-8294936D01*
X2834467Y-8294936D02*
X2824943Y-8304460D01*
X2824943Y-8304460D02*
X2805896Y-8313984D01*
X2805896Y-8313984D02*
X2767801Y-8313984D01*
X2767801Y-8313984D02*
X2748753Y-8304460D01*
X2929705Y-8294936D02*
X2939229Y-8304460D01*
X2939229Y-8304460D02*
X2929705Y-8313984D01*
X2929705Y-8313984D02*
X2920182Y-8304460D01*
X2920182Y-8304460D02*
X2929705Y-8294936D01*
X2929705Y-8294936D02*
X2929705Y-8313984D01*
X2929705Y-8190174D02*
X2939229Y-8199698D01*
X2939229Y-8199698D02*
X2929705Y-8209222D01*
X2929705Y-8209222D02*
X2920182Y-8199698D01*
X2920182Y-8199698D02*
X2929705Y-8190174D01*
X2929705Y-8190174D02*
X2929705Y-8209222D01*
D12*
X1267500Y-8627500D02*
X1297500Y-8657500D01*
X1297500Y-8627500D02*
X1267500Y-8657500D01*
D11*
X1596372Y-8533984D02*
X1615420Y-8533984D01*
X1615420Y-8533984D02*
X1634467Y-8543508D01*
X1634467Y-8543508D02*
X1643991Y-8553031D01*
X1643991Y-8553031D02*
X1653515Y-8572079D01*
X1653515Y-8572079D02*
X1663039Y-8610174D01*
X1663039Y-8610174D02*
X1663039Y-8657793D01*
X1663039Y-8657793D02*
X1653515Y-8695889D01*
X1653515Y-8695889D02*
X1643991Y-8714936D01*
X1643991Y-8714936D02*
X1634467Y-8724460D01*
X1634467Y-8724460D02*
X1615420Y-8733984D01*
X1615420Y-8733984D02*
X1596372Y-8733984D01*
X1596372Y-8733984D02*
X1577324Y-8724460D01*
X1577324Y-8724460D02*
X1567801Y-8714936D01*
X1567801Y-8714936D02*
X1558277Y-8695889D01*
X1558277Y-8695889D02*
X1548753Y-8657793D01*
X1548753Y-8657793D02*
X1548753Y-8610174D01*
X1548753Y-8610174D02*
X1558277Y-8572079D01*
X1558277Y-8572079D02*
X1567801Y-8553031D01*
X1567801Y-8553031D02*
X1577324Y-8543508D01*
X1577324Y-8543508D02*
X1596372Y-8533984D01*
X1748753Y-8714936D02*
X1758277Y-8724460D01*
X1758277Y-8724460D02*
X1748753Y-8733984D01*
X1748753Y-8733984D02*
X1739229Y-8724460D01*
X1739229Y-8724460D02*
X1748753Y-8714936D01*
X1748753Y-8714936D02*
X1748753Y-8733984D01*
X1824943Y-8533984D02*
X1948753Y-8533984D01*
X1948753Y-8533984D02*
X1882086Y-8610174D01*
X1882086Y-8610174D02*
X1910658Y-8610174D01*
X1910658Y-8610174D02*
X1929705Y-8619698D01*
X1929705Y-8619698D02*
X1939229Y-8629222D01*
X1939229Y-8629222D02*
X1948753Y-8648270D01*
X1948753Y-8648270D02*
X1948753Y-8695889D01*
X1948753Y-8695889D02*
X1939229Y-8714936D01*
X1939229Y-8714936D02*
X1929705Y-8724460D01*
X1929705Y-8724460D02*
X1910658Y-8733984D01*
X1910658Y-8733984D02*
X1853515Y-8733984D01*
X1853515Y-8733984D02*
X1834467Y-8724460D01*
X1834467Y-8724460D02*
X1824943Y-8714936D01*
X2072562Y-8533984D02*
X2091610Y-8533984D01*
X2091610Y-8533984D02*
X2110658Y-8543508D01*
X2110658Y-8543508D02*
X2120182Y-8553031D01*
X2120182Y-8553031D02*
X2129705Y-8572079D01*
X2129705Y-8572079D02*
X2139229Y-8610174D01*
X2139229Y-8610174D02*
X2139229Y-8657793D01*
X2139229Y-8657793D02*
X2129705Y-8695889D01*
X2129705Y-8695889D02*
X2120182Y-8714936D01*
X2120182Y-8714936D02*
X2110658Y-8724460D01*
X2110658Y-8724460D02*
X2091610Y-8733984D01*
X2091610Y-8733984D02*
X2072562Y-8733984D01*
X2072562Y-8733984D02*
X2053515Y-8724460D01*
X2053515Y-8724460D02*
X2043991Y-8714936D01*
X2043991Y-8714936D02*
X2034467Y-8695889D01*
X2034467Y-8695889D02*
X2024943Y-8657793D01*
X2024943Y-8657793D02*
X2024943Y-8610174D01*
X2024943Y-8610174D02*
X2034467Y-8572079D01*
X2034467Y-8572079D02*
X2043991Y-8553031D01*
X2043991Y-8553031D02*
X2053515Y-8543508D01*
X2053515Y-8543508D02*
X2072562Y-8533984D01*
X2263039Y-8533984D02*
X2282086Y-8533984D01*
X2282086Y-8533984D02*
X2301134Y-8543508D01*
X2301134Y-8543508D02*
X2310658Y-8553031D01*
X2310658Y-8553031D02*
X2320182Y-8572079D01*
X2320182Y-8572079D02*
X2329705Y-8610174D01*
X2329705Y-8610174D02*
X2329705Y-8657793D01*
X2329705Y-8657793D02*
X2320182Y-8695889D01*
X2320182Y-8695889D02*
X2310658Y-8714936D01*
X2310658Y-8714936D02*
X2301134Y-8724460D01*
X2301134Y-8724460D02*
X2282086Y-8733984D01*
X2282086Y-8733984D02*
X2263039Y-8733984D01*
X2263039Y-8733984D02*
X2243991Y-8724460D01*
X2243991Y-8724460D02*
X2234467Y-8714936D01*
X2234467Y-8714936D02*
X2224944Y-8695889D01*
X2224944Y-8695889D02*
X2215420Y-8657793D01*
X2215420Y-8657793D02*
X2215420Y-8610174D01*
X2215420Y-8610174D02*
X2224944Y-8572079D01*
X2224944Y-8572079D02*
X2234467Y-8553031D01*
X2234467Y-8553031D02*
X2243991Y-8543508D01*
X2243991Y-8543508D02*
X2263039Y-8533984D01*
X2415420Y-8733984D02*
X2415420Y-8600650D01*
X2415420Y-8619698D02*
X2424944Y-8610174D01*
X2424944Y-8610174D02*
X2443991Y-8600650D01*
X2443991Y-8600650D02*
X2472563Y-8600650D01*
X2472563Y-8600650D02*
X2491610Y-8610174D01*
X2491610Y-8610174D02*
X2501134Y-8629222D01*
X2501134Y-8629222D02*
X2501134Y-8733984D01*
X2501134Y-8629222D02*
X2510658Y-8610174D01*
X2510658Y-8610174D02*
X2529705Y-8600650D01*
X2529705Y-8600650D02*
X2558277Y-8600650D01*
X2558277Y-8600650D02*
X2577325Y-8610174D01*
X2577325Y-8610174D02*
X2586848Y-8629222D01*
X2586848Y-8629222D02*
X2586848Y-8733984D01*
X2682086Y-8733984D02*
X2682086Y-8600650D01*
X2682086Y-8619698D02*
X2691610Y-8610174D01*
X2691610Y-8610174D02*
X2710658Y-8600650D01*
X2710658Y-8600650D02*
X2739229Y-8600650D01*
X2739229Y-8600650D02*
X2758277Y-8610174D01*
X2758277Y-8610174D02*
X2767801Y-8629222D01*
X2767801Y-8629222D02*
X2767801Y-8733984D01*
X2767801Y-8629222D02*
X2777325Y-8610174D01*
X2777325Y-8610174D02*
X2796372Y-8600650D01*
X2796372Y-8600650D02*
X2824943Y-8600650D01*
X2824943Y-8600650D02*
X2843991Y-8610174D01*
X2843991Y-8610174D02*
X2853515Y-8629222D01*
X2853515Y-8629222D02*
X2853515Y-8733984D01*
X3243991Y-8524460D02*
X3072563Y-8781603D01*
X3501134Y-8533984D02*
X3520182Y-8533984D01*
X3520182Y-8533984D02*
X3539229Y-8543508D01*
X3539229Y-8543508D02*
X3548753Y-8553031D01*
X3548753Y-8553031D02*
X3558277Y-8572079D01*
X3558277Y-8572079D02*
X3567801Y-8610174D01*
X3567801Y-8610174D02*
X3567801Y-8657793D01*
X3567801Y-8657793D02*
X3558277Y-8695889D01*
X3558277Y-8695889D02*
X3548753Y-8714936D01*
X3548753Y-8714936D02*
X3539229Y-8724460D01*
X3539229Y-8724460D02*
X3520182Y-8733984D01*
X3520182Y-8733984D02*
X3501134Y-8733984D01*
X3501134Y-8733984D02*
X3482086Y-8724460D01*
X3482086Y-8724460D02*
X3472563Y-8714936D01*
X3472563Y-8714936D02*
X3463039Y-8695889D01*
X3463039Y-8695889D02*
X3453515Y-8657793D01*
X3453515Y-8657793D02*
X3453515Y-8610174D01*
X3453515Y-8610174D02*
X3463039Y-8572079D01*
X3463039Y-8572079D02*
X3472563Y-8553031D01*
X3472563Y-8553031D02*
X3482086Y-8543508D01*
X3482086Y-8543508D02*
X3501134Y-8533984D01*
X3653515Y-8714936D02*
X3663039Y-8724460D01*
X3663039Y-8724460D02*
X3653515Y-8733984D01*
X3653515Y-8733984D02*
X3643991Y-8724460D01*
X3643991Y-8724460D02*
X3653515Y-8714936D01*
X3653515Y-8714936D02*
X3653515Y-8733984D01*
X3786848Y-8533984D02*
X3805896Y-8533984D01*
X3805896Y-8533984D02*
X3824944Y-8543508D01*
X3824944Y-8543508D02*
X3834467Y-8553031D01*
X3834467Y-8553031D02*
X3843991Y-8572079D01*
X3843991Y-8572079D02*
X3853515Y-8610174D01*
X3853515Y-8610174D02*
X3853515Y-8657793D01*
X3853515Y-8657793D02*
X3843991Y-8695889D01*
X3843991Y-8695889D02*
X3834467Y-8714936D01*
X3834467Y-8714936D02*
X3824944Y-8724460D01*
X3824944Y-8724460D02*
X3805896Y-8733984D01*
X3805896Y-8733984D02*
X3786848Y-8733984D01*
X3786848Y-8733984D02*
X3767801Y-8724460D01*
X3767801Y-8724460D02*
X3758277Y-8714936D01*
X3758277Y-8714936D02*
X3748753Y-8695889D01*
X3748753Y-8695889D02*
X3739229Y-8657793D01*
X3739229Y-8657793D02*
X3739229Y-8610174D01*
X3739229Y-8610174D02*
X3748753Y-8572079D01*
X3748753Y-8572079D02*
X3758277Y-8553031D01*
X3758277Y-8553031D02*
X3767801Y-8543508D01*
X3767801Y-8543508D02*
X3786848Y-8533984D01*
X4043991Y-8733984D02*
X3929706Y-8733984D01*
X3986848Y-8733984D02*
X3986848Y-8533984D01*
X3986848Y-8533984D02*
X3967801Y-8562555D01*
X3967801Y-8562555D02*
X3948753Y-8581603D01*
X3948753Y-8581603D02*
X3929706Y-8591127D01*
X4234468Y-8733984D02*
X4120182Y-8733984D01*
X4177325Y-8733984D02*
X4177325Y-8533984D01*
X4177325Y-8533984D02*
X4158277Y-8562555D01*
X4158277Y-8562555D02*
X4139229Y-8581603D01*
X4139229Y-8581603D02*
X4120182Y-8591127D01*
X4348753Y-8619698D02*
X4329706Y-8610174D01*
X4329706Y-8610174D02*
X4320182Y-8600650D01*
X4320182Y-8600650D02*
X4310658Y-8581603D01*
X4310658Y-8581603D02*
X4310658Y-8572079D01*
X4310658Y-8572079D02*
X4320182Y-8553031D01*
X4320182Y-8553031D02*
X4329706Y-8543508D01*
X4329706Y-8543508D02*
X4348753Y-8533984D01*
X4348753Y-8533984D02*
X4386849Y-8533984D01*
X4386849Y-8533984D02*
X4405896Y-8543508D01*
X4405896Y-8543508D02*
X4415420Y-8553031D01*
X4415420Y-8553031D02*
X4424944Y-8572079D01*
X4424944Y-8572079D02*
X4424944Y-8581603D01*
X4424944Y-8581603D02*
X4415420Y-8600650D01*
X4415420Y-8600650D02*
X4405896Y-8610174D01*
X4405896Y-8610174D02*
X4386849Y-8619698D01*
X4386849Y-8619698D02*
X4348753Y-8619698D01*
X4348753Y-8619698D02*
X4329706Y-8629222D01*
X4329706Y-8629222D02*
X4320182Y-8638746D01*
X4320182Y-8638746D02*
X4310658Y-8657793D01*
X4310658Y-8657793D02*
X4310658Y-8695889D01*
X4310658Y-8695889D02*
X4320182Y-8714936D01*
X4320182Y-8714936D02*
X4329706Y-8724460D01*
X4329706Y-8724460D02*
X4348753Y-8733984D01*
X4348753Y-8733984D02*
X4386849Y-8733984D01*
X4386849Y-8733984D02*
X4405896Y-8724460D01*
X4405896Y-8724460D02*
X4415420Y-8714936D01*
X4415420Y-8714936D02*
X4424944Y-8695889D01*
X4424944Y-8695889D02*
X4424944Y-8657793D01*
X4424944Y-8657793D02*
X4415420Y-8638746D01*
X4415420Y-8638746D02*
X4405896Y-8629222D01*
X4405896Y-8629222D02*
X4386849Y-8619698D01*
X4501134Y-8533984D02*
X4501134Y-8572079D01*
X4577325Y-8533984D02*
X4577325Y-8572079D01*
X4872563Y-8810174D02*
X4863039Y-8800650D01*
X4863039Y-8800650D02*
X4843991Y-8772079D01*
X4843991Y-8772079D02*
X4834468Y-8753031D01*
X4834468Y-8753031D02*
X4824944Y-8724460D01*
X4824944Y-8724460D02*
X4815420Y-8676841D01*
X4815420Y-8676841D02*
X4815420Y-8638746D01*
X4815420Y-8638746D02*
X4824944Y-8591127D01*
X4824944Y-8591127D02*
X4834468Y-8562555D01*
X4834468Y-8562555D02*
X4843991Y-8543508D01*
X4843991Y-8543508D02*
X4863039Y-8514936D01*
X4863039Y-8514936D02*
X4872563Y-8505412D01*
X5034468Y-8600650D02*
X5034468Y-8733984D01*
X4986849Y-8524460D02*
X4939230Y-8667317D01*
X4939230Y-8667317D02*
X5063039Y-8667317D01*
X5177325Y-8533984D02*
X5196372Y-8533984D01*
X5196372Y-8533984D02*
X5215420Y-8543508D01*
X5215420Y-8543508D02*
X5224944Y-8553031D01*
X5224944Y-8553031D02*
X5234468Y-8572079D01*
X5234468Y-8572079D02*
X5243991Y-8610174D01*
X5243991Y-8610174D02*
X5243991Y-8657793D01*
X5243991Y-8657793D02*
X5234468Y-8695889D01*
X5234468Y-8695889D02*
X5224944Y-8714936D01*
X5224944Y-8714936D02*
X5215420Y-8724460D01*
X5215420Y-8724460D02*
X5196372Y-8733984D01*
X5196372Y-8733984D02*
X5177325Y-8733984D01*
X5177325Y-8733984D02*
X5158277Y-8724460D01*
X5158277Y-8724460D02*
X5148753Y-8714936D01*
X5148753Y-8714936D02*
X5139230Y-8695889D01*
X5139230Y-8695889D02*
X5129706Y-8657793D01*
X5129706Y-8657793D02*
X5129706Y-8610174D01*
X5129706Y-8610174D02*
X5139230Y-8572079D01*
X5139230Y-8572079D02*
X5148753Y-8553031D01*
X5148753Y-8553031D02*
X5158277Y-8543508D01*
X5158277Y-8543508D02*
X5177325Y-8533984D01*
X5482087Y-8733984D02*
X5482087Y-8533984D01*
X5567801Y-8733984D02*
X5567801Y-8629222D01*
X5567801Y-8629222D02*
X5558277Y-8610174D01*
X5558277Y-8610174D02*
X5539230Y-8600650D01*
X5539230Y-8600650D02*
X5510658Y-8600650D01*
X5510658Y-8600650D02*
X5491611Y-8610174D01*
X5491611Y-8610174D02*
X5482087Y-8619698D01*
X5691610Y-8733984D02*
X5672563Y-8724460D01*
X5672563Y-8724460D02*
X5663039Y-8714936D01*
X5663039Y-8714936D02*
X5653515Y-8695889D01*
X5653515Y-8695889D02*
X5653515Y-8638746D01*
X5653515Y-8638746D02*
X5663039Y-8619698D01*
X5663039Y-8619698D02*
X5672563Y-8610174D01*
X5672563Y-8610174D02*
X5691610Y-8600650D01*
X5691610Y-8600650D02*
X5720182Y-8600650D01*
X5720182Y-8600650D02*
X5739230Y-8610174D01*
X5739230Y-8610174D02*
X5748753Y-8619698D01*
X5748753Y-8619698D02*
X5758277Y-8638746D01*
X5758277Y-8638746D02*
X5758277Y-8695889D01*
X5758277Y-8695889D02*
X5748753Y-8714936D01*
X5748753Y-8714936D02*
X5739230Y-8724460D01*
X5739230Y-8724460D02*
X5720182Y-8733984D01*
X5720182Y-8733984D02*
X5691610Y-8733984D01*
X5872563Y-8733984D02*
X5853515Y-8724460D01*
X5853515Y-8724460D02*
X5843991Y-8705412D01*
X5843991Y-8705412D02*
X5843991Y-8533984D01*
X6024944Y-8724460D02*
X6005896Y-8733984D01*
X6005896Y-8733984D02*
X5967801Y-8733984D01*
X5967801Y-8733984D02*
X5948753Y-8724460D01*
X5948753Y-8724460D02*
X5939230Y-8705412D01*
X5939230Y-8705412D02*
X5939230Y-8629222D01*
X5939230Y-8629222D02*
X5948753Y-8610174D01*
X5948753Y-8610174D02*
X5967801Y-8600650D01*
X5967801Y-8600650D02*
X6005896Y-8600650D01*
X6005896Y-8600650D02*
X6024944Y-8610174D01*
X6024944Y-8610174D02*
X6034468Y-8629222D01*
X6034468Y-8629222D02*
X6034468Y-8648270D01*
X6034468Y-8648270D02*
X5939230Y-8667317D01*
X6110658Y-8724460D02*
X6129706Y-8733984D01*
X6129706Y-8733984D02*
X6167801Y-8733984D01*
X6167801Y-8733984D02*
X6186849Y-8724460D01*
X6186849Y-8724460D02*
X6196372Y-8705412D01*
X6196372Y-8705412D02*
X6196372Y-8695889D01*
X6196372Y-8695889D02*
X6186849Y-8676841D01*
X6186849Y-8676841D02*
X6167801Y-8667317D01*
X6167801Y-8667317D02*
X6139230Y-8667317D01*
X6139230Y-8667317D02*
X6120182Y-8657793D01*
X6120182Y-8657793D02*
X6110658Y-8638746D01*
X6110658Y-8638746D02*
X6110658Y-8629222D01*
X6110658Y-8629222D02*
X6120182Y-8610174D01*
X6120182Y-8610174D02*
X6139230Y-8600650D01*
X6139230Y-8600650D02*
X6167801Y-8600650D01*
X6167801Y-8600650D02*
X6186849Y-8610174D01*
X6263039Y-8810174D02*
X6272563Y-8800650D01*
X6272563Y-8800650D02*
X6291611Y-8772079D01*
X6291611Y-8772079D02*
X6301134Y-8753031D01*
X6301134Y-8753031D02*
X6310658Y-8724460D01*
X6310658Y-8724460D02*
X6320182Y-8676841D01*
X6320182Y-8676841D02*
X6320182Y-8638746D01*
X6320182Y-8638746D02*
X6310658Y-8591127D01*
X6310658Y-8591127D02*
X6301134Y-8562555D01*
X6301134Y-8562555D02*
X6291611Y-8543508D01*
X6291611Y-8543508D02*
X6272563Y-8514936D01*
X6272563Y-8514936D02*
X6263039Y-8505412D01*
D12*
X1297500Y-8906500D02*
G75*
G02*
X1227500Y-8906500I-35000J0D01*
G01*
X1227500Y-8906500D02*
G75*
G02*
X1297500Y-8906500I35000J0D01*
G01*
D11*
X1596372Y-8797984D02*
X1615420Y-8797984D01*
X1615420Y-8797984D02*
X1634467Y-8807508D01*
X1634467Y-8807508D02*
X1643991Y-8817031D01*
X1643991Y-8817031D02*
X1653515Y-8836079D01*
X1653515Y-8836079D02*
X1663039Y-8874174D01*
X1663039Y-8874174D02*
X1663039Y-8921793D01*
X1663039Y-8921793D02*
X1653515Y-8959889D01*
X1653515Y-8959889D02*
X1643991Y-8978936D01*
X1643991Y-8978936D02*
X1634467Y-8988460D01*
X1634467Y-8988460D02*
X1615420Y-8997984D01*
X1615420Y-8997984D02*
X1596372Y-8997984D01*
X1596372Y-8997984D02*
X1577324Y-8988460D01*
X1577324Y-8988460D02*
X1567801Y-8978936D01*
X1567801Y-8978936D02*
X1558277Y-8959889D01*
X1558277Y-8959889D02*
X1548753Y-8921793D01*
X1548753Y-8921793D02*
X1548753Y-8874174D01*
X1548753Y-8874174D02*
X1558277Y-8836079D01*
X1558277Y-8836079D02*
X1567801Y-8817031D01*
X1567801Y-8817031D02*
X1577324Y-8807508D01*
X1577324Y-8807508D02*
X1596372Y-8797984D01*
X1748753Y-8978936D02*
X1758277Y-8988460D01*
X1758277Y-8988460D02*
X1748753Y-8997984D01*
X1748753Y-8997984D02*
X1739229Y-8988460D01*
X1739229Y-8988460D02*
X1748753Y-8978936D01*
X1748753Y-8978936D02*
X1748753Y-8997984D01*
X1824943Y-8797984D02*
X1958277Y-8797984D01*
X1958277Y-8797984D02*
X1872562Y-8997984D01*
X2072562Y-8797984D02*
X2091610Y-8797984D01*
X2091610Y-8797984D02*
X2110658Y-8807508D01*
X2110658Y-8807508D02*
X2120182Y-8817031D01*
X2120182Y-8817031D02*
X2129705Y-8836079D01*
X2129705Y-8836079D02*
X2139229Y-8874174D01*
X2139229Y-8874174D02*
X2139229Y-8921793D01*
X2139229Y-8921793D02*
X2129705Y-8959889D01*
X2129705Y-8959889D02*
X2120182Y-8978936D01*
X2120182Y-8978936D02*
X2110658Y-8988460D01*
X2110658Y-8988460D02*
X2091610Y-8997984D01*
X2091610Y-8997984D02*
X2072562Y-8997984D01*
X2072562Y-8997984D02*
X2053515Y-8988460D01*
X2053515Y-8988460D02*
X2043991Y-8978936D01*
X2043991Y-8978936D02*
X2034467Y-8959889D01*
X2034467Y-8959889D02*
X2024943Y-8921793D01*
X2024943Y-8921793D02*
X2024943Y-8874174D01*
X2024943Y-8874174D02*
X2034467Y-8836079D01*
X2034467Y-8836079D02*
X2043991Y-8817031D01*
X2043991Y-8817031D02*
X2053515Y-8807508D01*
X2053515Y-8807508D02*
X2072562Y-8797984D01*
X2263039Y-8797984D02*
X2282086Y-8797984D01*
X2282086Y-8797984D02*
X2301134Y-8807508D01*
X2301134Y-8807508D02*
X2310658Y-8817031D01*
X2310658Y-8817031D02*
X2320182Y-8836079D01*
X2320182Y-8836079D02*
X2329705Y-8874174D01*
X2329705Y-8874174D02*
X2329705Y-8921793D01*
X2329705Y-8921793D02*
X2320182Y-8959889D01*
X2320182Y-8959889D02*
X2310658Y-8978936D01*
X2310658Y-8978936D02*
X2301134Y-8988460D01*
X2301134Y-8988460D02*
X2282086Y-8997984D01*
X2282086Y-8997984D02*
X2263039Y-8997984D01*
X2263039Y-8997984D02*
X2243991Y-8988460D01*
X2243991Y-8988460D02*
X2234467Y-8978936D01*
X2234467Y-8978936D02*
X2224944Y-8959889D01*
X2224944Y-8959889D02*
X2215420Y-8921793D01*
X2215420Y-8921793D02*
X2215420Y-8874174D01*
X2215420Y-8874174D02*
X2224944Y-8836079D01*
X2224944Y-8836079D02*
X2234467Y-8817031D01*
X2234467Y-8817031D02*
X2243991Y-8807508D01*
X2243991Y-8807508D02*
X2263039Y-8797984D01*
X2415420Y-8997984D02*
X2415420Y-8864650D01*
X2415420Y-8883698D02*
X2424944Y-8874174D01*
X2424944Y-8874174D02*
X2443991Y-8864650D01*
X2443991Y-8864650D02*
X2472563Y-8864650D01*
X2472563Y-8864650D02*
X2491610Y-8874174D01*
X2491610Y-8874174D02*
X2501134Y-8893222D01*
X2501134Y-8893222D02*
X2501134Y-8997984D01*
X2501134Y-8893222D02*
X2510658Y-8874174D01*
X2510658Y-8874174D02*
X2529705Y-8864650D01*
X2529705Y-8864650D02*
X2558277Y-8864650D01*
X2558277Y-8864650D02*
X2577325Y-8874174D01*
X2577325Y-8874174D02*
X2586848Y-8893222D01*
X2586848Y-8893222D02*
X2586848Y-8997984D01*
X2682086Y-8997984D02*
X2682086Y-8864650D01*
X2682086Y-8883698D02*
X2691610Y-8874174D01*
X2691610Y-8874174D02*
X2710658Y-8864650D01*
X2710658Y-8864650D02*
X2739229Y-8864650D01*
X2739229Y-8864650D02*
X2758277Y-8874174D01*
X2758277Y-8874174D02*
X2767801Y-8893222D01*
X2767801Y-8893222D02*
X2767801Y-8997984D01*
X2767801Y-8893222D02*
X2777325Y-8874174D01*
X2777325Y-8874174D02*
X2796372Y-8864650D01*
X2796372Y-8864650D02*
X2824943Y-8864650D01*
X2824943Y-8864650D02*
X2843991Y-8874174D01*
X2843991Y-8874174D02*
X2853515Y-8893222D01*
X2853515Y-8893222D02*
X2853515Y-8997984D01*
X3243991Y-8788460D02*
X3072563Y-9045603D01*
X3501134Y-8797984D02*
X3520182Y-8797984D01*
X3520182Y-8797984D02*
X3539229Y-8807508D01*
X3539229Y-8807508D02*
X3548753Y-8817031D01*
X3548753Y-8817031D02*
X3558277Y-8836079D01*
X3558277Y-8836079D02*
X3567801Y-8874174D01*
X3567801Y-8874174D02*
X3567801Y-8921793D01*
X3567801Y-8921793D02*
X3558277Y-8959889D01*
X3558277Y-8959889D02*
X3548753Y-8978936D01*
X3548753Y-8978936D02*
X3539229Y-8988460D01*
X3539229Y-8988460D02*
X3520182Y-8997984D01*
X3520182Y-8997984D02*
X3501134Y-8997984D01*
X3501134Y-8997984D02*
X3482086Y-8988460D01*
X3482086Y-8988460D02*
X3472563Y-8978936D01*
X3472563Y-8978936D02*
X3463039Y-8959889D01*
X3463039Y-8959889D02*
X3453515Y-8921793D01*
X3453515Y-8921793D02*
X3453515Y-8874174D01*
X3453515Y-8874174D02*
X3463039Y-8836079D01*
X3463039Y-8836079D02*
X3472563Y-8817031D01*
X3472563Y-8817031D02*
X3482086Y-8807508D01*
X3482086Y-8807508D02*
X3501134Y-8797984D01*
X3653515Y-8978936D02*
X3663039Y-8988460D01*
X3663039Y-8988460D02*
X3653515Y-8997984D01*
X3653515Y-8997984D02*
X3643991Y-8988460D01*
X3643991Y-8988460D02*
X3653515Y-8978936D01*
X3653515Y-8978936D02*
X3653515Y-8997984D01*
X3786848Y-8797984D02*
X3805896Y-8797984D01*
X3805896Y-8797984D02*
X3824944Y-8807508D01*
X3824944Y-8807508D02*
X3834467Y-8817031D01*
X3834467Y-8817031D02*
X3843991Y-8836079D01*
X3843991Y-8836079D02*
X3853515Y-8874174D01*
X3853515Y-8874174D02*
X3853515Y-8921793D01*
X3853515Y-8921793D02*
X3843991Y-8959889D01*
X3843991Y-8959889D02*
X3834467Y-8978936D01*
X3834467Y-8978936D02*
X3824944Y-8988460D01*
X3824944Y-8988460D02*
X3805896Y-8997984D01*
X3805896Y-8997984D02*
X3786848Y-8997984D01*
X3786848Y-8997984D02*
X3767801Y-8988460D01*
X3767801Y-8988460D02*
X3758277Y-8978936D01*
X3758277Y-8978936D02*
X3748753Y-8959889D01*
X3748753Y-8959889D02*
X3739229Y-8921793D01*
X3739229Y-8921793D02*
X3739229Y-8874174D01*
X3739229Y-8874174D02*
X3748753Y-8836079D01*
X3748753Y-8836079D02*
X3758277Y-8817031D01*
X3758277Y-8817031D02*
X3767801Y-8807508D01*
X3767801Y-8807508D02*
X3786848Y-8797984D01*
X3929706Y-8817031D02*
X3939229Y-8807508D01*
X3939229Y-8807508D02*
X3958277Y-8797984D01*
X3958277Y-8797984D02*
X4005896Y-8797984D01*
X4005896Y-8797984D02*
X4024944Y-8807508D01*
X4024944Y-8807508D02*
X4034467Y-8817031D01*
X4034467Y-8817031D02*
X4043991Y-8836079D01*
X4043991Y-8836079D02*
X4043991Y-8855127D01*
X4043991Y-8855127D02*
X4034467Y-8883698D01*
X4034467Y-8883698D02*
X3920182Y-8997984D01*
X3920182Y-8997984D02*
X4043991Y-8997984D01*
X4110658Y-8797984D02*
X4243991Y-8797984D01*
X4243991Y-8797984D02*
X4158277Y-8997984D01*
X4405896Y-8797984D02*
X4367801Y-8797984D01*
X4367801Y-8797984D02*
X4348753Y-8807508D01*
X4348753Y-8807508D02*
X4339229Y-8817031D01*
X4339229Y-8817031D02*
X4320182Y-8845603D01*
X4320182Y-8845603D02*
X4310658Y-8883698D01*
X4310658Y-8883698D02*
X4310658Y-8959889D01*
X4310658Y-8959889D02*
X4320182Y-8978936D01*
X4320182Y-8978936D02*
X4329706Y-8988460D01*
X4329706Y-8988460D02*
X4348753Y-8997984D01*
X4348753Y-8997984D02*
X4386849Y-8997984D01*
X4386849Y-8997984D02*
X4405896Y-8988460D01*
X4405896Y-8988460D02*
X4415420Y-8978936D01*
X4415420Y-8978936D02*
X4424944Y-8959889D01*
X4424944Y-8959889D02*
X4424944Y-8912270D01*
X4424944Y-8912270D02*
X4415420Y-8893222D01*
X4415420Y-8893222D02*
X4405896Y-8883698D01*
X4405896Y-8883698D02*
X4386849Y-8874174D01*
X4386849Y-8874174D02*
X4348753Y-8874174D01*
X4348753Y-8874174D02*
X4329706Y-8883698D01*
X4329706Y-8883698D02*
X4320182Y-8893222D01*
X4320182Y-8893222D02*
X4310658Y-8912270D01*
X4501134Y-8797984D02*
X4501134Y-8836079D01*
X4577325Y-8797984D02*
X4577325Y-8836079D01*
X4872563Y-9074174D02*
X4863039Y-9064650D01*
X4863039Y-9064650D02*
X4843991Y-9036079D01*
X4843991Y-9036079D02*
X4834468Y-9017031D01*
X4834468Y-9017031D02*
X4824944Y-8988460D01*
X4824944Y-8988460D02*
X4815420Y-8940841D01*
X4815420Y-8940841D02*
X4815420Y-8902746D01*
X4815420Y-8902746D02*
X4824944Y-8855127D01*
X4824944Y-8855127D02*
X4834468Y-8826555D01*
X4834468Y-8826555D02*
X4843991Y-8807508D01*
X4843991Y-8807508D02*
X4863039Y-8778936D01*
X4863039Y-8778936D02*
X4872563Y-8769412D01*
X4939230Y-8817031D02*
X4948753Y-8807508D01*
X4948753Y-8807508D02*
X4967801Y-8797984D01*
X4967801Y-8797984D02*
X5015420Y-8797984D01*
X5015420Y-8797984D02*
X5034468Y-8807508D01*
X5034468Y-8807508D02*
X5043991Y-8817031D01*
X5043991Y-8817031D02*
X5053515Y-8836079D01*
X5053515Y-8836079D02*
X5053515Y-8855127D01*
X5053515Y-8855127D02*
X5043991Y-8883698D01*
X5043991Y-8883698D02*
X4929706Y-8997984D01*
X4929706Y-8997984D02*
X5053515Y-8997984D01*
X5167801Y-8883698D02*
X5148753Y-8874174D01*
X5148753Y-8874174D02*
X5139230Y-8864650D01*
X5139230Y-8864650D02*
X5129706Y-8845603D01*
X5129706Y-8845603D02*
X5129706Y-8836079D01*
X5129706Y-8836079D02*
X5139230Y-8817031D01*
X5139230Y-8817031D02*
X5148753Y-8807508D01*
X5148753Y-8807508D02*
X5167801Y-8797984D01*
X5167801Y-8797984D02*
X5205896Y-8797984D01*
X5205896Y-8797984D02*
X5224944Y-8807508D01*
X5224944Y-8807508D02*
X5234468Y-8817031D01*
X5234468Y-8817031D02*
X5243991Y-8836079D01*
X5243991Y-8836079D02*
X5243991Y-8845603D01*
X5243991Y-8845603D02*
X5234468Y-8864650D01*
X5234468Y-8864650D02*
X5224944Y-8874174D01*
X5224944Y-8874174D02*
X5205896Y-8883698D01*
X5205896Y-8883698D02*
X5167801Y-8883698D01*
X5167801Y-8883698D02*
X5148753Y-8893222D01*
X5148753Y-8893222D02*
X5139230Y-8902746D01*
X5139230Y-8902746D02*
X5129706Y-8921793D01*
X5129706Y-8921793D02*
X5129706Y-8959889D01*
X5129706Y-8959889D02*
X5139230Y-8978936D01*
X5139230Y-8978936D02*
X5148753Y-8988460D01*
X5148753Y-8988460D02*
X5167801Y-8997984D01*
X5167801Y-8997984D02*
X5205896Y-8997984D01*
X5205896Y-8997984D02*
X5224944Y-8988460D01*
X5224944Y-8988460D02*
X5234468Y-8978936D01*
X5234468Y-8978936D02*
X5243991Y-8959889D01*
X5243991Y-8959889D02*
X5243991Y-8921793D01*
X5243991Y-8921793D02*
X5234468Y-8902746D01*
X5234468Y-8902746D02*
X5224944Y-8893222D01*
X5224944Y-8893222D02*
X5205896Y-8883698D01*
X5482087Y-8997984D02*
X5482087Y-8797984D01*
X5567801Y-8997984D02*
X5567801Y-8893222D01*
X5567801Y-8893222D02*
X5558277Y-8874174D01*
X5558277Y-8874174D02*
X5539230Y-8864650D01*
X5539230Y-8864650D02*
X5510658Y-8864650D01*
X5510658Y-8864650D02*
X5491611Y-8874174D01*
X5491611Y-8874174D02*
X5482087Y-8883698D01*
X5691610Y-8997984D02*
X5672563Y-8988460D01*
X5672563Y-8988460D02*
X5663039Y-8978936D01*
X5663039Y-8978936D02*
X5653515Y-8959889D01*
X5653515Y-8959889D02*
X5653515Y-8902746D01*
X5653515Y-8902746D02*
X5663039Y-8883698D01*
X5663039Y-8883698D02*
X5672563Y-8874174D01*
X5672563Y-8874174D02*
X5691610Y-8864650D01*
X5691610Y-8864650D02*
X5720182Y-8864650D01*
X5720182Y-8864650D02*
X5739230Y-8874174D01*
X5739230Y-8874174D02*
X5748753Y-8883698D01*
X5748753Y-8883698D02*
X5758277Y-8902746D01*
X5758277Y-8902746D02*
X5758277Y-8959889D01*
X5758277Y-8959889D02*
X5748753Y-8978936D01*
X5748753Y-8978936D02*
X5739230Y-8988460D01*
X5739230Y-8988460D02*
X5720182Y-8997984D01*
X5720182Y-8997984D02*
X5691610Y-8997984D01*
X5872563Y-8997984D02*
X5853515Y-8988460D01*
X5853515Y-8988460D02*
X5843991Y-8969412D01*
X5843991Y-8969412D02*
X5843991Y-8797984D01*
X6024944Y-8988460D02*
X6005896Y-8997984D01*
X6005896Y-8997984D02*
X5967801Y-8997984D01*
X5967801Y-8997984D02*
X5948753Y-8988460D01*
X5948753Y-8988460D02*
X5939230Y-8969412D01*
X5939230Y-8969412D02*
X5939230Y-8893222D01*
X5939230Y-8893222D02*
X5948753Y-8874174D01*
X5948753Y-8874174D02*
X5967801Y-8864650D01*
X5967801Y-8864650D02*
X6005896Y-8864650D01*
X6005896Y-8864650D02*
X6024944Y-8874174D01*
X6024944Y-8874174D02*
X6034468Y-8893222D01*
X6034468Y-8893222D02*
X6034468Y-8912270D01*
X6034468Y-8912270D02*
X5939230Y-8931317D01*
X6110658Y-8988460D02*
X6129706Y-8997984D01*
X6129706Y-8997984D02*
X6167801Y-8997984D01*
X6167801Y-8997984D02*
X6186849Y-8988460D01*
X6186849Y-8988460D02*
X6196372Y-8969412D01*
X6196372Y-8969412D02*
X6196372Y-8959889D01*
X6196372Y-8959889D02*
X6186849Y-8940841D01*
X6186849Y-8940841D02*
X6167801Y-8931317D01*
X6167801Y-8931317D02*
X6139230Y-8931317D01*
X6139230Y-8931317D02*
X6120182Y-8921793D01*
X6120182Y-8921793D02*
X6110658Y-8902746D01*
X6110658Y-8902746D02*
X6110658Y-8893222D01*
X6110658Y-8893222D02*
X6120182Y-8874174D01*
X6120182Y-8874174D02*
X6139230Y-8864650D01*
X6139230Y-8864650D02*
X6167801Y-8864650D01*
X6167801Y-8864650D02*
X6186849Y-8874174D01*
X6263039Y-9074174D02*
X6272563Y-9064650D01*
X6272563Y-9064650D02*
X6291611Y-9036079D01*
X6291611Y-9036079D02*
X6301134Y-9017031D01*
X6301134Y-9017031D02*
X6310658Y-8988460D01*
X6310658Y-8988460D02*
X6320182Y-8940841D01*
X6320182Y-8940841D02*
X6320182Y-8902746D01*
X6320182Y-8902746D02*
X6310658Y-8855127D01*
X6310658Y-8855127D02*
X6301134Y-8826555D01*
X6301134Y-8826555D02*
X6291611Y-8807508D01*
X6291611Y-8807508D02*
X6272563Y-8778936D01*
X6272563Y-8778936D02*
X6263039Y-8769412D01*
D12*
X1259400Y-9132400D02*
X1259400Y-9208600D01*
X1221300Y-9170500D02*
X1297500Y-9170500D01*
D11*
X1596372Y-9061984D02*
X1615420Y-9061984D01*
X1615420Y-9061984D02*
X1634467Y-9071508D01*
X1634467Y-9071508D02*
X1643991Y-9081031D01*
X1643991Y-9081031D02*
X1653515Y-9100079D01*
X1653515Y-9100079D02*
X1663039Y-9138174D01*
X1663039Y-9138174D02*
X1663039Y-9185793D01*
X1663039Y-9185793D02*
X1653515Y-9223889D01*
X1653515Y-9223889D02*
X1643991Y-9242936D01*
X1643991Y-9242936D02*
X1634467Y-9252460D01*
X1634467Y-9252460D02*
X1615420Y-9261984D01*
X1615420Y-9261984D02*
X1596372Y-9261984D01*
X1596372Y-9261984D02*
X1577324Y-9252460D01*
X1577324Y-9252460D02*
X1567801Y-9242936D01*
X1567801Y-9242936D02*
X1558277Y-9223889D01*
X1558277Y-9223889D02*
X1548753Y-9185793D01*
X1548753Y-9185793D02*
X1548753Y-9138174D01*
X1548753Y-9138174D02*
X1558277Y-9100079D01*
X1558277Y-9100079D02*
X1567801Y-9081031D01*
X1567801Y-9081031D02*
X1577324Y-9071508D01*
X1577324Y-9071508D02*
X1596372Y-9061984D01*
X1748753Y-9242936D02*
X1758277Y-9252460D01*
X1758277Y-9252460D02*
X1748753Y-9261984D01*
X1748753Y-9261984D02*
X1739229Y-9252460D01*
X1739229Y-9252460D02*
X1748753Y-9242936D01*
X1748753Y-9242936D02*
X1748753Y-9261984D01*
X1824943Y-9061984D02*
X1958277Y-9061984D01*
X1958277Y-9061984D02*
X1872562Y-9261984D01*
X2120182Y-9061984D02*
X2082086Y-9061984D01*
X2082086Y-9061984D02*
X2063039Y-9071508D01*
X2063039Y-9071508D02*
X2053515Y-9081031D01*
X2053515Y-9081031D02*
X2034467Y-9109603D01*
X2034467Y-9109603D02*
X2024943Y-9147698D01*
X2024943Y-9147698D02*
X2024943Y-9223889D01*
X2024943Y-9223889D02*
X2034467Y-9242936D01*
X2034467Y-9242936D02*
X2043991Y-9252460D01*
X2043991Y-9252460D02*
X2063039Y-9261984D01*
X2063039Y-9261984D02*
X2101134Y-9261984D01*
X2101134Y-9261984D02*
X2120182Y-9252460D01*
X2120182Y-9252460D02*
X2129705Y-9242936D01*
X2129705Y-9242936D02*
X2139229Y-9223889D01*
X2139229Y-9223889D02*
X2139229Y-9176270D01*
X2139229Y-9176270D02*
X2129705Y-9157222D01*
X2129705Y-9157222D02*
X2120182Y-9147698D01*
X2120182Y-9147698D02*
X2101134Y-9138174D01*
X2101134Y-9138174D02*
X2063039Y-9138174D01*
X2063039Y-9138174D02*
X2043991Y-9147698D01*
X2043991Y-9147698D02*
X2034467Y-9157222D01*
X2034467Y-9157222D02*
X2024943Y-9176270D01*
X2215420Y-9081031D02*
X2224944Y-9071508D01*
X2224944Y-9071508D02*
X2243991Y-9061984D01*
X2243991Y-9061984D02*
X2291610Y-9061984D01*
X2291610Y-9061984D02*
X2310658Y-9071508D01*
X2310658Y-9071508D02*
X2320182Y-9081031D01*
X2320182Y-9081031D02*
X2329705Y-9100079D01*
X2329705Y-9100079D02*
X2329705Y-9119127D01*
X2329705Y-9119127D02*
X2320182Y-9147698D01*
X2320182Y-9147698D02*
X2205896Y-9261984D01*
X2205896Y-9261984D02*
X2329705Y-9261984D01*
X2415420Y-9261984D02*
X2415420Y-9128650D01*
X2415420Y-9147698D02*
X2424944Y-9138174D01*
X2424944Y-9138174D02*
X2443991Y-9128650D01*
X2443991Y-9128650D02*
X2472563Y-9128650D01*
X2472563Y-9128650D02*
X2491610Y-9138174D01*
X2491610Y-9138174D02*
X2501134Y-9157222D01*
X2501134Y-9157222D02*
X2501134Y-9261984D01*
X2501134Y-9157222D02*
X2510658Y-9138174D01*
X2510658Y-9138174D02*
X2529705Y-9128650D01*
X2529705Y-9128650D02*
X2558277Y-9128650D01*
X2558277Y-9128650D02*
X2577325Y-9138174D01*
X2577325Y-9138174D02*
X2586848Y-9157222D01*
X2586848Y-9157222D02*
X2586848Y-9261984D01*
X2682086Y-9261984D02*
X2682086Y-9128650D01*
X2682086Y-9147698D02*
X2691610Y-9138174D01*
X2691610Y-9138174D02*
X2710658Y-9128650D01*
X2710658Y-9128650D02*
X2739229Y-9128650D01*
X2739229Y-9128650D02*
X2758277Y-9138174D01*
X2758277Y-9138174D02*
X2767801Y-9157222D01*
X2767801Y-9157222D02*
X2767801Y-9261984D01*
X2767801Y-9157222D02*
X2777325Y-9138174D01*
X2777325Y-9138174D02*
X2796372Y-9128650D01*
X2796372Y-9128650D02*
X2824943Y-9128650D01*
X2824943Y-9128650D02*
X2843991Y-9138174D01*
X2843991Y-9138174D02*
X2853515Y-9157222D01*
X2853515Y-9157222D02*
X2853515Y-9261984D01*
X3243991Y-9052460D02*
X3072563Y-9309603D01*
X3501134Y-9061984D02*
X3520182Y-9061984D01*
X3520182Y-9061984D02*
X3539229Y-9071508D01*
X3539229Y-9071508D02*
X3548753Y-9081031D01*
X3548753Y-9081031D02*
X3558277Y-9100079D01*
X3558277Y-9100079D02*
X3567801Y-9138174D01*
X3567801Y-9138174D02*
X3567801Y-9185793D01*
X3567801Y-9185793D02*
X3558277Y-9223889D01*
X3558277Y-9223889D02*
X3548753Y-9242936D01*
X3548753Y-9242936D02*
X3539229Y-9252460D01*
X3539229Y-9252460D02*
X3520182Y-9261984D01*
X3520182Y-9261984D02*
X3501134Y-9261984D01*
X3501134Y-9261984D02*
X3482086Y-9252460D01*
X3482086Y-9252460D02*
X3472563Y-9242936D01*
X3472563Y-9242936D02*
X3463039Y-9223889D01*
X3463039Y-9223889D02*
X3453515Y-9185793D01*
X3453515Y-9185793D02*
X3453515Y-9138174D01*
X3453515Y-9138174D02*
X3463039Y-9100079D01*
X3463039Y-9100079D02*
X3472563Y-9081031D01*
X3472563Y-9081031D02*
X3482086Y-9071508D01*
X3482086Y-9071508D02*
X3501134Y-9061984D01*
X3653515Y-9242936D02*
X3663039Y-9252460D01*
X3663039Y-9252460D02*
X3653515Y-9261984D01*
X3653515Y-9261984D02*
X3643991Y-9252460D01*
X3643991Y-9252460D02*
X3653515Y-9242936D01*
X3653515Y-9242936D02*
X3653515Y-9261984D01*
X3786848Y-9061984D02*
X3805896Y-9061984D01*
X3805896Y-9061984D02*
X3824944Y-9071508D01*
X3824944Y-9071508D02*
X3834467Y-9081031D01*
X3834467Y-9081031D02*
X3843991Y-9100079D01*
X3843991Y-9100079D02*
X3853515Y-9138174D01*
X3853515Y-9138174D02*
X3853515Y-9185793D01*
X3853515Y-9185793D02*
X3843991Y-9223889D01*
X3843991Y-9223889D02*
X3834467Y-9242936D01*
X3834467Y-9242936D02*
X3824944Y-9252460D01*
X3824944Y-9252460D02*
X3805896Y-9261984D01*
X3805896Y-9261984D02*
X3786848Y-9261984D01*
X3786848Y-9261984D02*
X3767801Y-9252460D01*
X3767801Y-9252460D02*
X3758277Y-9242936D01*
X3758277Y-9242936D02*
X3748753Y-9223889D01*
X3748753Y-9223889D02*
X3739229Y-9185793D01*
X3739229Y-9185793D02*
X3739229Y-9138174D01*
X3739229Y-9138174D02*
X3748753Y-9100079D01*
X3748753Y-9100079D02*
X3758277Y-9081031D01*
X3758277Y-9081031D02*
X3767801Y-9071508D01*
X3767801Y-9071508D02*
X3786848Y-9061984D01*
X3920182Y-9061984D02*
X4043991Y-9061984D01*
X4043991Y-9061984D02*
X3977325Y-9138174D01*
X3977325Y-9138174D02*
X4005896Y-9138174D01*
X4005896Y-9138174D02*
X4024944Y-9147698D01*
X4024944Y-9147698D02*
X4034467Y-9157222D01*
X4034467Y-9157222D02*
X4043991Y-9176270D01*
X4043991Y-9176270D02*
X4043991Y-9223889D01*
X4043991Y-9223889D02*
X4034467Y-9242936D01*
X4034467Y-9242936D02*
X4024944Y-9252460D01*
X4024944Y-9252460D02*
X4005896Y-9261984D01*
X4005896Y-9261984D02*
X3948753Y-9261984D01*
X3948753Y-9261984D02*
X3929706Y-9252460D01*
X3929706Y-9252460D02*
X3920182Y-9242936D01*
X4167801Y-9061984D02*
X4186848Y-9061984D01*
X4186848Y-9061984D02*
X4205896Y-9071508D01*
X4205896Y-9071508D02*
X4215420Y-9081031D01*
X4215420Y-9081031D02*
X4224944Y-9100079D01*
X4224944Y-9100079D02*
X4234468Y-9138174D01*
X4234468Y-9138174D02*
X4234468Y-9185793D01*
X4234468Y-9185793D02*
X4224944Y-9223889D01*
X4224944Y-9223889D02*
X4215420Y-9242936D01*
X4215420Y-9242936D02*
X4205896Y-9252460D01*
X4205896Y-9252460D02*
X4186848Y-9261984D01*
X4186848Y-9261984D02*
X4167801Y-9261984D01*
X4167801Y-9261984D02*
X4148753Y-9252460D01*
X4148753Y-9252460D02*
X4139229Y-9242936D01*
X4139229Y-9242936D02*
X4129706Y-9223889D01*
X4129706Y-9223889D02*
X4120182Y-9185793D01*
X4120182Y-9185793D02*
X4120182Y-9138174D01*
X4120182Y-9138174D02*
X4129706Y-9100079D01*
X4129706Y-9100079D02*
X4139229Y-9081031D01*
X4139229Y-9081031D02*
X4148753Y-9071508D01*
X4148753Y-9071508D02*
X4167801Y-9061984D01*
X4358277Y-9061984D02*
X4377325Y-9061984D01*
X4377325Y-9061984D02*
X4396372Y-9071508D01*
X4396372Y-9071508D02*
X4405896Y-9081031D01*
X4405896Y-9081031D02*
X4415420Y-9100079D01*
X4415420Y-9100079D02*
X4424944Y-9138174D01*
X4424944Y-9138174D02*
X4424944Y-9185793D01*
X4424944Y-9185793D02*
X4415420Y-9223889D01*
X4415420Y-9223889D02*
X4405896Y-9242936D01*
X4405896Y-9242936D02*
X4396372Y-9252460D01*
X4396372Y-9252460D02*
X4377325Y-9261984D01*
X4377325Y-9261984D02*
X4358277Y-9261984D01*
X4358277Y-9261984D02*
X4339229Y-9252460D01*
X4339229Y-9252460D02*
X4329706Y-9242936D01*
X4329706Y-9242936D02*
X4320182Y-9223889D01*
X4320182Y-9223889D02*
X4310658Y-9185793D01*
X4310658Y-9185793D02*
X4310658Y-9138174D01*
X4310658Y-9138174D02*
X4320182Y-9100079D01*
X4320182Y-9100079D02*
X4329706Y-9081031D01*
X4329706Y-9081031D02*
X4339229Y-9071508D01*
X4339229Y-9071508D02*
X4358277Y-9061984D01*
X4501134Y-9061984D02*
X4501134Y-9100079D01*
X4577325Y-9061984D02*
X4577325Y-9100079D01*
X4872563Y-9338174D02*
X4863039Y-9328650D01*
X4863039Y-9328650D02*
X4843991Y-9300079D01*
X4843991Y-9300079D02*
X4834468Y-9281031D01*
X4834468Y-9281031D02*
X4824944Y-9252460D01*
X4824944Y-9252460D02*
X4815420Y-9204841D01*
X4815420Y-9204841D02*
X4815420Y-9166746D01*
X4815420Y-9166746D02*
X4824944Y-9119127D01*
X4824944Y-9119127D02*
X4834468Y-9090555D01*
X4834468Y-9090555D02*
X4843991Y-9071508D01*
X4843991Y-9071508D02*
X4863039Y-9042936D01*
X4863039Y-9042936D02*
X4872563Y-9033412D01*
X5034468Y-9128650D02*
X5034468Y-9261984D01*
X4986849Y-9052460D02*
X4939230Y-9195317D01*
X4939230Y-9195317D02*
X5063039Y-9195317D01*
X5291611Y-9261984D02*
X5291611Y-9061984D01*
X5377325Y-9261984D02*
X5377325Y-9157222D01*
X5377325Y-9157222D02*
X5367801Y-9138174D01*
X5367801Y-9138174D02*
X5348753Y-9128650D01*
X5348753Y-9128650D02*
X5320182Y-9128650D01*
X5320182Y-9128650D02*
X5301134Y-9138174D01*
X5301134Y-9138174D02*
X5291611Y-9147698D01*
X5501134Y-9261984D02*
X5482087Y-9252460D01*
X5482087Y-9252460D02*
X5472563Y-9242936D01*
X5472563Y-9242936D02*
X5463039Y-9223889D01*
X5463039Y-9223889D02*
X5463039Y-9166746D01*
X5463039Y-9166746D02*
X5472563Y-9147698D01*
X5472563Y-9147698D02*
X5482087Y-9138174D01*
X5482087Y-9138174D02*
X5501134Y-9128650D01*
X5501134Y-9128650D02*
X5529706Y-9128650D01*
X5529706Y-9128650D02*
X5548753Y-9138174D01*
X5548753Y-9138174D02*
X5558277Y-9147698D01*
X5558277Y-9147698D02*
X5567801Y-9166746D01*
X5567801Y-9166746D02*
X5567801Y-9223889D01*
X5567801Y-9223889D02*
X5558277Y-9242936D01*
X5558277Y-9242936D02*
X5548753Y-9252460D01*
X5548753Y-9252460D02*
X5529706Y-9261984D01*
X5529706Y-9261984D02*
X5501134Y-9261984D01*
X5682087Y-9261984D02*
X5663039Y-9252460D01*
X5663039Y-9252460D02*
X5653515Y-9233412D01*
X5653515Y-9233412D02*
X5653515Y-9061984D01*
X5834468Y-9252460D02*
X5815420Y-9261984D01*
X5815420Y-9261984D02*
X5777325Y-9261984D01*
X5777325Y-9261984D02*
X5758277Y-9252460D01*
X5758277Y-9252460D02*
X5748753Y-9233412D01*
X5748753Y-9233412D02*
X5748753Y-9157222D01*
X5748753Y-9157222D02*
X5758277Y-9138174D01*
X5758277Y-9138174D02*
X5777325Y-9128650D01*
X5777325Y-9128650D02*
X5815420Y-9128650D01*
X5815420Y-9128650D02*
X5834468Y-9138174D01*
X5834468Y-9138174D02*
X5843991Y-9157222D01*
X5843991Y-9157222D02*
X5843991Y-9176270D01*
X5843991Y-9176270D02*
X5748753Y-9195317D01*
X5920182Y-9252460D02*
X5939230Y-9261984D01*
X5939230Y-9261984D02*
X5977325Y-9261984D01*
X5977325Y-9261984D02*
X5996372Y-9252460D01*
X5996372Y-9252460D02*
X6005896Y-9233412D01*
X6005896Y-9233412D02*
X6005896Y-9223889D01*
X6005896Y-9223889D02*
X5996372Y-9204841D01*
X5996372Y-9204841D02*
X5977325Y-9195317D01*
X5977325Y-9195317D02*
X5948753Y-9195317D01*
X5948753Y-9195317D02*
X5929706Y-9185793D01*
X5929706Y-9185793D02*
X5920182Y-9166746D01*
X5920182Y-9166746D02*
X5920182Y-9157222D01*
X5920182Y-9157222D02*
X5929706Y-9138174D01*
X5929706Y-9138174D02*
X5948753Y-9128650D01*
X5948753Y-9128650D02*
X5977325Y-9128650D01*
X5977325Y-9128650D02*
X5996372Y-9138174D01*
X6072563Y-9338174D02*
X6082087Y-9328650D01*
X6082087Y-9328650D02*
X6101134Y-9300079D01*
X6101134Y-9300079D02*
X6110658Y-9281031D01*
X6110658Y-9281031D02*
X6120182Y-9252460D01*
X6120182Y-9252460D02*
X6129706Y-9204841D01*
X6129706Y-9204841D02*
X6129706Y-9166746D01*
X6129706Y-9166746D02*
X6120182Y-9119127D01*
X6120182Y-9119127D02*
X6110658Y-9090555D01*
X6110658Y-9090555D02*
X6101134Y-9071508D01*
X6101134Y-9071508D02*
X6082087Y-9042936D01*
X6082087Y-9042936D02*
X6072563Y-9033412D01*
D12*
X1285785Y-9462785D02*
X1285785Y-9406216D01*
X1229216Y-9406216D01*
X1229216Y-9462785D01*
X1285785Y-9462785D01*
D11*
X1596372Y-9325984D02*
X1615420Y-9325984D01*
X1615420Y-9325984D02*
X1634467Y-9335508D01*
X1634467Y-9335508D02*
X1643991Y-9345031D01*
X1643991Y-9345031D02*
X1653515Y-9364079D01*
X1653515Y-9364079D02*
X1663039Y-9402174D01*
X1663039Y-9402174D02*
X1663039Y-9449793D01*
X1663039Y-9449793D02*
X1653515Y-9487889D01*
X1653515Y-9487889D02*
X1643991Y-9506936D01*
X1643991Y-9506936D02*
X1634467Y-9516460D01*
X1634467Y-9516460D02*
X1615420Y-9525984D01*
X1615420Y-9525984D02*
X1596372Y-9525984D01*
X1596372Y-9525984D02*
X1577324Y-9516460D01*
X1577324Y-9516460D02*
X1567801Y-9506936D01*
X1567801Y-9506936D02*
X1558277Y-9487889D01*
X1558277Y-9487889D02*
X1548753Y-9449793D01*
X1548753Y-9449793D02*
X1548753Y-9402174D01*
X1548753Y-9402174D02*
X1558277Y-9364079D01*
X1558277Y-9364079D02*
X1567801Y-9345031D01*
X1567801Y-9345031D02*
X1577324Y-9335508D01*
X1577324Y-9335508D02*
X1596372Y-9325984D01*
X1748753Y-9506936D02*
X1758277Y-9516460D01*
X1758277Y-9516460D02*
X1748753Y-9525984D01*
X1748753Y-9525984D02*
X1739229Y-9516460D01*
X1739229Y-9516460D02*
X1748753Y-9506936D01*
X1748753Y-9506936D02*
X1748753Y-9525984D01*
X1872562Y-9411698D02*
X1853515Y-9402174D01*
X1853515Y-9402174D02*
X1843991Y-9392650D01*
X1843991Y-9392650D02*
X1834467Y-9373603D01*
X1834467Y-9373603D02*
X1834467Y-9364079D01*
X1834467Y-9364079D02*
X1843991Y-9345031D01*
X1843991Y-9345031D02*
X1853515Y-9335508D01*
X1853515Y-9335508D02*
X1872562Y-9325984D01*
X1872562Y-9325984D02*
X1910658Y-9325984D01*
X1910658Y-9325984D02*
X1929705Y-9335508D01*
X1929705Y-9335508D02*
X1939229Y-9345031D01*
X1939229Y-9345031D02*
X1948753Y-9364079D01*
X1948753Y-9364079D02*
X1948753Y-9373603D01*
X1948753Y-9373603D02*
X1939229Y-9392650D01*
X1939229Y-9392650D02*
X1929705Y-9402174D01*
X1929705Y-9402174D02*
X1910658Y-9411698D01*
X1910658Y-9411698D02*
X1872562Y-9411698D01*
X1872562Y-9411698D02*
X1853515Y-9421222D01*
X1853515Y-9421222D02*
X1843991Y-9430746D01*
X1843991Y-9430746D02*
X1834467Y-9449793D01*
X1834467Y-9449793D02*
X1834467Y-9487889D01*
X1834467Y-9487889D02*
X1843991Y-9506936D01*
X1843991Y-9506936D02*
X1853515Y-9516460D01*
X1853515Y-9516460D02*
X1872562Y-9525984D01*
X1872562Y-9525984D02*
X1910658Y-9525984D01*
X1910658Y-9525984D02*
X1929705Y-9516460D01*
X1929705Y-9516460D02*
X1939229Y-9506936D01*
X1939229Y-9506936D02*
X1948753Y-9487889D01*
X1948753Y-9487889D02*
X1948753Y-9449793D01*
X1948753Y-9449793D02*
X1939229Y-9430746D01*
X1939229Y-9430746D02*
X1929705Y-9421222D01*
X1929705Y-9421222D02*
X1910658Y-9411698D01*
X2072562Y-9325984D02*
X2091610Y-9325984D01*
X2091610Y-9325984D02*
X2110658Y-9335508D01*
X2110658Y-9335508D02*
X2120182Y-9345031D01*
X2120182Y-9345031D02*
X2129705Y-9364079D01*
X2129705Y-9364079D02*
X2139229Y-9402174D01*
X2139229Y-9402174D02*
X2139229Y-9449793D01*
X2139229Y-9449793D02*
X2129705Y-9487889D01*
X2129705Y-9487889D02*
X2120182Y-9506936D01*
X2120182Y-9506936D02*
X2110658Y-9516460D01*
X2110658Y-9516460D02*
X2091610Y-9525984D01*
X2091610Y-9525984D02*
X2072562Y-9525984D01*
X2072562Y-9525984D02*
X2053515Y-9516460D01*
X2053515Y-9516460D02*
X2043991Y-9506936D01*
X2043991Y-9506936D02*
X2034467Y-9487889D01*
X2034467Y-9487889D02*
X2024943Y-9449793D01*
X2024943Y-9449793D02*
X2024943Y-9402174D01*
X2024943Y-9402174D02*
X2034467Y-9364079D01*
X2034467Y-9364079D02*
X2043991Y-9345031D01*
X2043991Y-9345031D02*
X2053515Y-9335508D01*
X2053515Y-9335508D02*
X2072562Y-9325984D01*
X2263039Y-9325984D02*
X2282086Y-9325984D01*
X2282086Y-9325984D02*
X2301134Y-9335508D01*
X2301134Y-9335508D02*
X2310658Y-9345031D01*
X2310658Y-9345031D02*
X2320182Y-9364079D01*
X2320182Y-9364079D02*
X2329705Y-9402174D01*
X2329705Y-9402174D02*
X2329705Y-9449793D01*
X2329705Y-9449793D02*
X2320182Y-9487889D01*
X2320182Y-9487889D02*
X2310658Y-9506936D01*
X2310658Y-9506936D02*
X2301134Y-9516460D01*
X2301134Y-9516460D02*
X2282086Y-9525984D01*
X2282086Y-9525984D02*
X2263039Y-9525984D01*
X2263039Y-9525984D02*
X2243991Y-9516460D01*
X2243991Y-9516460D02*
X2234467Y-9506936D01*
X2234467Y-9506936D02*
X2224944Y-9487889D01*
X2224944Y-9487889D02*
X2215420Y-9449793D01*
X2215420Y-9449793D02*
X2215420Y-9402174D01*
X2215420Y-9402174D02*
X2224944Y-9364079D01*
X2224944Y-9364079D02*
X2234467Y-9345031D01*
X2234467Y-9345031D02*
X2243991Y-9335508D01*
X2243991Y-9335508D02*
X2263039Y-9325984D01*
X2415420Y-9525984D02*
X2415420Y-9392650D01*
X2415420Y-9411698D02*
X2424944Y-9402174D01*
X2424944Y-9402174D02*
X2443991Y-9392650D01*
X2443991Y-9392650D02*
X2472563Y-9392650D01*
X2472563Y-9392650D02*
X2491610Y-9402174D01*
X2491610Y-9402174D02*
X2501134Y-9421222D01*
X2501134Y-9421222D02*
X2501134Y-9525984D01*
X2501134Y-9421222D02*
X2510658Y-9402174D01*
X2510658Y-9402174D02*
X2529705Y-9392650D01*
X2529705Y-9392650D02*
X2558277Y-9392650D01*
X2558277Y-9392650D02*
X2577325Y-9402174D01*
X2577325Y-9402174D02*
X2586848Y-9421222D01*
X2586848Y-9421222D02*
X2586848Y-9525984D01*
X2682086Y-9525984D02*
X2682086Y-9392650D01*
X2682086Y-9411698D02*
X2691610Y-9402174D01*
X2691610Y-9402174D02*
X2710658Y-9392650D01*
X2710658Y-9392650D02*
X2739229Y-9392650D01*
X2739229Y-9392650D02*
X2758277Y-9402174D01*
X2758277Y-9402174D02*
X2767801Y-9421222D01*
X2767801Y-9421222D02*
X2767801Y-9525984D01*
X2767801Y-9421222D02*
X2777325Y-9402174D01*
X2777325Y-9402174D02*
X2796372Y-9392650D01*
X2796372Y-9392650D02*
X2824943Y-9392650D01*
X2824943Y-9392650D02*
X2843991Y-9402174D01*
X2843991Y-9402174D02*
X2853515Y-9421222D01*
X2853515Y-9421222D02*
X2853515Y-9525984D01*
X3243991Y-9316460D02*
X3072563Y-9573603D01*
X3501134Y-9325984D02*
X3520182Y-9325984D01*
X3520182Y-9325984D02*
X3539229Y-9335508D01*
X3539229Y-9335508D02*
X3548753Y-9345031D01*
X3548753Y-9345031D02*
X3558277Y-9364079D01*
X3558277Y-9364079D02*
X3567801Y-9402174D01*
X3567801Y-9402174D02*
X3567801Y-9449793D01*
X3567801Y-9449793D02*
X3558277Y-9487889D01*
X3558277Y-9487889D02*
X3548753Y-9506936D01*
X3548753Y-9506936D02*
X3539229Y-9516460D01*
X3539229Y-9516460D02*
X3520182Y-9525984D01*
X3520182Y-9525984D02*
X3501134Y-9525984D01*
X3501134Y-9525984D02*
X3482086Y-9516460D01*
X3482086Y-9516460D02*
X3472563Y-9506936D01*
X3472563Y-9506936D02*
X3463039Y-9487889D01*
X3463039Y-9487889D02*
X3453515Y-9449793D01*
X3453515Y-9449793D02*
X3453515Y-9402174D01*
X3453515Y-9402174D02*
X3463039Y-9364079D01*
X3463039Y-9364079D02*
X3472563Y-9345031D01*
X3472563Y-9345031D02*
X3482086Y-9335508D01*
X3482086Y-9335508D02*
X3501134Y-9325984D01*
X3653515Y-9506936D02*
X3663039Y-9516460D01*
X3663039Y-9516460D02*
X3653515Y-9525984D01*
X3653515Y-9525984D02*
X3643991Y-9516460D01*
X3643991Y-9516460D02*
X3653515Y-9506936D01*
X3653515Y-9506936D02*
X3653515Y-9525984D01*
X3786848Y-9325984D02*
X3805896Y-9325984D01*
X3805896Y-9325984D02*
X3824944Y-9335508D01*
X3824944Y-9335508D02*
X3834467Y-9345031D01*
X3834467Y-9345031D02*
X3843991Y-9364079D01*
X3843991Y-9364079D02*
X3853515Y-9402174D01*
X3853515Y-9402174D02*
X3853515Y-9449793D01*
X3853515Y-9449793D02*
X3843991Y-9487889D01*
X3843991Y-9487889D02*
X3834467Y-9506936D01*
X3834467Y-9506936D02*
X3824944Y-9516460D01*
X3824944Y-9516460D02*
X3805896Y-9525984D01*
X3805896Y-9525984D02*
X3786848Y-9525984D01*
X3786848Y-9525984D02*
X3767801Y-9516460D01*
X3767801Y-9516460D02*
X3758277Y-9506936D01*
X3758277Y-9506936D02*
X3748753Y-9487889D01*
X3748753Y-9487889D02*
X3739229Y-9449793D01*
X3739229Y-9449793D02*
X3739229Y-9402174D01*
X3739229Y-9402174D02*
X3748753Y-9364079D01*
X3748753Y-9364079D02*
X3758277Y-9345031D01*
X3758277Y-9345031D02*
X3767801Y-9335508D01*
X3767801Y-9335508D02*
X3786848Y-9325984D01*
X3920182Y-9325984D02*
X4043991Y-9325984D01*
X4043991Y-9325984D02*
X3977325Y-9402174D01*
X3977325Y-9402174D02*
X4005896Y-9402174D01*
X4005896Y-9402174D02*
X4024944Y-9411698D01*
X4024944Y-9411698D02*
X4034467Y-9421222D01*
X4034467Y-9421222D02*
X4043991Y-9440270D01*
X4043991Y-9440270D02*
X4043991Y-9487889D01*
X4043991Y-9487889D02*
X4034467Y-9506936D01*
X4034467Y-9506936D02*
X4024944Y-9516460D01*
X4024944Y-9516460D02*
X4005896Y-9525984D01*
X4005896Y-9525984D02*
X3948753Y-9525984D01*
X3948753Y-9525984D02*
X3929706Y-9516460D01*
X3929706Y-9516460D02*
X3920182Y-9506936D01*
X4234468Y-9525984D02*
X4120182Y-9525984D01*
X4177325Y-9525984D02*
X4177325Y-9325984D01*
X4177325Y-9325984D02*
X4158277Y-9354555D01*
X4158277Y-9354555D02*
X4139229Y-9373603D01*
X4139229Y-9373603D02*
X4120182Y-9383127D01*
X4415420Y-9325984D02*
X4320182Y-9325984D01*
X4320182Y-9325984D02*
X4310658Y-9421222D01*
X4310658Y-9421222D02*
X4320182Y-9411698D01*
X4320182Y-9411698D02*
X4339229Y-9402174D01*
X4339229Y-9402174D02*
X4386849Y-9402174D01*
X4386849Y-9402174D02*
X4405896Y-9411698D01*
X4405896Y-9411698D02*
X4415420Y-9421222D01*
X4415420Y-9421222D02*
X4424944Y-9440270D01*
X4424944Y-9440270D02*
X4424944Y-9487889D01*
X4424944Y-9487889D02*
X4415420Y-9506936D01*
X4415420Y-9506936D02*
X4405896Y-9516460D01*
X4405896Y-9516460D02*
X4386849Y-9525984D01*
X4386849Y-9525984D02*
X4339229Y-9525984D01*
X4339229Y-9525984D02*
X4320182Y-9516460D01*
X4320182Y-9516460D02*
X4310658Y-9506936D01*
X4501134Y-9325984D02*
X4501134Y-9364079D01*
X4577325Y-9325984D02*
X4577325Y-9364079D01*
X4872563Y-9602174D02*
X4863039Y-9592650D01*
X4863039Y-9592650D02*
X4843991Y-9564079D01*
X4843991Y-9564079D02*
X4834468Y-9545031D01*
X4834468Y-9545031D02*
X4824944Y-9516460D01*
X4824944Y-9516460D02*
X4815420Y-9468841D01*
X4815420Y-9468841D02*
X4815420Y-9430746D01*
X4815420Y-9430746D02*
X4824944Y-9383127D01*
X4824944Y-9383127D02*
X4834468Y-9354555D01*
X4834468Y-9354555D02*
X4843991Y-9335508D01*
X4843991Y-9335508D02*
X4863039Y-9306936D01*
X4863039Y-9306936D02*
X4872563Y-9297412D01*
X4977325Y-9411698D02*
X4958277Y-9402174D01*
X4958277Y-9402174D02*
X4948753Y-9392650D01*
X4948753Y-9392650D02*
X4939230Y-9373603D01*
X4939230Y-9373603D02*
X4939230Y-9364079D01*
X4939230Y-9364079D02*
X4948753Y-9345031D01*
X4948753Y-9345031D02*
X4958277Y-9335508D01*
X4958277Y-9335508D02*
X4977325Y-9325984D01*
X4977325Y-9325984D02*
X5015420Y-9325984D01*
X5015420Y-9325984D02*
X5034468Y-9335508D01*
X5034468Y-9335508D02*
X5043991Y-9345031D01*
X5043991Y-9345031D02*
X5053515Y-9364079D01*
X5053515Y-9364079D02*
X5053515Y-9373603D01*
X5053515Y-9373603D02*
X5043991Y-9392650D01*
X5043991Y-9392650D02*
X5034468Y-9402174D01*
X5034468Y-9402174D02*
X5015420Y-9411698D01*
X5015420Y-9411698D02*
X4977325Y-9411698D01*
X4977325Y-9411698D02*
X4958277Y-9421222D01*
X4958277Y-9421222D02*
X4948753Y-9430746D01*
X4948753Y-9430746D02*
X4939230Y-9449793D01*
X4939230Y-9449793D02*
X4939230Y-9487889D01*
X4939230Y-9487889D02*
X4948753Y-9506936D01*
X4948753Y-9506936D02*
X4958277Y-9516460D01*
X4958277Y-9516460D02*
X4977325Y-9525984D01*
X4977325Y-9525984D02*
X5015420Y-9525984D01*
X5015420Y-9525984D02*
X5034468Y-9516460D01*
X5034468Y-9516460D02*
X5043991Y-9506936D01*
X5043991Y-9506936D02*
X5053515Y-9487889D01*
X5053515Y-9487889D02*
X5053515Y-9449793D01*
X5053515Y-9449793D02*
X5043991Y-9430746D01*
X5043991Y-9430746D02*
X5034468Y-9421222D01*
X5034468Y-9421222D02*
X5015420Y-9411698D01*
X5291611Y-9525984D02*
X5291611Y-9325984D01*
X5377325Y-9525984D02*
X5377325Y-9421222D01*
X5377325Y-9421222D02*
X5367801Y-9402174D01*
X5367801Y-9402174D02*
X5348753Y-9392650D01*
X5348753Y-9392650D02*
X5320182Y-9392650D01*
X5320182Y-9392650D02*
X5301134Y-9402174D01*
X5301134Y-9402174D02*
X5291611Y-9411698D01*
X5501134Y-9525984D02*
X5482087Y-9516460D01*
X5482087Y-9516460D02*
X5472563Y-9506936D01*
X5472563Y-9506936D02*
X5463039Y-9487889D01*
X5463039Y-9487889D02*
X5463039Y-9430746D01*
X5463039Y-9430746D02*
X5472563Y-9411698D01*
X5472563Y-9411698D02*
X5482087Y-9402174D01*
X5482087Y-9402174D02*
X5501134Y-9392650D01*
X5501134Y-9392650D02*
X5529706Y-9392650D01*
X5529706Y-9392650D02*
X5548753Y-9402174D01*
X5548753Y-9402174D02*
X5558277Y-9411698D01*
X5558277Y-9411698D02*
X5567801Y-9430746D01*
X5567801Y-9430746D02*
X5567801Y-9487889D01*
X5567801Y-9487889D02*
X5558277Y-9506936D01*
X5558277Y-9506936D02*
X5548753Y-9516460D01*
X5548753Y-9516460D02*
X5529706Y-9525984D01*
X5529706Y-9525984D02*
X5501134Y-9525984D01*
X5682087Y-9525984D02*
X5663039Y-9516460D01*
X5663039Y-9516460D02*
X5653515Y-9497412D01*
X5653515Y-9497412D02*
X5653515Y-9325984D01*
X5834468Y-9516460D02*
X5815420Y-9525984D01*
X5815420Y-9525984D02*
X5777325Y-9525984D01*
X5777325Y-9525984D02*
X5758277Y-9516460D01*
X5758277Y-9516460D02*
X5748753Y-9497412D01*
X5748753Y-9497412D02*
X5748753Y-9421222D01*
X5748753Y-9421222D02*
X5758277Y-9402174D01*
X5758277Y-9402174D02*
X5777325Y-9392650D01*
X5777325Y-9392650D02*
X5815420Y-9392650D01*
X5815420Y-9392650D02*
X5834468Y-9402174D01*
X5834468Y-9402174D02*
X5843991Y-9421222D01*
X5843991Y-9421222D02*
X5843991Y-9440270D01*
X5843991Y-9440270D02*
X5748753Y-9459317D01*
X5920182Y-9516460D02*
X5939230Y-9525984D01*
X5939230Y-9525984D02*
X5977325Y-9525984D01*
X5977325Y-9525984D02*
X5996372Y-9516460D01*
X5996372Y-9516460D02*
X6005896Y-9497412D01*
X6005896Y-9497412D02*
X6005896Y-9487889D01*
X6005896Y-9487889D02*
X5996372Y-9468841D01*
X5996372Y-9468841D02*
X5977325Y-9459317D01*
X5977325Y-9459317D02*
X5948753Y-9459317D01*
X5948753Y-9459317D02*
X5929706Y-9449793D01*
X5929706Y-9449793D02*
X5920182Y-9430746D01*
X5920182Y-9430746D02*
X5920182Y-9421222D01*
X5920182Y-9421222D02*
X5929706Y-9402174D01*
X5929706Y-9402174D02*
X5948753Y-9392650D01*
X5948753Y-9392650D02*
X5977325Y-9392650D01*
X5977325Y-9392650D02*
X5996372Y-9402174D01*
X6072563Y-9602174D02*
X6082087Y-9592650D01*
X6082087Y-9592650D02*
X6101134Y-9564079D01*
X6101134Y-9564079D02*
X6110658Y-9545031D01*
X6110658Y-9545031D02*
X6120182Y-9516460D01*
X6120182Y-9516460D02*
X6129706Y-9468841D01*
X6129706Y-9468841D02*
X6129706Y-9430746D01*
X6129706Y-9430746D02*
X6120182Y-9383127D01*
X6120182Y-9383127D02*
X6110658Y-9354555D01*
X6110658Y-9354555D02*
X6101134Y-9335508D01*
X6101134Y-9335508D02*
X6082087Y-9306936D01*
X6082087Y-9306936D02*
X6072563Y-9297412D01*
D12*
X1252500Y-9743500D02*
X1297500Y-9698500D01*
X1252500Y-9653500D01*
X1207500Y-9698500D01*
X1252500Y-9743500D01*
D11*
X1596372Y-9589984D02*
X1615420Y-9589984D01*
X1615420Y-9589984D02*
X1634467Y-9599508D01*
X1634467Y-9599508D02*
X1643991Y-9609031D01*
X1643991Y-9609031D02*
X1653515Y-9628079D01*
X1653515Y-9628079D02*
X1663039Y-9666174D01*
X1663039Y-9666174D02*
X1663039Y-9713793D01*
X1663039Y-9713793D02*
X1653515Y-9751889D01*
X1653515Y-9751889D02*
X1643991Y-9770936D01*
X1643991Y-9770936D02*
X1634467Y-9780460D01*
X1634467Y-9780460D02*
X1615420Y-9789984D01*
X1615420Y-9789984D02*
X1596372Y-9789984D01*
X1596372Y-9789984D02*
X1577324Y-9780460D01*
X1577324Y-9780460D02*
X1567801Y-9770936D01*
X1567801Y-9770936D02*
X1558277Y-9751889D01*
X1558277Y-9751889D02*
X1548753Y-9713793D01*
X1548753Y-9713793D02*
X1548753Y-9666174D01*
X1548753Y-9666174D02*
X1558277Y-9628079D01*
X1558277Y-9628079D02*
X1567801Y-9609031D01*
X1567801Y-9609031D02*
X1577324Y-9599508D01*
X1577324Y-9599508D02*
X1596372Y-9589984D01*
X1748753Y-9770936D02*
X1758277Y-9780460D01*
X1758277Y-9780460D02*
X1748753Y-9789984D01*
X1748753Y-9789984D02*
X1739229Y-9780460D01*
X1739229Y-9780460D02*
X1748753Y-9770936D01*
X1748753Y-9770936D02*
X1748753Y-9789984D01*
X1853515Y-9789984D02*
X1891610Y-9789984D01*
X1891610Y-9789984D02*
X1910658Y-9780460D01*
X1910658Y-9780460D02*
X1920182Y-9770936D01*
X1920182Y-9770936D02*
X1939229Y-9742365D01*
X1939229Y-9742365D02*
X1948753Y-9704270D01*
X1948753Y-9704270D02*
X1948753Y-9628079D01*
X1948753Y-9628079D02*
X1939229Y-9609031D01*
X1939229Y-9609031D02*
X1929705Y-9599508D01*
X1929705Y-9599508D02*
X1910658Y-9589984D01*
X1910658Y-9589984D02*
X1872562Y-9589984D01*
X1872562Y-9589984D02*
X1853515Y-9599508D01*
X1853515Y-9599508D02*
X1843991Y-9609031D01*
X1843991Y-9609031D02*
X1834467Y-9628079D01*
X1834467Y-9628079D02*
X1834467Y-9675698D01*
X1834467Y-9675698D02*
X1843991Y-9694746D01*
X1843991Y-9694746D02*
X1853515Y-9704270D01*
X1853515Y-9704270D02*
X1872562Y-9713793D01*
X1872562Y-9713793D02*
X1910658Y-9713793D01*
X1910658Y-9713793D02*
X1929705Y-9704270D01*
X1929705Y-9704270D02*
X1939229Y-9694746D01*
X1939229Y-9694746D02*
X1948753Y-9675698D01*
X2072562Y-9589984D02*
X2091610Y-9589984D01*
X2091610Y-9589984D02*
X2110658Y-9599508D01*
X2110658Y-9599508D02*
X2120182Y-9609031D01*
X2120182Y-9609031D02*
X2129705Y-9628079D01*
X2129705Y-9628079D02*
X2139229Y-9666174D01*
X2139229Y-9666174D02*
X2139229Y-9713793D01*
X2139229Y-9713793D02*
X2129705Y-9751889D01*
X2129705Y-9751889D02*
X2120182Y-9770936D01*
X2120182Y-9770936D02*
X2110658Y-9780460D01*
X2110658Y-9780460D02*
X2091610Y-9789984D01*
X2091610Y-9789984D02*
X2072562Y-9789984D01*
X2072562Y-9789984D02*
X2053515Y-9780460D01*
X2053515Y-9780460D02*
X2043991Y-9770936D01*
X2043991Y-9770936D02*
X2034467Y-9751889D01*
X2034467Y-9751889D02*
X2024943Y-9713793D01*
X2024943Y-9713793D02*
X2024943Y-9666174D01*
X2024943Y-9666174D02*
X2034467Y-9628079D01*
X2034467Y-9628079D02*
X2043991Y-9609031D01*
X2043991Y-9609031D02*
X2053515Y-9599508D01*
X2053515Y-9599508D02*
X2072562Y-9589984D01*
X2263039Y-9589984D02*
X2282086Y-9589984D01*
X2282086Y-9589984D02*
X2301134Y-9599508D01*
X2301134Y-9599508D02*
X2310658Y-9609031D01*
X2310658Y-9609031D02*
X2320182Y-9628079D01*
X2320182Y-9628079D02*
X2329705Y-9666174D01*
X2329705Y-9666174D02*
X2329705Y-9713793D01*
X2329705Y-9713793D02*
X2320182Y-9751889D01*
X2320182Y-9751889D02*
X2310658Y-9770936D01*
X2310658Y-9770936D02*
X2301134Y-9780460D01*
X2301134Y-9780460D02*
X2282086Y-9789984D01*
X2282086Y-9789984D02*
X2263039Y-9789984D01*
X2263039Y-9789984D02*
X2243991Y-9780460D01*
X2243991Y-9780460D02*
X2234467Y-9770936D01*
X2234467Y-9770936D02*
X2224944Y-9751889D01*
X2224944Y-9751889D02*
X2215420Y-9713793D01*
X2215420Y-9713793D02*
X2215420Y-9666174D01*
X2215420Y-9666174D02*
X2224944Y-9628079D01*
X2224944Y-9628079D02*
X2234467Y-9609031D01*
X2234467Y-9609031D02*
X2243991Y-9599508D01*
X2243991Y-9599508D02*
X2263039Y-9589984D01*
X2415420Y-9789984D02*
X2415420Y-9656650D01*
X2415420Y-9675698D02*
X2424944Y-9666174D01*
X2424944Y-9666174D02*
X2443991Y-9656650D01*
X2443991Y-9656650D02*
X2472563Y-9656650D01*
X2472563Y-9656650D02*
X2491610Y-9666174D01*
X2491610Y-9666174D02*
X2501134Y-9685222D01*
X2501134Y-9685222D02*
X2501134Y-9789984D01*
X2501134Y-9685222D02*
X2510658Y-9666174D01*
X2510658Y-9666174D02*
X2529705Y-9656650D01*
X2529705Y-9656650D02*
X2558277Y-9656650D01*
X2558277Y-9656650D02*
X2577325Y-9666174D01*
X2577325Y-9666174D02*
X2586848Y-9685222D01*
X2586848Y-9685222D02*
X2586848Y-9789984D01*
X2682086Y-9789984D02*
X2682086Y-9656650D01*
X2682086Y-9675698D02*
X2691610Y-9666174D01*
X2691610Y-9666174D02*
X2710658Y-9656650D01*
X2710658Y-9656650D02*
X2739229Y-9656650D01*
X2739229Y-9656650D02*
X2758277Y-9666174D01*
X2758277Y-9666174D02*
X2767801Y-9685222D01*
X2767801Y-9685222D02*
X2767801Y-9789984D01*
X2767801Y-9685222D02*
X2777325Y-9666174D01*
X2777325Y-9666174D02*
X2796372Y-9656650D01*
X2796372Y-9656650D02*
X2824943Y-9656650D01*
X2824943Y-9656650D02*
X2843991Y-9666174D01*
X2843991Y-9666174D02*
X2853515Y-9685222D01*
X2853515Y-9685222D02*
X2853515Y-9789984D01*
X3243991Y-9580460D02*
X3072563Y-9837603D01*
X3501134Y-9589984D02*
X3520182Y-9589984D01*
X3520182Y-9589984D02*
X3539229Y-9599508D01*
X3539229Y-9599508D02*
X3548753Y-9609031D01*
X3548753Y-9609031D02*
X3558277Y-9628079D01*
X3558277Y-9628079D02*
X3567801Y-9666174D01*
X3567801Y-9666174D02*
X3567801Y-9713793D01*
X3567801Y-9713793D02*
X3558277Y-9751889D01*
X3558277Y-9751889D02*
X3548753Y-9770936D01*
X3548753Y-9770936D02*
X3539229Y-9780460D01*
X3539229Y-9780460D02*
X3520182Y-9789984D01*
X3520182Y-9789984D02*
X3501134Y-9789984D01*
X3501134Y-9789984D02*
X3482086Y-9780460D01*
X3482086Y-9780460D02*
X3472563Y-9770936D01*
X3472563Y-9770936D02*
X3463039Y-9751889D01*
X3463039Y-9751889D02*
X3453515Y-9713793D01*
X3453515Y-9713793D02*
X3453515Y-9666174D01*
X3453515Y-9666174D02*
X3463039Y-9628079D01*
X3463039Y-9628079D02*
X3472563Y-9609031D01*
X3472563Y-9609031D02*
X3482086Y-9599508D01*
X3482086Y-9599508D02*
X3501134Y-9589984D01*
X3653515Y-9770936D02*
X3663039Y-9780460D01*
X3663039Y-9780460D02*
X3653515Y-9789984D01*
X3653515Y-9789984D02*
X3643991Y-9780460D01*
X3643991Y-9780460D02*
X3653515Y-9770936D01*
X3653515Y-9770936D02*
X3653515Y-9789984D01*
X3786848Y-9589984D02*
X3805896Y-9589984D01*
X3805896Y-9589984D02*
X3824944Y-9599508D01*
X3824944Y-9599508D02*
X3834467Y-9609031D01*
X3834467Y-9609031D02*
X3843991Y-9628079D01*
X3843991Y-9628079D02*
X3853515Y-9666174D01*
X3853515Y-9666174D02*
X3853515Y-9713793D01*
X3853515Y-9713793D02*
X3843991Y-9751889D01*
X3843991Y-9751889D02*
X3834467Y-9770936D01*
X3834467Y-9770936D02*
X3824944Y-9780460D01*
X3824944Y-9780460D02*
X3805896Y-9789984D01*
X3805896Y-9789984D02*
X3786848Y-9789984D01*
X3786848Y-9789984D02*
X3767801Y-9780460D01*
X3767801Y-9780460D02*
X3758277Y-9770936D01*
X3758277Y-9770936D02*
X3748753Y-9751889D01*
X3748753Y-9751889D02*
X3739229Y-9713793D01*
X3739229Y-9713793D02*
X3739229Y-9666174D01*
X3739229Y-9666174D02*
X3748753Y-9628079D01*
X3748753Y-9628079D02*
X3758277Y-9609031D01*
X3758277Y-9609031D02*
X3767801Y-9599508D01*
X3767801Y-9599508D02*
X3786848Y-9589984D01*
X3920182Y-9589984D02*
X4043991Y-9589984D01*
X4043991Y-9589984D02*
X3977325Y-9666174D01*
X3977325Y-9666174D02*
X4005896Y-9666174D01*
X4005896Y-9666174D02*
X4024944Y-9675698D01*
X4024944Y-9675698D02*
X4034467Y-9685222D01*
X4034467Y-9685222D02*
X4043991Y-9704270D01*
X4043991Y-9704270D02*
X4043991Y-9751889D01*
X4043991Y-9751889D02*
X4034467Y-9770936D01*
X4034467Y-9770936D02*
X4024944Y-9780460D01*
X4024944Y-9780460D02*
X4005896Y-9789984D01*
X4005896Y-9789984D02*
X3948753Y-9789984D01*
X3948753Y-9789984D02*
X3929706Y-9780460D01*
X3929706Y-9780460D02*
X3920182Y-9770936D01*
X4224944Y-9589984D02*
X4129706Y-9589984D01*
X4129706Y-9589984D02*
X4120182Y-9685222D01*
X4120182Y-9685222D02*
X4129706Y-9675698D01*
X4129706Y-9675698D02*
X4148753Y-9666174D01*
X4148753Y-9666174D02*
X4196372Y-9666174D01*
X4196372Y-9666174D02*
X4215420Y-9675698D01*
X4215420Y-9675698D02*
X4224944Y-9685222D01*
X4224944Y-9685222D02*
X4234468Y-9704270D01*
X4234468Y-9704270D02*
X4234468Y-9751889D01*
X4234468Y-9751889D02*
X4224944Y-9770936D01*
X4224944Y-9770936D02*
X4215420Y-9780460D01*
X4215420Y-9780460D02*
X4196372Y-9789984D01*
X4196372Y-9789984D02*
X4148753Y-9789984D01*
X4148753Y-9789984D02*
X4129706Y-9780460D01*
X4129706Y-9780460D02*
X4120182Y-9770936D01*
X4405896Y-9656650D02*
X4405896Y-9789984D01*
X4358277Y-9580460D02*
X4310658Y-9723317D01*
X4310658Y-9723317D02*
X4434468Y-9723317D01*
X4501134Y-9589984D02*
X4501134Y-9628079D01*
X4577325Y-9589984D02*
X4577325Y-9628079D01*
X4872563Y-9866174D02*
X4863039Y-9856650D01*
X4863039Y-9856650D02*
X4843991Y-9828079D01*
X4843991Y-9828079D02*
X4834468Y-9809031D01*
X4834468Y-9809031D02*
X4824944Y-9780460D01*
X4824944Y-9780460D02*
X4815420Y-9732841D01*
X4815420Y-9732841D02*
X4815420Y-9694746D01*
X4815420Y-9694746D02*
X4824944Y-9647127D01*
X4824944Y-9647127D02*
X4834468Y-9618555D01*
X4834468Y-9618555D02*
X4843991Y-9599508D01*
X4843991Y-9599508D02*
X4863039Y-9570936D01*
X4863039Y-9570936D02*
X4872563Y-9561412D01*
X5034468Y-9656650D02*
X5034468Y-9789984D01*
X4986849Y-9580460D02*
X4939230Y-9723317D01*
X4939230Y-9723317D02*
X5063039Y-9723317D01*
X5224944Y-9589984D02*
X5186849Y-9589984D01*
X5186849Y-9589984D02*
X5167801Y-9599508D01*
X5167801Y-9599508D02*
X5158277Y-9609031D01*
X5158277Y-9609031D02*
X5139230Y-9637603D01*
X5139230Y-9637603D02*
X5129706Y-9675698D01*
X5129706Y-9675698D02*
X5129706Y-9751889D01*
X5129706Y-9751889D02*
X5139230Y-9770936D01*
X5139230Y-9770936D02*
X5148753Y-9780460D01*
X5148753Y-9780460D02*
X5167801Y-9789984D01*
X5167801Y-9789984D02*
X5205896Y-9789984D01*
X5205896Y-9789984D02*
X5224944Y-9780460D01*
X5224944Y-9780460D02*
X5234468Y-9770936D01*
X5234468Y-9770936D02*
X5243991Y-9751889D01*
X5243991Y-9751889D02*
X5243991Y-9704270D01*
X5243991Y-9704270D02*
X5234468Y-9685222D01*
X5234468Y-9685222D02*
X5224944Y-9675698D01*
X5224944Y-9675698D02*
X5205896Y-9666174D01*
X5205896Y-9666174D02*
X5167801Y-9666174D01*
X5167801Y-9666174D02*
X5148753Y-9675698D01*
X5148753Y-9675698D02*
X5139230Y-9685222D01*
X5139230Y-9685222D02*
X5129706Y-9704270D01*
X5482087Y-9789984D02*
X5482087Y-9589984D01*
X5567801Y-9789984D02*
X5567801Y-9685222D01*
X5567801Y-9685222D02*
X5558277Y-9666174D01*
X5558277Y-9666174D02*
X5539230Y-9656650D01*
X5539230Y-9656650D02*
X5510658Y-9656650D01*
X5510658Y-9656650D02*
X5491611Y-9666174D01*
X5491611Y-9666174D02*
X5482087Y-9675698D01*
X5691610Y-9789984D02*
X5672563Y-9780460D01*
X5672563Y-9780460D02*
X5663039Y-9770936D01*
X5663039Y-9770936D02*
X5653515Y-9751889D01*
X5653515Y-9751889D02*
X5653515Y-9694746D01*
X5653515Y-9694746D02*
X5663039Y-9675698D01*
X5663039Y-9675698D02*
X5672563Y-9666174D01*
X5672563Y-9666174D02*
X5691610Y-9656650D01*
X5691610Y-9656650D02*
X5720182Y-9656650D01*
X5720182Y-9656650D02*
X5739230Y-9666174D01*
X5739230Y-9666174D02*
X5748753Y-9675698D01*
X5748753Y-9675698D02*
X5758277Y-9694746D01*
X5758277Y-9694746D02*
X5758277Y-9751889D01*
X5758277Y-9751889D02*
X5748753Y-9770936D01*
X5748753Y-9770936D02*
X5739230Y-9780460D01*
X5739230Y-9780460D02*
X5720182Y-9789984D01*
X5720182Y-9789984D02*
X5691610Y-9789984D01*
X5872563Y-9789984D02*
X5853515Y-9780460D01*
X5853515Y-9780460D02*
X5843991Y-9761412D01*
X5843991Y-9761412D02*
X5843991Y-9589984D01*
X6024944Y-9780460D02*
X6005896Y-9789984D01*
X6005896Y-9789984D02*
X5967801Y-9789984D01*
X5967801Y-9789984D02*
X5948753Y-9780460D01*
X5948753Y-9780460D02*
X5939230Y-9761412D01*
X5939230Y-9761412D02*
X5939230Y-9685222D01*
X5939230Y-9685222D02*
X5948753Y-9666174D01*
X5948753Y-9666174D02*
X5967801Y-9656650D01*
X5967801Y-9656650D02*
X6005896Y-9656650D01*
X6005896Y-9656650D02*
X6024944Y-9666174D01*
X6024944Y-9666174D02*
X6034468Y-9685222D01*
X6034468Y-9685222D02*
X6034468Y-9704270D01*
X6034468Y-9704270D02*
X5939230Y-9723317D01*
X6110658Y-9780460D02*
X6129706Y-9789984D01*
X6129706Y-9789984D02*
X6167801Y-9789984D01*
X6167801Y-9789984D02*
X6186849Y-9780460D01*
X6186849Y-9780460D02*
X6196372Y-9761412D01*
X6196372Y-9761412D02*
X6196372Y-9751889D01*
X6196372Y-9751889D02*
X6186849Y-9732841D01*
X6186849Y-9732841D02*
X6167801Y-9723317D01*
X6167801Y-9723317D02*
X6139230Y-9723317D01*
X6139230Y-9723317D02*
X6120182Y-9713793D01*
X6120182Y-9713793D02*
X6110658Y-9694746D01*
X6110658Y-9694746D02*
X6110658Y-9685222D01*
X6110658Y-9685222D02*
X6120182Y-9666174D01*
X6120182Y-9666174D02*
X6139230Y-9656650D01*
X6139230Y-9656650D02*
X6167801Y-9656650D01*
X6167801Y-9656650D02*
X6186849Y-9666174D01*
X6263039Y-9866174D02*
X6272563Y-9856650D01*
X6272563Y-9856650D02*
X6291611Y-9828079D01*
X6291611Y-9828079D02*
X6301134Y-9809031D01*
X6301134Y-9809031D02*
X6310658Y-9780460D01*
X6310658Y-9780460D02*
X6320182Y-9732841D01*
X6320182Y-9732841D02*
X6320182Y-9694746D01*
X6320182Y-9694746D02*
X6310658Y-9647127D01*
X6310658Y-9647127D02*
X6301134Y-9618555D01*
X6301134Y-9618555D02*
X6291611Y-9599508D01*
X6291611Y-9599508D02*
X6272563Y-9570936D01*
X6272563Y-9570936D02*
X6263039Y-9561412D01*
D12*
X1197500Y-9912500D02*
X1297500Y-10012500D01*
X1297500Y-9912500D02*
X1197500Y-10012500D01*
X1297500Y-9962500D02*
G75*
G02*
X1197500Y-9962500I-50000J0D01*
G01*
X1197500Y-9962500D02*
G75*
G02*
X1297500Y-9962500I50000J0D01*
G01*
D11*
X1663039Y-10053984D02*
X1548753Y-10053984D01*
X1605896Y-10053984D02*
X1605896Y-9853984D01*
X1605896Y-9853984D02*
X1586848Y-9882555D01*
X1586848Y-9882555D02*
X1567801Y-9901603D01*
X1567801Y-9901603D02*
X1548753Y-9911127D01*
X1748753Y-10034936D02*
X1758277Y-10044460D01*
X1758277Y-10044460D02*
X1748753Y-10053984D01*
X1748753Y-10053984D02*
X1739229Y-10044460D01*
X1739229Y-10044460D02*
X1748753Y-10034936D01*
X1748753Y-10034936D02*
X1748753Y-10053984D01*
X1882086Y-9853984D02*
X1901134Y-9853984D01*
X1901134Y-9853984D02*
X1920182Y-9863508D01*
X1920182Y-9863508D02*
X1929705Y-9873031D01*
X1929705Y-9873031D02*
X1939229Y-9892079D01*
X1939229Y-9892079D02*
X1948753Y-9930174D01*
X1948753Y-9930174D02*
X1948753Y-9977793D01*
X1948753Y-9977793D02*
X1939229Y-10015889D01*
X1939229Y-10015889D02*
X1929705Y-10034936D01*
X1929705Y-10034936D02*
X1920182Y-10044460D01*
X1920182Y-10044460D02*
X1901134Y-10053984D01*
X1901134Y-10053984D02*
X1882086Y-10053984D01*
X1882086Y-10053984D02*
X1863039Y-10044460D01*
X1863039Y-10044460D02*
X1853515Y-10034936D01*
X1853515Y-10034936D02*
X1843991Y-10015889D01*
X1843991Y-10015889D02*
X1834467Y-9977793D01*
X1834467Y-9977793D02*
X1834467Y-9930174D01*
X1834467Y-9930174D02*
X1843991Y-9892079D01*
X1843991Y-9892079D02*
X1853515Y-9873031D01*
X1853515Y-9873031D02*
X1863039Y-9863508D01*
X1863039Y-9863508D02*
X1882086Y-9853984D01*
X2072562Y-9853984D02*
X2091610Y-9853984D01*
X2091610Y-9853984D02*
X2110658Y-9863508D01*
X2110658Y-9863508D02*
X2120182Y-9873031D01*
X2120182Y-9873031D02*
X2129705Y-9892079D01*
X2129705Y-9892079D02*
X2139229Y-9930174D01*
X2139229Y-9930174D02*
X2139229Y-9977793D01*
X2139229Y-9977793D02*
X2129705Y-10015889D01*
X2129705Y-10015889D02*
X2120182Y-10034936D01*
X2120182Y-10034936D02*
X2110658Y-10044460D01*
X2110658Y-10044460D02*
X2091610Y-10053984D01*
X2091610Y-10053984D02*
X2072562Y-10053984D01*
X2072562Y-10053984D02*
X2053515Y-10044460D01*
X2053515Y-10044460D02*
X2043991Y-10034936D01*
X2043991Y-10034936D02*
X2034467Y-10015889D01*
X2034467Y-10015889D02*
X2024943Y-9977793D01*
X2024943Y-9977793D02*
X2024943Y-9930174D01*
X2024943Y-9930174D02*
X2034467Y-9892079D01*
X2034467Y-9892079D02*
X2043991Y-9873031D01*
X2043991Y-9873031D02*
X2053515Y-9863508D01*
X2053515Y-9863508D02*
X2072562Y-9853984D01*
X2263039Y-9853984D02*
X2282086Y-9853984D01*
X2282086Y-9853984D02*
X2301134Y-9863508D01*
X2301134Y-9863508D02*
X2310658Y-9873031D01*
X2310658Y-9873031D02*
X2320182Y-9892079D01*
X2320182Y-9892079D02*
X2329705Y-9930174D01*
X2329705Y-9930174D02*
X2329705Y-9977793D01*
X2329705Y-9977793D02*
X2320182Y-10015889D01*
X2320182Y-10015889D02*
X2310658Y-10034936D01*
X2310658Y-10034936D02*
X2301134Y-10044460D01*
X2301134Y-10044460D02*
X2282086Y-10053984D01*
X2282086Y-10053984D02*
X2263039Y-10053984D01*
X2263039Y-10053984D02*
X2243991Y-10044460D01*
X2243991Y-10044460D02*
X2234467Y-10034936D01*
X2234467Y-10034936D02*
X2224944Y-10015889D01*
X2224944Y-10015889D02*
X2215420Y-9977793D01*
X2215420Y-9977793D02*
X2215420Y-9930174D01*
X2215420Y-9930174D02*
X2224944Y-9892079D01*
X2224944Y-9892079D02*
X2234467Y-9873031D01*
X2234467Y-9873031D02*
X2243991Y-9863508D01*
X2243991Y-9863508D02*
X2263039Y-9853984D01*
X2415420Y-10053984D02*
X2415420Y-9920650D01*
X2415420Y-9939698D02*
X2424944Y-9930174D01*
X2424944Y-9930174D02*
X2443991Y-9920650D01*
X2443991Y-9920650D02*
X2472563Y-9920650D01*
X2472563Y-9920650D02*
X2491610Y-9930174D01*
X2491610Y-9930174D02*
X2501134Y-9949222D01*
X2501134Y-9949222D02*
X2501134Y-10053984D01*
X2501134Y-9949222D02*
X2510658Y-9930174D01*
X2510658Y-9930174D02*
X2529705Y-9920650D01*
X2529705Y-9920650D02*
X2558277Y-9920650D01*
X2558277Y-9920650D02*
X2577325Y-9930174D01*
X2577325Y-9930174D02*
X2586848Y-9949222D01*
X2586848Y-9949222D02*
X2586848Y-10053984D01*
X2682086Y-10053984D02*
X2682086Y-9920650D01*
X2682086Y-9939698D02*
X2691610Y-9930174D01*
X2691610Y-9930174D02*
X2710658Y-9920650D01*
X2710658Y-9920650D02*
X2739229Y-9920650D01*
X2739229Y-9920650D02*
X2758277Y-9930174D01*
X2758277Y-9930174D02*
X2767801Y-9949222D01*
X2767801Y-9949222D02*
X2767801Y-10053984D01*
X2767801Y-9949222D02*
X2777325Y-9930174D01*
X2777325Y-9930174D02*
X2796372Y-9920650D01*
X2796372Y-9920650D02*
X2824943Y-9920650D01*
X2824943Y-9920650D02*
X2843991Y-9930174D01*
X2843991Y-9930174D02*
X2853515Y-9949222D01*
X2853515Y-9949222D02*
X2853515Y-10053984D01*
X3243991Y-9844460D02*
X3072563Y-10101603D01*
X3501134Y-9853984D02*
X3520182Y-9853984D01*
X3520182Y-9853984D02*
X3539229Y-9863508D01*
X3539229Y-9863508D02*
X3548753Y-9873031D01*
X3548753Y-9873031D02*
X3558277Y-9892079D01*
X3558277Y-9892079D02*
X3567801Y-9930174D01*
X3567801Y-9930174D02*
X3567801Y-9977793D01*
X3567801Y-9977793D02*
X3558277Y-10015889D01*
X3558277Y-10015889D02*
X3548753Y-10034936D01*
X3548753Y-10034936D02*
X3539229Y-10044460D01*
X3539229Y-10044460D02*
X3520182Y-10053984D01*
X3520182Y-10053984D02*
X3501134Y-10053984D01*
X3501134Y-10053984D02*
X3482086Y-10044460D01*
X3482086Y-10044460D02*
X3472563Y-10034936D01*
X3472563Y-10034936D02*
X3463039Y-10015889D01*
X3463039Y-10015889D02*
X3453515Y-9977793D01*
X3453515Y-9977793D02*
X3453515Y-9930174D01*
X3453515Y-9930174D02*
X3463039Y-9892079D01*
X3463039Y-9892079D02*
X3472563Y-9873031D01*
X3472563Y-9873031D02*
X3482086Y-9863508D01*
X3482086Y-9863508D02*
X3501134Y-9853984D01*
X3653515Y-10034936D02*
X3663039Y-10044460D01*
X3663039Y-10044460D02*
X3653515Y-10053984D01*
X3653515Y-10053984D02*
X3643991Y-10044460D01*
X3643991Y-10044460D02*
X3653515Y-10034936D01*
X3653515Y-10034936D02*
X3653515Y-10053984D01*
X3786848Y-9853984D02*
X3805896Y-9853984D01*
X3805896Y-9853984D02*
X3824944Y-9863508D01*
X3824944Y-9863508D02*
X3834467Y-9873031D01*
X3834467Y-9873031D02*
X3843991Y-9892079D01*
X3843991Y-9892079D02*
X3853515Y-9930174D01*
X3853515Y-9930174D02*
X3853515Y-9977793D01*
X3853515Y-9977793D02*
X3843991Y-10015889D01*
X3843991Y-10015889D02*
X3834467Y-10034936D01*
X3834467Y-10034936D02*
X3824944Y-10044460D01*
X3824944Y-10044460D02*
X3805896Y-10053984D01*
X3805896Y-10053984D02*
X3786848Y-10053984D01*
X3786848Y-10053984D02*
X3767801Y-10044460D01*
X3767801Y-10044460D02*
X3758277Y-10034936D01*
X3758277Y-10034936D02*
X3748753Y-10015889D01*
X3748753Y-10015889D02*
X3739229Y-9977793D01*
X3739229Y-9977793D02*
X3739229Y-9930174D01*
X3739229Y-9930174D02*
X3748753Y-9892079D01*
X3748753Y-9892079D02*
X3758277Y-9873031D01*
X3758277Y-9873031D02*
X3767801Y-9863508D01*
X3767801Y-9863508D02*
X3786848Y-9853984D01*
X3920182Y-9853984D02*
X4043991Y-9853984D01*
X4043991Y-9853984D02*
X3977325Y-9930174D01*
X3977325Y-9930174D02*
X4005896Y-9930174D01*
X4005896Y-9930174D02*
X4024944Y-9939698D01*
X4024944Y-9939698D02*
X4034467Y-9949222D01*
X4034467Y-9949222D02*
X4043991Y-9968270D01*
X4043991Y-9968270D02*
X4043991Y-10015889D01*
X4043991Y-10015889D02*
X4034467Y-10034936D01*
X4034467Y-10034936D02*
X4024944Y-10044460D01*
X4024944Y-10044460D02*
X4005896Y-10053984D01*
X4005896Y-10053984D02*
X3948753Y-10053984D01*
X3948753Y-10053984D02*
X3929706Y-10044460D01*
X3929706Y-10044460D02*
X3920182Y-10034936D01*
X4139229Y-10053984D02*
X4177325Y-10053984D01*
X4177325Y-10053984D02*
X4196372Y-10044460D01*
X4196372Y-10044460D02*
X4205896Y-10034936D01*
X4205896Y-10034936D02*
X4224944Y-10006365D01*
X4224944Y-10006365D02*
X4234468Y-9968270D01*
X4234468Y-9968270D02*
X4234468Y-9892079D01*
X4234468Y-9892079D02*
X4224944Y-9873031D01*
X4224944Y-9873031D02*
X4215420Y-9863508D01*
X4215420Y-9863508D02*
X4196372Y-9853984D01*
X4196372Y-9853984D02*
X4158277Y-9853984D01*
X4158277Y-9853984D02*
X4139229Y-9863508D01*
X4139229Y-9863508D02*
X4129706Y-9873031D01*
X4129706Y-9873031D02*
X4120182Y-9892079D01*
X4120182Y-9892079D02*
X4120182Y-9939698D01*
X4120182Y-9939698D02*
X4129706Y-9958746D01*
X4129706Y-9958746D02*
X4139229Y-9968270D01*
X4139229Y-9968270D02*
X4158277Y-9977793D01*
X4158277Y-9977793D02*
X4196372Y-9977793D01*
X4196372Y-9977793D02*
X4215420Y-9968270D01*
X4215420Y-9968270D02*
X4224944Y-9958746D01*
X4224944Y-9958746D02*
X4234468Y-9939698D01*
X4405896Y-9920650D02*
X4405896Y-10053984D01*
X4358277Y-9844460D02*
X4310658Y-9987317D01*
X4310658Y-9987317D02*
X4434468Y-9987317D01*
X4501134Y-9853984D02*
X4501134Y-9892079D01*
X4577325Y-9853984D02*
X4577325Y-9892079D01*
X4872563Y-10130174D02*
X4863039Y-10120650D01*
X4863039Y-10120650D02*
X4843991Y-10092079D01*
X4843991Y-10092079D02*
X4834468Y-10073031D01*
X4834468Y-10073031D02*
X4824944Y-10044460D01*
X4824944Y-10044460D02*
X4815420Y-9996841D01*
X4815420Y-9996841D02*
X4815420Y-9958746D01*
X4815420Y-9958746D02*
X4824944Y-9911127D01*
X4824944Y-9911127D02*
X4834468Y-9882555D01*
X4834468Y-9882555D02*
X4843991Y-9863508D01*
X4843991Y-9863508D02*
X4863039Y-9834936D01*
X4863039Y-9834936D02*
X4872563Y-9825412D01*
X5043991Y-9853984D02*
X4948753Y-9853984D01*
X4948753Y-9853984D02*
X4939230Y-9949222D01*
X4939230Y-9949222D02*
X4948753Y-9939698D01*
X4948753Y-9939698D02*
X4967801Y-9930174D01*
X4967801Y-9930174D02*
X5015420Y-9930174D01*
X5015420Y-9930174D02*
X5034468Y-9939698D01*
X5034468Y-9939698D02*
X5043991Y-9949222D01*
X5043991Y-9949222D02*
X5053515Y-9968270D01*
X5053515Y-9968270D02*
X5053515Y-10015889D01*
X5053515Y-10015889D02*
X5043991Y-10034936D01*
X5043991Y-10034936D02*
X5034468Y-10044460D01*
X5034468Y-10044460D02*
X5015420Y-10053984D01*
X5015420Y-10053984D02*
X4967801Y-10053984D01*
X4967801Y-10053984D02*
X4948753Y-10044460D01*
X4948753Y-10044460D02*
X4939230Y-10034936D01*
X5167801Y-9939698D02*
X5148753Y-9930174D01*
X5148753Y-9930174D02*
X5139230Y-9920650D01*
X5139230Y-9920650D02*
X5129706Y-9901603D01*
X5129706Y-9901603D02*
X5129706Y-9892079D01*
X5129706Y-9892079D02*
X5139230Y-9873031D01*
X5139230Y-9873031D02*
X5148753Y-9863508D01*
X5148753Y-9863508D02*
X5167801Y-9853984D01*
X5167801Y-9853984D02*
X5205896Y-9853984D01*
X5205896Y-9853984D02*
X5224944Y-9863508D01*
X5224944Y-9863508D02*
X5234468Y-9873031D01*
X5234468Y-9873031D02*
X5243991Y-9892079D01*
X5243991Y-9892079D02*
X5243991Y-9901603D01*
X5243991Y-9901603D02*
X5234468Y-9920650D01*
X5234468Y-9920650D02*
X5224944Y-9930174D01*
X5224944Y-9930174D02*
X5205896Y-9939698D01*
X5205896Y-9939698D02*
X5167801Y-9939698D01*
X5167801Y-9939698D02*
X5148753Y-9949222D01*
X5148753Y-9949222D02*
X5139230Y-9958746D01*
X5139230Y-9958746D02*
X5129706Y-9977793D01*
X5129706Y-9977793D02*
X5129706Y-10015889D01*
X5129706Y-10015889D02*
X5139230Y-10034936D01*
X5139230Y-10034936D02*
X5148753Y-10044460D01*
X5148753Y-10044460D02*
X5167801Y-10053984D01*
X5167801Y-10053984D02*
X5205896Y-10053984D01*
X5205896Y-10053984D02*
X5224944Y-10044460D01*
X5224944Y-10044460D02*
X5234468Y-10034936D01*
X5234468Y-10034936D02*
X5243991Y-10015889D01*
X5243991Y-10015889D02*
X5243991Y-9977793D01*
X5243991Y-9977793D02*
X5234468Y-9958746D01*
X5234468Y-9958746D02*
X5224944Y-9949222D01*
X5224944Y-9949222D02*
X5205896Y-9939698D01*
X5482087Y-10053984D02*
X5482087Y-9853984D01*
X5567801Y-10053984D02*
X5567801Y-9949222D01*
X5567801Y-9949222D02*
X5558277Y-9930174D01*
X5558277Y-9930174D02*
X5539230Y-9920650D01*
X5539230Y-9920650D02*
X5510658Y-9920650D01*
X5510658Y-9920650D02*
X5491611Y-9930174D01*
X5491611Y-9930174D02*
X5482087Y-9939698D01*
X5691610Y-10053984D02*
X5672563Y-10044460D01*
X5672563Y-10044460D02*
X5663039Y-10034936D01*
X5663039Y-10034936D02*
X5653515Y-10015889D01*
X5653515Y-10015889D02*
X5653515Y-9958746D01*
X5653515Y-9958746D02*
X5663039Y-9939698D01*
X5663039Y-9939698D02*
X5672563Y-9930174D01*
X5672563Y-9930174D02*
X5691610Y-9920650D01*
X5691610Y-9920650D02*
X5720182Y-9920650D01*
X5720182Y-9920650D02*
X5739230Y-9930174D01*
X5739230Y-9930174D02*
X5748753Y-9939698D01*
X5748753Y-9939698D02*
X5758277Y-9958746D01*
X5758277Y-9958746D02*
X5758277Y-10015889D01*
X5758277Y-10015889D02*
X5748753Y-10034936D01*
X5748753Y-10034936D02*
X5739230Y-10044460D01*
X5739230Y-10044460D02*
X5720182Y-10053984D01*
X5720182Y-10053984D02*
X5691610Y-10053984D01*
X5872563Y-10053984D02*
X5853515Y-10044460D01*
X5853515Y-10044460D02*
X5843991Y-10025412D01*
X5843991Y-10025412D02*
X5843991Y-9853984D01*
X6024944Y-10044460D02*
X6005896Y-10053984D01*
X6005896Y-10053984D02*
X5967801Y-10053984D01*
X5967801Y-10053984D02*
X5948753Y-10044460D01*
X5948753Y-10044460D02*
X5939230Y-10025412D01*
X5939230Y-10025412D02*
X5939230Y-9949222D01*
X5939230Y-9949222D02*
X5948753Y-9930174D01*
X5948753Y-9930174D02*
X5967801Y-9920650D01*
X5967801Y-9920650D02*
X6005896Y-9920650D01*
X6005896Y-9920650D02*
X6024944Y-9930174D01*
X6024944Y-9930174D02*
X6034468Y-9949222D01*
X6034468Y-9949222D02*
X6034468Y-9968270D01*
X6034468Y-9968270D02*
X5939230Y-9987317D01*
X6110658Y-10044460D02*
X6129706Y-10053984D01*
X6129706Y-10053984D02*
X6167801Y-10053984D01*
X6167801Y-10053984D02*
X6186849Y-10044460D01*
X6186849Y-10044460D02*
X6196372Y-10025412D01*
X6196372Y-10025412D02*
X6196372Y-10015889D01*
X6196372Y-10015889D02*
X6186849Y-9996841D01*
X6186849Y-9996841D02*
X6167801Y-9987317D01*
X6167801Y-9987317D02*
X6139230Y-9987317D01*
X6139230Y-9987317D02*
X6120182Y-9977793D01*
X6120182Y-9977793D02*
X6110658Y-9958746D01*
X6110658Y-9958746D02*
X6110658Y-9949222D01*
X6110658Y-9949222D02*
X6120182Y-9930174D01*
X6120182Y-9930174D02*
X6139230Y-9920650D01*
X6139230Y-9920650D02*
X6167801Y-9920650D01*
X6167801Y-9920650D02*
X6186849Y-9930174D01*
X6263039Y-10130174D02*
X6272563Y-10120650D01*
X6272563Y-10120650D02*
X6291611Y-10092079D01*
X6291611Y-10092079D02*
X6301134Y-10073031D01*
X6301134Y-10073031D02*
X6310658Y-10044460D01*
X6310658Y-10044460D02*
X6320182Y-9996841D01*
X6320182Y-9996841D02*
X6320182Y-9958746D01*
X6320182Y-9958746D02*
X6310658Y-9911127D01*
X6310658Y-9911127D02*
X6301134Y-9882555D01*
X6301134Y-9882555D02*
X6291611Y-9863508D01*
X6291611Y-9863508D02*
X6272563Y-9834936D01*
X6272563Y-9834936D02*
X6263039Y-9825412D01*
D13*
X1195900Y-10175700D02*
X1297500Y-10277300D01*
X1297500Y-10175700D02*
X1195900Y-10277300D01*
X1246700Y-10175700D02*
X1246700Y-10277300D01*
X1195900Y-10226500D02*
X1297500Y-10226500D01*
D11*
X1663039Y-10317984D02*
X1548753Y-10317984D01*
X1605896Y-10317984D02*
X1605896Y-10117984D01*
X1605896Y-10117984D02*
X1586848Y-10146555D01*
X1586848Y-10146555D02*
X1567801Y-10165603D01*
X1567801Y-10165603D02*
X1548753Y-10175127D01*
X1748753Y-10298936D02*
X1758277Y-10308460D01*
X1758277Y-10308460D02*
X1748753Y-10317984D01*
X1748753Y-10317984D02*
X1739229Y-10308460D01*
X1739229Y-10308460D02*
X1748753Y-10298936D01*
X1748753Y-10298936D02*
X1748753Y-10317984D01*
X1882086Y-10117984D02*
X1901134Y-10117984D01*
X1901134Y-10117984D02*
X1920182Y-10127508D01*
X1920182Y-10127508D02*
X1929705Y-10137031D01*
X1929705Y-10137031D02*
X1939229Y-10156079D01*
X1939229Y-10156079D02*
X1948753Y-10194174D01*
X1948753Y-10194174D02*
X1948753Y-10241793D01*
X1948753Y-10241793D02*
X1939229Y-10279889D01*
X1939229Y-10279889D02*
X1929705Y-10298936D01*
X1929705Y-10298936D02*
X1920182Y-10308460D01*
X1920182Y-10308460D02*
X1901134Y-10317984D01*
X1901134Y-10317984D02*
X1882086Y-10317984D01*
X1882086Y-10317984D02*
X1863039Y-10308460D01*
X1863039Y-10308460D02*
X1853515Y-10298936D01*
X1853515Y-10298936D02*
X1843991Y-10279889D01*
X1843991Y-10279889D02*
X1834467Y-10241793D01*
X1834467Y-10241793D02*
X1834467Y-10194174D01*
X1834467Y-10194174D02*
X1843991Y-10156079D01*
X1843991Y-10156079D02*
X1853515Y-10137031D01*
X1853515Y-10137031D02*
X1863039Y-10127508D01*
X1863039Y-10127508D02*
X1882086Y-10117984D01*
X2139229Y-10317984D02*
X2024943Y-10317984D01*
X2082086Y-10317984D02*
X2082086Y-10117984D01*
X2082086Y-10117984D02*
X2063039Y-10146555D01*
X2063039Y-10146555D02*
X2043991Y-10165603D01*
X2043991Y-10165603D02*
X2024943Y-10175127D01*
X2310658Y-10117984D02*
X2272563Y-10117984D01*
X2272563Y-10117984D02*
X2253515Y-10127508D01*
X2253515Y-10127508D02*
X2243991Y-10137031D01*
X2243991Y-10137031D02*
X2224944Y-10165603D01*
X2224944Y-10165603D02*
X2215420Y-10203698D01*
X2215420Y-10203698D02*
X2215420Y-10279889D01*
X2215420Y-10279889D02*
X2224944Y-10298936D01*
X2224944Y-10298936D02*
X2234467Y-10308460D01*
X2234467Y-10308460D02*
X2253515Y-10317984D01*
X2253515Y-10317984D02*
X2291610Y-10317984D01*
X2291610Y-10317984D02*
X2310658Y-10308460D01*
X2310658Y-10308460D02*
X2320182Y-10298936D01*
X2320182Y-10298936D02*
X2329705Y-10279889D01*
X2329705Y-10279889D02*
X2329705Y-10232270D01*
X2329705Y-10232270D02*
X2320182Y-10213222D01*
X2320182Y-10213222D02*
X2310658Y-10203698D01*
X2310658Y-10203698D02*
X2291610Y-10194174D01*
X2291610Y-10194174D02*
X2253515Y-10194174D01*
X2253515Y-10194174D02*
X2234467Y-10203698D01*
X2234467Y-10203698D02*
X2224944Y-10213222D01*
X2224944Y-10213222D02*
X2215420Y-10232270D01*
X2415420Y-10317984D02*
X2415420Y-10184650D01*
X2415420Y-10203698D02*
X2424944Y-10194174D01*
X2424944Y-10194174D02*
X2443991Y-10184650D01*
X2443991Y-10184650D02*
X2472563Y-10184650D01*
X2472563Y-10184650D02*
X2491610Y-10194174D01*
X2491610Y-10194174D02*
X2501134Y-10213222D01*
X2501134Y-10213222D02*
X2501134Y-10317984D01*
X2501134Y-10213222D02*
X2510658Y-10194174D01*
X2510658Y-10194174D02*
X2529705Y-10184650D01*
X2529705Y-10184650D02*
X2558277Y-10184650D01*
X2558277Y-10184650D02*
X2577325Y-10194174D01*
X2577325Y-10194174D02*
X2586848Y-10213222D01*
X2586848Y-10213222D02*
X2586848Y-10317984D01*
X2682086Y-10317984D02*
X2682086Y-10184650D01*
X2682086Y-10203698D02*
X2691610Y-10194174D01*
X2691610Y-10194174D02*
X2710658Y-10184650D01*
X2710658Y-10184650D02*
X2739229Y-10184650D01*
X2739229Y-10184650D02*
X2758277Y-10194174D01*
X2758277Y-10194174D02*
X2767801Y-10213222D01*
X2767801Y-10213222D02*
X2767801Y-10317984D01*
X2767801Y-10213222D02*
X2777325Y-10194174D01*
X2777325Y-10194174D02*
X2796372Y-10184650D01*
X2796372Y-10184650D02*
X2824943Y-10184650D01*
X2824943Y-10184650D02*
X2843991Y-10194174D01*
X2843991Y-10194174D02*
X2853515Y-10213222D01*
X2853515Y-10213222D02*
X2853515Y-10317984D01*
X3243991Y-10108460D02*
X3072563Y-10365603D01*
X3501134Y-10117984D02*
X3520182Y-10117984D01*
X3520182Y-10117984D02*
X3539229Y-10127508D01*
X3539229Y-10127508D02*
X3548753Y-10137031D01*
X3548753Y-10137031D02*
X3558277Y-10156079D01*
X3558277Y-10156079D02*
X3567801Y-10194174D01*
X3567801Y-10194174D02*
X3567801Y-10241793D01*
X3567801Y-10241793D02*
X3558277Y-10279889D01*
X3558277Y-10279889D02*
X3548753Y-10298936D01*
X3548753Y-10298936D02*
X3539229Y-10308460D01*
X3539229Y-10308460D02*
X3520182Y-10317984D01*
X3520182Y-10317984D02*
X3501134Y-10317984D01*
X3501134Y-10317984D02*
X3482086Y-10308460D01*
X3482086Y-10308460D02*
X3472563Y-10298936D01*
X3472563Y-10298936D02*
X3463039Y-10279889D01*
X3463039Y-10279889D02*
X3453515Y-10241793D01*
X3453515Y-10241793D02*
X3453515Y-10194174D01*
X3453515Y-10194174D02*
X3463039Y-10156079D01*
X3463039Y-10156079D02*
X3472563Y-10137031D01*
X3472563Y-10137031D02*
X3482086Y-10127508D01*
X3482086Y-10127508D02*
X3501134Y-10117984D01*
X3653515Y-10298936D02*
X3663039Y-10308460D01*
X3663039Y-10308460D02*
X3653515Y-10317984D01*
X3653515Y-10317984D02*
X3643991Y-10308460D01*
X3643991Y-10308460D02*
X3653515Y-10298936D01*
X3653515Y-10298936D02*
X3653515Y-10317984D01*
X3786848Y-10117984D02*
X3805896Y-10117984D01*
X3805896Y-10117984D02*
X3824944Y-10127508D01*
X3824944Y-10127508D02*
X3834467Y-10137031D01*
X3834467Y-10137031D02*
X3843991Y-10156079D01*
X3843991Y-10156079D02*
X3853515Y-10194174D01*
X3853515Y-10194174D02*
X3853515Y-10241793D01*
X3853515Y-10241793D02*
X3843991Y-10279889D01*
X3843991Y-10279889D02*
X3834467Y-10298936D01*
X3834467Y-10298936D02*
X3824944Y-10308460D01*
X3824944Y-10308460D02*
X3805896Y-10317984D01*
X3805896Y-10317984D02*
X3786848Y-10317984D01*
X3786848Y-10317984D02*
X3767801Y-10308460D01*
X3767801Y-10308460D02*
X3758277Y-10298936D01*
X3758277Y-10298936D02*
X3748753Y-10279889D01*
X3748753Y-10279889D02*
X3739229Y-10241793D01*
X3739229Y-10241793D02*
X3739229Y-10194174D01*
X3739229Y-10194174D02*
X3748753Y-10156079D01*
X3748753Y-10156079D02*
X3758277Y-10137031D01*
X3758277Y-10137031D02*
X3767801Y-10127508D01*
X3767801Y-10127508D02*
X3786848Y-10117984D01*
X4024944Y-10184650D02*
X4024944Y-10317984D01*
X3977325Y-10108460D02*
X3929706Y-10251317D01*
X3929706Y-10251317D02*
X4053515Y-10251317D01*
X4167801Y-10117984D02*
X4186848Y-10117984D01*
X4186848Y-10117984D02*
X4205896Y-10127508D01*
X4205896Y-10127508D02*
X4215420Y-10137031D01*
X4215420Y-10137031D02*
X4224944Y-10156079D01*
X4224944Y-10156079D02*
X4234468Y-10194174D01*
X4234468Y-10194174D02*
X4234468Y-10241793D01*
X4234468Y-10241793D02*
X4224944Y-10279889D01*
X4224944Y-10279889D02*
X4215420Y-10298936D01*
X4215420Y-10298936D02*
X4205896Y-10308460D01*
X4205896Y-10308460D02*
X4186848Y-10317984D01*
X4186848Y-10317984D02*
X4167801Y-10317984D01*
X4167801Y-10317984D02*
X4148753Y-10308460D01*
X4148753Y-10308460D02*
X4139229Y-10298936D01*
X4139229Y-10298936D02*
X4129706Y-10279889D01*
X4129706Y-10279889D02*
X4120182Y-10241793D01*
X4120182Y-10241793D02*
X4120182Y-10194174D01*
X4120182Y-10194174D02*
X4129706Y-10156079D01*
X4129706Y-10156079D02*
X4139229Y-10137031D01*
X4139229Y-10137031D02*
X4148753Y-10127508D01*
X4148753Y-10127508D02*
X4167801Y-10117984D01*
X4358277Y-10117984D02*
X4377325Y-10117984D01*
X4377325Y-10117984D02*
X4396372Y-10127508D01*
X4396372Y-10127508D02*
X4405896Y-10137031D01*
X4405896Y-10137031D02*
X4415420Y-10156079D01*
X4415420Y-10156079D02*
X4424944Y-10194174D01*
X4424944Y-10194174D02*
X4424944Y-10241793D01*
X4424944Y-10241793D02*
X4415420Y-10279889D01*
X4415420Y-10279889D02*
X4405896Y-10298936D01*
X4405896Y-10298936D02*
X4396372Y-10308460D01*
X4396372Y-10308460D02*
X4377325Y-10317984D01*
X4377325Y-10317984D02*
X4358277Y-10317984D01*
X4358277Y-10317984D02*
X4339229Y-10308460D01*
X4339229Y-10308460D02*
X4329706Y-10298936D01*
X4329706Y-10298936D02*
X4320182Y-10279889D01*
X4320182Y-10279889D02*
X4310658Y-10241793D01*
X4310658Y-10241793D02*
X4310658Y-10194174D01*
X4310658Y-10194174D02*
X4320182Y-10156079D01*
X4320182Y-10156079D02*
X4329706Y-10137031D01*
X4329706Y-10137031D02*
X4339229Y-10127508D01*
X4339229Y-10127508D02*
X4358277Y-10117984D01*
X4501134Y-10117984D02*
X4501134Y-10156079D01*
X4577325Y-10117984D02*
X4577325Y-10156079D01*
X4872563Y-10394174D02*
X4863039Y-10384650D01*
X4863039Y-10384650D02*
X4843991Y-10356079D01*
X4843991Y-10356079D02*
X4834468Y-10337031D01*
X4834468Y-10337031D02*
X4824944Y-10308460D01*
X4824944Y-10308460D02*
X4815420Y-10260841D01*
X4815420Y-10260841D02*
X4815420Y-10222746D01*
X4815420Y-10222746D02*
X4824944Y-10175127D01*
X4824944Y-10175127D02*
X4834468Y-10146555D01*
X4834468Y-10146555D02*
X4843991Y-10127508D01*
X4843991Y-10127508D02*
X4863039Y-10098936D01*
X4863039Y-10098936D02*
X4872563Y-10089412D01*
X4977325Y-10203698D02*
X4958277Y-10194174D01*
X4958277Y-10194174D02*
X4948753Y-10184650D01*
X4948753Y-10184650D02*
X4939230Y-10165603D01*
X4939230Y-10165603D02*
X4939230Y-10156079D01*
X4939230Y-10156079D02*
X4948753Y-10137031D01*
X4948753Y-10137031D02*
X4958277Y-10127508D01*
X4958277Y-10127508D02*
X4977325Y-10117984D01*
X4977325Y-10117984D02*
X5015420Y-10117984D01*
X5015420Y-10117984D02*
X5034468Y-10127508D01*
X5034468Y-10127508D02*
X5043991Y-10137031D01*
X5043991Y-10137031D02*
X5053515Y-10156079D01*
X5053515Y-10156079D02*
X5053515Y-10165603D01*
X5053515Y-10165603D02*
X5043991Y-10184650D01*
X5043991Y-10184650D02*
X5034468Y-10194174D01*
X5034468Y-10194174D02*
X5015420Y-10203698D01*
X5015420Y-10203698D02*
X4977325Y-10203698D01*
X4977325Y-10203698D02*
X4958277Y-10213222D01*
X4958277Y-10213222D02*
X4948753Y-10222746D01*
X4948753Y-10222746D02*
X4939230Y-10241793D01*
X4939230Y-10241793D02*
X4939230Y-10279889D01*
X4939230Y-10279889D02*
X4948753Y-10298936D01*
X4948753Y-10298936D02*
X4958277Y-10308460D01*
X4958277Y-10308460D02*
X4977325Y-10317984D01*
X4977325Y-10317984D02*
X5015420Y-10317984D01*
X5015420Y-10317984D02*
X5034468Y-10308460D01*
X5034468Y-10308460D02*
X5043991Y-10298936D01*
X5043991Y-10298936D02*
X5053515Y-10279889D01*
X5053515Y-10279889D02*
X5053515Y-10241793D01*
X5053515Y-10241793D02*
X5043991Y-10222746D01*
X5043991Y-10222746D02*
X5034468Y-10213222D01*
X5034468Y-10213222D02*
X5015420Y-10203698D01*
X5291611Y-10317984D02*
X5291611Y-10117984D01*
X5377325Y-10317984D02*
X5377325Y-10213222D01*
X5377325Y-10213222D02*
X5367801Y-10194174D01*
X5367801Y-10194174D02*
X5348753Y-10184650D01*
X5348753Y-10184650D02*
X5320182Y-10184650D01*
X5320182Y-10184650D02*
X5301134Y-10194174D01*
X5301134Y-10194174D02*
X5291611Y-10203698D01*
X5501134Y-10317984D02*
X5482087Y-10308460D01*
X5482087Y-10308460D02*
X5472563Y-10298936D01*
X5472563Y-10298936D02*
X5463039Y-10279889D01*
X5463039Y-10279889D02*
X5463039Y-10222746D01*
X5463039Y-10222746D02*
X5472563Y-10203698D01*
X5472563Y-10203698D02*
X5482087Y-10194174D01*
X5482087Y-10194174D02*
X5501134Y-10184650D01*
X5501134Y-10184650D02*
X5529706Y-10184650D01*
X5529706Y-10184650D02*
X5548753Y-10194174D01*
X5548753Y-10194174D02*
X5558277Y-10203698D01*
X5558277Y-10203698D02*
X5567801Y-10222746D01*
X5567801Y-10222746D02*
X5567801Y-10279889D01*
X5567801Y-10279889D02*
X5558277Y-10298936D01*
X5558277Y-10298936D02*
X5548753Y-10308460D01*
X5548753Y-10308460D02*
X5529706Y-10317984D01*
X5529706Y-10317984D02*
X5501134Y-10317984D01*
X5682087Y-10317984D02*
X5663039Y-10308460D01*
X5663039Y-10308460D02*
X5653515Y-10289412D01*
X5653515Y-10289412D02*
X5653515Y-10117984D01*
X5834468Y-10308460D02*
X5815420Y-10317984D01*
X5815420Y-10317984D02*
X5777325Y-10317984D01*
X5777325Y-10317984D02*
X5758277Y-10308460D01*
X5758277Y-10308460D02*
X5748753Y-10289412D01*
X5748753Y-10289412D02*
X5748753Y-10213222D01*
X5748753Y-10213222D02*
X5758277Y-10194174D01*
X5758277Y-10194174D02*
X5777325Y-10184650D01*
X5777325Y-10184650D02*
X5815420Y-10184650D01*
X5815420Y-10184650D02*
X5834468Y-10194174D01*
X5834468Y-10194174D02*
X5843991Y-10213222D01*
X5843991Y-10213222D02*
X5843991Y-10232270D01*
X5843991Y-10232270D02*
X5748753Y-10251317D01*
X5920182Y-10308460D02*
X5939230Y-10317984D01*
X5939230Y-10317984D02*
X5977325Y-10317984D01*
X5977325Y-10317984D02*
X5996372Y-10308460D01*
X5996372Y-10308460D02*
X6005896Y-10289412D01*
X6005896Y-10289412D02*
X6005896Y-10279889D01*
X6005896Y-10279889D02*
X5996372Y-10260841D01*
X5996372Y-10260841D02*
X5977325Y-10251317D01*
X5977325Y-10251317D02*
X5948753Y-10251317D01*
X5948753Y-10251317D02*
X5929706Y-10241793D01*
X5929706Y-10241793D02*
X5920182Y-10222746D01*
X5920182Y-10222746D02*
X5920182Y-10213222D01*
X5920182Y-10213222D02*
X5929706Y-10194174D01*
X5929706Y-10194174D02*
X5948753Y-10184650D01*
X5948753Y-10184650D02*
X5977325Y-10184650D01*
X5977325Y-10184650D02*
X5996372Y-10194174D01*
X6072563Y-10394174D02*
X6082087Y-10384650D01*
X6082087Y-10384650D02*
X6101134Y-10356079D01*
X6101134Y-10356079D02*
X6110658Y-10337031D01*
X6110658Y-10337031D02*
X6120182Y-10308460D01*
X6120182Y-10308460D02*
X6129706Y-10260841D01*
X6129706Y-10260841D02*
X6129706Y-10222746D01*
X6129706Y-10222746D02*
X6120182Y-10175127D01*
X6120182Y-10175127D02*
X6110658Y-10146555D01*
X6110658Y-10146555D02*
X6101134Y-10127508D01*
X6101134Y-10127508D02*
X6082087Y-10098936D01*
X6082087Y-10098936D02*
X6072563Y-10089412D01*
X1097500Y-10390500D02*
X1297500Y-10590500D01*
X1297500Y-10390500D02*
X1097500Y-10590500D01*
X1268211Y-10561211D02*
X1268211Y-10419789D01*
X1126789Y-10419789D01*
X1126789Y-10561211D01*
X1268211Y-10561211D01*
X1539229Y-10381984D02*
X1663039Y-10381984D01*
X1663039Y-10381984D02*
X1596372Y-10458174D01*
X1596372Y-10458174D02*
X1624943Y-10458174D01*
X1624943Y-10458174D02*
X1643991Y-10467698D01*
X1643991Y-10467698D02*
X1653515Y-10477222D01*
X1653515Y-10477222D02*
X1663039Y-10496270D01*
X1663039Y-10496270D02*
X1663039Y-10543889D01*
X1663039Y-10543889D02*
X1653515Y-10562936D01*
X1653515Y-10562936D02*
X1643991Y-10572460D01*
X1643991Y-10572460D02*
X1624943Y-10581984D01*
X1624943Y-10581984D02*
X1567801Y-10581984D01*
X1567801Y-10581984D02*
X1548753Y-10572460D01*
X1548753Y-10572460D02*
X1539229Y-10562936D01*
X1748753Y-10562936D02*
X1758277Y-10572460D01*
X1758277Y-10572460D02*
X1748753Y-10581984D01*
X1748753Y-10581984D02*
X1739229Y-10572460D01*
X1739229Y-10572460D02*
X1748753Y-10562936D01*
X1748753Y-10562936D02*
X1748753Y-10581984D01*
X1834467Y-10401031D02*
X1843991Y-10391508D01*
X1843991Y-10391508D02*
X1863039Y-10381984D01*
X1863039Y-10381984D02*
X1910658Y-10381984D01*
X1910658Y-10381984D02*
X1929705Y-10391508D01*
X1929705Y-10391508D02*
X1939229Y-10401031D01*
X1939229Y-10401031D02*
X1948753Y-10420079D01*
X1948753Y-10420079D02*
X1948753Y-10439127D01*
X1948753Y-10439127D02*
X1939229Y-10467698D01*
X1939229Y-10467698D02*
X1824943Y-10581984D01*
X1824943Y-10581984D02*
X1948753Y-10581984D01*
X2072562Y-10381984D02*
X2091610Y-10381984D01*
X2091610Y-10381984D02*
X2110658Y-10391508D01*
X2110658Y-10391508D02*
X2120182Y-10401031D01*
X2120182Y-10401031D02*
X2129705Y-10420079D01*
X2129705Y-10420079D02*
X2139229Y-10458174D01*
X2139229Y-10458174D02*
X2139229Y-10505793D01*
X2139229Y-10505793D02*
X2129705Y-10543889D01*
X2129705Y-10543889D02*
X2120182Y-10562936D01*
X2120182Y-10562936D02*
X2110658Y-10572460D01*
X2110658Y-10572460D02*
X2091610Y-10581984D01*
X2091610Y-10581984D02*
X2072562Y-10581984D01*
X2072562Y-10581984D02*
X2053515Y-10572460D01*
X2053515Y-10572460D02*
X2043991Y-10562936D01*
X2043991Y-10562936D02*
X2034467Y-10543889D01*
X2034467Y-10543889D02*
X2024943Y-10505793D01*
X2024943Y-10505793D02*
X2024943Y-10458174D01*
X2024943Y-10458174D02*
X2034467Y-10420079D01*
X2034467Y-10420079D02*
X2043991Y-10401031D01*
X2043991Y-10401031D02*
X2053515Y-10391508D01*
X2053515Y-10391508D02*
X2072562Y-10381984D01*
X2263039Y-10381984D02*
X2282086Y-10381984D01*
X2282086Y-10381984D02*
X2301134Y-10391508D01*
X2301134Y-10391508D02*
X2310658Y-10401031D01*
X2310658Y-10401031D02*
X2320182Y-10420079D01*
X2320182Y-10420079D02*
X2329705Y-10458174D01*
X2329705Y-10458174D02*
X2329705Y-10505793D01*
X2329705Y-10505793D02*
X2320182Y-10543889D01*
X2320182Y-10543889D02*
X2310658Y-10562936D01*
X2310658Y-10562936D02*
X2301134Y-10572460D01*
X2301134Y-10572460D02*
X2282086Y-10581984D01*
X2282086Y-10581984D02*
X2263039Y-10581984D01*
X2263039Y-10581984D02*
X2243991Y-10572460D01*
X2243991Y-10572460D02*
X2234467Y-10562936D01*
X2234467Y-10562936D02*
X2224944Y-10543889D01*
X2224944Y-10543889D02*
X2215420Y-10505793D01*
X2215420Y-10505793D02*
X2215420Y-10458174D01*
X2215420Y-10458174D02*
X2224944Y-10420079D01*
X2224944Y-10420079D02*
X2234467Y-10401031D01*
X2234467Y-10401031D02*
X2243991Y-10391508D01*
X2243991Y-10391508D02*
X2263039Y-10381984D01*
X2415420Y-10581984D02*
X2415420Y-10448650D01*
X2415420Y-10467698D02*
X2424944Y-10458174D01*
X2424944Y-10458174D02*
X2443991Y-10448650D01*
X2443991Y-10448650D02*
X2472563Y-10448650D01*
X2472563Y-10448650D02*
X2491610Y-10458174D01*
X2491610Y-10458174D02*
X2501134Y-10477222D01*
X2501134Y-10477222D02*
X2501134Y-10581984D01*
X2501134Y-10477222D02*
X2510658Y-10458174D01*
X2510658Y-10458174D02*
X2529705Y-10448650D01*
X2529705Y-10448650D02*
X2558277Y-10448650D01*
X2558277Y-10448650D02*
X2577325Y-10458174D01*
X2577325Y-10458174D02*
X2586848Y-10477222D01*
X2586848Y-10477222D02*
X2586848Y-10581984D01*
X2682086Y-10581984D02*
X2682086Y-10448650D01*
X2682086Y-10467698D02*
X2691610Y-10458174D01*
X2691610Y-10458174D02*
X2710658Y-10448650D01*
X2710658Y-10448650D02*
X2739229Y-10448650D01*
X2739229Y-10448650D02*
X2758277Y-10458174D01*
X2758277Y-10458174D02*
X2767801Y-10477222D01*
X2767801Y-10477222D02*
X2767801Y-10581984D01*
X2767801Y-10477222D02*
X2777325Y-10458174D01*
X2777325Y-10458174D02*
X2796372Y-10448650D01*
X2796372Y-10448650D02*
X2824943Y-10448650D01*
X2824943Y-10448650D02*
X2843991Y-10458174D01*
X2843991Y-10458174D02*
X2853515Y-10477222D01*
X2853515Y-10477222D02*
X2853515Y-10581984D01*
X3243991Y-10372460D02*
X3072563Y-10629603D01*
X3501134Y-10381984D02*
X3520182Y-10381984D01*
X3520182Y-10381984D02*
X3539229Y-10391508D01*
X3539229Y-10391508D02*
X3548753Y-10401031D01*
X3548753Y-10401031D02*
X3558277Y-10420079D01*
X3558277Y-10420079D02*
X3567801Y-10458174D01*
X3567801Y-10458174D02*
X3567801Y-10505793D01*
X3567801Y-10505793D02*
X3558277Y-10543889D01*
X3558277Y-10543889D02*
X3548753Y-10562936D01*
X3548753Y-10562936D02*
X3539229Y-10572460D01*
X3539229Y-10572460D02*
X3520182Y-10581984D01*
X3520182Y-10581984D02*
X3501134Y-10581984D01*
X3501134Y-10581984D02*
X3482086Y-10572460D01*
X3482086Y-10572460D02*
X3472563Y-10562936D01*
X3472563Y-10562936D02*
X3463039Y-10543889D01*
X3463039Y-10543889D02*
X3453515Y-10505793D01*
X3453515Y-10505793D02*
X3453515Y-10458174D01*
X3453515Y-10458174D02*
X3463039Y-10420079D01*
X3463039Y-10420079D02*
X3472563Y-10401031D01*
X3472563Y-10401031D02*
X3482086Y-10391508D01*
X3482086Y-10391508D02*
X3501134Y-10381984D01*
X3653515Y-10562936D02*
X3663039Y-10572460D01*
X3663039Y-10572460D02*
X3653515Y-10581984D01*
X3653515Y-10581984D02*
X3643991Y-10572460D01*
X3643991Y-10572460D02*
X3653515Y-10562936D01*
X3653515Y-10562936D02*
X3653515Y-10581984D01*
X3853515Y-10581984D02*
X3739229Y-10581984D01*
X3796372Y-10581984D02*
X3796372Y-10381984D01*
X3796372Y-10381984D02*
X3777325Y-10410555D01*
X3777325Y-10410555D02*
X3758277Y-10429603D01*
X3758277Y-10429603D02*
X3739229Y-10439127D01*
X3929706Y-10401031D02*
X3939229Y-10391508D01*
X3939229Y-10391508D02*
X3958277Y-10381984D01*
X3958277Y-10381984D02*
X4005896Y-10381984D01*
X4005896Y-10381984D02*
X4024944Y-10391508D01*
X4024944Y-10391508D02*
X4034467Y-10401031D01*
X4034467Y-10401031D02*
X4043991Y-10420079D01*
X4043991Y-10420079D02*
X4043991Y-10439127D01*
X4043991Y-10439127D02*
X4034467Y-10467698D01*
X4034467Y-10467698D02*
X3920182Y-10581984D01*
X3920182Y-10581984D02*
X4043991Y-10581984D01*
X4215420Y-10381984D02*
X4177325Y-10381984D01*
X4177325Y-10381984D02*
X4158277Y-10391508D01*
X4158277Y-10391508D02*
X4148753Y-10401031D01*
X4148753Y-10401031D02*
X4129706Y-10429603D01*
X4129706Y-10429603D02*
X4120182Y-10467698D01*
X4120182Y-10467698D02*
X4120182Y-10543889D01*
X4120182Y-10543889D02*
X4129706Y-10562936D01*
X4129706Y-10562936D02*
X4139229Y-10572460D01*
X4139229Y-10572460D02*
X4158277Y-10581984D01*
X4158277Y-10581984D02*
X4196372Y-10581984D01*
X4196372Y-10581984D02*
X4215420Y-10572460D01*
X4215420Y-10572460D02*
X4224944Y-10562936D01*
X4224944Y-10562936D02*
X4234468Y-10543889D01*
X4234468Y-10543889D02*
X4234468Y-10496270D01*
X4234468Y-10496270D02*
X4224944Y-10477222D01*
X4224944Y-10477222D02*
X4215420Y-10467698D01*
X4215420Y-10467698D02*
X4196372Y-10458174D01*
X4196372Y-10458174D02*
X4158277Y-10458174D01*
X4158277Y-10458174D02*
X4139229Y-10467698D01*
X4139229Y-10467698D02*
X4129706Y-10477222D01*
X4129706Y-10477222D02*
X4120182Y-10496270D01*
X4358277Y-10381984D02*
X4377325Y-10381984D01*
X4377325Y-10381984D02*
X4396372Y-10391508D01*
X4396372Y-10391508D02*
X4405896Y-10401031D01*
X4405896Y-10401031D02*
X4415420Y-10420079D01*
X4415420Y-10420079D02*
X4424944Y-10458174D01*
X4424944Y-10458174D02*
X4424944Y-10505793D01*
X4424944Y-10505793D02*
X4415420Y-10543889D01*
X4415420Y-10543889D02*
X4405896Y-10562936D01*
X4405896Y-10562936D02*
X4396372Y-10572460D01*
X4396372Y-10572460D02*
X4377325Y-10581984D01*
X4377325Y-10581984D02*
X4358277Y-10581984D01*
X4358277Y-10581984D02*
X4339229Y-10572460D01*
X4339229Y-10572460D02*
X4329706Y-10562936D01*
X4329706Y-10562936D02*
X4320182Y-10543889D01*
X4320182Y-10543889D02*
X4310658Y-10505793D01*
X4310658Y-10505793D02*
X4310658Y-10458174D01*
X4310658Y-10458174D02*
X4320182Y-10420079D01*
X4320182Y-10420079D02*
X4329706Y-10401031D01*
X4329706Y-10401031D02*
X4339229Y-10391508D01*
X4339229Y-10391508D02*
X4358277Y-10381984D01*
X4501134Y-10381984D02*
X4501134Y-10420079D01*
X4577325Y-10381984D02*
X4577325Y-10420079D01*
X4872563Y-10658174D02*
X4863039Y-10648650D01*
X4863039Y-10648650D02*
X4843991Y-10620079D01*
X4843991Y-10620079D02*
X4834468Y-10601031D01*
X4834468Y-10601031D02*
X4824944Y-10572460D01*
X4824944Y-10572460D02*
X4815420Y-10524841D01*
X4815420Y-10524841D02*
X4815420Y-10486746D01*
X4815420Y-10486746D02*
X4824944Y-10439127D01*
X4824944Y-10439127D02*
X4834468Y-10410555D01*
X4834468Y-10410555D02*
X4843991Y-10391508D01*
X4843991Y-10391508D02*
X4863039Y-10362936D01*
X4863039Y-10362936D02*
X4872563Y-10353412D01*
X4939230Y-10401031D02*
X4948753Y-10391508D01*
X4948753Y-10391508D02*
X4967801Y-10381984D01*
X4967801Y-10381984D02*
X5015420Y-10381984D01*
X5015420Y-10381984D02*
X5034468Y-10391508D01*
X5034468Y-10391508D02*
X5043991Y-10401031D01*
X5043991Y-10401031D02*
X5053515Y-10420079D01*
X5053515Y-10420079D02*
X5053515Y-10439127D01*
X5053515Y-10439127D02*
X5043991Y-10467698D01*
X5043991Y-10467698D02*
X4929706Y-10581984D01*
X4929706Y-10581984D02*
X5053515Y-10581984D01*
X5291611Y-10581984D02*
X5291611Y-10381984D01*
X5377325Y-10581984D02*
X5377325Y-10477222D01*
X5377325Y-10477222D02*
X5367801Y-10458174D01*
X5367801Y-10458174D02*
X5348753Y-10448650D01*
X5348753Y-10448650D02*
X5320182Y-10448650D01*
X5320182Y-10448650D02*
X5301134Y-10458174D01*
X5301134Y-10458174D02*
X5291611Y-10467698D01*
X5501134Y-10581984D02*
X5482087Y-10572460D01*
X5482087Y-10572460D02*
X5472563Y-10562936D01*
X5472563Y-10562936D02*
X5463039Y-10543889D01*
X5463039Y-10543889D02*
X5463039Y-10486746D01*
X5463039Y-10486746D02*
X5472563Y-10467698D01*
X5472563Y-10467698D02*
X5482087Y-10458174D01*
X5482087Y-10458174D02*
X5501134Y-10448650D01*
X5501134Y-10448650D02*
X5529706Y-10448650D01*
X5529706Y-10448650D02*
X5548753Y-10458174D01*
X5548753Y-10458174D02*
X5558277Y-10467698D01*
X5558277Y-10467698D02*
X5567801Y-10486746D01*
X5567801Y-10486746D02*
X5567801Y-10543889D01*
X5567801Y-10543889D02*
X5558277Y-10562936D01*
X5558277Y-10562936D02*
X5548753Y-10572460D01*
X5548753Y-10572460D02*
X5529706Y-10581984D01*
X5529706Y-10581984D02*
X5501134Y-10581984D01*
X5682087Y-10581984D02*
X5663039Y-10572460D01*
X5663039Y-10572460D02*
X5653515Y-10553412D01*
X5653515Y-10553412D02*
X5653515Y-10381984D01*
X5834468Y-10572460D02*
X5815420Y-10581984D01*
X5815420Y-10581984D02*
X5777325Y-10581984D01*
X5777325Y-10581984D02*
X5758277Y-10572460D01*
X5758277Y-10572460D02*
X5748753Y-10553412D01*
X5748753Y-10553412D02*
X5748753Y-10477222D01*
X5748753Y-10477222D02*
X5758277Y-10458174D01*
X5758277Y-10458174D02*
X5777325Y-10448650D01*
X5777325Y-10448650D02*
X5815420Y-10448650D01*
X5815420Y-10448650D02*
X5834468Y-10458174D01*
X5834468Y-10458174D02*
X5843991Y-10477222D01*
X5843991Y-10477222D02*
X5843991Y-10496270D01*
X5843991Y-10496270D02*
X5748753Y-10515317D01*
X5920182Y-10572460D02*
X5939230Y-10581984D01*
X5939230Y-10581984D02*
X5977325Y-10581984D01*
X5977325Y-10581984D02*
X5996372Y-10572460D01*
X5996372Y-10572460D02*
X6005896Y-10553412D01*
X6005896Y-10553412D02*
X6005896Y-10543889D01*
X6005896Y-10543889D02*
X5996372Y-10524841D01*
X5996372Y-10524841D02*
X5977325Y-10515317D01*
X5977325Y-10515317D02*
X5948753Y-10515317D01*
X5948753Y-10515317D02*
X5929706Y-10505793D01*
X5929706Y-10505793D02*
X5920182Y-10486746D01*
X5920182Y-10486746D02*
X5920182Y-10477222D01*
X5920182Y-10477222D02*
X5929706Y-10458174D01*
X5929706Y-10458174D02*
X5948753Y-10448650D01*
X5948753Y-10448650D02*
X5977325Y-10448650D01*
X5977325Y-10448650D02*
X5996372Y-10458174D01*
X6072563Y-10658174D02*
X6082087Y-10648650D01*
X6082087Y-10648650D02*
X6101134Y-10620079D01*
X6101134Y-10620079D02*
X6110658Y-10601031D01*
X6110658Y-10601031D02*
X6120182Y-10572460D01*
X6120182Y-10572460D02*
X6129706Y-10524841D01*
X6129706Y-10524841D02*
X6129706Y-10486746D01*
X6129706Y-10486746D02*
X6120182Y-10439127D01*
X6120182Y-10439127D02*
X6110658Y-10410555D01*
X6110658Y-10410555D02*
X6101134Y-10391508D01*
X6101134Y-10391508D02*
X6082087Y-10362936D01*
X6082087Y-10362936D02*
X6072563Y-10353412D01*
M02*
