M48
; DRILL file {KiCad 9.0.1} date 2025-05-15T21:23:40-0700
; FORMAT={-:-/ absolute / metric / decimal}
; #@! TF.CreationDate,2025-05-15T21:23:40-07:00
; #@! TF.GenerationSoftware,Kicad,Pcbnew,9.0.1
; #@! TF.FileFunction,Plated,1,2,PTH
FMAT,2
METRIC
; #@! TA.AperFunction,Plated,PTH,ViaDrill
T1C0.300
; #@! TA.AperFunction,Plated,PTH,ComponentDrill
T2C0.762
; #@! TA.AperFunction,Plated,PTH,ComponentDrill
T3C0.800
; #@! TA.AperFunction,Plated,PTH,ComponentDrill
T4C0.900
; #@! TA.AperFunction,Plated,PTH,ComponentDrill
T5C1.000
; #@! TA.AperFunction,Plated,PTH,ComponentDrill
T6C1.016
; #@! TA.AperFunction,Plated,PTH,ComponentDrill
T7C1.200
; #@! TA.AperFunction,Plated,PTH,ComponentDrill
T8C3.200
%
G90
G05
T1
X18.0Y-27.0
X21.0Y-25.0
X23.0Y-50.0
X29.0Y-29.0
X29.0Y-30.0
X29.0Y-40.0
X29.0Y-50.0
X38.0Y-47.16
X38.0Y-51.0
X48.0Y-58.0
X51.0Y-68.0
X52.0Y-60.64
X53.0Y-59.64
X53.0Y-66.0
X54.0Y-58.64
X64.0Y-44.64
X68.0Y-67.64
X69.0Y-66.64
X70.0Y-41.635
X70.0Y-47.64
X70.0Y-65.64
X72.0Y-68.64
X73.0Y-50.64
X73.005Y-57.64
X73.963Y-38.797
X74.0Y-43.84
X74.0Y-46.64
X74.199Y-42.64
X75.0Y-73.0
X76.0Y-54.0
X78.0Y-36.04
X78.0Y-54.64
X79.0Y-38.64
X79.0Y-40.64
X79.0Y-44.64
X79.0Y-72.0
X79.934Y-50.64
X80.0Y-42.64
X82.999Y-60.639
X84.0Y-42.0
X86.4Y-49.599
X87.0Y-54.0
X87.0Y-57.0
X87.0Y-69.64
X88.0Y-58.0
X93.0Y-48.0
T2
X36.5Y-35.0
X36.5Y-37.54
X36.5Y-40.08
X36.5Y-42.62
T3
X20.84Y-64.0
X31.0Y-64.0
X36.0Y-46.0
X36.0Y-56.16
X36.0Y-58.92
X36.0Y-69.08
X37.097Y-22.287
X37.097Y-24.828
X37.097Y-27.367
X37.097Y-29.907
X75.595Y-33.58
X75.595Y-39.58
X83.215Y-33.58
X83.215Y-39.58
X84.82Y-47.067
X84.82Y-50.218
X84.82Y-53.367
X84.82Y-56.517
X84.82Y-59.667
X84.82Y-62.817
X84.82Y-65.968
X84.82Y-69.117
X84.82Y-72.267
X84.82Y-75.417
X88.0Y-31.92
X88.0Y-42.08
X94.98Y-47.067
X94.98Y-50.218
X94.98Y-53.367
X94.98Y-56.517
X94.98Y-59.667
X94.98Y-62.817
X94.98Y-65.968
X94.98Y-69.117
X94.98Y-72.267
X94.98Y-75.417
T4
X34.73Y-72.165
X37.27Y-72.165
X46.0Y-28.0
X46.0Y-30.54
X46.0Y-33.08
X46.0Y-35.62
X46.0Y-38.16
X46.0Y-40.7
X46.0Y-43.24
X46.0Y-45.78
X46.0Y-48.32
X46.0Y-50.86
X46.0Y-53.4
X46.0Y-55.94
X46.0Y-58.48
X46.0Y-61.02
X46.0Y-63.56
X69.73Y-73.165
X71.4Y-28.0
X71.4Y-30.54
X71.4Y-33.08
X71.4Y-35.62
X71.4Y-38.16
X71.4Y-40.7
X71.4Y-43.24
X71.4Y-45.78
X71.4Y-48.32
X71.4Y-50.86
X71.4Y-53.4
X71.4Y-55.94
X71.4Y-58.48
X71.4Y-61.02
X71.4Y-63.56
X72.27Y-73.165
X81.735Y-44.247
X81.735Y-46.788
X81.735Y-50.258
X81.735Y-52.797
X81.735Y-56.267
X81.735Y-58.807
X81.735Y-62.277
X81.735Y-64.817
X81.735Y-68.287
X81.735Y-70.828
X81.735Y-74.297
X81.735Y-76.837
T5
X16.76Y-20.6
X16.76Y-23.14
X16.76Y-25.68
X16.76Y-28.22
X16.76Y-30.76
X16.76Y-33.3
X16.76Y-35.84
X16.76Y-38.38
X16.76Y-40.92
X16.76Y-43.46
X16.76Y-46.0
X16.76Y-48.54
X16.76Y-51.08
X16.76Y-53.62
X16.76Y-56.16
X22.005Y-68.21
X22.005Y-70.751
X24.545Y-68.21
X24.545Y-70.751
X27.085Y-68.21
X27.085Y-70.751
X29.625Y-68.21
X29.625Y-70.751
X32.0Y-20.6
X32.0Y-23.14
X32.0Y-25.68
X32.0Y-28.22
X32.0Y-30.76
X32.0Y-33.3
X32.0Y-35.84
X32.0Y-38.38
X32.0Y-40.92
X32.0Y-43.46
X32.0Y-46.0
X32.0Y-48.54
X32.0Y-51.08
X32.0Y-53.62
X32.0Y-56.16
X83.615Y-19.0
X85.0Y-21.84
X86.385Y-19.0
X87.77Y-21.84
X89.155Y-19.0
X90.54Y-21.84
X91.925Y-19.0
X93.31Y-21.84
X94.695Y-19.0
X99.21Y-49.375
X99.21Y-51.915
X99.21Y-54.455
X99.21Y-56.995
X101.751Y-49.375
X101.751Y-51.915
X101.751Y-54.455
X101.751Y-56.995
T6
X92.59Y-35.19
X92.59Y-37.73
X92.59Y-40.27
X92.59Y-42.81
X98.59Y-68.19
X98.59Y-70.73
X98.59Y-73.27
X98.59Y-75.81
T7
X49.0Y-77.95
X54.0Y-77.95
X59.0Y-77.95
T8
X76.655Y-20.42
X101.655Y-20.42
M30
