G04 #@! TF.GenerationSoftware,KiCad,Pcbnew,9.0.1*
G04 #@! TF.CreationDate,2025-05-15T21:23:48-07:00*
G04 #@! TF.ProjectId,ARDU_RF_TEMP,41524455-5f52-4465-9f54-454d502e6b69,rev?*
G04 #@! TF.SameCoordinates,Original*
G04 #@! TF.FileFunction,Copper,L2,Bot*
G04 #@! TF.FilePolarity,Positive*
%FSLAX46Y46*%
G04 Gerber Fmt 4.6, Leading zero omitted, Abs format (unit mm)*
G04 Created by KiCad (PCBNEW 9.0.1) date 2025-05-15 21:23:48*
%MOMM*%
%LPD*%
G01*
G04 APERTURE LIST*
G04 Aperture macros list*
%AMRoundRect*
0 Rectangle with rounded corners*
0 $1 Rounding radius*
0 $2 $3 $4 $5 $6 $7 $8 $9 X,Y pos of 4 corners*
0 Add a 4 corners polygon primitive as box body*
4,1,4,$2,$3,$4,$5,$6,$7,$8,$9,$2,$3,0*
0 Add four circle primitives for the rounded corners*
1,1,$1+$1,$2,$3*
1,1,$1+$1,$4,$5*
1,1,$1+$1,$6,$7*
1,1,$1+$1,$8,$9*
0 Add four rect primitives between the rounded corners*
20,1,$1+$1,$2,$3,$4,$5,0*
20,1,$1+$1,$4,$5,$6,$7,0*
20,1,$1+$1,$6,$7,$8,$9,0*
20,1,$1+$1,$8,$9,$2,$3,0*%
G04 Aperture macros list end*
G04 #@! TA.AperFunction,ComponentPad*
%ADD10R,3.000000X3.000000*%
G04 #@! TD*
G04 #@! TA.AperFunction,ComponentPad*
%ADD11C,3.000000*%
G04 #@! TD*
G04 #@! TA.AperFunction,ComponentPad*
%ADD12C,4.000000*%
G04 #@! TD*
G04 #@! TA.AperFunction,ComponentPad*
%ADD13R,1.600000X1.600000*%
G04 #@! TD*
G04 #@! TA.AperFunction,ComponentPad*
%ADD14C,1.600000*%
G04 #@! TD*
G04 #@! TA.AperFunction,ComponentPad*
%ADD15C,1.408000*%
G04 #@! TD*
G04 #@! TA.AperFunction,ComponentPad*
%ADD16O,1.600000X1.600000*%
G04 #@! TD*
G04 #@! TA.AperFunction,ComponentPad*
%ADD17R,1.800000X1.800000*%
G04 #@! TD*
G04 #@! TA.AperFunction,ComponentPad*
%ADD18C,1.800000*%
G04 #@! TD*
G04 #@! TA.AperFunction,ComponentPad*
%ADD19RoundRect,0.250000X-0.550000X-0.550000X0.550000X-0.550000X0.550000X0.550000X-0.550000X0.550000X0*%
G04 #@! TD*
G04 #@! TA.AperFunction,ComponentPad*
%ADD20R,1.500000X1.500000*%
G04 #@! TD*
G04 #@! TA.AperFunction,ComponentPad*
%ADD21C,1.500000*%
G04 #@! TD*
G04 #@! TA.AperFunction,ComponentPad*
%ADD22R,1.524000X1.524000*%
G04 #@! TD*
G04 #@! TA.AperFunction,ComponentPad*
%ADD23C,1.524000*%
G04 #@! TD*
G04 #@! TA.AperFunction,ComponentPad*
%ADD24C,1.270000*%
G04 #@! TD*
G04 #@! TA.AperFunction,ComponentPad*
%ADD25R,1.700000X1.700000*%
G04 #@! TD*
G04 #@! TA.AperFunction,ComponentPad*
%ADD26C,1.700000*%
G04 #@! TD*
G04 #@! TA.AperFunction,ViaPad*
%ADD27C,0.600000*%
G04 #@! TD*
G04 #@! TA.AperFunction,Conductor*
%ADD28C,0.200000*%
G04 #@! TD*
G04 #@! TA.AperFunction,Conductor*
%ADD29C,0.400000*%
G04 #@! TD*
G04 APERTURE END LIST*
D10*
X49000000Y-77950000D03*
D11*
X54000000Y-77950000D03*
X59000000Y-77950000D03*
D12*
X76655000Y-20420000D03*
X101655000Y-20420000D03*
D13*
X83615000Y-19000000D03*
D14*
X86385000Y-19000000D03*
X89155000Y-19000000D03*
X91925000Y-19000000D03*
X94695000Y-19000000D03*
X85000000Y-21840000D03*
X87770000Y-21840000D03*
X90540000Y-21840000D03*
X93310000Y-21840000D03*
D15*
X71400000Y-63560000D03*
X71400000Y-61020000D03*
X71400000Y-58480000D03*
X71400000Y-55940000D03*
X71400000Y-53400000D03*
X71400000Y-50860000D03*
X71400000Y-48320000D03*
X71400000Y-45780000D03*
X71400000Y-43240000D03*
X71400000Y-40700000D03*
X71400000Y-38160000D03*
X71400000Y-35620000D03*
X71400000Y-33080000D03*
X71400000Y-30540000D03*
X71400000Y-28000000D03*
X46000000Y-28000000D03*
X46000000Y-30540000D03*
X46000000Y-33080000D03*
X46000000Y-35620000D03*
X46000000Y-38160000D03*
X46000000Y-40700000D03*
X46000000Y-43240000D03*
X46000000Y-45780000D03*
X46000000Y-48320000D03*
X46000000Y-50860000D03*
X46000000Y-53400000D03*
X46000000Y-55940000D03*
X46000000Y-58480000D03*
X46000000Y-61020000D03*
X46000000Y-63560000D03*
D14*
X84820000Y-47067500D03*
D16*
X94980000Y-47067500D03*
D17*
X81735000Y-62277500D03*
D18*
X81735000Y-64817500D03*
D19*
X75595000Y-33580000D03*
D14*
X83215000Y-33580000D03*
X36000000Y-56160000D03*
D16*
X36000000Y-46000000D03*
D17*
X81735000Y-74297500D03*
D18*
X81735000Y-76837500D03*
D17*
X81735000Y-44247500D03*
D18*
X81735000Y-46787500D03*
D14*
X84820000Y-53367500D03*
D16*
X94980000Y-53367500D03*
D14*
X84820000Y-59667500D03*
D16*
X94980000Y-59667500D03*
D13*
X32000000Y-56160000D03*
D16*
X32000000Y-53620000D03*
X32000000Y-51080000D03*
X32000000Y-48540000D03*
X32000000Y-46000000D03*
X32000000Y-43460000D03*
X32000000Y-40920000D03*
X32000000Y-38380000D03*
X32000000Y-35840000D03*
X32000000Y-33300000D03*
X32000000Y-30760000D03*
X32000000Y-28220000D03*
X32000000Y-25680000D03*
X32000000Y-23140000D03*
X32000000Y-20600000D03*
X16760000Y-20600000D03*
X16760000Y-23140000D03*
X16760000Y-25680000D03*
X16760000Y-28220000D03*
X16760000Y-30760000D03*
X16760000Y-33300000D03*
X16760000Y-35840000D03*
X16760000Y-38380000D03*
X16760000Y-40920000D03*
X16760000Y-43460000D03*
X16760000Y-46000000D03*
X16760000Y-48540000D03*
X16760000Y-51080000D03*
X16760000Y-53620000D03*
X16760000Y-56160000D03*
D20*
X37097500Y-22287500D03*
D21*
X37097500Y-24827500D03*
X37097500Y-27367500D03*
X37097500Y-29907500D03*
D14*
X36000000Y-69080000D03*
D16*
X36000000Y-58920000D03*
D14*
X84820000Y-50217500D03*
D16*
X94980000Y-50217500D03*
D17*
X69730000Y-73165000D03*
D18*
X72270000Y-73165000D03*
D14*
X84820000Y-69117500D03*
D16*
X94980000Y-69117500D03*
D19*
X75595000Y-39580000D03*
D14*
X83215000Y-39580000D03*
D17*
X81735000Y-68287500D03*
D18*
X81735000Y-70827500D03*
D14*
X84820000Y-56517500D03*
D16*
X94980000Y-56517500D03*
D17*
X81735000Y-50257500D03*
D18*
X81735000Y-52797500D03*
D14*
X84820000Y-72267500D03*
D16*
X94980000Y-72267500D03*
D22*
X98589800Y-75810000D03*
D23*
X98589800Y-73270000D03*
X98589800Y-70730000D03*
X98589800Y-68190000D03*
D22*
X92589800Y-42810000D03*
D23*
X92589800Y-40270000D03*
X92589800Y-37730000D03*
X92589800Y-35190000D03*
D17*
X34730000Y-72165000D03*
D18*
X37270000Y-72165000D03*
D17*
X81735000Y-56267500D03*
D18*
X81735000Y-58807500D03*
D24*
X36500000Y-42620000D03*
X36500000Y-40080000D03*
X36500000Y-37540000D03*
X36500000Y-35000000D03*
D14*
X20840000Y-64000000D03*
D16*
X31000000Y-64000000D03*
D14*
X84820000Y-75417500D03*
D16*
X94980000Y-75417500D03*
D25*
X29625000Y-68210500D03*
D26*
X29625000Y-70750500D03*
X27085000Y-68210500D03*
X27085000Y-70750500D03*
X24545000Y-68210500D03*
X24545000Y-70750500D03*
X22005000Y-68210500D03*
X22005000Y-70750500D03*
D14*
X84820000Y-62817500D03*
D16*
X94980000Y-62817500D03*
D14*
X84820000Y-65967500D03*
D16*
X94980000Y-65967500D03*
D25*
X99210500Y-49375000D03*
D26*
X101750500Y-49375000D03*
X99210500Y-51915000D03*
X101750500Y-51915000D03*
X99210500Y-54455000D03*
X101750500Y-54455000D03*
X99210500Y-56995000D03*
X101750500Y-56995000D03*
D14*
X88000000Y-42080000D03*
D16*
X88000000Y-31920000D03*
D27*
X48000000Y-58000000D03*
X84000000Y-42000000D03*
X88000000Y-58000000D03*
X86400000Y-49599000D03*
X51000000Y-68000000D03*
X87000000Y-57000000D03*
X87000000Y-54000000D03*
X93000000Y-48000000D03*
X53000000Y-66000000D03*
X76000000Y-54000000D03*
X29000000Y-50000000D03*
X29000000Y-40000000D03*
X18000000Y-27000000D03*
X23000000Y-50000000D03*
X29000000Y-30000000D03*
X64000000Y-44640000D03*
X74199000Y-42640000D03*
X68000000Y-67640000D03*
X52000000Y-60640000D03*
X53000000Y-59640000D03*
X69000000Y-66640000D03*
X70000000Y-65640000D03*
X54000000Y-58640000D03*
X82999485Y-60639485D03*
X70000000Y-41635000D03*
X78000000Y-54640000D03*
X70000000Y-47640000D03*
X21000000Y-25000000D03*
X29000000Y-29000000D03*
X38000000Y-47160000D03*
X38000000Y-51000000D03*
X74000000Y-46640000D03*
X73000000Y-50640000D03*
X72000000Y-68640000D03*
X74000000Y-43840000D03*
X73005000Y-57640000D03*
X79000000Y-38640000D03*
X73963235Y-38796765D03*
X87000000Y-69640000D03*
X78000000Y-36040000D03*
X80000000Y-42640000D03*
X79000000Y-44640000D03*
X79000000Y-40640000D03*
X79934000Y-50640000D03*
X75000000Y-73000000D03*
X79000000Y-72000000D03*
D28*
X58021000Y-74899000D02*
X58101000Y-74899000D01*
X56920000Y-68560000D02*
X56920000Y-73718000D01*
X56920000Y-73718000D02*
X58101000Y-74899000D01*
X51000000Y-72000000D02*
X51000000Y-72250000D01*
X54000000Y-75000000D02*
X54000000Y-77950000D01*
X51000000Y-72000000D02*
X54000000Y-75000000D01*
X51000000Y-68000000D02*
X51000000Y-72000000D01*
X58101000Y-74899000D02*
X74259000Y-74899000D01*
D29*
X63299000Y-42743706D02*
X63256294Y-42743706D01*
X63256294Y-42743706D02*
X48000000Y-58000000D01*
D28*
X74259000Y-74899000D02*
X74858500Y-75498500D01*
X84000000Y-42000000D02*
X74839000Y-42000000D01*
X74839000Y-42000000D02*
X74199000Y-42640000D01*
X68000000Y-22941000D02*
X85456050Y-22941000D01*
X50401000Y-32806100D02*
X59103550Y-24103550D01*
X68000000Y-22941000D02*
X60266100Y-22941000D01*
X60266100Y-22941000D02*
X59103550Y-24103550D01*
X46000000Y-55940000D02*
X50000000Y-51940000D01*
X50000000Y-32640000D02*
X64741000Y-17899000D01*
X64741000Y-17899000D02*
X85284000Y-17899000D01*
X85284000Y-17899000D02*
X86385000Y-19000000D01*
X50000000Y-51940000D02*
X50000000Y-32640000D01*
X85456050Y-22941000D02*
X86101000Y-22296050D01*
X67941000Y-22941000D02*
X68000000Y-22941000D01*
X86101000Y-22296050D02*
X86101000Y-20922630D01*
X86101000Y-20922630D02*
X88023630Y-19000000D01*
X88023630Y-19000000D02*
X89155000Y-19000000D01*
X86400000Y-36765000D02*
X86400000Y-49599000D01*
X83215000Y-33580000D02*
X86400000Y-36765000D01*
X88000000Y-68640000D02*
X87820000Y-68820000D01*
X88000000Y-58000000D02*
X88000000Y-68640000D01*
X98589800Y-73270000D02*
X97827801Y-74031999D01*
X97827801Y-74031999D02*
X89734499Y-74031999D01*
X89734499Y-74031999D02*
X84820000Y-69117500D01*
X98589800Y-75810000D02*
X97759800Y-76640000D01*
X97759800Y-76640000D02*
X87845500Y-76640000D01*
X87845500Y-76640000D02*
X84820000Y-73614500D01*
X84820000Y-47067500D02*
X83899000Y-47988500D01*
X74401000Y-49239000D02*
X74401000Y-49806100D01*
X72575029Y-51064971D02*
X72405000Y-51235000D01*
X83899000Y-47988500D02*
X75651500Y-47988500D01*
X75651500Y-47988500D02*
X74401000Y-49239000D01*
X72751057Y-51241000D02*
X72575029Y-51064971D01*
X74401000Y-49806100D02*
X73601000Y-50606100D01*
X73601000Y-50606100D02*
X73601000Y-50888943D01*
X73601000Y-50888943D02*
X73248943Y-51241000D01*
X73248943Y-51241000D02*
X72751057Y-51241000D01*
X72405000Y-51235000D02*
X72405000Y-66595000D01*
X72405000Y-66595000D02*
X69730000Y-69270000D01*
X69730000Y-69270000D02*
X69730000Y-73165000D01*
D29*
X71400000Y-28000000D02*
X63299000Y-36101000D01*
X63299000Y-36101000D02*
X63299000Y-42743706D01*
D28*
X86968750Y-66968750D02*
X84820000Y-69117500D01*
X87000000Y-66937500D02*
X86968750Y-66968750D01*
X87000000Y-45859800D02*
X87000000Y-53000000D01*
X92589800Y-40270000D02*
X87000000Y-45859800D01*
X87000000Y-53000000D02*
X87000000Y-54000000D01*
X87000000Y-57000000D02*
X87000000Y-66937500D01*
X94000000Y-48000000D02*
X93000000Y-48000000D01*
X95116500Y-49116500D02*
X94000000Y-48000000D01*
X96412000Y-49116500D02*
X95116500Y-49116500D01*
X99210500Y-51915000D02*
X96412000Y-49116500D01*
X83895450Y-54000000D02*
X84895450Y-55000000D01*
X52000000Y-65000000D02*
X53000000Y-66000000D01*
X76000000Y-54000000D02*
X83895450Y-54000000D01*
X98733740Y-55606000D02*
X100599500Y-55606000D01*
X84895450Y-55000000D02*
X98127740Y-55000000D01*
X98127740Y-55000000D02*
X98733740Y-55606000D01*
X100599500Y-55606000D02*
X101750500Y-54455000D01*
X49380000Y-61020000D02*
X56920000Y-68560000D01*
X46000000Y-63560000D02*
X50560000Y-63560000D01*
X50560000Y-63560000D02*
X52000000Y-65000000D01*
X38000000Y-51000000D02*
X38000000Y-67080000D01*
X38000000Y-67080000D02*
X36000000Y-69080000D01*
X29000000Y-50000000D02*
X29000000Y-40000000D01*
X32000000Y-46000000D02*
X35000000Y-49000000D01*
X35000000Y-49000000D02*
X36849943Y-49000000D01*
X36849943Y-49000000D02*
X39000000Y-51150057D01*
X39000000Y-51150057D02*
X39000000Y-70435000D01*
X39000000Y-70435000D02*
X37270000Y-72165000D01*
D29*
X36500000Y-37540000D02*
X36139000Y-37179000D01*
D28*
X18000000Y-27000000D02*
X24400000Y-20600000D01*
X24400000Y-20600000D02*
X32000000Y-20600000D01*
X29000000Y-29000000D02*
X26000000Y-29000000D01*
X26000000Y-29000000D02*
X22000000Y-33000000D01*
X22000000Y-33000000D02*
X22000000Y-59758700D01*
X22000000Y-59758700D02*
X28236000Y-65994700D01*
X28236000Y-65994700D02*
X28236000Y-69599500D01*
X28236000Y-69599500D02*
X27085000Y-70750500D01*
X32000000Y-28220000D02*
X25780000Y-28220000D01*
X25780000Y-28220000D02*
X21401000Y-32599000D01*
X21401000Y-32599000D02*
X21401000Y-59726800D01*
X21401000Y-59726800D02*
X27085000Y-65410800D01*
X27085000Y-65410800D02*
X27085000Y-68210500D01*
X32000000Y-23140000D02*
X27860000Y-23140000D01*
X21000000Y-59892900D02*
X25696000Y-64588900D01*
X27860000Y-23140000D02*
X21000000Y-30000000D01*
X21000000Y-30000000D02*
X21000000Y-59892900D01*
X25696000Y-64588900D02*
X25696000Y-69599500D01*
X25696000Y-69599500D02*
X24545000Y-70750500D01*
X21000000Y-25000000D02*
X20401000Y-25599000D01*
X20401000Y-25599000D02*
X20401000Y-59861000D01*
X20401000Y-59861000D02*
X24000000Y-63460000D01*
X24000000Y-63460000D02*
X24000000Y-67665500D01*
X24000000Y-67665500D02*
X24545000Y-68210500D01*
D29*
X20860000Y-23140000D02*
X26000000Y-18000000D01*
X34000000Y-18000000D02*
X37097500Y-21097500D01*
X23000000Y-50000000D02*
X23000000Y-33000000D01*
X37287500Y-22287500D02*
X37097500Y-22287500D01*
X26000000Y-18000000D02*
X34000000Y-18000000D01*
X39000000Y-30000000D02*
X39000000Y-24000000D01*
X23000000Y-33000000D02*
X24039000Y-31961000D01*
X39000000Y-24000000D02*
X37287500Y-22287500D01*
X24039000Y-31961000D02*
X37039000Y-31961000D01*
X16760000Y-23140000D02*
X20860000Y-23140000D01*
X37097500Y-21097500D02*
X37097500Y-22287500D01*
X37039000Y-31961000D02*
X39000000Y-30000000D01*
D28*
X29000000Y-30000000D02*
X29341000Y-29659000D01*
X34741000Y-27184000D02*
X37097500Y-24827500D01*
X29341000Y-29659000D02*
X34741000Y-29659000D01*
X34741000Y-29659000D02*
X34741000Y-27184000D01*
X49380000Y-59260000D02*
X49380000Y-61020000D01*
X82936000Y-75498500D02*
X74858500Y-75498500D01*
X64000000Y-44640000D02*
X49380000Y-59260000D01*
X84820000Y-73614500D02*
X82936000Y-75498500D01*
X84820000Y-72267500D02*
X84820000Y-73614500D01*
X74000000Y-42441000D02*
X74199000Y-42640000D01*
X49380000Y-61020000D02*
X46000000Y-61020000D01*
X52000000Y-60640000D02*
X59000000Y-67640000D01*
X59000000Y-67640000D02*
X68000000Y-67640000D01*
X86969000Y-66968500D02*
X86968750Y-66968750D01*
X82936000Y-67851500D02*
X82936000Y-73096500D01*
X84820000Y-65967500D02*
X82936000Y-67851500D01*
X82936000Y-73096500D02*
X81735000Y-74297500D01*
X81735000Y-68287500D02*
X81735000Y-66905000D01*
X84820000Y-63820000D02*
X84820000Y-62817500D01*
X81735000Y-66905000D02*
X84820000Y-63820000D01*
X82210000Y-62277500D02*
X81735000Y-62277500D01*
X84820000Y-59667500D02*
X82210000Y-62277500D01*
X81985000Y-56517500D02*
X81735000Y-56267500D01*
X84820000Y-56517500D02*
X81985000Y-56517500D01*
X85821000Y-49216500D02*
X85821000Y-46652872D01*
X84820000Y-50217500D02*
X85821000Y-49216500D01*
X83415628Y-44247500D02*
X81735000Y-44247500D01*
X85821000Y-46652872D02*
X83415628Y-44247500D01*
X84820000Y-53367500D02*
X81735000Y-50282500D01*
X81735000Y-50282500D02*
X81735000Y-50257500D01*
X53000000Y-59640000D02*
X53000000Y-61072900D01*
X53000000Y-61072900D02*
X58567100Y-66640000D01*
X58567100Y-66640000D02*
X69000000Y-66640000D01*
X54000000Y-58640000D02*
X54000000Y-61505800D01*
X54000000Y-61505800D02*
X58134200Y-65640000D01*
X58134200Y-65640000D02*
X70000000Y-65640000D01*
X70000000Y-41635000D02*
X70000000Y-47640000D01*
X78000000Y-56770971D02*
X81868514Y-60639485D01*
X78000000Y-54640000D02*
X78000000Y-56770971D01*
X81868514Y-60639485D02*
X82999485Y-60639485D01*
X38000000Y-44120000D02*
X36500000Y-42620000D01*
X38000000Y-47160000D02*
X38000000Y-44120000D01*
X39000000Y-42580000D02*
X39000000Y-49040000D01*
X36500000Y-40080000D02*
X39000000Y-42580000D01*
X73000000Y-50640000D02*
X74000000Y-49640000D01*
X73599000Y-43439000D02*
X73599000Y-41640000D01*
X73599000Y-41640000D02*
X73599000Y-39161000D01*
X73599000Y-39161000D02*
X73963235Y-38796765D01*
X74000000Y-49640000D02*
X74000000Y-46640000D01*
X79000000Y-38640000D02*
X79940000Y-39580000D01*
X73005000Y-67635000D02*
X73005000Y-57640000D01*
X74000000Y-43840000D02*
X73599000Y-43439000D01*
X72000000Y-68640000D02*
X73005000Y-67635000D01*
X79940000Y-39580000D02*
X83215000Y-39580000D01*
X87820000Y-68820000D02*
X87000000Y-69640000D01*
X79000000Y-40640000D02*
X78000000Y-39640000D01*
X80000000Y-42640000D02*
X79000000Y-43640000D01*
X78000000Y-39640000D02*
X78000000Y-36040000D01*
X79000000Y-43640000D02*
X79000000Y-44640000D01*
X79934000Y-50996500D02*
X81735000Y-52797500D01*
X79934000Y-50640000D02*
X79934000Y-50996500D01*
X71400000Y-45780000D02*
X80727500Y-45780000D01*
X80727500Y-45780000D02*
X81735000Y-46787500D01*
X71400000Y-33080000D02*
X75095000Y-33080000D01*
X75095000Y-33080000D02*
X75595000Y-33580000D01*
X74175000Y-38160000D02*
X75595000Y-39580000D01*
X71400000Y-38160000D02*
X74175000Y-38160000D01*
D29*
X78000000Y-73000000D02*
X79000000Y-72000000D01*
X75000000Y-73000000D02*
X78000000Y-73000000D01*
D28*
X46000000Y-58480000D02*
X50000000Y-54480000D01*
X50000000Y-54480000D02*
X50000000Y-52507100D01*
X50000000Y-52507100D02*
X50401000Y-52106100D01*
X50401000Y-52106100D02*
X50401000Y-32806100D01*
G04 #@! TA.AperFunction,Conductor*
G36*
X104442539Y-12520185D02*
G01*
X104488294Y-12572989D01*
X104499500Y-12624500D01*
X104499500Y-14623575D01*
X104479815Y-14690614D01*
X104427011Y-14736369D01*
X104357853Y-14746313D01*
X104294297Y-14717288D01*
X104257569Y-14661894D01*
X104205218Y-14500776D01*
X104171503Y-14434607D01*
X104112287Y-14318390D01*
X104104556Y-14307749D01*
X103991971Y-14152786D01*
X103847213Y-14008028D01*
X103681613Y-13887715D01*
X103681612Y-13887714D01*
X103681610Y-13887713D01*
X103597681Y-13844949D01*
X103499223Y-13794781D01*
X103304534Y-13731522D01*
X103129995Y-13703878D01*
X103102352Y-13699500D01*
X102897648Y-13699500D01*
X102873329Y-13703351D01*
X102695465Y-13731522D01*
X102500776Y-13794781D01*
X102318386Y-13887715D01*
X102152786Y-14008028D01*
X102008028Y-14152786D01*
X101887715Y-14318386D01*
X101794781Y-14500776D01*
X101731522Y-14695465D01*
X101699500Y-14897648D01*
X101699500Y-15102351D01*
X101731522Y-15304534D01*
X101794781Y-15499223D01*
X101887715Y-15681613D01*
X102008028Y-15847213D01*
X102152786Y-15991971D01*
X102307749Y-16104556D01*
X102318390Y-16112287D01*
X102402319Y-16155051D01*
X102500776Y-16205218D01*
X102500778Y-16205218D01*
X102500781Y-16205220D01*
X102605137Y-16239127D01*
X102695465Y-16268477D01*
X102796557Y-16284488D01*
X102897648Y-16300500D01*
X102897649Y-16300500D01*
X103102351Y-16300500D01*
X103102352Y-16300500D01*
X103304534Y-16268477D01*
X103499219Y-16205220D01*
X103681610Y-16112287D01*
X103794726Y-16030104D01*
X103847213Y-15991971D01*
X103847215Y-15991968D01*
X103847219Y-15991966D01*
X103991966Y-15847219D01*
X103991968Y-15847215D01*
X103991971Y-15847213D01*
X104093247Y-15707816D01*
X104112287Y-15681610D01*
X104205220Y-15499219D01*
X104257569Y-15338106D01*
X104297007Y-15280430D01*
X104361365Y-15253232D01*
X104430212Y-15265147D01*
X104481687Y-15312391D01*
X104499500Y-15376424D01*
X104499500Y-77623575D01*
X104479815Y-77690614D01*
X104427011Y-77736369D01*
X104357853Y-77746313D01*
X104294297Y-77717288D01*
X104257569Y-77661894D01*
X104205218Y-77500776D01*
X104141185Y-77375106D01*
X104112287Y-77318390D01*
X104055698Y-77240501D01*
X103991971Y-77152786D01*
X103847213Y-77008028D01*
X103681613Y-76887715D01*
X103681612Y-76887714D01*
X103681610Y-76887713D01*
X103581066Y-76836483D01*
X103499223Y-76794781D01*
X103304534Y-76731522D01*
X103129995Y-76703878D01*
X103102352Y-76699500D01*
X102897648Y-76699500D01*
X102873329Y-76703351D01*
X102695465Y-76731522D01*
X102500776Y-76794781D01*
X102318386Y-76887715D01*
X102152786Y-77008028D01*
X102008028Y-77152786D01*
X101887715Y-77318386D01*
X101794781Y-77500776D01*
X101731522Y-77695465D01*
X101699500Y-77897648D01*
X101699500Y-78102351D01*
X101731522Y-78304534D01*
X101794781Y-78499223D01*
X101887715Y-78681613D01*
X102008028Y-78847213D01*
X102152786Y-78991971D01*
X102307749Y-79104556D01*
X102318390Y-79112287D01*
X102434607Y-79171503D01*
X102500776Y-79205218D01*
X102500778Y-79205218D01*
X102500781Y-79205220D01*
X102604881Y-79239044D01*
X102661894Y-79257569D01*
X102719569Y-79297007D01*
X102746767Y-79361366D01*
X102734852Y-79430212D01*
X102687608Y-79481688D01*
X102623575Y-79499500D01*
X60247309Y-79499500D01*
X60180270Y-79479815D01*
X60159628Y-79463181D01*
X59211059Y-78514612D01*
X59231591Y-78509111D01*
X59368408Y-78430119D01*
X59480119Y-78318408D01*
X59559111Y-78181591D01*
X59564612Y-78161059D01*
X60579917Y-79176365D01*
X60579919Y-79176365D01*
X60666499Y-79063534D01*
X60666511Y-79063516D01*
X60797590Y-78836482D01*
X60797595Y-78836471D01*
X60897924Y-78594255D01*
X60965777Y-78341020D01*
X60965779Y-78341009D01*
X60999999Y-78081094D01*
X61000000Y-78081080D01*
X61000000Y-77818919D01*
X60999999Y-77818905D01*
X60965779Y-77558990D01*
X60965777Y-77558979D01*
X60897924Y-77305744D01*
X60797595Y-77063528D01*
X60797590Y-77063517D01*
X60666511Y-76836483D01*
X60666505Y-76836475D01*
X60579918Y-76723633D01*
X60579917Y-76723633D01*
X59564612Y-77738939D01*
X59559111Y-77718409D01*
X59480119Y-77581592D01*
X59368408Y-77469881D01*
X59231591Y-77390889D01*
X59211057Y-77385387D01*
X60226365Y-76370080D01*
X60113524Y-76283494D01*
X60113516Y-76283488D01*
X59886482Y-76152409D01*
X59886471Y-76152404D01*
X59644255Y-76052075D01*
X59391020Y-75984222D01*
X59391009Y-75984220D01*
X59131094Y-75950000D01*
X58868905Y-75950000D01*
X58608990Y-75984220D01*
X58608979Y-75984222D01*
X58355744Y-76052075D01*
X58113528Y-76152404D01*
X58113517Y-76152409D01*
X57886471Y-76283496D01*
X57773633Y-76370079D01*
X57773633Y-76370080D01*
X58788940Y-77385387D01*
X58768409Y-77390889D01*
X58631592Y-77469881D01*
X58519881Y-77581592D01*
X58440889Y-77718409D01*
X58435387Y-77738940D01*
X57420080Y-76723633D01*
X57420079Y-76723633D01*
X57333496Y-76836471D01*
X57202409Y-77063517D01*
X57202404Y-77063528D01*
X57102075Y-77305744D01*
X57034222Y-77558979D01*
X57034220Y-77558990D01*
X57000000Y-77818905D01*
X57000000Y-78081094D01*
X57034220Y-78341009D01*
X57034222Y-78341020D01*
X57102075Y-78594255D01*
X57202404Y-78836471D01*
X57202409Y-78836482D01*
X57333488Y-79063516D01*
X57333494Y-79063524D01*
X57420080Y-79176365D01*
X58435387Y-78161058D01*
X58440889Y-78181591D01*
X58519881Y-78318408D01*
X58631592Y-78430119D01*
X58768409Y-78509111D01*
X58788940Y-78514612D01*
X57840372Y-79463181D01*
X57779049Y-79496666D01*
X57752691Y-79499500D01*
X55578996Y-79499500D01*
X55511957Y-79479815D01*
X55466202Y-79427011D01*
X55456258Y-79357853D01*
X55485283Y-79294297D01*
X55491315Y-79287819D01*
X55507274Y-79271860D01*
X55507277Y-79271855D01*
X55507282Y-79271851D01*
X55666924Y-79063803D01*
X55798043Y-78836697D01*
X55898398Y-78594419D01*
X55966270Y-78341116D01*
X56000500Y-78081120D01*
X56000500Y-77818880D01*
X55966270Y-77558884D01*
X55898398Y-77305581D01*
X55854490Y-77199577D01*
X55798046Y-77063309D01*
X55798041Y-77063299D01*
X55666924Y-76836196D01*
X55507281Y-76628148D01*
X55507274Y-76628140D01*
X55321860Y-76442726D01*
X55321851Y-76442718D01*
X55113803Y-76283075D01*
X54886700Y-76151958D01*
X54886690Y-76151954D01*
X54677047Y-76065117D01*
X54622644Y-76021276D01*
X54600579Y-75954982D01*
X54600500Y-75950556D01*
X54600500Y-75089060D01*
X54600501Y-75089047D01*
X54600501Y-74920944D01*
X54600501Y-74920943D01*
X54559577Y-74768216D01*
X54521080Y-74701536D01*
X54480524Y-74631290D01*
X54480518Y-74631282D01*
X51636819Y-71787583D01*
X51603334Y-71726260D01*
X51600500Y-71699902D01*
X51600500Y-68579765D01*
X51620185Y-68512726D01*
X51621398Y-68510874D01*
X51709390Y-68379185D01*
X51709390Y-68379184D01*
X51709394Y-68379179D01*
X51709537Y-68378835D01*
X51746370Y-68289910D01*
X51769737Y-68233497D01*
X51800500Y-68078842D01*
X51800500Y-67921158D01*
X51800500Y-67921155D01*
X51800499Y-67921153D01*
X51791020Y-67873501D01*
X51769737Y-67766503D01*
X51749996Y-67718844D01*
X51709397Y-67620827D01*
X51709390Y-67620814D01*
X51621789Y-67489711D01*
X51621786Y-67489707D01*
X51510292Y-67378213D01*
X51510288Y-67378210D01*
X51379185Y-67290609D01*
X51379172Y-67290602D01*
X51233501Y-67230264D01*
X51233489Y-67230261D01*
X51078845Y-67199500D01*
X51078842Y-67199500D01*
X50921158Y-67199500D01*
X50921155Y-67199500D01*
X50766510Y-67230261D01*
X50766498Y-67230264D01*
X50620827Y-67290602D01*
X50620814Y-67290609D01*
X50489711Y-67378210D01*
X50489707Y-67378213D01*
X50378213Y-67489707D01*
X50378210Y-67489711D01*
X50290609Y-67620814D01*
X50290602Y-67620827D01*
X50230264Y-67766498D01*
X50230261Y-67766510D01*
X50199500Y-67921153D01*
X50199500Y-68078846D01*
X50230261Y-68233489D01*
X50230264Y-68233501D01*
X50290602Y-68379172D01*
X50290609Y-68379185D01*
X50378602Y-68510874D01*
X50399480Y-68577551D01*
X50399500Y-68579765D01*
X50399500Y-71920939D01*
X50399499Y-71920943D01*
X50399499Y-72079057D01*
X50399500Y-72079060D01*
X50399500Y-72329057D01*
X50439191Y-72477184D01*
X50440423Y-72481783D01*
X50440426Y-72481790D01*
X50519475Y-72618709D01*
X50519479Y-72618714D01*
X50519480Y-72618716D01*
X50631284Y-72730520D01*
X50631286Y-72730521D01*
X50631290Y-72730524D01*
X50726284Y-72785368D01*
X50768216Y-72809577D01*
X50920943Y-72850500D01*
X50949903Y-72850500D01*
X51016942Y-72870185D01*
X51037584Y-72886819D01*
X53363181Y-75212416D01*
X53396666Y-75273739D01*
X53399500Y-75300097D01*
X53399500Y-75950556D01*
X53379815Y-76017595D01*
X53327011Y-76063350D01*
X53322953Y-76065117D01*
X53113309Y-76151954D01*
X53113299Y-76151958D01*
X52886196Y-76283075D01*
X52678148Y-76442718D01*
X52492718Y-76628148D01*
X52333075Y-76836196D01*
X52201958Y-77063299D01*
X52201953Y-77063309D01*
X52101605Y-77305571D01*
X52101602Y-77305581D01*
X52033730Y-77558884D01*
X52033716Y-77558990D01*
X51999500Y-77818872D01*
X51999500Y-78081127D01*
X52023728Y-78265147D01*
X52033730Y-78341116D01*
X52078744Y-78509111D01*
X52101602Y-78594418D01*
X52101605Y-78594428D01*
X52201953Y-78836690D01*
X52201958Y-78836700D01*
X52333075Y-79063803D01*
X52492718Y-79271851D01*
X52492726Y-79271860D01*
X52508685Y-79287819D01*
X52542170Y-79349142D01*
X52537186Y-79418834D01*
X52495314Y-79474767D01*
X52429850Y-79499184D01*
X52421004Y-79499500D01*
X51124500Y-79499500D01*
X51057461Y-79479815D01*
X51011706Y-79427011D01*
X51000500Y-79375500D01*
X51000499Y-76402129D01*
X51000498Y-76402123D01*
X51000497Y-76402116D01*
X50994091Y-76342517D01*
X50985092Y-76318390D01*
X50943797Y-76207671D01*
X50943793Y-76207664D01*
X50857547Y-76092455D01*
X50857544Y-76092452D01*
X50742335Y-76006206D01*
X50742328Y-76006202D01*
X50607482Y-75955908D01*
X50607483Y-75955908D01*
X50547883Y-75949501D01*
X50547881Y-75949500D01*
X50547873Y-75949500D01*
X50547864Y-75949500D01*
X47452129Y-75949500D01*
X47452123Y-75949501D01*
X47392516Y-75955908D01*
X47257671Y-76006202D01*
X47257664Y-76006206D01*
X47142455Y-76092452D01*
X47142452Y-76092455D01*
X47056206Y-76207664D01*
X47056202Y-76207671D01*
X47005908Y-76342517D01*
X46999501Y-76402116D01*
X46999500Y-76402127D01*
X46999500Y-77949999D01*
X46999501Y-79375500D01*
X46979816Y-79442539D01*
X46927012Y-79488294D01*
X46875501Y-79499500D01*
X44124000Y-79499500D01*
X44056961Y-79479815D01*
X44011206Y-79427011D01*
X44000000Y-79375500D01*
X44000000Y-35714799D01*
X44795499Y-35714799D01*
X44824305Y-35896672D01*
X44825158Y-35902055D01*
X44844361Y-35961155D01*
X44883747Y-36082372D01*
X44969819Y-36251296D01*
X45081259Y-36404679D01*
X45215321Y-36538741D01*
X45368704Y-36650181D01*
X45438887Y-36685941D01*
X45537627Y-36736252D01*
X45537629Y-36736252D01*
X45537632Y-36736254D01*
X45647860Y-36772069D01*
X45705534Y-36811507D01*
X45732732Y-36875866D01*
X45720817Y-36944712D01*
X45673573Y-36996188D01*
X45647861Y-37007929D01*
X45605838Y-37021583D01*
X45537627Y-37043747D01*
X45368703Y-37129819D01*
X45215319Y-37241260D01*
X45081260Y-37375319D01*
X44969819Y-37528703D01*
X44883747Y-37697627D01*
X44851020Y-37798352D01*
X44825987Y-37875396D01*
X44825157Y-37877949D01*
X44795500Y-38065199D01*
X44795500Y-38254800D01*
X44809816Y-38345186D01*
X44825158Y-38442055D01*
X44833495Y-38467713D01*
X44883747Y-38622372D01*
X44958433Y-38768949D01*
X44969819Y-38791296D01*
X45081259Y-38944679D01*
X45215321Y-39078741D01*
X45368704Y-39190181D01*
X45448515Y-39230846D01*
X45537627Y-39276252D01*
X45537629Y-39276252D01*
X45537632Y-39276254D01*
X45647860Y-39312069D01*
X45705534Y-39351507D01*
X45732732Y-39415866D01*
X45720817Y-39484712D01*
X45673573Y-39536188D01*
X45647861Y-39547929D01*
X45607824Y-39560939D01*
X45537627Y-39583747D01*
X45368703Y-39669819D01*
X45215319Y-39781260D01*
X45081260Y-39915319D01*
X44969819Y-40068703D01*
X44883747Y-40237627D01*
X44825157Y-40417949D01*
X44795500Y-40605199D01*
X44795500Y-40794800D01*
X44822887Y-40967715D01*
X44825158Y-40982055D01*
X44851550Y-41063280D01*
X44883747Y-41162372D01*
X44932398Y-41257853D01*
X44969819Y-41331296D01*
X45081259Y-41484679D01*
X45215321Y-41618741D01*
X45368704Y-41730181D01*
X45439980Y-41766498D01*
X45537627Y-41816252D01*
X45537629Y-41816252D01*
X45537632Y-41816254D01*
X45647860Y-41852069D01*
X45705534Y-41891507D01*
X45732732Y-41955866D01*
X45720817Y-42024712D01*
X45673573Y-42076188D01*
X45647861Y-42087929D01*
X45605838Y-42101583D01*
X45537627Y-42123747D01*
X45368703Y-42209819D01*
X45215319Y-42321260D01*
X45081260Y-42455319D01*
X44969819Y-42608703D01*
X44883747Y-42777627D01*
X44859124Y-42853409D01*
X44828379Y-42948034D01*
X44825157Y-42957949D01*
X44795500Y-43145199D01*
X44795500Y-43334796D01*
X44795499Y-43334799D01*
X44824524Y-43518054D01*
X44825158Y-43522055D01*
X44883746Y-43702368D01*
X44969819Y-43871296D01*
X45081259Y-44024679D01*
X45215321Y-44158741D01*
X45368704Y-44270181D01*
X45448515Y-44310846D01*
X45537627Y-44356252D01*
X45537629Y-44356252D01*
X45537632Y-44356254D01*
X45647860Y-44392069D01*
X45705534Y-44431507D01*
X45732732Y-44495866D01*
X45720817Y-44564712D01*
X45673573Y-44616188D01*
X45647861Y-44627929D01*
X45609178Y-44640499D01*
X45537627Y-44663747D01*
X45368703Y-44749819D01*
X45215319Y-44861260D01*
X45081260Y-44995319D01*
X44969819Y-45148703D01*
X44883747Y-45317627D01*
X44844153Y-45439482D01*
X44830088Y-45482774D01*
X44825157Y-45497949D01*
X44795500Y-45685199D01*
X44795500Y-45874800D01*
X44825157Y-46062050D01*
X44825158Y-46062055D01*
X44856949Y-46159896D01*
X44883747Y-46242372D01*
X44954218Y-46380678D01*
X44969819Y-46411296D01*
X45081259Y-46564679D01*
X45215321Y-46698741D01*
X45368704Y-46810181D01*
X45448515Y-46850846D01*
X45537627Y-46896252D01*
X45537629Y-46896252D01*
X45537632Y-46896254D01*
X45647860Y-46932069D01*
X45705534Y-46971507D01*
X45732732Y-47035866D01*
X45720817Y-47104712D01*
X45673573Y-47156188D01*
X45647861Y-47167929D01*
X45605838Y-47181583D01*
X45537627Y-47203747D01*
X45368703Y-47289819D01*
X45215319Y-47401260D01*
X45081260Y-47535319D01*
X44969819Y-47688703D01*
X44883747Y-47857627D01*
X44863105Y-47921158D01*
X44827285Y-48031401D01*
X44825157Y-48037949D01*
X44795500Y-48225199D01*
X44795500Y-48414800D01*
X44823539Y-48591834D01*
X44825158Y-48602055D01*
X44846320Y-48667184D01*
X44883747Y-48782372D01*
X44948306Y-48909075D01*
X44969819Y-48951296D01*
X45081259Y-49104679D01*
X45215321Y-49238741D01*
X45368704Y-49350181D01*
X45417414Y-49375000D01*
X45537627Y-49436252D01*
X45537629Y-49436252D01*
X45537632Y-49436254D01*
X45647860Y-49472069D01*
X45705534Y-49511507D01*
X45732732Y-49575866D01*
X45720817Y-49644712D01*
X45673573Y-49696188D01*
X45647861Y-49707929D01*
X45619947Y-49717000D01*
X45537627Y-49743747D01*
X45368703Y-49829819D01*
X45215319Y-49941260D01*
X45081260Y-50075319D01*
X44969819Y-50228703D01*
X44883747Y-50397627D01*
X44861176Y-50467093D01*
X44830613Y-50561158D01*
X44825157Y-50577949D01*
X44795500Y-50765199D01*
X44795500Y-50954800D01*
X44825157Y-51142050D01*
X44825158Y-51142055D01*
X44847063Y-51209471D01*
X44883747Y-51322372D01*
X44966145Y-51484085D01*
X44969819Y-51491296D01*
X45081259Y-51644679D01*
X45215321Y-51778741D01*
X45368704Y-51890181D01*
X45434709Y-51923812D01*
X45537627Y-51976252D01*
X45537629Y-51976252D01*
X45537632Y-51976254D01*
X45647860Y-52012069D01*
X45705534Y-52051507D01*
X45732732Y-52115866D01*
X45720817Y-52184712D01*
X45673573Y-52236188D01*
X45647861Y-52247929D01*
X45605838Y-52261583D01*
X45537627Y-52283747D01*
X45368703Y-52369819D01*
X45215319Y-52481260D01*
X45081260Y-52615319D01*
X44969819Y-52768703D01*
X44883747Y-52937627D01*
X44825157Y-53117949D01*
X44795500Y-53305199D01*
X44795500Y-53494800D01*
X44823571Y-53672034D01*
X44825158Y-53682055D01*
X44852921Y-53767500D01*
X44883747Y-53862372D01*
X44950484Y-53993349D01*
X44969819Y-54031296D01*
X45081259Y-54184679D01*
X45215321Y-54318741D01*
X45368704Y-54430181D01*
X45448515Y-54470846D01*
X45537627Y-54516252D01*
X45537629Y-54516252D01*
X45537632Y-54516254D01*
X45647860Y-54552069D01*
X45705534Y-54591507D01*
X45732732Y-54655866D01*
X45720817Y-54724712D01*
X45673573Y-54776188D01*
X45647861Y-54787929D01*
X45609178Y-54800499D01*
X45537627Y-54823747D01*
X45368703Y-54909819D01*
X45215319Y-55021260D01*
X45081260Y-55155319D01*
X44969819Y-55308703D01*
X44883747Y-55477627D01*
X44868183Y-55525528D01*
X44832023Y-55636819D01*
X44825157Y-55657949D01*
X44795500Y-55845199D01*
X44795500Y-56034800D01*
X44823718Y-56212965D01*
X44825158Y-56222055D01*
X44846320Y-56287184D01*
X44883747Y-56402372D01*
X44950484Y-56533349D01*
X44969819Y-56571296D01*
X45081259Y-56724679D01*
X45215321Y-56858741D01*
X45368704Y-56970181D01*
X45432636Y-57002756D01*
X45537627Y-57056252D01*
X45537629Y-57056252D01*
X45537632Y-57056254D01*
X45647860Y-57092069D01*
X45705534Y-57131507D01*
X45732732Y-57195866D01*
X45720817Y-57264712D01*
X45673573Y-57316188D01*
X45647861Y-57327929D01*
X45605838Y-57341583D01*
X45537627Y-57363747D01*
X45368703Y-57449819D01*
X45215319Y-57561260D01*
X45081260Y-57695319D01*
X44969819Y-57848703D01*
X44883747Y-58017627D01*
X44863856Y-58078846D01*
X44826251Y-58194583D01*
X44825157Y-58197949D01*
X44795500Y-58385199D01*
X44795500Y-58574800D01*
X44825157Y-58762049D01*
X44825158Y-58762055D01*
X44864750Y-58883905D01*
X44883747Y-58942372D01*
X44922883Y-59019179D01*
X44969819Y-59111296D01*
X45081259Y-59264679D01*
X45215321Y-59398741D01*
X45368704Y-59510181D01*
X45430214Y-59541522D01*
X45537627Y-59596252D01*
X45537629Y-59596252D01*
X45537632Y-59596254D01*
X45647860Y-59632069D01*
X45705534Y-59671507D01*
X45732732Y-59735866D01*
X45720817Y-59804712D01*
X45673573Y-59856188D01*
X45647861Y-59867929D01*
X45605838Y-59881583D01*
X45537627Y-59903747D01*
X45368703Y-59989819D01*
X45215319Y-60101260D01*
X45081260Y-60235319D01*
X44969819Y-60388703D01*
X44883747Y-60557627D01*
X44825157Y-60737949D01*
X44795500Y-60925199D01*
X44795500Y-61114800D01*
X44825157Y-61302050D01*
X44825158Y-61302055D01*
X44860147Y-61409738D01*
X44883747Y-61482372D01*
X44958433Y-61628949D01*
X44969819Y-61651296D01*
X45081259Y-61804679D01*
X45215321Y-61938741D01*
X45368704Y-62050181D01*
X45448515Y-62090846D01*
X45537627Y-62136252D01*
X45537629Y-62136252D01*
X45537632Y-62136254D01*
X45647860Y-62172069D01*
X45705534Y-62211507D01*
X45732732Y-62275866D01*
X45720817Y-62344712D01*
X45673573Y-62396188D01*
X45647861Y-62407929D01*
X45618408Y-62417500D01*
X45537627Y-62443747D01*
X45368703Y-62529819D01*
X45215319Y-62641260D01*
X45081260Y-62775319D01*
X44969819Y-62928703D01*
X44883747Y-63097627D01*
X44825157Y-63277949D01*
X44795500Y-63465199D01*
X44795500Y-63654800D01*
X44825157Y-63842050D01*
X44825158Y-63842055D01*
X44845654Y-63905135D01*
X44883747Y-64022372D01*
X44958433Y-64168949D01*
X44969819Y-64191296D01*
X45081259Y-64344679D01*
X45215321Y-64478741D01*
X45368704Y-64590181D01*
X45430497Y-64621666D01*
X45537627Y-64676252D01*
X45537629Y-64676252D01*
X45537632Y-64676254D01*
X45717945Y-64734842D01*
X45795430Y-64747114D01*
X45905200Y-64764500D01*
X45905204Y-64764500D01*
X46094800Y-64764500D01*
X46178022Y-64751318D01*
X46282055Y-64734842D01*
X46462368Y-64676254D01*
X46631296Y-64590181D01*
X46784679Y-64478741D01*
X46918741Y-64344679D01*
X47015419Y-64211613D01*
X47070750Y-64168949D01*
X47115737Y-64160500D01*
X50259903Y-64160500D01*
X50326942Y-64180185D01*
X50347583Y-64196818D01*
X51005977Y-64855213D01*
X51638349Y-65487585D01*
X51638355Y-65487590D01*
X52165425Y-66014660D01*
X52198910Y-66075983D01*
X52199361Y-66078149D01*
X52230261Y-66233491D01*
X52230264Y-66233501D01*
X52290602Y-66379172D01*
X52290609Y-66379185D01*
X52378210Y-66510288D01*
X52378213Y-66510292D01*
X52489707Y-66621786D01*
X52489711Y-66621789D01*
X52620814Y-66709390D01*
X52620827Y-66709397D01*
X52766498Y-66769735D01*
X52766503Y-66769737D01*
X52921153Y-66800499D01*
X52921156Y-66800500D01*
X52921158Y-66800500D01*
X53078844Y-66800500D01*
X53078845Y-66800499D01*
X53233497Y-66769737D01*
X53379179Y-66709394D01*
X53510289Y-66621789D01*
X53621789Y-66510289D01*
X53697769Y-66396576D01*
X53751381Y-66351772D01*
X53820706Y-66343065D01*
X53883733Y-66373219D01*
X53888552Y-66377787D01*
X56283181Y-68772416D01*
X56316666Y-68833739D01*
X56319500Y-68860097D01*
X56319500Y-73631330D01*
X56319499Y-73631348D01*
X56319499Y-73638943D01*
X56319499Y-73797057D01*
X56320422Y-73800500D01*
X56360422Y-73949783D01*
X56362247Y-73952944D01*
X56362246Y-73952944D01*
X56362250Y-73952949D01*
X56439477Y-74086712D01*
X56439481Y-74086717D01*
X56558349Y-74205585D01*
X56558355Y-74205590D01*
X57429829Y-75077064D01*
X57456859Y-75123876D01*
X57458313Y-75123275D01*
X57461422Y-75130780D01*
X57461423Y-75130784D01*
X57461424Y-75130787D01*
X57461426Y-75130790D01*
X57540475Y-75267709D01*
X57540479Y-75267714D01*
X57540480Y-75267716D01*
X57652284Y-75379520D01*
X57652286Y-75379521D01*
X57652290Y-75379524D01*
X57789209Y-75458573D01*
X57789216Y-75458577D01*
X57941943Y-75499500D01*
X58021942Y-75499500D01*
X58021943Y-75499500D01*
X64626653Y-75499500D01*
X64693692Y-75519185D01*
X64739447Y-75571989D01*
X64749391Y-75641147D01*
X64720366Y-75704703D01*
X64664972Y-75741431D01*
X64500776Y-75794781D01*
X64318386Y-75887715D01*
X64152786Y-76008028D01*
X64008028Y-76152786D01*
X63887715Y-76318386D01*
X63794781Y-76500776D01*
X63731522Y-76695465D01*
X63699500Y-76897648D01*
X63699500Y-77102351D01*
X63731522Y-77304534D01*
X63794781Y-77499223D01*
X63887715Y-77681613D01*
X64008028Y-77847213D01*
X64152786Y-77991971D01*
X64307749Y-78104556D01*
X64318390Y-78112287D01*
X64434607Y-78171503D01*
X64500776Y-78205218D01*
X64500778Y-78205218D01*
X64500781Y-78205220D01*
X64601667Y-78238000D01*
X64695465Y-78268477D01*
X64770933Y-78280430D01*
X64897648Y-78300500D01*
X64897649Y-78300500D01*
X65102351Y-78300500D01*
X65102352Y-78300500D01*
X65304534Y-78268477D01*
X65499219Y-78205220D01*
X65681610Y-78112287D01*
X65796258Y-78028991D01*
X65847213Y-77991971D01*
X65847215Y-77991968D01*
X65847219Y-77991966D01*
X65991966Y-77847219D01*
X65991968Y-77847215D01*
X65991971Y-77847213D01*
X66062697Y-77749865D01*
X66112287Y-77681610D01*
X66205220Y-77499219D01*
X66268477Y-77304534D01*
X66300500Y-77102352D01*
X66300500Y-76897648D01*
X66268477Y-76695466D01*
X66263283Y-76679482D01*
X66239127Y-76605137D01*
X66205220Y-76500781D01*
X66205218Y-76500778D01*
X66205218Y-76500776D01*
X66158695Y-76409471D01*
X66112287Y-76318390D01*
X66104556Y-76307749D01*
X65991971Y-76152786D01*
X65847213Y-76008028D01*
X65681613Y-75887715D01*
X65681612Y-75887714D01*
X65681610Y-75887713D01*
X65615009Y-75853778D01*
X65499223Y-75794781D01*
X65335028Y-75741431D01*
X65277353Y-75701993D01*
X65250155Y-75637634D01*
X65262070Y-75568788D01*
X65309314Y-75517312D01*
X65373347Y-75499500D01*
X73958903Y-75499500D01*
X74025942Y-75519185D01*
X74046584Y-75535819D01*
X74373639Y-75862874D01*
X74373649Y-75862885D01*
X74377979Y-75867215D01*
X74377980Y-75867216D01*
X74489784Y-75979020D01*
X74556600Y-76017595D01*
X74576595Y-76029139D01*
X74576597Y-76029141D01*
X74614651Y-76051111D01*
X74626715Y-76058077D01*
X74779443Y-76099001D01*
X74779446Y-76099001D01*
X74945153Y-76099001D01*
X74945169Y-76099000D01*
X80337116Y-76099000D01*
X80404155Y-76118685D01*
X80449910Y-76171489D01*
X80459854Y-76240647D01*
X80447600Y-76279296D01*
X80437106Y-76299889D01*
X80437103Y-76299896D01*
X80368985Y-76509547D01*
X80334500Y-76727278D01*
X80334500Y-76947721D01*
X80368985Y-77165452D01*
X80437103Y-77375103D01*
X80437104Y-77375106D01*
X80537187Y-77571525D01*
X80666752Y-77749858D01*
X80666756Y-77749863D01*
X80822636Y-77905743D01*
X80822641Y-77905747D01*
X80883551Y-77950000D01*
X81000978Y-78035315D01*
X81129375Y-78100737D01*
X81197393Y-78135395D01*
X81197396Y-78135396D01*
X81302221Y-78169455D01*
X81407049Y-78203515D01*
X81624778Y-78238000D01*
X81624779Y-78238000D01*
X81845221Y-78238000D01*
X81845222Y-78238000D01*
X82062951Y-78203515D01*
X82272606Y-78135395D01*
X82469022Y-78035315D01*
X82647365Y-77905742D01*
X82803242Y-77749865D01*
X82932815Y-77571522D01*
X83032895Y-77375106D01*
X83101015Y-77165451D01*
X83135500Y-76947722D01*
X83135500Y-76727278D01*
X83101015Y-76509549D01*
X83066108Y-76402116D01*
X83032896Y-76299896D01*
X83032893Y-76299889D01*
X83010207Y-76255366D01*
X83007432Y-76240591D01*
X82999999Y-76227522D01*
X83001113Y-76206946D01*
X82997310Y-76186697D01*
X83002964Y-76172765D01*
X83003777Y-76157754D01*
X83015837Y-76141047D01*
X83023586Y-76121956D01*
X83036537Y-76112374D01*
X83044673Y-76101104D01*
X83066250Y-76090390D01*
X83075353Y-76083656D01*
X83081851Y-76081103D01*
X83167785Y-76058077D01*
X83217904Y-76029139D01*
X83304716Y-75979020D01*
X83410988Y-75872747D01*
X83472309Y-75839263D01*
X83542001Y-75844247D01*
X83597934Y-75886118D01*
X83613228Y-75912974D01*
X83614777Y-75916713D01*
X83614779Y-75916718D01*
X83614780Y-75916719D01*
X83707657Y-76099001D01*
X83707715Y-76099113D01*
X83828028Y-76264713D01*
X83972786Y-76409471D01*
X84127749Y-76522056D01*
X84138390Y-76529787D01*
X84254607Y-76589003D01*
X84320776Y-76622718D01*
X84320778Y-76622718D01*
X84320781Y-76622720D01*
X84425137Y-76656627D01*
X84515465Y-76685977D01*
X84575376Y-76695466D01*
X84717648Y-76718000D01*
X84717649Y-76718000D01*
X84922351Y-76718000D01*
X84922352Y-76718000D01*
X85124534Y-76685977D01*
X85319219Y-76622720D01*
X85501610Y-76529787D01*
X85621440Y-76442726D01*
X85667213Y-76409471D01*
X85667215Y-76409468D01*
X85667219Y-76409466D01*
X85811966Y-76264719D01*
X85811968Y-76264715D01*
X85811971Y-76264713D01*
X85893891Y-76151958D01*
X85932287Y-76099110D01*
X86025220Y-75916719D01*
X86025225Y-75916702D01*
X86026764Y-75912989D01*
X86070598Y-75858581D01*
X86136890Y-75836508D01*
X86204591Y-75853778D01*
X86229012Y-75872747D01*
X87360639Y-77004374D01*
X87360649Y-77004385D01*
X87364979Y-77008715D01*
X87364980Y-77008716D01*
X87476784Y-77120520D01*
X87532672Y-77152786D01*
X87563595Y-77170639D01*
X87563597Y-77170641D01*
X87601651Y-77192611D01*
X87613715Y-77199577D01*
X87766443Y-77240500D01*
X87924557Y-77240500D01*
X97673131Y-77240500D01*
X97673147Y-77240501D01*
X97680743Y-77240501D01*
X97838854Y-77240501D01*
X97838857Y-77240501D01*
X97991585Y-77199577D01*
X98041704Y-77170639D01*
X98128516Y-77120520D01*
X98149215Y-77099820D01*
X98159852Y-77092838D01*
X98181592Y-77086224D01*
X98201537Y-77075334D01*
X98226070Y-77072695D01*
X98226697Y-77072505D01*
X98227012Y-77072594D01*
X98227899Y-77072499D01*
X99399671Y-77072499D01*
X99399672Y-77072499D01*
X99459283Y-77066091D01*
X99594131Y-77015796D01*
X99709346Y-76929546D01*
X99795596Y-76814331D01*
X99845891Y-76679483D01*
X99852300Y-76619873D01*
X99852299Y-75000128D01*
X99845891Y-74940517D01*
X99838590Y-74920943D01*
X99795597Y-74805671D01*
X99795593Y-74805664D01*
X99709347Y-74690455D01*
X99709344Y-74690452D01*
X99594135Y-74604206D01*
X99594128Y-74604202D01*
X99459282Y-74553908D01*
X99459283Y-74553908D01*
X99399683Y-74547501D01*
X99399681Y-74547500D01*
X99399673Y-74547500D01*
X99399665Y-74547500D01*
X99360998Y-74547500D01*
X99293959Y-74527815D01*
X99248204Y-74475011D01*
X99238260Y-74405853D01*
X99267285Y-74342297D01*
X99288113Y-74323182D01*
X99322086Y-74298499D01*
X99412264Y-74232981D01*
X99552781Y-74092464D01*
X99669587Y-73931694D01*
X99759805Y-73754632D01*
X99821213Y-73565636D01*
X99852300Y-73369361D01*
X99852300Y-73170639D01*
X99821213Y-72974364D01*
X99790509Y-72879866D01*
X99759806Y-72785370D01*
X99759805Y-72785367D01*
X99679314Y-72627396D01*
X99669587Y-72608306D01*
X99552781Y-72447536D01*
X99412264Y-72307019D01*
X99251494Y-72190213D01*
X99094467Y-72110203D01*
X99043672Y-72062229D01*
X99026877Y-71994408D01*
X99049414Y-71928273D01*
X99094469Y-71889234D01*
X99251222Y-71809364D01*
X99288516Y-71782268D01*
X98725742Y-71219494D01*
X98785881Y-71203381D01*
X98901720Y-71136502D01*
X98996302Y-71041920D01*
X99063181Y-70926081D01*
X99079295Y-70865942D01*
X99642068Y-71428715D01*
X99669162Y-71391425D01*
X99759342Y-71214437D01*
X99820724Y-71025523D01*
X99820724Y-71025520D01*
X99851800Y-70829321D01*
X99851800Y-70630678D01*
X99820724Y-70434479D01*
X99820724Y-70434476D01*
X99759342Y-70245562D01*
X99669158Y-70068567D01*
X99642068Y-70031283D01*
X99079294Y-70594057D01*
X99063181Y-70533919D01*
X98996302Y-70418080D01*
X98901720Y-70323498D01*
X98785881Y-70256619D01*
X98725742Y-70240504D01*
X99288516Y-69677731D01*
X99288515Y-69677730D01*
X99251232Y-69650641D01*
X99094468Y-69570765D01*
X99043672Y-69522790D01*
X99026877Y-69454969D01*
X99049415Y-69388834D01*
X99094467Y-69349796D01*
X99251494Y-69269787D01*
X99412264Y-69152981D01*
X99552781Y-69012464D01*
X99669587Y-68851694D01*
X99759805Y-68674632D01*
X99821213Y-68485636D01*
X99852300Y-68289361D01*
X99852300Y-68090639D01*
X99821213Y-67894364D01*
X99779667Y-67766498D01*
X99759806Y-67705370D01*
X99759805Y-67705367D01*
X99691042Y-67570414D01*
X99669587Y-67528306D01*
X99552781Y-67367536D01*
X99412264Y-67227019D01*
X99251494Y-67110213D01*
X99074432Y-67019994D01*
X99074429Y-67019993D01*
X98885437Y-66958587D01*
X98787298Y-66943043D01*
X98689161Y-66927500D01*
X98490439Y-66927500D01*
X98425014Y-66937862D01*
X98294162Y-66958587D01*
X98105170Y-67019993D01*
X98105167Y-67019994D01*
X97928105Y-67110213D01*
X97767333Y-67227021D01*
X97626821Y-67367533D01*
X97510013Y-67528305D01*
X97419794Y-67705367D01*
X97419793Y-67705370D01*
X97358387Y-67894362D01*
X97354143Y-67921158D01*
X97327300Y-68090639D01*
X97327300Y-68289361D01*
X97333454Y-68328213D01*
X97358387Y-68485637D01*
X97419793Y-68674629D01*
X97419794Y-68674632D01*
X97490280Y-68812966D01*
X97510013Y-68851694D01*
X97626819Y-69012464D01*
X97767336Y-69152981D01*
X97928106Y-69269787D01*
X98085132Y-69349796D01*
X98135927Y-69397769D01*
X98152722Y-69465590D01*
X98130185Y-69531725D01*
X98085132Y-69570764D01*
X97928366Y-69650641D01*
X97891083Y-69677729D01*
X97891082Y-69677730D01*
X98453858Y-70240504D01*
X98393719Y-70256619D01*
X98277880Y-70323498D01*
X98183298Y-70418080D01*
X98116419Y-70533919D01*
X98100304Y-70594057D01*
X97537530Y-70031282D01*
X97537529Y-70031283D01*
X97510443Y-70068564D01*
X97420257Y-70245562D01*
X97358875Y-70434476D01*
X97358875Y-70434479D01*
X97327800Y-70630678D01*
X97327800Y-70829321D01*
X97358875Y-71025520D01*
X97358875Y-71025523D01*
X97420257Y-71214437D01*
X97510441Y-71391432D01*
X97537530Y-71428715D01*
X98100304Y-70865941D01*
X98116419Y-70926081D01*
X98183298Y-71041920D01*
X98277880Y-71136502D01*
X98393719Y-71203381D01*
X98453857Y-71219494D01*
X97891083Y-71782268D01*
X97891083Y-71782269D01*
X97928367Y-71809358D01*
X98085131Y-71889234D01*
X98135927Y-71937209D01*
X98152722Y-72005030D01*
X98130184Y-72071165D01*
X98085131Y-72110204D01*
X97928105Y-72190213D01*
X97767333Y-72307021D01*
X97626821Y-72447533D01*
X97510013Y-72608305D01*
X97419794Y-72785367D01*
X97419793Y-72785370D01*
X97358387Y-72974362D01*
X97327300Y-73170639D01*
X97327300Y-73307499D01*
X97307615Y-73374538D01*
X97254811Y-73420293D01*
X97203300Y-73431499D01*
X95954548Y-73431499D01*
X95887509Y-73411814D01*
X95841754Y-73359010D01*
X95831810Y-73289852D01*
X95860835Y-73226296D01*
X95866867Y-73219818D01*
X95916046Y-73170639D01*
X95971966Y-73114719D01*
X95971968Y-73114715D01*
X95971971Y-73114713D01*
X96026285Y-73039955D01*
X96092287Y-72949110D01*
X96185220Y-72766719D01*
X96248477Y-72572034D01*
X96280500Y-72369852D01*
X96280500Y-72165148D01*
X96258352Y-72025312D01*
X96248477Y-71962965D01*
X96202415Y-71821202D01*
X96185220Y-71768281D01*
X96185218Y-71768278D01*
X96185218Y-71768276D01*
X96110085Y-71620821D01*
X96092287Y-71585890D01*
X96070179Y-71555461D01*
X95971971Y-71420286D01*
X95827213Y-71275528D01*
X95661613Y-71155215D01*
X95661612Y-71155214D01*
X95661610Y-71155213D01*
X95604653Y-71126191D01*
X95479223Y-71062281D01*
X95284534Y-70999022D01*
X95109995Y-70971378D01*
X95082352Y-70967000D01*
X94877648Y-70967000D01*
X94853329Y-70970851D01*
X94675465Y-70999022D01*
X94480776Y-71062281D01*
X94298386Y-71155215D01*
X94132786Y-71275528D01*
X93988028Y-71420286D01*
X93867715Y-71585886D01*
X93774781Y-71768276D01*
X93711522Y-71962965D01*
X93679500Y-72165148D01*
X93679500Y-72369851D01*
X93711522Y-72572034D01*
X93774781Y-72766723D01*
X93835452Y-72885794D01*
X93860250Y-72934464D01*
X93867715Y-72949113D01*
X93988028Y-73114713D01*
X94093133Y-73219818D01*
X94126618Y-73281141D01*
X94121634Y-73350833D01*
X94079762Y-73406766D01*
X94014298Y-73431183D01*
X94005452Y-73431499D01*
X90034596Y-73431499D01*
X89967557Y-73411814D01*
X89946915Y-73395180D01*
X87170643Y-70618908D01*
X87137158Y-70557585D01*
X87142142Y-70487893D01*
X87184014Y-70431960D01*
X87227930Y-70412380D01*
X87227665Y-70411506D01*
X87233489Y-70409738D01*
X87233497Y-70409737D01*
X87379179Y-70349394D01*
X87510289Y-70261789D01*
X87621789Y-70150289D01*
X87709394Y-70019179D01*
X87769737Y-69873497D01*
X87800500Y-69718842D01*
X87800638Y-69718150D01*
X87833023Y-69656239D01*
X87834518Y-69654716D01*
X88300519Y-69188716D01*
X88358506Y-69130728D01*
X88358509Y-69130726D01*
X88368714Y-69120520D01*
X88368716Y-69120520D01*
X88474088Y-69015148D01*
X93679500Y-69015148D01*
X93679500Y-69219851D01*
X93711522Y-69422034D01*
X93774781Y-69616723D01*
X93811474Y-69688735D01*
X93847407Y-69759258D01*
X93867715Y-69799113D01*
X93988028Y-69964713D01*
X94132786Y-70109471D01*
X94287672Y-70222000D01*
X94298390Y-70229787D01*
X94414607Y-70289003D01*
X94480776Y-70322718D01*
X94480778Y-70322718D01*
X94480781Y-70322720D01*
X94585137Y-70356627D01*
X94675465Y-70385977D01*
X94776557Y-70401988D01*
X94877648Y-70418000D01*
X94877649Y-70418000D01*
X95082351Y-70418000D01*
X95082352Y-70418000D01*
X95284534Y-70385977D01*
X95479219Y-70322720D01*
X95661610Y-70229787D01*
X95754590Y-70162232D01*
X95827213Y-70109471D01*
X95827215Y-70109468D01*
X95827219Y-70109466D01*
X95971966Y-69964719D01*
X95971968Y-69964715D01*
X95971971Y-69964713D01*
X96038248Y-69873489D01*
X96092287Y-69799110D01*
X96185220Y-69616719D01*
X96248477Y-69422034D01*
X96280500Y-69219852D01*
X96280500Y-69015148D01*
X96263500Y-68907815D01*
X96248477Y-68812965D01*
X96208112Y-68688735D01*
X96185220Y-68618281D01*
X96185218Y-68618278D01*
X96185218Y-68618276D01*
X96151503Y-68552107D01*
X96092287Y-68435890D01*
X96073286Y-68409737D01*
X95971971Y-68270286D01*
X95827213Y-68125528D01*
X95661613Y-68005215D01*
X95661612Y-68005214D01*
X95661610Y-68005213D01*
X95604653Y-67976191D01*
X95479223Y-67912281D01*
X95284534Y-67849022D01*
X95109995Y-67821378D01*
X95082352Y-67817000D01*
X94877648Y-67817000D01*
X94853329Y-67820851D01*
X94675465Y-67849022D01*
X94480776Y-67912281D01*
X94298386Y-68005215D01*
X94132786Y-68125528D01*
X93988028Y-68270286D01*
X93867715Y-68435886D01*
X93774781Y-68618276D01*
X93711522Y-68812965D01*
X93679500Y-69015148D01*
X88474088Y-69015148D01*
X88480520Y-69008716D01*
X88559577Y-68871784D01*
X88600500Y-68719057D01*
X88600500Y-65717500D01*
X93703391Y-65717500D01*
X94664314Y-65717500D01*
X94659920Y-65721894D01*
X94607259Y-65813106D01*
X94580000Y-65914839D01*
X94580000Y-66020161D01*
X94607259Y-66121894D01*
X94659920Y-66213106D01*
X94664314Y-66217500D01*
X93703391Y-66217500D01*
X93712009Y-66271913D01*
X93775244Y-66466529D01*
X93868140Y-66648849D01*
X93988417Y-66814394D01*
X93988417Y-66814395D01*
X94133104Y-66959082D01*
X94298650Y-67079359D01*
X94480968Y-67172254D01*
X94675578Y-67235488D01*
X94730000Y-67244107D01*
X94730000Y-66283186D01*
X94734394Y-66287580D01*
X94825606Y-66340241D01*
X94927339Y-66367500D01*
X95032661Y-66367500D01*
X95134394Y-66340241D01*
X95225606Y-66287580D01*
X95230000Y-66283186D01*
X95230000Y-67244106D01*
X95284421Y-67235488D01*
X95479031Y-67172254D01*
X95661349Y-67079359D01*
X95826894Y-66959082D01*
X95826895Y-66959082D01*
X95971582Y-66814395D01*
X95971582Y-66814394D01*
X96091859Y-66648849D01*
X96184755Y-66466529D01*
X96247990Y-66271913D01*
X96256609Y-66217500D01*
X95295686Y-66217500D01*
X95300080Y-66213106D01*
X95352741Y-66121894D01*
X95380000Y-66020161D01*
X95380000Y-65914839D01*
X95352741Y-65813106D01*
X95300080Y-65721894D01*
X95295686Y-65717500D01*
X96256609Y-65717500D01*
X96247990Y-65663086D01*
X96184755Y-65468470D01*
X96091859Y-65286150D01*
X95971582Y-65120605D01*
X95971582Y-65120604D01*
X95826895Y-64975917D01*
X95661349Y-64855640D01*
X95479029Y-64762744D01*
X95284413Y-64699509D01*
X95230000Y-64690890D01*
X95230000Y-65651814D01*
X95225606Y-65647420D01*
X95134394Y-65594759D01*
X95032661Y-65567500D01*
X94927339Y-65567500D01*
X94825606Y-65594759D01*
X94734394Y-65647420D01*
X94730000Y-65651814D01*
X94730000Y-64690890D01*
X94675586Y-64699509D01*
X94480970Y-64762744D01*
X94298650Y-64855640D01*
X94133105Y-64975917D01*
X94133104Y-64975917D01*
X93988417Y-65120604D01*
X93988417Y-65120605D01*
X93868140Y-65286150D01*
X93775244Y-65468470D01*
X93712009Y-65663086D01*
X93703391Y-65717500D01*
X88600500Y-65717500D01*
X88600500Y-62567500D01*
X93703391Y-62567500D01*
X94664314Y-62567500D01*
X94659920Y-62571894D01*
X94607259Y-62663106D01*
X94580000Y-62764839D01*
X94580000Y-62870161D01*
X94607259Y-62971894D01*
X94659920Y-63063106D01*
X94664314Y-63067500D01*
X93703391Y-63067500D01*
X93712009Y-63121913D01*
X93775244Y-63316529D01*
X93868140Y-63498849D01*
X93988417Y-63664394D01*
X93988417Y-63664395D01*
X94133104Y-63809082D01*
X94298650Y-63929359D01*
X94480968Y-64022254D01*
X94675578Y-64085488D01*
X94730000Y-64094107D01*
X94730000Y-63133186D01*
X94734394Y-63137580D01*
X94825606Y-63190241D01*
X94927339Y-63217500D01*
X95032661Y-63217500D01*
X95134394Y-63190241D01*
X95225606Y-63137580D01*
X95230000Y-63133186D01*
X95230000Y-64094106D01*
X95284421Y-64085488D01*
X95479031Y-64022254D01*
X95661349Y-63929359D01*
X95826894Y-63809082D01*
X95826895Y-63809082D01*
X95971582Y-63664395D01*
X95971582Y-63664394D01*
X96091859Y-63498849D01*
X96184755Y-63316529D01*
X96247990Y-63121913D01*
X96256609Y-63067500D01*
X95295686Y-63067500D01*
X95300080Y-63063106D01*
X95352741Y-62971894D01*
X95380000Y-62870161D01*
X95380000Y-62764839D01*
X95352741Y-62663106D01*
X95300080Y-62571894D01*
X95295686Y-62567500D01*
X96256609Y-62567500D01*
X96247990Y-62513086D01*
X96184755Y-62318470D01*
X96091859Y-62136150D01*
X95971582Y-61970605D01*
X95971582Y-61970604D01*
X95826895Y-61825917D01*
X95661349Y-61705640D01*
X95479029Y-61612744D01*
X95284413Y-61549509D01*
X95230000Y-61540890D01*
X95230000Y-62501814D01*
X95225606Y-62497420D01*
X95134394Y-62444759D01*
X95032661Y-62417500D01*
X94927339Y-62417500D01*
X94825606Y-62444759D01*
X94734394Y-62497420D01*
X94730000Y-62501814D01*
X94730000Y-61540890D01*
X94675586Y-61549509D01*
X94480970Y-61612744D01*
X94298650Y-61705640D01*
X94133105Y-61825917D01*
X94133104Y-61825917D01*
X93988417Y-61970604D01*
X93988417Y-61970605D01*
X93868140Y-62136150D01*
X93775244Y-62318470D01*
X93712009Y-62513086D01*
X93703391Y-62567500D01*
X88600500Y-62567500D01*
X88600500Y-59417500D01*
X93703391Y-59417500D01*
X94664314Y-59417500D01*
X94659920Y-59421894D01*
X94607259Y-59513106D01*
X94580000Y-59614839D01*
X94580000Y-59720161D01*
X94607259Y-59821894D01*
X94659920Y-59913106D01*
X94664314Y-59917500D01*
X93703391Y-59917500D01*
X93712009Y-59971913D01*
X93775244Y-60166529D01*
X93868140Y-60348849D01*
X93988417Y-60514394D01*
X93988417Y-60514395D01*
X94133104Y-60659082D01*
X94298650Y-60779359D01*
X94480968Y-60872254D01*
X94675578Y-60935488D01*
X94730000Y-60944107D01*
X94730000Y-59983186D01*
X94734394Y-59987580D01*
X94825606Y-60040241D01*
X94927339Y-60067500D01*
X95032661Y-60067500D01*
X95134394Y-60040241D01*
X95225606Y-59987580D01*
X95230000Y-59983186D01*
X95230000Y-60944106D01*
X95284421Y-60935488D01*
X95479031Y-60872254D01*
X95661349Y-60779359D01*
X95826894Y-60659082D01*
X95826895Y-60659082D01*
X95971582Y-60514395D01*
X95971582Y-60514394D01*
X96091859Y-60348849D01*
X96184755Y-60166529D01*
X96247990Y-59971913D01*
X96256609Y-59917500D01*
X95295686Y-59917500D01*
X95300080Y-59913106D01*
X95352741Y-59821894D01*
X95380000Y-59720161D01*
X95380000Y-59614839D01*
X95352741Y-59513106D01*
X95300080Y-59421894D01*
X95295686Y-59417500D01*
X96256609Y-59417500D01*
X96247990Y-59363086D01*
X96184755Y-59168470D01*
X96091859Y-58986150D01*
X95971582Y-58820605D01*
X95971582Y-58820604D01*
X95826895Y-58675917D01*
X95661349Y-58555640D01*
X95479029Y-58462744D01*
X95284413Y-58399509D01*
X95230000Y-58390890D01*
X95230000Y-59351814D01*
X95225606Y-59347420D01*
X95134394Y-59294759D01*
X95032661Y-59267500D01*
X94927339Y-59267500D01*
X94825606Y-59294759D01*
X94734394Y-59347420D01*
X94730000Y-59351814D01*
X94730000Y-58390890D01*
X94675586Y-58399509D01*
X94480970Y-58462744D01*
X94298650Y-58555640D01*
X94133105Y-58675917D01*
X94133104Y-58675917D01*
X93988417Y-58820604D01*
X93988417Y-58820605D01*
X93868140Y-58986150D01*
X93775244Y-59168470D01*
X93712009Y-59363086D01*
X93703391Y-59417500D01*
X88600500Y-59417500D01*
X88600500Y-58579765D01*
X88620185Y-58512726D01*
X88621398Y-58510874D01*
X88709390Y-58379185D01*
X88709390Y-58379184D01*
X88709394Y-58379179D01*
X88769737Y-58233497D01*
X88800500Y-58078842D01*
X88800500Y-57921158D01*
X88800500Y-57921155D01*
X88800499Y-57921153D01*
X88791020Y-57873501D01*
X88769737Y-57766503D01*
X88769735Y-57766498D01*
X88709397Y-57620827D01*
X88709390Y-57620814D01*
X88621789Y-57489711D01*
X88621786Y-57489707D01*
X88510292Y-57378213D01*
X88510288Y-57378210D01*
X88379185Y-57290609D01*
X88379172Y-57290602D01*
X88233501Y-57230264D01*
X88233489Y-57230261D01*
X88078845Y-57199500D01*
X88078842Y-57199500D01*
X87924500Y-57199500D01*
X87857461Y-57179815D01*
X87811706Y-57127011D01*
X87800500Y-57075500D01*
X87800500Y-56921155D01*
X87800499Y-56921153D01*
X87769738Y-56766507D01*
X87769736Y-56766500D01*
X87709397Y-56620827D01*
X87709390Y-56620814D01*
X87621789Y-56489711D01*
X87621786Y-56489707D01*
X87510292Y-56378213D01*
X87510288Y-56378210D01*
X87379185Y-56290609D01*
X87379172Y-56290602D01*
X87233501Y-56230264D01*
X87233489Y-56230261D01*
X87078845Y-56199500D01*
X87078842Y-56199500D01*
X86921158Y-56199500D01*
X86921155Y-56199500D01*
X86766510Y-56230261D01*
X86766498Y-56230264D01*
X86620827Y-56290602D01*
X86620814Y-56290609D01*
X86489711Y-56378210D01*
X86489707Y-56378213D01*
X86378213Y-56489707D01*
X86347602Y-56535520D01*
X86293989Y-56580324D01*
X86224664Y-56589031D01*
X86161637Y-56558876D01*
X86124918Y-56499432D01*
X86120500Y-56466628D01*
X86120500Y-56415148D01*
X86088477Y-56212965D01*
X86056713Y-56115208D01*
X86025220Y-56018281D01*
X86025218Y-56018278D01*
X86025218Y-56018276D01*
X85939117Y-55849295D01*
X85932287Y-55835890D01*
X85904311Y-55797384D01*
X85880832Y-55731579D01*
X85896657Y-55663525D01*
X85946763Y-55614830D01*
X86004630Y-55600500D01*
X93795987Y-55600500D01*
X93863026Y-55620185D01*
X93908781Y-55672989D01*
X93918725Y-55742147D01*
X93896304Y-55797386D01*
X93868142Y-55836146D01*
X93775244Y-56018470D01*
X93712009Y-56213086D01*
X93703391Y-56267500D01*
X94664314Y-56267500D01*
X94659920Y-56271894D01*
X94607259Y-56363106D01*
X94580000Y-56464839D01*
X94580000Y-56570161D01*
X94607259Y-56671894D01*
X94659920Y-56763106D01*
X94664314Y-56767500D01*
X93703391Y-56767500D01*
X93712009Y-56821913D01*
X93775244Y-57016529D01*
X93868140Y-57198849D01*
X93988417Y-57364394D01*
X93988417Y-57364395D01*
X94133104Y-57509082D01*
X94298650Y-57629359D01*
X94480968Y-57722254D01*
X94675578Y-57785488D01*
X94730000Y-57794107D01*
X94730000Y-56833186D01*
X94734394Y-56837580D01*
X94825606Y-56890241D01*
X94927339Y-56917500D01*
X95032661Y-56917500D01*
X95134394Y-56890241D01*
X95225606Y-56837580D01*
X95230000Y-56833186D01*
X95230000Y-57794106D01*
X95284421Y-57785488D01*
X95479031Y-57722254D01*
X95661349Y-57629359D01*
X95826894Y-57509082D01*
X95826895Y-57509082D01*
X95971582Y-57364395D01*
X95971582Y-57364394D01*
X96091859Y-57198849D01*
X96184755Y-57016529D01*
X96247990Y-56821913D01*
X96256609Y-56767500D01*
X95295686Y-56767500D01*
X95300080Y-56763106D01*
X95352741Y-56671894D01*
X95380000Y-56570161D01*
X95380000Y-56464839D01*
X95352741Y-56363106D01*
X95300080Y-56271894D01*
X95295686Y-56267500D01*
X96256609Y-56267500D01*
X96247990Y-56213086D01*
X96184755Y-56018470D01*
X96091857Y-55836146D01*
X96063696Y-55797386D01*
X96040215Y-55731580D01*
X96056040Y-55663526D01*
X96106145Y-55614831D01*
X96164013Y-55600500D01*
X97827643Y-55600500D01*
X97894682Y-55620185D01*
X97915324Y-55636819D01*
X98199373Y-55920868D01*
X98232858Y-55982191D01*
X98227874Y-56051883D01*
X98199375Y-56096228D01*
X98180390Y-56115213D01*
X98055451Y-56287179D01*
X97958944Y-56476585D01*
X97958943Y-56476587D01*
X97958943Y-56476588D01*
X97944111Y-56522236D01*
X97893253Y-56678760D01*
X97860000Y-56888713D01*
X97860000Y-57101286D01*
X97889984Y-57290602D01*
X97893254Y-57311243D01*
X97958118Y-57510874D01*
X97958944Y-57513414D01*
X98055451Y-57702820D01*
X98180390Y-57874786D01*
X98330713Y-58025109D01*
X98502679Y-58150048D01*
X98502681Y-58150049D01*
X98502684Y-58150051D01*
X98692088Y-58246557D01*
X98894257Y-58312246D01*
X99104213Y-58345500D01*
X99104214Y-58345500D01*
X99316786Y-58345500D01*
X99316787Y-58345500D01*
X99526743Y-58312246D01*
X99728912Y-58246557D01*
X99918316Y-58150051D01*
X100016325Y-58078844D01*
X100090286Y-58025109D01*
X100090288Y-58025106D01*
X100090292Y-58025104D01*
X100240604Y-57874792D01*
X100240606Y-57874788D01*
X100240609Y-57874786D01*
X100353906Y-57718844D01*
X100365551Y-57702816D01*
X100370014Y-57694054D01*
X100417988Y-57643259D01*
X100485808Y-57626463D01*
X100551944Y-57648999D01*
X100590986Y-57694056D01*
X100595451Y-57702820D01*
X100720390Y-57874786D01*
X100870713Y-58025109D01*
X101042679Y-58150048D01*
X101042681Y-58150049D01*
X101042684Y-58150051D01*
X101232088Y-58246557D01*
X101434257Y-58312246D01*
X101644213Y-58345500D01*
X101644214Y-58345500D01*
X101856786Y-58345500D01*
X101856787Y-58345500D01*
X102066743Y-58312246D01*
X102268912Y-58246557D01*
X102458316Y-58150051D01*
X102556325Y-58078844D01*
X102630286Y-58025109D01*
X102630288Y-58025106D01*
X102630292Y-58025104D01*
X102780604Y-57874792D01*
X102780606Y-57874788D01*
X102780609Y-57874786D01*
X102893906Y-57718844D01*
X102905551Y-57702816D01*
X103002057Y-57513412D01*
X103067746Y-57311243D01*
X103101000Y-57101287D01*
X103101000Y-56888713D01*
X103067746Y-56678757D01*
X103002057Y-56476588D01*
X102905551Y-56287184D01*
X102905549Y-56287181D01*
X102905548Y-56287179D01*
X102780609Y-56115213D01*
X102630286Y-55964890D01*
X102458320Y-55839951D01*
X102457615Y-55839591D01*
X102449554Y-55835485D01*
X102398759Y-55787512D01*
X102381963Y-55719692D01*
X102404499Y-55653556D01*
X102449554Y-55614515D01*
X102458316Y-55610051D01*
X102505636Y-55575671D01*
X102630286Y-55485109D01*
X102630288Y-55485106D01*
X102630292Y-55485104D01*
X102780604Y-55334792D01*
X102780606Y-55334788D01*
X102780609Y-55334786D01*
X102905548Y-55162820D01*
X102905547Y-55162820D01*
X102905551Y-55162816D01*
X103002057Y-54973412D01*
X103067746Y-54771243D01*
X103101000Y-54561287D01*
X103101000Y-54348713D01*
X103067746Y-54138757D01*
X103002057Y-53936588D01*
X102905551Y-53747184D01*
X102905549Y-53747181D01*
X102905548Y-53747179D01*
X102780609Y-53575213D01*
X102630286Y-53424890D01*
X102458320Y-53299951D01*
X102457615Y-53299591D01*
X102449554Y-53295485D01*
X102398759Y-53247512D01*
X102381963Y-53179692D01*
X102404499Y-53113556D01*
X102449554Y-53074515D01*
X102458316Y-53070051D01*
X102489465Y-53047420D01*
X102630286Y-52945109D01*
X102630288Y-52945106D01*
X102630292Y-52945104D01*
X102780604Y-52794792D01*
X102780606Y-52794788D01*
X102780609Y-52794786D01*
X102905548Y-52622820D01*
X102905547Y-52622820D01*
X102905551Y-52622816D01*
X103002057Y-52433412D01*
X103067746Y-52231243D01*
X103101000Y-52021287D01*
X103101000Y-51808713D01*
X103067746Y-51598757D01*
X103002057Y-51396588D01*
X102905551Y-51207184D01*
X102905549Y-51207181D01*
X102905548Y-51207179D01*
X102780609Y-51035213D01*
X102630286Y-50884890D01*
X102458320Y-50759951D01*
X102457615Y-50759591D01*
X102449554Y-50755485D01*
X102398759Y-50707512D01*
X102381963Y-50639692D01*
X102404499Y-50573556D01*
X102449554Y-50534515D01*
X102458316Y-50530051D01*
X102544971Y-50467093D01*
X102630286Y-50405109D01*
X102630288Y-50405106D01*
X102630292Y-50405104D01*
X102780604Y-50254792D01*
X102780606Y-50254788D01*
X102780609Y-50254786D01*
X102905548Y-50082820D01*
X102905547Y-50082820D01*
X102905551Y-50082816D01*
X103002057Y-49893412D01*
X103067746Y-49691243D01*
X103101000Y-49481287D01*
X103101000Y-49268713D01*
X103067746Y-49058757D01*
X103002057Y-48856588D01*
X102905551Y-48667184D01*
X102905549Y-48667181D01*
X102905548Y-48667179D01*
X102780609Y-48495213D01*
X102630286Y-48344890D01*
X102458320Y-48219951D01*
X102268914Y-48123444D01*
X102268913Y-48123443D01*
X102268912Y-48123443D01*
X102066743Y-48057754D01*
X102066741Y-48057753D01*
X102066740Y-48057753D01*
X101905457Y-48032208D01*
X101856787Y-48024500D01*
X101644213Y-48024500D01*
X101595542Y-48032208D01*
X101434260Y-48057753D01*
X101232085Y-48123444D01*
X101042679Y-48219951D01*
X100870715Y-48344889D01*
X100756785Y-48458819D01*
X100695462Y-48492303D01*
X100625770Y-48487319D01*
X100569837Y-48445447D01*
X100552922Y-48414470D01*
X100503854Y-48282913D01*
X100503850Y-48282906D01*
X100417690Y-48167812D01*
X100417687Y-48167809D01*
X100302593Y-48081649D01*
X100302586Y-48081645D01*
X100167879Y-48031403D01*
X100167872Y-48031401D01*
X100108344Y-48025000D01*
X99460500Y-48025000D01*
X99460500Y-48941988D01*
X99403493Y-48909075D01*
X99276326Y-48875000D01*
X99144674Y-48875000D01*
X99017507Y-48909075D01*
X98960500Y-48941988D01*
X98960500Y-48025000D01*
X98312655Y-48025000D01*
X98253127Y-48031401D01*
X98253120Y-48031403D01*
X98118413Y-48081645D01*
X98118406Y-48081649D01*
X98003312Y-48167809D01*
X98003309Y-48167812D01*
X97917149Y-48282906D01*
X97917145Y-48282913D01*
X97866903Y-48417620D01*
X97866901Y-48417627D01*
X97860500Y-48477155D01*
X97860500Y-49125000D01*
X98777488Y-49125000D01*
X98744575Y-49182007D01*
X98710500Y-49309174D01*
X98710500Y-49440826D01*
X98744575Y-49567993D01*
X98777488Y-49625000D01*
X97821097Y-49625000D01*
X97754058Y-49605315D01*
X97733416Y-49588681D01*
X96899590Y-48754855D01*
X96899588Y-48754852D01*
X96780717Y-48635981D01*
X96780716Y-48635980D01*
X96677632Y-48576465D01*
X96677631Y-48576464D01*
X96643783Y-48556922D01*
X96587881Y-48541943D01*
X96491057Y-48515999D01*
X96332943Y-48515999D01*
X96325347Y-48515999D01*
X96325331Y-48516000D01*
X95511767Y-48516000D01*
X95444728Y-48496315D01*
X95398973Y-48443511D01*
X95389029Y-48374353D01*
X95418054Y-48310797D01*
X95473450Y-48274069D01*
X95479028Y-48272256D01*
X95661349Y-48179359D01*
X95826894Y-48059082D01*
X95826895Y-48059082D01*
X95971582Y-47914395D01*
X95971582Y-47914394D01*
X96091859Y-47748849D01*
X96184755Y-47566529D01*
X96247990Y-47371913D01*
X96256609Y-47317500D01*
X95295686Y-47317500D01*
X95300080Y-47313106D01*
X95352741Y-47221894D01*
X95380000Y-47120161D01*
X95380000Y-47014839D01*
X95352741Y-46913106D01*
X95300080Y-46821894D01*
X95295686Y-46817500D01*
X96256609Y-46817500D01*
X96247990Y-46763086D01*
X96184755Y-46568470D01*
X96091859Y-46386150D01*
X95971582Y-46220605D01*
X95971582Y-46220604D01*
X95826895Y-46075917D01*
X95661349Y-45955640D01*
X95479029Y-45862744D01*
X95284413Y-45799509D01*
X95230000Y-45790890D01*
X95230000Y-46751814D01*
X95225606Y-46747420D01*
X95134394Y-46694759D01*
X95032661Y-46667500D01*
X94927339Y-46667500D01*
X94825606Y-46694759D01*
X94734394Y-46747420D01*
X94730000Y-46751814D01*
X94730000Y-45790890D01*
X94675586Y-45799509D01*
X94480970Y-45862744D01*
X94298650Y-45955640D01*
X94133105Y-46075917D01*
X94133104Y-46075917D01*
X93988417Y-46220604D01*
X93988417Y-46220605D01*
X93868140Y-46386150D01*
X93775244Y-46568470D01*
X93712009Y-46763086D01*
X93703391Y-46817500D01*
X94664314Y-46817500D01*
X94659920Y-46821894D01*
X94607259Y-46913106D01*
X94580000Y-47014839D01*
X94580000Y-47120161D01*
X94607259Y-47221894D01*
X94659920Y-47313106D01*
X94664314Y-47317500D01*
X93703391Y-47317500D01*
X93671780Y-47354511D01*
X93613273Y-47392704D01*
X93543405Y-47393202D01*
X93508599Y-47377081D01*
X93379185Y-47290609D01*
X93379172Y-47290602D01*
X93233501Y-47230264D01*
X93233489Y-47230261D01*
X93078845Y-47199500D01*
X93078842Y-47199500D01*
X92921158Y-47199500D01*
X92921155Y-47199500D01*
X92766510Y-47230261D01*
X92766498Y-47230264D01*
X92620827Y-47290602D01*
X92620814Y-47290609D01*
X92489711Y-47378210D01*
X92489707Y-47378213D01*
X92378213Y-47489707D01*
X92378210Y-47489711D01*
X92290609Y-47620814D01*
X92290602Y-47620827D01*
X92230264Y-47766498D01*
X92230261Y-47766510D01*
X92199500Y-47921153D01*
X92199500Y-48078846D01*
X92230261Y-48233489D01*
X92230264Y-48233501D01*
X92290602Y-48379172D01*
X92290609Y-48379185D01*
X92378210Y-48510288D01*
X92378213Y-48510292D01*
X92489707Y-48621786D01*
X92489711Y-48621789D01*
X92620814Y-48709390D01*
X92620827Y-48709397D01*
X92713503Y-48747784D01*
X92766503Y-48769737D01*
X92921153Y-48800499D01*
X92921156Y-48800500D01*
X92921158Y-48800500D01*
X93078844Y-48800500D01*
X93078845Y-48800499D01*
X93233497Y-48769737D01*
X93379179Y-48709394D01*
X93442351Y-48667184D01*
X93510875Y-48621398D01*
X93528921Y-48615747D01*
X93544831Y-48605523D01*
X93575792Y-48601071D01*
X93577553Y-48600520D01*
X93579766Y-48600500D01*
X93699903Y-48600500D01*
X93766942Y-48620185D01*
X93787584Y-48636819D01*
X94171521Y-49020756D01*
X94205006Y-49082079D01*
X94200022Y-49151771D01*
X94158150Y-49207704D01*
X94156727Y-49208754D01*
X94133107Y-49225914D01*
X93988417Y-49370604D01*
X93988417Y-49370605D01*
X93868140Y-49536150D01*
X93775244Y-49718470D01*
X93712009Y-49913086D01*
X93703391Y-49967500D01*
X94664314Y-49967500D01*
X94659920Y-49971894D01*
X94607259Y-50063106D01*
X94580000Y-50164839D01*
X94580000Y-50270161D01*
X94607259Y-50371894D01*
X94659920Y-50463106D01*
X94664314Y-50467500D01*
X93703391Y-50467500D01*
X93712009Y-50521913D01*
X93775244Y-50716529D01*
X93868140Y-50898849D01*
X93988417Y-51064394D01*
X93988417Y-51064395D01*
X94133104Y-51209082D01*
X94298650Y-51329359D01*
X94480968Y-51422254D01*
X94675578Y-51485488D01*
X94730000Y-51494107D01*
X94730000Y-50533186D01*
X94734394Y-50537580D01*
X94825606Y-50590241D01*
X94927339Y-50617500D01*
X95032661Y-50617500D01*
X95134394Y-50590241D01*
X95225606Y-50537580D01*
X95230000Y-50533186D01*
X95230000Y-51494106D01*
X95284421Y-51485488D01*
X95479031Y-51422254D01*
X95661349Y-51329359D01*
X95826894Y-51209082D01*
X95826895Y-51209082D01*
X95971582Y-51064395D01*
X95971582Y-51064394D01*
X96091859Y-50898849D01*
X96184755Y-50716529D01*
X96247990Y-50521913D01*
X96256609Y-50467500D01*
X95295686Y-50467500D01*
X95300080Y-50463106D01*
X95352741Y-50371894D01*
X95380000Y-50270161D01*
X95380000Y-50164839D01*
X95352741Y-50063106D01*
X95300080Y-49971894D01*
X95295686Y-49967500D01*
X96268293Y-49967500D01*
X96300386Y-49946548D01*
X96370254Y-49946046D01*
X96423855Y-49977590D01*
X97876741Y-51430476D01*
X97910226Y-51491799D01*
X97906992Y-51556473D01*
X97893253Y-51598757D01*
X97860000Y-51808713D01*
X97860000Y-52021286D01*
X97889650Y-52208493D01*
X97893254Y-52231243D01*
X97947857Y-52399294D01*
X97958944Y-52433414D01*
X98055451Y-52622820D01*
X98180390Y-52794786D01*
X98330713Y-52945109D01*
X98502682Y-53070050D01*
X98511446Y-53074516D01*
X98562242Y-53122491D01*
X98579036Y-53190312D01*
X98556498Y-53256447D01*
X98511446Y-53295484D01*
X98502682Y-53299949D01*
X98330713Y-53424890D01*
X98180390Y-53575213D01*
X98055451Y-53747179D01*
X97958944Y-53936585D01*
X97893253Y-54138759D01*
X97885980Y-54184680D01*
X97872718Y-54268420D01*
X97868524Y-54294898D01*
X97838595Y-54358032D01*
X97779284Y-54394964D01*
X97746051Y-54399500D01*
X96080460Y-54399500D01*
X96013421Y-54379815D01*
X95967666Y-54327011D01*
X95957722Y-54257853D01*
X95980142Y-54202614D01*
X96091859Y-54048849D01*
X96184755Y-53866529D01*
X96247990Y-53671913D01*
X96256609Y-53617500D01*
X95295686Y-53617500D01*
X95300080Y-53613106D01*
X95352741Y-53521894D01*
X95380000Y-53420161D01*
X95380000Y-53314839D01*
X95352741Y-53213106D01*
X95300080Y-53121894D01*
X95295686Y-53117500D01*
X96256609Y-53117500D01*
X96247990Y-53063086D01*
X96184755Y-52868470D01*
X96091859Y-52686150D01*
X95971582Y-52520605D01*
X95971582Y-52520604D01*
X95826895Y-52375917D01*
X95661349Y-52255640D01*
X95479029Y-52162744D01*
X95284413Y-52099509D01*
X95230000Y-52090890D01*
X95230000Y-53051814D01*
X95225606Y-53047420D01*
X95134394Y-52994759D01*
X95032661Y-52967500D01*
X94927339Y-52967500D01*
X94825606Y-52994759D01*
X94734394Y-53047420D01*
X94730000Y-53051814D01*
X94730000Y-52090890D01*
X94675586Y-52099509D01*
X94480970Y-52162744D01*
X94298650Y-52255640D01*
X94133105Y-52375917D01*
X94133104Y-52375917D01*
X93988417Y-52520604D01*
X93988417Y-52520605D01*
X93868140Y-52686150D01*
X93775244Y-52868470D01*
X93712009Y-53063086D01*
X93703391Y-53117500D01*
X94664314Y-53117500D01*
X94659920Y-53121894D01*
X94607259Y-53213106D01*
X94580000Y-53314839D01*
X94580000Y-53420161D01*
X94607259Y-53521894D01*
X94659920Y-53613106D01*
X94664314Y-53617500D01*
X93703391Y-53617500D01*
X93712009Y-53671913D01*
X93775244Y-53866529D01*
X93868140Y-54048849D01*
X93979858Y-54202614D01*
X94003338Y-54268420D01*
X93987513Y-54336474D01*
X93937407Y-54385169D01*
X93879540Y-54399500D01*
X87886555Y-54399500D01*
X87819516Y-54379815D01*
X87773761Y-54327011D01*
X87763817Y-54257853D01*
X87768840Y-54239588D01*
X87767969Y-54239324D01*
X87769731Y-54233509D01*
X87769737Y-54233497D01*
X87800500Y-54078842D01*
X87800500Y-53921158D01*
X87800500Y-53921155D01*
X87800499Y-53921153D01*
X87789671Y-53866719D01*
X87769737Y-53766503D01*
X87749887Y-53718580D01*
X87709397Y-53620827D01*
X87709390Y-53620814D01*
X87621398Y-53489125D01*
X87600520Y-53422447D01*
X87600500Y-53420234D01*
X87600500Y-46159896D01*
X87620185Y-46092857D01*
X87636814Y-46072220D01*
X91115621Y-42593412D01*
X91176942Y-42559929D01*
X91246634Y-42564913D01*
X91302567Y-42606785D01*
X91326984Y-42672249D01*
X91327300Y-42681095D01*
X91327300Y-43619870D01*
X91327301Y-43619876D01*
X91333708Y-43679483D01*
X91384002Y-43814328D01*
X91384006Y-43814335D01*
X91470252Y-43929544D01*
X91470255Y-43929547D01*
X91585464Y-44015793D01*
X91585471Y-44015797D01*
X91720317Y-44066091D01*
X91720316Y-44066091D01*
X91727244Y-44066835D01*
X91779927Y-44072500D01*
X93399672Y-44072499D01*
X93459283Y-44066091D01*
X93594131Y-44015796D01*
X93709346Y-43929546D01*
X93795596Y-43814331D01*
X93845891Y-43679483D01*
X93852300Y-43619873D01*
X93852299Y-42000128D01*
X93845891Y-41940517D01*
X93838669Y-41921155D01*
X93795597Y-41805671D01*
X93795593Y-41805664D01*
X93709347Y-41690455D01*
X93709344Y-41690452D01*
X93594135Y-41604206D01*
X93594128Y-41604202D01*
X93459282Y-41553908D01*
X93459283Y-41553908D01*
X93399683Y-41547501D01*
X93399681Y-41547500D01*
X93399673Y-41547500D01*
X93399665Y-41547500D01*
X93360998Y-41547500D01*
X93293959Y-41527815D01*
X93248204Y-41475011D01*
X93238260Y-41405853D01*
X93267285Y-41342297D01*
X93288113Y-41323182D01*
X93311077Y-41306497D01*
X93412264Y-41232981D01*
X93552781Y-41092464D01*
X93669587Y-40931694D01*
X93759805Y-40754632D01*
X93821213Y-40565636D01*
X93852300Y-40369361D01*
X93852300Y-40170639D01*
X93821213Y-39974364D01*
X93787389Y-39870263D01*
X93759806Y-39785370D01*
X93759805Y-39785367D01*
X93707315Y-39682351D01*
X93669587Y-39608306D01*
X93552781Y-39447536D01*
X93412264Y-39307019D01*
X93251494Y-39190213D01*
X93095018Y-39110484D01*
X93044223Y-39062510D01*
X93027428Y-38994689D01*
X93049965Y-38928554D01*
X93095018Y-38889515D01*
X93251494Y-38809787D01*
X93412264Y-38692981D01*
X93552781Y-38552464D01*
X93669587Y-38391694D01*
X93759805Y-38214632D01*
X93821213Y-38025636D01*
X93852300Y-37829361D01*
X93852300Y-37630639D01*
X93821213Y-37434364D01*
X93759805Y-37245368D01*
X93759805Y-37245367D01*
X93713835Y-37155149D01*
X93669587Y-37068306D01*
X93552781Y-36907536D01*
X93412264Y-36767019D01*
X93251494Y-36650213D01*
X93094467Y-36570203D01*
X93043672Y-36522229D01*
X93026877Y-36454408D01*
X93049414Y-36388273D01*
X93094469Y-36349234D01*
X93251222Y-36269364D01*
X93288516Y-36242268D01*
X92725742Y-35679494D01*
X92785881Y-35663381D01*
X92901720Y-35596502D01*
X92996302Y-35501920D01*
X93063181Y-35386081D01*
X93079295Y-35325942D01*
X93642068Y-35888715D01*
X93669162Y-35851425D01*
X93759342Y-35674437D01*
X93820724Y-35485523D01*
X93820724Y-35485520D01*
X93851800Y-35289321D01*
X93851800Y-35090678D01*
X93820724Y-34894479D01*
X93820724Y-34894476D01*
X93759342Y-34705562D01*
X93669158Y-34528567D01*
X93642068Y-34491283D01*
X93079294Y-35054057D01*
X93063181Y-34993919D01*
X92996302Y-34878080D01*
X92901720Y-34783498D01*
X92785881Y-34716619D01*
X92725742Y-34700504D01*
X93288516Y-34137731D01*
X93288515Y-34137730D01*
X93251232Y-34110641D01*
X93074237Y-34020457D01*
X92885322Y-33959075D01*
X92689121Y-33928000D01*
X92490479Y-33928000D01*
X92294279Y-33959075D01*
X92294276Y-33959075D01*
X92105362Y-34020457D01*
X91928364Y-34110643D01*
X91891083Y-34137729D01*
X91891082Y-34137730D01*
X92453858Y-34700504D01*
X92393719Y-34716619D01*
X92277880Y-34783498D01*
X92183298Y-34878080D01*
X92116419Y-34993919D01*
X92100304Y-35054057D01*
X91537530Y-34491282D01*
X91537529Y-34491283D01*
X91510443Y-34528564D01*
X91420257Y-34705562D01*
X91358875Y-34894476D01*
X91358875Y-34894479D01*
X91327800Y-35090678D01*
X91327800Y-35289321D01*
X91358875Y-35485520D01*
X91358875Y-35485523D01*
X91420257Y-35674437D01*
X91510441Y-35851432D01*
X91537530Y-35888715D01*
X92100304Y-35325941D01*
X92116419Y-35386081D01*
X92183298Y-35501920D01*
X92277880Y-35596502D01*
X92393719Y-35663381D01*
X92453857Y-35679494D01*
X91891083Y-36242268D01*
X91891083Y-36242269D01*
X91928367Y-36269358D01*
X92085131Y-36349234D01*
X92135927Y-36397209D01*
X92152722Y-36465030D01*
X92130184Y-36531165D01*
X92085131Y-36570204D01*
X91928105Y-36650213D01*
X91767333Y-36767021D01*
X91626821Y-36907533D01*
X91510013Y-37068305D01*
X91419794Y-37245367D01*
X91419793Y-37245370D01*
X91358387Y-37434362D01*
X91338567Y-37559500D01*
X91327300Y-37630639D01*
X91327300Y-37829361D01*
X91334058Y-37872031D01*
X91358387Y-38025637D01*
X91419793Y-38214629D01*
X91419794Y-38214632D01*
X91486315Y-38345185D01*
X91510013Y-38391694D01*
X91626819Y-38552464D01*
X91767336Y-38692981D01*
X91928106Y-38809787D01*
X92037360Y-38865455D01*
X92084580Y-38889515D01*
X92135376Y-38937490D01*
X92152171Y-39005311D01*
X92129633Y-39071446D01*
X92084580Y-39110485D01*
X91928105Y-39190213D01*
X91767333Y-39307021D01*
X91626821Y-39447533D01*
X91510013Y-39608305D01*
X91419794Y-39785367D01*
X91419793Y-39785370D01*
X91358387Y-39974362D01*
X91327300Y-40170639D01*
X91327300Y-40369360D01*
X91358386Y-40565636D01*
X91358931Y-40567903D01*
X91358886Y-40568790D01*
X91359149Y-40570448D01*
X91358800Y-40570503D01*
X91355438Y-40637685D01*
X91326037Y-40684526D01*
X89461603Y-42548961D01*
X89400280Y-42582446D01*
X89330588Y-42577462D01*
X89274655Y-42535590D01*
X89250238Y-42470126D01*
X89255992Y-42422960D01*
X89268475Y-42384541D01*
X89268475Y-42384539D01*
X89268477Y-42384534D01*
X89300500Y-42182352D01*
X89300500Y-41977648D01*
X89268477Y-41775466D01*
X89248455Y-41713846D01*
X89218230Y-41620821D01*
X89205220Y-41580781D01*
X89205218Y-41580778D01*
X89205218Y-41580776D01*
X89164780Y-41501413D01*
X89112287Y-41398390D01*
X89097626Y-41378211D01*
X88991971Y-41232786D01*
X88847213Y-41088028D01*
X88681613Y-40967715D01*
X88681612Y-40967714D01*
X88681610Y-40967713D01*
X88610919Y-40931694D01*
X88499223Y-40874781D01*
X88304534Y-40811522D01*
X88129995Y-40783878D01*
X88102352Y-40779500D01*
X87897648Y-40779500D01*
X87873329Y-40783351D01*
X87695465Y-40811522D01*
X87500776Y-40874781D01*
X87318390Y-40967712D01*
X87197385Y-41055627D01*
X87131578Y-41079106D01*
X87063524Y-41063280D01*
X87014830Y-41013174D01*
X87000500Y-40955308D01*
X87000500Y-36685946D01*
X87000500Y-36685943D01*
X86981884Y-36616465D01*
X86959577Y-36533215D01*
X86921636Y-36467500D01*
X86921636Y-36467499D01*
X86880522Y-36396287D01*
X86880521Y-36396286D01*
X86880520Y-36396284D01*
X86768716Y-36284480D01*
X86768715Y-36284479D01*
X86764385Y-36280149D01*
X86764374Y-36280139D01*
X84509077Y-34024842D01*
X84475592Y-33963519D01*
X84478828Y-33898841D01*
X84483477Y-33884534D01*
X84515500Y-33682352D01*
X84515500Y-33477648D01*
X84483477Y-33275466D01*
X84465617Y-33220500D01*
X84420218Y-33080776D01*
X84368865Y-32979992D01*
X84327287Y-32898390D01*
X84311892Y-32877200D01*
X84206971Y-32732786D01*
X84062213Y-32588028D01*
X83896613Y-32467715D01*
X83896612Y-32467714D01*
X83896610Y-32467713D01*
X83819427Y-32428386D01*
X83714223Y-32374781D01*
X83519534Y-32311522D01*
X83344995Y-32283878D01*
X83317352Y-32279500D01*
X83112648Y-32279500D01*
X83088329Y-32283351D01*
X82910465Y-32311522D01*
X82715776Y-32374781D01*
X82533386Y-32467715D01*
X82367786Y-32588028D01*
X82223028Y-32732786D01*
X82102715Y-32898386D01*
X82009781Y-33080776D01*
X81946522Y-33275465D01*
X81914500Y-33477648D01*
X81914500Y-33682351D01*
X81946522Y-33884534D01*
X82009781Y-34079223D01*
X82102715Y-34261613D01*
X82223028Y-34427213D01*
X82367786Y-34571971D01*
X82519231Y-34682000D01*
X82533390Y-34692287D01*
X82649607Y-34751503D01*
X82715776Y-34785218D01*
X82715778Y-34785218D01*
X82715781Y-34785220D01*
X82806856Y-34814812D01*
X82910465Y-34848477D01*
X83011557Y-34864488D01*
X83112648Y-34880500D01*
X83112649Y-34880500D01*
X83317351Y-34880500D01*
X83317352Y-34880500D01*
X83519534Y-34848477D01*
X83533842Y-34843827D01*
X83603682Y-34841831D01*
X83659842Y-34874077D01*
X85763181Y-36977416D01*
X85796666Y-37038739D01*
X85799500Y-37065097D01*
X85799500Y-45482774D01*
X85779815Y-45549813D01*
X85727011Y-45595568D01*
X85657853Y-45605512D01*
X85594297Y-45576487D01*
X85587819Y-45570455D01*
X83903218Y-43885855D01*
X83903216Y-43885852D01*
X83784345Y-43766981D01*
X83784344Y-43766980D01*
X83697532Y-43716860D01*
X83697532Y-43716859D01*
X83697528Y-43716858D01*
X83647413Y-43687923D01*
X83494685Y-43646999D01*
X83336571Y-43646999D01*
X83328975Y-43646999D01*
X83328959Y-43647000D01*
X83259499Y-43647000D01*
X83192460Y-43627315D01*
X83146705Y-43574511D01*
X83135499Y-43523000D01*
X83135499Y-43299629D01*
X83135498Y-43299623D01*
X83134229Y-43287820D01*
X83129091Y-43240017D01*
X83115915Y-43204691D01*
X83078797Y-43105171D01*
X83078793Y-43105164D01*
X82992547Y-42989955D01*
X82992544Y-42989952D01*
X82877335Y-42903706D01*
X82877328Y-42903702D01*
X82742482Y-42853408D01*
X82742483Y-42853408D01*
X82690213Y-42847789D01*
X82625662Y-42821051D01*
X82585813Y-42763659D01*
X82583320Y-42693834D01*
X82618972Y-42633745D01*
X82681452Y-42602470D01*
X82703468Y-42600500D01*
X83420234Y-42600500D01*
X83487273Y-42620185D01*
X83489125Y-42621398D01*
X83620814Y-42709390D01*
X83620827Y-42709397D01*
X83751829Y-42763659D01*
X83766503Y-42769737D01*
X83921153Y-42800499D01*
X83921156Y-42800500D01*
X83921158Y-42800500D01*
X84078844Y-42800500D01*
X84078845Y-42800499D01*
X84233497Y-42769737D01*
X84379179Y-42709394D01*
X84510289Y-42621789D01*
X84621789Y-42510289D01*
X84709394Y-42379179D01*
X84769737Y-42233497D01*
X84800500Y-42078842D01*
X84800500Y-41921158D01*
X84800500Y-41921155D01*
X84800499Y-41921153D01*
X84779633Y-41816254D01*
X84769737Y-41766503D01*
X84738236Y-41690452D01*
X84709397Y-41620827D01*
X84709390Y-41620814D01*
X84621789Y-41489711D01*
X84621786Y-41489707D01*
X84510292Y-41378213D01*
X84510288Y-41378210D01*
X84379185Y-41290609D01*
X84379172Y-41290602D01*
X84233501Y-41230264D01*
X84233489Y-41230261D01*
X84078845Y-41199500D01*
X84078842Y-41199500D01*
X83921158Y-41199500D01*
X83921155Y-41199500D01*
X83766510Y-41230261D01*
X83766498Y-41230264D01*
X83620827Y-41290602D01*
X83620814Y-41290609D01*
X83489125Y-41378602D01*
X83422447Y-41399480D01*
X83420234Y-41399500D01*
X79671941Y-41399500D01*
X79604902Y-41379815D01*
X79559147Y-41327011D01*
X79549203Y-41257853D01*
X79578228Y-41194297D01*
X79584260Y-41187819D01*
X79621786Y-41150292D01*
X79621789Y-41150289D01*
X79709394Y-41019179D01*
X79711867Y-41013210D01*
X79745631Y-40931694D01*
X79769737Y-40873497D01*
X79800500Y-40718842D01*
X79800500Y-40561158D01*
X79800500Y-40561155D01*
X79800499Y-40561153D01*
X79778257Y-40449336D01*
X79769737Y-40406503D01*
X79747141Y-40351953D01*
X79743634Y-40319329D01*
X79738965Y-40286855D01*
X79739918Y-40284767D01*
X79739673Y-40282484D01*
X79754366Y-40253130D01*
X79767990Y-40223299D01*
X79769920Y-40222058D01*
X79770948Y-40220005D01*
X79799166Y-40203262D01*
X79826767Y-40185524D01*
X79829797Y-40185088D01*
X79831037Y-40184353D01*
X79861702Y-40180501D01*
X80019058Y-40180501D01*
X80019061Y-40180500D01*
X80026669Y-40180500D01*
X81985398Y-40180500D01*
X82052437Y-40200185D01*
X82095883Y-40248205D01*
X82102715Y-40261614D01*
X82223028Y-40427213D01*
X82367786Y-40571971D01*
X82481600Y-40654660D01*
X82533390Y-40692287D01*
X82649607Y-40751503D01*
X82715776Y-40785218D01*
X82715778Y-40785218D01*
X82715781Y-40785220D01*
X82806856Y-40814812D01*
X82910465Y-40848477D01*
X82981646Y-40859751D01*
X83112648Y-40880500D01*
X83112649Y-40880500D01*
X83317351Y-40880500D01*
X83317352Y-40880500D01*
X83519534Y-40848477D01*
X83714219Y-40785220D01*
X83896610Y-40692287D01*
X83989590Y-40624732D01*
X84062213Y-40571971D01*
X84062215Y-40571968D01*
X84062219Y-40571966D01*
X84206966Y-40427219D01*
X84206968Y-40427215D01*
X84206971Y-40427213D01*
X84285352Y-40319329D01*
X84327287Y-40261610D01*
X84420220Y-40079219D01*
X84483477Y-39884534D01*
X84515500Y-39682352D01*
X84515500Y-39477648D01*
X84495186Y-39349394D01*
X84483477Y-39275465D01*
X84420598Y-39081945D01*
X84420220Y-39080781D01*
X84420218Y-39080778D01*
X84420218Y-39080776D01*
X84376354Y-38994689D01*
X84327287Y-38898390D01*
X84278510Y-38831253D01*
X84206971Y-38732786D01*
X84062213Y-38588028D01*
X83896613Y-38467715D01*
X83896612Y-38467714D01*
X83896610Y-38467713D01*
X83836898Y-38437288D01*
X83714223Y-38374781D01*
X83519534Y-38311522D01*
X83344995Y-38283878D01*
X83317352Y-38279500D01*
X83112648Y-38279500D01*
X83088329Y-38283351D01*
X82910465Y-38311522D01*
X82715776Y-38374781D01*
X82533386Y-38467715D01*
X82367786Y-38588028D01*
X82223028Y-38732786D01*
X82102715Y-38898385D01*
X82095883Y-38911795D01*
X82047909Y-38962591D01*
X81985398Y-38979500D01*
X80240098Y-38979500D01*
X80173059Y-38959815D01*
X80152417Y-38943181D01*
X79834573Y-38625337D01*
X79801088Y-38564014D01*
X79800637Y-38561847D01*
X79781913Y-38467715D01*
X79769737Y-38406503D01*
X79763603Y-38391694D01*
X79709397Y-38260827D01*
X79709390Y-38260814D01*
X79621789Y-38129711D01*
X79621786Y-38129707D01*
X79510292Y-38018213D01*
X79510288Y-38018210D01*
X79379185Y-37930609D01*
X79379172Y-37930602D01*
X79233501Y-37870264D01*
X79233489Y-37870261D01*
X79078845Y-37839500D01*
X79078842Y-37839500D01*
X78921158Y-37839500D01*
X78921155Y-37839500D01*
X78766510Y-37870261D01*
X78760676Y-37872031D01*
X78759873Y-37869385D01*
X78702056Y-37875396D01*
X78639687Y-37843902D01*
X78604245Y-37783689D01*
X78600500Y-37753444D01*
X78600500Y-36619765D01*
X78620185Y-36552726D01*
X78621398Y-36550874D01*
X78709390Y-36419185D01*
X78709390Y-36419184D01*
X78709394Y-36419179D01*
X78769737Y-36273497D01*
X78800500Y-36118842D01*
X78800500Y-35961158D01*
X78800500Y-35961155D01*
X78800499Y-35961153D01*
X78769737Y-35806503D01*
X78754281Y-35769189D01*
X78709397Y-35660827D01*
X78709390Y-35660814D01*
X78621789Y-35529711D01*
X78621786Y-35529707D01*
X78510292Y-35418213D01*
X78510288Y-35418210D01*
X78379185Y-35330609D01*
X78379172Y-35330602D01*
X78233501Y-35270264D01*
X78233489Y-35270261D01*
X78078845Y-35239500D01*
X78078842Y-35239500D01*
X77921158Y-35239500D01*
X77921155Y-35239500D01*
X77766510Y-35270261D01*
X77766498Y-35270264D01*
X77620827Y-35330602D01*
X77620814Y-35330609D01*
X77489711Y-35418210D01*
X77489707Y-35418213D01*
X77378213Y-35529707D01*
X77378210Y-35529711D01*
X77290609Y-35660814D01*
X77290602Y-35660827D01*
X77230264Y-35806498D01*
X77230261Y-35806510D01*
X77199500Y-35961153D01*
X77199500Y-36118846D01*
X77230261Y-36273489D01*
X77230264Y-36273501D01*
X77290602Y-36419172D01*
X77290609Y-36419185D01*
X77378602Y-36550874D01*
X77399480Y-36617551D01*
X77399500Y-36619765D01*
X77399500Y-39553330D01*
X77399499Y-39553348D01*
X77399499Y-39719054D01*
X77399498Y-39719054D01*
X77440422Y-39871783D01*
X77465558Y-39915319D01*
X77465560Y-39915322D01*
X77519479Y-40008714D01*
X77519481Y-40008717D01*
X77638349Y-40127585D01*
X77638355Y-40127590D01*
X78165425Y-40654660D01*
X78198910Y-40715983D01*
X78199361Y-40718149D01*
X78230261Y-40873491D01*
X78230264Y-40873501D01*
X78290602Y-41019172D01*
X78290609Y-41019185D01*
X78378210Y-41150288D01*
X78378213Y-41150292D01*
X78415740Y-41187819D01*
X78449225Y-41249142D01*
X78444241Y-41318834D01*
X78402369Y-41374767D01*
X78336905Y-41399184D01*
X78328059Y-41399500D01*
X74925670Y-41399500D01*
X74925654Y-41399499D01*
X74918058Y-41399499D01*
X74759943Y-41399499D01*
X74683579Y-41419961D01*
X74607214Y-41440423D01*
X74607209Y-41440426D01*
X74470290Y-41519475D01*
X74470282Y-41519481D01*
X74411181Y-41578583D01*
X74349858Y-41612068D01*
X74280166Y-41607084D01*
X74224233Y-41565212D01*
X74199816Y-41499748D01*
X74199500Y-41490902D01*
X74199500Y-40626059D01*
X74219185Y-40559020D01*
X74271989Y-40513265D01*
X74341147Y-40503321D01*
X74404703Y-40532346D01*
X74429038Y-40560962D01*
X74452288Y-40598656D01*
X74576344Y-40722712D01*
X74725666Y-40814814D01*
X74892203Y-40869999D01*
X74994991Y-40880500D01*
X76195008Y-40880499D01*
X76297797Y-40869999D01*
X76464334Y-40814814D01*
X76613656Y-40722712D01*
X76737712Y-40598656D01*
X76829814Y-40449334D01*
X76884999Y-40282797D01*
X76895500Y-40180009D01*
X76895499Y-38979992D01*
X76893721Y-38962591D01*
X76884999Y-38877203D01*
X76884998Y-38877200D01*
X76870348Y-38832989D01*
X76829814Y-38710666D01*
X76737712Y-38561344D01*
X76613656Y-38437288D01*
X76464334Y-38345186D01*
X76297797Y-38290001D01*
X76297795Y-38290000D01*
X76195016Y-38279500D01*
X76195009Y-38279500D01*
X75195097Y-38279500D01*
X75128058Y-38259815D01*
X75107416Y-38243181D01*
X74662590Y-37798355D01*
X74662588Y-37798352D01*
X74543717Y-37679481D01*
X74543716Y-37679480D01*
X74456904Y-37629360D01*
X74456904Y-37629359D01*
X74456900Y-37629358D01*
X74406785Y-37600423D01*
X74254057Y-37559499D01*
X74095943Y-37559499D01*
X74088347Y-37559499D01*
X74088331Y-37559500D01*
X72515737Y-37559500D01*
X72448698Y-37539815D01*
X72415419Y-37508386D01*
X72318741Y-37375321D01*
X72184679Y-37241259D01*
X72031296Y-37129819D01*
X71862368Y-37043746D01*
X71752139Y-37007930D01*
X71694465Y-36968493D01*
X71667267Y-36904135D01*
X71679182Y-36835288D01*
X71726426Y-36783813D01*
X71752138Y-36772070D01*
X71862368Y-36736254D01*
X72031296Y-36650181D01*
X72184679Y-36538741D01*
X72318741Y-36404679D01*
X72430181Y-36251296D01*
X72516254Y-36082368D01*
X72574842Y-35902055D01*
X72604500Y-35714796D01*
X72604500Y-35525204D01*
X72604500Y-35525199D01*
X72587554Y-35418210D01*
X72574842Y-35337945D01*
X72516254Y-35157632D01*
X72516252Y-35157629D01*
X72516252Y-35157627D01*
X72430180Y-34988703D01*
X72361722Y-34894479D01*
X72318741Y-34835321D01*
X72184679Y-34701259D01*
X72031296Y-34589819D01*
X71862368Y-34503746D01*
X71752139Y-34467930D01*
X71694465Y-34428493D01*
X71667267Y-34364135D01*
X71679182Y-34295288D01*
X71726426Y-34243813D01*
X71752138Y-34232070D01*
X71862368Y-34196254D01*
X72031296Y-34110181D01*
X72184679Y-33998741D01*
X72318741Y-33864679D01*
X72415419Y-33731613D01*
X72470750Y-33688949D01*
X72515737Y-33680500D01*
X74170501Y-33680500D01*
X74237540Y-33700185D01*
X74283295Y-33752989D01*
X74294501Y-33804500D01*
X74294501Y-34180018D01*
X74305000Y-34282796D01*
X74305001Y-34282799D01*
X74360185Y-34449331D01*
X74360187Y-34449336D01*
X74386060Y-34491282D01*
X74452288Y-34598656D01*
X74576344Y-34722712D01*
X74725666Y-34814814D01*
X74892203Y-34869999D01*
X74994991Y-34880500D01*
X76195008Y-34880499D01*
X76297797Y-34869999D01*
X76464334Y-34814814D01*
X76613656Y-34722712D01*
X76737712Y-34598656D01*
X76829814Y-34449334D01*
X76884999Y-34282797D01*
X76895500Y-34180009D01*
X76895499Y-32979992D01*
X76884999Y-32877203D01*
X76829814Y-32710666D01*
X76737712Y-32561344D01*
X76613656Y-32437288D01*
X76464334Y-32345186D01*
X76297797Y-32290001D01*
X76297795Y-32290000D01*
X76195010Y-32279500D01*
X74994998Y-32279500D01*
X74994981Y-32279501D01*
X74892203Y-32290000D01*
X74892200Y-32290001D01*
X74725668Y-32345185D01*
X74725663Y-32345187D01*
X74576342Y-32437289D01*
X74570451Y-32443181D01*
X74509128Y-32476666D01*
X74482770Y-32479500D01*
X72515737Y-32479500D01*
X72448698Y-32459815D01*
X72415419Y-32428386D01*
X72376472Y-32374781D01*
X72318741Y-32295321D01*
X72184679Y-32161259D01*
X72031296Y-32049819D01*
X71862372Y-31963747D01*
X71826925Y-31952229D01*
X71760684Y-31930706D01*
X71752142Y-31927931D01*
X71694466Y-31888495D01*
X71667267Y-31824136D01*
X71668390Y-31817648D01*
X86699500Y-31817648D01*
X86699500Y-32022351D01*
X86731522Y-32224534D01*
X86794781Y-32419223D01*
X86858691Y-32544653D01*
X86867196Y-32561344D01*
X86887715Y-32601613D01*
X87008028Y-32767213D01*
X87152786Y-32911971D01*
X87253578Y-32985199D01*
X87318390Y-33032287D01*
X87413555Y-33080776D01*
X87500776Y-33125218D01*
X87500778Y-33125218D01*
X87500781Y-33125220D01*
X87605137Y-33159127D01*
X87695465Y-33188477D01*
X87796557Y-33204488D01*
X87897648Y-33220500D01*
X87897649Y-33220500D01*
X88102351Y-33220500D01*
X88102352Y-33220500D01*
X88304534Y-33188477D01*
X88499219Y-33125220D01*
X88681610Y-33032287D01*
X88774590Y-32964732D01*
X88847213Y-32911971D01*
X88847215Y-32911968D01*
X88847219Y-32911966D01*
X88991966Y-32767219D01*
X88991968Y-32767215D01*
X88991971Y-32767213D01*
X89100646Y-32617632D01*
X89112287Y-32601610D01*
X89205220Y-32419219D01*
X89268477Y-32224534D01*
X89300500Y-32022352D01*
X89300500Y-31817648D01*
X89274864Y-31655789D01*
X89268477Y-31615465D01*
X89205218Y-31420776D01*
X89156254Y-31324680D01*
X89112287Y-31238390D01*
X89063350Y-31171033D01*
X88991971Y-31072786D01*
X88847213Y-30928028D01*
X88681613Y-30807715D01*
X88681612Y-30807714D01*
X88681610Y-30807713D01*
X88624653Y-30778691D01*
X88499223Y-30714781D01*
X88304534Y-30651522D01*
X88129995Y-30623878D01*
X88102352Y-30619500D01*
X87897648Y-30619500D01*
X87873329Y-30623351D01*
X87695465Y-30651522D01*
X87500776Y-30714781D01*
X87318386Y-30807715D01*
X87152786Y-30928028D01*
X87008028Y-31072786D01*
X86887715Y-31238386D01*
X86794781Y-31420776D01*
X86731522Y-31615465D01*
X86699500Y-31817648D01*
X71668390Y-31817648D01*
X71679181Y-31755290D01*
X71726424Y-31703813D01*
X71752138Y-31692070D01*
X71862368Y-31656254D01*
X72031296Y-31570181D01*
X72184679Y-31458741D01*
X72318741Y-31324679D01*
X72430181Y-31171296D01*
X72516254Y-31002368D01*
X72574842Y-30822055D01*
X72601851Y-30651522D01*
X72604500Y-30634800D01*
X72604500Y-30445199D01*
X72588023Y-30341171D01*
X72574842Y-30257945D01*
X72516254Y-30077632D01*
X72516252Y-30077629D01*
X72516252Y-30077627D01*
X72430180Y-29908703D01*
X72411365Y-29882806D01*
X72318741Y-29755321D01*
X72184679Y-29621259D01*
X72031296Y-29509819D01*
X71862368Y-29423746D01*
X71752139Y-29387930D01*
X71694465Y-29348493D01*
X71667267Y-29284135D01*
X71679182Y-29215288D01*
X71726426Y-29163813D01*
X71752138Y-29152070D01*
X71862368Y-29116254D01*
X72031296Y-29030181D01*
X72184679Y-28918741D01*
X72318741Y-28784679D01*
X72430181Y-28631296D01*
X72516254Y-28462368D01*
X72574842Y-28282055D01*
X72598107Y-28135164D01*
X72604500Y-28094800D01*
X72604500Y-27905199D01*
X72588023Y-27801171D01*
X72574842Y-27717945D01*
X72516254Y-27537632D01*
X72516252Y-27537629D01*
X72516252Y-27537627D01*
X72430180Y-27368703D01*
X72318741Y-27215321D01*
X72184679Y-27081259D01*
X72031296Y-26969819D01*
X71862372Y-26883747D01*
X71803905Y-26864750D01*
X71682055Y-26825158D01*
X71682051Y-26825157D01*
X71682050Y-26825157D01*
X71494800Y-26795500D01*
X71494796Y-26795500D01*
X71305204Y-26795500D01*
X71305200Y-26795500D01*
X71117949Y-26825157D01*
X71117946Y-26825157D01*
X71117945Y-26825158D01*
X71059482Y-26844153D01*
X70937627Y-26883747D01*
X70768703Y-26969819D01*
X70615319Y-27081260D01*
X70481260Y-27215319D01*
X70369819Y-27368703D01*
X70283747Y-27537627D01*
X70225157Y-27717949D01*
X70195500Y-27905199D01*
X70195500Y-28094796D01*
X70201893Y-28135164D01*
X70192937Y-28204457D01*
X70167100Y-28242241D01*
X62754888Y-35654453D01*
X62754884Y-35654458D01*
X62725792Y-35698000D01*
X62714569Y-35714796D01*
X62696334Y-35742086D01*
X62678223Y-35769191D01*
X62625421Y-35896667D01*
X62625418Y-35896677D01*
X62598500Y-36032004D01*
X62598500Y-42359481D01*
X62578815Y-42426520D01*
X62562181Y-42447162D01*
X50812181Y-54197162D01*
X50750858Y-54230647D01*
X50681166Y-54225663D01*
X50625233Y-54183791D01*
X50600816Y-54118327D01*
X50600500Y-54109481D01*
X50600500Y-52807197D01*
X50620185Y-52740158D01*
X50636819Y-52719516D01*
X50733519Y-52622816D01*
X50881520Y-52474816D01*
X50960577Y-52337884D01*
X51001501Y-52185157D01*
X51001501Y-52027042D01*
X51001501Y-52019447D01*
X51001500Y-52019429D01*
X51001500Y-33106197D01*
X51021185Y-33039158D01*
X51037819Y-33018516D01*
X60478516Y-23577819D01*
X60539839Y-23544334D01*
X60566197Y-23541500D01*
X67861943Y-23541500D01*
X67920943Y-23541500D01*
X85369381Y-23541500D01*
X85369397Y-23541501D01*
X85376993Y-23541501D01*
X85535104Y-23541501D01*
X85535107Y-23541501D01*
X85687835Y-23500577D01*
X85737954Y-23471639D01*
X85824766Y-23421520D01*
X85936570Y-23309716D01*
X85936570Y-23309714D01*
X85946778Y-23299507D01*
X85946780Y-23299504D01*
X86469713Y-22776571D01*
X86469716Y-22776570D01*
X86581520Y-22664766D01*
X86581522Y-22664761D01*
X86583229Y-22663055D01*
X86601235Y-22653223D01*
X86644551Y-22629571D01*
X86644553Y-22629571D01*
X86653855Y-22630236D01*
X86714243Y-22634555D01*
X86770177Y-22676426D01*
X86771181Y-22677787D01*
X86778034Y-22687219D01*
X86778037Y-22687222D01*
X86922786Y-22831971D01*
X87077749Y-22944556D01*
X87088390Y-22952287D01*
X87204607Y-23011503D01*
X87270776Y-23045218D01*
X87270778Y-23045218D01*
X87270781Y-23045220D01*
X87375137Y-23079127D01*
X87465465Y-23108477D01*
X87566557Y-23124488D01*
X87667648Y-23140500D01*
X87667649Y-23140500D01*
X87872351Y-23140500D01*
X87872352Y-23140500D01*
X88074534Y-23108477D01*
X88269219Y-23045220D01*
X88451610Y-22952287D01*
X88544590Y-22884732D01*
X88617213Y-22831971D01*
X88617215Y-22831968D01*
X88617219Y-22831966D01*
X88761966Y-22687219D01*
X88761968Y-22687215D01*
X88761971Y-22687213D01*
X88877764Y-22527835D01*
X88882287Y-22521610D01*
X88975220Y-22339219D01*
X89037069Y-22148868D01*
X89076507Y-22091193D01*
X89140866Y-22063995D01*
X89209712Y-22075910D01*
X89261188Y-22123154D01*
X89272931Y-22148868D01*
X89334781Y-22339223D01*
X89427715Y-22521613D01*
X89548028Y-22687213D01*
X89692786Y-22831971D01*
X89847749Y-22944556D01*
X89858390Y-22952287D01*
X89974607Y-23011503D01*
X90040776Y-23045218D01*
X90040778Y-23045218D01*
X90040781Y-23045220D01*
X90145137Y-23079127D01*
X90235465Y-23108477D01*
X90336557Y-23124488D01*
X90437648Y-23140500D01*
X90437649Y-23140500D01*
X90642351Y-23140500D01*
X90642352Y-23140500D01*
X90844534Y-23108477D01*
X91039219Y-23045220D01*
X91221610Y-22952287D01*
X91314590Y-22884732D01*
X91387213Y-22831971D01*
X91387215Y-22831968D01*
X91387219Y-22831966D01*
X91531966Y-22687219D01*
X91531968Y-22687215D01*
X91531971Y-22687213D01*
X91647764Y-22527835D01*
X91652287Y-22521610D01*
X91745220Y-22339219D01*
X91807069Y-22148868D01*
X91846507Y-22091193D01*
X91910866Y-22063995D01*
X91979712Y-22075910D01*
X92031188Y-22123154D01*
X92042931Y-22148868D01*
X92104781Y-22339223D01*
X92197715Y-22521613D01*
X92318028Y-22687213D01*
X92462786Y-22831971D01*
X92617749Y-22944556D01*
X92628390Y-22952287D01*
X92744607Y-23011503D01*
X92810776Y-23045218D01*
X92810778Y-23045218D01*
X92810781Y-23045220D01*
X92915137Y-23079127D01*
X93005465Y-23108477D01*
X93106557Y-23124488D01*
X93207648Y-23140500D01*
X93207649Y-23140500D01*
X93412351Y-23140500D01*
X93412352Y-23140500D01*
X93614534Y-23108477D01*
X93809219Y-23045220D01*
X93991610Y-22952287D01*
X94084590Y-22884732D01*
X94157213Y-22831971D01*
X94157215Y-22831968D01*
X94157219Y-22831966D01*
X94301966Y-22687219D01*
X94301968Y-22687215D01*
X94301971Y-22687213D01*
X94417764Y-22527835D01*
X94422287Y-22521610D01*
X94515220Y-22339219D01*
X94578477Y-22144534D01*
X94610500Y-21942352D01*
X94610500Y-21737648D01*
X94578477Y-21535466D01*
X94577068Y-21531131D01*
X94549127Y-21445137D01*
X94515220Y-21340781D01*
X94515218Y-21340778D01*
X94515218Y-21340776D01*
X94481503Y-21274607D01*
X94422287Y-21158390D01*
X94389540Y-21113317D01*
X94301971Y-20992786D01*
X94157213Y-20848028D01*
X93991613Y-20727715D01*
X93991612Y-20727714D01*
X93991610Y-20727713D01*
X93934653Y-20698691D01*
X93809223Y-20634781D01*
X93614534Y-20571522D01*
X93439995Y-20543878D01*
X93412352Y-20539500D01*
X93207648Y-20539500D01*
X93183329Y-20543351D01*
X93005465Y-20571522D01*
X92810776Y-20634781D01*
X92628386Y-20727715D01*
X92462786Y-20848028D01*
X92318028Y-20992786D01*
X92197715Y-21158386D01*
X92104781Y-21340776D01*
X92042931Y-21531131D01*
X92003493Y-21588806D01*
X91939134Y-21616004D01*
X91870288Y-21604089D01*
X91818812Y-21556845D01*
X91807069Y-21531131D01*
X91745218Y-21340776D01*
X91711503Y-21274607D01*
X91652287Y-21158390D01*
X91619540Y-21113317D01*
X91531971Y-20992786D01*
X91387213Y-20848028D01*
X91221613Y-20727715D01*
X91221612Y-20727714D01*
X91221610Y-20727713D01*
X91164653Y-20698691D01*
X91039223Y-20634781D01*
X90844534Y-20571522D01*
X90669995Y-20543878D01*
X90642352Y-20539500D01*
X90437648Y-20539500D01*
X90413329Y-20543351D01*
X90235465Y-20571522D01*
X90040776Y-20634781D01*
X89858386Y-20727715D01*
X89692786Y-20848028D01*
X89548028Y-20992786D01*
X89427715Y-21158386D01*
X89334781Y-21340776D01*
X89272931Y-21531131D01*
X89233493Y-21588806D01*
X89169134Y-21616004D01*
X89100288Y-21604089D01*
X89048812Y-21556845D01*
X89037069Y-21531131D01*
X88975218Y-21340776D01*
X88941503Y-21274607D01*
X88882287Y-21158390D01*
X88849540Y-21113317D01*
X88761971Y-20992786D01*
X88617213Y-20848028D01*
X88451613Y-20727715D01*
X88451612Y-20727714D01*
X88451610Y-20727713D01*
X88394653Y-20698691D01*
X88269223Y-20634781D01*
X88074534Y-20571522D01*
X87899995Y-20543878D01*
X87872352Y-20539500D01*
X87667648Y-20539500D01*
X87647386Y-20542709D01*
X87578093Y-20533754D01*
X87524641Y-20488758D01*
X87504002Y-20422006D01*
X87522727Y-20354692D01*
X87540304Y-20332559D01*
X88006660Y-19866203D01*
X88067981Y-19832720D01*
X88137673Y-19837704D01*
X88182020Y-19866205D01*
X88307786Y-19991971D01*
X88428226Y-20079474D01*
X88473390Y-20112287D01*
X88558956Y-20155885D01*
X88655776Y-20205218D01*
X88655778Y-20205218D01*
X88655781Y-20205220D01*
X88760137Y-20239127D01*
X88850465Y-20268477D01*
X88920516Y-20279572D01*
X89052648Y-20300500D01*
X89052649Y-20300500D01*
X89257351Y-20300500D01*
X89257352Y-20300500D01*
X89459534Y-20268477D01*
X89654219Y-20205220D01*
X89836610Y-20112287D01*
X89932901Y-20042328D01*
X90002213Y-19991971D01*
X90002215Y-19991968D01*
X90002219Y-19991966D01*
X90146966Y-19847219D01*
X90146968Y-19847215D01*
X90146971Y-19847213D01*
X90204780Y-19767644D01*
X90267287Y-19681610D01*
X90360220Y-19499219D01*
X90422069Y-19308868D01*
X90461507Y-19251193D01*
X90525866Y-19223995D01*
X90594712Y-19235910D01*
X90646188Y-19283154D01*
X90657931Y-19308868D01*
X90719781Y-19499223D01*
X90783691Y-19624653D01*
X90812585Y-19681359D01*
X90812715Y-19681613D01*
X90933028Y-19847213D01*
X91077786Y-19991971D01*
X91198226Y-20079474D01*
X91243390Y-20112287D01*
X91328956Y-20155885D01*
X91425776Y-20205218D01*
X91425778Y-20205218D01*
X91425781Y-20205220D01*
X91530137Y-20239127D01*
X91620465Y-20268477D01*
X91690516Y-20279572D01*
X91822648Y-20300500D01*
X91822649Y-20300500D01*
X92027351Y-20300500D01*
X92027352Y-20300500D01*
X92229534Y-20268477D01*
X92424219Y-20205220D01*
X92606610Y-20112287D01*
X92702901Y-20042328D01*
X92772213Y-19991971D01*
X92772215Y-19991968D01*
X92772219Y-19991966D01*
X92916966Y-19847219D01*
X92916968Y-19847215D01*
X92916971Y-19847213D01*
X92974780Y-19767644D01*
X93037287Y-19681610D01*
X93130220Y-19499219D01*
X93192331Y-19308060D01*
X93231769Y-19250385D01*
X93296127Y-19223187D01*
X93364974Y-19235102D01*
X93416449Y-19282346D01*
X93428193Y-19308060D01*
X93490244Y-19499031D01*
X93583141Y-19681350D01*
X93583147Y-19681359D01*
X93615523Y-19725921D01*
X93615524Y-19725922D01*
X94212037Y-19129408D01*
X94229075Y-19192993D01*
X94294901Y-19307007D01*
X94387993Y-19400099D01*
X94502007Y-19465925D01*
X94565590Y-19482962D01*
X93969076Y-20079474D01*
X94013650Y-20111859D01*
X94195968Y-20204755D01*
X94390582Y-20267990D01*
X94592683Y-20300000D01*
X94797317Y-20300000D01*
X94926318Y-20279568D01*
X99154500Y-20279568D01*
X99154500Y-20560431D01*
X99185942Y-20839494D01*
X99185945Y-20839512D01*
X99248439Y-21113317D01*
X99248443Y-21113329D01*
X99341200Y-21378411D01*
X99463053Y-21631442D01*
X99463055Y-21631445D01*
X99612477Y-21869248D01*
X99670775Y-21942351D01*
X99777284Y-22075910D01*
X99787584Y-22088825D01*
X99986175Y-22287416D01*
X100205752Y-22462523D01*
X100443555Y-22611945D01*
X100696592Y-22733801D01*
X100848003Y-22786782D01*
X100961670Y-22826556D01*
X100961682Y-22826560D01*
X101235491Y-22889055D01*
X101235497Y-22889055D01*
X101235505Y-22889057D01*
X101421547Y-22910018D01*
X101514569Y-22920499D01*
X101514572Y-22920500D01*
X101514575Y-22920500D01*
X101795428Y-22920500D01*
X101795429Y-22920499D01*
X101938055Y-22904429D01*
X102074494Y-22889057D01*
X102074499Y-22889056D01*
X102074509Y-22889055D01*
X102348318Y-22826560D01*
X102613408Y-22733801D01*
X102866445Y-22611945D01*
X103104248Y-22462523D01*
X103323825Y-22287416D01*
X103522416Y-22088825D01*
X103697523Y-21869248D01*
X103846945Y-21631445D01*
X103968801Y-21378408D01*
X104061560Y-21113318D01*
X104124055Y-20839509D01*
X104155500Y-20560425D01*
X104155500Y-20279575D01*
X104128770Y-20042335D01*
X104124057Y-20000505D01*
X104124054Y-20000487D01*
X104061560Y-19726682D01*
X104061556Y-19726670D01*
X104038465Y-19660680D01*
X103968801Y-19461592D01*
X103846945Y-19208555D01*
X103697523Y-18970752D01*
X103522416Y-18751175D01*
X103323825Y-18552584D01*
X103302802Y-18535819D01*
X103223247Y-18472376D01*
X103104248Y-18377477D01*
X102866445Y-18228055D01*
X102866442Y-18228053D01*
X102613411Y-18106200D01*
X102348329Y-18013443D01*
X102348317Y-18013439D01*
X102074512Y-17950945D01*
X102074494Y-17950942D01*
X101795431Y-17919500D01*
X101795425Y-17919500D01*
X101514575Y-17919500D01*
X101514568Y-17919500D01*
X101235505Y-17950942D01*
X101235487Y-17950945D01*
X100961682Y-18013439D01*
X100961670Y-18013443D01*
X100696588Y-18106200D01*
X100443557Y-18228053D01*
X100205753Y-18377476D01*
X99986175Y-18552583D01*
X99787583Y-18751175D01*
X99612476Y-18970753D01*
X99463053Y-19208557D01*
X99341200Y-19461588D01*
X99248443Y-19726670D01*
X99248439Y-19726682D01*
X99185945Y-20000487D01*
X99185942Y-20000505D01*
X99154500Y-20279568D01*
X94926318Y-20279568D01*
X94999417Y-20267990D01*
X95194031Y-20204755D01*
X95270856Y-20165611D01*
X95376349Y-20111859D01*
X95420921Y-20079474D01*
X94824409Y-19482962D01*
X94887993Y-19465925D01*
X95002007Y-19400099D01*
X95095099Y-19307007D01*
X95160925Y-19192993D01*
X95177962Y-19129409D01*
X95774474Y-19725921D01*
X95806859Y-19681349D01*
X95899755Y-19499031D01*
X95962990Y-19304417D01*
X95995000Y-19102317D01*
X95995000Y-18897682D01*
X95962990Y-18695582D01*
X95899755Y-18500968D01*
X95806859Y-18318650D01*
X95774474Y-18274077D01*
X95774474Y-18274076D01*
X95177962Y-18870589D01*
X95160925Y-18807007D01*
X95095099Y-18692993D01*
X95002007Y-18599901D01*
X94887993Y-18534075D01*
X94824408Y-18517037D01*
X95420922Y-17920524D01*
X95420921Y-17920523D01*
X95376359Y-17888147D01*
X95376350Y-17888141D01*
X95194031Y-17795244D01*
X94999417Y-17732009D01*
X94797317Y-17700000D01*
X94592683Y-17700000D01*
X94390582Y-17732009D01*
X94195968Y-17795244D01*
X94013644Y-17888143D01*
X93969077Y-17920523D01*
X93969077Y-17920524D01*
X94565591Y-18517037D01*
X94502007Y-18534075D01*
X94387993Y-18599901D01*
X94294901Y-18692993D01*
X94229075Y-18807007D01*
X94212037Y-18870590D01*
X93615524Y-18274077D01*
X93615523Y-18274077D01*
X93583143Y-18318644D01*
X93490244Y-18500968D01*
X93428193Y-18691939D01*
X93388755Y-18749614D01*
X93324396Y-18776812D01*
X93255550Y-18764897D01*
X93204074Y-18717652D01*
X93192331Y-18691938D01*
X93162426Y-18599901D01*
X93130220Y-18500781D01*
X93037287Y-18318390D01*
X93005092Y-18274077D01*
X92916971Y-18152786D01*
X92772213Y-18008028D01*
X92606613Y-17887715D01*
X92606612Y-17887714D01*
X92606610Y-17887713D01*
X92549653Y-17858691D01*
X92424223Y-17794781D01*
X92229534Y-17731522D01*
X92054995Y-17703878D01*
X92027352Y-17699500D01*
X91822648Y-17699500D01*
X91798329Y-17703351D01*
X91620465Y-17731522D01*
X91425776Y-17794781D01*
X91243386Y-17887715D01*
X91077786Y-18008028D01*
X90933028Y-18152786D01*
X90812715Y-18318386D01*
X90719781Y-18500776D01*
X90657931Y-18691131D01*
X90618493Y-18748806D01*
X90554134Y-18776004D01*
X90485288Y-18764089D01*
X90433812Y-18716845D01*
X90422069Y-18691131D01*
X90377051Y-18552583D01*
X90360220Y-18500781D01*
X90360218Y-18500778D01*
X90360218Y-18500776D01*
X90322965Y-18427664D01*
X90267287Y-18318390D01*
X90235092Y-18274077D01*
X90146971Y-18152786D01*
X90002213Y-18008028D01*
X89836613Y-17887715D01*
X89836612Y-17887714D01*
X89836610Y-17887713D01*
X89779653Y-17858691D01*
X89654223Y-17794781D01*
X89459534Y-17731522D01*
X89284995Y-17703878D01*
X89257352Y-17699500D01*
X89052648Y-17699500D01*
X89028329Y-17703351D01*
X88850465Y-17731522D01*
X88655776Y-17794781D01*
X88473386Y-17887715D01*
X88307786Y-18008028D01*
X88163028Y-18152786D01*
X88042713Y-18318388D01*
X88035086Y-18333357D01*
X87987111Y-18384151D01*
X87952083Y-18396135D01*
X87952421Y-18397397D01*
X87903649Y-18410464D01*
X87903649Y-18410465D01*
X87847747Y-18425444D01*
X87791845Y-18440423D01*
X87725449Y-18478757D01*
X87657549Y-18495229D01*
X87591522Y-18472376D01*
X87552965Y-18427664D01*
X87544201Y-18410464D01*
X87497287Y-18318390D01*
X87465092Y-18274077D01*
X87376971Y-18152786D01*
X87232213Y-18008028D01*
X87066613Y-17887715D01*
X87066612Y-17887714D01*
X87066610Y-17887713D01*
X87009653Y-17858691D01*
X86884223Y-17794781D01*
X86689534Y-17731522D01*
X86514995Y-17703878D01*
X86487352Y-17699500D01*
X86282648Y-17699500D01*
X86244599Y-17705526D01*
X86080468Y-17731522D01*
X86071717Y-17734365D01*
X86066154Y-17736173D01*
X86050941Y-17736607D01*
X86036684Y-17741925D01*
X86016729Y-17737584D01*
X85996313Y-17738167D01*
X85982226Y-17730078D01*
X85968411Y-17727073D01*
X85940157Y-17705922D01*
X85771590Y-17537355D01*
X85771588Y-17537352D01*
X85652717Y-17418481D01*
X85652716Y-17418480D01*
X85565904Y-17368360D01*
X85565904Y-17368359D01*
X85565900Y-17368358D01*
X85515785Y-17339423D01*
X85363057Y-17298499D01*
X85204943Y-17298499D01*
X85197347Y-17298499D01*
X85197331Y-17298500D01*
X64820057Y-17298500D01*
X64661943Y-17298500D01*
X64509215Y-17339423D01*
X64509214Y-17339423D01*
X64509212Y-17339424D01*
X64509209Y-17339425D01*
X64459096Y-17368359D01*
X64459095Y-17368360D01*
X64415689Y-17393420D01*
X64372285Y-17418479D01*
X64372282Y-17418481D01*
X49519479Y-32271284D01*
X49505602Y-32295321D01*
X49478827Y-32341698D01*
X49476813Y-32345187D01*
X49440423Y-32408214D01*
X49431054Y-32443181D01*
X49399499Y-32560943D01*
X49399499Y-32560945D01*
X49399499Y-32729046D01*
X49399500Y-32729059D01*
X49399500Y-51639902D01*
X49379815Y-51706941D01*
X49363181Y-51727583D01*
X47400684Y-53690079D01*
X47339361Y-53723564D01*
X47269669Y-53718580D01*
X47213736Y-53676708D01*
X47189319Y-53611244D01*
X47190530Y-53582999D01*
X47191764Y-53575213D01*
X47203766Y-53499433D01*
X47204500Y-53494799D01*
X47204500Y-53305199D01*
X47182541Y-53166557D01*
X47174842Y-53117945D01*
X47116254Y-52937632D01*
X47116252Y-52937629D01*
X47116252Y-52937627D01*
X47070846Y-52848515D01*
X47030181Y-52768704D01*
X46918741Y-52615321D01*
X46784679Y-52481259D01*
X46631296Y-52369819D01*
X46462368Y-52283746D01*
X46352139Y-52247930D01*
X46294465Y-52208493D01*
X46267267Y-52144135D01*
X46279182Y-52075288D01*
X46326426Y-52023813D01*
X46352138Y-52012070D01*
X46462368Y-51976254D01*
X46631296Y-51890181D01*
X46784679Y-51778741D01*
X46918741Y-51644679D01*
X47030181Y-51491296D01*
X47116254Y-51322368D01*
X47174842Y-51142055D01*
X47202409Y-50968000D01*
X47204500Y-50954800D01*
X47204500Y-50765199D01*
X47182541Y-50626557D01*
X47174842Y-50577945D01*
X47116254Y-50397632D01*
X47116252Y-50397629D01*
X47116252Y-50397627D01*
X47062502Y-50292138D01*
X47030181Y-50228704D01*
X46918741Y-50075321D01*
X46784679Y-49941259D01*
X46631296Y-49829819D01*
X46462368Y-49743746D01*
X46352139Y-49707930D01*
X46294465Y-49668493D01*
X46267267Y-49604135D01*
X46279182Y-49535288D01*
X46326426Y-49483813D01*
X46352138Y-49472070D01*
X46462368Y-49436254D01*
X46631296Y-49350181D01*
X46784679Y-49238741D01*
X46918741Y-49104679D01*
X47030181Y-48951296D01*
X47116254Y-48782368D01*
X47174842Y-48602055D01*
X47191764Y-48495208D01*
X47204500Y-48414800D01*
X47204500Y-48225199D01*
X47181319Y-48078842D01*
X47174842Y-48037945D01*
X47116254Y-47857632D01*
X47116252Y-47857629D01*
X47116252Y-47857627D01*
X47030180Y-47688703D01*
X46988464Y-47631286D01*
X46918741Y-47535321D01*
X46784679Y-47401259D01*
X46631296Y-47289819D01*
X46545989Y-47246353D01*
X46462370Y-47203747D01*
X46462369Y-47203746D01*
X46462368Y-47203746D01*
X46352139Y-47167930D01*
X46294465Y-47128493D01*
X46267267Y-47064135D01*
X46279182Y-46995288D01*
X46326426Y-46943813D01*
X46352138Y-46932070D01*
X46462368Y-46896254D01*
X46631296Y-46810181D01*
X46784679Y-46698741D01*
X46918741Y-46564679D01*
X47030181Y-46411296D01*
X47116254Y-46242368D01*
X47174842Y-46062055D01*
X47191764Y-45955213D01*
X47204500Y-45874800D01*
X47204500Y-45685199D01*
X47183057Y-45549813D01*
X47174842Y-45497945D01*
X47116254Y-45317632D01*
X47116252Y-45317629D01*
X47116252Y-45317627D01*
X47045872Y-45179500D01*
X47030181Y-45148704D01*
X46918741Y-44995321D01*
X46784679Y-44861259D01*
X46631296Y-44749819D01*
X46462368Y-44663746D01*
X46352139Y-44627930D01*
X46294465Y-44588493D01*
X46267267Y-44524135D01*
X46279182Y-44455288D01*
X46326426Y-44403813D01*
X46352138Y-44392070D01*
X46462368Y-44356254D01*
X46631296Y-44270181D01*
X46784679Y-44158741D01*
X46918741Y-44024679D01*
X47030181Y-43871296D01*
X47116254Y-43702368D01*
X47174842Y-43522055D01*
X47196952Y-43382454D01*
X47204500Y-43334799D01*
X47204500Y-43145199D01*
X47184539Y-43019172D01*
X47174842Y-42957945D01*
X47116254Y-42777632D01*
X47116252Y-42777629D01*
X47116252Y-42777627D01*
X47053595Y-42654657D01*
X47030181Y-42608704D01*
X46918741Y-42455321D01*
X46784679Y-42321259D01*
X46631296Y-42209819D01*
X46462368Y-42123746D01*
X46352139Y-42087930D01*
X46294465Y-42048493D01*
X46267267Y-41984135D01*
X46279182Y-41915288D01*
X46326426Y-41863813D01*
X46352138Y-41852070D01*
X46462368Y-41816254D01*
X46631296Y-41730181D01*
X46784679Y-41618741D01*
X46918741Y-41484679D01*
X47030181Y-41331296D01*
X47116254Y-41162368D01*
X47174842Y-40982055D01*
X47193339Y-40865264D01*
X47204500Y-40794800D01*
X47204500Y-40605199D01*
X47188023Y-40501171D01*
X47174842Y-40417945D01*
X47116254Y-40237632D01*
X47116252Y-40237629D01*
X47116252Y-40237627D01*
X47070846Y-40148515D01*
X47030181Y-40068704D01*
X46918741Y-39915321D01*
X46784679Y-39781259D01*
X46631296Y-39669819D01*
X46462368Y-39583746D01*
X46352139Y-39547930D01*
X46294465Y-39508493D01*
X46267267Y-39444135D01*
X46279182Y-39375288D01*
X46326426Y-39323813D01*
X46352138Y-39312070D01*
X46462368Y-39276254D01*
X46631296Y-39190181D01*
X46784679Y-39078741D01*
X46918741Y-38944679D01*
X47030181Y-38791296D01*
X47116254Y-38622368D01*
X47174842Y-38442055D01*
X47195516Y-38311522D01*
X47204500Y-38254800D01*
X47204500Y-38065199D01*
X47183182Y-37930602D01*
X47174842Y-37877945D01*
X47116254Y-37697632D01*
X47116252Y-37697629D01*
X47116252Y-37697627D01*
X47030180Y-37528703D01*
X47015419Y-37508386D01*
X46918741Y-37375321D01*
X46784679Y-37241259D01*
X46631296Y-37129819D01*
X46462368Y-37043746D01*
X46352139Y-37007930D01*
X46294465Y-36968493D01*
X46267267Y-36904135D01*
X46279182Y-36835288D01*
X46326426Y-36783813D01*
X46352138Y-36772070D01*
X46462368Y-36736254D01*
X46631296Y-36650181D01*
X46784679Y-36538741D01*
X46918741Y-36404679D01*
X47030181Y-36251296D01*
X47116254Y-36082368D01*
X47174842Y-35902055D01*
X47204500Y-35714796D01*
X47204500Y-35525204D01*
X47204500Y-35525199D01*
X47187554Y-35418210D01*
X47174842Y-35337945D01*
X47116254Y-35157632D01*
X47116252Y-35157629D01*
X47116252Y-35157627D01*
X47030180Y-34988703D01*
X46961722Y-34894479D01*
X46918741Y-34835321D01*
X46784679Y-34701259D01*
X46631296Y-34589819D01*
X46462368Y-34503746D01*
X46352139Y-34467930D01*
X46294465Y-34428493D01*
X46267267Y-34364135D01*
X46279182Y-34295288D01*
X46326426Y-34243813D01*
X46352138Y-34232070D01*
X46462368Y-34196254D01*
X46631296Y-34110181D01*
X46784679Y-33998741D01*
X46918741Y-33864679D01*
X47030181Y-33711296D01*
X47116254Y-33542368D01*
X47174842Y-33362055D01*
X47191318Y-33258022D01*
X47204500Y-33174800D01*
X47204500Y-32985199D01*
X47187394Y-32877200D01*
X47174842Y-32797945D01*
X47116254Y-32617632D01*
X47116252Y-32617629D01*
X47116252Y-32617627D01*
X47044428Y-32476666D01*
X47030181Y-32448704D01*
X46918741Y-32295321D01*
X46784679Y-32161259D01*
X46631296Y-32049819D01*
X46462372Y-31963747D01*
X46424244Y-31951358D01*
X46351329Y-31927666D01*
X46293656Y-31888230D01*
X46266458Y-31823871D01*
X46278373Y-31755025D01*
X46325617Y-31703549D01*
X46351332Y-31691806D01*
X46462183Y-31655788D01*
X46462184Y-31655787D01*
X46631027Y-31569756D01*
X46631043Y-31569746D01*
X46657192Y-31550746D01*
X46657193Y-31550745D01*
X46088585Y-30982137D01*
X46173694Y-30959333D01*
X46276306Y-30900090D01*
X46360090Y-30816306D01*
X46419333Y-30713694D01*
X46442137Y-30628585D01*
X47010745Y-31197193D01*
X47010746Y-31197192D01*
X47029746Y-31171043D01*
X47029756Y-31171027D01*
X47115787Y-31002184D01*
X47115788Y-31002182D01*
X47174354Y-30821937D01*
X47204000Y-30634762D01*
X47204000Y-30445237D01*
X47174354Y-30258062D01*
X47115789Y-30077821D01*
X47029752Y-29908966D01*
X47010745Y-29882806D01*
X46442137Y-30451414D01*
X46419333Y-30366306D01*
X46360090Y-30263694D01*
X46276306Y-30179910D01*
X46173694Y-30120667D01*
X46088584Y-30097861D01*
X46657193Y-29529253D01*
X46631033Y-29510246D01*
X46462180Y-29424210D01*
X46351331Y-29388193D01*
X46293656Y-29348755D01*
X46266458Y-29284396D01*
X46278373Y-29215550D01*
X46325617Y-29164074D01*
X46351322Y-29152335D01*
X46462368Y-29116254D01*
X46631296Y-29030181D01*
X46784679Y-28918741D01*
X46918741Y-28784679D01*
X47030181Y-28631296D01*
X47116254Y-28462368D01*
X47174842Y-28282055D01*
X47198107Y-28135164D01*
X47204500Y-28094800D01*
X47204500Y-27905199D01*
X47188023Y-27801171D01*
X47174842Y-27717945D01*
X47116254Y-27537632D01*
X47116252Y-27537629D01*
X47116252Y-27537627D01*
X47030180Y-27368703D01*
X46918741Y-27215321D01*
X46784679Y-27081259D01*
X46631296Y-26969819D01*
X46462372Y-26883747D01*
X46403905Y-26864750D01*
X46282055Y-26825158D01*
X46282051Y-26825157D01*
X46282050Y-26825157D01*
X46094800Y-26795500D01*
X46094796Y-26795500D01*
X45905204Y-26795500D01*
X45905200Y-26795500D01*
X45717949Y-26825157D01*
X45717946Y-26825157D01*
X45717945Y-26825158D01*
X45659482Y-26844153D01*
X45537627Y-26883747D01*
X45368703Y-26969819D01*
X45215319Y-27081260D01*
X45081260Y-27215319D01*
X44969819Y-27368703D01*
X44883747Y-27537627D01*
X44825157Y-27717949D01*
X44795500Y-27905199D01*
X44795500Y-28094800D01*
X44812868Y-28204457D01*
X44825158Y-28282055D01*
X44864750Y-28403905D01*
X44883747Y-28462372D01*
X44969819Y-28631296D01*
X45081259Y-28784679D01*
X45215321Y-28918741D01*
X45368704Y-29030181D01*
X45537632Y-29116254D01*
X45648669Y-29152332D01*
X45706342Y-29191768D01*
X45733541Y-29256127D01*
X45721626Y-29324973D01*
X45674382Y-29376449D01*
X45648668Y-29388193D01*
X45537820Y-29424210D01*
X45368969Y-29510245D01*
X45342806Y-29529253D01*
X45911415Y-30097861D01*
X45826306Y-30120667D01*
X45723694Y-30179910D01*
X45639910Y-30263694D01*
X45580667Y-30366306D01*
X45557861Y-30451414D01*
X44989253Y-29882806D01*
X44970245Y-29908969D01*
X44884210Y-30077821D01*
X44825645Y-30258062D01*
X44796000Y-30445237D01*
X44796000Y-30634762D01*
X44825645Y-30821937D01*
X44884210Y-31002178D01*
X44970246Y-31171033D01*
X44989253Y-31197192D01*
X44989253Y-31197193D01*
X45557861Y-30628584D01*
X45580667Y-30713694D01*
X45639910Y-30816306D01*
X45723694Y-30900090D01*
X45826306Y-30959333D01*
X45911414Y-30982137D01*
X45342806Y-31550745D01*
X45342806Y-31550746D01*
X45368966Y-31569752D01*
X45537821Y-31655789D01*
X45648667Y-31691806D01*
X45706343Y-31731244D01*
X45733541Y-31795602D01*
X45721626Y-31864449D01*
X45674382Y-31915924D01*
X45648669Y-31927667D01*
X45617091Y-31937927D01*
X45537627Y-31963747D01*
X45368703Y-32049819D01*
X45215319Y-32161260D01*
X45081260Y-32295319D01*
X44969819Y-32448703D01*
X44883747Y-32617627D01*
X44825157Y-32797949D01*
X44795500Y-32985199D01*
X44795500Y-33174800D01*
X44811444Y-33275465D01*
X44825158Y-33362055D01*
X44862717Y-33477648D01*
X44883747Y-33542372D01*
X44955071Y-33682351D01*
X44969819Y-33711296D01*
X45081259Y-33864679D01*
X45215321Y-33998741D01*
X45368704Y-34110181D01*
X45422770Y-34137729D01*
X45537627Y-34196252D01*
X45537629Y-34196252D01*
X45537632Y-34196254D01*
X45647860Y-34232069D01*
X45705534Y-34271507D01*
X45732732Y-34335866D01*
X45720817Y-34404712D01*
X45673573Y-34456188D01*
X45647861Y-34467929D01*
X45605838Y-34481583D01*
X45537627Y-34503747D01*
X45368703Y-34589819D01*
X45215319Y-34701260D01*
X45081260Y-34835319D01*
X44969819Y-34988703D01*
X44883747Y-35157627D01*
X44825157Y-35337949D01*
X44795500Y-35525199D01*
X44795500Y-35714797D01*
X44795499Y-35714799D01*
X44000000Y-35714799D01*
X44000000Y-14893713D01*
X44649500Y-14893713D01*
X44649500Y-15106286D01*
X44677081Y-15280430D01*
X44682754Y-15316243D01*
X44742207Y-15499221D01*
X44748444Y-15518414D01*
X44844951Y-15707820D01*
X44969890Y-15879786D01*
X45120213Y-16030109D01*
X45292179Y-16155048D01*
X45292181Y-16155049D01*
X45292184Y-16155051D01*
X45481588Y-16251557D01*
X45683757Y-16317246D01*
X45893713Y-16350500D01*
X45893714Y-16350500D01*
X46106286Y-16350500D01*
X46106287Y-16350500D01*
X46316243Y-16317246D01*
X46518412Y-16251557D01*
X46707816Y-16155051D01*
X46766680Y-16112284D01*
X46879786Y-16030109D01*
X46879788Y-16030106D01*
X46879792Y-16030104D01*
X47030104Y-15879792D01*
X47030106Y-15879788D01*
X47030109Y-15879786D01*
X47155048Y-15707820D01*
X47155047Y-15707820D01*
X47155051Y-15707816D01*
X47251557Y-15518412D01*
X47317246Y-15316243D01*
X47350500Y-15106287D01*
X47350500Y-14893713D01*
X47317246Y-14683757D01*
X47251557Y-14481588D01*
X47155051Y-14292184D01*
X47155049Y-14292181D01*
X47155048Y-14292179D01*
X47030109Y-14120213D01*
X46879786Y-13969890D01*
X46707820Y-13844951D01*
X46518414Y-13748444D01*
X46518413Y-13748443D01*
X46518412Y-13748443D01*
X46316243Y-13682754D01*
X46316241Y-13682753D01*
X46316240Y-13682753D01*
X46154957Y-13657208D01*
X46106287Y-13649500D01*
X45893713Y-13649500D01*
X45845042Y-13657208D01*
X45683760Y-13682753D01*
X45481585Y-13748444D01*
X45292179Y-13844951D01*
X45120213Y-13969890D01*
X44969890Y-14120213D01*
X44844951Y-14292179D01*
X44748444Y-14481585D01*
X44682753Y-14683760D01*
X44649500Y-14893713D01*
X44000000Y-14893713D01*
X44000000Y-12624500D01*
X44019685Y-12557461D01*
X44072489Y-12511706D01*
X44124000Y-12500500D01*
X104375500Y-12500500D01*
X104442539Y-12520185D01*
G37*
G04 #@! TD.AperFunction*
G04 #@! TA.AperFunction,Conductor*
G36*
X35773094Y-27103654D02*
G01*
X35829027Y-27145526D01*
X35853444Y-27210990D01*
X35852233Y-27239234D01*
X35847500Y-27269117D01*
X35847500Y-27465882D01*
X35878278Y-27660205D01*
X35939081Y-27847335D01*
X36028405Y-28022645D01*
X36053819Y-28057625D01*
X36053820Y-28057625D01*
X36697500Y-27413945D01*
X36697500Y-27420161D01*
X36724759Y-27521894D01*
X36777420Y-27613106D01*
X36851894Y-27687580D01*
X36943106Y-27740241D01*
X37044839Y-27767500D01*
X37051053Y-27767500D01*
X36407373Y-28411177D01*
X36407373Y-28411178D01*
X36442360Y-28436597D01*
X36619814Y-28527014D01*
X36670611Y-28574988D01*
X36687406Y-28642809D01*
X36664869Y-28708944D01*
X36619815Y-28747984D01*
X36442359Y-28838402D01*
X36407373Y-28863820D01*
X36407372Y-28863820D01*
X37051054Y-29507500D01*
X37044839Y-29507500D01*
X36943106Y-29534759D01*
X36851894Y-29587420D01*
X36777420Y-29661894D01*
X36724759Y-29753106D01*
X36697500Y-29854839D01*
X36697500Y-29861052D01*
X36053820Y-29217372D01*
X36053820Y-29217373D01*
X36028402Y-29252359D01*
X36028399Y-29252363D01*
X35939082Y-29427661D01*
X35878278Y-29614794D01*
X35847500Y-29809117D01*
X35847500Y-30005882D01*
X35878278Y-30200205D01*
X35939081Y-30387335D01*
X36028405Y-30562645D01*
X36053819Y-30597625D01*
X36053820Y-30597625D01*
X36697500Y-29953945D01*
X36697500Y-29960161D01*
X36724759Y-30061894D01*
X36777420Y-30153106D01*
X36851894Y-30227580D01*
X36943106Y-30280241D01*
X37044839Y-30307500D01*
X37051053Y-30307500D01*
X36407373Y-30951177D01*
X36407373Y-30951178D01*
X36442358Y-30976596D01*
X36539349Y-31026015D01*
X36590145Y-31073989D01*
X36606940Y-31141810D01*
X36584403Y-31207945D01*
X36529688Y-31251397D01*
X36483054Y-31260500D01*
X33375476Y-31260500D01*
X33308437Y-31240815D01*
X33262682Y-31188011D01*
X33252738Y-31118853D01*
X33257545Y-31098183D01*
X33268475Y-31064542D01*
X33268475Y-31064538D01*
X33268477Y-31064534D01*
X33300500Y-30862352D01*
X33300500Y-30657648D01*
X33268477Y-30455466D01*
X33268475Y-30455462D01*
X33268475Y-30455457D01*
X33257545Y-30421817D01*
X33255550Y-30351976D01*
X33291631Y-30292144D01*
X33354332Y-30261316D01*
X33375476Y-30259500D01*
X34820055Y-30259500D01*
X34820057Y-30259500D01*
X34972784Y-30218577D01*
X35109716Y-30139520D01*
X35221520Y-30027716D01*
X35300577Y-29890784D01*
X35341500Y-29738057D01*
X35341500Y-27484096D01*
X35361185Y-27417057D01*
X35377814Y-27396420D01*
X35642080Y-27132154D01*
X35703402Y-27098670D01*
X35773094Y-27103654D01*
G37*
G04 #@! TD.AperFunction*
G04 #@! TA.AperFunction,Conductor*
G36*
X38141177Y-28057625D02*
G01*
X38165770Y-28055690D01*
X38234148Y-28070054D01*
X38283905Y-28119105D01*
X38299500Y-28179308D01*
X38299500Y-29095691D01*
X38279815Y-29162730D01*
X38227011Y-29208485D01*
X38165770Y-29219309D01*
X38141177Y-29217373D01*
X37497500Y-29861052D01*
X37497500Y-29854839D01*
X37470241Y-29753106D01*
X37417580Y-29661894D01*
X37343106Y-29587420D01*
X37251894Y-29534759D01*
X37150161Y-29507500D01*
X37143947Y-29507500D01*
X37787625Y-28863820D01*
X37787625Y-28863819D01*
X37752645Y-28838405D01*
X37575184Y-28747985D01*
X37524388Y-28700011D01*
X37507593Y-28632190D01*
X37530130Y-28566055D01*
X37575185Y-28527015D01*
X37752641Y-28436597D01*
X37787625Y-28411178D01*
X37787626Y-28411178D01*
X37143948Y-27767500D01*
X37150161Y-27767500D01*
X37251894Y-27740241D01*
X37343106Y-27687580D01*
X37417580Y-27613106D01*
X37470241Y-27521894D01*
X37497500Y-27420161D01*
X37497500Y-27413947D01*
X38141177Y-28057625D01*
G37*
G04 #@! TD.AperFunction*
G04 #@! TA.AperFunction,Conductor*
G36*
X38261920Y-25593275D02*
G01*
X38296278Y-25654114D01*
X38299500Y-25682199D01*
X38299500Y-26555691D01*
X38279815Y-26622730D01*
X38227011Y-26668485D01*
X38165770Y-26679309D01*
X38141177Y-26677373D01*
X37497500Y-27321051D01*
X37497500Y-27314839D01*
X37470241Y-27213106D01*
X37417580Y-27121894D01*
X37343106Y-27047420D01*
X37251894Y-26994759D01*
X37150161Y-26967500D01*
X37143945Y-26967500D01*
X37787625Y-26323820D01*
X37787625Y-26323819D01*
X37752645Y-26298405D01*
X37575735Y-26208265D01*
X37524939Y-26160290D01*
X37508144Y-26092469D01*
X37530682Y-26026334D01*
X37575736Y-25987295D01*
X37577522Y-25986384D01*
X37577525Y-25986384D01*
X37752905Y-25897024D01*
X37912146Y-25781328D01*
X38051328Y-25642146D01*
X38075183Y-25609311D01*
X38130512Y-25566648D01*
X38200125Y-25560669D01*
X38261920Y-25593275D01*
G37*
G04 #@! TD.AperFunction*
G04 #@! TA.AperFunction,Conductor*
G36*
X39943039Y-12520185D02*
G01*
X39988794Y-12572989D01*
X40000000Y-12624500D01*
X40000000Y-79375500D01*
X39980315Y-79442539D01*
X39927511Y-79488294D01*
X39876000Y-79499500D01*
X12624500Y-79499500D01*
X12557461Y-79479815D01*
X12511706Y-79427011D01*
X12500500Y-79375500D01*
X12500500Y-77998226D01*
X12520185Y-77931187D01*
X12572989Y-77885432D01*
X12642147Y-77875488D01*
X12705703Y-77904513D01*
X12742431Y-77959908D01*
X12748444Y-77978414D01*
X12844951Y-78167820D01*
X12969890Y-78339786D01*
X13120213Y-78490109D01*
X13292179Y-78615048D01*
X13292181Y-78615049D01*
X13292184Y-78615051D01*
X13481588Y-78711557D01*
X13683757Y-78777246D01*
X13893713Y-78810500D01*
X13893714Y-78810500D01*
X14106286Y-78810500D01*
X14106287Y-78810500D01*
X14316243Y-78777246D01*
X14518412Y-78711557D01*
X14707816Y-78615051D01*
X14729789Y-78599086D01*
X14879786Y-78490109D01*
X14879788Y-78490106D01*
X14879792Y-78490104D01*
X15030104Y-78339792D01*
X15030106Y-78339788D01*
X15030109Y-78339786D01*
X15155048Y-78167820D01*
X15155047Y-78167820D01*
X15155051Y-78167816D01*
X15251557Y-77978412D01*
X15317246Y-77776243D01*
X15350500Y-77566287D01*
X15350500Y-77353713D01*
X15317246Y-77143757D01*
X15251557Y-76941588D01*
X15155051Y-76752184D01*
X15155049Y-76752181D01*
X15155048Y-76752179D01*
X15030109Y-76580213D01*
X14879786Y-76429890D01*
X14707820Y-76304951D01*
X14518414Y-76208444D01*
X14518413Y-76208443D01*
X14518412Y-76208443D01*
X14316243Y-76142754D01*
X14316241Y-76142753D01*
X14316240Y-76142753D01*
X14154957Y-76117208D01*
X14106287Y-76109500D01*
X13893713Y-76109500D01*
X13845042Y-76117208D01*
X13683760Y-76142753D01*
X13481585Y-76208444D01*
X13292179Y-76304951D01*
X13120213Y-76429890D01*
X12969890Y-76580213D01*
X12844951Y-76752179D01*
X12748445Y-76941582D01*
X12748443Y-76941587D01*
X12748443Y-76941588D01*
X12742429Y-76960094D01*
X12702992Y-77017768D01*
X12638633Y-77044965D01*
X12569787Y-77033050D01*
X12518312Y-76985805D01*
X12500500Y-76921773D01*
X12500500Y-63897648D01*
X19539500Y-63897648D01*
X19539500Y-64102351D01*
X19571522Y-64304534D01*
X19634781Y-64499223D01*
X19727715Y-64681613D01*
X19848028Y-64847213D01*
X19992786Y-64991971D01*
X20147749Y-65104556D01*
X20158390Y-65112287D01*
X20274607Y-65171503D01*
X20340776Y-65205218D01*
X20340778Y-65205218D01*
X20340781Y-65205220D01*
X20445137Y-65239127D01*
X20535465Y-65268477D01*
X20636557Y-65284488D01*
X20737648Y-65300500D01*
X20737649Y-65300500D01*
X20942351Y-65300500D01*
X20942352Y-65300500D01*
X21144534Y-65268477D01*
X21339219Y-65205220D01*
X21521610Y-65112287D01*
X21614590Y-65044732D01*
X21687213Y-64991971D01*
X21687215Y-64991968D01*
X21687219Y-64991966D01*
X21831966Y-64847219D01*
X21831968Y-64847215D01*
X21831971Y-64847213D01*
X21884732Y-64774590D01*
X21952287Y-64681610D01*
X22045220Y-64499219D01*
X22108477Y-64304534D01*
X22140500Y-64102352D01*
X22140500Y-63897648D01*
X22118714Y-63760097D01*
X22108477Y-63695465D01*
X22045218Y-63500776D01*
X21952419Y-63318650D01*
X21952287Y-63318390D01*
X21944556Y-63307749D01*
X21831971Y-63152786D01*
X21687213Y-63008028D01*
X21521613Y-62887715D01*
X21521612Y-62887714D01*
X21521610Y-62887713D01*
X21464653Y-62858691D01*
X21339223Y-62794781D01*
X21144534Y-62731522D01*
X20969995Y-62703878D01*
X20942352Y-62699500D01*
X20737648Y-62699500D01*
X20713329Y-62703351D01*
X20535465Y-62731522D01*
X20340776Y-62794781D01*
X20158386Y-62887715D01*
X19992786Y-63008028D01*
X19848028Y-63152786D01*
X19727715Y-63318386D01*
X19634781Y-63500776D01*
X19571522Y-63695465D01*
X19539500Y-63897648D01*
X12500500Y-63897648D01*
X12500500Y-20497648D01*
X15459500Y-20497648D01*
X15459500Y-20702351D01*
X15491522Y-20904534D01*
X15554781Y-21099223D01*
X15647715Y-21281613D01*
X15768028Y-21447213D01*
X15912786Y-21591971D01*
X16067749Y-21704556D01*
X16078390Y-21712287D01*
X16169840Y-21758883D01*
X16171080Y-21759515D01*
X16221876Y-21807490D01*
X16238671Y-21875311D01*
X16216134Y-21941446D01*
X16171080Y-21980485D01*
X16078386Y-22027715D01*
X15912786Y-22148028D01*
X15768028Y-22292786D01*
X15647715Y-22458386D01*
X15554781Y-22640776D01*
X15491522Y-22835465D01*
X15459500Y-23037648D01*
X15459500Y-23242351D01*
X15491522Y-23444534D01*
X15554781Y-23639223D01*
X15615290Y-23757976D01*
X15634496Y-23795671D01*
X15647715Y-23821613D01*
X15768028Y-23987213D01*
X15912786Y-24131971D01*
X16067749Y-24244556D01*
X16078390Y-24252287D01*
X16152714Y-24290157D01*
X16171080Y-24299515D01*
X16221876Y-24347490D01*
X16238671Y-24415311D01*
X16216134Y-24481446D01*
X16171080Y-24520485D01*
X16078386Y-24567715D01*
X15912786Y-24688028D01*
X15768028Y-24832786D01*
X15647715Y-24998386D01*
X15554781Y-25180776D01*
X15491522Y-25375465D01*
X15459500Y-25577648D01*
X15459500Y-25782351D01*
X15491522Y-25984534D01*
X15554781Y-26179223D01*
X15596152Y-26260416D01*
X15628457Y-26323819D01*
X15647715Y-26361613D01*
X15768028Y-26527213D01*
X15912786Y-26671971D01*
X16067749Y-26784556D01*
X16078390Y-26792287D01*
X16169840Y-26838883D01*
X16171080Y-26839515D01*
X16221876Y-26887490D01*
X16238671Y-26955311D01*
X16216134Y-27021446D01*
X16171080Y-27060485D01*
X16078386Y-27107715D01*
X15912786Y-27228028D01*
X15768028Y-27372786D01*
X15647715Y-27538386D01*
X15554781Y-27720776D01*
X15491522Y-27915465D01*
X15459500Y-28117648D01*
X15459500Y-28322351D01*
X15491522Y-28524534D01*
X15554781Y-28719223D01*
X15606385Y-28820500D01*
X15628457Y-28863819D01*
X15647715Y-28901613D01*
X15768028Y-29067213D01*
X15912786Y-29211971D01*
X16067749Y-29324556D01*
X16078390Y-29332287D01*
X16169840Y-29378883D01*
X16171080Y-29379515D01*
X16221876Y-29427490D01*
X16238671Y-29495311D01*
X16216134Y-29561446D01*
X16171080Y-29600485D01*
X16078386Y-29647715D01*
X15912786Y-29768028D01*
X15768028Y-29912786D01*
X15647715Y-30078386D01*
X15554781Y-30260776D01*
X15491522Y-30455465D01*
X15459500Y-30657648D01*
X15459500Y-30862351D01*
X15491522Y-31064534D01*
X15554781Y-31259223D01*
X15647715Y-31441613D01*
X15768028Y-31607213D01*
X15912786Y-31751971D01*
X16067749Y-31864556D01*
X16078390Y-31872287D01*
X16169840Y-31918883D01*
X16171080Y-31919515D01*
X16221876Y-31967490D01*
X16238671Y-32035311D01*
X16216134Y-32101446D01*
X16171080Y-32140485D01*
X16078386Y-32187715D01*
X15912786Y-32308028D01*
X15768028Y-32452786D01*
X15647715Y-32618386D01*
X15554781Y-32800776D01*
X15491522Y-32995465D01*
X15459500Y-33197648D01*
X15459500Y-33402351D01*
X15491522Y-33604534D01*
X15554781Y-33799223D01*
X15618691Y-33924653D01*
X15630430Y-33947691D01*
X15647715Y-33981613D01*
X15768028Y-34147213D01*
X15912786Y-34291971D01*
X16067749Y-34404556D01*
X16078390Y-34412287D01*
X16169840Y-34458883D01*
X16171080Y-34459515D01*
X16221876Y-34507490D01*
X16238671Y-34575311D01*
X16216134Y-34641446D01*
X16171080Y-34680485D01*
X16078386Y-34727715D01*
X15912786Y-34848028D01*
X15768028Y-34992786D01*
X15647715Y-35158386D01*
X15554781Y-35340776D01*
X15491522Y-35535465D01*
X15459500Y-35737648D01*
X15459500Y-35942351D01*
X15491522Y-36144534D01*
X15554781Y-36339223D01*
X15647715Y-36521613D01*
X15768028Y-36687213D01*
X15912786Y-36831971D01*
X16050748Y-36932204D01*
X16078390Y-36952287D01*
X16169840Y-36998883D01*
X16171080Y-36999515D01*
X16221876Y-37047490D01*
X16238671Y-37115311D01*
X16216134Y-37181446D01*
X16171080Y-37220485D01*
X16078386Y-37267715D01*
X15912786Y-37388028D01*
X15768028Y-37532786D01*
X15647715Y-37698386D01*
X15554781Y-37880776D01*
X15491522Y-38075465D01*
X15459500Y-38277648D01*
X15459500Y-38482351D01*
X15491522Y-38684534D01*
X15554781Y-38879223D01*
X15618691Y-39004653D01*
X15630430Y-39027691D01*
X15647715Y-39061613D01*
X15768028Y-39227213D01*
X15912786Y-39371971D01*
X16067749Y-39484556D01*
X16078390Y-39492287D01*
X16169840Y-39538883D01*
X16171080Y-39539515D01*
X16221876Y-39587490D01*
X16238671Y-39655311D01*
X16216134Y-39721446D01*
X16171080Y-39760485D01*
X16078386Y-39807715D01*
X15912786Y-39928028D01*
X15768028Y-40072786D01*
X15647715Y-40238386D01*
X15554781Y-40420776D01*
X15491522Y-40615465D01*
X15459500Y-40817648D01*
X15459500Y-41022351D01*
X15491522Y-41224534D01*
X15554781Y-41419223D01*
X15602297Y-41512477D01*
X15630430Y-41567691D01*
X15647715Y-41601613D01*
X15768028Y-41767213D01*
X15912786Y-41911971D01*
X16067749Y-42024556D01*
X16078390Y-42032287D01*
X16169840Y-42078883D01*
X16171080Y-42079515D01*
X16221876Y-42127490D01*
X16238671Y-42195311D01*
X16216134Y-42261446D01*
X16171080Y-42300485D01*
X16078386Y-42347715D01*
X15912786Y-42468028D01*
X15768028Y-42612786D01*
X15647715Y-42778386D01*
X15554781Y-42960776D01*
X15491522Y-43155465D01*
X15459500Y-43357648D01*
X15459500Y-43562351D01*
X15491522Y-43764534D01*
X15554781Y-43959223D01*
X15647715Y-44141613D01*
X15768028Y-44307213D01*
X15912786Y-44451971D01*
X16067749Y-44564556D01*
X16078390Y-44572287D01*
X16169840Y-44618883D01*
X16171080Y-44619515D01*
X16221876Y-44667490D01*
X16238671Y-44735311D01*
X16216134Y-44801446D01*
X16171080Y-44840485D01*
X16078386Y-44887715D01*
X15912786Y-45008028D01*
X15768028Y-45152786D01*
X15647715Y-45318386D01*
X15554781Y-45500776D01*
X15491522Y-45695465D01*
X15459500Y-45897648D01*
X15459500Y-46102351D01*
X15491522Y-46304534D01*
X15554781Y-46499223D01*
X15647715Y-46681613D01*
X15768028Y-46847213D01*
X15912786Y-46991971D01*
X16035537Y-47081153D01*
X16078390Y-47112287D01*
X16169840Y-47158883D01*
X16171080Y-47159515D01*
X16221876Y-47207490D01*
X16238671Y-47275311D01*
X16216134Y-47341446D01*
X16171080Y-47380485D01*
X16078386Y-47427715D01*
X15912786Y-47548028D01*
X15768028Y-47692786D01*
X15647715Y-47858386D01*
X15554781Y-48040776D01*
X15491522Y-48235465D01*
X15459500Y-48437648D01*
X15459500Y-48642351D01*
X15491522Y-48844534D01*
X15554781Y-49039223D01*
X15647715Y-49221613D01*
X15768028Y-49387213D01*
X15912786Y-49531971D01*
X16036890Y-49622136D01*
X16078390Y-49652287D01*
X16169840Y-49698883D01*
X16171080Y-49699515D01*
X16221876Y-49747490D01*
X16238671Y-49815311D01*
X16216134Y-49881446D01*
X16171080Y-49920485D01*
X16078386Y-49967715D01*
X15912786Y-50088028D01*
X15768028Y-50232786D01*
X15647715Y-50398386D01*
X15554781Y-50580776D01*
X15491522Y-50775465D01*
X15459500Y-50977648D01*
X15459500Y-51182351D01*
X15491522Y-51384534D01*
X15554781Y-51579223D01*
X15647715Y-51761613D01*
X15768028Y-51927213D01*
X15912786Y-52071971D01*
X16067749Y-52184556D01*
X16078390Y-52192287D01*
X16150424Y-52228990D01*
X16171629Y-52239795D01*
X16222425Y-52287770D01*
X16239220Y-52355591D01*
X16216682Y-52421726D01*
X16171629Y-52460765D01*
X16078650Y-52508140D01*
X15913105Y-52628417D01*
X15913104Y-52628417D01*
X15768417Y-52773104D01*
X15768417Y-52773105D01*
X15648140Y-52938650D01*
X15555244Y-53120970D01*
X15492009Y-53315586D01*
X15483391Y-53370000D01*
X16326988Y-53370000D01*
X16294075Y-53427007D01*
X16260000Y-53554174D01*
X16260000Y-53685826D01*
X16294075Y-53812993D01*
X16326988Y-53870000D01*
X15483391Y-53870000D01*
X15492009Y-53924413D01*
X15555244Y-54119029D01*
X15648140Y-54301349D01*
X15768417Y-54466894D01*
X15768417Y-54466895D01*
X15913104Y-54611582D01*
X16078652Y-54731861D01*
X16171628Y-54779234D01*
X16222425Y-54827208D01*
X16239220Y-54895029D01*
X16216683Y-54961164D01*
X16171630Y-55000203D01*
X16078388Y-55047713D01*
X15912786Y-55168028D01*
X15768028Y-55312786D01*
X15647715Y-55478386D01*
X15554781Y-55660776D01*
X15491522Y-55855465D01*
X15459500Y-56057648D01*
X15459500Y-56262351D01*
X15491522Y-56464534D01*
X15554781Y-56659223D01*
X15599907Y-56747786D01*
X15623668Y-56794420D01*
X15647715Y-56841613D01*
X15768028Y-57007213D01*
X15912786Y-57151971D01*
X16067749Y-57264556D01*
X16078390Y-57272287D01*
X16167212Y-57317544D01*
X16260776Y-57365218D01*
X16260778Y-57365218D01*
X16260781Y-57365220D01*
X16365137Y-57399127D01*
X16455465Y-57428477D01*
X16489149Y-57433812D01*
X16657648Y-57460500D01*
X16657649Y-57460500D01*
X16862351Y-57460500D01*
X16862352Y-57460500D01*
X17064534Y-57428477D01*
X17259219Y-57365220D01*
X17441610Y-57272287D01*
X17537901Y-57202328D01*
X17607213Y-57151971D01*
X17607215Y-57151968D01*
X17607219Y-57151966D01*
X17751966Y-57007219D01*
X17751968Y-57007215D01*
X17751971Y-57007213D01*
X17804732Y-56934590D01*
X17872287Y-56841610D01*
X17965220Y-56659219D01*
X18028477Y-56464534D01*
X18060500Y-56262352D01*
X18060500Y-56057648D01*
X18028477Y-55855466D01*
X17965220Y-55660781D01*
X17965218Y-55660778D01*
X17965218Y-55660776D01*
X17925015Y-55581874D01*
X17872287Y-55478390D01*
X17864556Y-55467749D01*
X17751971Y-55312786D01*
X17607213Y-55168028D01*
X17441611Y-55047713D01*
X17348369Y-55000203D01*
X17297574Y-54952229D01*
X17280779Y-54884407D01*
X17303317Y-54818273D01*
X17348371Y-54779234D01*
X17441347Y-54731861D01*
X17606894Y-54611582D01*
X17606895Y-54611582D01*
X17751582Y-54466895D01*
X17751582Y-54466894D01*
X17871859Y-54301349D01*
X17964755Y-54119029D01*
X18027990Y-53924413D01*
X18036609Y-53870000D01*
X17193012Y-53870000D01*
X17225925Y-53812993D01*
X17260000Y-53685826D01*
X17260000Y-53554174D01*
X17225925Y-53427007D01*
X17193012Y-53370000D01*
X18036609Y-53370000D01*
X18027990Y-53315586D01*
X17964755Y-53120970D01*
X17871859Y-52938650D01*
X17751582Y-52773105D01*
X17751582Y-52773104D01*
X17606895Y-52628417D01*
X17441349Y-52508140D01*
X17348370Y-52460765D01*
X17297574Y-52412790D01*
X17280779Y-52344969D01*
X17303316Y-52278835D01*
X17348370Y-52239795D01*
X17348920Y-52239515D01*
X17441610Y-52192287D01*
X17462770Y-52176913D01*
X17607213Y-52071971D01*
X17607215Y-52071968D01*
X17607219Y-52071966D01*
X17751966Y-51927219D01*
X17751968Y-51927215D01*
X17751971Y-51927213D01*
X17804732Y-51854590D01*
X17872287Y-51761610D01*
X17965220Y-51579219D01*
X18028477Y-51384534D01*
X18060500Y-51182352D01*
X18060500Y-50977648D01*
X18051096Y-50918273D01*
X18028477Y-50775465D01*
X17978230Y-50620821D01*
X17965220Y-50580781D01*
X17965218Y-50580778D01*
X17965218Y-50580776D01*
X17918817Y-50489711D01*
X17872287Y-50398390D01*
X17837485Y-50350489D01*
X17751971Y-50232786D01*
X17607213Y-50088028D01*
X17441614Y-49967715D01*
X17435006Y-49964348D01*
X17348917Y-49920483D01*
X17298123Y-49872511D01*
X17281328Y-49804690D01*
X17303865Y-49738555D01*
X17348917Y-49699516D01*
X17441610Y-49652287D01*
X17512888Y-49600501D01*
X17607213Y-49531971D01*
X17607215Y-49531968D01*
X17607219Y-49531966D01*
X17751966Y-49387219D01*
X17751968Y-49387215D01*
X17751971Y-49387213D01*
X17835829Y-49271790D01*
X17872287Y-49221610D01*
X17965220Y-49039219D01*
X18028477Y-48844534D01*
X18060500Y-48642352D01*
X18060500Y-48437648D01*
X18038115Y-48296315D01*
X18028477Y-48235465D01*
X17965218Y-48040776D01*
X17909141Y-47930720D01*
X17872287Y-47858390D01*
X17816634Y-47781789D01*
X17751971Y-47692786D01*
X17607213Y-47548028D01*
X17441614Y-47427715D01*
X17374457Y-47393497D01*
X17348917Y-47380483D01*
X17298123Y-47332511D01*
X17281328Y-47264690D01*
X17303865Y-47198555D01*
X17348917Y-47159516D01*
X17441610Y-47112287D01*
X17484463Y-47081153D01*
X17607213Y-46991971D01*
X17607215Y-46991968D01*
X17607219Y-46991966D01*
X17751966Y-46847219D01*
X17751968Y-46847215D01*
X17751971Y-46847213D01*
X17805061Y-46774140D01*
X17872287Y-46681610D01*
X17965220Y-46499219D01*
X18028477Y-46304534D01*
X18060500Y-46102352D01*
X18060500Y-45897648D01*
X18028477Y-45695466D01*
X17965220Y-45500781D01*
X17965218Y-45500778D01*
X17965218Y-45500776D01*
X17925015Y-45421874D01*
X17872287Y-45318390D01*
X17864556Y-45307749D01*
X17751971Y-45152786D01*
X17607213Y-45008028D01*
X17441614Y-44887715D01*
X17435006Y-44884348D01*
X17348917Y-44840483D01*
X17298123Y-44792511D01*
X17281328Y-44724690D01*
X17303865Y-44658555D01*
X17348917Y-44619516D01*
X17441610Y-44572287D01*
X17462770Y-44556913D01*
X17607213Y-44451971D01*
X17607215Y-44451968D01*
X17607219Y-44451966D01*
X17751966Y-44307219D01*
X17751968Y-44307215D01*
X17751971Y-44307213D01*
X17804732Y-44234590D01*
X17872287Y-44141610D01*
X17965220Y-43959219D01*
X18028477Y-43764534D01*
X18060500Y-43562352D01*
X18060500Y-43357648D01*
X18028477Y-43155466D01*
X17965220Y-42960781D01*
X17965218Y-42960778D01*
X17965218Y-42960776D01*
X17923725Y-42879343D01*
X17872287Y-42778390D01*
X17822138Y-42709365D01*
X17751971Y-42612786D01*
X17607213Y-42468028D01*
X17441614Y-42347715D01*
X17435006Y-42344348D01*
X17348917Y-42300483D01*
X17298123Y-42252511D01*
X17281328Y-42184690D01*
X17303865Y-42118555D01*
X17348917Y-42079516D01*
X17441610Y-42032287D01*
X17462770Y-42016913D01*
X17607213Y-41911971D01*
X17607215Y-41911968D01*
X17607219Y-41911966D01*
X17751966Y-41767219D01*
X17751968Y-41767215D01*
X17751971Y-41767213D01*
X17804732Y-41694590D01*
X17872287Y-41601610D01*
X17965220Y-41419219D01*
X18028477Y-41224534D01*
X18060500Y-41022352D01*
X18060500Y-40817648D01*
X18028477Y-40615466D01*
X17965220Y-40420781D01*
X17965218Y-40420778D01*
X17965218Y-40420776D01*
X17923725Y-40339343D01*
X17872287Y-40238390D01*
X17822138Y-40169365D01*
X17751971Y-40072786D01*
X17607213Y-39928028D01*
X17441614Y-39807715D01*
X17435006Y-39804348D01*
X17348917Y-39760483D01*
X17298123Y-39712511D01*
X17281328Y-39644690D01*
X17303865Y-39578555D01*
X17348917Y-39539516D01*
X17441610Y-39492287D01*
X17462770Y-39476913D01*
X17607213Y-39371971D01*
X17607215Y-39371968D01*
X17607219Y-39371966D01*
X17751966Y-39227219D01*
X17751968Y-39227215D01*
X17751971Y-39227213D01*
X17804732Y-39154590D01*
X17872287Y-39061610D01*
X17965220Y-38879219D01*
X18028477Y-38684534D01*
X18060500Y-38482352D01*
X18060500Y-38277648D01*
X18028477Y-38075466D01*
X17965220Y-37880781D01*
X17965218Y-37880778D01*
X17965218Y-37880776D01*
X17927005Y-37805780D01*
X17872287Y-37698390D01*
X17864056Y-37687061D01*
X17751971Y-37532786D01*
X17607213Y-37388028D01*
X17441614Y-37267715D01*
X17435006Y-37264348D01*
X17348917Y-37220483D01*
X17298123Y-37172511D01*
X17281328Y-37104690D01*
X17303865Y-37038555D01*
X17348917Y-36999516D01*
X17441610Y-36952287D01*
X17469252Y-36932204D01*
X17607213Y-36831971D01*
X17607215Y-36831968D01*
X17607219Y-36831966D01*
X17751966Y-36687219D01*
X17751968Y-36687215D01*
X17751971Y-36687213D01*
X17830844Y-36578652D01*
X17872287Y-36521610D01*
X17965220Y-36339219D01*
X18028477Y-36144534D01*
X18060500Y-35942352D01*
X18060500Y-35737648D01*
X18028477Y-35535466D01*
X17965220Y-35340781D01*
X17965218Y-35340778D01*
X17965218Y-35340776D01*
X17927065Y-35265897D01*
X17872287Y-35158390D01*
X17822138Y-35089365D01*
X17751971Y-34992786D01*
X17607213Y-34848028D01*
X17441614Y-34727715D01*
X17435006Y-34724348D01*
X17348917Y-34680483D01*
X17298123Y-34632511D01*
X17281328Y-34564690D01*
X17303865Y-34498555D01*
X17348917Y-34459516D01*
X17441610Y-34412287D01*
X17462770Y-34396913D01*
X17607213Y-34291971D01*
X17607215Y-34291968D01*
X17607219Y-34291966D01*
X17751966Y-34147219D01*
X17751968Y-34147215D01*
X17751971Y-34147213D01*
X17804732Y-34074590D01*
X17872287Y-33981610D01*
X17965220Y-33799219D01*
X18028477Y-33604534D01*
X18060500Y-33402352D01*
X18060500Y-33197648D01*
X18028477Y-32995466D01*
X17965220Y-32800781D01*
X17965218Y-32800778D01*
X17965218Y-32800776D01*
X17912758Y-32697819D01*
X17872287Y-32618390D01*
X17864556Y-32607749D01*
X17751971Y-32452786D01*
X17607213Y-32308028D01*
X17441614Y-32187715D01*
X17435006Y-32184348D01*
X17348917Y-32140483D01*
X17298123Y-32092511D01*
X17281328Y-32024690D01*
X17303865Y-31958555D01*
X17348917Y-31919516D01*
X17441610Y-31872287D01*
X17462770Y-31856913D01*
X17607213Y-31751971D01*
X17607215Y-31751968D01*
X17607219Y-31751966D01*
X17751966Y-31607219D01*
X17751968Y-31607215D01*
X17751971Y-31607213D01*
X17804732Y-31534590D01*
X17872287Y-31441610D01*
X17965220Y-31259219D01*
X18028477Y-31064534D01*
X18060500Y-30862352D01*
X18060500Y-30657648D01*
X18028477Y-30455466D01*
X18028476Y-30455464D01*
X17980400Y-30307500D01*
X17965220Y-30260781D01*
X17965218Y-30260778D01*
X17965218Y-30260776D01*
X17931503Y-30194607D01*
X17872287Y-30078390D01*
X17860302Y-30061894D01*
X17751971Y-29912786D01*
X17607213Y-29768028D01*
X17441614Y-29647715D01*
X17420229Y-29636819D01*
X17348917Y-29600483D01*
X17298123Y-29552511D01*
X17281328Y-29484690D01*
X17303865Y-29418555D01*
X17348917Y-29379516D01*
X17441610Y-29332287D01*
X17551617Y-29252363D01*
X17607213Y-29211971D01*
X17607215Y-29211968D01*
X17607219Y-29211966D01*
X17751966Y-29067219D01*
X17751968Y-29067215D01*
X17751971Y-29067213D01*
X17848391Y-28934500D01*
X17872287Y-28901610D01*
X17965220Y-28719219D01*
X18028477Y-28524534D01*
X18060500Y-28322352D01*
X18060500Y-28117648D01*
X18031013Y-27931478D01*
X18039967Y-27862186D01*
X18084963Y-27808734D01*
X18129294Y-27790464D01*
X18233497Y-27769737D01*
X18346166Y-27723067D01*
X18379172Y-27709397D01*
X18379172Y-27709396D01*
X18379179Y-27709394D01*
X18510289Y-27621789D01*
X18621789Y-27510289D01*
X18709394Y-27379179D01*
X18769737Y-27233497D01*
X18800500Y-27078842D01*
X18800638Y-27078150D01*
X18833023Y-27016239D01*
X18834518Y-27014716D01*
X19588819Y-26260416D01*
X19650142Y-26226931D01*
X19719834Y-26231915D01*
X19775767Y-26273787D01*
X19800184Y-26339251D01*
X19800500Y-26348097D01*
X19800500Y-59774330D01*
X19800499Y-59774348D01*
X19800499Y-59940054D01*
X19800498Y-59940054D01*
X19841423Y-60092785D01*
X19870358Y-60142900D01*
X19870359Y-60142904D01*
X19870360Y-60142904D01*
X19920479Y-60229714D01*
X19920481Y-60229717D01*
X20039349Y-60348585D01*
X20039355Y-60348590D01*
X23363181Y-63672416D01*
X23396666Y-63733739D01*
X23399500Y-63760097D01*
X23399500Y-67454169D01*
X23396375Y-67467178D01*
X23397367Y-67477072D01*
X23385978Y-67510478D01*
X23385478Y-67511459D01*
X23337497Y-67562249D01*
X23269674Y-67579036D01*
X23203542Y-67556490D01*
X23164516Y-67511446D01*
X23160050Y-67502682D01*
X23035109Y-67330713D01*
X22884786Y-67180390D01*
X22712820Y-67055451D01*
X22523414Y-66958944D01*
X22523413Y-66958943D01*
X22523412Y-66958943D01*
X22321243Y-66893254D01*
X22321241Y-66893253D01*
X22321240Y-66893253D01*
X22159164Y-66867583D01*
X22111287Y-66860000D01*
X21898713Y-66860000D01*
X21850836Y-66867583D01*
X21688760Y-66893253D01*
X21486585Y-66958944D01*
X21297179Y-67055451D01*
X21125213Y-67180390D01*
X20974890Y-67330713D01*
X20849951Y-67502679D01*
X20753444Y-67692085D01*
X20687753Y-67894260D01*
X20654500Y-68104213D01*
X20654500Y-68316787D01*
X20687754Y-68526743D01*
X20740438Y-68688888D01*
X20753444Y-68728914D01*
X20849951Y-68918320D01*
X20974890Y-69090286D01*
X21125213Y-69240609D01*
X21297182Y-69365550D01*
X21305946Y-69370016D01*
X21356742Y-69417991D01*
X21373536Y-69485812D01*
X21350998Y-69551947D01*
X21305946Y-69590984D01*
X21297182Y-69595449D01*
X21125213Y-69720390D01*
X20974890Y-69870713D01*
X20849951Y-70042679D01*
X20753444Y-70232085D01*
X20687753Y-70434260D01*
X20654500Y-70644213D01*
X20654500Y-70856786D01*
X20680773Y-71022671D01*
X20687754Y-71066743D01*
X20748154Y-71252635D01*
X20753444Y-71268914D01*
X20849951Y-71458320D01*
X20974890Y-71630286D01*
X21125213Y-71780609D01*
X21297179Y-71905548D01*
X21297181Y-71905549D01*
X21297184Y-71905551D01*
X21486588Y-72002057D01*
X21688757Y-72067746D01*
X21898713Y-72101000D01*
X21898714Y-72101000D01*
X22111286Y-72101000D01*
X22111287Y-72101000D01*
X22321243Y-72067746D01*
X22523412Y-72002057D01*
X22712816Y-71905551D01*
X22807102Y-71837049D01*
X22884786Y-71780609D01*
X22884788Y-71780606D01*
X22884792Y-71780604D01*
X23035104Y-71630292D01*
X23035106Y-71630288D01*
X23035109Y-71630286D01*
X23160048Y-71458320D01*
X23160047Y-71458320D01*
X23160051Y-71458316D01*
X23164514Y-71449554D01*
X23212488Y-71398759D01*
X23280308Y-71381963D01*
X23346444Y-71404499D01*
X23385486Y-71449556D01*
X23389951Y-71458320D01*
X23514890Y-71630286D01*
X23665213Y-71780609D01*
X23837179Y-71905548D01*
X23837181Y-71905549D01*
X23837184Y-71905551D01*
X24026588Y-72002057D01*
X24228757Y-72067746D01*
X24438713Y-72101000D01*
X24438714Y-72101000D01*
X24651286Y-72101000D01*
X24651287Y-72101000D01*
X24861243Y-72067746D01*
X25063412Y-72002057D01*
X25252816Y-71905551D01*
X25347102Y-71837049D01*
X25424786Y-71780609D01*
X25424788Y-71780606D01*
X25424792Y-71780604D01*
X25575104Y-71630292D01*
X25575106Y-71630288D01*
X25575109Y-71630286D01*
X25700048Y-71458320D01*
X25700047Y-71458320D01*
X25700051Y-71458316D01*
X25704514Y-71449554D01*
X25752488Y-71398759D01*
X25820308Y-71381963D01*
X25886444Y-71404499D01*
X25925486Y-71449556D01*
X25929951Y-71458320D01*
X26054890Y-71630286D01*
X26205213Y-71780609D01*
X26377179Y-71905548D01*
X26377181Y-71905549D01*
X26377184Y-71905551D01*
X26566588Y-72002057D01*
X26768757Y-72067746D01*
X26978713Y-72101000D01*
X26978714Y-72101000D01*
X27191286Y-72101000D01*
X27191287Y-72101000D01*
X27401243Y-72067746D01*
X27603412Y-72002057D01*
X27792816Y-71905551D01*
X27887102Y-71837049D01*
X27964786Y-71780609D01*
X27964788Y-71780606D01*
X27964792Y-71780604D01*
X28115104Y-71630292D01*
X28115106Y-71630288D01*
X28115109Y-71630286D01*
X28240048Y-71458320D01*
X28240047Y-71458320D01*
X28240051Y-71458316D01*
X28244514Y-71449554D01*
X28292488Y-71398759D01*
X28360308Y-71381963D01*
X28426444Y-71404499D01*
X28465486Y-71449556D01*
X28469951Y-71458320D01*
X28594890Y-71630286D01*
X28745213Y-71780609D01*
X28917179Y-71905548D01*
X28917181Y-71905549D01*
X28917184Y-71905551D01*
X29106588Y-72002057D01*
X29308757Y-72067746D01*
X29518713Y-72101000D01*
X29518714Y-72101000D01*
X29731286Y-72101000D01*
X29731287Y-72101000D01*
X29941243Y-72067746D01*
X30143412Y-72002057D01*
X30332816Y-71905551D01*
X30427102Y-71837049D01*
X30504786Y-71780609D01*
X30504788Y-71780606D01*
X30504792Y-71780604D01*
X30655104Y-71630292D01*
X30655106Y-71630288D01*
X30655109Y-71630286D01*
X30780048Y-71458320D01*
X30780047Y-71458320D01*
X30780051Y-71458316D01*
X30876557Y-71268912D01*
X30942246Y-71066743D01*
X30975500Y-70856787D01*
X30975500Y-70644213D01*
X30942246Y-70434257D01*
X30876557Y-70232088D01*
X30780051Y-70042684D01*
X30780049Y-70042681D01*
X30780048Y-70042679D01*
X30655109Y-69870713D01*
X30541181Y-69756785D01*
X30507696Y-69695462D01*
X30512680Y-69625770D01*
X30554552Y-69569837D01*
X30585529Y-69552922D01*
X30717086Y-69503854D01*
X30717093Y-69503850D01*
X30832187Y-69417690D01*
X30832190Y-69417687D01*
X30918350Y-69302593D01*
X30918354Y-69302586D01*
X30968596Y-69167879D01*
X30968598Y-69167872D01*
X30974999Y-69108344D01*
X30975000Y-69108327D01*
X30975000Y-68460500D01*
X30058012Y-68460500D01*
X30090925Y-68403493D01*
X30125000Y-68276326D01*
X30125000Y-68144674D01*
X30090925Y-68017507D01*
X30058012Y-67960500D01*
X30975000Y-67960500D01*
X30975000Y-67312672D01*
X30974999Y-67312655D01*
X30968598Y-67253127D01*
X30968596Y-67253120D01*
X30918354Y-67118413D01*
X30918350Y-67118406D01*
X30832190Y-67003312D01*
X30832187Y-67003309D01*
X30717093Y-66917149D01*
X30717086Y-66917145D01*
X30582379Y-66866903D01*
X30582372Y-66866901D01*
X30522844Y-66860500D01*
X29875000Y-66860500D01*
X29875000Y-67777488D01*
X29817993Y-67744575D01*
X29690826Y-67710500D01*
X29559174Y-67710500D01*
X29432007Y-67744575D01*
X29375000Y-67777488D01*
X29375000Y-66860500D01*
X28960500Y-66860500D01*
X28893461Y-66840815D01*
X28847706Y-66788011D01*
X28836500Y-66736500D01*
X28836500Y-66083760D01*
X28836501Y-66083747D01*
X28836501Y-65915644D01*
X28795576Y-65762914D01*
X28795573Y-65762909D01*
X28716524Y-65625990D01*
X28716518Y-65625982D01*
X26840536Y-63750000D01*
X29723391Y-63750000D01*
X30684314Y-63750000D01*
X30679920Y-63754394D01*
X30627259Y-63845606D01*
X30600000Y-63947339D01*
X30600000Y-64052661D01*
X30627259Y-64154394D01*
X30679920Y-64245606D01*
X30684314Y-64250000D01*
X29723391Y-64250000D01*
X29732009Y-64304413D01*
X29795244Y-64499029D01*
X29888140Y-64681349D01*
X30008417Y-64846894D01*
X30008417Y-64846895D01*
X30153104Y-64991582D01*
X30318650Y-65111859D01*
X30500968Y-65204754D01*
X30695578Y-65267988D01*
X30750000Y-65276607D01*
X30750000Y-64315686D01*
X30754394Y-64320080D01*
X30845606Y-64372741D01*
X30947339Y-64400000D01*
X31052661Y-64400000D01*
X31154394Y-64372741D01*
X31245606Y-64320080D01*
X31250000Y-64315686D01*
X31250000Y-65276606D01*
X31304421Y-65267988D01*
X31499031Y-65204754D01*
X31681349Y-65111859D01*
X31846894Y-64991582D01*
X31846895Y-64991582D01*
X31991582Y-64846895D01*
X31991582Y-64846894D01*
X32111859Y-64681349D01*
X32204755Y-64499029D01*
X32267990Y-64304413D01*
X32276609Y-64250000D01*
X31315686Y-64250000D01*
X31320080Y-64245606D01*
X31372741Y-64154394D01*
X31400000Y-64052661D01*
X31400000Y-63947339D01*
X31372741Y-63845606D01*
X31320080Y-63754394D01*
X31315686Y-63750000D01*
X32276609Y-63750000D01*
X32267990Y-63695586D01*
X32204755Y-63500970D01*
X32111859Y-63318650D01*
X31991582Y-63153105D01*
X31991582Y-63153104D01*
X31846895Y-63008417D01*
X31681349Y-62888140D01*
X31499029Y-62795244D01*
X31304413Y-62732009D01*
X31250000Y-62723390D01*
X31250000Y-63684314D01*
X31245606Y-63679920D01*
X31154394Y-63627259D01*
X31052661Y-63600000D01*
X30947339Y-63600000D01*
X30845606Y-63627259D01*
X30754394Y-63679920D01*
X30750000Y-63684314D01*
X30750000Y-62723390D01*
X30695586Y-62732009D01*
X30500970Y-62795244D01*
X30318650Y-62888140D01*
X30153105Y-63008417D01*
X30153104Y-63008417D01*
X30008417Y-63153104D01*
X30008417Y-63153105D01*
X29888140Y-63318650D01*
X29795244Y-63500970D01*
X29732009Y-63695586D01*
X29723391Y-63750000D01*
X26840536Y-63750000D01*
X22636819Y-59546283D01*
X22603334Y-59484960D01*
X22600500Y-59458602D01*
X22600500Y-50886555D01*
X22620185Y-50819516D01*
X22672989Y-50773761D01*
X22742147Y-50763817D01*
X22760411Y-50768840D01*
X22760676Y-50767969D01*
X22766492Y-50769732D01*
X22766503Y-50769737D01*
X22921153Y-50800499D01*
X22921156Y-50800500D01*
X22921158Y-50800500D01*
X23078844Y-50800500D01*
X23078845Y-50800499D01*
X23233497Y-50769737D01*
X23379179Y-50709394D01*
X23510289Y-50621789D01*
X23621789Y-50510289D01*
X23709394Y-50379179D01*
X23769737Y-50233497D01*
X23800500Y-50078842D01*
X23800500Y-49921158D01*
X23800500Y-49921155D01*
X23800499Y-49921153D01*
X23790767Y-49872229D01*
X23769737Y-49766503D01*
X23741990Y-49699515D01*
X23709939Y-49622136D01*
X23700500Y-49574684D01*
X23700500Y-39921153D01*
X28199500Y-39921153D01*
X28199500Y-40078846D01*
X28230261Y-40233489D01*
X28230264Y-40233501D01*
X28290602Y-40379172D01*
X28290609Y-40379185D01*
X28378602Y-40510874D01*
X28399480Y-40577551D01*
X28399500Y-40579765D01*
X28399500Y-49420234D01*
X28379815Y-49487273D01*
X28378602Y-49489125D01*
X28290609Y-49620814D01*
X28290602Y-49620827D01*
X28230264Y-49766498D01*
X28230261Y-49766510D01*
X28199500Y-49921153D01*
X28199500Y-50078846D01*
X28230261Y-50233489D01*
X28230264Y-50233501D01*
X28290602Y-50379172D01*
X28290609Y-50379185D01*
X28378210Y-50510288D01*
X28378213Y-50510292D01*
X28489707Y-50621786D01*
X28489711Y-50621789D01*
X28620814Y-50709390D01*
X28620827Y-50709397D01*
X28764337Y-50768840D01*
X28766503Y-50769737D01*
X28921153Y-50800499D01*
X28921156Y-50800500D01*
X28921158Y-50800500D01*
X29078844Y-50800500D01*
X29078845Y-50800499D01*
X29233497Y-50769737D01*
X29379179Y-50709394D01*
X29510289Y-50621789D01*
X29621789Y-50510289D01*
X29709394Y-50379179D01*
X29769737Y-50233497D01*
X29800500Y-50078842D01*
X29800500Y-49921158D01*
X29800500Y-49921155D01*
X29800499Y-49921153D01*
X29790767Y-49872229D01*
X29769737Y-49766503D01*
X29741990Y-49699515D01*
X29709397Y-49620827D01*
X29709390Y-49620814D01*
X29621398Y-49489125D01*
X29600520Y-49422447D01*
X29600500Y-49420234D01*
X29600500Y-40579765D01*
X29620185Y-40512726D01*
X29621398Y-40510874D01*
X29709390Y-40379185D01*
X29709390Y-40379184D01*
X29709394Y-40379179D01*
X29769737Y-40233497D01*
X29800500Y-40078842D01*
X29800500Y-39921158D01*
X29800500Y-39921155D01*
X29800499Y-39921153D01*
X29779204Y-39814098D01*
X29769737Y-39766503D01*
X29747373Y-39712511D01*
X29709397Y-39620827D01*
X29709390Y-39620814D01*
X29621789Y-39489711D01*
X29621786Y-39489707D01*
X29510292Y-39378213D01*
X29510288Y-39378210D01*
X29379185Y-39290609D01*
X29379172Y-39290602D01*
X29233501Y-39230264D01*
X29233489Y-39230261D01*
X29078845Y-39199500D01*
X29078842Y-39199500D01*
X28921158Y-39199500D01*
X28921155Y-39199500D01*
X28766510Y-39230261D01*
X28766498Y-39230264D01*
X28620827Y-39290602D01*
X28620814Y-39290609D01*
X28489711Y-39378210D01*
X28489707Y-39378213D01*
X28378213Y-39489707D01*
X28378210Y-39489711D01*
X28290609Y-39620814D01*
X28290602Y-39620827D01*
X28230264Y-39766498D01*
X28230261Y-39766510D01*
X28199500Y-39921153D01*
X23700500Y-39921153D01*
X23700500Y-33341519D01*
X23720185Y-33274480D01*
X23736819Y-33253838D01*
X24292838Y-32697819D01*
X24354161Y-32664334D01*
X24380519Y-32661500D01*
X30669364Y-32661500D01*
X30736403Y-32681185D01*
X30782158Y-32733989D01*
X30792102Y-32803147D01*
X30787296Y-32823813D01*
X30771991Y-32870916D01*
X30731522Y-32995465D01*
X30699500Y-33197648D01*
X30699500Y-33402351D01*
X30731522Y-33604534D01*
X30794781Y-33799223D01*
X30858691Y-33924653D01*
X30870430Y-33947691D01*
X30887715Y-33981613D01*
X31008028Y-34147213D01*
X31152786Y-34291971D01*
X31307749Y-34404556D01*
X31318390Y-34412287D01*
X31409840Y-34458883D01*
X31411080Y-34459515D01*
X31461876Y-34507490D01*
X31478671Y-34575311D01*
X31456134Y-34641446D01*
X31411080Y-34680485D01*
X31318386Y-34727715D01*
X31152786Y-34848028D01*
X31008028Y-34992786D01*
X30887715Y-35158386D01*
X30794781Y-35340776D01*
X30731522Y-35535465D01*
X30699500Y-35737648D01*
X30699500Y-35942351D01*
X30731522Y-36144534D01*
X30794781Y-36339223D01*
X30887715Y-36521613D01*
X31008028Y-36687213D01*
X31152786Y-36831971D01*
X31290748Y-36932204D01*
X31318390Y-36952287D01*
X31409840Y-36998883D01*
X31411080Y-36999515D01*
X31461876Y-37047490D01*
X31478671Y-37115311D01*
X31456134Y-37181446D01*
X31411080Y-37220485D01*
X31318386Y-37267715D01*
X31152786Y-37388028D01*
X31008028Y-37532786D01*
X30887715Y-37698386D01*
X30794781Y-37880776D01*
X30731522Y-38075465D01*
X30699500Y-38277648D01*
X30699500Y-38482351D01*
X30731522Y-38684534D01*
X30794781Y-38879223D01*
X30858691Y-39004653D01*
X30870430Y-39027691D01*
X30887715Y-39061613D01*
X31008028Y-39227213D01*
X31152786Y-39371971D01*
X31307749Y-39484556D01*
X31318390Y-39492287D01*
X31409840Y-39538883D01*
X31411080Y-39539515D01*
X31461876Y-39587490D01*
X31478671Y-39655311D01*
X31456134Y-39721446D01*
X31411080Y-39760485D01*
X31318386Y-39807715D01*
X31152786Y-39928028D01*
X31008028Y-40072786D01*
X30887715Y-40238386D01*
X30794781Y-40420776D01*
X30731522Y-40615465D01*
X30699500Y-40817648D01*
X30699500Y-41022351D01*
X30731522Y-41224534D01*
X30794781Y-41419223D01*
X30842297Y-41512477D01*
X30870430Y-41567691D01*
X30887715Y-41601613D01*
X31008028Y-41767213D01*
X31152786Y-41911971D01*
X31307749Y-42024556D01*
X31318390Y-42032287D01*
X31409840Y-42078883D01*
X31411080Y-42079515D01*
X31461876Y-42127490D01*
X31478671Y-42195311D01*
X31456134Y-42261446D01*
X31411080Y-42300485D01*
X31318386Y-42347715D01*
X31152786Y-42468028D01*
X31008028Y-42612786D01*
X30887715Y-42778386D01*
X30794781Y-42960776D01*
X30731522Y-43155465D01*
X30699500Y-43357648D01*
X30699500Y-43562351D01*
X30731522Y-43764534D01*
X30794781Y-43959223D01*
X30887715Y-44141613D01*
X31008028Y-44307213D01*
X31152786Y-44451971D01*
X31307749Y-44564556D01*
X31318390Y-44572287D01*
X31409840Y-44618883D01*
X31411080Y-44619515D01*
X31461876Y-44667490D01*
X31478671Y-44735311D01*
X31456134Y-44801446D01*
X31411080Y-44840485D01*
X31318386Y-44887715D01*
X31152786Y-45008028D01*
X31008028Y-45152786D01*
X30887715Y-45318386D01*
X30794781Y-45500776D01*
X30731522Y-45695465D01*
X30699500Y-45897648D01*
X30699500Y-46102351D01*
X30731522Y-46304534D01*
X30794781Y-46499223D01*
X30887715Y-46681613D01*
X31008028Y-46847213D01*
X31152786Y-46991971D01*
X31275537Y-47081153D01*
X31318390Y-47112287D01*
X31390424Y-47148990D01*
X31411629Y-47159795D01*
X31462425Y-47207770D01*
X31479220Y-47275591D01*
X31456682Y-47341726D01*
X31411629Y-47380765D01*
X31318650Y-47428140D01*
X31153105Y-47548417D01*
X31153104Y-47548417D01*
X31008417Y-47693104D01*
X31008417Y-47693105D01*
X30888140Y-47858650D01*
X30795244Y-48040970D01*
X30732009Y-48235586D01*
X30723391Y-48290000D01*
X31566988Y-48290000D01*
X31534075Y-48347007D01*
X31500000Y-48474174D01*
X31500000Y-48605826D01*
X31534075Y-48732993D01*
X31566988Y-48790000D01*
X30723391Y-48790000D01*
X30732009Y-48844413D01*
X30795244Y-49039029D01*
X30888140Y-49221349D01*
X31008417Y-49386894D01*
X31008417Y-49386895D01*
X31153104Y-49531582D01*
X31318652Y-49651861D01*
X31411628Y-49699234D01*
X31462425Y-49747208D01*
X31479220Y-49815029D01*
X31456683Y-49881164D01*
X31411630Y-49920203D01*
X31318388Y-49967713D01*
X31152786Y-50088028D01*
X31008028Y-50232786D01*
X30887715Y-50398386D01*
X30794781Y-50580776D01*
X30731522Y-50775465D01*
X30699500Y-50977648D01*
X30699500Y-51182351D01*
X30731522Y-51384534D01*
X30794781Y-51579223D01*
X30887715Y-51761613D01*
X31008028Y-51927213D01*
X31152786Y-52071971D01*
X31307749Y-52184556D01*
X31318390Y-52192287D01*
X31409840Y-52238883D01*
X31411080Y-52239515D01*
X31461876Y-52287490D01*
X31478671Y-52355311D01*
X31456134Y-52421446D01*
X31411080Y-52460485D01*
X31318386Y-52507715D01*
X31152786Y-52628028D01*
X31008028Y-52772786D01*
X30887715Y-52938386D01*
X30794781Y-53120776D01*
X30731522Y-53315465D01*
X30699500Y-53517648D01*
X30699500Y-53722351D01*
X30731522Y-53924534D01*
X30794781Y-54119223D01*
X30887715Y-54301613D01*
X31008028Y-54467213D01*
X31152784Y-54611969D01*
X31189068Y-54638330D01*
X31231735Y-54693659D01*
X31237715Y-54763273D01*
X31205109Y-54825068D01*
X31144271Y-54859426D01*
X31129440Y-54861938D01*
X31092519Y-54865907D01*
X30957671Y-54916202D01*
X30957664Y-54916206D01*
X30842455Y-55002452D01*
X30842452Y-55002455D01*
X30756206Y-55117664D01*
X30756202Y-55117671D01*
X30705908Y-55252517D01*
X30699501Y-55312116D01*
X30699501Y-55312123D01*
X30699500Y-55312135D01*
X30699500Y-57007870D01*
X30699501Y-57007876D01*
X30705908Y-57067483D01*
X30756202Y-57202328D01*
X30756206Y-57202335D01*
X30842452Y-57317544D01*
X30842455Y-57317547D01*
X30957664Y-57403793D01*
X30957671Y-57403797D01*
X31092517Y-57454091D01*
X31092516Y-57454091D01*
X31099444Y-57454835D01*
X31152127Y-57460500D01*
X32847872Y-57460499D01*
X32907483Y-57454091D01*
X33042331Y-57403796D01*
X33157546Y-57317546D01*
X33243796Y-57202331D01*
X33294091Y-57067483D01*
X33300500Y-57007873D01*
X33300499Y-55312128D01*
X33294091Y-55252517D01*
X33243796Y-55117669D01*
X33243795Y-55117668D01*
X33243793Y-55117664D01*
X33157547Y-55002455D01*
X33157544Y-55002452D01*
X33042335Y-54916206D01*
X33042328Y-54916202D01*
X32907482Y-54865908D01*
X32907483Y-54865908D01*
X32870560Y-54861939D01*
X32806009Y-54835201D01*
X32766160Y-54777809D01*
X32763667Y-54707984D01*
X32799319Y-54647895D01*
X32810930Y-54638331D01*
X32847219Y-54611966D01*
X32991966Y-54467219D01*
X32991968Y-54467215D01*
X32991971Y-54467213D01*
X33044732Y-54394590D01*
X33112287Y-54301610D01*
X33205220Y-54119219D01*
X33268477Y-53924534D01*
X33300500Y-53722352D01*
X33300500Y-53517648D01*
X33286144Y-53427007D01*
X33268477Y-53315465D01*
X33205218Y-53120776D01*
X33112419Y-52938650D01*
X33112287Y-52938390D01*
X33104556Y-52927749D01*
X32991971Y-52772786D01*
X32847213Y-52628028D01*
X32681614Y-52507715D01*
X32675006Y-52504348D01*
X32588917Y-52460483D01*
X32538123Y-52412511D01*
X32521328Y-52344690D01*
X32543865Y-52278555D01*
X32588917Y-52239516D01*
X32681610Y-52192287D01*
X32702770Y-52176913D01*
X32847213Y-52071971D01*
X32847215Y-52071968D01*
X32847219Y-52071966D01*
X32991966Y-51927219D01*
X32991968Y-51927215D01*
X32991971Y-51927213D01*
X33044732Y-51854590D01*
X33112287Y-51761610D01*
X33205220Y-51579219D01*
X33268477Y-51384534D01*
X33300500Y-51182352D01*
X33300500Y-50977648D01*
X33291096Y-50918273D01*
X33268477Y-50775465D01*
X33218230Y-50620821D01*
X33205220Y-50580781D01*
X33205218Y-50580778D01*
X33205218Y-50580776D01*
X33158817Y-50489711D01*
X33112287Y-50398390D01*
X33077485Y-50350489D01*
X32991971Y-50232786D01*
X32847213Y-50088028D01*
X32681611Y-49967713D01*
X32588369Y-49920203D01*
X32537574Y-49872229D01*
X32520779Y-49804407D01*
X32543317Y-49738273D01*
X32588371Y-49699234D01*
X32681347Y-49651861D01*
X32846894Y-49531582D01*
X32846895Y-49531582D01*
X32991582Y-49386895D01*
X32991582Y-49386894D01*
X33111859Y-49221349D01*
X33204755Y-49039029D01*
X33267990Y-48844413D01*
X33276609Y-48790000D01*
X32433012Y-48790000D01*
X32465925Y-48732993D01*
X32500000Y-48605826D01*
X32500000Y-48474174D01*
X32465925Y-48347007D01*
X32433012Y-48290000D01*
X33285735Y-48290000D01*
X33323614Y-48265272D01*
X33393482Y-48264772D01*
X33447078Y-48296314D01*
X34631284Y-49480520D01*
X34631286Y-49480521D01*
X34631290Y-49480524D01*
X34768209Y-49559573D01*
X34768216Y-49559577D01*
X34920943Y-49600501D01*
X34920945Y-49600501D01*
X35086654Y-49600501D01*
X35086670Y-49600500D01*
X36549846Y-49600500D01*
X36616885Y-49620185D01*
X36637527Y-49636819D01*
X37351196Y-50350489D01*
X37384681Y-50411812D01*
X37379697Y-50481504D01*
X37366617Y-50507061D01*
X37290609Y-50620814D01*
X37290602Y-50620827D01*
X37230264Y-50766498D01*
X37230261Y-50766510D01*
X37199500Y-50921153D01*
X37199500Y-51078846D01*
X37230261Y-51233489D01*
X37230264Y-51233501D01*
X37290602Y-51379172D01*
X37290609Y-51379185D01*
X37378602Y-51510874D01*
X37399480Y-51577551D01*
X37399500Y-51579765D01*
X37399500Y-55525579D01*
X37379815Y-55592618D01*
X37327011Y-55638373D01*
X37257853Y-55648317D01*
X37194297Y-55619292D01*
X37165015Y-55581874D01*
X37136331Y-55525579D01*
X37112287Y-55478390D01*
X37104556Y-55467749D01*
X36991971Y-55312786D01*
X36847213Y-55168028D01*
X36681613Y-55047715D01*
X36681612Y-55047714D01*
X36681610Y-55047713D01*
X36624653Y-55018691D01*
X36499223Y-54954781D01*
X36304534Y-54891522D01*
X36117751Y-54861939D01*
X36102352Y-54859500D01*
X35897648Y-54859500D01*
X35882249Y-54861939D01*
X35695465Y-54891522D01*
X35500776Y-54954781D01*
X35318386Y-55047715D01*
X35152786Y-55168028D01*
X35008028Y-55312786D01*
X34887715Y-55478386D01*
X34794781Y-55660776D01*
X34731522Y-55855465D01*
X34699500Y-56057648D01*
X34699500Y-56262351D01*
X34731522Y-56464534D01*
X34794781Y-56659223D01*
X34839907Y-56747786D01*
X34863668Y-56794420D01*
X34887715Y-56841613D01*
X35008028Y-57007213D01*
X35152786Y-57151971D01*
X35307749Y-57264556D01*
X35318390Y-57272287D01*
X35407212Y-57317544D01*
X35500776Y-57365218D01*
X35500778Y-57365218D01*
X35500781Y-57365220D01*
X35586358Y-57393025D01*
X35675743Y-57422069D01*
X35733418Y-57461507D01*
X35760616Y-57525866D01*
X35748701Y-57594712D01*
X35701457Y-57646188D01*
X35675743Y-57657931D01*
X35500776Y-57714781D01*
X35318386Y-57807715D01*
X35152786Y-57928028D01*
X35008028Y-58072786D01*
X34887715Y-58238386D01*
X34794781Y-58420776D01*
X34731522Y-58615465D01*
X34699500Y-58817648D01*
X34699500Y-59022351D01*
X34731522Y-59224534D01*
X34794781Y-59419223D01*
X34839907Y-59507786D01*
X34863668Y-59554420D01*
X34887715Y-59601613D01*
X35008028Y-59767213D01*
X35152786Y-59911971D01*
X35307749Y-60024556D01*
X35318390Y-60032287D01*
X35434607Y-60091503D01*
X35500776Y-60125218D01*
X35500778Y-60125218D01*
X35500781Y-60125220D01*
X35555207Y-60142904D01*
X35695465Y-60188477D01*
X35796557Y-60204488D01*
X35897648Y-60220500D01*
X35897649Y-60220500D01*
X36102351Y-60220500D01*
X36102352Y-60220500D01*
X36304534Y-60188477D01*
X36499219Y-60125220D01*
X36681610Y-60032287D01*
X36808559Y-59940054D01*
X36847213Y-59911971D01*
X36847215Y-59911968D01*
X36847219Y-59911966D01*
X36991966Y-59767219D01*
X36991968Y-59767215D01*
X36991971Y-59767213D01*
X37112284Y-59601614D01*
X37112285Y-59601613D01*
X37112287Y-59601610D01*
X37165015Y-59498124D01*
X37212989Y-59447329D01*
X37280810Y-59430534D01*
X37346945Y-59453071D01*
X37390397Y-59507786D01*
X37399500Y-59554420D01*
X37399500Y-66779902D01*
X37379815Y-66846941D01*
X37363181Y-66867583D01*
X36444842Y-67785921D01*
X36383519Y-67819406D01*
X36318848Y-67816173D01*
X36304534Y-67811522D01*
X36129995Y-67783878D01*
X36102352Y-67779500D01*
X35897648Y-67779500D01*
X35873329Y-67783351D01*
X35695465Y-67811522D01*
X35500776Y-67874781D01*
X35318386Y-67967715D01*
X35152786Y-68088028D01*
X35008028Y-68232786D01*
X34887715Y-68398386D01*
X34794781Y-68580776D01*
X34731522Y-68775465D01*
X34699500Y-68977648D01*
X34699500Y-69182351D01*
X34731522Y-69384534D01*
X34794781Y-69579223D01*
X34854009Y-69695462D01*
X34866713Y-69720396D01*
X34887715Y-69761613D01*
X35008028Y-69927213D01*
X35152786Y-70071971D01*
X35307749Y-70184556D01*
X35318390Y-70192287D01*
X35396498Y-70232085D01*
X35500776Y-70285218D01*
X35500778Y-70285218D01*
X35500781Y-70285220D01*
X35605137Y-70319127D01*
X35695465Y-70348477D01*
X35796557Y-70364488D01*
X35897648Y-70380500D01*
X35897649Y-70380500D01*
X36102351Y-70380500D01*
X36102352Y-70380500D01*
X36304534Y-70348477D01*
X36499219Y-70285220D01*
X36681610Y-70192287D01*
X36782432Y-70119036D01*
X36847213Y-70071971D01*
X36847215Y-70071968D01*
X36847219Y-70071966D01*
X36991966Y-69927219D01*
X36991968Y-69927215D01*
X36991971Y-69927213D01*
X37044732Y-69854590D01*
X37112287Y-69761610D01*
X37205220Y-69579219D01*
X37268477Y-69384534D01*
X37300500Y-69182352D01*
X37300500Y-68977648D01*
X37268477Y-68775466D01*
X37263825Y-68761151D01*
X37261832Y-68691312D01*
X37294075Y-68635158D01*
X38187819Y-67741415D01*
X38249142Y-67707930D01*
X38318834Y-67712914D01*
X38374767Y-67754786D01*
X38399184Y-67820250D01*
X38399500Y-67829096D01*
X38399500Y-70134902D01*
X38379815Y-70201941D01*
X38363181Y-70222583D01*
X37794202Y-70791561D01*
X37732879Y-70825046D01*
X37668203Y-70821811D01*
X37643584Y-70813812D01*
X37597952Y-70798985D01*
X37489086Y-70781742D01*
X37380222Y-70764500D01*
X37159778Y-70764500D01*
X37087201Y-70775995D01*
X36942047Y-70798985D01*
X36732396Y-70867103D01*
X36732393Y-70867104D01*
X36535974Y-70967187D01*
X36357641Y-71096752D01*
X36357636Y-71096756D01*
X36307463Y-71146929D01*
X36246140Y-71180413D01*
X36176448Y-71175428D01*
X36120515Y-71133557D01*
X36103601Y-71102580D01*
X36073797Y-71022671D01*
X36073793Y-71022664D01*
X35987547Y-70907455D01*
X35987544Y-70907452D01*
X35872335Y-70821206D01*
X35872328Y-70821202D01*
X35737482Y-70770908D01*
X35737483Y-70770908D01*
X35677883Y-70764501D01*
X35677881Y-70764500D01*
X35677873Y-70764500D01*
X35677864Y-70764500D01*
X33782129Y-70764500D01*
X33782123Y-70764501D01*
X33722516Y-70770908D01*
X33587671Y-70821202D01*
X33587664Y-70821206D01*
X33472455Y-70907452D01*
X33472452Y-70907455D01*
X33386206Y-71022664D01*
X33386202Y-71022671D01*
X33335908Y-71157517D01*
X33329501Y-71217116D01*
X33329500Y-71217135D01*
X33329500Y-73112870D01*
X33329501Y-73112876D01*
X33335908Y-73172483D01*
X33386202Y-73307328D01*
X33386206Y-73307335D01*
X33472452Y-73422544D01*
X33472455Y-73422547D01*
X33587664Y-73508793D01*
X33587671Y-73508797D01*
X33722517Y-73559091D01*
X33722516Y-73559091D01*
X33729444Y-73559835D01*
X33782127Y-73565500D01*
X35677872Y-73565499D01*
X35737483Y-73559091D01*
X35872331Y-73508796D01*
X35987546Y-73422546D01*
X36073796Y-73307331D01*
X36101429Y-73233243D01*
X36103601Y-73227420D01*
X36145471Y-73171486D01*
X36210936Y-73147068D01*
X36279209Y-73161919D01*
X36307464Y-73183071D01*
X36357636Y-73233243D01*
X36357641Y-73233247D01*
X36459603Y-73307326D01*
X36535978Y-73362815D01*
X36664375Y-73428237D01*
X36732393Y-73462895D01*
X36732396Y-73462896D01*
X36837221Y-73496955D01*
X36942049Y-73531015D01*
X37159778Y-73565500D01*
X37159779Y-73565500D01*
X37380221Y-73565500D01*
X37380222Y-73565500D01*
X37597951Y-73531015D01*
X37807606Y-73462895D01*
X38004022Y-73362815D01*
X38182365Y-73233242D01*
X38338242Y-73077365D01*
X38467815Y-72899022D01*
X38567895Y-72702606D01*
X38636015Y-72492951D01*
X38670500Y-72275222D01*
X38670500Y-72054778D01*
X38636015Y-71837049D01*
X38613188Y-71766794D01*
X38611193Y-71696953D01*
X38643436Y-71640797D01*
X39358506Y-70925728D01*
X39358511Y-70925724D01*
X39368714Y-70915520D01*
X39368716Y-70915520D01*
X39480520Y-70803716D01*
X39559577Y-70666784D01*
X39600500Y-70514057D01*
X39600500Y-51239117D01*
X39600501Y-51239104D01*
X39600501Y-51071001D01*
X39600501Y-51071000D01*
X39559577Y-50918273D01*
X39541265Y-50886555D01*
X39480524Y-50781347D01*
X39480518Y-50781339D01*
X37337533Y-48638355D01*
X37337531Y-48638352D01*
X37218660Y-48519481D01*
X37218659Y-48519480D01*
X37131847Y-48469360D01*
X37131847Y-48469359D01*
X37131843Y-48469358D01*
X37081728Y-48440423D01*
X36929000Y-48399499D01*
X36770886Y-48399499D01*
X36763290Y-48399499D01*
X36763274Y-48399500D01*
X35300098Y-48399500D01*
X35233059Y-48379815D01*
X35212417Y-48363181D01*
X33294077Y-46444842D01*
X33260592Y-46383519D01*
X33263828Y-46318841D01*
X33268477Y-46304534D01*
X33300500Y-46102352D01*
X33300500Y-45897648D01*
X34699500Y-45897648D01*
X34699500Y-46102351D01*
X34731522Y-46304534D01*
X34794781Y-46499223D01*
X34887715Y-46681613D01*
X35008028Y-46847213D01*
X35152786Y-46991971D01*
X35275537Y-47081153D01*
X35318390Y-47112287D01*
X35411080Y-47159515D01*
X35500776Y-47205218D01*
X35500778Y-47205218D01*
X35500781Y-47205220D01*
X35604259Y-47238842D01*
X35695465Y-47268477D01*
X35714697Y-47271523D01*
X35897648Y-47300500D01*
X35897649Y-47300500D01*
X36102351Y-47300500D01*
X36102352Y-47300500D01*
X36304534Y-47268477D01*
X36499219Y-47205220D01*
X36681610Y-47112287D01*
X36774590Y-47044732D01*
X36847213Y-46991971D01*
X36847215Y-46991968D01*
X36847219Y-46991966D01*
X36991966Y-46847219D01*
X37009716Y-46822786D01*
X37065042Y-46780122D01*
X37134656Y-46774140D01*
X37196452Y-46806743D01*
X37230811Y-46867581D01*
X37229115Y-46920063D01*
X37231451Y-46920528D01*
X37199500Y-47081153D01*
X37199500Y-47238846D01*
X37230261Y-47393489D01*
X37230264Y-47393501D01*
X37290602Y-47539172D01*
X37290609Y-47539185D01*
X37378210Y-47670288D01*
X37378213Y-47670292D01*
X37489707Y-47781786D01*
X37489711Y-47781789D01*
X37620814Y-47869390D01*
X37620827Y-47869397D01*
X37766498Y-47929735D01*
X37766503Y-47929737D01*
X37896982Y-47955691D01*
X37921153Y-47960499D01*
X37921156Y-47960500D01*
X37921158Y-47960500D01*
X38078844Y-47960500D01*
X38078845Y-47960499D01*
X38233497Y-47929737D01*
X38233509Y-47929731D01*
X38239324Y-47927969D01*
X38240158Y-47930720D01*
X38297359Y-47924497D01*
X38359878Y-47955691D01*
X38395608Y-48015734D01*
X38399500Y-48046555D01*
X38399500Y-49119056D01*
X38440423Y-49271783D01*
X38440426Y-49271790D01*
X38519475Y-49408709D01*
X38519479Y-49408714D01*
X38519480Y-49408716D01*
X38631284Y-49520520D01*
X38631286Y-49520521D01*
X38631290Y-49520524D01*
X38768209Y-49599573D01*
X38768216Y-49599577D01*
X38920943Y-49640500D01*
X38920945Y-49640500D01*
X39079055Y-49640500D01*
X39079057Y-49640500D01*
X39231784Y-49599577D01*
X39368716Y-49520520D01*
X39480520Y-49408716D01*
X39559577Y-49271784D01*
X39600500Y-49119057D01*
X39600500Y-42669059D01*
X39600501Y-42669046D01*
X39600501Y-42500945D01*
X39600501Y-42500943D01*
X39559577Y-42348215D01*
X39505632Y-42254780D01*
X39480520Y-42211284D01*
X39368716Y-42099480D01*
X39368713Y-42099478D01*
X37653253Y-40384018D01*
X37619768Y-40322695D01*
X37618461Y-40276943D01*
X37635500Y-40169366D01*
X37635500Y-39990634D01*
X37607540Y-39814103D01*
X37607539Y-39814099D01*
X37607539Y-39814098D01*
X37552310Y-39644121D01*
X37552308Y-39644118D01*
X37540435Y-39620814D01*
X37471167Y-39484868D01*
X37366111Y-39340272D01*
X37239728Y-39213889D01*
X37095132Y-39108833D01*
X36935881Y-39027691D01*
X36935878Y-39027689D01*
X36765899Y-38972460D01*
X36648209Y-38953820D01*
X36589366Y-38944500D01*
X36410634Y-38944500D01*
X36351790Y-38953820D01*
X36234101Y-38972460D01*
X36234098Y-38972460D01*
X36064121Y-39027689D01*
X36064118Y-39027691D01*
X35904867Y-39108833D01*
X35760270Y-39213890D01*
X35633890Y-39340270D01*
X35528833Y-39484867D01*
X35447691Y-39644118D01*
X35447689Y-39644121D01*
X35392460Y-39814098D01*
X35392460Y-39814101D01*
X35364500Y-39990634D01*
X35364500Y-40169365D01*
X35392460Y-40345898D01*
X35392460Y-40345901D01*
X35447689Y-40515878D01*
X35447691Y-40515881D01*
X35528833Y-40675132D01*
X35633889Y-40819728D01*
X35760272Y-40946111D01*
X35904868Y-41051167D01*
X36064119Y-41132309D01*
X36064121Y-41132310D01*
X36222670Y-41183825D01*
X36234103Y-41187540D01*
X36410634Y-41215500D01*
X36410635Y-41215500D01*
X36589364Y-41215500D01*
X36589366Y-41215500D01*
X36696941Y-41198461D01*
X36702364Y-41199162D01*
X36707491Y-41197250D01*
X36736641Y-41203591D01*
X36766232Y-41207415D01*
X36771837Y-41211247D01*
X36775764Y-41212102D01*
X36804018Y-41233253D01*
X36873088Y-41302323D01*
X36906573Y-41363646D01*
X36901589Y-41433338D01*
X36859717Y-41489271D01*
X36794253Y-41513688D01*
X36766010Y-41512477D01*
X36589366Y-41484500D01*
X36410634Y-41484500D01*
X36351790Y-41493820D01*
X36234101Y-41512460D01*
X36234098Y-41512460D01*
X36064121Y-41567689D01*
X36064118Y-41567691D01*
X35904867Y-41648833D01*
X35760270Y-41753890D01*
X35633890Y-41880270D01*
X35528833Y-42024867D01*
X35447691Y-42184118D01*
X35447689Y-42184121D01*
X35392460Y-42354098D01*
X35392460Y-42354101D01*
X35364500Y-42530634D01*
X35364500Y-42709365D01*
X35392460Y-42885898D01*
X35392460Y-42885901D01*
X35447689Y-43055878D01*
X35447691Y-43055881D01*
X35528833Y-43215132D01*
X35633889Y-43359728D01*
X35760272Y-43486111D01*
X35904868Y-43591167D01*
X36064119Y-43672309D01*
X36064121Y-43672310D01*
X36222670Y-43723825D01*
X36234103Y-43727540D01*
X36410634Y-43755500D01*
X36410635Y-43755500D01*
X36589364Y-43755500D01*
X36589366Y-43755500D01*
X36696941Y-43738461D01*
X36766232Y-43747415D01*
X36804018Y-43773253D01*
X37363181Y-44332416D01*
X37396666Y-44393739D01*
X37399500Y-44420097D01*
X37399500Y-45365579D01*
X37379815Y-45432618D01*
X37327011Y-45478373D01*
X37257853Y-45488317D01*
X37194297Y-45459292D01*
X37165015Y-45421874D01*
X37136331Y-45365579D01*
X37112287Y-45318390D01*
X37104556Y-45307749D01*
X36991971Y-45152786D01*
X36847213Y-45008028D01*
X36681613Y-44887715D01*
X36681612Y-44887714D01*
X36681610Y-44887713D01*
X36624653Y-44858691D01*
X36499223Y-44794781D01*
X36304534Y-44731522D01*
X36129995Y-44703878D01*
X36102352Y-44699500D01*
X35897648Y-44699500D01*
X35873329Y-44703351D01*
X35695465Y-44731522D01*
X35500776Y-44794781D01*
X35318386Y-44887715D01*
X35152786Y-45008028D01*
X35008028Y-45152786D01*
X34887715Y-45318386D01*
X34794781Y-45500776D01*
X34731522Y-45695465D01*
X34699500Y-45897648D01*
X33300500Y-45897648D01*
X33268477Y-45695466D01*
X33205220Y-45500781D01*
X33205218Y-45500778D01*
X33205218Y-45500776D01*
X33165015Y-45421874D01*
X33112287Y-45318390D01*
X33104556Y-45307749D01*
X32991971Y-45152786D01*
X32847213Y-45008028D01*
X32681614Y-44887715D01*
X32675006Y-44884348D01*
X32588917Y-44840483D01*
X32538123Y-44792511D01*
X32521328Y-44724690D01*
X32543865Y-44658555D01*
X32588917Y-44619516D01*
X32681610Y-44572287D01*
X32702770Y-44556913D01*
X32847213Y-44451971D01*
X32847215Y-44451968D01*
X32847219Y-44451966D01*
X32991966Y-44307219D01*
X32991968Y-44307215D01*
X32991971Y-44307213D01*
X33044732Y-44234590D01*
X33112287Y-44141610D01*
X33205220Y-43959219D01*
X33268477Y-43764534D01*
X33300500Y-43562352D01*
X33300500Y-43357648D01*
X33268477Y-43155466D01*
X33205220Y-42960781D01*
X33205218Y-42960778D01*
X33205218Y-42960776D01*
X33163725Y-42879343D01*
X33112287Y-42778390D01*
X33062138Y-42709365D01*
X32991971Y-42612786D01*
X32847213Y-42468028D01*
X32681614Y-42347715D01*
X32675006Y-42344348D01*
X32588917Y-42300483D01*
X32538123Y-42252511D01*
X32521328Y-42184690D01*
X32543865Y-42118555D01*
X32588917Y-42079516D01*
X32681610Y-42032287D01*
X32702770Y-42016913D01*
X32847213Y-41911971D01*
X32847215Y-41911968D01*
X32847219Y-41911966D01*
X32991966Y-41767219D01*
X32991968Y-41767215D01*
X32991971Y-41767213D01*
X33044732Y-41694590D01*
X33112287Y-41601610D01*
X33205220Y-41419219D01*
X33268477Y-41224534D01*
X33300500Y-41022352D01*
X33300500Y-40817648D01*
X33268477Y-40615466D01*
X33205220Y-40420781D01*
X33205218Y-40420778D01*
X33205218Y-40420776D01*
X33163725Y-40339343D01*
X33112287Y-40238390D01*
X33062138Y-40169365D01*
X32991971Y-40072786D01*
X32847213Y-39928028D01*
X32681614Y-39807715D01*
X32675006Y-39804348D01*
X32588917Y-39760483D01*
X32538123Y-39712511D01*
X32521328Y-39644690D01*
X32543865Y-39578555D01*
X32588917Y-39539516D01*
X32681610Y-39492287D01*
X32702770Y-39476913D01*
X32847213Y-39371971D01*
X32847215Y-39371968D01*
X32847219Y-39371966D01*
X32991966Y-39227219D01*
X32991968Y-39227215D01*
X32991971Y-39227213D01*
X33044732Y-39154590D01*
X33112287Y-39061610D01*
X33205220Y-38879219D01*
X33268477Y-38684534D01*
X33300500Y-38482352D01*
X33300500Y-38277648D01*
X33268477Y-38075466D01*
X33205220Y-37880781D01*
X33205218Y-37880778D01*
X33205218Y-37880776D01*
X33167005Y-37805780D01*
X33112287Y-37698390D01*
X33104056Y-37687061D01*
X32991971Y-37532786D01*
X32909853Y-37450668D01*
X35365000Y-37450668D01*
X35365000Y-37629331D01*
X35392946Y-37805780D01*
X35448155Y-37975693D01*
X35529260Y-38134869D01*
X35538651Y-38147793D01*
X35538652Y-38147794D01*
X36119000Y-37567446D01*
X36119000Y-37590160D01*
X36144964Y-37687061D01*
X36195124Y-37773940D01*
X36266060Y-37844876D01*
X36352939Y-37895036D01*
X36449840Y-37921000D01*
X36472554Y-37921000D01*
X35892205Y-38501347D01*
X35892205Y-38501348D01*
X35905129Y-38510738D01*
X36064306Y-38591844D01*
X36234219Y-38647053D01*
X36410669Y-38675000D01*
X36589331Y-38675000D01*
X36765780Y-38647053D01*
X36935693Y-38591844D01*
X37094867Y-38510739D01*
X37094872Y-38510737D01*
X37107794Y-38501347D01*
X36527447Y-37921000D01*
X36550160Y-37921000D01*
X36647061Y-37895036D01*
X36733940Y-37844876D01*
X36804876Y-37773940D01*
X36855036Y-37687061D01*
X36881000Y-37590160D01*
X36881000Y-37567446D01*
X37461348Y-38147794D01*
X37470737Y-38134872D01*
X37470739Y-38134867D01*
X37551844Y-37975693D01*
X37607053Y-37805780D01*
X37635000Y-37629331D01*
X37635000Y-37450668D01*
X37607053Y-37274219D01*
X37551844Y-37104306D01*
X37470738Y-36945129D01*
X37461347Y-36932205D01*
X36881000Y-37512552D01*
X36881000Y-37489840D01*
X36855036Y-37392939D01*
X36804876Y-37306060D01*
X36733940Y-37235124D01*
X36647061Y-37184964D01*
X36550160Y-37159000D01*
X36527447Y-37159000D01*
X37107794Y-36578652D01*
X37107793Y-36578651D01*
X37094869Y-36569260D01*
X36935693Y-36488155D01*
X36765780Y-36432946D01*
X36589331Y-36405000D01*
X36410669Y-36405000D01*
X36234219Y-36432946D01*
X36064306Y-36488155D01*
X35905127Y-36569262D01*
X35892205Y-36578651D01*
X35892204Y-36578651D01*
X36472554Y-37159000D01*
X36449840Y-37159000D01*
X36352939Y-37184964D01*
X36266060Y-37235124D01*
X36195124Y-37306060D01*
X36144964Y-37392939D01*
X36119000Y-37489840D01*
X36119000Y-37512553D01*
X35538651Y-36932204D01*
X35538651Y-36932205D01*
X35529262Y-36945127D01*
X35448155Y-37104306D01*
X35392946Y-37274219D01*
X35365000Y-37450668D01*
X32909853Y-37450668D01*
X32847213Y-37388028D01*
X32681614Y-37267715D01*
X32675006Y-37264348D01*
X32588917Y-37220483D01*
X32538123Y-37172511D01*
X32521328Y-37104690D01*
X32543865Y-37038555D01*
X32588917Y-36999516D01*
X32681610Y-36952287D01*
X32709252Y-36932204D01*
X32847213Y-36831971D01*
X32847215Y-36831968D01*
X32847219Y-36831966D01*
X32991966Y-36687219D01*
X32998751Y-36677879D01*
X33089464Y-36553025D01*
X33104918Y-36531752D01*
X33112287Y-36521610D01*
X33205220Y-36339219D01*
X33268477Y-36144534D01*
X33300500Y-35942352D01*
X33300500Y-35737648D01*
X33268477Y-35535466D01*
X33205220Y-35340781D01*
X33205218Y-35340778D01*
X33205218Y-35340776D01*
X33167065Y-35265897D01*
X33112287Y-35158390D01*
X33062138Y-35089365D01*
X32991971Y-34992786D01*
X32909819Y-34910634D01*
X35364500Y-34910634D01*
X35364500Y-35089365D01*
X35392460Y-35265898D01*
X35392460Y-35265901D01*
X35447689Y-35435878D01*
X35447691Y-35435881D01*
X35528833Y-35595132D01*
X35633889Y-35739728D01*
X35760272Y-35866111D01*
X35904868Y-35971167D01*
X36064119Y-36052309D01*
X36064121Y-36052310D01*
X36222670Y-36103825D01*
X36234103Y-36107540D01*
X36410634Y-36135500D01*
X36410635Y-36135500D01*
X36589365Y-36135500D01*
X36589366Y-36135500D01*
X36765897Y-36107540D01*
X36765900Y-36107539D01*
X36765901Y-36107539D01*
X36935878Y-36052310D01*
X36935878Y-36052309D01*
X36935881Y-36052309D01*
X37095132Y-35971167D01*
X37239728Y-35866111D01*
X37366111Y-35739728D01*
X37471167Y-35595132D01*
X37552309Y-35435881D01*
X37583209Y-35340781D01*
X37607539Y-35265901D01*
X37607539Y-35265900D01*
X37607540Y-35265897D01*
X37635500Y-35089366D01*
X37635500Y-34910634D01*
X37607540Y-34734103D01*
X37607539Y-34734099D01*
X37607539Y-34734098D01*
X37552310Y-34564121D01*
X37552308Y-34564118D01*
X37522299Y-34505220D01*
X37471167Y-34404868D01*
X37366111Y-34260272D01*
X37239728Y-34133889D01*
X37095132Y-34028833D01*
X36935881Y-33947691D01*
X36935878Y-33947689D01*
X36765899Y-33892460D01*
X36648209Y-33873820D01*
X36589366Y-33864500D01*
X36410634Y-33864500D01*
X36351790Y-33873820D01*
X36234101Y-33892460D01*
X36234098Y-33892460D01*
X36064121Y-33947689D01*
X36064118Y-33947691D01*
X35904867Y-34028833D01*
X35760270Y-34133890D01*
X35633890Y-34260270D01*
X35528833Y-34404867D01*
X35447691Y-34564118D01*
X35447689Y-34564121D01*
X35392460Y-34734098D01*
X35392460Y-34734101D01*
X35364500Y-34910634D01*
X32909819Y-34910634D01*
X32847213Y-34848028D01*
X32681614Y-34727715D01*
X32675006Y-34724348D01*
X32588917Y-34680483D01*
X32538123Y-34632511D01*
X32521328Y-34564690D01*
X32543865Y-34498555D01*
X32588917Y-34459516D01*
X32681610Y-34412287D01*
X32702770Y-34396913D01*
X32847213Y-34291971D01*
X32847215Y-34291968D01*
X32847219Y-34291966D01*
X32991966Y-34147219D01*
X32991968Y-34147215D01*
X32991971Y-34147213D01*
X33044732Y-34074590D01*
X33112287Y-33981610D01*
X33205220Y-33799219D01*
X33268477Y-33604534D01*
X33300500Y-33402352D01*
X33300500Y-33197648D01*
X33268477Y-32995466D01*
X33212704Y-32823817D01*
X33210710Y-32753977D01*
X33246790Y-32694144D01*
X33309491Y-32663316D01*
X33330636Y-32661500D01*
X37107996Y-32661500D01*
X37199040Y-32643389D01*
X37243328Y-32634580D01*
X37307069Y-32608177D01*
X37370807Y-32581777D01*
X37370808Y-32581776D01*
X37370811Y-32581775D01*
X37485543Y-32505114D01*
X39544114Y-30446543D01*
X39620775Y-30331811D01*
X39673580Y-30204328D01*
X39697460Y-30084277D01*
X39700500Y-30068996D01*
X39700500Y-23931005D01*
X39697743Y-23917148D01*
X39697742Y-23917145D01*
X39697741Y-23917139D01*
X39673580Y-23795672D01*
X39657966Y-23757976D01*
X39620777Y-23668192D01*
X39544112Y-23553454D01*
X38384318Y-22393660D01*
X38350833Y-22332337D01*
X38347999Y-22305979D01*
X38347999Y-21489629D01*
X38347998Y-21489623D01*
X38347997Y-21489616D01*
X38341591Y-21430017D01*
X38291296Y-21295169D01*
X38291295Y-21295168D01*
X38291293Y-21295164D01*
X38205047Y-21179955D01*
X38205044Y-21179952D01*
X38089835Y-21093706D01*
X38089828Y-21093702D01*
X37954982Y-21043408D01*
X37954983Y-21043408D01*
X37895375Y-21037000D01*
X37894815Y-21036970D01*
X37894692Y-21036926D01*
X37892072Y-21036645D01*
X37892138Y-21036025D01*
X37828931Y-21013709D01*
X37786082Y-20958521D01*
X37779866Y-20937340D01*
X37771081Y-20893179D01*
X37771080Y-20893172D01*
X37771078Y-20893167D01*
X37718277Y-20765692D01*
X37641612Y-20650954D01*
X34446545Y-17455887D01*
X34331807Y-17379222D01*
X34204332Y-17326421D01*
X34204322Y-17326418D01*
X34068996Y-17299500D01*
X34068994Y-17299500D01*
X34068993Y-17299500D01*
X26068994Y-17299500D01*
X25931006Y-17299500D01*
X25931004Y-17299500D01*
X25795677Y-17326418D01*
X25795667Y-17326421D01*
X25668192Y-17379222D01*
X25553454Y-17455887D01*
X25553453Y-17455888D01*
X20606162Y-22403181D01*
X20544839Y-22436666D01*
X20518481Y-22439500D01*
X17921744Y-22439500D01*
X17854705Y-22419815D01*
X17821425Y-22388384D01*
X17751969Y-22292784D01*
X17607213Y-22148028D01*
X17441614Y-22027715D01*
X17435006Y-22024348D01*
X17348917Y-21980483D01*
X17298123Y-21932511D01*
X17281328Y-21864690D01*
X17303865Y-21798555D01*
X17348917Y-21759516D01*
X17441610Y-21712287D01*
X17462770Y-21696913D01*
X17607213Y-21591971D01*
X17607215Y-21591968D01*
X17607219Y-21591966D01*
X17751966Y-21447219D01*
X17751968Y-21447215D01*
X17751971Y-21447213D01*
X17862434Y-21295171D01*
X17872287Y-21281610D01*
X17965220Y-21099219D01*
X18028477Y-20904534D01*
X18060500Y-20702352D01*
X18060500Y-20497648D01*
X18028477Y-20295466D01*
X17965220Y-20100781D01*
X17965218Y-20100778D01*
X17965218Y-20100776D01*
X17931503Y-20034607D01*
X17872287Y-19918390D01*
X17828305Y-19857853D01*
X17751971Y-19752786D01*
X17607213Y-19608028D01*
X17441613Y-19487715D01*
X17441612Y-19487714D01*
X17441610Y-19487713D01*
X17384653Y-19458691D01*
X17259223Y-19394781D01*
X17064534Y-19331522D01*
X16889995Y-19303878D01*
X16862352Y-19299500D01*
X16657648Y-19299500D01*
X16633329Y-19303351D01*
X16455465Y-19331522D01*
X16260776Y-19394781D01*
X16078386Y-19487715D01*
X15912786Y-19608028D01*
X15768028Y-19752786D01*
X15647715Y-19918386D01*
X15554781Y-20100776D01*
X15491522Y-20295465D01*
X15459500Y-20497648D01*
X12500500Y-20497648D01*
X12500500Y-14893713D01*
X13649500Y-14893713D01*
X13649500Y-15106286D01*
X13682753Y-15316239D01*
X13748444Y-15518414D01*
X13844951Y-15707820D01*
X13969890Y-15879786D01*
X14120213Y-16030109D01*
X14292179Y-16155048D01*
X14292181Y-16155049D01*
X14292184Y-16155051D01*
X14481588Y-16251557D01*
X14683757Y-16317246D01*
X14893713Y-16350500D01*
X14893714Y-16350500D01*
X15106286Y-16350500D01*
X15106287Y-16350500D01*
X15316243Y-16317246D01*
X15518412Y-16251557D01*
X15707816Y-16155051D01*
X15729789Y-16139086D01*
X15879786Y-16030109D01*
X15879788Y-16030106D01*
X15879792Y-16030104D01*
X16030104Y-15879792D01*
X16030106Y-15879788D01*
X16030109Y-15879786D01*
X16155048Y-15707820D01*
X16155047Y-15707820D01*
X16155051Y-15707816D01*
X16251557Y-15518412D01*
X16317246Y-15316243D01*
X16350500Y-15106287D01*
X16350500Y-14893713D01*
X36649500Y-14893713D01*
X36649500Y-15106286D01*
X36682753Y-15316239D01*
X36748444Y-15518414D01*
X36844951Y-15707820D01*
X36969890Y-15879786D01*
X37120213Y-16030109D01*
X37292179Y-16155048D01*
X37292181Y-16155049D01*
X37292184Y-16155051D01*
X37481588Y-16251557D01*
X37683757Y-16317246D01*
X37893713Y-16350500D01*
X37893714Y-16350500D01*
X38106286Y-16350500D01*
X38106287Y-16350500D01*
X38316243Y-16317246D01*
X38518412Y-16251557D01*
X38707816Y-16155051D01*
X38729789Y-16139086D01*
X38879786Y-16030109D01*
X38879788Y-16030106D01*
X38879792Y-16030104D01*
X39030104Y-15879792D01*
X39030106Y-15879788D01*
X39030109Y-15879786D01*
X39155048Y-15707820D01*
X39155047Y-15707820D01*
X39155051Y-15707816D01*
X39251557Y-15518412D01*
X39317246Y-15316243D01*
X39350500Y-15106287D01*
X39350500Y-14893713D01*
X39317246Y-14683757D01*
X39251557Y-14481588D01*
X39155051Y-14292184D01*
X39155049Y-14292181D01*
X39155048Y-14292179D01*
X39030109Y-14120213D01*
X38879786Y-13969890D01*
X38707820Y-13844951D01*
X38518414Y-13748444D01*
X38518413Y-13748443D01*
X38518412Y-13748443D01*
X38316243Y-13682754D01*
X38316241Y-13682753D01*
X38316240Y-13682753D01*
X38154957Y-13657208D01*
X38106287Y-13649500D01*
X37893713Y-13649500D01*
X37845042Y-13657208D01*
X37683760Y-13682753D01*
X37481585Y-13748444D01*
X37292179Y-13844951D01*
X37120213Y-13969890D01*
X36969890Y-14120213D01*
X36844951Y-14292179D01*
X36748444Y-14481585D01*
X36682753Y-14683760D01*
X36649500Y-14893713D01*
X16350500Y-14893713D01*
X16317246Y-14683757D01*
X16251557Y-14481588D01*
X16155051Y-14292184D01*
X16155049Y-14292181D01*
X16155048Y-14292179D01*
X16030109Y-14120213D01*
X15879786Y-13969890D01*
X15707820Y-13844951D01*
X15518414Y-13748444D01*
X15518413Y-13748443D01*
X15518412Y-13748443D01*
X15316243Y-13682754D01*
X15316241Y-13682753D01*
X15316240Y-13682753D01*
X15154957Y-13657208D01*
X15106287Y-13649500D01*
X14893713Y-13649500D01*
X14845042Y-13657208D01*
X14683760Y-13682753D01*
X14481585Y-13748444D01*
X14292179Y-13844951D01*
X14120213Y-13969890D01*
X13969890Y-14120213D01*
X13844951Y-14292179D01*
X13748444Y-14481585D01*
X13682753Y-14683760D01*
X13649500Y-14893713D01*
X12500500Y-14893713D01*
X12500500Y-12624500D01*
X12520185Y-12557461D01*
X12572989Y-12511706D01*
X12624500Y-12500500D01*
X39876000Y-12500500D01*
X39943039Y-12520185D01*
G37*
G04 #@! TD.AperFunction*
M02*
