%TF.GenerationSoftware,KiCad,Pcbnew,9.0.1*%
%TF.CreationDate,2025-05-15T21:23:40-07:00*%
%TF.ProjectId,ARDU_RF_TEMP,41524455-5f52-4465-9f54-454d502e6b69,rev?*%
%TF.SameCoordinates,Original*%
%TF.FileFunction,Drillmap*%
%TF.FilePolarity,Positive*%
%FSLAX45Y45*%
G04 Gerber Fmt 4.5, Leading zero omitted, Abs format (unit mm)*
G04 Created by KiCad (PCBNEW 9.0.1) date 2025-05-15 21:23:40*
%MOMM*%
%LPD*%
G01*
G04 APERTURE LIST*
%ADD10C,0.050000*%
%ADD11C,0.200000*%
%ADD12C,0.210000*%
%ADD13C,0.220000*%
G04 APERTURE END LIST*
D10*
X1200000Y-1200000D02*
X10500000Y-1200000D01*
X10500000Y-8000000D01*
X1200000Y-8000000D01*
X1200000Y-1200000D01*
D11*
D12*
X6395000Y-7595000D02*
X6605000Y-7805000D01*
X6605000Y-7595000D02*
X6395000Y-7805000D01*
X10195000Y-1395000D02*
X10405000Y-1605000D01*
X10405000Y-1395000D02*
X10195000Y-1605000D01*
X10195000Y-7695000D02*
X10405000Y-7905000D01*
X10405000Y-7695000D02*
X10195000Y-7905000D01*
D13*
X1510000Y-7746000D02*
G75*
G02*
X1290000Y-7746000I-110000J0D01*
G01*
X1290000Y-7746000D02*
G75*
G02*
X1510000Y-7746000I110000J0D01*
G01*
X1610000Y-1500000D02*
G75*
G02*
X1390000Y-1500000I-110000J0D01*
G01*
X1390000Y-1500000D02*
G75*
G02*
X1610000Y-1500000I110000J0D01*
G01*
X3910000Y-1500000D02*
G75*
G02*
X3690000Y-1500000I-110000J0D01*
G01*
X3690000Y-1500000D02*
G75*
G02*
X3910000Y-1500000I110000J0D01*
G01*
X4310000Y-1700000D02*
G75*
G02*
X4090000Y-1700000I-110000J0D01*
G01*
X4090000Y-1700000D02*
G75*
G02*
X4310000Y-1700000I110000J0D01*
G01*
X4310000Y-2100000D02*
G75*
G02*
X4090000Y-2100000I-110000J0D01*
G01*
X4090000Y-2100000D02*
G75*
G02*
X4310000Y-2100000I110000J0D01*
G01*
X4310000Y-2700000D02*
G75*
G02*
X4090000Y-2700000I-110000J0D01*
G01*
X4090000Y-2700000D02*
G75*
G02*
X4310000Y-2700000I110000J0D01*
G01*
X4310000Y-3300000D02*
G75*
G02*
X4090000Y-3300000I-110000J0D01*
G01*
X4090000Y-3300000D02*
G75*
G02*
X4310000Y-3300000I110000J0D01*
G01*
X4310000Y-3900000D02*
G75*
G02*
X4090000Y-3900000I-110000J0D01*
G01*
X4090000Y-3900000D02*
G75*
G02*
X4310000Y-3900000I110000J0D01*
G01*
X4310000Y-4500000D02*
G75*
G02*
X4090000Y-4500000I-110000J0D01*
G01*
X4090000Y-4500000D02*
G75*
G02*
X4310000Y-4500000I110000J0D01*
G01*
X4310000Y-5000000D02*
G75*
G02*
X4090000Y-5000000I-110000J0D01*
G01*
X4090000Y-5000000D02*
G75*
G02*
X4310000Y-5000000I110000J0D01*
G01*
X4310000Y-5500000D02*
G75*
G02*
X4090000Y-5500000I-110000J0D01*
G01*
X4090000Y-5500000D02*
G75*
G02*
X4310000Y-5500000I110000J0D01*
G01*
X4310000Y-6000000D02*
G75*
G02*
X4090000Y-6000000I-110000J0D01*
G01*
X4090000Y-6000000D02*
G75*
G02*
X4310000Y-6000000I110000J0D01*
G01*
X4310000Y-6500000D02*
G75*
G02*
X4090000Y-6500000I-110000J0D01*
G01*
X4090000Y-6500000D02*
G75*
G02*
X4310000Y-6500000I110000J0D01*
G01*
X4310000Y-7000000D02*
G75*
G02*
X4090000Y-7000000I-110000J0D01*
G01*
X4090000Y-7000000D02*
G75*
G02*
X4310000Y-7000000I110000J0D01*
G01*
X4310000Y-7400000D02*
G75*
G02*
X4090000Y-7400000I-110000J0D01*
G01*
X4090000Y-7400000D02*
G75*
G02*
X4310000Y-7400000I110000J0D01*
G01*
X4710000Y-1500000D02*
G75*
G02*
X4490000Y-1500000I-110000J0D01*
G01*
X4490000Y-1500000D02*
G75*
G02*
X4710000Y-1500000I110000J0D01*
G01*
D11*
X1458277Y-8313984D02*
X1458277Y-8113984D01*
X1458277Y-8113984D02*
X1505896Y-8113984D01*
X1505896Y-8113984D02*
X1534467Y-8123508D01*
X1534467Y-8123508D02*
X1553515Y-8142555D01*
X1553515Y-8142555D02*
X1563039Y-8161603D01*
X1563039Y-8161603D02*
X1572562Y-8199698D01*
X1572562Y-8199698D02*
X1572562Y-8228269D01*
X1572562Y-8228269D02*
X1563039Y-8266365D01*
X1563039Y-8266365D02*
X1553515Y-8285412D01*
X1553515Y-8285412D02*
X1534467Y-8304460D01*
X1534467Y-8304460D02*
X1505896Y-8313984D01*
X1505896Y-8313984D02*
X1458277Y-8313984D01*
X1658277Y-8313984D02*
X1658277Y-8180650D01*
X1658277Y-8218746D02*
X1667801Y-8199698D01*
X1667801Y-8199698D02*
X1677324Y-8190174D01*
X1677324Y-8190174D02*
X1696372Y-8180650D01*
X1696372Y-8180650D02*
X1715420Y-8180650D01*
X1782086Y-8313984D02*
X1782086Y-8180650D01*
X1782086Y-8113984D02*
X1772562Y-8123508D01*
X1772562Y-8123508D02*
X1782086Y-8133031D01*
X1782086Y-8133031D02*
X1791610Y-8123508D01*
X1791610Y-8123508D02*
X1782086Y-8113984D01*
X1782086Y-8113984D02*
X1782086Y-8133031D01*
X1905896Y-8313984D02*
X1886848Y-8304460D01*
X1886848Y-8304460D02*
X1877324Y-8285412D01*
X1877324Y-8285412D02*
X1877324Y-8113984D01*
X2010658Y-8313984D02*
X1991610Y-8304460D01*
X1991610Y-8304460D02*
X1982086Y-8285412D01*
X1982086Y-8285412D02*
X1982086Y-8113984D01*
X2239229Y-8313984D02*
X2239229Y-8113984D01*
X2239229Y-8113984D02*
X2305896Y-8256841D01*
X2305896Y-8256841D02*
X2372563Y-8113984D01*
X2372563Y-8113984D02*
X2372563Y-8313984D01*
X2553515Y-8313984D02*
X2553515Y-8209222D01*
X2553515Y-8209222D02*
X2543991Y-8190174D01*
X2543991Y-8190174D02*
X2524944Y-8180650D01*
X2524944Y-8180650D02*
X2486848Y-8180650D01*
X2486848Y-8180650D02*
X2467801Y-8190174D01*
X2553515Y-8304460D02*
X2534467Y-8313984D01*
X2534467Y-8313984D02*
X2486848Y-8313984D01*
X2486848Y-8313984D02*
X2467801Y-8304460D01*
X2467801Y-8304460D02*
X2458277Y-8285412D01*
X2458277Y-8285412D02*
X2458277Y-8266365D01*
X2458277Y-8266365D02*
X2467801Y-8247317D01*
X2467801Y-8247317D02*
X2486848Y-8237793D01*
X2486848Y-8237793D02*
X2534467Y-8237793D01*
X2534467Y-8237793D02*
X2553515Y-8228269D01*
X2648753Y-8180650D02*
X2648753Y-8380650D01*
X2648753Y-8190174D02*
X2667801Y-8180650D01*
X2667801Y-8180650D02*
X2705896Y-8180650D01*
X2705896Y-8180650D02*
X2724944Y-8190174D01*
X2724944Y-8190174D02*
X2734467Y-8199698D01*
X2734467Y-8199698D02*
X2743991Y-8218746D01*
X2743991Y-8218746D02*
X2743991Y-8275888D01*
X2743991Y-8275888D02*
X2734467Y-8294936D01*
X2734467Y-8294936D02*
X2724944Y-8304460D01*
X2724944Y-8304460D02*
X2705896Y-8313984D01*
X2705896Y-8313984D02*
X2667801Y-8313984D01*
X2667801Y-8313984D02*
X2648753Y-8304460D01*
X2829705Y-8294936D02*
X2839229Y-8304460D01*
X2839229Y-8304460D02*
X2829705Y-8313984D01*
X2829705Y-8313984D02*
X2820182Y-8304460D01*
X2820182Y-8304460D02*
X2829705Y-8294936D01*
X2829705Y-8294936D02*
X2829705Y-8313984D01*
X2829705Y-8190174D02*
X2839229Y-8199698D01*
X2839229Y-8199698D02*
X2829705Y-8209222D01*
X2829705Y-8209222D02*
X2820182Y-8199698D01*
X2820182Y-8199698D02*
X2829705Y-8190174D01*
X2829705Y-8190174D02*
X2829705Y-8209222D01*
X997500Y-8542500D02*
X1197500Y-8742500D01*
X1197500Y-8542500D02*
X997500Y-8742500D01*
X1448753Y-8553031D02*
X1458277Y-8543508D01*
X1458277Y-8543508D02*
X1477324Y-8533984D01*
X1477324Y-8533984D02*
X1524943Y-8533984D01*
X1524943Y-8533984D02*
X1543991Y-8543508D01*
X1543991Y-8543508D02*
X1553515Y-8553031D01*
X1553515Y-8553031D02*
X1563039Y-8572079D01*
X1563039Y-8572079D02*
X1563039Y-8591127D01*
X1563039Y-8591127D02*
X1553515Y-8619698D01*
X1553515Y-8619698D02*
X1439229Y-8733984D01*
X1439229Y-8733984D02*
X1563039Y-8733984D01*
X1648753Y-8714936D02*
X1658277Y-8724460D01*
X1658277Y-8724460D02*
X1648753Y-8733984D01*
X1648753Y-8733984D02*
X1639229Y-8724460D01*
X1639229Y-8724460D02*
X1648753Y-8714936D01*
X1648753Y-8714936D02*
X1648753Y-8733984D01*
X1848753Y-8733984D02*
X1734467Y-8733984D01*
X1791610Y-8733984D02*
X1791610Y-8533984D01*
X1791610Y-8533984D02*
X1772562Y-8562555D01*
X1772562Y-8562555D02*
X1753515Y-8581603D01*
X1753515Y-8581603D02*
X1734467Y-8591127D01*
X1972562Y-8533984D02*
X1991610Y-8533984D01*
X1991610Y-8533984D02*
X2010658Y-8543508D01*
X2010658Y-8543508D02*
X2020182Y-8553031D01*
X2020182Y-8553031D02*
X2029705Y-8572079D01*
X2029705Y-8572079D02*
X2039229Y-8610174D01*
X2039229Y-8610174D02*
X2039229Y-8657793D01*
X2039229Y-8657793D02*
X2029705Y-8695889D01*
X2029705Y-8695889D02*
X2020182Y-8714936D01*
X2020182Y-8714936D02*
X2010658Y-8724460D01*
X2010658Y-8724460D02*
X1991610Y-8733984D01*
X1991610Y-8733984D02*
X1972562Y-8733984D01*
X1972562Y-8733984D02*
X1953515Y-8724460D01*
X1953515Y-8724460D02*
X1943991Y-8714936D01*
X1943991Y-8714936D02*
X1934467Y-8695889D01*
X1934467Y-8695889D02*
X1924943Y-8657793D01*
X1924943Y-8657793D02*
X1924943Y-8610174D01*
X1924943Y-8610174D02*
X1934467Y-8572079D01*
X1934467Y-8572079D02*
X1943991Y-8553031D01*
X1943991Y-8553031D02*
X1953515Y-8543508D01*
X1953515Y-8543508D02*
X1972562Y-8533984D01*
X2163039Y-8533984D02*
X2182086Y-8533984D01*
X2182086Y-8533984D02*
X2201134Y-8543508D01*
X2201134Y-8543508D02*
X2210658Y-8553031D01*
X2210658Y-8553031D02*
X2220182Y-8572079D01*
X2220182Y-8572079D02*
X2229705Y-8610174D01*
X2229705Y-8610174D02*
X2229705Y-8657793D01*
X2229705Y-8657793D02*
X2220182Y-8695889D01*
X2220182Y-8695889D02*
X2210658Y-8714936D01*
X2210658Y-8714936D02*
X2201134Y-8724460D01*
X2201134Y-8724460D02*
X2182086Y-8733984D01*
X2182086Y-8733984D02*
X2163039Y-8733984D01*
X2163039Y-8733984D02*
X2143991Y-8724460D01*
X2143991Y-8724460D02*
X2134467Y-8714936D01*
X2134467Y-8714936D02*
X2124944Y-8695889D01*
X2124944Y-8695889D02*
X2115420Y-8657793D01*
X2115420Y-8657793D02*
X2115420Y-8610174D01*
X2115420Y-8610174D02*
X2124944Y-8572079D01*
X2124944Y-8572079D02*
X2134467Y-8553031D01*
X2134467Y-8553031D02*
X2143991Y-8543508D01*
X2143991Y-8543508D02*
X2163039Y-8533984D01*
X2315420Y-8733984D02*
X2315420Y-8600650D01*
X2315420Y-8619698D02*
X2324944Y-8610174D01*
X2324944Y-8610174D02*
X2343991Y-8600650D01*
X2343991Y-8600650D02*
X2372563Y-8600650D01*
X2372563Y-8600650D02*
X2391610Y-8610174D01*
X2391610Y-8610174D02*
X2401134Y-8629222D01*
X2401134Y-8629222D02*
X2401134Y-8733984D01*
X2401134Y-8629222D02*
X2410658Y-8610174D01*
X2410658Y-8610174D02*
X2429705Y-8600650D01*
X2429705Y-8600650D02*
X2458277Y-8600650D01*
X2458277Y-8600650D02*
X2477325Y-8610174D01*
X2477325Y-8610174D02*
X2486848Y-8629222D01*
X2486848Y-8629222D02*
X2486848Y-8733984D01*
X2582086Y-8733984D02*
X2582086Y-8600650D01*
X2582086Y-8619698D02*
X2591610Y-8610174D01*
X2591610Y-8610174D02*
X2610658Y-8600650D01*
X2610658Y-8600650D02*
X2639229Y-8600650D01*
X2639229Y-8600650D02*
X2658277Y-8610174D01*
X2658277Y-8610174D02*
X2667801Y-8629222D01*
X2667801Y-8629222D02*
X2667801Y-8733984D01*
X2667801Y-8629222D02*
X2677325Y-8610174D01*
X2677325Y-8610174D02*
X2696372Y-8600650D01*
X2696372Y-8600650D02*
X2724944Y-8600650D01*
X2724944Y-8600650D02*
X2743991Y-8610174D01*
X2743991Y-8610174D02*
X2753515Y-8629222D01*
X2753515Y-8629222D02*
X2753515Y-8733984D01*
X3143991Y-8524460D02*
X2972563Y-8781603D01*
X3401134Y-8533984D02*
X3420182Y-8533984D01*
X3420182Y-8533984D02*
X3439229Y-8543508D01*
X3439229Y-8543508D02*
X3448753Y-8553031D01*
X3448753Y-8553031D02*
X3458277Y-8572079D01*
X3458277Y-8572079D02*
X3467801Y-8610174D01*
X3467801Y-8610174D02*
X3467801Y-8657793D01*
X3467801Y-8657793D02*
X3458277Y-8695889D01*
X3458277Y-8695889D02*
X3448753Y-8714936D01*
X3448753Y-8714936D02*
X3439229Y-8724460D01*
X3439229Y-8724460D02*
X3420182Y-8733984D01*
X3420182Y-8733984D02*
X3401134Y-8733984D01*
X3401134Y-8733984D02*
X3382086Y-8724460D01*
X3382086Y-8724460D02*
X3372563Y-8714936D01*
X3372563Y-8714936D02*
X3363039Y-8695889D01*
X3363039Y-8695889D02*
X3353515Y-8657793D01*
X3353515Y-8657793D02*
X3353515Y-8610174D01*
X3353515Y-8610174D02*
X3363039Y-8572079D01*
X3363039Y-8572079D02*
X3372563Y-8553031D01*
X3372563Y-8553031D02*
X3382086Y-8543508D01*
X3382086Y-8543508D02*
X3401134Y-8533984D01*
X3553515Y-8714936D02*
X3563039Y-8724460D01*
X3563039Y-8724460D02*
X3553515Y-8733984D01*
X3553515Y-8733984D02*
X3543991Y-8724460D01*
X3543991Y-8724460D02*
X3553515Y-8714936D01*
X3553515Y-8714936D02*
X3553515Y-8733984D01*
X3686848Y-8533984D02*
X3705896Y-8533984D01*
X3705896Y-8533984D02*
X3724944Y-8543508D01*
X3724944Y-8543508D02*
X3734467Y-8553031D01*
X3734467Y-8553031D02*
X3743991Y-8572079D01*
X3743991Y-8572079D02*
X3753515Y-8610174D01*
X3753515Y-8610174D02*
X3753515Y-8657793D01*
X3753515Y-8657793D02*
X3743991Y-8695889D01*
X3743991Y-8695889D02*
X3734467Y-8714936D01*
X3734467Y-8714936D02*
X3724944Y-8724460D01*
X3724944Y-8724460D02*
X3705896Y-8733984D01*
X3705896Y-8733984D02*
X3686848Y-8733984D01*
X3686848Y-8733984D02*
X3667801Y-8724460D01*
X3667801Y-8724460D02*
X3658277Y-8714936D01*
X3658277Y-8714936D02*
X3648753Y-8695889D01*
X3648753Y-8695889D02*
X3639229Y-8657793D01*
X3639229Y-8657793D02*
X3639229Y-8610174D01*
X3639229Y-8610174D02*
X3648753Y-8572079D01*
X3648753Y-8572079D02*
X3658277Y-8553031D01*
X3658277Y-8553031D02*
X3667801Y-8543508D01*
X3667801Y-8543508D02*
X3686848Y-8533984D01*
X3867801Y-8619698D02*
X3848753Y-8610174D01*
X3848753Y-8610174D02*
X3839229Y-8600650D01*
X3839229Y-8600650D02*
X3829706Y-8581603D01*
X3829706Y-8581603D02*
X3829706Y-8572079D01*
X3829706Y-8572079D02*
X3839229Y-8553031D01*
X3839229Y-8553031D02*
X3848753Y-8543508D01*
X3848753Y-8543508D02*
X3867801Y-8533984D01*
X3867801Y-8533984D02*
X3905896Y-8533984D01*
X3905896Y-8533984D02*
X3924944Y-8543508D01*
X3924944Y-8543508D02*
X3934467Y-8553031D01*
X3934467Y-8553031D02*
X3943991Y-8572079D01*
X3943991Y-8572079D02*
X3943991Y-8581603D01*
X3943991Y-8581603D02*
X3934467Y-8600650D01*
X3934467Y-8600650D02*
X3924944Y-8610174D01*
X3924944Y-8610174D02*
X3905896Y-8619698D01*
X3905896Y-8619698D02*
X3867801Y-8619698D01*
X3867801Y-8619698D02*
X3848753Y-8629222D01*
X3848753Y-8629222D02*
X3839229Y-8638746D01*
X3839229Y-8638746D02*
X3829706Y-8657793D01*
X3829706Y-8657793D02*
X3829706Y-8695889D01*
X3829706Y-8695889D02*
X3839229Y-8714936D01*
X3839229Y-8714936D02*
X3848753Y-8724460D01*
X3848753Y-8724460D02*
X3867801Y-8733984D01*
X3867801Y-8733984D02*
X3905896Y-8733984D01*
X3905896Y-8733984D02*
X3924944Y-8724460D01*
X3924944Y-8724460D02*
X3934467Y-8714936D01*
X3934467Y-8714936D02*
X3943991Y-8695889D01*
X3943991Y-8695889D02*
X3943991Y-8657793D01*
X3943991Y-8657793D02*
X3934467Y-8638746D01*
X3934467Y-8638746D02*
X3924944Y-8629222D01*
X3924944Y-8629222D02*
X3905896Y-8619698D01*
X4020182Y-8553031D02*
X4029706Y-8543508D01*
X4029706Y-8543508D02*
X4048753Y-8533984D01*
X4048753Y-8533984D02*
X4096372Y-8533984D01*
X4096372Y-8533984D02*
X4115420Y-8543508D01*
X4115420Y-8543508D02*
X4124944Y-8553031D01*
X4124944Y-8553031D02*
X4134467Y-8572079D01*
X4134467Y-8572079D02*
X4134467Y-8591127D01*
X4134467Y-8591127D02*
X4124944Y-8619698D01*
X4124944Y-8619698D02*
X4010658Y-8733984D01*
X4010658Y-8733984D02*
X4134467Y-8733984D01*
X4201134Y-8533984D02*
X4334468Y-8533984D01*
X4334468Y-8533984D02*
X4248753Y-8733984D01*
X4401134Y-8533984D02*
X4401134Y-8572079D01*
X4477325Y-8533984D02*
X4477325Y-8572079D01*
X4772563Y-8810174D02*
X4763039Y-8800650D01*
X4763039Y-8800650D02*
X4743991Y-8772079D01*
X4743991Y-8772079D02*
X4734468Y-8753031D01*
X4734468Y-8753031D02*
X4724944Y-8724460D01*
X4724944Y-8724460D02*
X4715420Y-8676841D01*
X4715420Y-8676841D02*
X4715420Y-8638746D01*
X4715420Y-8638746D02*
X4724944Y-8591127D01*
X4724944Y-8591127D02*
X4734468Y-8562555D01*
X4734468Y-8562555D02*
X4743991Y-8543508D01*
X4743991Y-8543508D02*
X4763039Y-8514936D01*
X4763039Y-8514936D02*
X4772563Y-8505412D01*
X4829706Y-8533984D02*
X4953515Y-8533984D01*
X4953515Y-8533984D02*
X4886849Y-8610174D01*
X4886849Y-8610174D02*
X4915420Y-8610174D01*
X4915420Y-8610174D02*
X4934468Y-8619698D01*
X4934468Y-8619698D02*
X4943991Y-8629222D01*
X4943991Y-8629222D02*
X4953515Y-8648270D01*
X4953515Y-8648270D02*
X4953515Y-8695889D01*
X4953515Y-8695889D02*
X4943991Y-8714936D01*
X4943991Y-8714936D02*
X4934468Y-8724460D01*
X4934468Y-8724460D02*
X4915420Y-8733984D01*
X4915420Y-8733984D02*
X4858277Y-8733984D01*
X4858277Y-8733984D02*
X4839230Y-8724460D01*
X4839230Y-8724460D02*
X4829706Y-8714936D01*
X5191611Y-8733984D02*
X5191611Y-8533984D01*
X5277325Y-8733984D02*
X5277325Y-8629222D01*
X5277325Y-8629222D02*
X5267801Y-8610174D01*
X5267801Y-8610174D02*
X5248753Y-8600650D01*
X5248753Y-8600650D02*
X5220182Y-8600650D01*
X5220182Y-8600650D02*
X5201134Y-8610174D01*
X5201134Y-8610174D02*
X5191611Y-8619698D01*
X5401134Y-8733984D02*
X5382087Y-8724460D01*
X5382087Y-8724460D02*
X5372563Y-8714936D01*
X5372563Y-8714936D02*
X5363039Y-8695889D01*
X5363039Y-8695889D02*
X5363039Y-8638746D01*
X5363039Y-8638746D02*
X5372563Y-8619698D01*
X5372563Y-8619698D02*
X5382087Y-8610174D01*
X5382087Y-8610174D02*
X5401134Y-8600650D01*
X5401134Y-8600650D02*
X5429706Y-8600650D01*
X5429706Y-8600650D02*
X5448753Y-8610174D01*
X5448753Y-8610174D02*
X5458277Y-8619698D01*
X5458277Y-8619698D02*
X5467801Y-8638746D01*
X5467801Y-8638746D02*
X5467801Y-8695889D01*
X5467801Y-8695889D02*
X5458277Y-8714936D01*
X5458277Y-8714936D02*
X5448753Y-8724460D01*
X5448753Y-8724460D02*
X5429706Y-8733984D01*
X5429706Y-8733984D02*
X5401134Y-8733984D01*
X5582087Y-8733984D02*
X5563039Y-8724460D01*
X5563039Y-8724460D02*
X5553515Y-8705412D01*
X5553515Y-8705412D02*
X5553515Y-8533984D01*
X5734468Y-8724460D02*
X5715420Y-8733984D01*
X5715420Y-8733984D02*
X5677325Y-8733984D01*
X5677325Y-8733984D02*
X5658277Y-8724460D01*
X5658277Y-8724460D02*
X5648753Y-8705412D01*
X5648753Y-8705412D02*
X5648753Y-8629222D01*
X5648753Y-8629222D02*
X5658277Y-8610174D01*
X5658277Y-8610174D02*
X5677325Y-8600650D01*
X5677325Y-8600650D02*
X5715420Y-8600650D01*
X5715420Y-8600650D02*
X5734468Y-8610174D01*
X5734468Y-8610174D02*
X5743991Y-8629222D01*
X5743991Y-8629222D02*
X5743991Y-8648270D01*
X5743991Y-8648270D02*
X5648753Y-8667317D01*
X5820182Y-8724460D02*
X5839230Y-8733984D01*
X5839230Y-8733984D02*
X5877325Y-8733984D01*
X5877325Y-8733984D02*
X5896372Y-8724460D01*
X5896372Y-8724460D02*
X5905896Y-8705412D01*
X5905896Y-8705412D02*
X5905896Y-8695889D01*
X5905896Y-8695889D02*
X5896372Y-8676841D01*
X5896372Y-8676841D02*
X5877325Y-8667317D01*
X5877325Y-8667317D02*
X5848753Y-8667317D01*
X5848753Y-8667317D02*
X5829706Y-8657793D01*
X5829706Y-8657793D02*
X5820182Y-8638746D01*
X5820182Y-8638746D02*
X5820182Y-8629222D01*
X5820182Y-8629222D02*
X5829706Y-8610174D01*
X5829706Y-8610174D02*
X5848753Y-8600650D01*
X5848753Y-8600650D02*
X5877325Y-8600650D01*
X5877325Y-8600650D02*
X5896372Y-8610174D01*
X5972563Y-8810174D02*
X5982087Y-8800650D01*
X5982087Y-8800650D02*
X6001134Y-8772079D01*
X6001134Y-8772079D02*
X6010658Y-8753031D01*
X6010658Y-8753031D02*
X6020182Y-8724460D01*
X6020182Y-8724460D02*
X6029706Y-8676841D01*
X6029706Y-8676841D02*
X6029706Y-8638746D01*
X6029706Y-8638746D02*
X6020182Y-8591127D01*
X6020182Y-8591127D02*
X6010658Y-8562555D01*
X6010658Y-8562555D02*
X6001134Y-8543508D01*
X6001134Y-8543508D02*
X5982087Y-8514936D01*
X5982087Y-8514936D02*
X5972563Y-8505412D01*
X6334468Y-8810174D02*
X6324944Y-8800650D01*
X6324944Y-8800650D02*
X6305896Y-8772079D01*
X6305896Y-8772079D02*
X6296372Y-8753031D01*
X6296372Y-8753031D02*
X6286849Y-8724460D01*
X6286849Y-8724460D02*
X6277325Y-8676841D01*
X6277325Y-8676841D02*
X6277325Y-8638746D01*
X6277325Y-8638746D02*
X6286849Y-8591127D01*
X6286849Y-8591127D02*
X6296372Y-8562555D01*
X6296372Y-8562555D02*
X6305896Y-8543508D01*
X6305896Y-8543508D02*
X6324944Y-8514936D01*
X6324944Y-8514936D02*
X6334468Y-8505412D01*
X6410658Y-8600650D02*
X6410658Y-8733984D01*
X6410658Y-8619698D02*
X6420182Y-8610174D01*
X6420182Y-8610174D02*
X6439230Y-8600650D01*
X6439230Y-8600650D02*
X6467801Y-8600650D01*
X6467801Y-8600650D02*
X6486849Y-8610174D01*
X6486849Y-8610174D02*
X6496372Y-8629222D01*
X6496372Y-8629222D02*
X6496372Y-8733984D01*
X6620182Y-8733984D02*
X6601134Y-8724460D01*
X6601134Y-8724460D02*
X6591611Y-8714936D01*
X6591611Y-8714936D02*
X6582087Y-8695889D01*
X6582087Y-8695889D02*
X6582087Y-8638746D01*
X6582087Y-8638746D02*
X6591611Y-8619698D01*
X6591611Y-8619698D02*
X6601134Y-8610174D01*
X6601134Y-8610174D02*
X6620182Y-8600650D01*
X6620182Y-8600650D02*
X6648753Y-8600650D01*
X6648753Y-8600650D02*
X6667801Y-8610174D01*
X6667801Y-8610174D02*
X6677325Y-8619698D01*
X6677325Y-8619698D02*
X6686849Y-8638746D01*
X6686849Y-8638746D02*
X6686849Y-8695889D01*
X6686849Y-8695889D02*
X6677325Y-8714936D01*
X6677325Y-8714936D02*
X6667801Y-8724460D01*
X6667801Y-8724460D02*
X6648753Y-8733984D01*
X6648753Y-8733984D02*
X6620182Y-8733984D01*
X6743992Y-8600650D02*
X6820182Y-8600650D01*
X6772563Y-8533984D02*
X6772563Y-8705412D01*
X6772563Y-8705412D02*
X6782087Y-8724460D01*
X6782087Y-8724460D02*
X6801134Y-8733984D01*
X6801134Y-8733984D02*
X6820182Y-8733984D01*
X7039230Y-8600650D02*
X7039230Y-8800650D01*
X7039230Y-8610174D02*
X7058277Y-8600650D01*
X7058277Y-8600650D02*
X7096373Y-8600650D01*
X7096373Y-8600650D02*
X7115420Y-8610174D01*
X7115420Y-8610174D02*
X7124944Y-8619698D01*
X7124944Y-8619698D02*
X7134468Y-8638746D01*
X7134468Y-8638746D02*
X7134468Y-8695889D01*
X7134468Y-8695889D02*
X7124944Y-8714936D01*
X7124944Y-8714936D02*
X7115420Y-8724460D01*
X7115420Y-8724460D02*
X7096373Y-8733984D01*
X7096373Y-8733984D02*
X7058277Y-8733984D01*
X7058277Y-8733984D02*
X7039230Y-8724460D01*
X7248753Y-8733984D02*
X7229706Y-8724460D01*
X7229706Y-8724460D02*
X7220182Y-8705412D01*
X7220182Y-8705412D02*
X7220182Y-8533984D01*
X7410658Y-8733984D02*
X7410658Y-8629222D01*
X7410658Y-8629222D02*
X7401134Y-8610174D01*
X7401134Y-8610174D02*
X7382087Y-8600650D01*
X7382087Y-8600650D02*
X7343992Y-8600650D01*
X7343992Y-8600650D02*
X7324944Y-8610174D01*
X7410658Y-8724460D02*
X7391611Y-8733984D01*
X7391611Y-8733984D02*
X7343992Y-8733984D01*
X7343992Y-8733984D02*
X7324944Y-8724460D01*
X7324944Y-8724460D02*
X7315420Y-8705412D01*
X7315420Y-8705412D02*
X7315420Y-8686365D01*
X7315420Y-8686365D02*
X7324944Y-8667317D01*
X7324944Y-8667317D02*
X7343992Y-8657793D01*
X7343992Y-8657793D02*
X7391611Y-8657793D01*
X7391611Y-8657793D02*
X7410658Y-8648270D01*
X7477325Y-8600650D02*
X7553515Y-8600650D01*
X7505896Y-8533984D02*
X7505896Y-8705412D01*
X7505896Y-8705412D02*
X7515420Y-8724460D01*
X7515420Y-8724460D02*
X7534468Y-8733984D01*
X7534468Y-8733984D02*
X7553515Y-8733984D01*
X7696373Y-8724460D02*
X7677325Y-8733984D01*
X7677325Y-8733984D02*
X7639230Y-8733984D01*
X7639230Y-8733984D02*
X7620182Y-8724460D01*
X7620182Y-8724460D02*
X7610658Y-8705412D01*
X7610658Y-8705412D02*
X7610658Y-8629222D01*
X7610658Y-8629222D02*
X7620182Y-8610174D01*
X7620182Y-8610174D02*
X7639230Y-8600650D01*
X7639230Y-8600650D02*
X7677325Y-8600650D01*
X7677325Y-8600650D02*
X7696373Y-8610174D01*
X7696373Y-8610174D02*
X7705896Y-8629222D01*
X7705896Y-8629222D02*
X7705896Y-8648270D01*
X7705896Y-8648270D02*
X7610658Y-8667317D01*
X7877325Y-8733984D02*
X7877325Y-8533984D01*
X7877325Y-8724460D02*
X7858277Y-8733984D01*
X7858277Y-8733984D02*
X7820182Y-8733984D01*
X7820182Y-8733984D02*
X7801134Y-8724460D01*
X7801134Y-8724460D02*
X7791611Y-8714936D01*
X7791611Y-8714936D02*
X7782087Y-8695889D01*
X7782087Y-8695889D02*
X7782087Y-8638746D01*
X7782087Y-8638746D02*
X7791611Y-8619698D01*
X7791611Y-8619698D02*
X7801134Y-8610174D01*
X7801134Y-8610174D02*
X7820182Y-8600650D01*
X7820182Y-8600650D02*
X7858277Y-8600650D01*
X7858277Y-8600650D02*
X7877325Y-8610174D01*
X7953515Y-8810174D02*
X7963039Y-8800650D01*
X7963039Y-8800650D02*
X7982087Y-8772079D01*
X7982087Y-8772079D02*
X7991611Y-8753031D01*
X7991611Y-8753031D02*
X8001134Y-8724460D01*
X8001134Y-8724460D02*
X8010658Y-8676841D01*
X8010658Y-8676841D02*
X8010658Y-8638746D01*
X8010658Y-8638746D02*
X8001134Y-8591127D01*
X8001134Y-8591127D02*
X7991611Y-8562555D01*
X7991611Y-8562555D02*
X7982087Y-8543508D01*
X7982087Y-8543508D02*
X7963039Y-8514936D01*
X7963039Y-8514936D02*
X7953515Y-8505412D01*
X1197500Y-8962500D02*
G75*
G02*
X997500Y-8962500I-100000J0D01*
G01*
X997500Y-8962500D02*
G75*
G02*
X1197500Y-8962500I100000J0D01*
G01*
X1448753Y-8873031D02*
X1458277Y-8863508D01*
X1458277Y-8863508D02*
X1477324Y-8853984D01*
X1477324Y-8853984D02*
X1524943Y-8853984D01*
X1524943Y-8853984D02*
X1543991Y-8863508D01*
X1543991Y-8863508D02*
X1553515Y-8873031D01*
X1553515Y-8873031D02*
X1563039Y-8892079D01*
X1563039Y-8892079D02*
X1563039Y-8911127D01*
X1563039Y-8911127D02*
X1553515Y-8939698D01*
X1553515Y-8939698D02*
X1439229Y-9053984D01*
X1439229Y-9053984D02*
X1563039Y-9053984D01*
X1648753Y-9034936D02*
X1658277Y-9044460D01*
X1658277Y-9044460D02*
X1648753Y-9053984D01*
X1648753Y-9053984D02*
X1639229Y-9044460D01*
X1639229Y-9044460D02*
X1648753Y-9034936D01*
X1648753Y-9034936D02*
X1648753Y-9053984D01*
X1734467Y-8873031D02*
X1743991Y-8863508D01*
X1743991Y-8863508D02*
X1763039Y-8853984D01*
X1763039Y-8853984D02*
X1810658Y-8853984D01*
X1810658Y-8853984D02*
X1829705Y-8863508D01*
X1829705Y-8863508D02*
X1839229Y-8873031D01*
X1839229Y-8873031D02*
X1848753Y-8892079D01*
X1848753Y-8892079D02*
X1848753Y-8911127D01*
X1848753Y-8911127D02*
X1839229Y-8939698D01*
X1839229Y-8939698D02*
X1724943Y-9053984D01*
X1724943Y-9053984D02*
X1848753Y-9053984D01*
X1972562Y-8853984D02*
X1991610Y-8853984D01*
X1991610Y-8853984D02*
X2010658Y-8863508D01*
X2010658Y-8863508D02*
X2020182Y-8873031D01*
X2020182Y-8873031D02*
X2029705Y-8892079D01*
X2029705Y-8892079D02*
X2039229Y-8930174D01*
X2039229Y-8930174D02*
X2039229Y-8977793D01*
X2039229Y-8977793D02*
X2029705Y-9015889D01*
X2029705Y-9015889D02*
X2020182Y-9034936D01*
X2020182Y-9034936D02*
X2010658Y-9044460D01*
X2010658Y-9044460D02*
X1991610Y-9053984D01*
X1991610Y-9053984D02*
X1972562Y-9053984D01*
X1972562Y-9053984D02*
X1953515Y-9044460D01*
X1953515Y-9044460D02*
X1943991Y-9034936D01*
X1943991Y-9034936D02*
X1934467Y-9015889D01*
X1934467Y-9015889D02*
X1924943Y-8977793D01*
X1924943Y-8977793D02*
X1924943Y-8930174D01*
X1924943Y-8930174D02*
X1934467Y-8892079D01*
X1934467Y-8892079D02*
X1943991Y-8873031D01*
X1943991Y-8873031D02*
X1953515Y-8863508D01*
X1953515Y-8863508D02*
X1972562Y-8853984D01*
X2163039Y-8853984D02*
X2182086Y-8853984D01*
X2182086Y-8853984D02*
X2201134Y-8863508D01*
X2201134Y-8863508D02*
X2210658Y-8873031D01*
X2210658Y-8873031D02*
X2220182Y-8892079D01*
X2220182Y-8892079D02*
X2229705Y-8930174D01*
X2229705Y-8930174D02*
X2229705Y-8977793D01*
X2229705Y-8977793D02*
X2220182Y-9015889D01*
X2220182Y-9015889D02*
X2210658Y-9034936D01*
X2210658Y-9034936D02*
X2201134Y-9044460D01*
X2201134Y-9044460D02*
X2182086Y-9053984D01*
X2182086Y-9053984D02*
X2163039Y-9053984D01*
X2163039Y-9053984D02*
X2143991Y-9044460D01*
X2143991Y-9044460D02*
X2134467Y-9034936D01*
X2134467Y-9034936D02*
X2124944Y-9015889D01*
X2124944Y-9015889D02*
X2115420Y-8977793D01*
X2115420Y-8977793D02*
X2115420Y-8930174D01*
X2115420Y-8930174D02*
X2124944Y-8892079D01*
X2124944Y-8892079D02*
X2134467Y-8873031D01*
X2134467Y-8873031D02*
X2143991Y-8863508D01*
X2143991Y-8863508D02*
X2163039Y-8853984D01*
X2315420Y-9053984D02*
X2315420Y-8920650D01*
X2315420Y-8939698D02*
X2324944Y-8930174D01*
X2324944Y-8930174D02*
X2343991Y-8920650D01*
X2343991Y-8920650D02*
X2372563Y-8920650D01*
X2372563Y-8920650D02*
X2391610Y-8930174D01*
X2391610Y-8930174D02*
X2401134Y-8949222D01*
X2401134Y-8949222D02*
X2401134Y-9053984D01*
X2401134Y-8949222D02*
X2410658Y-8930174D01*
X2410658Y-8930174D02*
X2429705Y-8920650D01*
X2429705Y-8920650D02*
X2458277Y-8920650D01*
X2458277Y-8920650D02*
X2477325Y-8930174D01*
X2477325Y-8930174D02*
X2486848Y-8949222D01*
X2486848Y-8949222D02*
X2486848Y-9053984D01*
X2582086Y-9053984D02*
X2582086Y-8920650D01*
X2582086Y-8939698D02*
X2591610Y-8930174D01*
X2591610Y-8930174D02*
X2610658Y-8920650D01*
X2610658Y-8920650D02*
X2639229Y-8920650D01*
X2639229Y-8920650D02*
X2658277Y-8930174D01*
X2658277Y-8930174D02*
X2667801Y-8949222D01*
X2667801Y-8949222D02*
X2667801Y-9053984D01*
X2667801Y-8949222D02*
X2677325Y-8930174D01*
X2677325Y-8930174D02*
X2696372Y-8920650D01*
X2696372Y-8920650D02*
X2724944Y-8920650D01*
X2724944Y-8920650D02*
X2743991Y-8930174D01*
X2743991Y-8930174D02*
X2753515Y-8949222D01*
X2753515Y-8949222D02*
X2753515Y-9053984D01*
X3143991Y-8844460D02*
X2972563Y-9101603D01*
X3401134Y-8853984D02*
X3420182Y-8853984D01*
X3420182Y-8853984D02*
X3439229Y-8863508D01*
X3439229Y-8863508D02*
X3448753Y-8873031D01*
X3448753Y-8873031D02*
X3458277Y-8892079D01*
X3458277Y-8892079D02*
X3467801Y-8930174D01*
X3467801Y-8930174D02*
X3467801Y-8977793D01*
X3467801Y-8977793D02*
X3458277Y-9015889D01*
X3458277Y-9015889D02*
X3448753Y-9034936D01*
X3448753Y-9034936D02*
X3439229Y-9044460D01*
X3439229Y-9044460D02*
X3420182Y-9053984D01*
X3420182Y-9053984D02*
X3401134Y-9053984D01*
X3401134Y-9053984D02*
X3382086Y-9044460D01*
X3382086Y-9044460D02*
X3372563Y-9034936D01*
X3372563Y-9034936D02*
X3363039Y-9015889D01*
X3363039Y-9015889D02*
X3353515Y-8977793D01*
X3353515Y-8977793D02*
X3353515Y-8930174D01*
X3353515Y-8930174D02*
X3363039Y-8892079D01*
X3363039Y-8892079D02*
X3372563Y-8873031D01*
X3372563Y-8873031D02*
X3382086Y-8863508D01*
X3382086Y-8863508D02*
X3401134Y-8853984D01*
X3553515Y-9034936D02*
X3563039Y-9044460D01*
X3563039Y-9044460D02*
X3553515Y-9053984D01*
X3553515Y-9053984D02*
X3543991Y-9044460D01*
X3543991Y-9044460D02*
X3553515Y-9034936D01*
X3553515Y-9034936D02*
X3553515Y-9053984D01*
X3686848Y-8853984D02*
X3705896Y-8853984D01*
X3705896Y-8853984D02*
X3724944Y-8863508D01*
X3724944Y-8863508D02*
X3734467Y-8873031D01*
X3734467Y-8873031D02*
X3743991Y-8892079D01*
X3743991Y-8892079D02*
X3753515Y-8930174D01*
X3753515Y-8930174D02*
X3753515Y-8977793D01*
X3753515Y-8977793D02*
X3743991Y-9015889D01*
X3743991Y-9015889D02*
X3734467Y-9034936D01*
X3734467Y-9034936D02*
X3724944Y-9044460D01*
X3724944Y-9044460D02*
X3705896Y-9053984D01*
X3705896Y-9053984D02*
X3686848Y-9053984D01*
X3686848Y-9053984D02*
X3667801Y-9044460D01*
X3667801Y-9044460D02*
X3658277Y-9034936D01*
X3658277Y-9034936D02*
X3648753Y-9015889D01*
X3648753Y-9015889D02*
X3639229Y-8977793D01*
X3639229Y-8977793D02*
X3639229Y-8930174D01*
X3639229Y-8930174D02*
X3648753Y-8892079D01*
X3648753Y-8892079D02*
X3658277Y-8873031D01*
X3658277Y-8873031D02*
X3667801Y-8863508D01*
X3667801Y-8863508D02*
X3686848Y-8853984D01*
X3867801Y-8939698D02*
X3848753Y-8930174D01*
X3848753Y-8930174D02*
X3839229Y-8920650D01*
X3839229Y-8920650D02*
X3829706Y-8901603D01*
X3829706Y-8901603D02*
X3829706Y-8892079D01*
X3829706Y-8892079D02*
X3839229Y-8873031D01*
X3839229Y-8873031D02*
X3848753Y-8863508D01*
X3848753Y-8863508D02*
X3867801Y-8853984D01*
X3867801Y-8853984D02*
X3905896Y-8853984D01*
X3905896Y-8853984D02*
X3924944Y-8863508D01*
X3924944Y-8863508D02*
X3934467Y-8873031D01*
X3934467Y-8873031D02*
X3943991Y-8892079D01*
X3943991Y-8892079D02*
X3943991Y-8901603D01*
X3943991Y-8901603D02*
X3934467Y-8920650D01*
X3934467Y-8920650D02*
X3924944Y-8930174D01*
X3924944Y-8930174D02*
X3905896Y-8939698D01*
X3905896Y-8939698D02*
X3867801Y-8939698D01*
X3867801Y-8939698D02*
X3848753Y-8949222D01*
X3848753Y-8949222D02*
X3839229Y-8958746D01*
X3839229Y-8958746D02*
X3829706Y-8977793D01*
X3829706Y-8977793D02*
X3829706Y-9015889D01*
X3829706Y-9015889D02*
X3839229Y-9034936D01*
X3839229Y-9034936D02*
X3848753Y-9044460D01*
X3848753Y-9044460D02*
X3867801Y-9053984D01*
X3867801Y-9053984D02*
X3905896Y-9053984D01*
X3905896Y-9053984D02*
X3924944Y-9044460D01*
X3924944Y-9044460D02*
X3934467Y-9034936D01*
X3934467Y-9034936D02*
X3943991Y-9015889D01*
X3943991Y-9015889D02*
X3943991Y-8977793D01*
X3943991Y-8977793D02*
X3934467Y-8958746D01*
X3934467Y-8958746D02*
X3924944Y-8949222D01*
X3924944Y-8949222D02*
X3905896Y-8939698D01*
X4115420Y-8853984D02*
X4077325Y-8853984D01*
X4077325Y-8853984D02*
X4058277Y-8863508D01*
X4058277Y-8863508D02*
X4048753Y-8873031D01*
X4048753Y-8873031D02*
X4029706Y-8901603D01*
X4029706Y-8901603D02*
X4020182Y-8939698D01*
X4020182Y-8939698D02*
X4020182Y-9015889D01*
X4020182Y-9015889D02*
X4029706Y-9034936D01*
X4029706Y-9034936D02*
X4039229Y-9044460D01*
X4039229Y-9044460D02*
X4058277Y-9053984D01*
X4058277Y-9053984D02*
X4096372Y-9053984D01*
X4096372Y-9053984D02*
X4115420Y-9044460D01*
X4115420Y-9044460D02*
X4124944Y-9034936D01*
X4124944Y-9034936D02*
X4134467Y-9015889D01*
X4134467Y-9015889D02*
X4134467Y-8968270D01*
X4134467Y-8968270D02*
X4124944Y-8949222D01*
X4124944Y-8949222D02*
X4115420Y-8939698D01*
X4115420Y-8939698D02*
X4096372Y-8930174D01*
X4096372Y-8930174D02*
X4058277Y-8930174D01*
X4058277Y-8930174D02*
X4039229Y-8939698D01*
X4039229Y-8939698D02*
X4029706Y-8949222D01*
X4029706Y-8949222D02*
X4020182Y-8968270D01*
X4305896Y-8853984D02*
X4267801Y-8853984D01*
X4267801Y-8853984D02*
X4248753Y-8863508D01*
X4248753Y-8863508D02*
X4239229Y-8873031D01*
X4239229Y-8873031D02*
X4220182Y-8901603D01*
X4220182Y-8901603D02*
X4210658Y-8939698D01*
X4210658Y-8939698D02*
X4210658Y-9015889D01*
X4210658Y-9015889D02*
X4220182Y-9034936D01*
X4220182Y-9034936D02*
X4229706Y-9044460D01*
X4229706Y-9044460D02*
X4248753Y-9053984D01*
X4248753Y-9053984D02*
X4286849Y-9053984D01*
X4286849Y-9053984D02*
X4305896Y-9044460D01*
X4305896Y-9044460D02*
X4315420Y-9034936D01*
X4315420Y-9034936D02*
X4324944Y-9015889D01*
X4324944Y-9015889D02*
X4324944Y-8968270D01*
X4324944Y-8968270D02*
X4315420Y-8949222D01*
X4315420Y-8949222D02*
X4305896Y-8939698D01*
X4305896Y-8939698D02*
X4286849Y-8930174D01*
X4286849Y-8930174D02*
X4248753Y-8930174D01*
X4248753Y-8930174D02*
X4229706Y-8939698D01*
X4229706Y-8939698D02*
X4220182Y-8949222D01*
X4220182Y-8949222D02*
X4210658Y-8968270D01*
X4401134Y-8853984D02*
X4401134Y-8892079D01*
X4477325Y-8853984D02*
X4477325Y-8892079D01*
X4772563Y-9130174D02*
X4763039Y-9120650D01*
X4763039Y-9120650D02*
X4743991Y-9092079D01*
X4743991Y-9092079D02*
X4734468Y-9073031D01*
X4734468Y-9073031D02*
X4724944Y-9044460D01*
X4724944Y-9044460D02*
X4715420Y-8996841D01*
X4715420Y-8996841D02*
X4715420Y-8958746D01*
X4715420Y-8958746D02*
X4724944Y-8911127D01*
X4724944Y-8911127D02*
X4734468Y-8882555D01*
X4734468Y-8882555D02*
X4743991Y-8863508D01*
X4743991Y-8863508D02*
X4763039Y-8834936D01*
X4763039Y-8834936D02*
X4772563Y-8825412D01*
X4953515Y-9053984D02*
X4839230Y-9053984D01*
X4896372Y-9053984D02*
X4896372Y-8853984D01*
X4896372Y-8853984D02*
X4877325Y-8882555D01*
X4877325Y-8882555D02*
X4858277Y-8901603D01*
X4858277Y-8901603D02*
X4839230Y-8911127D01*
X5124944Y-8853984D02*
X5086849Y-8853984D01*
X5086849Y-8853984D02*
X5067801Y-8863508D01*
X5067801Y-8863508D02*
X5058277Y-8873031D01*
X5058277Y-8873031D02*
X5039230Y-8901603D01*
X5039230Y-8901603D02*
X5029706Y-8939698D01*
X5029706Y-8939698D02*
X5029706Y-9015889D01*
X5029706Y-9015889D02*
X5039230Y-9034936D01*
X5039230Y-9034936D02*
X5048753Y-9044460D01*
X5048753Y-9044460D02*
X5067801Y-9053984D01*
X5067801Y-9053984D02*
X5105896Y-9053984D01*
X5105896Y-9053984D02*
X5124944Y-9044460D01*
X5124944Y-9044460D02*
X5134468Y-9034936D01*
X5134468Y-9034936D02*
X5143991Y-9015889D01*
X5143991Y-9015889D02*
X5143991Y-8968270D01*
X5143991Y-8968270D02*
X5134468Y-8949222D01*
X5134468Y-8949222D02*
X5124944Y-8939698D01*
X5124944Y-8939698D02*
X5105896Y-8930174D01*
X5105896Y-8930174D02*
X5067801Y-8930174D01*
X5067801Y-8930174D02*
X5048753Y-8939698D01*
X5048753Y-8939698D02*
X5039230Y-8949222D01*
X5039230Y-8949222D02*
X5029706Y-8968270D01*
X5382087Y-9053984D02*
X5382087Y-8853984D01*
X5467801Y-9053984D02*
X5467801Y-8949222D01*
X5467801Y-8949222D02*
X5458277Y-8930174D01*
X5458277Y-8930174D02*
X5439230Y-8920650D01*
X5439230Y-8920650D02*
X5410658Y-8920650D01*
X5410658Y-8920650D02*
X5391611Y-8930174D01*
X5391611Y-8930174D02*
X5382087Y-8939698D01*
X5591611Y-9053984D02*
X5572563Y-9044460D01*
X5572563Y-9044460D02*
X5563039Y-9034936D01*
X5563039Y-9034936D02*
X5553515Y-9015889D01*
X5553515Y-9015889D02*
X5553515Y-8958746D01*
X5553515Y-8958746D02*
X5563039Y-8939698D01*
X5563039Y-8939698D02*
X5572563Y-8930174D01*
X5572563Y-8930174D02*
X5591611Y-8920650D01*
X5591611Y-8920650D02*
X5620182Y-8920650D01*
X5620182Y-8920650D02*
X5639230Y-8930174D01*
X5639230Y-8930174D02*
X5648753Y-8939698D01*
X5648753Y-8939698D02*
X5658277Y-8958746D01*
X5658277Y-8958746D02*
X5658277Y-9015889D01*
X5658277Y-9015889D02*
X5648753Y-9034936D01*
X5648753Y-9034936D02*
X5639230Y-9044460D01*
X5639230Y-9044460D02*
X5620182Y-9053984D01*
X5620182Y-9053984D02*
X5591611Y-9053984D01*
X5772563Y-9053984D02*
X5753515Y-9044460D01*
X5753515Y-9044460D02*
X5743991Y-9025412D01*
X5743991Y-9025412D02*
X5743991Y-8853984D01*
X5924944Y-9044460D02*
X5905896Y-9053984D01*
X5905896Y-9053984D02*
X5867801Y-9053984D01*
X5867801Y-9053984D02*
X5848753Y-9044460D01*
X5848753Y-9044460D02*
X5839230Y-9025412D01*
X5839230Y-9025412D02*
X5839230Y-8949222D01*
X5839230Y-8949222D02*
X5848753Y-8930174D01*
X5848753Y-8930174D02*
X5867801Y-8920650D01*
X5867801Y-8920650D02*
X5905896Y-8920650D01*
X5905896Y-8920650D02*
X5924944Y-8930174D01*
X5924944Y-8930174D02*
X5934468Y-8949222D01*
X5934468Y-8949222D02*
X5934468Y-8968270D01*
X5934468Y-8968270D02*
X5839230Y-8987317D01*
X6010658Y-9044460D02*
X6029706Y-9053984D01*
X6029706Y-9053984D02*
X6067801Y-9053984D01*
X6067801Y-9053984D02*
X6086849Y-9044460D01*
X6086849Y-9044460D02*
X6096372Y-9025412D01*
X6096372Y-9025412D02*
X6096372Y-9015889D01*
X6096372Y-9015889D02*
X6086849Y-8996841D01*
X6086849Y-8996841D02*
X6067801Y-8987317D01*
X6067801Y-8987317D02*
X6039230Y-8987317D01*
X6039230Y-8987317D02*
X6020182Y-8977793D01*
X6020182Y-8977793D02*
X6010658Y-8958746D01*
X6010658Y-8958746D02*
X6010658Y-8949222D01*
X6010658Y-8949222D02*
X6020182Y-8930174D01*
X6020182Y-8930174D02*
X6039230Y-8920650D01*
X6039230Y-8920650D02*
X6067801Y-8920650D01*
X6067801Y-8920650D02*
X6086849Y-8930174D01*
X6163039Y-9130174D02*
X6172563Y-9120650D01*
X6172563Y-9120650D02*
X6191611Y-9092079D01*
X6191611Y-9092079D02*
X6201134Y-9073031D01*
X6201134Y-9073031D02*
X6210658Y-9044460D01*
X6210658Y-9044460D02*
X6220182Y-8996841D01*
X6220182Y-8996841D02*
X6220182Y-8958746D01*
X6220182Y-8958746D02*
X6210658Y-8911127D01*
X6210658Y-8911127D02*
X6201134Y-8882555D01*
X6201134Y-8882555D02*
X6191611Y-8863508D01*
X6191611Y-8863508D02*
X6172563Y-8834936D01*
X6172563Y-8834936D02*
X6163039Y-8825412D01*
X6524944Y-9130174D02*
X6515420Y-9120650D01*
X6515420Y-9120650D02*
X6496372Y-9092079D01*
X6496372Y-9092079D02*
X6486849Y-9073031D01*
X6486849Y-9073031D02*
X6477325Y-9044460D01*
X6477325Y-9044460D02*
X6467801Y-8996841D01*
X6467801Y-8996841D02*
X6467801Y-8958746D01*
X6467801Y-8958746D02*
X6477325Y-8911127D01*
X6477325Y-8911127D02*
X6486849Y-8882555D01*
X6486849Y-8882555D02*
X6496372Y-8863508D01*
X6496372Y-8863508D02*
X6515420Y-8834936D01*
X6515420Y-8834936D02*
X6524944Y-8825412D01*
X6601134Y-8920650D02*
X6601134Y-9053984D01*
X6601134Y-8939698D02*
X6610658Y-8930174D01*
X6610658Y-8930174D02*
X6629706Y-8920650D01*
X6629706Y-8920650D02*
X6658277Y-8920650D01*
X6658277Y-8920650D02*
X6677325Y-8930174D01*
X6677325Y-8930174D02*
X6686849Y-8949222D01*
X6686849Y-8949222D02*
X6686849Y-9053984D01*
X6810658Y-9053984D02*
X6791611Y-9044460D01*
X6791611Y-9044460D02*
X6782087Y-9034936D01*
X6782087Y-9034936D02*
X6772563Y-9015889D01*
X6772563Y-9015889D02*
X6772563Y-8958746D01*
X6772563Y-8958746D02*
X6782087Y-8939698D01*
X6782087Y-8939698D02*
X6791611Y-8930174D01*
X6791611Y-8930174D02*
X6810658Y-8920650D01*
X6810658Y-8920650D02*
X6839230Y-8920650D01*
X6839230Y-8920650D02*
X6858277Y-8930174D01*
X6858277Y-8930174D02*
X6867801Y-8939698D01*
X6867801Y-8939698D02*
X6877325Y-8958746D01*
X6877325Y-8958746D02*
X6877325Y-9015889D01*
X6877325Y-9015889D02*
X6867801Y-9034936D01*
X6867801Y-9034936D02*
X6858277Y-9044460D01*
X6858277Y-9044460D02*
X6839230Y-9053984D01*
X6839230Y-9053984D02*
X6810658Y-9053984D01*
X6934468Y-8920650D02*
X7010658Y-8920650D01*
X6963039Y-8853984D02*
X6963039Y-9025412D01*
X6963039Y-9025412D02*
X6972563Y-9044460D01*
X6972563Y-9044460D02*
X6991611Y-9053984D01*
X6991611Y-9053984D02*
X7010658Y-9053984D01*
X7229706Y-8920650D02*
X7229706Y-9120650D01*
X7229706Y-8930174D02*
X7248753Y-8920650D01*
X7248753Y-8920650D02*
X7286849Y-8920650D01*
X7286849Y-8920650D02*
X7305896Y-8930174D01*
X7305896Y-8930174D02*
X7315420Y-8939698D01*
X7315420Y-8939698D02*
X7324944Y-8958746D01*
X7324944Y-8958746D02*
X7324944Y-9015889D01*
X7324944Y-9015889D02*
X7315420Y-9034936D01*
X7315420Y-9034936D02*
X7305896Y-9044460D01*
X7305896Y-9044460D02*
X7286849Y-9053984D01*
X7286849Y-9053984D02*
X7248753Y-9053984D01*
X7248753Y-9053984D02*
X7229706Y-9044460D01*
X7439230Y-9053984D02*
X7420182Y-9044460D01*
X7420182Y-9044460D02*
X7410658Y-9025412D01*
X7410658Y-9025412D02*
X7410658Y-8853984D01*
X7601134Y-9053984D02*
X7601134Y-8949222D01*
X7601134Y-8949222D02*
X7591611Y-8930174D01*
X7591611Y-8930174D02*
X7572563Y-8920650D01*
X7572563Y-8920650D02*
X7534468Y-8920650D01*
X7534468Y-8920650D02*
X7515420Y-8930174D01*
X7601134Y-9044460D02*
X7582087Y-9053984D01*
X7582087Y-9053984D02*
X7534468Y-9053984D01*
X7534468Y-9053984D02*
X7515420Y-9044460D01*
X7515420Y-9044460D02*
X7505896Y-9025412D01*
X7505896Y-9025412D02*
X7505896Y-9006365D01*
X7505896Y-9006365D02*
X7515420Y-8987317D01*
X7515420Y-8987317D02*
X7534468Y-8977793D01*
X7534468Y-8977793D02*
X7582087Y-8977793D01*
X7582087Y-8977793D02*
X7601134Y-8968270D01*
X7667801Y-8920650D02*
X7743992Y-8920650D01*
X7696373Y-8853984D02*
X7696373Y-9025412D01*
X7696373Y-9025412D02*
X7705896Y-9044460D01*
X7705896Y-9044460D02*
X7724944Y-9053984D01*
X7724944Y-9053984D02*
X7743992Y-9053984D01*
X7886849Y-9044460D02*
X7867801Y-9053984D01*
X7867801Y-9053984D02*
X7829706Y-9053984D01*
X7829706Y-9053984D02*
X7810658Y-9044460D01*
X7810658Y-9044460D02*
X7801134Y-9025412D01*
X7801134Y-9025412D02*
X7801134Y-8949222D01*
X7801134Y-8949222D02*
X7810658Y-8930174D01*
X7810658Y-8930174D02*
X7829706Y-8920650D01*
X7829706Y-8920650D02*
X7867801Y-8920650D01*
X7867801Y-8920650D02*
X7886849Y-8930174D01*
X7886849Y-8930174D02*
X7896373Y-8949222D01*
X7896373Y-8949222D02*
X7896373Y-8968270D01*
X7896373Y-8968270D02*
X7801134Y-8987317D01*
X8067801Y-9053984D02*
X8067801Y-8853984D01*
X8067801Y-9044460D02*
X8048754Y-9053984D01*
X8048754Y-9053984D02*
X8010658Y-9053984D01*
X8010658Y-9053984D02*
X7991611Y-9044460D01*
X7991611Y-9044460D02*
X7982087Y-9034936D01*
X7982087Y-9034936D02*
X7972563Y-9015889D01*
X7972563Y-9015889D02*
X7972563Y-8958746D01*
X7972563Y-8958746D02*
X7982087Y-8939698D01*
X7982087Y-8939698D02*
X7991611Y-8930174D01*
X7991611Y-8930174D02*
X8010658Y-8920650D01*
X8010658Y-8920650D02*
X8048754Y-8920650D01*
X8048754Y-8920650D02*
X8067801Y-8930174D01*
X8143992Y-9130174D02*
X8153515Y-9120650D01*
X8153515Y-9120650D02*
X8172563Y-9092079D01*
X8172563Y-9092079D02*
X8182087Y-9073031D01*
X8182087Y-9073031D02*
X8191611Y-9044460D01*
X8191611Y-9044460D02*
X8201134Y-8996841D01*
X8201134Y-8996841D02*
X8201134Y-8958746D01*
X8201134Y-8958746D02*
X8191611Y-8911127D01*
X8191611Y-8911127D02*
X8182087Y-8882555D01*
X8182087Y-8882555D02*
X8172563Y-8863508D01*
X8172563Y-8863508D02*
X8153515Y-8834936D01*
X8153515Y-8834936D02*
X8143992Y-8825412D01*
M02*
