G04 #@! TF.GenerationSoftware,KiCad,Pcbnew,9.0.1*
G04 #@! TF.CreationDate,2025-05-15T21:23:48-07:00*
G04 #@! TF.ProjectId,ARDU_RF_TEMP,41524455-5f52-4465-9f54-454d502e6b69,rev?*
G04 #@! TF.SameCoordinates,Original*
G04 #@! TF.FileFunction,Legend,Bot*
G04 #@! TF.FilePolarity,Positive*
%FSLAX46Y46*%
G04 Gerber Fmt 4.6, Leading zero omitted, Abs format (unit mm)*
G04 Created by KiCad (PCBNEW 9.0.1) date 2025-05-15 21:23:48*
%MOMM*%
%LPD*%
G01*
G04 APERTURE LIST*
%ADD10C,2.800000*%
%ADD11C,0.100000*%
G04 APERTURE END LIST*
D10*
X80491228Y-25601851D02*
X77824561Y-25601851D01*
X77824561Y-25601851D02*
X76574561Y-26268518D01*
X76574561Y-26268518D02*
X75407895Y-27601851D01*
X75407895Y-27601851D02*
X75074561Y-30268518D01*
X75074561Y-30268518D02*
X75657895Y-34935185D01*
X75657895Y-34935185D02*
X76657895Y-37601851D01*
X76657895Y-37601851D02*
X78157895Y-38935185D01*
X78157895Y-38935185D02*
X79574561Y-39601851D01*
X79574561Y-39601851D02*
X82241228Y-39601851D01*
X82241228Y-39601851D02*
X83491228Y-38935185D01*
X83491228Y-38935185D02*
X84657895Y-37601851D01*
X84657895Y-37601851D02*
X84991228Y-34935185D01*
X84991228Y-34935185D02*
X84407895Y-30268518D01*
X84407895Y-30268518D02*
X83407895Y-27601851D01*
X83407895Y-27601851D02*
X81907895Y-26268518D01*
X81907895Y-26268518D02*
X80491228Y-25601851D01*
X70241228Y-39601851D02*
X68491228Y-25601851D01*
X64241228Y-39601851D02*
X63324561Y-32268518D01*
X63324561Y-32268518D02*
X63824561Y-30935185D01*
X63824561Y-30935185D02*
X65074561Y-30268518D01*
X65074561Y-30268518D02*
X67074561Y-30268518D01*
X67074561Y-30268518D02*
X68491228Y-30935185D01*
X68491228Y-30935185D02*
X69241228Y-31601851D01*
X50407894Y-30268518D02*
X51824561Y-41601851D01*
X51824561Y-41601851D02*
X52657894Y-42935185D01*
X52657894Y-42935185D02*
X53407894Y-43601851D01*
X53407894Y-43601851D02*
X54824561Y-44268518D01*
X54824561Y-44268518D02*
X56824561Y-44268518D01*
X56824561Y-44268518D02*
X58074561Y-43601851D01*
X51491227Y-38935185D02*
X52907894Y-39601851D01*
X52907894Y-39601851D02*
X55574561Y-39601851D01*
X55574561Y-39601851D02*
X56824561Y-38935185D01*
X56824561Y-38935185D02*
X57407894Y-38268518D01*
X57407894Y-38268518D02*
X57907894Y-36935185D01*
X57907894Y-36935185D02*
X57407894Y-32935185D01*
X57407894Y-32935185D02*
X56574561Y-31601851D01*
X56574561Y-31601851D02*
X55824561Y-30935185D01*
X55824561Y-30935185D02*
X54407894Y-30268518D01*
X54407894Y-30268518D02*
X51741227Y-30268518D01*
X51741227Y-30268518D02*
X50491227Y-30935185D01*
X37741227Y-30268518D02*
X38907894Y-39601851D01*
X43741227Y-30268518D02*
X44657894Y-37601851D01*
X44657894Y-37601851D02*
X44157894Y-38935185D01*
X44157894Y-38935185D02*
X42907894Y-39601851D01*
X42907894Y-39601851D02*
X40907894Y-39601851D01*
X40907894Y-39601851D02*
X39491227Y-38935185D01*
X39491227Y-38935185D02*
X38741227Y-38268518D01*
X32241227Y-39601851D02*
X30491227Y-25601851D01*
X30241227Y-34268518D02*
X26907893Y-39601851D01*
X25741227Y-30268518D02*
X31741227Y-35601851D01*
X84907895Y-62141067D02*
X83157895Y-48141067D01*
X76907895Y-62141067D02*
X81907895Y-54141067D01*
X75157895Y-48141067D02*
X84157895Y-56141067D01*
X71074561Y-52807734D02*
X69574561Y-62141067D01*
X69574561Y-62141067D02*
X66074561Y-55474401D01*
X66074561Y-55474401D02*
X64241228Y-62141067D01*
X64241228Y-62141067D02*
X60407895Y-52807734D01*
X54241228Y-62141067D02*
X55491228Y-61474401D01*
X55491228Y-61474401D02*
X56074561Y-60807734D01*
X56074561Y-60807734D02*
X56574561Y-59474401D01*
X56574561Y-59474401D02*
X56074561Y-55474401D01*
X56074561Y-55474401D02*
X55241228Y-54141067D01*
X55241228Y-54141067D02*
X54491228Y-53474401D01*
X54491228Y-53474401D02*
X53074561Y-52807734D01*
X53074561Y-52807734D02*
X51074561Y-52807734D01*
X51074561Y-52807734D02*
X49824561Y-53474401D01*
X49824561Y-53474401D02*
X49241228Y-54141067D01*
X49241228Y-54141067D02*
X48741228Y-55474401D01*
X48741228Y-55474401D02*
X49241228Y-59474401D01*
X49241228Y-59474401D02*
X50074561Y-60807734D01*
X50074561Y-60807734D02*
X50824561Y-61474401D01*
X50824561Y-61474401D02*
X52241228Y-62141067D01*
X52241228Y-62141067D02*
X54241228Y-62141067D01*
X42407894Y-52807734D02*
X43574561Y-62141067D01*
X42574561Y-54141067D02*
X41824561Y-53474401D01*
X41824561Y-53474401D02*
X40407894Y-52807734D01*
X40407894Y-52807734D02*
X38407894Y-52807734D01*
X38407894Y-52807734D02*
X37157894Y-53474401D01*
X37157894Y-53474401D02*
X36657894Y-54807734D01*
X36657894Y-54807734D02*
X37574561Y-62141067D01*
D11*
X29897009Y-74322187D02*
X29935104Y-74398377D01*
X29935104Y-74398377D02*
X29935104Y-74512663D01*
X29935104Y-74512663D02*
X29897009Y-74626949D01*
X29897009Y-74626949D02*
X29820819Y-74703139D01*
X29820819Y-74703139D02*
X29744628Y-74741234D01*
X29744628Y-74741234D02*
X29592247Y-74779330D01*
X29592247Y-74779330D02*
X29477961Y-74779330D01*
X29477961Y-74779330D02*
X29325580Y-74741234D01*
X29325580Y-74741234D02*
X29249390Y-74703139D01*
X29249390Y-74703139D02*
X29173200Y-74626949D01*
X29173200Y-74626949D02*
X29135104Y-74512663D01*
X29135104Y-74512663D02*
X29135104Y-74436472D01*
X29135104Y-74436472D02*
X29173200Y-74322187D01*
X29173200Y-74322187D02*
X29211295Y-74284091D01*
X29211295Y-74284091D02*
X29477961Y-74284091D01*
X29477961Y-74284091D02*
X29477961Y-74436472D01*
X29135104Y-73941234D02*
X29935104Y-73941234D01*
X29935104Y-73941234D02*
X29135104Y-73484091D01*
X29135104Y-73484091D02*
X29935104Y-73484091D01*
X29135104Y-73103139D02*
X29935104Y-73103139D01*
X29935104Y-73103139D02*
X29935104Y-72912663D01*
X29935104Y-72912663D02*
X29897009Y-72798377D01*
X29897009Y-72798377D02*
X29820819Y-72722187D01*
X29820819Y-72722187D02*
X29744628Y-72684092D01*
X29744628Y-72684092D02*
X29592247Y-72645996D01*
X29592247Y-72645996D02*
X29477961Y-72645996D01*
X29477961Y-72645996D02*
X29325580Y-72684092D01*
X29325580Y-72684092D02*
X29249390Y-72722187D01*
X29249390Y-72722187D02*
X29173200Y-72798377D01*
X29173200Y-72798377D02*
X29135104Y-72912663D01*
X29135104Y-72912663D02*
X29135104Y-73103139D01*
X29935104Y-78817425D02*
X29935104Y-78322187D01*
X29935104Y-78322187D02*
X29630342Y-78588853D01*
X29630342Y-78588853D02*
X29630342Y-78474568D01*
X29630342Y-78474568D02*
X29592247Y-78398377D01*
X29592247Y-78398377D02*
X29554152Y-78360282D01*
X29554152Y-78360282D02*
X29477961Y-78322187D01*
X29477961Y-78322187D02*
X29287485Y-78322187D01*
X29287485Y-78322187D02*
X29211295Y-78360282D01*
X29211295Y-78360282D02*
X29173200Y-78398377D01*
X29173200Y-78398377D02*
X29135104Y-78474568D01*
X29135104Y-78474568D02*
X29135104Y-78703139D01*
X29135104Y-78703139D02*
X29173200Y-78779330D01*
X29173200Y-78779330D02*
X29211295Y-78817425D01*
X29935104Y-78093615D02*
X29135104Y-77826948D01*
X29135104Y-77826948D02*
X29935104Y-77560282D01*
X29935104Y-77369806D02*
X29935104Y-76874568D01*
X29935104Y-76874568D02*
X29630342Y-77141234D01*
X29630342Y-77141234D02*
X29630342Y-77026949D01*
X29630342Y-77026949D02*
X29592247Y-76950758D01*
X29592247Y-76950758D02*
X29554152Y-76912663D01*
X29554152Y-76912663D02*
X29477961Y-76874568D01*
X29477961Y-76874568D02*
X29287485Y-76874568D01*
X29287485Y-76874568D02*
X29211295Y-76912663D01*
X29211295Y-76912663D02*
X29173200Y-76950758D01*
X29173200Y-76950758D02*
X29135104Y-77026949D01*
X29135104Y-77026949D02*
X29135104Y-77255520D01*
X29135104Y-77255520D02*
X29173200Y-77331711D01*
X29173200Y-77331711D02*
X29211295Y-77369806D01*
X26211295Y-74284091D02*
X26173200Y-74322187D01*
X26173200Y-74322187D02*
X26135104Y-74436472D01*
X26135104Y-74436472D02*
X26135104Y-74512663D01*
X26135104Y-74512663D02*
X26173200Y-74626949D01*
X26173200Y-74626949D02*
X26249390Y-74703139D01*
X26249390Y-74703139D02*
X26325580Y-74741234D01*
X26325580Y-74741234D02*
X26477961Y-74779330D01*
X26477961Y-74779330D02*
X26592247Y-74779330D01*
X26592247Y-74779330D02*
X26744628Y-74741234D01*
X26744628Y-74741234D02*
X26820819Y-74703139D01*
X26820819Y-74703139D02*
X26897009Y-74626949D01*
X26897009Y-74626949D02*
X26935104Y-74512663D01*
X26935104Y-74512663D02*
X26935104Y-74436472D01*
X26935104Y-74436472D02*
X26897009Y-74322187D01*
X26897009Y-74322187D02*
X26858914Y-74284091D01*
X26554152Y-73941234D02*
X26554152Y-73674568D01*
X26135104Y-73560282D02*
X26135104Y-73941234D01*
X26135104Y-73941234D02*
X26935104Y-73941234D01*
X26935104Y-73941234D02*
X26935104Y-73560282D01*
X26211295Y-78284091D02*
X26173200Y-78322187D01*
X26173200Y-78322187D02*
X26135104Y-78436472D01*
X26135104Y-78436472D02*
X26135104Y-78512663D01*
X26135104Y-78512663D02*
X26173200Y-78626949D01*
X26173200Y-78626949D02*
X26249390Y-78703139D01*
X26249390Y-78703139D02*
X26325580Y-78741234D01*
X26325580Y-78741234D02*
X26477961Y-78779330D01*
X26477961Y-78779330D02*
X26592247Y-78779330D01*
X26592247Y-78779330D02*
X26744628Y-78741234D01*
X26744628Y-78741234D02*
X26820819Y-78703139D01*
X26820819Y-78703139D02*
X26897009Y-78626949D01*
X26897009Y-78626949D02*
X26935104Y-78512663D01*
X26935104Y-78512663D02*
X26935104Y-78436472D01*
X26935104Y-78436472D02*
X26897009Y-78322187D01*
X26897009Y-78322187D02*
X26858914Y-78284091D01*
X26173200Y-77979330D02*
X26135104Y-77865044D01*
X26135104Y-77865044D02*
X26135104Y-77674568D01*
X26135104Y-77674568D02*
X26173200Y-77598377D01*
X26173200Y-77598377D02*
X26211295Y-77560282D01*
X26211295Y-77560282D02*
X26287485Y-77522187D01*
X26287485Y-77522187D02*
X26363676Y-77522187D01*
X26363676Y-77522187D02*
X26439866Y-77560282D01*
X26439866Y-77560282D02*
X26477961Y-77598377D01*
X26477961Y-77598377D02*
X26516057Y-77674568D01*
X26516057Y-77674568D02*
X26554152Y-77826949D01*
X26554152Y-77826949D02*
X26592247Y-77903139D01*
X26592247Y-77903139D02*
X26630342Y-77941234D01*
X26630342Y-77941234D02*
X26706533Y-77979330D01*
X26706533Y-77979330D02*
X26782723Y-77979330D01*
X26782723Y-77979330D02*
X26858914Y-77941234D01*
X26858914Y-77941234D02*
X26897009Y-77903139D01*
X26897009Y-77903139D02*
X26935104Y-77826949D01*
X26935104Y-77826949D02*
X26935104Y-77636472D01*
X26935104Y-77636472D02*
X26897009Y-77522187D01*
X26135104Y-77179329D02*
X26935104Y-77179329D01*
X26935104Y-77179329D02*
X26135104Y-76722186D01*
X26135104Y-76722186D02*
X26935104Y-76722186D01*
X23173200Y-74779330D02*
X23135104Y-74665044D01*
X23135104Y-74665044D02*
X23135104Y-74474568D01*
X23135104Y-74474568D02*
X23173200Y-74398377D01*
X23173200Y-74398377D02*
X23211295Y-74360282D01*
X23211295Y-74360282D02*
X23287485Y-74322187D01*
X23287485Y-74322187D02*
X23363676Y-74322187D01*
X23363676Y-74322187D02*
X23439866Y-74360282D01*
X23439866Y-74360282D02*
X23477961Y-74398377D01*
X23477961Y-74398377D02*
X23516057Y-74474568D01*
X23516057Y-74474568D02*
X23554152Y-74626949D01*
X23554152Y-74626949D02*
X23592247Y-74703139D01*
X23592247Y-74703139D02*
X23630342Y-74741234D01*
X23630342Y-74741234D02*
X23706533Y-74779330D01*
X23706533Y-74779330D02*
X23782723Y-74779330D01*
X23782723Y-74779330D02*
X23858914Y-74741234D01*
X23858914Y-74741234D02*
X23897009Y-74703139D01*
X23897009Y-74703139D02*
X23935104Y-74626949D01*
X23935104Y-74626949D02*
X23935104Y-74436472D01*
X23935104Y-74436472D02*
X23897009Y-74322187D01*
X23211295Y-73522186D02*
X23173200Y-73560282D01*
X23173200Y-73560282D02*
X23135104Y-73674567D01*
X23135104Y-73674567D02*
X23135104Y-73750758D01*
X23135104Y-73750758D02*
X23173200Y-73865044D01*
X23173200Y-73865044D02*
X23249390Y-73941234D01*
X23249390Y-73941234D02*
X23325580Y-73979329D01*
X23325580Y-73979329D02*
X23477961Y-74017425D01*
X23477961Y-74017425D02*
X23592247Y-74017425D01*
X23592247Y-74017425D02*
X23744628Y-73979329D01*
X23744628Y-73979329D02*
X23820819Y-73941234D01*
X23820819Y-73941234D02*
X23897009Y-73865044D01*
X23897009Y-73865044D02*
X23935104Y-73750758D01*
X23935104Y-73750758D02*
X23935104Y-73674567D01*
X23935104Y-73674567D02*
X23897009Y-73560282D01*
X23897009Y-73560282D02*
X23858914Y-73522186D01*
X23135104Y-73179329D02*
X23935104Y-73179329D01*
X23135104Y-72722186D02*
X23592247Y-73065044D01*
X23935104Y-72722186D02*
X23477961Y-73179329D01*
X23135104Y-78741234D02*
X23935104Y-78741234D01*
X23935104Y-78741234D02*
X23363676Y-78474568D01*
X23363676Y-78474568D02*
X23935104Y-78207901D01*
X23935104Y-78207901D02*
X23135104Y-78207901D01*
X23935104Y-77674567D02*
X23935104Y-77522186D01*
X23935104Y-77522186D02*
X23897009Y-77445996D01*
X23897009Y-77445996D02*
X23820819Y-77369805D01*
X23820819Y-77369805D02*
X23668438Y-77331710D01*
X23668438Y-77331710D02*
X23401771Y-77331710D01*
X23401771Y-77331710D02*
X23249390Y-77369805D01*
X23249390Y-77369805D02*
X23173200Y-77445996D01*
X23173200Y-77445996D02*
X23135104Y-77522186D01*
X23135104Y-77522186D02*
X23135104Y-77674567D01*
X23135104Y-77674567D02*
X23173200Y-77750758D01*
X23173200Y-77750758D02*
X23249390Y-77826948D01*
X23249390Y-77826948D02*
X23401771Y-77865044D01*
X23401771Y-77865044D02*
X23668438Y-77865044D01*
X23668438Y-77865044D02*
X23820819Y-77826948D01*
X23820819Y-77826948D02*
X23897009Y-77750758D01*
X23897009Y-77750758D02*
X23935104Y-77674567D01*
X23173200Y-77026949D02*
X23135104Y-76912663D01*
X23135104Y-76912663D02*
X23135104Y-76722187D01*
X23135104Y-76722187D02*
X23173200Y-76645996D01*
X23173200Y-76645996D02*
X23211295Y-76607901D01*
X23211295Y-76607901D02*
X23287485Y-76569806D01*
X23287485Y-76569806D02*
X23363676Y-76569806D01*
X23363676Y-76569806D02*
X23439866Y-76607901D01*
X23439866Y-76607901D02*
X23477961Y-76645996D01*
X23477961Y-76645996D02*
X23516057Y-76722187D01*
X23516057Y-76722187D02*
X23554152Y-76874568D01*
X23554152Y-76874568D02*
X23592247Y-76950758D01*
X23592247Y-76950758D02*
X23630342Y-76988853D01*
X23630342Y-76988853D02*
X23706533Y-77026949D01*
X23706533Y-77026949D02*
X23782723Y-77026949D01*
X23782723Y-77026949D02*
X23858914Y-76988853D01*
X23858914Y-76988853D02*
X23897009Y-76950758D01*
X23897009Y-76950758D02*
X23935104Y-76874568D01*
X23935104Y-76874568D02*
X23935104Y-76684091D01*
X23935104Y-76684091D02*
X23897009Y-76569806D01*
X23135104Y-76226948D02*
X23935104Y-76226948D01*
X20135104Y-74741234D02*
X20935104Y-74741234D01*
X20935104Y-74741234D02*
X20363676Y-74474568D01*
X20363676Y-74474568D02*
X20935104Y-74207901D01*
X20935104Y-74207901D02*
X20135104Y-74207901D01*
X20135104Y-73826948D02*
X20935104Y-73826948D01*
X20173200Y-73484092D02*
X20135104Y-73369806D01*
X20135104Y-73369806D02*
X20135104Y-73179330D01*
X20135104Y-73179330D02*
X20173200Y-73103139D01*
X20173200Y-73103139D02*
X20211295Y-73065044D01*
X20211295Y-73065044D02*
X20287485Y-73026949D01*
X20287485Y-73026949D02*
X20363676Y-73026949D01*
X20363676Y-73026949D02*
X20439866Y-73065044D01*
X20439866Y-73065044D02*
X20477961Y-73103139D01*
X20477961Y-73103139D02*
X20516057Y-73179330D01*
X20516057Y-73179330D02*
X20554152Y-73331711D01*
X20554152Y-73331711D02*
X20592247Y-73407901D01*
X20592247Y-73407901D02*
X20630342Y-73445996D01*
X20630342Y-73445996D02*
X20706533Y-73484092D01*
X20706533Y-73484092D02*
X20782723Y-73484092D01*
X20782723Y-73484092D02*
X20858914Y-73445996D01*
X20858914Y-73445996D02*
X20897009Y-73407901D01*
X20897009Y-73407901D02*
X20935104Y-73331711D01*
X20935104Y-73331711D02*
X20935104Y-73141234D01*
X20935104Y-73141234D02*
X20897009Y-73026949D01*
X20935104Y-72531710D02*
X20935104Y-72379329D01*
X20935104Y-72379329D02*
X20897009Y-72303139D01*
X20897009Y-72303139D02*
X20820819Y-72226948D01*
X20820819Y-72226948D02*
X20668438Y-72188853D01*
X20668438Y-72188853D02*
X20401771Y-72188853D01*
X20401771Y-72188853D02*
X20249390Y-72226948D01*
X20249390Y-72226948D02*
X20173200Y-72303139D01*
X20173200Y-72303139D02*
X20135104Y-72379329D01*
X20135104Y-72379329D02*
X20135104Y-72531710D01*
X20135104Y-72531710D02*
X20173200Y-72607901D01*
X20173200Y-72607901D02*
X20249390Y-72684091D01*
X20249390Y-72684091D02*
X20401771Y-72722187D01*
X20401771Y-72722187D02*
X20668438Y-72722187D01*
X20668438Y-72722187D02*
X20820819Y-72684091D01*
X20820819Y-72684091D02*
X20897009Y-72607901D01*
X20897009Y-72607901D02*
X20935104Y-72531710D01*
X20135104Y-78284091D02*
X20516057Y-78550758D01*
X20135104Y-78741234D02*
X20935104Y-78741234D01*
X20935104Y-78741234D02*
X20935104Y-78436472D01*
X20935104Y-78436472D02*
X20897009Y-78360282D01*
X20897009Y-78360282D02*
X20858914Y-78322187D01*
X20858914Y-78322187D02*
X20782723Y-78284091D01*
X20782723Y-78284091D02*
X20668438Y-78284091D01*
X20668438Y-78284091D02*
X20592247Y-78322187D01*
X20592247Y-78322187D02*
X20554152Y-78360282D01*
X20554152Y-78360282D02*
X20516057Y-78436472D01*
X20516057Y-78436472D02*
X20516057Y-78741234D01*
X20173200Y-77979330D02*
X20135104Y-77865044D01*
X20135104Y-77865044D02*
X20135104Y-77674568D01*
X20135104Y-77674568D02*
X20173200Y-77598377D01*
X20173200Y-77598377D02*
X20211295Y-77560282D01*
X20211295Y-77560282D02*
X20287485Y-77522187D01*
X20287485Y-77522187D02*
X20363676Y-77522187D01*
X20363676Y-77522187D02*
X20439866Y-77560282D01*
X20439866Y-77560282D02*
X20477961Y-77598377D01*
X20477961Y-77598377D02*
X20516057Y-77674568D01*
X20516057Y-77674568D02*
X20554152Y-77826949D01*
X20554152Y-77826949D02*
X20592247Y-77903139D01*
X20592247Y-77903139D02*
X20630342Y-77941234D01*
X20630342Y-77941234D02*
X20706533Y-77979330D01*
X20706533Y-77979330D02*
X20782723Y-77979330D01*
X20782723Y-77979330D02*
X20858914Y-77941234D01*
X20858914Y-77941234D02*
X20897009Y-77903139D01*
X20897009Y-77903139D02*
X20935104Y-77826949D01*
X20935104Y-77826949D02*
X20935104Y-77636472D01*
X20935104Y-77636472D02*
X20897009Y-77522187D01*
X20935104Y-77293615D02*
X20935104Y-76836472D01*
X20135104Y-77065044D02*
X20935104Y-77065044D01*
X31000000Y-76000000D02*
X28000000Y-76000000D01*
X28000000Y-76000000D02*
X25000000Y-76000000D01*
X25000000Y-76000000D02*
X22000000Y-76000000D01*
X22000000Y-76000000D02*
X19000000Y-76000000D01*
X28000000Y-76000000D02*
X28000000Y-72000000D01*
X28000000Y-80000000D02*
X28000000Y-76000000D01*
X25000000Y-76000000D02*
X25000000Y-72000000D01*
X25000000Y-80000000D02*
X25000000Y-76000000D01*
X22000000Y-76000000D02*
X22000000Y-72000000D01*
X22000000Y-80000000D02*
X22000000Y-76000000D01*
X31000000Y-72000000D02*
X31000000Y-80000000D01*
X31000000Y-80000000D02*
X19000000Y-80000000D01*
X19000000Y-80000000D02*
X19000000Y-72000000D01*
X19000000Y-72000000D02*
X31000000Y-72000000D01*
M02*
