G04 #@! TF.GenerationSoftware,KiCad,Pcbnew,9.0.1*
G04 #@! TF.CreationDate,2025-05-15T21:23:48-07:00*
G04 #@! TF.ProjectId,ARDU_RF_TEMP,41524455-5f52-4465-9f54-454d502e6b69,rev?*
G04 #@! TF.SameCoordinates,Original*
G04 #@! TF.FileFunction,Copper,L1,Top*
G04 #@! TF.FilePolarity,Positive*
%FSLAX46Y46*%
G04 Gerber Fmt 4.6, Leading zero omitted, Abs format (unit mm)*
G04 Created by KiCad (PCBNEW 9.0.1) date 2025-05-15 21:23:48*
%MOMM*%
%LPD*%
G01*
G04 APERTURE LIST*
G04 Aperture macros list*
%AMRoundRect*
0 Rectangle with rounded corners*
0 $1 Rounding radius*
0 $2 $3 $4 $5 $6 $7 $8 $9 X,Y pos of 4 corners*
0 Add a 4 corners polygon primitive as box body*
4,1,4,$2,$3,$4,$5,$6,$7,$8,$9,$2,$3,0*
0 Add four circle primitives for the rounded corners*
1,1,$1+$1,$2,$3*
1,1,$1+$1,$4,$5*
1,1,$1+$1,$6,$7*
1,1,$1+$1,$8,$9*
0 Add four rect primitives between the rounded corners*
20,1,$1+$1,$2,$3,$4,$5,0*
20,1,$1+$1,$4,$5,$6,$7,0*
20,1,$1+$1,$6,$7,$8,$9,0*
20,1,$1+$1,$8,$9,$2,$3,0*%
G04 Aperture macros list end*
G04 #@! TA.AperFunction,ComponentPad*
%ADD10R,3.000000X3.000000*%
G04 #@! TD*
G04 #@! TA.AperFunction,ComponentPad*
%ADD11C,3.000000*%
G04 #@! TD*
G04 #@! TA.AperFunction,ComponentPad*
%ADD12C,4.000000*%
G04 #@! TD*
G04 #@! TA.AperFunction,ComponentPad*
%ADD13R,1.600000X1.600000*%
G04 #@! TD*
G04 #@! TA.AperFunction,ComponentPad*
%ADD14C,1.600000*%
G04 #@! TD*
G04 #@! TA.AperFunction,ComponentPad*
%ADD15C,1.408000*%
G04 #@! TD*
G04 #@! TA.AperFunction,ComponentPad*
%ADD16O,1.600000X1.600000*%
G04 #@! TD*
G04 #@! TA.AperFunction,ComponentPad*
%ADD17R,1.800000X1.800000*%
G04 #@! TD*
G04 #@! TA.AperFunction,ComponentPad*
%ADD18C,1.800000*%
G04 #@! TD*
G04 #@! TA.AperFunction,ComponentPad*
%ADD19RoundRect,0.250000X-0.550000X-0.550000X0.550000X-0.550000X0.550000X0.550000X-0.550000X0.550000X0*%
G04 #@! TD*
G04 #@! TA.AperFunction,ComponentPad*
%ADD20R,1.500000X1.500000*%
G04 #@! TD*
G04 #@! TA.AperFunction,ComponentPad*
%ADD21C,1.500000*%
G04 #@! TD*
G04 #@! TA.AperFunction,ComponentPad*
%ADD22R,1.524000X1.524000*%
G04 #@! TD*
G04 #@! TA.AperFunction,ComponentPad*
%ADD23C,1.524000*%
G04 #@! TD*
G04 #@! TA.AperFunction,ComponentPad*
%ADD24C,1.270000*%
G04 #@! TD*
G04 #@! TA.AperFunction,ComponentPad*
%ADD25R,1.700000X1.700000*%
G04 #@! TD*
G04 #@! TA.AperFunction,ComponentPad*
%ADD26C,1.700000*%
G04 #@! TD*
G04 #@! TA.AperFunction,ViaPad*
%ADD27C,0.600000*%
G04 #@! TD*
G04 #@! TA.AperFunction,Conductor*
%ADD28C,0.200000*%
G04 #@! TD*
G04 #@! TA.AperFunction,Conductor*
%ADD29C,0.400000*%
G04 #@! TD*
G04 APERTURE END LIST*
D10*
X49000000Y-77950000D03*
D11*
X54000000Y-77950000D03*
X59000000Y-77950000D03*
D12*
X76655000Y-20420000D03*
X101655000Y-20420000D03*
D13*
X83615000Y-19000000D03*
D14*
X86385000Y-19000000D03*
X89155000Y-19000000D03*
X91925000Y-19000000D03*
X94695000Y-19000000D03*
X85000000Y-21840000D03*
X87770000Y-21840000D03*
X90540000Y-21840000D03*
X93310000Y-21840000D03*
D15*
X71400000Y-63560000D03*
X71400000Y-61020000D03*
X71400000Y-58480000D03*
X71400000Y-55940000D03*
X71400000Y-53400000D03*
X71400000Y-50860000D03*
X71400000Y-48320000D03*
X71400000Y-45780000D03*
X71400000Y-43240000D03*
X71400000Y-40700000D03*
X71400000Y-38160000D03*
X71400000Y-35620000D03*
X71400000Y-33080000D03*
X71400000Y-30540000D03*
X71400000Y-28000000D03*
X46000000Y-28000000D03*
X46000000Y-30540000D03*
X46000000Y-33080000D03*
X46000000Y-35620000D03*
X46000000Y-38160000D03*
X46000000Y-40700000D03*
X46000000Y-43240000D03*
X46000000Y-45780000D03*
X46000000Y-48320000D03*
X46000000Y-50860000D03*
X46000000Y-53400000D03*
X46000000Y-55940000D03*
X46000000Y-58480000D03*
X46000000Y-61020000D03*
X46000000Y-63560000D03*
D14*
X84820000Y-47067500D03*
D16*
X94980000Y-47067500D03*
D17*
X81735000Y-62277500D03*
D18*
X81735000Y-64817500D03*
D19*
X75595000Y-33580000D03*
D14*
X83215000Y-33580000D03*
X36000000Y-56160000D03*
D16*
X36000000Y-46000000D03*
D17*
X81735000Y-74297500D03*
D18*
X81735000Y-76837500D03*
D17*
X81735000Y-44247500D03*
D18*
X81735000Y-46787500D03*
D14*
X84820000Y-53367500D03*
D16*
X94980000Y-53367500D03*
D14*
X84820000Y-59667500D03*
D16*
X94980000Y-59667500D03*
D13*
X32000000Y-56160000D03*
D16*
X32000000Y-53620000D03*
X32000000Y-51080000D03*
X32000000Y-48540000D03*
X32000000Y-46000000D03*
X32000000Y-43460000D03*
X32000000Y-40920000D03*
X32000000Y-38380000D03*
X32000000Y-35840000D03*
X32000000Y-33300000D03*
X32000000Y-30760000D03*
X32000000Y-28220000D03*
X32000000Y-25680000D03*
X32000000Y-23140000D03*
X32000000Y-20600000D03*
X16760000Y-20600000D03*
X16760000Y-23140000D03*
X16760000Y-25680000D03*
X16760000Y-28220000D03*
X16760000Y-30760000D03*
X16760000Y-33300000D03*
X16760000Y-35840000D03*
X16760000Y-38380000D03*
X16760000Y-40920000D03*
X16760000Y-43460000D03*
X16760000Y-46000000D03*
X16760000Y-48540000D03*
X16760000Y-51080000D03*
X16760000Y-53620000D03*
X16760000Y-56160000D03*
D20*
X37097500Y-22287500D03*
D21*
X37097500Y-24827500D03*
X37097500Y-27367500D03*
X37097500Y-29907500D03*
D14*
X36000000Y-69080000D03*
D16*
X36000000Y-58920000D03*
D14*
X84820000Y-50217500D03*
D16*
X94980000Y-50217500D03*
D17*
X69730000Y-73165000D03*
D18*
X72270000Y-73165000D03*
D14*
X84820000Y-69117500D03*
D16*
X94980000Y-69117500D03*
D19*
X75595000Y-39580000D03*
D14*
X83215000Y-39580000D03*
D17*
X81735000Y-68287500D03*
D18*
X81735000Y-70827500D03*
D14*
X84820000Y-56517500D03*
D16*
X94980000Y-56517500D03*
D17*
X81735000Y-50257500D03*
D18*
X81735000Y-52797500D03*
D14*
X84820000Y-72267500D03*
D16*
X94980000Y-72267500D03*
D22*
X98589800Y-75810000D03*
D23*
X98589800Y-73270000D03*
X98589800Y-70730000D03*
X98589800Y-68190000D03*
D22*
X92589800Y-42810000D03*
D23*
X92589800Y-40270000D03*
X92589800Y-37730000D03*
X92589800Y-35190000D03*
D17*
X34730000Y-72165000D03*
D18*
X37270000Y-72165000D03*
D17*
X81735000Y-56267500D03*
D18*
X81735000Y-58807500D03*
D24*
X36500000Y-42620000D03*
X36500000Y-40080000D03*
X36500000Y-37540000D03*
X36500000Y-35000000D03*
D14*
X20840000Y-64000000D03*
D16*
X31000000Y-64000000D03*
D14*
X84820000Y-75417500D03*
D16*
X94980000Y-75417500D03*
D25*
X29625000Y-68210500D03*
D26*
X29625000Y-70750500D03*
X27085000Y-68210500D03*
X27085000Y-70750500D03*
X24545000Y-68210500D03*
X24545000Y-70750500D03*
X22005000Y-68210500D03*
X22005000Y-70750500D03*
D14*
X84820000Y-62817500D03*
D16*
X94980000Y-62817500D03*
D14*
X84820000Y-65967500D03*
D16*
X94980000Y-65967500D03*
D25*
X99210500Y-49375000D03*
D26*
X101750500Y-49375000D03*
X99210500Y-51915000D03*
X101750500Y-51915000D03*
X99210500Y-54455000D03*
X101750500Y-54455000D03*
X99210500Y-56995000D03*
X101750500Y-56995000D03*
D14*
X88000000Y-42080000D03*
D16*
X88000000Y-31920000D03*
D27*
X48000000Y-58000000D03*
X84000000Y-42000000D03*
X88000000Y-58000000D03*
X86400000Y-49599000D03*
X51000000Y-68000000D03*
X87000000Y-57000000D03*
X87000000Y-54000000D03*
X93000000Y-48000000D03*
X53000000Y-66000000D03*
X76000000Y-54000000D03*
X29000000Y-50000000D03*
X29000000Y-40000000D03*
X18000000Y-27000000D03*
X23000000Y-50000000D03*
X29000000Y-30000000D03*
X64000000Y-44640000D03*
X74199000Y-42640000D03*
X68000000Y-67640000D03*
X52000000Y-60640000D03*
X53000000Y-59640000D03*
X69000000Y-66640000D03*
X70000000Y-65640000D03*
X54000000Y-58640000D03*
X82999485Y-60639485D03*
X70000000Y-41635000D03*
X78000000Y-54640000D03*
X70000000Y-47640000D03*
X21000000Y-25000000D03*
X29000000Y-29000000D03*
X38000000Y-47160000D03*
X38000000Y-51000000D03*
X74000000Y-46640000D03*
X73000000Y-50640000D03*
X72000000Y-68640000D03*
X74000000Y-43840000D03*
X73005000Y-57640000D03*
X79000000Y-38640000D03*
X73963235Y-38796765D03*
X87000000Y-69640000D03*
X78000000Y-36040000D03*
X80000000Y-42640000D03*
X79000000Y-44640000D03*
X79000000Y-40640000D03*
X79934000Y-50640000D03*
X75000000Y-73000000D03*
X79000000Y-72000000D03*
D28*
X88000000Y-42080000D02*
X84080000Y-42080000D01*
X84080000Y-42080000D02*
X84000000Y-42000000D01*
X92589800Y-42810000D02*
X88730000Y-42810000D01*
X88730000Y-42810000D02*
X88000000Y-42080000D01*
D29*
X87360000Y-28000000D02*
X87680000Y-28320000D01*
X88000000Y-31920000D02*
X88000000Y-28640000D01*
X88000000Y-28640000D02*
X87680000Y-28320000D01*
X48000000Y-58000000D02*
X48000000Y-71000000D01*
X68969000Y-70881000D02*
X48119000Y-70881000D01*
X48119000Y-70881000D02*
X48000000Y-71000000D01*
X48000000Y-71000000D02*
X48000000Y-75000000D01*
X48000000Y-75000000D02*
X49000000Y-76000000D01*
X49000000Y-76000000D02*
X49000000Y-77950000D01*
D28*
X88000000Y-52000000D02*
X88000000Y-58000000D01*
X86400000Y-49599000D02*
X88000000Y-51199000D01*
X88000000Y-51199000D02*
X88000000Y-52000000D01*
X51000000Y-67000000D02*
X51000000Y-68000000D01*
X57000000Y-61000000D02*
X51000000Y-67000000D01*
X71400000Y-55940000D02*
X62060000Y-55940000D01*
X62060000Y-55940000D02*
X57000000Y-61000000D01*
X87000000Y-54000000D02*
X87000000Y-57000000D01*
X93710500Y-61067500D02*
X95138000Y-61067500D01*
X95138000Y-61067500D02*
X99210500Y-56995000D01*
X70000000Y-65640000D02*
X70378500Y-66018500D01*
X70378500Y-66018500D02*
X82232471Y-66018500D01*
X82232471Y-66018500D02*
X84432471Y-63818500D01*
X84432471Y-63818500D02*
X87164628Y-63818500D01*
X87164628Y-63818500D02*
X92455628Y-58527500D01*
X92455628Y-58527500D02*
X95138000Y-58527500D01*
X95138000Y-58527500D02*
X99210500Y-54455000D01*
X82999485Y-60639485D02*
X83028500Y-60668500D01*
X83028500Y-60668500D02*
X87483372Y-60668500D01*
X87483372Y-60668500D02*
X92735372Y-55416500D01*
X92735372Y-55416500D02*
X96583500Y-55416500D01*
X96583500Y-55416500D02*
X98934000Y-53066000D01*
X98934000Y-53066000D02*
X100599500Y-53066000D01*
X100599500Y-53066000D02*
X101750500Y-51915000D01*
X93000000Y-46640000D02*
X92426500Y-46066500D01*
X93000000Y-48000000D02*
X93000000Y-46640000D01*
X72009943Y-59485000D02*
X76000000Y-55494943D01*
X59515000Y-59485000D02*
X72009943Y-59485000D01*
X76000000Y-55494943D02*
X76000000Y-54000000D01*
X53000000Y-66000000D02*
X59515000Y-59485000D01*
D29*
X71580000Y-69580000D02*
X73500000Y-71500000D01*
X70270000Y-69580000D02*
X71580000Y-69580000D01*
X68969000Y-70881000D02*
X70270000Y-69580000D01*
X72270000Y-73165000D02*
X73500000Y-71935000D01*
X73500000Y-71935000D02*
X73500000Y-71500000D01*
X94980000Y-69117500D02*
X97662300Y-69117500D01*
X97662300Y-69117500D02*
X98589800Y-68190000D01*
X79000000Y-72000000D02*
X79996500Y-72996500D01*
X89900000Y-75417500D02*
X89900000Y-69117500D01*
X79996500Y-72996500D02*
X83956050Y-72996500D01*
X83956050Y-72996500D02*
X86377050Y-75417500D01*
X86377050Y-75417500D02*
X89900000Y-75417500D01*
X89900000Y-69117500D02*
X94980000Y-69117500D01*
X94980000Y-72267500D02*
X94980000Y-69117500D01*
X94980000Y-75417500D02*
X94980000Y-72267500D01*
X60640000Y-28000000D02*
X60820000Y-27820000D01*
X101750500Y-49375000D02*
X101750500Y-32750500D01*
X95895000Y-26895000D02*
X61745000Y-26895000D01*
X101750500Y-32750500D02*
X95895000Y-26895000D01*
X61745000Y-26895000D02*
X60820000Y-27820000D01*
X90000000Y-30640000D02*
X90000000Y-35140200D01*
X90000000Y-35140200D02*
X92589800Y-37730000D01*
X39000000Y-51960000D02*
X36000000Y-51960000D01*
X36000000Y-46000000D02*
X36000000Y-51960000D01*
D28*
X29000000Y-40000000D02*
X28481000Y-39481000D01*
X36000000Y-56160000D02*
X34561000Y-54721000D01*
X29000000Y-52177050D02*
X29000000Y-50000000D01*
X34561000Y-54721000D02*
X31543950Y-54721000D01*
X31543950Y-54721000D02*
X29000000Y-52177050D01*
D29*
X36000000Y-58920000D02*
X39000000Y-55920000D01*
X39000000Y-55920000D02*
X39000000Y-51960000D01*
X36000000Y-51960000D02*
X34642000Y-51960000D01*
X34642000Y-51960000D02*
X34321000Y-52281000D01*
X36500000Y-35000000D02*
X39000000Y-37500000D01*
X39000000Y-37500000D02*
X39000000Y-51960000D01*
X34321000Y-52281000D02*
X31281000Y-52281000D01*
X31281000Y-52281000D02*
X30000000Y-51000000D01*
X30000000Y-51000000D02*
X30000000Y-49000000D01*
X30000000Y-49000000D02*
X29540000Y-48540000D01*
X29540000Y-48540000D02*
X16760000Y-48540000D01*
X37097500Y-29907500D02*
X35464000Y-31541000D01*
X35464000Y-31541000D02*
X35464000Y-36504000D01*
X35464000Y-36504000D02*
X36500000Y-37540000D01*
D28*
X20840000Y-64000000D02*
X23156000Y-66316000D01*
X31165000Y-72165000D02*
X34730000Y-72165000D01*
X23156000Y-66316000D02*
X23156000Y-70989260D01*
X23156000Y-70989260D02*
X24166740Y-72000000D01*
X24166740Y-72000000D02*
X31000000Y-72000000D01*
X31000000Y-72000000D02*
X31165000Y-72165000D01*
X16422950Y-27000000D02*
X18000000Y-27000000D01*
X15000000Y-28422950D02*
X16422950Y-27000000D01*
X15000000Y-34000000D02*
X15000000Y-28422950D01*
X22005000Y-68210500D02*
X15000000Y-61205500D01*
X15000000Y-61205500D02*
X15000000Y-34000000D01*
D29*
X29625000Y-70750500D02*
X28336000Y-69461500D01*
X28336000Y-69461500D02*
X28336000Y-63336000D01*
X28336000Y-63336000D02*
X23000000Y-58000000D01*
X23000000Y-58000000D02*
X23000000Y-50000000D01*
D28*
X27220000Y-28220000D02*
X29000000Y-30000000D01*
X16760000Y-28220000D02*
X27220000Y-28220000D01*
X66405000Y-42235000D02*
X64000000Y-44640000D01*
X73794000Y-42235000D02*
X66405000Y-42235000D01*
X74199000Y-42640000D02*
X73794000Y-42235000D01*
X46000000Y-53400000D02*
X52000000Y-59400000D01*
X84820000Y-75417500D02*
X84739000Y-75498500D01*
X68000000Y-67640000D02*
X76000000Y-67640000D01*
X76000000Y-70964500D02*
X76000000Y-67640000D01*
X80672000Y-69626500D02*
X84311000Y-69626500D01*
X80534000Y-75498500D02*
X76000000Y-70964500D01*
X76000000Y-67640000D02*
X78685500Y-67640000D01*
X52000000Y-59400000D02*
X52000000Y-60640000D01*
X84739000Y-75498500D02*
X80534000Y-75498500D01*
X84311000Y-69626500D02*
X84820000Y-69117500D01*
X78685500Y-67640000D02*
X80672000Y-69626500D01*
X46000000Y-38160000D02*
X47520000Y-36640000D01*
X79000000Y-36640000D02*
X80000000Y-37640000D01*
X86426500Y-46066500D02*
X92426500Y-46066500D01*
X47520000Y-36640000D02*
X79000000Y-36640000D01*
X80000000Y-39640000D02*
X86426500Y-46066500D01*
X80000000Y-37640000D02*
X80000000Y-39640000D01*
X81865936Y-66640000D02*
X82086436Y-66419500D01*
X46000000Y-50860000D02*
X46000000Y-52395000D01*
X47005000Y-53816285D02*
X46994193Y-53827093D01*
X84178071Y-64640000D02*
X91000000Y-64640000D01*
X91000000Y-64640000D02*
X91000000Y-63778000D01*
X46994193Y-53827093D02*
X52401000Y-59233900D01*
X82086436Y-66419500D02*
X82398571Y-66419500D01*
X52401000Y-59233900D02*
X52401000Y-59640000D01*
X46000000Y-52395000D02*
X46416285Y-52395000D01*
X47005000Y-52983715D02*
X47005000Y-53816285D01*
X69000000Y-66640000D02*
X81865936Y-66640000D01*
X82398571Y-66419500D02*
X84178071Y-64640000D01*
X91000000Y-63778000D02*
X93710500Y-61067500D01*
X52401000Y-59640000D02*
X53000000Y-59640000D01*
X46416285Y-52395000D02*
X47005000Y-52983715D01*
X46401000Y-51865000D02*
X46401000Y-51994000D01*
X52374200Y-58640000D02*
X54000000Y-58640000D01*
X46416285Y-49855000D02*
X47005000Y-50443715D01*
X47406000Y-53671800D02*
X52374200Y-58640000D01*
X46416285Y-51865000D02*
X46401000Y-51865000D01*
X47406000Y-52817615D02*
X47406000Y-53671800D01*
X47005000Y-51276285D02*
X46416285Y-51865000D01*
X46000000Y-49855000D02*
X46416285Y-49855000D01*
X46582385Y-51994000D02*
X47406000Y-52817615D01*
X46401000Y-51994000D02*
X46582385Y-51994000D01*
X47005000Y-50443715D02*
X47005000Y-51276285D01*
X46000000Y-48320000D02*
X46000000Y-49855000D01*
X48599000Y-37041000D02*
X49000000Y-37041000D01*
X70983715Y-49325000D02*
X71000000Y-49325000D01*
X47000000Y-38640000D02*
X48599000Y-37041000D01*
X70000000Y-48341285D02*
X70983715Y-49325000D01*
X72685000Y-49325000D02*
X78000000Y-54640000D01*
X49000000Y-37041000D02*
X68000000Y-37041000D01*
X47005000Y-44775000D02*
X47005000Y-38645000D01*
X68000000Y-37041000D02*
X69401000Y-37041000D01*
X46000000Y-45780000D02*
X47005000Y-44775000D01*
X69401000Y-37041000D02*
X70000000Y-37640000D01*
X47005000Y-38645000D02*
X47000000Y-38640000D01*
X71000000Y-49325000D02*
X72685000Y-49325000D01*
X70000000Y-37640000D02*
X70000000Y-41635000D01*
X70000000Y-47640000D02*
X70000000Y-48341285D01*
X21000000Y-25000000D02*
X21000000Y-24840000D01*
X21000000Y-24840000D02*
X16760000Y-20600000D01*
X29000000Y-29000000D02*
X29000000Y-28680000D01*
X29000000Y-28680000D02*
X32000000Y-25680000D01*
X28021000Y-42021000D02*
X33461000Y-42021000D01*
X33461000Y-42021000D02*
X34361000Y-42921000D01*
X38000000Y-51000000D02*
X38000000Y-47160000D01*
X16760000Y-40920000D02*
X26920000Y-40920000D01*
X34361000Y-42921000D02*
X36500000Y-42921000D01*
X26920000Y-40920000D02*
X28021000Y-42021000D01*
X27380000Y-38380000D02*
X28481000Y-39481000D01*
X33461000Y-39481000D02*
X34060000Y-40080000D01*
X28481000Y-39481000D02*
X33461000Y-39481000D01*
X16760000Y-38380000D02*
X27380000Y-38380000D01*
X34060000Y-40080000D02*
X36500000Y-40080000D01*
X73005000Y-57640000D02*
X73005000Y-50645000D01*
X74000000Y-46640000D02*
X74000000Y-43840000D01*
X80433500Y-77073500D02*
X72000000Y-68640000D01*
X78839000Y-38479000D02*
X79000000Y-38640000D01*
X81735000Y-76837500D02*
X81499000Y-77073500D01*
X73005000Y-50645000D02*
X73000000Y-50640000D01*
X81499000Y-77073500D02*
X80433500Y-77073500D01*
X74281000Y-38479000D02*
X78839000Y-38479000D01*
X73963235Y-38796765D02*
X74281000Y-38479000D01*
X85812500Y-70827500D02*
X81735000Y-70827500D01*
X87000000Y-69640000D02*
X85812500Y-70827500D01*
X79000000Y-62082500D02*
X81735000Y-64817500D01*
X71400000Y-35620000D02*
X77580000Y-35620000D01*
X79000000Y-44640000D02*
X79000000Y-62082500D01*
X80000000Y-42640000D02*
X80000000Y-41640000D01*
X80000000Y-41640000D02*
X79000000Y-40640000D01*
X77580000Y-35620000D02*
X78000000Y-36040000D01*
X71400000Y-40700000D02*
X77060000Y-40700000D01*
X77060000Y-40700000D02*
X80534000Y-44174000D01*
X80534000Y-57606500D02*
X81735000Y-58807500D01*
X80534000Y-44174000D02*
X80534000Y-57606500D01*
X79000000Y-43640000D02*
X79934000Y-44574000D01*
X78600000Y-43240000D02*
X79000000Y-43640000D01*
X79934000Y-44574000D02*
X79934000Y-50640000D01*
X71400000Y-43240000D02*
X78600000Y-43240000D01*
D29*
X71400000Y-28000000D02*
X87360000Y-28000000D01*
X87680000Y-28320000D02*
X90000000Y-30640000D01*
X73500000Y-71500000D02*
X75000000Y-73000000D01*
X46000000Y-28000000D02*
X60640000Y-28000000D01*
G04 #@! TA.AperFunction,Conductor*
G36*
X104442539Y-12520185D02*
G01*
X104488294Y-12572989D01*
X104499500Y-12624500D01*
X104499500Y-14623575D01*
X104479815Y-14690614D01*
X104427011Y-14736369D01*
X104357853Y-14746313D01*
X104294297Y-14717288D01*
X104257569Y-14661894D01*
X104205218Y-14500776D01*
X104171503Y-14434607D01*
X104112287Y-14318390D01*
X104104556Y-14307749D01*
X103991971Y-14152786D01*
X103847213Y-14008028D01*
X103681613Y-13887715D01*
X103681612Y-13887714D01*
X103681610Y-13887713D01*
X103597681Y-13844949D01*
X103499223Y-13794781D01*
X103304534Y-13731522D01*
X103129995Y-13703878D01*
X103102352Y-13699500D01*
X102897648Y-13699500D01*
X102873329Y-13703351D01*
X102695465Y-13731522D01*
X102500776Y-13794781D01*
X102318386Y-13887715D01*
X102152786Y-14008028D01*
X102008028Y-14152786D01*
X101887715Y-14318386D01*
X101794781Y-14500776D01*
X101731522Y-14695465D01*
X101699500Y-14897648D01*
X101699500Y-15102351D01*
X101731522Y-15304534D01*
X101794781Y-15499223D01*
X101887715Y-15681613D01*
X102008028Y-15847213D01*
X102152786Y-15991971D01*
X102307749Y-16104556D01*
X102318390Y-16112287D01*
X102402319Y-16155051D01*
X102500776Y-16205218D01*
X102500778Y-16205218D01*
X102500781Y-16205220D01*
X102605137Y-16239127D01*
X102695465Y-16268477D01*
X102796557Y-16284488D01*
X102897648Y-16300500D01*
X102897649Y-16300500D01*
X103102351Y-16300500D01*
X103102352Y-16300500D01*
X103304534Y-16268477D01*
X103499219Y-16205220D01*
X103681610Y-16112287D01*
X103794726Y-16030104D01*
X103847213Y-15991971D01*
X103847215Y-15991968D01*
X103847219Y-15991966D01*
X103991966Y-15847219D01*
X103991968Y-15847215D01*
X103991971Y-15847213D01*
X104093247Y-15707816D01*
X104112287Y-15681610D01*
X104205220Y-15499219D01*
X104257569Y-15338106D01*
X104297007Y-15280430D01*
X104361365Y-15253232D01*
X104430212Y-15265147D01*
X104481687Y-15312391D01*
X104499500Y-15376424D01*
X104499500Y-77623575D01*
X104479815Y-77690614D01*
X104427011Y-77736369D01*
X104357853Y-77746313D01*
X104294297Y-77717288D01*
X104257569Y-77661894D01*
X104205218Y-77500776D01*
X104141185Y-77375106D01*
X104112287Y-77318390D01*
X104102220Y-77304534D01*
X103991971Y-77152786D01*
X103847213Y-77008028D01*
X103681613Y-76887715D01*
X103681612Y-76887714D01*
X103681610Y-76887713D01*
X103581066Y-76836483D01*
X103499223Y-76794781D01*
X103304534Y-76731522D01*
X103129995Y-76703878D01*
X103102352Y-76699500D01*
X102897648Y-76699500D01*
X102873329Y-76703351D01*
X102695465Y-76731522D01*
X102500776Y-76794781D01*
X102318386Y-76887715D01*
X102152786Y-77008028D01*
X102008028Y-77152786D01*
X101887715Y-77318386D01*
X101794781Y-77500776D01*
X101731522Y-77695465D01*
X101699500Y-77897648D01*
X101699500Y-78102351D01*
X101731522Y-78304534D01*
X101794781Y-78499223D01*
X101887715Y-78681613D01*
X102008028Y-78847213D01*
X102152786Y-78991971D01*
X102307749Y-79104556D01*
X102318390Y-79112287D01*
X102434607Y-79171503D01*
X102500776Y-79205218D01*
X102500778Y-79205218D01*
X102500781Y-79205220D01*
X102604881Y-79239044D01*
X102661894Y-79257569D01*
X102719569Y-79297007D01*
X102746767Y-79361366D01*
X102734852Y-79430212D01*
X102687608Y-79481688D01*
X102623575Y-79499500D01*
X60247309Y-79499500D01*
X60180270Y-79479815D01*
X60159628Y-79463181D01*
X59211059Y-78514612D01*
X59231591Y-78509111D01*
X59368408Y-78430119D01*
X59480119Y-78318408D01*
X59559111Y-78181591D01*
X59564612Y-78161059D01*
X60579917Y-79176365D01*
X60579919Y-79176365D01*
X60666499Y-79063534D01*
X60666511Y-79063516D01*
X60797590Y-78836482D01*
X60797595Y-78836471D01*
X60897924Y-78594255D01*
X60965777Y-78341020D01*
X60965779Y-78341009D01*
X60999999Y-78081094D01*
X61000000Y-78081080D01*
X61000000Y-77818919D01*
X60999999Y-77818905D01*
X60965779Y-77558990D01*
X60965777Y-77558979D01*
X60897924Y-77305744D01*
X60797595Y-77063528D01*
X60797590Y-77063517D01*
X60734808Y-76954776D01*
X60701825Y-76897648D01*
X63699500Y-76897648D01*
X63699500Y-77102351D01*
X63731522Y-77304534D01*
X63794781Y-77499223D01*
X63887715Y-77681613D01*
X64008028Y-77847213D01*
X64152786Y-77991971D01*
X64307749Y-78104556D01*
X64318390Y-78112287D01*
X64434607Y-78171503D01*
X64500776Y-78205218D01*
X64500778Y-78205218D01*
X64500781Y-78205220D01*
X64601667Y-78238000D01*
X64695465Y-78268477D01*
X64770933Y-78280430D01*
X64897648Y-78300500D01*
X64897649Y-78300500D01*
X65102351Y-78300500D01*
X65102352Y-78300500D01*
X65304534Y-78268477D01*
X65499219Y-78205220D01*
X65681610Y-78112287D01*
X65796258Y-78028991D01*
X65847213Y-77991971D01*
X65847215Y-77991968D01*
X65847219Y-77991966D01*
X65991966Y-77847219D01*
X65991968Y-77847215D01*
X65991971Y-77847213D01*
X66062697Y-77749865D01*
X66112287Y-77681610D01*
X66205220Y-77499219D01*
X66268477Y-77304534D01*
X66300500Y-77102352D01*
X66300500Y-76897648D01*
X66268477Y-76695466D01*
X66263283Y-76679482D01*
X66239127Y-76605137D01*
X66205220Y-76500781D01*
X66205218Y-76500778D01*
X66205218Y-76500776D01*
X66158695Y-76409471D01*
X66112287Y-76318390D01*
X66104556Y-76307749D01*
X65991971Y-76152786D01*
X65847213Y-76008028D01*
X65681613Y-75887715D01*
X65681612Y-75887714D01*
X65681610Y-75887713D01*
X65606986Y-75849690D01*
X65499223Y-75794781D01*
X65304534Y-75731522D01*
X65129995Y-75703878D01*
X65102352Y-75699500D01*
X64897648Y-75699500D01*
X64873329Y-75703351D01*
X64695465Y-75731522D01*
X64500776Y-75794781D01*
X64318386Y-75887715D01*
X64152786Y-76008028D01*
X64008028Y-76152786D01*
X63887715Y-76318386D01*
X63794781Y-76500776D01*
X63731522Y-76695465D01*
X63699500Y-76897648D01*
X60701825Y-76897648D01*
X60666511Y-76836483D01*
X60666505Y-76836475D01*
X60579918Y-76723633D01*
X60579917Y-76723633D01*
X59564612Y-77738939D01*
X59559111Y-77718409D01*
X59480119Y-77581592D01*
X59368408Y-77469881D01*
X59231591Y-77390889D01*
X59211057Y-77385387D01*
X60226365Y-76370080D01*
X60113524Y-76283494D01*
X60113516Y-76283488D01*
X59886482Y-76152409D01*
X59886471Y-76152404D01*
X59644255Y-76052075D01*
X59391020Y-75984222D01*
X59391009Y-75984220D01*
X59131094Y-75950000D01*
X58868905Y-75950000D01*
X58608990Y-75984220D01*
X58608979Y-75984222D01*
X58355744Y-76052075D01*
X58113528Y-76152404D01*
X58113517Y-76152409D01*
X57886471Y-76283496D01*
X57773633Y-76370079D01*
X57773633Y-76370080D01*
X58788940Y-77385387D01*
X58768409Y-77390889D01*
X58631592Y-77469881D01*
X58519881Y-77581592D01*
X58440889Y-77718409D01*
X58435387Y-77738940D01*
X57420080Y-76723633D01*
X57420079Y-76723633D01*
X57333496Y-76836471D01*
X57202409Y-77063517D01*
X57202404Y-77063528D01*
X57102075Y-77305744D01*
X57034222Y-77558979D01*
X57034220Y-77558990D01*
X57000000Y-77818905D01*
X57000000Y-78081094D01*
X57034220Y-78341009D01*
X57034222Y-78341020D01*
X57102075Y-78594255D01*
X57202404Y-78836471D01*
X57202409Y-78836482D01*
X57333488Y-79063516D01*
X57333494Y-79063524D01*
X57420080Y-79176365D01*
X58435387Y-78161058D01*
X58440889Y-78181591D01*
X58519881Y-78318408D01*
X58631592Y-78430119D01*
X58768409Y-78509111D01*
X58788940Y-78514612D01*
X57840372Y-79463181D01*
X57779049Y-79496666D01*
X57752691Y-79499500D01*
X55578996Y-79499500D01*
X55511957Y-79479815D01*
X55466202Y-79427011D01*
X55456258Y-79357853D01*
X55485283Y-79294297D01*
X55491315Y-79287819D01*
X55507274Y-79271860D01*
X55507277Y-79271855D01*
X55507282Y-79271851D01*
X55666924Y-79063803D01*
X55798043Y-78836697D01*
X55898398Y-78594419D01*
X55966270Y-78341116D01*
X56000500Y-78081120D01*
X56000500Y-77818880D01*
X55966270Y-77558884D01*
X55898398Y-77305581D01*
X55840355Y-77165452D01*
X55798046Y-77063309D01*
X55798041Y-77063299D01*
X55666924Y-76836196D01*
X55507281Y-76628148D01*
X55507274Y-76628140D01*
X55321860Y-76442726D01*
X55321851Y-76442718D01*
X55113803Y-76283075D01*
X54886700Y-76151958D01*
X54886690Y-76151953D01*
X54644428Y-76051605D01*
X54644421Y-76051603D01*
X54644419Y-76051602D01*
X54391116Y-75983730D01*
X54333339Y-75976123D01*
X54131127Y-75949500D01*
X54131120Y-75949500D01*
X53868880Y-75949500D01*
X53868872Y-75949500D01*
X53637772Y-75979926D01*
X53608884Y-75983730D01*
X53405333Y-76038271D01*
X53355581Y-76051602D01*
X53355571Y-76051605D01*
X53113309Y-76151953D01*
X53113299Y-76151958D01*
X52886196Y-76283075D01*
X52678148Y-76442718D01*
X52492718Y-76628148D01*
X52333075Y-76836196D01*
X52201958Y-77063299D01*
X52201953Y-77063309D01*
X52101605Y-77305571D01*
X52101602Y-77305581D01*
X52033730Y-77558884D01*
X52033716Y-77558990D01*
X51999500Y-77818872D01*
X51999500Y-78081127D01*
X52023728Y-78265147D01*
X52033730Y-78341116D01*
X52078744Y-78509111D01*
X52101602Y-78594418D01*
X52101605Y-78594428D01*
X52201953Y-78836690D01*
X52201958Y-78836700D01*
X52333075Y-79063803D01*
X52492718Y-79271851D01*
X52492726Y-79271860D01*
X52508685Y-79287819D01*
X52542170Y-79349142D01*
X52537186Y-79418834D01*
X52495314Y-79474767D01*
X52429850Y-79499184D01*
X52421004Y-79499500D01*
X51124500Y-79499500D01*
X51057461Y-79479815D01*
X51011706Y-79427011D01*
X51000500Y-79375500D01*
X51000499Y-76402129D01*
X51000498Y-76402123D01*
X51000497Y-76402116D01*
X50994091Y-76342517D01*
X50985092Y-76318390D01*
X50943797Y-76207671D01*
X50943793Y-76207664D01*
X50857547Y-76092455D01*
X50857544Y-76092452D01*
X50742335Y-76006206D01*
X50742328Y-76006202D01*
X50607482Y-75955908D01*
X50607483Y-75955908D01*
X50547883Y-75949501D01*
X50547881Y-75949500D01*
X50547873Y-75949500D01*
X50547865Y-75949500D01*
X49805942Y-75949500D01*
X49738903Y-75929815D01*
X49693148Y-75877011D01*
X49684325Y-75849695D01*
X49673580Y-75795672D01*
X49673211Y-75794780D01*
X49620777Y-75668192D01*
X49544112Y-75553454D01*
X48736819Y-74746161D01*
X48703334Y-74684838D01*
X48700500Y-74658480D01*
X48700500Y-71705500D01*
X48720185Y-71638461D01*
X48772989Y-71592706D01*
X48824500Y-71581500D01*
X68543053Y-71581500D01*
X68610092Y-71601185D01*
X68655847Y-71653989D01*
X68665791Y-71723147D01*
X68636766Y-71786703D01*
X68594833Y-71815816D01*
X68595454Y-71816953D01*
X68587664Y-71821206D01*
X68472455Y-71907452D01*
X68472452Y-71907455D01*
X68386206Y-72022664D01*
X68386202Y-72022671D01*
X68335908Y-72157517D01*
X68329501Y-72217116D01*
X68329500Y-72217135D01*
X68329500Y-74112870D01*
X68329501Y-74112876D01*
X68335908Y-74172483D01*
X68386202Y-74307328D01*
X68386206Y-74307335D01*
X68472452Y-74422544D01*
X68472455Y-74422547D01*
X68587664Y-74508793D01*
X68587671Y-74508797D01*
X68722517Y-74559091D01*
X68722516Y-74559091D01*
X68729444Y-74559835D01*
X68782127Y-74565500D01*
X70677872Y-74565499D01*
X70737483Y-74559091D01*
X70872331Y-74508796D01*
X70987546Y-74422546D01*
X71073796Y-74307331D01*
X71097374Y-74244116D01*
X71103601Y-74227420D01*
X71145471Y-74171486D01*
X71210936Y-74147068D01*
X71279209Y-74161919D01*
X71307464Y-74183071D01*
X71357636Y-74233243D01*
X71357641Y-74233247D01*
X71495545Y-74333439D01*
X71535978Y-74362815D01*
X71659058Y-74425528D01*
X71732393Y-74462895D01*
X71732396Y-74462896D01*
X71837221Y-74496955D01*
X71942049Y-74531015D01*
X72159778Y-74565500D01*
X72159779Y-74565500D01*
X72380221Y-74565500D01*
X72380222Y-74565500D01*
X72597951Y-74531015D01*
X72807606Y-74462895D01*
X73004022Y-74362815D01*
X73182365Y-74233242D01*
X73338242Y-74077365D01*
X73467815Y-73899022D01*
X73567895Y-73702606D01*
X73636015Y-73492951D01*
X73670500Y-73275222D01*
X73670500Y-73054778D01*
X73656124Y-72964012D01*
X73665079Y-72894720D01*
X73710075Y-72841268D01*
X73776826Y-72820628D01*
X73844140Y-72839353D01*
X73866276Y-72856932D01*
X74064121Y-73054778D01*
X74203927Y-73194584D01*
X74230807Y-73234812D01*
X74290604Y-73379176D01*
X74290609Y-73379185D01*
X74378210Y-73510288D01*
X74378213Y-73510292D01*
X74489707Y-73621786D01*
X74489711Y-73621789D01*
X74620814Y-73709390D01*
X74620827Y-73709397D01*
X74730036Y-73754632D01*
X74766503Y-73769737D01*
X74921153Y-73800499D01*
X74921156Y-73800500D01*
X74921158Y-73800500D01*
X75078844Y-73800500D01*
X75078845Y-73800499D01*
X75233497Y-73769737D01*
X75379179Y-73709394D01*
X75510289Y-73621789D01*
X75621789Y-73510289D01*
X75697769Y-73396576D01*
X75751381Y-73351772D01*
X75820706Y-73343065D01*
X75883733Y-73373219D01*
X75888552Y-73377787D01*
X79948639Y-77437874D01*
X79948649Y-77437885D01*
X79952979Y-77442215D01*
X79952980Y-77442216D01*
X80064784Y-77554020D01*
X80138270Y-77596446D01*
X80151595Y-77604139D01*
X80151597Y-77604141D01*
X80185258Y-77623575D01*
X80201715Y-77633077D01*
X80354443Y-77674000D01*
X80548457Y-77674000D01*
X80615496Y-77693685D01*
X80648775Y-77725115D01*
X80666752Y-77749858D01*
X80666756Y-77749863D01*
X80822636Y-77905743D01*
X80822641Y-77905747D01*
X80883551Y-77950000D01*
X81000978Y-78035315D01*
X81129375Y-78100737D01*
X81197393Y-78135395D01*
X81197396Y-78135396D01*
X81302221Y-78169455D01*
X81407049Y-78203515D01*
X81624778Y-78238000D01*
X81624779Y-78238000D01*
X81845221Y-78238000D01*
X81845222Y-78238000D01*
X82062951Y-78203515D01*
X82272606Y-78135395D01*
X82469022Y-78035315D01*
X82647365Y-77905742D01*
X82803242Y-77749865D01*
X82932815Y-77571522D01*
X83032895Y-77375106D01*
X83101015Y-77165451D01*
X83135500Y-76947722D01*
X83135500Y-76727278D01*
X83101015Y-76509549D01*
X83066108Y-76402116D01*
X83032896Y-76299896D01*
X83032893Y-76299889D01*
X83022400Y-76279296D01*
X83009503Y-76210627D01*
X83035778Y-76145887D01*
X83092884Y-76105629D01*
X83132884Y-76099000D01*
X83644452Y-76099000D01*
X83711491Y-76118685D01*
X83744770Y-76150115D01*
X83746109Y-76151958D01*
X83828030Y-76264715D01*
X83972786Y-76409471D01*
X84127749Y-76522056D01*
X84138390Y-76529787D01*
X84254607Y-76589003D01*
X84320776Y-76622718D01*
X84320778Y-76622718D01*
X84320781Y-76622720D01*
X84425137Y-76656627D01*
X84515465Y-76685977D01*
X84575376Y-76695466D01*
X84717648Y-76718000D01*
X84717649Y-76718000D01*
X84922351Y-76718000D01*
X84922352Y-76718000D01*
X85124534Y-76685977D01*
X85319219Y-76622720D01*
X85501610Y-76529787D01*
X85621440Y-76442726D01*
X85667213Y-76409471D01*
X85667215Y-76409468D01*
X85667219Y-76409466D01*
X85811966Y-76264719D01*
X85932287Y-76099110D01*
X85932288Y-76099107D01*
X85934931Y-76095470D01*
X85990261Y-76052803D01*
X86059874Y-76046824D01*
X86082702Y-76053793D01*
X86093045Y-76058077D01*
X86172722Y-76091080D01*
X86172726Y-76091080D01*
X86172727Y-76091081D01*
X86308053Y-76118000D01*
X86308056Y-76118000D01*
X89968995Y-76118000D01*
X90097420Y-76092454D01*
X90104328Y-76091080D01*
X90231811Y-76038275D01*
X90346542Y-75961614D01*
X90444114Y-75864042D01*
X90520775Y-75749311D01*
X90573580Y-75621828D01*
X90587181Y-75553454D01*
X90600500Y-75486495D01*
X90600500Y-69942000D01*
X90620185Y-69874961D01*
X90672989Y-69829206D01*
X90724500Y-69818000D01*
X93818256Y-69818000D01*
X93885295Y-69837685D01*
X93918574Y-69869115D01*
X93931863Y-69887406D01*
X93988030Y-69964715D01*
X94132784Y-70109469D01*
X94228385Y-70178926D01*
X94271051Y-70234255D01*
X94279500Y-70279244D01*
X94279500Y-71105755D01*
X94259815Y-71172794D01*
X94228385Y-71206073D01*
X94132787Y-71275528D01*
X94132782Y-71275532D01*
X93988028Y-71420286D01*
X93867715Y-71585886D01*
X93774781Y-71768276D01*
X93711522Y-71962965D01*
X93679500Y-72165148D01*
X93679500Y-72369851D01*
X93711522Y-72572034D01*
X93774781Y-72766723D01*
X93867715Y-72949113D01*
X93988028Y-73114713D01*
X94132784Y-73259469D01*
X94228385Y-73328926D01*
X94271051Y-73384255D01*
X94279500Y-73429244D01*
X94279500Y-74255755D01*
X94259815Y-74322794D01*
X94228385Y-74356073D01*
X94132787Y-74425528D01*
X94132782Y-74425532D01*
X93988028Y-74570286D01*
X93867715Y-74735886D01*
X93774781Y-74918276D01*
X93711522Y-75112965D01*
X93679500Y-75315148D01*
X93679500Y-75519851D01*
X93711522Y-75722034D01*
X93774781Y-75916723D01*
X93815900Y-75997422D01*
X93865858Y-76095470D01*
X93867715Y-76099113D01*
X93988028Y-76264713D01*
X94132786Y-76409471D01*
X94287749Y-76522056D01*
X94298390Y-76529787D01*
X94414607Y-76589003D01*
X94480776Y-76622718D01*
X94480778Y-76622718D01*
X94480781Y-76622720D01*
X94585137Y-76656627D01*
X94675465Y-76685977D01*
X94735376Y-76695466D01*
X94877648Y-76718000D01*
X94877649Y-76718000D01*
X95082351Y-76718000D01*
X95082352Y-76718000D01*
X95284534Y-76685977D01*
X95479219Y-76622720D01*
X95661610Y-76529787D01*
X95781440Y-76442726D01*
X95827213Y-76409471D01*
X95827215Y-76409468D01*
X95827219Y-76409466D01*
X95971966Y-76264719D01*
X95971968Y-76264715D01*
X95971971Y-76264713D01*
X96053891Y-76151958D01*
X96092287Y-76099110D01*
X96185220Y-75916719D01*
X96248477Y-75722034D01*
X96280500Y-75519852D01*
X96280500Y-75315148D01*
X96248477Y-75112966D01*
X96185220Y-74918281D01*
X96185218Y-74918278D01*
X96185218Y-74918276D01*
X96127841Y-74805669D01*
X96092287Y-74735890D01*
X96052176Y-74680681D01*
X95971971Y-74570286D01*
X95827217Y-74425532D01*
X95827212Y-74425528D01*
X95731615Y-74356073D01*
X95688949Y-74300743D01*
X95680500Y-74255755D01*
X95680500Y-73429244D01*
X95700185Y-73362205D01*
X95731615Y-73328926D01*
X95827215Y-73259469D01*
X95827215Y-73259468D01*
X95827219Y-73259466D01*
X95971966Y-73114719D01*
X96092287Y-72949110D01*
X96185220Y-72766719D01*
X96248477Y-72572034D01*
X96280500Y-72369852D01*
X96280500Y-72165148D01*
X96271798Y-72110204D01*
X96248477Y-71962965D01*
X96200665Y-71815816D01*
X96185220Y-71768281D01*
X96185218Y-71768278D01*
X96185218Y-71768276D01*
X96119073Y-71638461D01*
X96092287Y-71585890D01*
X96074585Y-71561525D01*
X95971971Y-71420286D01*
X95827217Y-71275532D01*
X95827212Y-71275528D01*
X95731615Y-71206073D01*
X95688949Y-71150743D01*
X95680500Y-71105755D01*
X95680500Y-70279244D01*
X95700185Y-70212205D01*
X95731615Y-70178926D01*
X95827215Y-70109469D01*
X95827215Y-70109468D01*
X95827219Y-70109466D01*
X95971966Y-69964719D01*
X96041425Y-69869115D01*
X96096755Y-69826449D01*
X96141744Y-69818000D01*
X97449126Y-69818000D01*
X97516165Y-69837685D01*
X97561920Y-69890489D01*
X97571864Y-69959647D01*
X97549444Y-70014886D01*
X97510441Y-70068567D01*
X97420257Y-70245562D01*
X97358875Y-70434476D01*
X97358875Y-70434479D01*
X97327800Y-70630678D01*
X97327800Y-70829321D01*
X97358875Y-71025520D01*
X97358875Y-71025523D01*
X97420257Y-71214437D01*
X97510441Y-71391432D01*
X97537530Y-71428715D01*
X98100304Y-70865940D01*
X98116419Y-70926081D01*
X98183298Y-71041920D01*
X98277880Y-71136502D01*
X98393719Y-71203381D01*
X98453857Y-71219494D01*
X97891083Y-71782268D01*
X97891083Y-71782269D01*
X97928367Y-71809358D01*
X98085131Y-71889234D01*
X98135927Y-71937209D01*
X98152722Y-72005030D01*
X98130184Y-72071165D01*
X98085131Y-72110204D01*
X97928105Y-72190213D01*
X97767333Y-72307021D01*
X97626821Y-72447533D01*
X97510013Y-72608305D01*
X97419794Y-72785367D01*
X97419793Y-72785370D01*
X97358387Y-72974362D01*
X97327300Y-73170639D01*
X97327300Y-73369360D01*
X97358387Y-73565637D01*
X97419793Y-73754629D01*
X97419794Y-73754632D01*
X97453611Y-73821000D01*
X97510013Y-73931694D01*
X97626819Y-74092464D01*
X97767336Y-74232981D01*
X97767339Y-74232983D01*
X97891487Y-74323182D01*
X97934153Y-74378512D01*
X97940132Y-74448125D01*
X97907526Y-74509920D01*
X97846688Y-74544277D01*
X97818605Y-74547500D01*
X97779931Y-74547500D01*
X97779923Y-74547501D01*
X97720316Y-74553908D01*
X97585471Y-74604202D01*
X97585464Y-74604206D01*
X97470255Y-74690452D01*
X97470252Y-74690455D01*
X97384006Y-74805664D01*
X97384002Y-74805671D01*
X97333708Y-74940517D01*
X97327301Y-75000116D01*
X97327301Y-75000123D01*
X97327300Y-75000135D01*
X97327300Y-76619870D01*
X97327301Y-76619876D01*
X97333708Y-76679483D01*
X97384002Y-76814328D01*
X97384006Y-76814335D01*
X97470252Y-76929544D01*
X97470255Y-76929547D01*
X97585464Y-77015793D01*
X97585471Y-77015797D01*
X97720317Y-77066091D01*
X97720316Y-77066091D01*
X97727244Y-77066835D01*
X97779927Y-77072500D01*
X99399672Y-77072499D01*
X99459283Y-77066091D01*
X99594131Y-77015796D01*
X99709346Y-76929546D01*
X99795596Y-76814331D01*
X99845891Y-76679483D01*
X99852300Y-76619873D01*
X99852299Y-75000128D01*
X99845891Y-74940517D01*
X99830033Y-74898000D01*
X99795597Y-74805671D01*
X99795593Y-74805664D01*
X99709347Y-74690455D01*
X99709344Y-74690452D01*
X99594135Y-74604206D01*
X99594128Y-74604202D01*
X99459282Y-74553908D01*
X99459283Y-74553908D01*
X99399683Y-74547501D01*
X99399681Y-74547500D01*
X99399673Y-74547500D01*
X99399665Y-74547500D01*
X99360998Y-74547500D01*
X99293959Y-74527815D01*
X99248204Y-74475011D01*
X99238260Y-74405853D01*
X99267285Y-74342297D01*
X99288113Y-74323182D01*
X99356988Y-74273141D01*
X99412264Y-74232981D01*
X99552781Y-74092464D01*
X99669587Y-73931694D01*
X99759805Y-73754632D01*
X99821213Y-73565636D01*
X99852300Y-73369361D01*
X99852300Y-73170639D01*
X99821213Y-72974364D01*
X99759805Y-72785368D01*
X99759805Y-72785367D01*
X99669586Y-72608305D01*
X99643234Y-72572034D01*
X99552781Y-72447536D01*
X99412264Y-72307019D01*
X99251494Y-72190213D01*
X99094467Y-72110203D01*
X99043672Y-72062229D01*
X99026877Y-71994408D01*
X99049414Y-71928273D01*
X99094469Y-71889234D01*
X99251222Y-71809364D01*
X99288516Y-71782268D01*
X98725742Y-71219494D01*
X98785881Y-71203381D01*
X98901720Y-71136502D01*
X98996302Y-71041920D01*
X99063181Y-70926081D01*
X99079295Y-70865942D01*
X99642068Y-71428715D01*
X99669162Y-71391425D01*
X99759342Y-71214437D01*
X99820724Y-71025523D01*
X99820724Y-71025520D01*
X99851800Y-70829321D01*
X99851800Y-70630678D01*
X99820724Y-70434479D01*
X99820724Y-70434476D01*
X99759342Y-70245562D01*
X99669158Y-70068567D01*
X99642068Y-70031283D01*
X99079294Y-70594057D01*
X99063181Y-70533919D01*
X98996302Y-70418080D01*
X98901720Y-70323498D01*
X98785881Y-70256619D01*
X98725740Y-70240504D01*
X99288515Y-69677730D01*
X99251232Y-69650641D01*
X99094468Y-69570765D01*
X99043672Y-69522790D01*
X99026877Y-69454969D01*
X99049415Y-69388834D01*
X99094467Y-69349796D01*
X99251494Y-69269787D01*
X99412264Y-69152981D01*
X99552781Y-69012464D01*
X99669587Y-68851694D01*
X99759805Y-68674632D01*
X99821213Y-68485636D01*
X99852300Y-68289361D01*
X99852300Y-68090639D01*
X99821213Y-67894364D01*
X99779667Y-67766498D01*
X99759806Y-67705370D01*
X99759805Y-67705367D01*
X99669586Y-67528305D01*
X99641120Y-67489125D01*
X99552781Y-67367536D01*
X99412264Y-67227019D01*
X99251494Y-67110213D01*
X99074432Y-67019994D01*
X99074429Y-67019993D01*
X98885437Y-66958587D01*
X98708771Y-66930606D01*
X98689161Y-66927500D01*
X98490439Y-66927500D01*
X98470829Y-66930606D01*
X98294162Y-66958587D01*
X98105170Y-67019993D01*
X98105167Y-67019994D01*
X97928105Y-67110213D01*
X97767333Y-67227021D01*
X97626821Y-67367533D01*
X97510013Y-67528305D01*
X97419794Y-67705367D01*
X97419793Y-67705370D01*
X97358387Y-67894362D01*
X97327300Y-68090639D01*
X97327300Y-68293000D01*
X97307615Y-68360039D01*
X97254811Y-68405794D01*
X97203300Y-68417000D01*
X96141744Y-68417000D01*
X96074705Y-68397315D01*
X96041425Y-68365884D01*
X96040419Y-68364500D01*
X96002995Y-68312989D01*
X95971969Y-68270284D01*
X95827213Y-68125528D01*
X95661613Y-68005215D01*
X95661612Y-68005214D01*
X95661610Y-68005213D01*
X95604653Y-67976191D01*
X95479223Y-67912281D01*
X95284534Y-67849022D01*
X95109995Y-67821378D01*
X95082352Y-67817000D01*
X94877648Y-67817000D01*
X94853329Y-67820851D01*
X94675465Y-67849022D01*
X94480776Y-67912281D01*
X94298386Y-68005215D01*
X94132786Y-68125528D01*
X93988030Y-68270284D01*
X93918575Y-68365884D01*
X93863245Y-68408551D01*
X93818256Y-68417000D01*
X89831005Y-68417000D01*
X89695677Y-68443918D01*
X89695667Y-68443921D01*
X89568195Y-68496721D01*
X89568182Y-68496728D01*
X89453458Y-68573385D01*
X89453454Y-68573388D01*
X89355888Y-68670954D01*
X89355885Y-68670958D01*
X89279228Y-68785682D01*
X89279221Y-68785695D01*
X89226421Y-68913167D01*
X89226418Y-68913177D01*
X89199500Y-69048504D01*
X89199500Y-74593000D01*
X89179815Y-74660039D01*
X89127011Y-74705794D01*
X89075500Y-74717000D01*
X86718569Y-74717000D01*
X86651530Y-74697315D01*
X86630888Y-74680681D01*
X85504872Y-73554665D01*
X85471387Y-73493342D01*
X85476371Y-73423650D01*
X85518243Y-73367717D01*
X85519537Y-73366762D01*
X85667219Y-73259466D01*
X85811966Y-73114719D01*
X85811968Y-73114715D01*
X85811971Y-73114713D01*
X85864732Y-73042090D01*
X85932287Y-72949110D01*
X86025220Y-72766719D01*
X86088477Y-72572034D01*
X86120500Y-72369852D01*
X86120500Y-72165148D01*
X86111798Y-72110204D01*
X86088477Y-71962965D01*
X86040665Y-71815816D01*
X86025220Y-71768281D01*
X86025218Y-71768278D01*
X86025218Y-71768276D01*
X85932287Y-71585890D01*
X85930200Y-71582485D01*
X85911953Y-71515040D01*
X85933067Y-71448436D01*
X85985141Y-71404567D01*
X85994214Y-71400493D01*
X86044285Y-71387077D01*
X86109370Y-71349500D01*
X86181216Y-71308020D01*
X86293020Y-71196216D01*
X86293020Y-71196214D01*
X86303224Y-71186011D01*
X86303227Y-71186006D01*
X87014665Y-70474570D01*
X87075984Y-70441088D01*
X87078151Y-70440637D01*
X87078840Y-70440500D01*
X87078842Y-70440500D01*
X87233497Y-70409737D01*
X87379179Y-70349394D01*
X87510289Y-70261789D01*
X87621789Y-70150289D01*
X87709394Y-70019179D01*
X87769737Y-69873497D01*
X87800500Y-69718842D01*
X87800500Y-69561158D01*
X87800500Y-69561155D01*
X87800499Y-69561153D01*
X87792868Y-69522790D01*
X87769737Y-69406503D01*
X87746248Y-69349795D01*
X87709397Y-69260827D01*
X87709390Y-69260814D01*
X87621789Y-69129711D01*
X87621786Y-69129707D01*
X87510292Y-69018213D01*
X87510288Y-69018210D01*
X87379185Y-68930609D01*
X87379172Y-68930602D01*
X87233501Y-68870264D01*
X87233489Y-68870261D01*
X87078845Y-68839500D01*
X87078842Y-68839500D01*
X86921158Y-68839500D01*
X86921155Y-68839500D01*
X86766510Y-68870261D01*
X86766498Y-68870264D01*
X86620827Y-68930602D01*
X86620814Y-68930609D01*
X86489711Y-69018210D01*
X86489707Y-69018213D01*
X86378213Y-69129707D01*
X86347602Y-69175520D01*
X86293989Y-69220324D01*
X86224664Y-69229031D01*
X86161637Y-69198876D01*
X86124918Y-69139432D01*
X86120500Y-69106628D01*
X86120500Y-69015148D01*
X86088477Y-68812965D01*
X86054823Y-68709390D01*
X86025220Y-68618281D01*
X86025218Y-68618278D01*
X86025218Y-68618276D01*
X85991503Y-68552107D01*
X85932287Y-68435890D01*
X85913286Y-68409737D01*
X85811971Y-68270286D01*
X85667213Y-68125528D01*
X85501613Y-68005215D01*
X85501612Y-68005214D01*
X85501610Y-68005213D01*
X85444653Y-67976191D01*
X85319223Y-67912281D01*
X85124534Y-67849022D01*
X84949995Y-67821378D01*
X84922352Y-67817000D01*
X84717648Y-67817000D01*
X84693329Y-67820851D01*
X84515465Y-67849022D01*
X84320776Y-67912281D01*
X84138386Y-68005215D01*
X83972786Y-68125528D01*
X83828028Y-68270286D01*
X83707715Y-68435886D01*
X83614781Y-68618276D01*
X83555573Y-68800500D01*
X83551523Y-68812966D01*
X83535653Y-68913167D01*
X83534349Y-68921398D01*
X83519752Y-68952189D01*
X83505589Y-68983203D01*
X83504814Y-68983700D01*
X83504420Y-68984533D01*
X83475481Y-69002551D01*
X83446811Y-69020977D01*
X83445613Y-69021149D01*
X83445108Y-69021464D01*
X83411876Y-69026000D01*
X83259500Y-69026000D01*
X83192461Y-69006315D01*
X83146706Y-68953511D01*
X83135500Y-68902000D01*
X83135499Y-67339629D01*
X83135498Y-67339623D01*
X83129091Y-67280016D01*
X83078797Y-67145171D01*
X83078793Y-67145164D01*
X82992547Y-67029956D01*
X82992548Y-67029956D01*
X82992546Y-67029954D01*
X82903971Y-66963647D01*
X82862102Y-66907715D01*
X82857118Y-66838023D01*
X82890601Y-66776703D01*
X83370123Y-66297181D01*
X83431444Y-66263698D01*
X83501136Y-66268682D01*
X83557069Y-66310554D01*
X83575733Y-66346545D01*
X83614781Y-66466723D01*
X83662899Y-66561158D01*
X83698630Y-66631284D01*
X83707715Y-66649113D01*
X83828028Y-66814713D01*
X83972786Y-66959471D01*
X84127749Y-67072056D01*
X84138390Y-67079787D01*
X84254607Y-67139003D01*
X84320776Y-67172718D01*
X84320778Y-67172718D01*
X84320781Y-67172720D01*
X84425137Y-67206627D01*
X84515465Y-67235977D01*
X84616557Y-67251988D01*
X84717648Y-67268000D01*
X84717649Y-67268000D01*
X84922351Y-67268000D01*
X84922352Y-67268000D01*
X85124534Y-67235977D01*
X85319219Y-67172720D01*
X85501610Y-67079787D01*
X85661462Y-66963649D01*
X85667213Y-66959471D01*
X85667215Y-66959468D01*
X85667219Y-66959466D01*
X85811966Y-66814719D01*
X85811968Y-66814715D01*
X85811971Y-66814713D01*
X85888491Y-66709390D01*
X85932287Y-66649110D01*
X86025220Y-66466719D01*
X86088477Y-66272034D01*
X86120500Y-66069852D01*
X86120500Y-65865148D01*
X86097114Y-65717500D01*
X93703391Y-65717500D01*
X94664314Y-65717500D01*
X94659920Y-65721894D01*
X94607259Y-65813106D01*
X94580000Y-65914839D01*
X94580000Y-66020161D01*
X94607259Y-66121894D01*
X94659920Y-66213106D01*
X94664314Y-66217500D01*
X93703391Y-66217500D01*
X93712009Y-66271913D01*
X93775244Y-66466529D01*
X93868140Y-66648849D01*
X93988417Y-66814394D01*
X93988417Y-66814395D01*
X94133104Y-66959082D01*
X94298650Y-67079359D01*
X94480968Y-67172254D01*
X94675578Y-67235488D01*
X94730000Y-67244107D01*
X94730000Y-66283186D01*
X94734394Y-66287580D01*
X94825606Y-66340241D01*
X94927339Y-66367500D01*
X95032661Y-66367500D01*
X95134394Y-66340241D01*
X95225606Y-66287580D01*
X95230000Y-66283186D01*
X95230000Y-67244106D01*
X95284421Y-67235488D01*
X95479031Y-67172254D01*
X95661349Y-67079359D01*
X95826894Y-66959082D01*
X95826895Y-66959082D01*
X95971582Y-66814395D01*
X95971582Y-66814394D01*
X96091859Y-66648849D01*
X96184755Y-66466529D01*
X96247990Y-66271913D01*
X96256609Y-66217500D01*
X95295686Y-66217500D01*
X95300080Y-66213106D01*
X95352741Y-66121894D01*
X95380000Y-66020161D01*
X95380000Y-65914839D01*
X95352741Y-65813106D01*
X95300080Y-65721894D01*
X95295686Y-65717500D01*
X96256609Y-65717500D01*
X96247990Y-65663086D01*
X96184755Y-65468470D01*
X96091859Y-65286150D01*
X95971582Y-65120605D01*
X95971582Y-65120604D01*
X95826895Y-64975917D01*
X95661349Y-64855640D01*
X95479029Y-64762744D01*
X95284413Y-64699509D01*
X95230000Y-64690890D01*
X95230000Y-65651814D01*
X95225606Y-65647420D01*
X95134394Y-65594759D01*
X95032661Y-65567500D01*
X94927339Y-65567500D01*
X94825606Y-65594759D01*
X94734394Y-65647420D01*
X94730000Y-65651814D01*
X94730000Y-64690890D01*
X94675586Y-64699509D01*
X94480970Y-64762744D01*
X94298650Y-64855640D01*
X94133105Y-64975917D01*
X94133104Y-64975917D01*
X93988417Y-65120604D01*
X93988417Y-65120605D01*
X93868140Y-65286150D01*
X93775244Y-65468470D01*
X93712009Y-65663086D01*
X93703391Y-65717500D01*
X86097114Y-65717500D01*
X86088477Y-65662966D01*
X86025220Y-65468281D01*
X86001025Y-65420795D01*
X85988129Y-65352125D01*
X86014406Y-65287385D01*
X86071512Y-65247128D01*
X86111510Y-65240500D01*
X91079055Y-65240500D01*
X91079057Y-65240500D01*
X91231784Y-65199577D01*
X91368716Y-65120520D01*
X91480520Y-65008716D01*
X91559577Y-64871784D01*
X91600500Y-64719057D01*
X91600500Y-64078097D01*
X91620185Y-64011058D01*
X91636819Y-63990416D01*
X92684479Y-62942756D01*
X93219304Y-62407931D01*
X93755839Y-61871395D01*
X93817160Y-61837912D01*
X93886852Y-61842896D01*
X93942785Y-61884768D01*
X93967202Y-61950232D01*
X93952350Y-62018505D01*
X93943836Y-62031963D01*
X93868142Y-62136147D01*
X93775244Y-62318470D01*
X93712009Y-62513086D01*
X93703391Y-62567500D01*
X94664314Y-62567500D01*
X94659920Y-62571894D01*
X94607259Y-62663106D01*
X94580000Y-62764839D01*
X94580000Y-62870161D01*
X94607259Y-62971894D01*
X94659920Y-63063106D01*
X94664314Y-63067500D01*
X93703391Y-63067500D01*
X93712009Y-63121913D01*
X93775244Y-63316529D01*
X93868140Y-63498849D01*
X93988417Y-63664394D01*
X93988417Y-63664395D01*
X94133104Y-63809082D01*
X94298650Y-63929359D01*
X94480968Y-64022254D01*
X94675578Y-64085488D01*
X94730000Y-64094107D01*
X94730000Y-63133186D01*
X94734394Y-63137580D01*
X94825606Y-63190241D01*
X94927339Y-63217500D01*
X95032661Y-63217500D01*
X95134394Y-63190241D01*
X95225606Y-63137580D01*
X95230000Y-63133186D01*
X95230000Y-64094106D01*
X95284421Y-64085488D01*
X95479031Y-64022254D01*
X95661349Y-63929359D01*
X95826894Y-63809082D01*
X95826895Y-63809082D01*
X95971582Y-63664395D01*
X95971582Y-63664394D01*
X96091859Y-63498849D01*
X96184755Y-63316529D01*
X96247990Y-63121913D01*
X96256609Y-63067500D01*
X95295686Y-63067500D01*
X95300080Y-63063106D01*
X95352741Y-62971894D01*
X95380000Y-62870161D01*
X95380000Y-62764839D01*
X95352741Y-62663106D01*
X95300080Y-62571894D01*
X95295686Y-62567500D01*
X96256609Y-62567500D01*
X96247990Y-62513086D01*
X96184755Y-62318470D01*
X96091859Y-62136150D01*
X95971582Y-61970605D01*
X95971582Y-61970604D01*
X95826895Y-61825917D01*
X95661349Y-61705640D01*
X95606563Y-61677725D01*
X95586110Y-61658408D01*
X95563593Y-61641553D01*
X95561052Y-61634741D01*
X95555767Y-61629750D01*
X95549005Y-61602447D01*
X95539174Y-61576090D01*
X95540719Y-61568985D01*
X95538972Y-61561929D01*
X95548044Y-61535306D01*
X95554024Y-61507816D01*
X95560245Y-61499505D01*
X95561510Y-61495794D01*
X95575168Y-61479567D01*
X95618520Y-61436216D01*
X95618521Y-61436213D01*
X98725978Y-58328755D01*
X98787299Y-58295272D01*
X98851973Y-58298506D01*
X98894257Y-58312246D01*
X99104213Y-58345500D01*
X99104214Y-58345500D01*
X99316786Y-58345500D01*
X99316787Y-58345500D01*
X99526743Y-58312246D01*
X99728912Y-58246557D01*
X99918316Y-58150051D01*
X99946317Y-58129707D01*
X100090286Y-58025109D01*
X100090288Y-58025106D01*
X100090292Y-58025104D01*
X100240604Y-57874792D01*
X100240604Y-57874791D01*
X100240608Y-57874788D01*
X100240609Y-57874786D01*
X100365548Y-57702820D01*
X100365547Y-57702820D01*
X100365551Y-57702816D01*
X100370014Y-57694054D01*
X100417988Y-57643259D01*
X100485808Y-57626463D01*
X100551944Y-57648999D01*
X100590986Y-57694056D01*
X100595451Y-57702820D01*
X100720390Y-57874786D01*
X100870713Y-58025109D01*
X101042679Y-58150048D01*
X101042681Y-58150049D01*
X101042684Y-58150051D01*
X101232088Y-58246557D01*
X101434257Y-58312246D01*
X101644213Y-58345500D01*
X101644214Y-58345500D01*
X101856786Y-58345500D01*
X101856787Y-58345500D01*
X102066743Y-58312246D01*
X102268912Y-58246557D01*
X102458316Y-58150051D01*
X102486317Y-58129707D01*
X102630286Y-58025109D01*
X102630288Y-58025106D01*
X102630292Y-58025104D01*
X102780604Y-57874792D01*
X102780604Y-57874791D01*
X102780608Y-57874788D01*
X102780609Y-57874786D01*
X102905548Y-57702820D01*
X102905547Y-57702820D01*
X102905551Y-57702816D01*
X103002057Y-57513412D01*
X103067746Y-57311243D01*
X103101000Y-57101287D01*
X103101000Y-56888713D01*
X103067746Y-56678757D01*
X103002057Y-56476588D01*
X102905551Y-56287184D01*
X102905549Y-56287181D01*
X102905548Y-56287179D01*
X102780609Y-56115213D01*
X102630286Y-55964890D01*
X102458320Y-55839951D01*
X102457615Y-55839591D01*
X102449554Y-55835485D01*
X102398759Y-55787512D01*
X102381963Y-55719692D01*
X102404499Y-55653556D01*
X102449554Y-55614515D01*
X102458316Y-55610051D01*
X102507939Y-55573998D01*
X102630286Y-55485109D01*
X102630288Y-55485106D01*
X102630292Y-55485104D01*
X102780604Y-55334792D01*
X102780606Y-55334788D01*
X102780609Y-55334786D01*
X102905548Y-55162820D01*
X102905547Y-55162820D01*
X102905551Y-55162816D01*
X103002057Y-54973412D01*
X103067746Y-54771243D01*
X103101000Y-54561287D01*
X103101000Y-54348713D01*
X103067746Y-54138757D01*
X103002057Y-53936588D01*
X102905551Y-53747184D01*
X102905549Y-53747181D01*
X102905548Y-53747179D01*
X102780609Y-53575213D01*
X102630286Y-53424890D01*
X102458320Y-53299951D01*
X102455266Y-53298395D01*
X102449554Y-53295485D01*
X102398759Y-53247512D01*
X102381963Y-53179692D01*
X102404499Y-53113556D01*
X102449554Y-53074515D01*
X102458316Y-53070051D01*
X102489465Y-53047420D01*
X102630286Y-52945109D01*
X102630288Y-52945106D01*
X102630292Y-52945104D01*
X102780604Y-52794792D01*
X102780606Y-52794788D01*
X102780609Y-52794786D01*
X102905548Y-52622820D01*
X102905547Y-52622820D01*
X102905551Y-52622816D01*
X103002057Y-52433412D01*
X103067746Y-52231243D01*
X103101000Y-52021287D01*
X103101000Y-51808713D01*
X103067746Y-51598757D01*
X103002057Y-51396588D01*
X102905551Y-51207184D01*
X102905549Y-51207181D01*
X102905548Y-51207179D01*
X102780609Y-51035213D01*
X102630286Y-50884890D01*
X102458320Y-50759951D01*
X102457615Y-50759591D01*
X102449554Y-50755485D01*
X102398759Y-50707512D01*
X102381963Y-50639692D01*
X102404499Y-50573556D01*
X102449554Y-50534515D01*
X102458316Y-50530051D01*
X102544971Y-50467093D01*
X102630286Y-50405109D01*
X102630288Y-50405106D01*
X102630292Y-50405104D01*
X102780604Y-50254792D01*
X102780606Y-50254788D01*
X102780609Y-50254786D01*
X102905548Y-50082820D01*
X102905547Y-50082820D01*
X102905551Y-50082816D01*
X103002057Y-49893412D01*
X103067746Y-49691243D01*
X103101000Y-49481287D01*
X103101000Y-49268713D01*
X103067746Y-49058757D01*
X103002057Y-48856588D01*
X102905551Y-48667184D01*
X102905549Y-48667181D01*
X102905548Y-48667179D01*
X102780609Y-48495213D01*
X102630286Y-48344890D01*
X102502115Y-48251770D01*
X102459449Y-48196441D01*
X102451000Y-48151452D01*
X102451000Y-32681504D01*
X102424081Y-32546177D01*
X102424080Y-32546176D01*
X102424080Y-32546172D01*
X102424078Y-32546167D01*
X102371278Y-32418695D01*
X102371274Y-32418688D01*
X102341936Y-32374780D01*
X102294614Y-32303957D01*
X102294612Y-32303954D01*
X96341545Y-26350887D01*
X96226807Y-26274222D01*
X96099332Y-26221421D01*
X96099322Y-26221418D01*
X95963996Y-26194500D01*
X95963994Y-26194500D01*
X95963993Y-26194500D01*
X61813994Y-26194500D01*
X61676006Y-26194500D01*
X61676004Y-26194500D01*
X61540677Y-26221418D01*
X61540667Y-26221421D01*
X61413192Y-26274222D01*
X61298454Y-26350887D01*
X61298453Y-26350888D01*
X60386162Y-27263181D01*
X60324839Y-27296666D01*
X60298481Y-27299500D01*
X47043082Y-27299500D01*
X46976043Y-27279815D01*
X46942765Y-27248386D01*
X46918745Y-27215327D01*
X46918741Y-27215321D01*
X46784679Y-27081259D01*
X46631296Y-26969819D01*
X46462372Y-26883747D01*
X46403905Y-26864750D01*
X46282055Y-26825158D01*
X46282051Y-26825157D01*
X46282050Y-26825157D01*
X46094800Y-26795500D01*
X46094796Y-26795500D01*
X45905204Y-26795500D01*
X45905200Y-26795500D01*
X45717949Y-26825157D01*
X45717946Y-26825157D01*
X45717945Y-26825158D01*
X45659482Y-26844153D01*
X45537627Y-26883747D01*
X45368703Y-26969819D01*
X45215319Y-27081260D01*
X45081260Y-27215319D01*
X44969819Y-27368703D01*
X44883747Y-27537627D01*
X44825157Y-27717949D01*
X44795500Y-27905199D01*
X44795500Y-28094800D01*
X44825157Y-28282050D01*
X44825158Y-28282055D01*
X44864750Y-28403905D01*
X44883747Y-28462372D01*
X44964458Y-28620775D01*
X44969819Y-28631296D01*
X45081259Y-28784679D01*
X45215321Y-28918741D01*
X45368704Y-29030181D01*
X45537632Y-29116254D01*
X45648669Y-29152332D01*
X45706342Y-29191768D01*
X45733541Y-29256127D01*
X45721626Y-29324973D01*
X45674382Y-29376449D01*
X45648668Y-29388193D01*
X45537820Y-29424210D01*
X45368969Y-29510245D01*
X45342806Y-29529253D01*
X45911415Y-30097861D01*
X45826306Y-30120667D01*
X45723694Y-30179910D01*
X45639910Y-30263694D01*
X45580667Y-30366306D01*
X45557861Y-30451414D01*
X44989253Y-29882806D01*
X44970245Y-29908969D01*
X44884210Y-30077821D01*
X44825645Y-30258062D01*
X44796000Y-30445237D01*
X44796000Y-30634762D01*
X44825645Y-30821937D01*
X44884210Y-31002178D01*
X44970246Y-31171033D01*
X44989253Y-31197192D01*
X44989253Y-31197193D01*
X45557861Y-30628584D01*
X45580667Y-30713694D01*
X45639910Y-30816306D01*
X45723694Y-30900090D01*
X45826306Y-30959333D01*
X45911414Y-30982137D01*
X45342806Y-31550745D01*
X45342806Y-31550746D01*
X45368966Y-31569752D01*
X45537821Y-31655789D01*
X45648667Y-31691806D01*
X45706343Y-31731244D01*
X45733541Y-31795602D01*
X45721626Y-31864449D01*
X45674382Y-31915924D01*
X45648669Y-31927667D01*
X45617091Y-31937927D01*
X45537627Y-31963747D01*
X45368703Y-32049819D01*
X45215319Y-32161260D01*
X45081260Y-32295319D01*
X44969819Y-32448703D01*
X44883747Y-32617627D01*
X44825157Y-32797949D01*
X44795500Y-32985199D01*
X44795500Y-33174800D01*
X44811444Y-33275465D01*
X44825158Y-33362055D01*
X44862717Y-33477648D01*
X44883747Y-33542372D01*
X44955071Y-33682351D01*
X44969819Y-33711296D01*
X45081259Y-33864679D01*
X45215321Y-33998741D01*
X45368704Y-34110181D01*
X45422770Y-34137729D01*
X45537627Y-34196252D01*
X45537629Y-34196252D01*
X45537632Y-34196254D01*
X45647860Y-34232069D01*
X45705534Y-34271507D01*
X45732732Y-34335866D01*
X45720817Y-34404712D01*
X45673573Y-34456188D01*
X45647861Y-34467929D01*
X45605838Y-34481583D01*
X45537627Y-34503747D01*
X45368703Y-34589819D01*
X45215319Y-34701260D01*
X45081260Y-34835319D01*
X44969819Y-34988703D01*
X44883747Y-35157627D01*
X44825157Y-35337949D01*
X44795500Y-35525199D01*
X44795500Y-35714800D01*
X44817139Y-35851425D01*
X44825158Y-35902055D01*
X44863107Y-36018848D01*
X44883747Y-36082372D01*
X44965219Y-36242268D01*
X44969819Y-36251296D01*
X45081259Y-36404679D01*
X45215321Y-36538741D01*
X45368704Y-36650181D01*
X45448515Y-36690846D01*
X45537627Y-36736252D01*
X45537629Y-36736252D01*
X45537632Y-36736254D01*
X45647860Y-36772069D01*
X45705534Y-36811507D01*
X45732732Y-36875866D01*
X45720817Y-36944712D01*
X45673573Y-36996188D01*
X45647861Y-37007929D01*
X45605838Y-37021583D01*
X45537627Y-37043747D01*
X45368703Y-37129819D01*
X45215319Y-37241260D01*
X45081260Y-37375319D01*
X44969819Y-37528703D01*
X44883747Y-37697627D01*
X44873534Y-37729060D01*
X44827458Y-37870868D01*
X44825157Y-37877949D01*
X44795500Y-38065199D01*
X44795500Y-38254800D01*
X44825157Y-38442050D01*
X44825158Y-38442055D01*
X44833495Y-38467713D01*
X44883747Y-38622372D01*
X44969819Y-38791296D01*
X45081259Y-38944679D01*
X45215321Y-39078741D01*
X45368704Y-39190181D01*
X45448515Y-39230846D01*
X45537627Y-39276252D01*
X45537629Y-39276252D01*
X45537632Y-39276254D01*
X45647860Y-39312069D01*
X45705534Y-39351507D01*
X45732732Y-39415866D01*
X45720817Y-39484712D01*
X45673573Y-39536188D01*
X45647861Y-39547929D01*
X45607824Y-39560939D01*
X45537627Y-39583747D01*
X45368703Y-39669819D01*
X45215319Y-39781260D01*
X45081260Y-39915319D01*
X44969819Y-40068703D01*
X44883747Y-40237627D01*
X44851020Y-40338352D01*
X44828878Y-40406498D01*
X44825157Y-40417949D01*
X44795500Y-40605199D01*
X44795500Y-40794800D01*
X44822887Y-40967715D01*
X44825158Y-40982055D01*
X44848936Y-41055234D01*
X44883747Y-41162372D01*
X44958432Y-41308948D01*
X44969819Y-41331296D01*
X45081259Y-41484679D01*
X45215321Y-41618741D01*
X45368704Y-41730181D01*
X45439990Y-41766503D01*
X45537627Y-41816252D01*
X45537629Y-41816252D01*
X45537632Y-41816254D01*
X45647860Y-41852069D01*
X45705534Y-41891507D01*
X45732732Y-41955866D01*
X45720817Y-42024712D01*
X45673573Y-42076188D01*
X45647861Y-42087929D01*
X45605838Y-42101583D01*
X45537627Y-42123747D01*
X45368703Y-42209819D01*
X45215319Y-42321260D01*
X45081260Y-42455319D01*
X44969819Y-42608703D01*
X44883747Y-42777627D01*
X44825157Y-42957949D01*
X44795500Y-43145199D01*
X44795500Y-43334800D01*
X44825157Y-43522050D01*
X44825158Y-43522055D01*
X44856945Y-43619883D01*
X44883747Y-43702372D01*
X44955821Y-43843823D01*
X44969819Y-43871296D01*
X45081259Y-44024679D01*
X45215321Y-44158741D01*
X45368704Y-44270181D01*
X45448515Y-44310846D01*
X45537627Y-44356252D01*
X45537629Y-44356252D01*
X45537632Y-44356254D01*
X45647860Y-44392069D01*
X45705534Y-44431507D01*
X45732732Y-44495866D01*
X45720817Y-44564712D01*
X45673573Y-44616188D01*
X45647861Y-44627929D01*
X45605838Y-44641583D01*
X45537627Y-44663747D01*
X45368703Y-44749819D01*
X45215319Y-44861260D01*
X45081260Y-44995319D01*
X44969819Y-45148703D01*
X44883747Y-45317627D01*
X44825157Y-45497949D01*
X44795500Y-45685199D01*
X44795500Y-45874800D01*
X44825157Y-46062050D01*
X44825158Y-46062055D01*
X44856813Y-46159478D01*
X44883747Y-46242372D01*
X44898479Y-46271284D01*
X44969819Y-46411296D01*
X45081259Y-46564679D01*
X45215321Y-46698741D01*
X45368704Y-46810181D01*
X45426246Y-46839500D01*
X45537627Y-46896252D01*
X45537629Y-46896252D01*
X45537632Y-46896254D01*
X45647860Y-46932069D01*
X45705534Y-46971507D01*
X45732732Y-47035866D01*
X45720817Y-47104712D01*
X45673573Y-47156188D01*
X45647861Y-47167929D01*
X45605838Y-47181583D01*
X45537627Y-47203747D01*
X45368703Y-47289819D01*
X45215319Y-47401260D01*
X45081260Y-47535319D01*
X44969819Y-47688703D01*
X44883747Y-47857627D01*
X44863105Y-47921158D01*
X44827285Y-48031401D01*
X44825157Y-48037949D01*
X44795500Y-48225199D01*
X44795500Y-48414800D01*
X44824912Y-48600500D01*
X44825158Y-48602055D01*
X44846320Y-48667184D01*
X44883747Y-48782372D01*
X44925038Y-48863409D01*
X44969819Y-48951296D01*
X45081259Y-49104679D01*
X45215321Y-49238741D01*
X45348387Y-49335420D01*
X45391051Y-49390748D01*
X45399500Y-49435736D01*
X45399500Y-49744263D01*
X45379815Y-49811302D01*
X45348386Y-49844581D01*
X45215319Y-49941260D01*
X45081260Y-50075319D01*
X44969819Y-50228703D01*
X44883747Y-50397627D01*
X44825157Y-50577949D01*
X44795500Y-50765199D01*
X44795500Y-50954800D01*
X44821656Y-51119943D01*
X44825158Y-51142055D01*
X44847063Y-51209471D01*
X44883747Y-51322372D01*
X44950484Y-51453349D01*
X44969819Y-51491296D01*
X45081259Y-51644679D01*
X45215321Y-51778741D01*
X45348387Y-51875420D01*
X45391051Y-51930748D01*
X45399500Y-51975736D01*
X45399500Y-52284263D01*
X45379815Y-52351302D01*
X45348386Y-52384581D01*
X45215319Y-52481260D01*
X45081260Y-52615319D01*
X44969819Y-52768703D01*
X44883747Y-52937627D01*
X44874041Y-52967500D01*
X44826621Y-53113444D01*
X44825157Y-53117949D01*
X44795500Y-53305199D01*
X44795500Y-53494800D01*
X44823571Y-53672034D01*
X44825158Y-53682055D01*
X44852921Y-53767500D01*
X44883747Y-53862372D01*
X44923211Y-53939823D01*
X44969819Y-54031296D01*
X45081259Y-54184679D01*
X45215321Y-54318741D01*
X45368704Y-54430181D01*
X45448515Y-54470846D01*
X45537627Y-54516252D01*
X45537629Y-54516252D01*
X45537632Y-54516254D01*
X45647860Y-54552069D01*
X45705534Y-54591507D01*
X45732732Y-54655866D01*
X45720817Y-54724712D01*
X45673573Y-54776188D01*
X45647861Y-54787929D01*
X45622055Y-54796315D01*
X45537627Y-54823747D01*
X45368703Y-54909819D01*
X45215319Y-55021260D01*
X45081260Y-55155319D01*
X44969819Y-55308703D01*
X44883747Y-55477627D01*
X44825157Y-55657949D01*
X44795500Y-55845199D01*
X44795500Y-56034800D01*
X44823737Y-56213086D01*
X44825158Y-56222055D01*
X44849167Y-56295946D01*
X44883747Y-56402372D01*
X44963491Y-56558876D01*
X44969819Y-56571296D01*
X45081259Y-56724679D01*
X45215321Y-56858741D01*
X45368704Y-56970181D01*
X45448515Y-57010846D01*
X45537627Y-57056252D01*
X45537629Y-57056252D01*
X45537632Y-57056254D01*
X45647860Y-57092069D01*
X45705534Y-57131507D01*
X45732732Y-57195866D01*
X45720817Y-57264712D01*
X45673573Y-57316188D01*
X45647861Y-57327929D01*
X45605838Y-57341583D01*
X45537627Y-57363747D01*
X45368703Y-57449819D01*
X45215319Y-57561260D01*
X45081260Y-57695319D01*
X44969819Y-57848703D01*
X44883747Y-58017627D01*
X44825157Y-58197949D01*
X44795500Y-58385199D01*
X44795500Y-58574800D01*
X44822117Y-58742853D01*
X44825158Y-58762055D01*
X44864750Y-58883905D01*
X44883747Y-58942372D01*
X44969819Y-59111296D01*
X45081259Y-59264679D01*
X45215321Y-59398741D01*
X45368704Y-59510181D01*
X45430171Y-59541500D01*
X45537627Y-59596252D01*
X45537629Y-59596252D01*
X45537632Y-59596254D01*
X45647860Y-59632069D01*
X45705534Y-59671507D01*
X45732732Y-59735866D01*
X45720817Y-59804712D01*
X45673573Y-59856188D01*
X45647861Y-59867929D01*
X45623803Y-59875747D01*
X45537627Y-59903747D01*
X45368703Y-59989819D01*
X45215319Y-60101260D01*
X45081260Y-60235319D01*
X44969819Y-60388703D01*
X44883747Y-60557627D01*
X44844153Y-60679482D01*
X44831365Y-60718844D01*
X44825157Y-60737949D01*
X44795500Y-60925199D01*
X44795500Y-61114800D01*
X44825157Y-61302050D01*
X44825158Y-61302055D01*
X44864750Y-61423905D01*
X44883747Y-61482372D01*
X44964855Y-61641553D01*
X44969819Y-61651296D01*
X45081259Y-61804679D01*
X45215321Y-61938741D01*
X45368704Y-62050181D01*
X45448515Y-62090846D01*
X45537627Y-62136252D01*
X45537629Y-62136252D01*
X45537632Y-62136254D01*
X45647860Y-62172069D01*
X45705534Y-62211507D01*
X45732732Y-62275866D01*
X45720817Y-62344712D01*
X45673573Y-62396188D01*
X45647861Y-62407929D01*
X45618408Y-62417500D01*
X45537627Y-62443747D01*
X45368703Y-62529819D01*
X45215319Y-62641260D01*
X45081260Y-62775319D01*
X44969819Y-62928703D01*
X44883747Y-63097627D01*
X44825157Y-63277949D01*
X44795500Y-63465199D01*
X44795500Y-63654800D01*
X44822903Y-63827819D01*
X44825158Y-63842055D01*
X44843288Y-63897853D01*
X44883747Y-64022372D01*
X44967502Y-64186748D01*
X44969819Y-64191296D01*
X45081259Y-64344679D01*
X45215321Y-64478741D01*
X45368704Y-64590181D01*
X45448515Y-64630846D01*
X45537627Y-64676252D01*
X45537629Y-64676252D01*
X45537632Y-64676254D01*
X45717945Y-64734842D01*
X45811574Y-64749671D01*
X45905200Y-64764500D01*
X45905204Y-64764500D01*
X46094800Y-64764500D01*
X46178022Y-64751318D01*
X46282055Y-64734842D01*
X46462368Y-64676254D01*
X46631296Y-64590181D01*
X46784679Y-64478741D01*
X46918741Y-64344679D01*
X47030181Y-64191296D01*
X47065015Y-64122929D01*
X47112989Y-64072134D01*
X47180810Y-64055339D01*
X47246945Y-64077876D01*
X47290397Y-64132591D01*
X47299500Y-64179225D01*
X47299500Y-70931006D01*
X47299500Y-70931007D01*
X47299500Y-74931006D01*
X47299500Y-75068994D01*
X47299500Y-75068996D01*
X47299499Y-75068996D01*
X47326418Y-75204322D01*
X47326421Y-75204332D01*
X47379222Y-75331807D01*
X47455887Y-75446545D01*
X47455888Y-75446546D01*
X47747162Y-75737819D01*
X47780647Y-75799142D01*
X47775663Y-75868833D01*
X47733792Y-75924767D01*
X47668327Y-75949184D01*
X47659482Y-75949500D01*
X47452130Y-75949500D01*
X47452123Y-75949501D01*
X47392516Y-75955908D01*
X47257671Y-76006202D01*
X47257664Y-76006206D01*
X47142455Y-76092452D01*
X47142452Y-76092455D01*
X47056206Y-76207664D01*
X47056202Y-76207671D01*
X47005908Y-76342517D01*
X46999501Y-76402116D01*
X46999500Y-76402127D01*
X46999500Y-77949999D01*
X46999501Y-79375500D01*
X46979816Y-79442539D01*
X46927012Y-79488294D01*
X46875501Y-79499500D01*
X44124000Y-79499500D01*
X44056961Y-79479815D01*
X44011206Y-79427011D01*
X44000000Y-79375500D01*
X44000000Y-20279568D01*
X74154500Y-20279568D01*
X74154500Y-20560431D01*
X74185942Y-20839494D01*
X74185945Y-20839512D01*
X74248439Y-21113317D01*
X74248443Y-21113329D01*
X74341200Y-21378411D01*
X74463053Y-21631442D01*
X74463055Y-21631445D01*
X74612477Y-21869248D01*
X74670775Y-21942351D01*
X74777284Y-22075910D01*
X74787584Y-22088825D01*
X74986175Y-22287416D01*
X75205752Y-22462523D01*
X75443555Y-22611945D01*
X75696592Y-22733801D01*
X75895680Y-22803465D01*
X75961670Y-22826556D01*
X75961682Y-22826560D01*
X76235491Y-22889055D01*
X76235497Y-22889055D01*
X76235505Y-22889057D01*
X76421547Y-22910018D01*
X76514569Y-22920499D01*
X76514572Y-22920500D01*
X76514575Y-22920500D01*
X76795428Y-22920500D01*
X76795429Y-22920499D01*
X76938055Y-22904429D01*
X77074494Y-22889057D01*
X77074499Y-22889056D01*
X77074509Y-22889055D01*
X77348318Y-22826560D01*
X77613408Y-22733801D01*
X77866445Y-22611945D01*
X78104248Y-22462523D01*
X78323825Y-22287416D01*
X78522416Y-22088825D01*
X78697523Y-21869248D01*
X78780213Y-21737648D01*
X83699500Y-21737648D01*
X83699500Y-21942351D01*
X83731522Y-22144534D01*
X83794781Y-22339223D01*
X83887715Y-22521613D01*
X84008028Y-22687213D01*
X84152786Y-22831971D01*
X84307749Y-22944556D01*
X84318390Y-22952287D01*
X84434607Y-23011503D01*
X84500776Y-23045218D01*
X84500778Y-23045218D01*
X84500781Y-23045220D01*
X84605137Y-23079127D01*
X84695465Y-23108477D01*
X84796557Y-23124488D01*
X84897648Y-23140500D01*
X84897649Y-23140500D01*
X85102351Y-23140500D01*
X85102352Y-23140500D01*
X85304534Y-23108477D01*
X85499219Y-23045220D01*
X85681610Y-22952287D01*
X85774590Y-22884732D01*
X85847213Y-22831971D01*
X85847215Y-22831968D01*
X85847219Y-22831966D01*
X85991966Y-22687219D01*
X85991968Y-22687215D01*
X85991971Y-22687213D01*
X86046655Y-22611945D01*
X86112287Y-22521610D01*
X86205220Y-22339219D01*
X86267069Y-22148868D01*
X86306507Y-22091193D01*
X86370866Y-22063995D01*
X86439712Y-22075910D01*
X86491188Y-22123154D01*
X86502931Y-22148868D01*
X86564781Y-22339223D01*
X86657715Y-22521613D01*
X86778028Y-22687213D01*
X86922786Y-22831971D01*
X87077749Y-22944556D01*
X87088390Y-22952287D01*
X87204607Y-23011503D01*
X87270776Y-23045218D01*
X87270778Y-23045218D01*
X87270781Y-23045220D01*
X87375137Y-23079127D01*
X87465465Y-23108477D01*
X87566557Y-23124488D01*
X87667648Y-23140500D01*
X87667649Y-23140500D01*
X87872351Y-23140500D01*
X87872352Y-23140500D01*
X88074534Y-23108477D01*
X88269219Y-23045220D01*
X88451610Y-22952287D01*
X88544590Y-22884732D01*
X88617213Y-22831971D01*
X88617215Y-22831968D01*
X88617219Y-22831966D01*
X88761966Y-22687219D01*
X88761968Y-22687215D01*
X88761971Y-22687213D01*
X88816655Y-22611945D01*
X88882287Y-22521610D01*
X88975220Y-22339219D01*
X89037069Y-22148868D01*
X89076507Y-22091193D01*
X89140866Y-22063995D01*
X89209712Y-22075910D01*
X89261188Y-22123154D01*
X89272931Y-22148868D01*
X89334781Y-22339223D01*
X89427715Y-22521613D01*
X89548028Y-22687213D01*
X89692786Y-22831971D01*
X89847749Y-22944556D01*
X89858390Y-22952287D01*
X89974607Y-23011503D01*
X90040776Y-23045218D01*
X90040778Y-23045218D01*
X90040781Y-23045220D01*
X90145137Y-23079127D01*
X90235465Y-23108477D01*
X90336557Y-23124488D01*
X90437648Y-23140500D01*
X90437649Y-23140500D01*
X90642351Y-23140500D01*
X90642352Y-23140500D01*
X90844534Y-23108477D01*
X91039219Y-23045220D01*
X91221610Y-22952287D01*
X91314590Y-22884732D01*
X91387213Y-22831971D01*
X91387215Y-22831968D01*
X91387219Y-22831966D01*
X91531966Y-22687219D01*
X91531968Y-22687215D01*
X91531971Y-22687213D01*
X91586655Y-22611945D01*
X91652287Y-22521610D01*
X91745220Y-22339219D01*
X91807069Y-22148868D01*
X91846507Y-22091193D01*
X91910866Y-22063995D01*
X91979712Y-22075910D01*
X92031188Y-22123154D01*
X92042931Y-22148868D01*
X92104781Y-22339223D01*
X92197715Y-22521613D01*
X92318028Y-22687213D01*
X92462786Y-22831971D01*
X92617749Y-22944556D01*
X92628390Y-22952287D01*
X92744607Y-23011503D01*
X92810776Y-23045218D01*
X92810778Y-23045218D01*
X92810781Y-23045220D01*
X92915137Y-23079127D01*
X93005465Y-23108477D01*
X93106557Y-23124488D01*
X93207648Y-23140500D01*
X93207649Y-23140500D01*
X93412351Y-23140500D01*
X93412352Y-23140500D01*
X93614534Y-23108477D01*
X93809219Y-23045220D01*
X93991610Y-22952287D01*
X94084590Y-22884732D01*
X94157213Y-22831971D01*
X94157215Y-22831968D01*
X94157219Y-22831966D01*
X94301966Y-22687219D01*
X94301968Y-22687215D01*
X94301971Y-22687213D01*
X94356655Y-22611945D01*
X94422287Y-22521610D01*
X94515220Y-22339219D01*
X94578477Y-22144534D01*
X94610500Y-21942352D01*
X94610500Y-21737648D01*
X94578477Y-21535466D01*
X94577068Y-21531131D01*
X94549127Y-21445137D01*
X94515220Y-21340781D01*
X94515218Y-21340778D01*
X94515218Y-21340776D01*
X94481503Y-21274607D01*
X94422287Y-21158390D01*
X94389540Y-21113317D01*
X94301971Y-20992786D01*
X94157213Y-20848028D01*
X93991613Y-20727715D01*
X93991612Y-20727714D01*
X93991610Y-20727713D01*
X93934653Y-20698691D01*
X93809223Y-20634781D01*
X93614534Y-20571522D01*
X93439995Y-20543878D01*
X93412352Y-20539500D01*
X93207648Y-20539500D01*
X93183329Y-20543351D01*
X93005465Y-20571522D01*
X92810776Y-20634781D01*
X92628386Y-20727715D01*
X92462786Y-20848028D01*
X92318028Y-20992786D01*
X92197715Y-21158386D01*
X92104781Y-21340776D01*
X92042931Y-21531131D01*
X92003493Y-21588806D01*
X91939134Y-21616004D01*
X91870288Y-21604089D01*
X91818812Y-21556845D01*
X91807069Y-21531131D01*
X91745218Y-21340776D01*
X91711503Y-21274607D01*
X91652287Y-21158390D01*
X91619540Y-21113317D01*
X91531971Y-20992786D01*
X91387213Y-20848028D01*
X91221613Y-20727715D01*
X91221612Y-20727714D01*
X91221610Y-20727713D01*
X91164653Y-20698691D01*
X91039223Y-20634781D01*
X90844534Y-20571522D01*
X90669995Y-20543878D01*
X90642352Y-20539500D01*
X90437648Y-20539500D01*
X90413329Y-20543351D01*
X90235465Y-20571522D01*
X90040776Y-20634781D01*
X89858386Y-20727715D01*
X89692786Y-20848028D01*
X89548028Y-20992786D01*
X89427715Y-21158386D01*
X89334781Y-21340776D01*
X89272931Y-21531131D01*
X89233493Y-21588806D01*
X89169134Y-21616004D01*
X89100288Y-21604089D01*
X89048812Y-21556845D01*
X89037069Y-21531131D01*
X88975218Y-21340776D01*
X88941503Y-21274607D01*
X88882287Y-21158390D01*
X88849540Y-21113317D01*
X88761971Y-20992786D01*
X88617213Y-20848028D01*
X88451613Y-20727715D01*
X88451612Y-20727714D01*
X88451610Y-20727713D01*
X88394653Y-20698691D01*
X88269223Y-20634781D01*
X88074534Y-20571522D01*
X87899995Y-20543878D01*
X87872352Y-20539500D01*
X87667648Y-20539500D01*
X87643329Y-20543351D01*
X87465465Y-20571522D01*
X87270776Y-20634781D01*
X87088386Y-20727715D01*
X86922786Y-20848028D01*
X86778028Y-20992786D01*
X86657715Y-21158386D01*
X86564781Y-21340776D01*
X86502931Y-21531131D01*
X86463493Y-21588806D01*
X86399134Y-21616004D01*
X86330288Y-21604089D01*
X86278812Y-21556845D01*
X86267069Y-21531131D01*
X86205218Y-21340776D01*
X86171503Y-21274607D01*
X86112287Y-21158390D01*
X86079540Y-21113317D01*
X85991971Y-20992786D01*
X85847213Y-20848028D01*
X85681613Y-20727715D01*
X85681612Y-20727714D01*
X85681610Y-20727713D01*
X85624653Y-20698691D01*
X85499223Y-20634781D01*
X85304534Y-20571522D01*
X85129995Y-20543878D01*
X85102352Y-20539500D01*
X84897648Y-20539500D01*
X84873329Y-20543351D01*
X84695465Y-20571522D01*
X84500776Y-20634781D01*
X84318386Y-20727715D01*
X84152786Y-20848028D01*
X84008028Y-20992786D01*
X83887715Y-21158386D01*
X83794781Y-21340776D01*
X83731522Y-21535465D01*
X83699500Y-21737648D01*
X78780213Y-21737648D01*
X78846945Y-21631445D01*
X78968801Y-21378408D01*
X79061560Y-21113318D01*
X79124055Y-20839509D01*
X79155500Y-20560425D01*
X79155500Y-20279575D01*
X79128770Y-20042335D01*
X79124057Y-20000505D01*
X79124054Y-20000487D01*
X79061560Y-19726682D01*
X79061556Y-19726670D01*
X79038465Y-19660680D01*
X78968801Y-19461592D01*
X78846945Y-19208555D01*
X78697523Y-18970752D01*
X78522416Y-18751175D01*
X78323825Y-18552584D01*
X78300615Y-18534075D01*
X78257887Y-18500000D01*
X78104248Y-18377477D01*
X77866445Y-18228055D01*
X77866442Y-18228053D01*
X77708796Y-18152135D01*
X82314500Y-18152135D01*
X82314500Y-19847870D01*
X82314501Y-19847876D01*
X82320908Y-19907483D01*
X82371202Y-20042328D01*
X82371206Y-20042335D01*
X82457452Y-20157544D01*
X82457455Y-20157547D01*
X82572664Y-20243793D01*
X82572671Y-20243797D01*
X82707517Y-20294091D01*
X82707516Y-20294091D01*
X82714444Y-20294835D01*
X82767127Y-20300500D01*
X84462872Y-20300499D01*
X84522483Y-20294091D01*
X84657331Y-20243796D01*
X84772546Y-20157546D01*
X84858796Y-20042331D01*
X84909091Y-19907483D01*
X84915500Y-19847873D01*
X84915499Y-19468750D01*
X84935183Y-19401714D01*
X84987987Y-19355959D01*
X85057146Y-19346015D01*
X85120701Y-19375040D01*
X85157430Y-19430433D01*
X85179782Y-19499224D01*
X85229723Y-19597238D01*
X85272585Y-19681359D01*
X85272715Y-19681613D01*
X85393028Y-19847213D01*
X85537786Y-19991971D01*
X85658226Y-20079474D01*
X85703390Y-20112287D01*
X85792212Y-20157544D01*
X85885776Y-20205218D01*
X85885778Y-20205218D01*
X85885781Y-20205220D01*
X85990137Y-20239127D01*
X86080465Y-20268477D01*
X86150516Y-20279572D01*
X86282648Y-20300500D01*
X86282649Y-20300500D01*
X86487351Y-20300500D01*
X86487352Y-20300500D01*
X86689534Y-20268477D01*
X86884219Y-20205220D01*
X87066610Y-20112287D01*
X87162901Y-20042328D01*
X87232213Y-19991971D01*
X87232215Y-19991968D01*
X87232219Y-19991966D01*
X87376966Y-19847219D01*
X87376968Y-19847215D01*
X87376971Y-19847213D01*
X87429732Y-19774590D01*
X87497287Y-19681610D01*
X87590220Y-19499219D01*
X87652069Y-19308868D01*
X87691507Y-19251193D01*
X87755866Y-19223995D01*
X87824712Y-19235910D01*
X87876188Y-19283154D01*
X87887931Y-19308868D01*
X87949781Y-19499223D01*
X88013691Y-19624653D01*
X88042585Y-19681359D01*
X88042715Y-19681613D01*
X88163028Y-19847213D01*
X88307786Y-19991971D01*
X88428226Y-20079474D01*
X88473390Y-20112287D01*
X88562212Y-20157544D01*
X88655776Y-20205218D01*
X88655778Y-20205218D01*
X88655781Y-20205220D01*
X88760137Y-20239127D01*
X88850465Y-20268477D01*
X88920516Y-20279572D01*
X89052648Y-20300500D01*
X89052649Y-20300500D01*
X89257351Y-20300500D01*
X89257352Y-20300500D01*
X89459534Y-20268477D01*
X89654219Y-20205220D01*
X89836610Y-20112287D01*
X89932901Y-20042328D01*
X90002213Y-19991971D01*
X90002215Y-19991968D01*
X90002219Y-19991966D01*
X90146966Y-19847219D01*
X90146968Y-19847215D01*
X90146971Y-19847213D01*
X90199732Y-19774590D01*
X90267287Y-19681610D01*
X90360220Y-19499219D01*
X90422069Y-19308868D01*
X90461507Y-19251193D01*
X90525866Y-19223995D01*
X90594712Y-19235910D01*
X90646188Y-19283154D01*
X90657931Y-19308868D01*
X90719781Y-19499223D01*
X90783691Y-19624653D01*
X90812585Y-19681359D01*
X90812715Y-19681613D01*
X90933028Y-19847213D01*
X91077786Y-19991971D01*
X91198226Y-20079474D01*
X91243390Y-20112287D01*
X91332212Y-20157544D01*
X91425776Y-20205218D01*
X91425778Y-20205218D01*
X91425781Y-20205220D01*
X91530137Y-20239127D01*
X91620465Y-20268477D01*
X91690516Y-20279572D01*
X91822648Y-20300500D01*
X91822649Y-20300500D01*
X92027351Y-20300500D01*
X92027352Y-20300500D01*
X92229534Y-20268477D01*
X92424219Y-20205220D01*
X92606610Y-20112287D01*
X92702901Y-20042328D01*
X92772213Y-19991971D01*
X92772215Y-19991968D01*
X92772219Y-19991966D01*
X92916966Y-19847219D01*
X92916968Y-19847215D01*
X92916971Y-19847213D01*
X92969732Y-19774590D01*
X93037287Y-19681610D01*
X93130220Y-19499219D01*
X93192331Y-19308060D01*
X93231769Y-19250385D01*
X93296127Y-19223187D01*
X93364974Y-19235102D01*
X93416449Y-19282346D01*
X93428193Y-19308060D01*
X93490244Y-19499031D01*
X93583141Y-19681350D01*
X93583147Y-19681359D01*
X93615523Y-19725921D01*
X93615524Y-19725922D01*
X94212037Y-19129408D01*
X94229075Y-19192993D01*
X94294901Y-19307007D01*
X94387993Y-19400099D01*
X94502007Y-19465925D01*
X94565590Y-19482962D01*
X93969076Y-20079474D01*
X94013650Y-20111859D01*
X94195968Y-20204755D01*
X94390582Y-20267990D01*
X94592683Y-20300000D01*
X94797317Y-20300000D01*
X94926318Y-20279568D01*
X99154500Y-20279568D01*
X99154500Y-20560431D01*
X99185942Y-20839494D01*
X99185945Y-20839512D01*
X99248439Y-21113317D01*
X99248443Y-21113329D01*
X99341200Y-21378411D01*
X99463053Y-21631442D01*
X99463055Y-21631445D01*
X99612477Y-21869248D01*
X99670775Y-21942351D01*
X99777284Y-22075910D01*
X99787584Y-22088825D01*
X99986175Y-22287416D01*
X100205752Y-22462523D01*
X100443555Y-22611945D01*
X100696592Y-22733801D01*
X100895680Y-22803465D01*
X100961670Y-22826556D01*
X100961682Y-22826560D01*
X101235491Y-22889055D01*
X101235497Y-22889055D01*
X101235505Y-22889057D01*
X101421547Y-22910018D01*
X101514569Y-22920499D01*
X101514572Y-22920500D01*
X101514575Y-22920500D01*
X101795428Y-22920500D01*
X101795429Y-22920499D01*
X101938055Y-22904429D01*
X102074494Y-22889057D01*
X102074499Y-22889056D01*
X102074509Y-22889055D01*
X102348318Y-22826560D01*
X102613408Y-22733801D01*
X102866445Y-22611945D01*
X103104248Y-22462523D01*
X103323825Y-22287416D01*
X103522416Y-22088825D01*
X103697523Y-21869248D01*
X103846945Y-21631445D01*
X103968801Y-21378408D01*
X104061560Y-21113318D01*
X104124055Y-20839509D01*
X104155500Y-20560425D01*
X104155500Y-20279575D01*
X104128770Y-20042335D01*
X104124057Y-20000505D01*
X104124054Y-20000487D01*
X104061560Y-19726682D01*
X104061556Y-19726670D01*
X104038465Y-19660680D01*
X103968801Y-19461592D01*
X103846945Y-19208555D01*
X103697523Y-18970752D01*
X103522416Y-18751175D01*
X103323825Y-18552584D01*
X103300615Y-18534075D01*
X103257887Y-18500000D01*
X103104248Y-18377477D01*
X102866445Y-18228055D01*
X102866442Y-18228053D01*
X102613411Y-18106200D01*
X102348329Y-18013443D01*
X102348317Y-18013439D01*
X102074512Y-17950945D01*
X102074494Y-17950942D01*
X101795431Y-17919500D01*
X101795425Y-17919500D01*
X101514575Y-17919500D01*
X101514568Y-17919500D01*
X101235505Y-17950942D01*
X101235487Y-17950945D01*
X100961682Y-18013439D01*
X100961670Y-18013443D01*
X100696588Y-18106200D01*
X100443557Y-18228053D01*
X100205753Y-18377476D01*
X99986175Y-18552583D01*
X99787583Y-18751175D01*
X99612476Y-18970753D01*
X99463053Y-19208557D01*
X99341200Y-19461588D01*
X99248443Y-19726670D01*
X99248439Y-19726682D01*
X99185945Y-20000487D01*
X99185942Y-20000505D01*
X99154500Y-20279568D01*
X94926318Y-20279568D01*
X94999417Y-20267990D01*
X95194031Y-20204755D01*
X95270856Y-20165611D01*
X95376349Y-20111859D01*
X95420921Y-20079474D01*
X94824409Y-19482962D01*
X94887993Y-19465925D01*
X95002007Y-19400099D01*
X95095099Y-19307007D01*
X95160925Y-19192993D01*
X95177962Y-19129409D01*
X95774474Y-19725921D01*
X95806859Y-19681349D01*
X95899755Y-19499031D01*
X95962990Y-19304417D01*
X95995000Y-19102317D01*
X95995000Y-18897682D01*
X95962990Y-18695582D01*
X95899755Y-18500968D01*
X95806859Y-18318650D01*
X95774474Y-18274077D01*
X95774474Y-18274076D01*
X95177962Y-18870589D01*
X95160925Y-18807007D01*
X95095099Y-18692993D01*
X95002007Y-18599901D01*
X94887993Y-18534075D01*
X94824408Y-18517037D01*
X95420922Y-17920524D01*
X95420921Y-17920523D01*
X95376359Y-17888147D01*
X95376350Y-17888141D01*
X95194031Y-17795244D01*
X94999417Y-17732009D01*
X94797317Y-17700000D01*
X94592683Y-17700000D01*
X94390582Y-17732009D01*
X94195968Y-17795244D01*
X94013644Y-17888143D01*
X93969077Y-17920523D01*
X93969077Y-17920524D01*
X94565591Y-18517037D01*
X94502007Y-18534075D01*
X94387993Y-18599901D01*
X94294901Y-18692993D01*
X94229075Y-18807007D01*
X94212037Y-18870590D01*
X93615524Y-18274077D01*
X93615523Y-18274077D01*
X93583143Y-18318644D01*
X93490244Y-18500968D01*
X93428193Y-18691939D01*
X93388755Y-18749614D01*
X93324396Y-18776812D01*
X93255550Y-18764897D01*
X93204074Y-18717652D01*
X93192331Y-18691938D01*
X93162426Y-18599901D01*
X93130220Y-18500781D01*
X93037287Y-18318390D01*
X93005092Y-18274077D01*
X92916971Y-18152786D01*
X92772213Y-18008028D01*
X92606613Y-17887715D01*
X92606612Y-17887714D01*
X92606610Y-17887713D01*
X92549653Y-17858691D01*
X92424223Y-17794781D01*
X92229534Y-17731522D01*
X92054995Y-17703878D01*
X92027352Y-17699500D01*
X91822648Y-17699500D01*
X91798329Y-17703351D01*
X91620465Y-17731522D01*
X91425776Y-17794781D01*
X91243386Y-17887715D01*
X91077786Y-18008028D01*
X90933028Y-18152786D01*
X90812715Y-18318386D01*
X90719781Y-18500776D01*
X90657931Y-18691131D01*
X90618493Y-18748806D01*
X90554134Y-18776004D01*
X90485288Y-18764089D01*
X90433812Y-18716845D01*
X90422069Y-18691131D01*
X90370119Y-18531248D01*
X90360220Y-18500781D01*
X90360218Y-18500778D01*
X90360218Y-18500776D01*
X90297393Y-18377477D01*
X90267287Y-18318390D01*
X90235092Y-18274077D01*
X90146971Y-18152786D01*
X90002213Y-18008028D01*
X89836613Y-17887715D01*
X89836612Y-17887714D01*
X89836610Y-17887713D01*
X89779653Y-17858691D01*
X89654223Y-17794781D01*
X89459534Y-17731522D01*
X89284995Y-17703878D01*
X89257352Y-17699500D01*
X89052648Y-17699500D01*
X89028329Y-17703351D01*
X88850465Y-17731522D01*
X88655776Y-17794781D01*
X88473386Y-17887715D01*
X88307786Y-18008028D01*
X88163028Y-18152786D01*
X88042715Y-18318386D01*
X87949781Y-18500776D01*
X87887931Y-18691131D01*
X87848493Y-18748806D01*
X87784134Y-18776004D01*
X87715288Y-18764089D01*
X87663812Y-18716845D01*
X87652069Y-18691131D01*
X87600119Y-18531248D01*
X87590220Y-18500781D01*
X87590218Y-18500778D01*
X87590218Y-18500776D01*
X87527393Y-18377477D01*
X87497287Y-18318390D01*
X87465092Y-18274077D01*
X87376971Y-18152786D01*
X87232213Y-18008028D01*
X87066613Y-17887715D01*
X87066612Y-17887714D01*
X87066610Y-17887713D01*
X87009653Y-17858691D01*
X86884223Y-17794781D01*
X86689534Y-17731522D01*
X86514995Y-17703878D01*
X86487352Y-17699500D01*
X86282648Y-17699500D01*
X86258329Y-17703351D01*
X86080465Y-17731522D01*
X85885776Y-17794781D01*
X85703386Y-17887715D01*
X85537786Y-18008028D01*
X85393028Y-18152786D01*
X85272715Y-18318386D01*
X85179781Y-18500776D01*
X85157430Y-18569567D01*
X85117992Y-18627242D01*
X85053633Y-18654440D01*
X84984787Y-18642525D01*
X84933311Y-18595280D01*
X84915499Y-18531248D01*
X84915499Y-18152129D01*
X84915498Y-18152123D01*
X84915497Y-18152116D01*
X84909091Y-18092517D01*
X84879598Y-18013443D01*
X84858797Y-17957671D01*
X84858793Y-17957664D01*
X84772547Y-17842455D01*
X84772544Y-17842452D01*
X84657335Y-17756206D01*
X84657328Y-17756202D01*
X84522482Y-17705908D01*
X84522483Y-17705908D01*
X84462883Y-17699501D01*
X84462881Y-17699500D01*
X84462873Y-17699500D01*
X84462864Y-17699500D01*
X82767129Y-17699500D01*
X82767123Y-17699501D01*
X82707516Y-17705908D01*
X82572671Y-17756202D01*
X82572664Y-17756206D01*
X82457455Y-17842452D01*
X82457452Y-17842455D01*
X82371206Y-17957664D01*
X82371202Y-17957671D01*
X82320908Y-18092517D01*
X82314501Y-18152116D01*
X82314501Y-18152123D01*
X82314500Y-18152135D01*
X77708796Y-18152135D01*
X77613411Y-18106200D01*
X77348329Y-18013443D01*
X77348317Y-18013439D01*
X77074512Y-17950945D01*
X77074494Y-17950942D01*
X76795431Y-17919500D01*
X76795425Y-17919500D01*
X76514575Y-17919500D01*
X76514568Y-17919500D01*
X76235505Y-17950942D01*
X76235487Y-17950945D01*
X75961682Y-18013439D01*
X75961670Y-18013443D01*
X75696588Y-18106200D01*
X75443557Y-18228053D01*
X75205753Y-18377476D01*
X74986175Y-18552583D01*
X74787583Y-18751175D01*
X74612476Y-18970753D01*
X74463053Y-19208557D01*
X74341200Y-19461588D01*
X74248443Y-19726670D01*
X74248439Y-19726682D01*
X74185945Y-20000487D01*
X74185942Y-20000505D01*
X74154500Y-20279568D01*
X44000000Y-20279568D01*
X44000000Y-14893713D01*
X44649500Y-14893713D01*
X44649500Y-15106286D01*
X44677081Y-15280430D01*
X44682754Y-15316243D01*
X44742207Y-15499221D01*
X44748444Y-15518414D01*
X44844951Y-15707820D01*
X44969890Y-15879786D01*
X45120213Y-16030109D01*
X45292179Y-16155048D01*
X45292181Y-16155049D01*
X45292184Y-16155051D01*
X45481588Y-16251557D01*
X45683757Y-16317246D01*
X45893713Y-16350500D01*
X45893714Y-16350500D01*
X46106286Y-16350500D01*
X46106287Y-16350500D01*
X46316243Y-16317246D01*
X46518412Y-16251557D01*
X46707816Y-16155051D01*
X46766680Y-16112284D01*
X46879786Y-16030109D01*
X46879788Y-16030106D01*
X46879792Y-16030104D01*
X47030104Y-15879792D01*
X47030106Y-15879788D01*
X47030109Y-15879786D01*
X47155048Y-15707820D01*
X47155047Y-15707820D01*
X47155051Y-15707816D01*
X47251557Y-15518412D01*
X47317246Y-15316243D01*
X47350500Y-15106287D01*
X47350500Y-14893713D01*
X47317246Y-14683757D01*
X47251557Y-14481588D01*
X47155051Y-14292184D01*
X47155049Y-14292181D01*
X47155048Y-14292179D01*
X47030109Y-14120213D01*
X46879786Y-13969890D01*
X46707820Y-13844951D01*
X46518414Y-13748444D01*
X46518413Y-13748443D01*
X46518412Y-13748443D01*
X46316243Y-13682754D01*
X46316241Y-13682753D01*
X46316240Y-13682753D01*
X46154957Y-13657208D01*
X46106287Y-13649500D01*
X45893713Y-13649500D01*
X45845042Y-13657208D01*
X45683760Y-13682753D01*
X45481585Y-13748444D01*
X45292179Y-13844951D01*
X45120213Y-13969890D01*
X44969890Y-14120213D01*
X44844951Y-14292179D01*
X44748444Y-14481585D01*
X44682753Y-14683760D01*
X44649500Y-14893713D01*
X44000000Y-14893713D01*
X44000000Y-12624500D01*
X44019685Y-12557461D01*
X44072489Y-12511706D01*
X44124000Y-12500500D01*
X104375500Y-12500500D01*
X104442539Y-12520185D01*
G37*
G04 #@! TD.AperFunction*
G04 #@! TA.AperFunction,Conductor*
G36*
X93672089Y-56036685D02*
G01*
X93717844Y-56089489D01*
X93727788Y-56158647D01*
X93722981Y-56179317D01*
X93712010Y-56213081D01*
X93712009Y-56213086D01*
X93703391Y-56267500D01*
X94664314Y-56267500D01*
X94659920Y-56271894D01*
X94607259Y-56363106D01*
X94580000Y-56464839D01*
X94580000Y-56570161D01*
X94607259Y-56671894D01*
X94659920Y-56763106D01*
X94664314Y-56767500D01*
X93703391Y-56767500D01*
X93712009Y-56821913D01*
X93775244Y-57016529D01*
X93868140Y-57198849D01*
X93988417Y-57364394D01*
X93988417Y-57364395D01*
X94133104Y-57509082D01*
X94298650Y-57629359D01*
X94422600Y-57692515D01*
X94473396Y-57740490D01*
X94490191Y-57808311D01*
X94467654Y-57874445D01*
X94412939Y-57917897D01*
X94366305Y-57927000D01*
X92542297Y-57927000D01*
X92542281Y-57926999D01*
X92534685Y-57926999D01*
X92376571Y-57926999D01*
X92262025Y-57957692D01*
X92223842Y-57967923D01*
X92186471Y-57989500D01*
X92186470Y-57989500D01*
X92086915Y-58046977D01*
X92086910Y-58046981D01*
X91975106Y-58158786D01*
X86952212Y-63181681D01*
X86890889Y-63215166D01*
X86864531Y-63218000D01*
X86218463Y-63218000D01*
X86151424Y-63198315D01*
X86105669Y-63145511D01*
X86095725Y-63076353D01*
X86095990Y-63074602D01*
X86120500Y-62919851D01*
X86120500Y-62715148D01*
X86088477Y-62512965D01*
X86054349Y-62407931D01*
X86025220Y-62318281D01*
X86025218Y-62318278D01*
X86025218Y-62318276D01*
X85970816Y-62211507D01*
X85932287Y-62135890D01*
X85924556Y-62125249D01*
X85811971Y-61970286D01*
X85667213Y-61825528D01*
X85501613Y-61705215D01*
X85501612Y-61705214D01*
X85501610Y-61705213D01*
X85444653Y-61676191D01*
X85319223Y-61612281D01*
X85124534Y-61549022D01*
X84922349Y-61516999D01*
X84917489Y-61516617D01*
X84852202Y-61491730D01*
X84819028Y-61446744D01*
X84806489Y-61474203D01*
X84747711Y-61511977D01*
X84722511Y-61516617D01*
X84717650Y-61516999D01*
X84515465Y-61549022D01*
X84320776Y-61612281D01*
X84138386Y-61705215D01*
X83972786Y-61825528D01*
X83828028Y-61970286D01*
X83707715Y-62135886D01*
X83614781Y-62318276D01*
X83551522Y-62512965D01*
X83519500Y-62715148D01*
X83519500Y-62919851D01*
X83551522Y-63122034D01*
X83614781Y-63316723D01*
X83707712Y-63499108D01*
X83707713Y-63499110D01*
X83727484Y-63526323D01*
X83750963Y-63592130D01*
X83735137Y-63660183D01*
X83714846Y-63686888D01*
X83183600Y-64218134D01*
X83122277Y-64251619D01*
X83052585Y-64246635D01*
X82996652Y-64204763D01*
X82985434Y-64186748D01*
X82981601Y-64179225D01*
X82932815Y-64083478D01*
X82888416Y-64022368D01*
X82803247Y-63905141D01*
X82803243Y-63905136D01*
X82753071Y-63854964D01*
X82719586Y-63793641D01*
X82724570Y-63723949D01*
X82766442Y-63668016D01*
X82797420Y-63651101D01*
X82877326Y-63621298D01*
X82877326Y-63621297D01*
X82877331Y-63621296D01*
X82992546Y-63535046D01*
X83078796Y-63419831D01*
X83129091Y-63284983D01*
X83135500Y-63225373D01*
X83135499Y-61530375D01*
X83155184Y-61463337D01*
X83207987Y-61417582D01*
X83227260Y-61411359D01*
X83227149Y-61410991D01*
X83232971Y-61409224D01*
X83232982Y-61409222D01*
X83361587Y-61355952D01*
X83378657Y-61348882D01*
X83378657Y-61348881D01*
X83378664Y-61348879D01*
X83466935Y-61289897D01*
X83533612Y-61269020D01*
X83535826Y-61269000D01*
X84712776Y-61269000D01*
X84779815Y-61288685D01*
X84822015Y-61337386D01*
X84840175Y-61304691D01*
X84901738Y-61271647D01*
X84927224Y-61269000D01*
X87396703Y-61269000D01*
X87396719Y-61269001D01*
X87404315Y-61269001D01*
X87562426Y-61269001D01*
X87562429Y-61269001D01*
X87715157Y-61228077D01*
X87765276Y-61199139D01*
X87852088Y-61149020D01*
X87963892Y-61037216D01*
X87963892Y-61037214D01*
X87974100Y-61027007D01*
X87974101Y-61027004D01*
X92947789Y-56053319D01*
X93009112Y-56019834D01*
X93035470Y-56017000D01*
X93605050Y-56017000D01*
X93672089Y-56036685D01*
G37*
G04 #@! TD.AperFunction*
G04 #@! TA.AperFunction,Conductor*
G36*
X93644713Y-59135925D02*
G01*
X93672433Y-59140723D01*
X93677787Y-59145637D01*
X93684761Y-59147685D01*
X93703182Y-59168944D01*
X93723909Y-59187967D01*
X93725756Y-59194996D01*
X93730516Y-59200489D01*
X93734519Y-59228335D01*
X93741671Y-59255541D01*
X93739901Y-59265764D01*
X93740460Y-59269647D01*
X93735653Y-59290318D01*
X93712009Y-59363085D01*
X93712009Y-59363086D01*
X93703391Y-59417500D01*
X94664314Y-59417500D01*
X94659920Y-59421894D01*
X94607259Y-59513106D01*
X94580000Y-59614839D01*
X94580000Y-59720161D01*
X94607259Y-59821894D01*
X94659920Y-59913106D01*
X94664314Y-59917500D01*
X93703391Y-59917500D01*
X93712009Y-59971913D01*
X93775244Y-60166529D01*
X93836476Y-60286704D01*
X93849372Y-60355373D01*
X93823096Y-60420114D01*
X93765989Y-60460371D01*
X93725991Y-60466999D01*
X93631443Y-60466999D01*
X93528858Y-60494487D01*
X93478710Y-60507924D01*
X93478709Y-60507925D01*
X93428596Y-60536859D01*
X93428595Y-60536860D01*
X93392625Y-60557627D01*
X93341785Y-60586979D01*
X93341782Y-60586981D01*
X90519479Y-63409284D01*
X90513388Y-63419835D01*
X90487195Y-63465204D01*
X90440423Y-63546215D01*
X90399499Y-63698943D01*
X90399499Y-63698945D01*
X90399499Y-63867046D01*
X90399500Y-63867059D01*
X90399500Y-63915500D01*
X90379815Y-63982539D01*
X90327011Y-64028294D01*
X90275500Y-64039500D01*
X88092225Y-64039500D01*
X88025186Y-64019815D01*
X87979431Y-63967011D01*
X87969487Y-63897853D01*
X87998512Y-63834297D01*
X88004544Y-63827819D01*
X92668044Y-59164319D01*
X92729367Y-59130834D01*
X92755725Y-59128000D01*
X93617722Y-59128000D01*
X93644713Y-59135925D01*
G37*
G04 #@! TD.AperFunction*
G04 #@! TA.AperFunction,Conductor*
G36*
X95620520Y-27615185D02*
G01*
X95641162Y-27631819D01*
X101013681Y-33004338D01*
X101047166Y-33065661D01*
X101050000Y-33092019D01*
X101050000Y-48151452D01*
X101030315Y-48218491D01*
X100998885Y-48251770D01*
X100870715Y-48344889D01*
X100756785Y-48458819D01*
X100695462Y-48492303D01*
X100625770Y-48487319D01*
X100569837Y-48445447D01*
X100552922Y-48414470D01*
X100503854Y-48282913D01*
X100503850Y-48282906D01*
X100417690Y-48167812D01*
X100417687Y-48167809D01*
X100302593Y-48081649D01*
X100302586Y-48081645D01*
X100167879Y-48031403D01*
X100167872Y-48031401D01*
X100108344Y-48025000D01*
X99460500Y-48025000D01*
X99460500Y-48941988D01*
X99403493Y-48909075D01*
X99276326Y-48875000D01*
X99144674Y-48875000D01*
X99017507Y-48909075D01*
X98960500Y-48941988D01*
X98960500Y-48025000D01*
X98312655Y-48025000D01*
X98253127Y-48031401D01*
X98253120Y-48031403D01*
X98118413Y-48081645D01*
X98118406Y-48081649D01*
X98003312Y-48167809D01*
X98003309Y-48167812D01*
X97917149Y-48282906D01*
X97917145Y-48282913D01*
X97866903Y-48417620D01*
X97866901Y-48417627D01*
X97860500Y-48477155D01*
X97860500Y-49125000D01*
X98777488Y-49125000D01*
X98744575Y-49182007D01*
X98710500Y-49309174D01*
X98710500Y-49440826D01*
X98744575Y-49567993D01*
X98777488Y-49625000D01*
X97860500Y-49625000D01*
X97860500Y-50272844D01*
X97866901Y-50332372D01*
X97866903Y-50332379D01*
X97917145Y-50467086D01*
X97917149Y-50467093D01*
X98003309Y-50582187D01*
X98003312Y-50582190D01*
X98118406Y-50668350D01*
X98118413Y-50668354D01*
X98249970Y-50717422D01*
X98305904Y-50759293D01*
X98330321Y-50824758D01*
X98315469Y-50893031D01*
X98294319Y-50921285D01*
X98180389Y-51035215D01*
X98055451Y-51207179D01*
X97958944Y-51396585D01*
X97893253Y-51598760D01*
X97860000Y-51808713D01*
X97860000Y-52021286D01*
X97889650Y-52208493D01*
X97893254Y-52231243D01*
X97940137Y-52375534D01*
X97958944Y-52433414D01*
X98055451Y-52622820D01*
X98180390Y-52794786D01*
X98180503Y-52794899D01*
X98180531Y-52794950D01*
X98183553Y-52798488D01*
X98182809Y-52799123D01*
X98213988Y-52856222D01*
X98209004Y-52925914D01*
X98180503Y-52970261D01*
X96371084Y-54779681D01*
X96309761Y-54813166D01*
X96283403Y-54816000D01*
X95511767Y-54816000D01*
X95444728Y-54796315D01*
X95398973Y-54743511D01*
X95389029Y-54674353D01*
X95418054Y-54610797D01*
X95473450Y-54574069D01*
X95479028Y-54572256D01*
X95661349Y-54479359D01*
X95826894Y-54359082D01*
X95826895Y-54359082D01*
X95971582Y-54214395D01*
X95971582Y-54214394D01*
X96091859Y-54048849D01*
X96184755Y-53866529D01*
X96247990Y-53671913D01*
X96256609Y-53617500D01*
X95295686Y-53617500D01*
X95300080Y-53613106D01*
X95352741Y-53521894D01*
X95380000Y-53420161D01*
X95380000Y-53314839D01*
X95352741Y-53213106D01*
X95300080Y-53121894D01*
X95295686Y-53117500D01*
X96256609Y-53117500D01*
X96247990Y-53063086D01*
X96184755Y-52868470D01*
X96091859Y-52686150D01*
X95971582Y-52520605D01*
X95971582Y-52520604D01*
X95826895Y-52375917D01*
X95661349Y-52255640D01*
X95479029Y-52162744D01*
X95284413Y-52099509D01*
X95230000Y-52090890D01*
X95230000Y-53051814D01*
X95225606Y-53047420D01*
X95134394Y-52994759D01*
X95032661Y-52967500D01*
X94927339Y-52967500D01*
X94825606Y-52994759D01*
X94734394Y-53047420D01*
X94730000Y-53051814D01*
X94730000Y-52090890D01*
X94675586Y-52099509D01*
X94480970Y-52162744D01*
X94298650Y-52255640D01*
X94133105Y-52375917D01*
X94133104Y-52375917D01*
X93988417Y-52520604D01*
X93988417Y-52520605D01*
X93868140Y-52686150D01*
X93775244Y-52868470D01*
X93712009Y-53063086D01*
X93703391Y-53117500D01*
X94664314Y-53117500D01*
X94659920Y-53121894D01*
X94607259Y-53213106D01*
X94580000Y-53314839D01*
X94580000Y-53420161D01*
X94607259Y-53521894D01*
X94659920Y-53613106D01*
X94664314Y-53617500D01*
X93703391Y-53617500D01*
X93712009Y-53671913D01*
X93775244Y-53866529D01*
X93868140Y-54048849D01*
X93988417Y-54214394D01*
X93988417Y-54214395D01*
X94133104Y-54359082D01*
X94298650Y-54479359D01*
X94480971Y-54572256D01*
X94486550Y-54574069D01*
X94544226Y-54613506D01*
X94571425Y-54677864D01*
X94559511Y-54746711D01*
X94512267Y-54798187D01*
X94448233Y-54816000D01*
X92822042Y-54816000D01*
X92822026Y-54815999D01*
X92814430Y-54815999D01*
X92656315Y-54815999D01*
X92579951Y-54836461D01*
X92503586Y-54856923D01*
X92503581Y-54856926D01*
X92366662Y-54935975D01*
X92366654Y-54935981D01*
X88984440Y-58318196D01*
X88923117Y-58351681D01*
X88853425Y-58346697D01*
X88797492Y-58304825D01*
X88773075Y-58239361D01*
X88775142Y-58206323D01*
X88800500Y-58078844D01*
X88800500Y-57921155D01*
X88800499Y-57921153D01*
X88791208Y-57874445D01*
X88769737Y-57766503D01*
X88739729Y-57694056D01*
X88709397Y-57620827D01*
X88709390Y-57620814D01*
X88621398Y-57489125D01*
X88600520Y-57422447D01*
X88600500Y-57420234D01*
X88600500Y-51288060D01*
X88600501Y-51288047D01*
X88600501Y-51119944D01*
X88585703Y-51064719D01*
X88559577Y-50967216D01*
X88520258Y-50899113D01*
X88480524Y-50830290D01*
X88480518Y-50830282D01*
X87617736Y-49967500D01*
X93703391Y-49967500D01*
X94664314Y-49967500D01*
X94659920Y-49971894D01*
X94607259Y-50063106D01*
X94580000Y-50164839D01*
X94580000Y-50270161D01*
X94607259Y-50371894D01*
X94659920Y-50463106D01*
X94664314Y-50467500D01*
X93703391Y-50467500D01*
X93712009Y-50521913D01*
X93775244Y-50716529D01*
X93868140Y-50898849D01*
X93988417Y-51064394D01*
X93988417Y-51064395D01*
X94133104Y-51209082D01*
X94298650Y-51329359D01*
X94480968Y-51422254D01*
X94675578Y-51485488D01*
X94730000Y-51494107D01*
X94730000Y-50533186D01*
X94734394Y-50537580D01*
X94825606Y-50590241D01*
X94927339Y-50617500D01*
X95032661Y-50617500D01*
X95134394Y-50590241D01*
X95225606Y-50537580D01*
X95230000Y-50533186D01*
X95230000Y-51494106D01*
X95284421Y-51485488D01*
X95479031Y-51422254D01*
X95661349Y-51329359D01*
X95826894Y-51209082D01*
X95826895Y-51209082D01*
X95971582Y-51064395D01*
X95971582Y-51064394D01*
X96091859Y-50898849D01*
X96184755Y-50716529D01*
X96247990Y-50521913D01*
X96256609Y-50467500D01*
X95295686Y-50467500D01*
X95300080Y-50463106D01*
X95352741Y-50371894D01*
X95380000Y-50270161D01*
X95380000Y-50164839D01*
X95352741Y-50063106D01*
X95300080Y-49971894D01*
X95295686Y-49967500D01*
X96256609Y-49967500D01*
X96247990Y-49913086D01*
X96184755Y-49718470D01*
X96091859Y-49536150D01*
X95971582Y-49370605D01*
X95971582Y-49370604D01*
X95826895Y-49225917D01*
X95661349Y-49105640D01*
X95479029Y-49012744D01*
X95284413Y-48949509D01*
X95230000Y-48940890D01*
X95230000Y-49901814D01*
X95225606Y-49897420D01*
X95134394Y-49844759D01*
X95032661Y-49817500D01*
X94927339Y-49817500D01*
X94825606Y-49844759D01*
X94734394Y-49897420D01*
X94730000Y-49901814D01*
X94730000Y-48940890D01*
X94675586Y-48949509D01*
X94480970Y-49012744D01*
X94298650Y-49105640D01*
X94133105Y-49225917D01*
X94133104Y-49225917D01*
X93988417Y-49370604D01*
X93988417Y-49370605D01*
X93868140Y-49536150D01*
X93775244Y-49718470D01*
X93712009Y-49913086D01*
X93703391Y-49967500D01*
X87617736Y-49967500D01*
X87234573Y-49584337D01*
X87201088Y-49523014D01*
X87200637Y-49520847D01*
X87175431Y-49394130D01*
X87169737Y-49365503D01*
X87169029Y-49363794D01*
X87109397Y-49219827D01*
X87109390Y-49219814D01*
X87021789Y-49088711D01*
X87021786Y-49088707D01*
X86910292Y-48977213D01*
X86910288Y-48977210D01*
X86779185Y-48889609D01*
X86779172Y-48889602D01*
X86633501Y-48829264D01*
X86633489Y-48829261D01*
X86478845Y-48798500D01*
X86478842Y-48798500D01*
X86321158Y-48798500D01*
X86321155Y-48798500D01*
X86166510Y-48829261D01*
X86166498Y-48829264D01*
X86020827Y-48889602D01*
X86020814Y-48889609D01*
X85889711Y-48977210D01*
X85889707Y-48977213D01*
X85778213Y-49088707D01*
X85778210Y-49088711D01*
X85752043Y-49127873D01*
X85698430Y-49172678D01*
X85629105Y-49181385D01*
X85576056Y-49159300D01*
X85501613Y-49105215D01*
X85501612Y-49105214D01*
X85501610Y-49105213D01*
X85428562Y-49067993D01*
X85319223Y-49012281D01*
X85124534Y-48949022D01*
X84949995Y-48921378D01*
X84922352Y-48917000D01*
X84717648Y-48917000D01*
X84693329Y-48920851D01*
X84515465Y-48949022D01*
X84320776Y-49012281D01*
X84138386Y-49105215D01*
X83972786Y-49225528D01*
X83828028Y-49370286D01*
X83707715Y-49535886D01*
X83614781Y-49718276D01*
X83551522Y-49912965D01*
X83519500Y-50115148D01*
X83519500Y-50319851D01*
X83551522Y-50522034D01*
X83614781Y-50716723D01*
X83707715Y-50899113D01*
X83828028Y-51064713D01*
X83972786Y-51209471D01*
X84074730Y-51283536D01*
X84138390Y-51329787D01*
X84254607Y-51389003D01*
X84320776Y-51422718D01*
X84320778Y-51422718D01*
X84320781Y-51422720D01*
X84415047Y-51453349D01*
X84515465Y-51485977D01*
X84598301Y-51499097D01*
X84717648Y-51518000D01*
X84717649Y-51518000D01*
X84922351Y-51518000D01*
X84922352Y-51518000D01*
X85124534Y-51485977D01*
X85319219Y-51422720D01*
X85501610Y-51329787D01*
X85596291Y-51260998D01*
X85667213Y-51209471D01*
X85667215Y-51209468D01*
X85667219Y-51209466D01*
X85811966Y-51064719D01*
X85811968Y-51064715D01*
X85811971Y-51064713D01*
X85882807Y-50967214D01*
X85932287Y-50899110D01*
X86025220Y-50716719D01*
X86088477Y-50522034D01*
X86094223Y-50485750D01*
X86099144Y-50475369D01*
X86099760Y-50463896D01*
X86113839Y-50444370D01*
X86124151Y-50422619D01*
X86133903Y-50416546D01*
X86140626Y-50407224D01*
X86163031Y-50398408D01*
X86183462Y-50385687D01*
X86196620Y-50385193D01*
X86205645Y-50381643D01*
X86240886Y-50383532D01*
X86251716Y-50385687D01*
X86321850Y-50399638D01*
X86383761Y-50432023D01*
X86385339Y-50433574D01*
X87363181Y-51411416D01*
X87396666Y-51472739D01*
X87399500Y-51499097D01*
X87399500Y-53113444D01*
X87379815Y-53180483D01*
X87327011Y-53226238D01*
X87257853Y-53236182D01*
X87239575Y-53231202D01*
X87239324Y-53232031D01*
X87233500Y-53230264D01*
X87233497Y-53230263D01*
X87233492Y-53230262D01*
X87233489Y-53230261D01*
X87078845Y-53199500D01*
X87078842Y-53199500D01*
X86921158Y-53199500D01*
X86921155Y-53199500D01*
X86766510Y-53230261D01*
X86766498Y-53230264D01*
X86620827Y-53290602D01*
X86620814Y-53290609D01*
X86489711Y-53378210D01*
X86489707Y-53378213D01*
X86378213Y-53489707D01*
X86347602Y-53535520D01*
X86293989Y-53580324D01*
X86224664Y-53589031D01*
X86161637Y-53558876D01*
X86124918Y-53499432D01*
X86120500Y-53466628D01*
X86120500Y-53265148D01*
X86088477Y-53062965D01*
X86050181Y-52945104D01*
X86025220Y-52868281D01*
X86025218Y-52868278D01*
X86025218Y-52868276D01*
X85959123Y-52738559D01*
X85932287Y-52685890D01*
X85924556Y-52675249D01*
X85811971Y-52520286D01*
X85667213Y-52375528D01*
X85501613Y-52255215D01*
X85501612Y-52255214D01*
X85501610Y-52255213D01*
X85442624Y-52225158D01*
X85319223Y-52162281D01*
X85124534Y-52099022D01*
X84949995Y-52071378D01*
X84922352Y-52067000D01*
X84717648Y-52067000D01*
X84693329Y-52070851D01*
X84515465Y-52099022D01*
X84320776Y-52162281D01*
X84138386Y-52255215D01*
X83972786Y-52375528D01*
X83828028Y-52520286D01*
X83707715Y-52685886D01*
X83614781Y-52868276D01*
X83551522Y-53062965D01*
X83519500Y-53265148D01*
X83519500Y-53469851D01*
X83551522Y-53672034D01*
X83614781Y-53866723D01*
X83650380Y-53936588D01*
X83703668Y-54041172D01*
X83707715Y-54049113D01*
X83828028Y-54214713D01*
X83972786Y-54359471D01*
X84127749Y-54472056D01*
X84138390Y-54479787D01*
X84254607Y-54539003D01*
X84320776Y-54572718D01*
X84320778Y-54572718D01*
X84320781Y-54572720D01*
X84418590Y-54604500D01*
X84515465Y-54635977D01*
X84616557Y-54651988D01*
X84717648Y-54668000D01*
X84717649Y-54668000D01*
X84922351Y-54668000D01*
X84922352Y-54668000D01*
X85124534Y-54635977D01*
X85319219Y-54572720D01*
X85501610Y-54479787D01*
X85616140Y-54396577D01*
X85667213Y-54359471D01*
X85667215Y-54359468D01*
X85667219Y-54359466D01*
X85811966Y-54214719D01*
X85811968Y-54214715D01*
X85811971Y-54214713D01*
X85932284Y-54049114D01*
X85932285Y-54049113D01*
X85932287Y-54049110D01*
X85965015Y-53984876D01*
X86012989Y-53934081D01*
X86080810Y-53917286D01*
X86146945Y-53939823D01*
X86190397Y-53994538D01*
X86199500Y-54041172D01*
X86199500Y-54078846D01*
X86230261Y-54233489D01*
X86230264Y-54233501D01*
X86290602Y-54379172D01*
X86290609Y-54379185D01*
X86378602Y-54510874D01*
X86399480Y-54577551D01*
X86399500Y-54579765D01*
X86399500Y-56420234D01*
X86394171Y-56438379D01*
X86393834Y-56457288D01*
X86380333Y-56485506D01*
X86379815Y-56487273D01*
X86378602Y-56489126D01*
X86347602Y-56535520D01*
X86293989Y-56580324D01*
X86224664Y-56589031D01*
X86161637Y-56558876D01*
X86124918Y-56499433D01*
X86120500Y-56466628D01*
X86120500Y-56415148D01*
X86088477Y-56212965D01*
X86048357Y-56089489D01*
X86025220Y-56018281D01*
X86025218Y-56018278D01*
X86025218Y-56018276D01*
X85986382Y-55942058D01*
X85932287Y-55835890D01*
X85897139Y-55787512D01*
X85811971Y-55670286D01*
X85667213Y-55525528D01*
X85501613Y-55405215D01*
X85501612Y-55405214D01*
X85501610Y-55405213D01*
X85444653Y-55376191D01*
X85319223Y-55312281D01*
X85124534Y-55249022D01*
X84949995Y-55221378D01*
X84922352Y-55217000D01*
X84717648Y-55217000D01*
X84693329Y-55220851D01*
X84515465Y-55249022D01*
X84320776Y-55312281D01*
X84138386Y-55405215D01*
X83972786Y-55525528D01*
X83828028Y-55670286D01*
X83707715Y-55835886D01*
X83614781Y-56018276D01*
X83551522Y-56212965D01*
X83519500Y-56415148D01*
X83519500Y-56619852D01*
X83523246Y-56643500D01*
X83551522Y-56822034D01*
X83614781Y-57016723D01*
X83660662Y-57106767D01*
X83706060Y-57195866D01*
X83707715Y-57199113D01*
X83828028Y-57364713D01*
X83972786Y-57509471D01*
X84127377Y-57621786D01*
X84138390Y-57629787D01*
X84247839Y-57685554D01*
X84320776Y-57722718D01*
X84320778Y-57722718D01*
X84320781Y-57722720D01*
X84425137Y-57756627D01*
X84515465Y-57785977D01*
X84607153Y-57800499D01*
X84717648Y-57818000D01*
X84717649Y-57818000D01*
X84922351Y-57818000D01*
X84922352Y-57818000D01*
X85124534Y-57785977D01*
X85319219Y-57722720D01*
X85501610Y-57629787D01*
X85595931Y-57561259D01*
X85667213Y-57509471D01*
X85667215Y-57509468D01*
X85667219Y-57509466D01*
X85811966Y-57364719D01*
X85811968Y-57364715D01*
X85811971Y-57364713D01*
X85932284Y-57199114D01*
X85932285Y-57199113D01*
X85932287Y-57199110D01*
X85979338Y-57106766D01*
X86027313Y-57055971D01*
X86095134Y-57039176D01*
X86161268Y-57061713D01*
X86204720Y-57116428D01*
X86211440Y-57138871D01*
X86230261Y-57233489D01*
X86230264Y-57233501D01*
X86290602Y-57379172D01*
X86290609Y-57379185D01*
X86378210Y-57510288D01*
X86378213Y-57510292D01*
X86489707Y-57621786D01*
X86489711Y-57621789D01*
X86620814Y-57709390D01*
X86620827Y-57709397D01*
X86765204Y-57769199D01*
X86766503Y-57769737D01*
X86921153Y-57800499D01*
X86921156Y-57800500D01*
X87075500Y-57800500D01*
X87142539Y-57820185D01*
X87188294Y-57872989D01*
X87199500Y-57924500D01*
X87199500Y-58078846D01*
X87230261Y-58233489D01*
X87230264Y-58233501D01*
X87290602Y-58379172D01*
X87290609Y-58379185D01*
X87378210Y-58510288D01*
X87378213Y-58510292D01*
X87489707Y-58621786D01*
X87489711Y-58621789D01*
X87620814Y-58709390D01*
X87620827Y-58709397D01*
X87747957Y-58762055D01*
X87766503Y-58769737D01*
X87921153Y-58800499D01*
X87921156Y-58800500D01*
X87921158Y-58800500D01*
X88078844Y-58800500D01*
X88175019Y-58781369D01*
X88206323Y-58775142D01*
X88275915Y-58781369D01*
X88331092Y-58824232D01*
X88354337Y-58890121D01*
X88338270Y-58958118D01*
X88318196Y-58984440D01*
X87270956Y-60031681D01*
X87209633Y-60065166D01*
X87183275Y-60068000D01*
X86218463Y-60068000D01*
X86151424Y-60048315D01*
X86105669Y-59995511D01*
X86095725Y-59926353D01*
X86095990Y-59924602D01*
X86120500Y-59769851D01*
X86120500Y-59565148D01*
X86088477Y-59362965D01*
X86025218Y-59168276D01*
X85979372Y-59078300D01*
X85932287Y-58985890D01*
X85900667Y-58942368D01*
X85811971Y-58820286D01*
X85667213Y-58675528D01*
X85501613Y-58555215D01*
X85501612Y-58555214D01*
X85501610Y-58555213D01*
X85413440Y-58510288D01*
X85319223Y-58462281D01*
X85124534Y-58399022D01*
X84949995Y-58371378D01*
X84922352Y-58367000D01*
X84717648Y-58367000D01*
X84693329Y-58370851D01*
X84515465Y-58399022D01*
X84320776Y-58462281D01*
X84138386Y-58555215D01*
X83972786Y-58675528D01*
X83828028Y-58820286D01*
X83707715Y-58985886D01*
X83614781Y-59168276D01*
X83551522Y-59362965D01*
X83520132Y-59561158D01*
X83519500Y-59565148D01*
X83519500Y-59769852D01*
X83521912Y-59785084D01*
X83512957Y-59854376D01*
X83467960Y-59907827D01*
X83401209Y-59928466D01*
X83351987Y-59919040D01*
X83232986Y-59869749D01*
X83232974Y-59869746D01*
X83078330Y-59838985D01*
X83078327Y-59838985D01*
X82960060Y-59838985D01*
X82893021Y-59819300D01*
X82847266Y-59766496D01*
X82837322Y-59697338D01*
X82859742Y-59642100D01*
X82894829Y-59593805D01*
X82932815Y-59541522D01*
X83032895Y-59345106D01*
X83101015Y-59135451D01*
X83135500Y-58917722D01*
X83135500Y-58697278D01*
X83101015Y-58479549D01*
X83059469Y-58351681D01*
X83032896Y-58269896D01*
X83032895Y-58269893D01*
X82971831Y-58150051D01*
X82932815Y-58073478D01*
X82897670Y-58025105D01*
X82803247Y-57895141D01*
X82803243Y-57895136D01*
X82753071Y-57844964D01*
X82719586Y-57783641D01*
X82724570Y-57713949D01*
X82766442Y-57658016D01*
X82797420Y-57641101D01*
X82877326Y-57611298D01*
X82877326Y-57611297D01*
X82877331Y-57611296D01*
X82992546Y-57525046D01*
X83078796Y-57409831D01*
X83129091Y-57274983D01*
X83135500Y-57215373D01*
X83135499Y-55319628D01*
X83129292Y-55261884D01*
X83129091Y-55260016D01*
X83078797Y-55125171D01*
X83078793Y-55125164D01*
X82992547Y-55009955D01*
X82992544Y-55009952D01*
X82877335Y-54923706D01*
X82877328Y-54923702D01*
X82742482Y-54873408D01*
X82742483Y-54873408D01*
X82682883Y-54867001D01*
X82682881Y-54867000D01*
X82682873Y-54867000D01*
X82682865Y-54867000D01*
X81258500Y-54867000D01*
X81191461Y-54847315D01*
X81145706Y-54794511D01*
X81134500Y-54743000D01*
X81134500Y-54245630D01*
X81154185Y-54178591D01*
X81206989Y-54132836D01*
X81276147Y-54122892D01*
X81296814Y-54127698D01*
X81407049Y-54163515D01*
X81624778Y-54198000D01*
X81624779Y-54198000D01*
X81845221Y-54198000D01*
X81845222Y-54198000D01*
X82062951Y-54163515D01*
X82272606Y-54095395D01*
X82469022Y-53995315D01*
X82647365Y-53865742D01*
X82803242Y-53709865D01*
X82932815Y-53531522D01*
X83032895Y-53335106D01*
X83101015Y-53125451D01*
X83135500Y-52907722D01*
X83135500Y-52687278D01*
X83101015Y-52469549D01*
X83032895Y-52259894D01*
X83032895Y-52259893D01*
X82983158Y-52162281D01*
X82932815Y-52063478D01*
X82902161Y-52021286D01*
X82803247Y-51885141D01*
X82803243Y-51885136D01*
X82753071Y-51834964D01*
X82719586Y-51773641D01*
X82724570Y-51703949D01*
X82766442Y-51648016D01*
X82797420Y-51631101D01*
X82877326Y-51601298D01*
X82877326Y-51601297D01*
X82877331Y-51601296D01*
X82992546Y-51515046D01*
X83078796Y-51399831D01*
X83129091Y-51264983D01*
X83135500Y-51205373D01*
X83135499Y-49309628D01*
X83129091Y-49250017D01*
X83124885Y-49238741D01*
X83078797Y-49115171D01*
X83078793Y-49115164D01*
X82992547Y-48999955D01*
X82992544Y-48999952D01*
X82877335Y-48913706D01*
X82877328Y-48913702D01*
X82742482Y-48863408D01*
X82742483Y-48863408D01*
X82682883Y-48857001D01*
X82682881Y-48857000D01*
X82682873Y-48857000D01*
X82682865Y-48857000D01*
X81258500Y-48857000D01*
X81191461Y-48837315D01*
X81145706Y-48784511D01*
X81134500Y-48733000D01*
X81134500Y-48235630D01*
X81154185Y-48168591D01*
X81206989Y-48122836D01*
X81276147Y-48112892D01*
X81296814Y-48117698D01*
X81407049Y-48153515D01*
X81624778Y-48188000D01*
X81624779Y-48188000D01*
X81845221Y-48188000D01*
X81845222Y-48188000D01*
X82062951Y-48153515D01*
X82272606Y-48085395D01*
X82469022Y-47985315D01*
X82647365Y-47855742D01*
X82803242Y-47699865D01*
X82932815Y-47521522D01*
X83032895Y-47325106D01*
X83101015Y-47115451D01*
X83135500Y-46897722D01*
X83135500Y-46677278D01*
X83101015Y-46459549D01*
X83039845Y-46271284D01*
X83032896Y-46249896D01*
X83032895Y-46249893D01*
X82986825Y-46159478D01*
X82932815Y-46053478D01*
X82861422Y-45955213D01*
X82803247Y-45875141D01*
X82803243Y-45875136D01*
X82753071Y-45824964D01*
X82719586Y-45763641D01*
X82724570Y-45693949D01*
X82766442Y-45638016D01*
X82797420Y-45621101D01*
X82877326Y-45591298D01*
X82877326Y-45591297D01*
X82877331Y-45591296D01*
X82992546Y-45505046D01*
X83078796Y-45389831D01*
X83129091Y-45254983D01*
X83135500Y-45195373D01*
X83135499Y-43924095D01*
X83155184Y-43857057D01*
X83207987Y-43811302D01*
X83277146Y-43801358D01*
X83340702Y-43830383D01*
X83347180Y-43836415D01*
X85074796Y-45564031D01*
X85108281Y-45625354D01*
X85103297Y-45695046D01*
X85061425Y-45750979D01*
X84995961Y-45775396D01*
X84967718Y-45774185D01*
X84922352Y-45767000D01*
X84717648Y-45767000D01*
X84693329Y-45770851D01*
X84515465Y-45799022D01*
X84320776Y-45862281D01*
X84138386Y-45955215D01*
X83972786Y-46075528D01*
X83828028Y-46220286D01*
X83707715Y-46385886D01*
X83614781Y-46568276D01*
X83551522Y-46762965D01*
X83519500Y-46965148D01*
X83519500Y-47169851D01*
X83551522Y-47372034D01*
X83614781Y-47566723D01*
X83707715Y-47749113D01*
X83828028Y-47914713D01*
X83972786Y-48059471D01*
X84121908Y-48167812D01*
X84138390Y-48179787D01*
X84247988Y-48235630D01*
X84320776Y-48272718D01*
X84320778Y-48272718D01*
X84320781Y-48272720D01*
X84425137Y-48306627D01*
X84515465Y-48335977D01*
X84571777Y-48344896D01*
X84717648Y-48368000D01*
X84717649Y-48368000D01*
X84922351Y-48368000D01*
X84922352Y-48368000D01*
X85124534Y-48335977D01*
X85319219Y-48272720D01*
X85501610Y-48179787D01*
X85594590Y-48112232D01*
X85667213Y-48059471D01*
X85667215Y-48059468D01*
X85667219Y-48059466D01*
X85811966Y-47914719D01*
X85811968Y-47914715D01*
X85811971Y-47914713D01*
X85919650Y-47766503D01*
X85932287Y-47749110D01*
X86025220Y-47566719D01*
X86088477Y-47372034D01*
X86120500Y-47169852D01*
X86120500Y-46965148D01*
X86090996Y-46778871D01*
X86095398Y-46744802D01*
X86099480Y-46710663D01*
X86099871Y-46710189D01*
X86099950Y-46709580D01*
X86122073Y-46683298D01*
X86143965Y-46656785D01*
X86144550Y-46656597D01*
X86144946Y-46656128D01*
X86177742Y-46645987D01*
X86210517Y-46635510D01*
X86211317Y-46635605D01*
X86211698Y-46635488D01*
X86245555Y-46639699D01*
X86306519Y-46656034D01*
X86347442Y-46667000D01*
X86347443Y-46667000D01*
X92126403Y-46667000D01*
X92155843Y-46675644D01*
X92185830Y-46682168D01*
X92190845Y-46685922D01*
X92193442Y-46686685D01*
X92214084Y-46703319D01*
X92363181Y-46852416D01*
X92396666Y-46913739D01*
X92399500Y-46940097D01*
X92399500Y-47420234D01*
X92379815Y-47487273D01*
X92378602Y-47489125D01*
X92290609Y-47620814D01*
X92290602Y-47620827D01*
X92230264Y-47766498D01*
X92230261Y-47766510D01*
X92199500Y-47921153D01*
X92199500Y-48078846D01*
X92230261Y-48233489D01*
X92230264Y-48233501D01*
X92290602Y-48379172D01*
X92290609Y-48379185D01*
X92378210Y-48510288D01*
X92378213Y-48510292D01*
X92489707Y-48621786D01*
X92489711Y-48621789D01*
X92620814Y-48709390D01*
X92620827Y-48709397D01*
X92756088Y-48765423D01*
X92766503Y-48769737D01*
X92921153Y-48800499D01*
X92921156Y-48800500D01*
X92921158Y-48800500D01*
X93078844Y-48800500D01*
X93078845Y-48800499D01*
X93233497Y-48769737D01*
X93377714Y-48710001D01*
X93379172Y-48709397D01*
X93379172Y-48709396D01*
X93379179Y-48709394D01*
X93510289Y-48621789D01*
X93621789Y-48510289D01*
X93709394Y-48379179D01*
X93714025Y-48368000D01*
X93760982Y-48254633D01*
X93769737Y-48233497D01*
X93800500Y-48078842D01*
X93800500Y-48025840D01*
X93820185Y-47958801D01*
X93872989Y-47913046D01*
X93942147Y-47903102D01*
X94005703Y-47932127D01*
X94012181Y-47938159D01*
X94133104Y-48059082D01*
X94298650Y-48179359D01*
X94480968Y-48272254D01*
X94675578Y-48335488D01*
X94730000Y-48344107D01*
X94730000Y-47383186D01*
X94734394Y-47387580D01*
X94825606Y-47440241D01*
X94927339Y-47467500D01*
X95032661Y-47467500D01*
X95134394Y-47440241D01*
X95225606Y-47387580D01*
X95230000Y-47383186D01*
X95230000Y-48344106D01*
X95284421Y-48335488D01*
X95479031Y-48272254D01*
X95661349Y-48179359D01*
X95826894Y-48059082D01*
X95826895Y-48059082D01*
X95971582Y-47914395D01*
X95971582Y-47914394D01*
X96091859Y-47748849D01*
X96184755Y-47566529D01*
X96247990Y-47371913D01*
X96256609Y-47317500D01*
X95295686Y-47317500D01*
X95300080Y-47313106D01*
X95352741Y-47221894D01*
X95380000Y-47120161D01*
X95380000Y-47014839D01*
X95352741Y-46913106D01*
X95300080Y-46821894D01*
X95295686Y-46817500D01*
X96256609Y-46817500D01*
X96247990Y-46763086D01*
X96184755Y-46568470D01*
X96091859Y-46386150D01*
X95971582Y-46220605D01*
X95971582Y-46220604D01*
X95826895Y-46075917D01*
X95661349Y-45955640D01*
X95479029Y-45862744D01*
X95284413Y-45799509D01*
X95230000Y-45790890D01*
X95230000Y-46751814D01*
X95225606Y-46747420D01*
X95134394Y-46694759D01*
X95032661Y-46667500D01*
X94927339Y-46667500D01*
X94825606Y-46694759D01*
X94734394Y-46747420D01*
X94730000Y-46751814D01*
X94730000Y-45790890D01*
X94675586Y-45799509D01*
X94480970Y-45862744D01*
X94298650Y-45955640D01*
X94133105Y-46075917D01*
X94133104Y-46075917D01*
X93988417Y-46220604D01*
X93988417Y-46220605D01*
X93868140Y-46386150D01*
X93808698Y-46502812D01*
X93760723Y-46553608D01*
X93692902Y-46570403D01*
X93626767Y-46547865D01*
X93583316Y-46493150D01*
X93578441Y-46478620D01*
X93559577Y-46408216D01*
X93546685Y-46385886D01*
X93480524Y-46271290D01*
X93480521Y-46271286D01*
X93480520Y-46271284D01*
X93368716Y-46159480D01*
X93368715Y-46159479D01*
X93364385Y-46155149D01*
X93364374Y-46155139D01*
X92914090Y-45704855D01*
X92914088Y-45704852D01*
X92795217Y-45585981D01*
X92795216Y-45585980D01*
X92708404Y-45535860D01*
X92708404Y-45535859D01*
X92708400Y-45535858D01*
X92658285Y-45506923D01*
X92505557Y-45465999D01*
X92347443Y-45465999D01*
X92339847Y-45465999D01*
X92339831Y-45466000D01*
X86726597Y-45466000D01*
X86659558Y-45446315D01*
X86638916Y-45429681D01*
X84184498Y-42975263D01*
X84169452Y-42947709D01*
X84152791Y-42921087D01*
X84152836Y-42917279D01*
X84151013Y-42913940D01*
X84153252Y-42882618D01*
X84153630Y-42851222D01*
X84155725Y-42848045D01*
X84155997Y-42844248D01*
X84174817Y-42819107D01*
X84192107Y-42792901D01*
X84196035Y-42790763D01*
X84197869Y-42788315D01*
X84222025Y-42774178D01*
X84230897Y-42770254D01*
X84233497Y-42769737D01*
X84379179Y-42709394D01*
X84400066Y-42695437D01*
X84409883Y-42691096D01*
X84434310Y-42687882D01*
X84457824Y-42680520D01*
X84460037Y-42680500D01*
X86770398Y-42680500D01*
X86837437Y-42700185D01*
X86880883Y-42748205D01*
X86887715Y-42761614D01*
X87008028Y-42927213D01*
X87152786Y-43071971D01*
X87253578Y-43145199D01*
X87318390Y-43192287D01*
X87434607Y-43251503D01*
X87500776Y-43285218D01*
X87500778Y-43285218D01*
X87500781Y-43285220D01*
X87594915Y-43315806D01*
X87695465Y-43348477D01*
X87796557Y-43364488D01*
X87897648Y-43380500D01*
X87897649Y-43380500D01*
X88102351Y-43380500D01*
X88102352Y-43380500D01*
X88304534Y-43348477D01*
X88352575Y-43332866D01*
X88422414Y-43330870D01*
X88452894Y-43343411D01*
X88498209Y-43369574D01*
X88498210Y-43369575D01*
X88498212Y-43369575D01*
X88498215Y-43369577D01*
X88650943Y-43410501D01*
X88650946Y-43410501D01*
X88816653Y-43410501D01*
X88816669Y-43410500D01*
X91203301Y-43410500D01*
X91270340Y-43430185D01*
X91316095Y-43482989D01*
X91327301Y-43534500D01*
X91327301Y-43619876D01*
X91333708Y-43679483D01*
X91384002Y-43814328D01*
X91384006Y-43814335D01*
X91470252Y-43929544D01*
X91470255Y-43929547D01*
X91585464Y-44015793D01*
X91585471Y-44015797D01*
X91720317Y-44066091D01*
X91720316Y-44066091D01*
X91727244Y-44066835D01*
X91779927Y-44072500D01*
X93399672Y-44072499D01*
X93459283Y-44066091D01*
X93594131Y-44015796D01*
X93709346Y-43929546D01*
X93795596Y-43814331D01*
X93845891Y-43679483D01*
X93852300Y-43619873D01*
X93852299Y-42000128D01*
X93845891Y-41940517D01*
X93842194Y-41930606D01*
X93795597Y-41805671D01*
X93795593Y-41805664D01*
X93709347Y-41690455D01*
X93709344Y-41690452D01*
X93594135Y-41604206D01*
X93594128Y-41604202D01*
X93459282Y-41553908D01*
X93459283Y-41553908D01*
X93399683Y-41547501D01*
X93399681Y-41547500D01*
X93399673Y-41547500D01*
X93399665Y-41547500D01*
X93360998Y-41547500D01*
X93293959Y-41527815D01*
X93248204Y-41475011D01*
X93238260Y-41405853D01*
X93267285Y-41342297D01*
X93288113Y-41323182D01*
X93311077Y-41306497D01*
X93412264Y-41232981D01*
X93552781Y-41092464D01*
X93669587Y-40931694D01*
X93759805Y-40754632D01*
X93821213Y-40565636D01*
X93852300Y-40369361D01*
X93852300Y-40170639D01*
X93821213Y-39974364D01*
X93781234Y-39851320D01*
X93759806Y-39785370D01*
X93759805Y-39785367D01*
X93701315Y-39670575D01*
X93669587Y-39608306D01*
X93552781Y-39447536D01*
X93412264Y-39307019D01*
X93251494Y-39190213D01*
X93095018Y-39110484D01*
X93044223Y-39062510D01*
X93027428Y-38994689D01*
X93049965Y-38928554D01*
X93095018Y-38889515D01*
X93251494Y-38809787D01*
X93412264Y-38692981D01*
X93552781Y-38552464D01*
X93669587Y-38391694D01*
X93759805Y-38214632D01*
X93821213Y-38025636D01*
X93852300Y-37829361D01*
X93852300Y-37630639D01*
X93821213Y-37434364D01*
X93770024Y-37276819D01*
X93759806Y-37245370D01*
X93759805Y-37245367D01*
X93713835Y-37155149D01*
X93669587Y-37068306D01*
X93552781Y-36907536D01*
X93412264Y-36767019D01*
X93251494Y-36650213D01*
X93094467Y-36570203D01*
X93043672Y-36522229D01*
X93026877Y-36454408D01*
X93049414Y-36388273D01*
X93094469Y-36349234D01*
X93251222Y-36269364D01*
X93288515Y-36242268D01*
X92725741Y-35679495D01*
X92785881Y-35663381D01*
X92901720Y-35596502D01*
X92996302Y-35501920D01*
X93063181Y-35386081D01*
X93079295Y-35325942D01*
X93642068Y-35888715D01*
X93669162Y-35851425D01*
X93759342Y-35674437D01*
X93820724Y-35485523D01*
X93820724Y-35485520D01*
X93851800Y-35289321D01*
X93851800Y-35090678D01*
X93820724Y-34894479D01*
X93820724Y-34894476D01*
X93759342Y-34705562D01*
X93669158Y-34528567D01*
X93642068Y-34491283D01*
X93079294Y-35054057D01*
X93063181Y-34993919D01*
X92996302Y-34878080D01*
X92901720Y-34783498D01*
X92785881Y-34716619D01*
X92725742Y-34700504D01*
X93288516Y-34137731D01*
X93288515Y-34137730D01*
X93251232Y-34110641D01*
X93074237Y-34020457D01*
X92885322Y-33959075D01*
X92689121Y-33928000D01*
X92490479Y-33928000D01*
X92294279Y-33959075D01*
X92294276Y-33959075D01*
X92105362Y-34020457D01*
X91928364Y-34110643D01*
X91891083Y-34137729D01*
X91891082Y-34137730D01*
X92453858Y-34700504D01*
X92393719Y-34716619D01*
X92277880Y-34783498D01*
X92183298Y-34878080D01*
X92116419Y-34993919D01*
X92100304Y-35054058D01*
X91537530Y-34491282D01*
X91537529Y-34491283D01*
X91510443Y-34528564D01*
X91420257Y-34705562D01*
X91358875Y-34894476D01*
X91358875Y-34894479D01*
X91327800Y-35090678D01*
X91327800Y-35177981D01*
X91308115Y-35245020D01*
X91255311Y-35290775D01*
X91186153Y-35300719D01*
X91122597Y-35271694D01*
X91116119Y-35265662D01*
X90736819Y-34886362D01*
X90703334Y-34825039D01*
X90700500Y-34798681D01*
X90700500Y-30571004D01*
X90673581Y-30435677D01*
X90673580Y-30435676D01*
X90673580Y-30435672D01*
X90644848Y-30366306D01*
X90620778Y-30308195D01*
X90620771Y-30308182D01*
X90544115Y-30193459D01*
X90530566Y-30179910D01*
X90446542Y-30095886D01*
X89879909Y-29529253D01*
X88157839Y-27807181D01*
X88124354Y-27745858D01*
X88129338Y-27676166D01*
X88171210Y-27620233D01*
X88236674Y-27595816D01*
X88245520Y-27595500D01*
X95553481Y-27595500D01*
X95620520Y-27615185D01*
G37*
G04 #@! TD.AperFunction*
G04 #@! TA.AperFunction,Conductor*
G36*
X70166405Y-27615185D02*
G01*
X70212160Y-27667989D01*
X70222104Y-27737147D01*
X70221839Y-27738897D01*
X70195500Y-27905198D01*
X70195500Y-28094800D01*
X70225157Y-28282050D01*
X70225158Y-28282055D01*
X70264750Y-28403905D01*
X70283747Y-28462372D01*
X70364458Y-28620775D01*
X70369819Y-28631296D01*
X70481259Y-28784679D01*
X70615321Y-28918741D01*
X70768704Y-29030181D01*
X70848515Y-29070846D01*
X70937627Y-29116252D01*
X70937629Y-29116252D01*
X70937632Y-29116254D01*
X71047860Y-29152069D01*
X71105534Y-29191507D01*
X71132732Y-29255866D01*
X71120817Y-29324712D01*
X71073573Y-29376188D01*
X71047861Y-29387929D01*
X71005838Y-29401583D01*
X70937627Y-29423747D01*
X70768703Y-29509819D01*
X70615319Y-29621260D01*
X70481260Y-29755319D01*
X70369819Y-29908703D01*
X70283747Y-30077627D01*
X70225157Y-30257949D01*
X70195500Y-30445199D01*
X70195500Y-30634800D01*
X70224247Y-30816306D01*
X70225158Y-30822055D01*
X70259593Y-30928034D01*
X70283747Y-31002372D01*
X70319626Y-31072787D01*
X70369819Y-31171296D01*
X70481259Y-31324679D01*
X70615321Y-31458741D01*
X70768704Y-31570181D01*
X70848515Y-31610846D01*
X70937627Y-31656252D01*
X70937629Y-31656252D01*
X70937632Y-31656254D01*
X71047860Y-31692069D01*
X71105534Y-31731507D01*
X71132732Y-31795866D01*
X71120817Y-31864712D01*
X71073573Y-31916188D01*
X71047861Y-31927929D01*
X71005838Y-31941583D01*
X70937627Y-31963747D01*
X70768703Y-32049819D01*
X70615319Y-32161260D01*
X70481260Y-32295319D01*
X70369819Y-32448703D01*
X70283747Y-32617627D01*
X70225157Y-32797949D01*
X70195500Y-32985199D01*
X70195500Y-33174800D01*
X70211444Y-33275465D01*
X70225158Y-33362055D01*
X70262717Y-33477648D01*
X70283747Y-33542372D01*
X70355071Y-33682351D01*
X70369819Y-33711296D01*
X70481259Y-33864679D01*
X70615321Y-33998741D01*
X70768704Y-34110181D01*
X70822770Y-34137729D01*
X70937627Y-34196252D01*
X70937629Y-34196252D01*
X70937632Y-34196254D01*
X71047860Y-34232069D01*
X71105534Y-34271507D01*
X71132732Y-34335866D01*
X71120817Y-34404712D01*
X71073573Y-34456188D01*
X71047861Y-34467929D01*
X71005838Y-34481583D01*
X70937627Y-34503747D01*
X70768703Y-34589819D01*
X70615319Y-34701260D01*
X70481260Y-34835319D01*
X70369819Y-34988703D01*
X70283747Y-35157627D01*
X70225157Y-35337949D01*
X70195500Y-35525199D01*
X70195500Y-35714800D01*
X70224215Y-35896102D01*
X70215260Y-35965396D01*
X70170264Y-36018848D01*
X70103512Y-36039487D01*
X70101742Y-36039500D01*
X47606670Y-36039500D01*
X47606654Y-36039499D01*
X47599058Y-36039499D01*
X47440943Y-36039499D01*
X47440942Y-36039499D01*
X47321144Y-36071599D01*
X47251295Y-36069936D01*
X47193432Y-36030773D01*
X47165928Y-35966545D01*
X47171121Y-35913505D01*
X47174842Y-35902055D01*
X47182861Y-35851425D01*
X47204500Y-35714800D01*
X47204500Y-35525199D01*
X47187554Y-35418210D01*
X47174842Y-35337945D01*
X47116254Y-35157632D01*
X47116252Y-35157629D01*
X47116252Y-35157627D01*
X47030180Y-34988703D01*
X46961722Y-34894479D01*
X46918741Y-34835321D01*
X46784679Y-34701259D01*
X46631296Y-34589819D01*
X46462368Y-34503746D01*
X46352139Y-34467930D01*
X46294465Y-34428493D01*
X46267267Y-34364135D01*
X46279182Y-34295288D01*
X46326426Y-34243813D01*
X46352138Y-34232070D01*
X46462368Y-34196254D01*
X46631296Y-34110181D01*
X46784679Y-33998741D01*
X46918741Y-33864679D01*
X47030181Y-33711296D01*
X47116254Y-33542368D01*
X47174842Y-33362055D01*
X47191318Y-33258022D01*
X47204500Y-33174800D01*
X47204500Y-32985199D01*
X47187394Y-32877200D01*
X47174842Y-32797945D01*
X47116254Y-32617632D01*
X47116252Y-32617629D01*
X47116252Y-32617627D01*
X47070846Y-32528515D01*
X47030181Y-32448704D01*
X46918741Y-32295321D01*
X46784679Y-32161259D01*
X46631296Y-32049819D01*
X46589779Y-32028665D01*
X46462372Y-31963747D01*
X46424244Y-31951358D01*
X46351329Y-31927666D01*
X46293656Y-31888230D01*
X46266458Y-31823871D01*
X46278373Y-31755025D01*
X46325617Y-31703549D01*
X46351332Y-31691806D01*
X46462183Y-31655788D01*
X46462184Y-31655787D01*
X46631027Y-31569756D01*
X46631043Y-31569746D01*
X46657192Y-31550746D01*
X46657193Y-31550745D01*
X46088585Y-30982137D01*
X46173694Y-30959333D01*
X46276306Y-30900090D01*
X46360090Y-30816306D01*
X46419333Y-30713694D01*
X46442137Y-30628585D01*
X47010745Y-31197193D01*
X47010746Y-31197192D01*
X47029746Y-31171043D01*
X47029756Y-31171027D01*
X47115787Y-31002184D01*
X47115788Y-31002182D01*
X47174354Y-30821937D01*
X47204000Y-30634762D01*
X47204000Y-30445237D01*
X47174354Y-30258062D01*
X47115789Y-30077821D01*
X47029752Y-29908966D01*
X47010745Y-29882806D01*
X46442137Y-30451414D01*
X46419333Y-30366306D01*
X46360090Y-30263694D01*
X46276306Y-30179910D01*
X46173694Y-30120667D01*
X46088584Y-30097861D01*
X46657193Y-29529253D01*
X46631033Y-29510246D01*
X46462180Y-29424210D01*
X46351331Y-29388193D01*
X46293656Y-29348755D01*
X46266458Y-29284396D01*
X46278373Y-29215550D01*
X46325617Y-29164074D01*
X46351322Y-29152335D01*
X46462368Y-29116254D01*
X46631296Y-29030181D01*
X46784679Y-28918741D01*
X46918741Y-28784679D01*
X46935072Y-28762201D01*
X46942765Y-28751614D01*
X46998095Y-28708948D01*
X47043082Y-28700500D01*
X60708996Y-28700500D01*
X60800040Y-28682389D01*
X60844328Y-28673580D01*
X60946411Y-28631296D01*
X60971807Y-28620777D01*
X60971808Y-28620776D01*
X60971811Y-28620775D01*
X61086543Y-28544114D01*
X61266541Y-28364115D01*
X61266543Y-28364114D01*
X61998838Y-27631819D01*
X62060161Y-27598334D01*
X62086519Y-27595500D01*
X70099366Y-27595500D01*
X70166405Y-27615185D01*
G37*
G04 #@! TD.AperFunction*
G04 #@! TA.AperFunction,Conductor*
G36*
X22395098Y-49260185D02*
G01*
X22440853Y-49312989D01*
X22450797Y-49382147D01*
X22421772Y-49445703D01*
X22415740Y-49452181D01*
X22378213Y-49489707D01*
X22378210Y-49489711D01*
X22290609Y-49620814D01*
X22290602Y-49620827D01*
X22230264Y-49766498D01*
X22230261Y-49766510D01*
X22199500Y-49921153D01*
X22199500Y-50078846D01*
X22230261Y-50233489D01*
X22230264Y-50233501D01*
X22290061Y-50377864D01*
X22299500Y-50425316D01*
X22299500Y-57931006D01*
X22299500Y-58068994D01*
X22299500Y-58068996D01*
X22299499Y-58068996D01*
X22326418Y-58204322D01*
X22326421Y-58204332D01*
X22379222Y-58331807D01*
X22455887Y-58446545D01*
X22455888Y-58446546D01*
X27599181Y-63589838D01*
X27632666Y-63651161D01*
X27635500Y-63677519D01*
X27635500Y-66798697D01*
X27615815Y-66865736D01*
X27563011Y-66911491D01*
X27493853Y-66921435D01*
X27473183Y-66916628D01*
X27401244Y-66893254D01*
X27401240Y-66893253D01*
X27239957Y-66867708D01*
X27191287Y-66860000D01*
X26978713Y-66860000D01*
X26930042Y-66867708D01*
X26768760Y-66893253D01*
X26566585Y-66958944D01*
X26377179Y-67055451D01*
X26205213Y-67180390D01*
X26054890Y-67330713D01*
X25929949Y-67502682D01*
X25925484Y-67511446D01*
X25877509Y-67562242D01*
X25809688Y-67579036D01*
X25743553Y-67556498D01*
X25704516Y-67511446D01*
X25700050Y-67502682D01*
X25575109Y-67330713D01*
X25424786Y-67180390D01*
X25252820Y-67055451D01*
X25063414Y-66958944D01*
X25063413Y-66958943D01*
X25063412Y-66958943D01*
X24861243Y-66893254D01*
X24861241Y-66893253D01*
X24861240Y-66893253D01*
X24699957Y-66867708D01*
X24651287Y-66860000D01*
X24438713Y-66860000D01*
X24390042Y-66867708D01*
X24228760Y-66893253D01*
X24026582Y-66958945D01*
X23936794Y-67004694D01*
X23868125Y-67017590D01*
X23803385Y-66991313D01*
X23763128Y-66934207D01*
X23756500Y-66894209D01*
X23756500Y-66405060D01*
X23756501Y-66405047D01*
X23756501Y-66236944D01*
X23715576Y-66084214D01*
X23715573Y-66084209D01*
X23636524Y-65947290D01*
X23636518Y-65947282D01*
X22134077Y-64444842D01*
X22100592Y-64383519D01*
X22103828Y-64318841D01*
X22108477Y-64304534D01*
X22140500Y-64102352D01*
X22140500Y-63897648D01*
X22132257Y-63845606D01*
X22108477Y-63695465D01*
X22045218Y-63500776D01*
X21952419Y-63318650D01*
X21952287Y-63318390D01*
X21944556Y-63307749D01*
X21831971Y-63152786D01*
X21687213Y-63008028D01*
X21521613Y-62887715D01*
X21521612Y-62887714D01*
X21521610Y-62887713D01*
X21464653Y-62858691D01*
X21339223Y-62794781D01*
X21144534Y-62731522D01*
X20969995Y-62703878D01*
X20942352Y-62699500D01*
X20737648Y-62699500D01*
X20713329Y-62703351D01*
X20535465Y-62731522D01*
X20340776Y-62794781D01*
X20158386Y-62887715D01*
X19992786Y-63008028D01*
X19848028Y-63152786D01*
X19727715Y-63318386D01*
X19634781Y-63500776D01*
X19571522Y-63695465D01*
X19539500Y-63897648D01*
X19539500Y-64102351D01*
X19571522Y-64304534D01*
X19634781Y-64499223D01*
X19727715Y-64681613D01*
X19848028Y-64847213D01*
X19992786Y-64991971D01*
X20147749Y-65104556D01*
X20158390Y-65112287D01*
X20274607Y-65171503D01*
X20340776Y-65205218D01*
X20340778Y-65205218D01*
X20340781Y-65205220D01*
X20445137Y-65239127D01*
X20535465Y-65268477D01*
X20636557Y-65284488D01*
X20737648Y-65300500D01*
X20737649Y-65300500D01*
X20942351Y-65300500D01*
X20942352Y-65300500D01*
X21144534Y-65268477D01*
X21158842Y-65263827D01*
X21228682Y-65261831D01*
X21284842Y-65294077D01*
X22519181Y-66528416D01*
X22533884Y-66555343D01*
X22550477Y-66581162D01*
X22551368Y-66587362D01*
X22552666Y-66589739D01*
X22555500Y-66616097D01*
X22555500Y-66798697D01*
X22535815Y-66865736D01*
X22483011Y-66911491D01*
X22413853Y-66921435D01*
X22393183Y-66916628D01*
X22321244Y-66893254D01*
X22321240Y-66893253D01*
X22159957Y-66867708D01*
X22111287Y-66860000D01*
X21898713Y-66860000D01*
X21870006Y-66864546D01*
X21688757Y-66893253D01*
X21646473Y-66906992D01*
X21576632Y-66908986D01*
X21520476Y-66876741D01*
X15636819Y-60993084D01*
X15603334Y-60931761D01*
X15600500Y-60905403D01*
X15600500Y-57139047D01*
X15620185Y-57072008D01*
X15672989Y-57026253D01*
X15742147Y-57016309D01*
X15805703Y-57045334D01*
X15812181Y-57051366D01*
X15912786Y-57151971D01*
X16067749Y-57264556D01*
X16078390Y-57272287D01*
X16167212Y-57317544D01*
X16260776Y-57365218D01*
X16260778Y-57365218D01*
X16260781Y-57365220D01*
X16365137Y-57399127D01*
X16455465Y-57428477D01*
X16556557Y-57444488D01*
X16657648Y-57460500D01*
X16657649Y-57460500D01*
X16862351Y-57460500D01*
X16862352Y-57460500D01*
X17064534Y-57428477D01*
X17259219Y-57365220D01*
X17441610Y-57272287D01*
X17537901Y-57202328D01*
X17607213Y-57151971D01*
X17607215Y-57151968D01*
X17607219Y-57151966D01*
X17751966Y-57007219D01*
X17751968Y-57007215D01*
X17751971Y-57007213D01*
X17804732Y-56934590D01*
X17872287Y-56841610D01*
X17965220Y-56659219D01*
X18028477Y-56464534D01*
X18060500Y-56262352D01*
X18060500Y-56057648D01*
X18028477Y-55855466D01*
X17965220Y-55660781D01*
X17965218Y-55660778D01*
X17965218Y-55660776D01*
X17919500Y-55571050D01*
X17872287Y-55478390D01*
X17848391Y-55445500D01*
X17751971Y-55312786D01*
X17607213Y-55168028D01*
X17441611Y-55047713D01*
X17348369Y-55000203D01*
X17297574Y-54952229D01*
X17280779Y-54884407D01*
X17303317Y-54818273D01*
X17348371Y-54779234D01*
X17441347Y-54731861D01*
X17606894Y-54611582D01*
X17606895Y-54611582D01*
X17751582Y-54466895D01*
X17751582Y-54466894D01*
X17871859Y-54301349D01*
X17964755Y-54119029D01*
X18027990Y-53924413D01*
X18036609Y-53870000D01*
X17193012Y-53870000D01*
X17225925Y-53812993D01*
X17260000Y-53685826D01*
X17260000Y-53554174D01*
X17225925Y-53427007D01*
X17193012Y-53370000D01*
X18036609Y-53370000D01*
X18027990Y-53315586D01*
X17964755Y-53120970D01*
X17871859Y-52938650D01*
X17751582Y-52773105D01*
X17751582Y-52773104D01*
X17606895Y-52628417D01*
X17441349Y-52508140D01*
X17348370Y-52460765D01*
X17297574Y-52412790D01*
X17280779Y-52344969D01*
X17303316Y-52278835D01*
X17348370Y-52239795D01*
X17441610Y-52192287D01*
X17571396Y-52097993D01*
X17607213Y-52071971D01*
X17607215Y-52071968D01*
X17607219Y-52071966D01*
X17751966Y-51927219D01*
X17751968Y-51927215D01*
X17751971Y-51927213D01*
X17804732Y-51854590D01*
X17872287Y-51761610D01*
X17965220Y-51579219D01*
X18028477Y-51384534D01*
X18060500Y-51182352D01*
X18060500Y-50977648D01*
X18028477Y-50775466D01*
X17965220Y-50580781D01*
X17965218Y-50580778D01*
X17965218Y-50580776D01*
X17907970Y-50468422D01*
X17872287Y-50398390D01*
X17835181Y-50347317D01*
X17751971Y-50232786D01*
X17607213Y-50088028D01*
X17441614Y-49967715D01*
X17435006Y-49964348D01*
X17348917Y-49920483D01*
X17298123Y-49872511D01*
X17281328Y-49804690D01*
X17303865Y-49738555D01*
X17348917Y-49699516D01*
X17441610Y-49652287D01*
X17484929Y-49620814D01*
X17607213Y-49531971D01*
X17607215Y-49531968D01*
X17607219Y-49531966D01*
X17751966Y-49387219D01*
X17821425Y-49291615D01*
X17876755Y-49248949D01*
X17921744Y-49240500D01*
X22328059Y-49240500D01*
X22395098Y-49260185D01*
G37*
G04 #@! TD.AperFunction*
G04 #@! TA.AperFunction,Conductor*
G36*
X26686942Y-41540185D02*
G01*
X26707584Y-41556819D01*
X27536139Y-42385374D01*
X27536149Y-42385385D01*
X27540479Y-42389715D01*
X27540480Y-42389716D01*
X27652284Y-42501520D01*
X27739095Y-42551639D01*
X27739097Y-42551641D01*
X27768530Y-42568634D01*
X27789215Y-42580577D01*
X27941943Y-42621500D01*
X28100057Y-42621500D01*
X30765303Y-42621500D01*
X30832342Y-42641185D01*
X30878097Y-42693989D01*
X30888041Y-42763147D01*
X30875788Y-42801792D01*
X30867101Y-42818843D01*
X30794781Y-42960776D01*
X30731522Y-43155465D01*
X30699500Y-43357648D01*
X30699500Y-43562351D01*
X30731522Y-43764534D01*
X30794781Y-43959223D01*
X30887715Y-44141613D01*
X31008028Y-44307213D01*
X31152786Y-44451971D01*
X31307749Y-44564556D01*
X31318390Y-44572287D01*
X31409840Y-44618883D01*
X31411080Y-44619515D01*
X31461876Y-44667490D01*
X31478671Y-44735311D01*
X31456134Y-44801446D01*
X31411080Y-44840485D01*
X31318386Y-44887715D01*
X31152786Y-45008028D01*
X31008028Y-45152786D01*
X30887715Y-45318386D01*
X30794781Y-45500776D01*
X30731522Y-45695465D01*
X30699500Y-45897648D01*
X30699500Y-46102351D01*
X30731522Y-46304534D01*
X30794781Y-46499223D01*
X30887715Y-46681613D01*
X31008028Y-46847213D01*
X31152786Y-46991971D01*
X31248385Y-47061426D01*
X31318390Y-47112287D01*
X31390424Y-47148990D01*
X31411629Y-47159795D01*
X31462425Y-47207770D01*
X31479220Y-47275591D01*
X31456682Y-47341726D01*
X31411629Y-47380765D01*
X31318650Y-47428140D01*
X31153105Y-47548417D01*
X31153104Y-47548417D01*
X31008417Y-47693104D01*
X31008417Y-47693105D01*
X30888140Y-47858650D01*
X30795244Y-48040970D01*
X30732009Y-48235586D01*
X30723391Y-48290000D01*
X31566988Y-48290000D01*
X31534075Y-48347007D01*
X31500000Y-48474174D01*
X31500000Y-48605826D01*
X31534075Y-48732993D01*
X31566988Y-48790000D01*
X30754085Y-48790000D01*
X30741526Y-48786312D01*
X30728478Y-48787327D01*
X30708648Y-48776658D01*
X30687046Y-48770315D01*
X30677073Y-48759670D01*
X30666949Y-48754223D01*
X30654164Y-48735217D01*
X30645623Y-48726100D01*
X30642214Y-48719948D01*
X30620775Y-48668189D01*
X30581222Y-48608994D01*
X30578358Y-48604708D01*
X30578355Y-48604702D01*
X30544115Y-48553458D01*
X30544109Y-48553451D01*
X29986545Y-47995887D01*
X29871807Y-47919222D01*
X29744332Y-47866421D01*
X29744322Y-47866418D01*
X29608996Y-47839500D01*
X29608994Y-47839500D01*
X29608993Y-47839500D01*
X17921744Y-47839500D01*
X17854705Y-47819815D01*
X17821425Y-47788384D01*
X17751969Y-47692784D01*
X17607213Y-47548028D01*
X17441614Y-47427715D01*
X17374457Y-47393497D01*
X17348917Y-47380483D01*
X17298123Y-47332511D01*
X17281328Y-47264690D01*
X17303865Y-47198555D01*
X17348917Y-47159516D01*
X17441610Y-47112287D01*
X17511615Y-47061426D01*
X17607213Y-46991971D01*
X17607215Y-46991968D01*
X17607219Y-46991966D01*
X17751966Y-46847219D01*
X17751968Y-46847215D01*
X17751971Y-46847213D01*
X17805061Y-46774140D01*
X17872287Y-46681610D01*
X17965220Y-46499219D01*
X18028477Y-46304534D01*
X18060500Y-46102352D01*
X18060500Y-45897648D01*
X18028477Y-45695466D01*
X17965220Y-45500781D01*
X17965218Y-45500778D01*
X17965218Y-45500776D01*
X17919500Y-45411050D01*
X17872287Y-45318390D01*
X17864556Y-45307749D01*
X17751971Y-45152786D01*
X17607213Y-45008028D01*
X17441614Y-44887715D01*
X17435006Y-44884348D01*
X17348917Y-44840483D01*
X17298123Y-44792511D01*
X17281328Y-44724690D01*
X17303865Y-44658555D01*
X17348917Y-44619516D01*
X17441610Y-44572287D01*
X17462770Y-44556913D01*
X17607213Y-44451971D01*
X17607215Y-44451968D01*
X17607219Y-44451966D01*
X17751966Y-44307219D01*
X17751968Y-44307215D01*
X17751971Y-44307213D01*
X17804732Y-44234590D01*
X17872287Y-44141610D01*
X17965220Y-43959219D01*
X18028477Y-43764534D01*
X18060500Y-43562352D01*
X18060500Y-43357648D01*
X18028477Y-43155465D01*
X17965218Y-42960776D01*
X17919500Y-42871050D01*
X17872287Y-42778390D01*
X17810967Y-42693989D01*
X17751971Y-42612786D01*
X17607213Y-42468028D01*
X17441614Y-42347715D01*
X17435006Y-42344348D01*
X17348917Y-42300483D01*
X17298123Y-42252511D01*
X17281328Y-42184690D01*
X17303865Y-42118555D01*
X17348917Y-42079516D01*
X17441610Y-42032287D01*
X17462770Y-42016913D01*
X17607213Y-41911971D01*
X17607215Y-41911968D01*
X17607219Y-41911966D01*
X17751966Y-41767219D01*
X17751968Y-41767215D01*
X17751971Y-41767213D01*
X17872284Y-41601614D01*
X17872283Y-41601614D01*
X17872287Y-41601610D01*
X17879117Y-41588204D01*
X17927091Y-41537409D01*
X17989602Y-41520500D01*
X26619903Y-41520500D01*
X26686942Y-41540185D01*
G37*
G04 #@! TD.AperFunction*
G04 #@! TA.AperFunction,Conductor*
G36*
X39943039Y-12520185D02*
G01*
X39988794Y-12572989D01*
X40000000Y-12624500D01*
X40000000Y-79375500D01*
X39980315Y-79442539D01*
X39927511Y-79488294D01*
X39876000Y-79499500D01*
X12624500Y-79499500D01*
X12557461Y-79479815D01*
X12511706Y-79427011D01*
X12500500Y-79375500D01*
X12500500Y-77998226D01*
X12520185Y-77931187D01*
X12572989Y-77885432D01*
X12642147Y-77875488D01*
X12705703Y-77904513D01*
X12742431Y-77959908D01*
X12748444Y-77978414D01*
X12844951Y-78167820D01*
X12969890Y-78339786D01*
X13120213Y-78490109D01*
X13292179Y-78615048D01*
X13292181Y-78615049D01*
X13292184Y-78615051D01*
X13481588Y-78711557D01*
X13683757Y-78777246D01*
X13893713Y-78810500D01*
X13893714Y-78810500D01*
X14106286Y-78810500D01*
X14106287Y-78810500D01*
X14316243Y-78777246D01*
X14518412Y-78711557D01*
X14707816Y-78615051D01*
X14729789Y-78599086D01*
X14879786Y-78490109D01*
X14879788Y-78490106D01*
X14879792Y-78490104D01*
X15030104Y-78339792D01*
X15030106Y-78339788D01*
X15030109Y-78339786D01*
X15155048Y-78167820D01*
X15155047Y-78167820D01*
X15155051Y-78167816D01*
X15251557Y-77978412D01*
X15317246Y-77776243D01*
X15350500Y-77566287D01*
X15350500Y-77353713D01*
X15317246Y-77143757D01*
X15251557Y-76941588D01*
X15155051Y-76752184D01*
X15155049Y-76752181D01*
X15155048Y-76752179D01*
X15030109Y-76580213D01*
X14879786Y-76429890D01*
X14707820Y-76304951D01*
X14518414Y-76208444D01*
X14518413Y-76208443D01*
X14518412Y-76208443D01*
X14316243Y-76142754D01*
X14316241Y-76142753D01*
X14316240Y-76142753D01*
X14154957Y-76117208D01*
X14106287Y-76109500D01*
X13893713Y-76109500D01*
X13845042Y-76117208D01*
X13683760Y-76142753D01*
X13481585Y-76208444D01*
X13292179Y-76304951D01*
X13120213Y-76429890D01*
X12969890Y-76580213D01*
X12844951Y-76752179D01*
X12748445Y-76941582D01*
X12748443Y-76941587D01*
X12748443Y-76941588D01*
X12742429Y-76960094D01*
X12702992Y-77017768D01*
X12638633Y-77044965D01*
X12569787Y-77033050D01*
X12518312Y-76985805D01*
X12500500Y-76921773D01*
X12500500Y-61284554D01*
X14399498Y-61284554D01*
X14440423Y-61437285D01*
X14469358Y-61487400D01*
X14469359Y-61487404D01*
X14469360Y-61487404D01*
X14519479Y-61574214D01*
X14519481Y-61574217D01*
X14638349Y-61693085D01*
X14638355Y-61693090D01*
X20671241Y-67725976D01*
X20704726Y-67787299D01*
X20701492Y-67851973D01*
X20687753Y-67894257D01*
X20654500Y-68104213D01*
X20654500Y-68316787D01*
X20687754Y-68526743D01*
X20705310Y-68580776D01*
X20753444Y-68728914D01*
X20849951Y-68918320D01*
X20974890Y-69090286D01*
X21125213Y-69240609D01*
X21297182Y-69365550D01*
X21305946Y-69370016D01*
X21356742Y-69417991D01*
X21373536Y-69485812D01*
X21350998Y-69551947D01*
X21305946Y-69590984D01*
X21297182Y-69595449D01*
X21125213Y-69720390D01*
X20974890Y-69870713D01*
X20849951Y-70042679D01*
X20753444Y-70232085D01*
X20687753Y-70434260D01*
X20654500Y-70644213D01*
X20654500Y-70856786D01*
X20687753Y-71066739D01*
X20687753Y-71066741D01*
X20687754Y-71066743D01*
X20749849Y-71257852D01*
X20753444Y-71268914D01*
X20849951Y-71458320D01*
X20974890Y-71630286D01*
X21125213Y-71780609D01*
X21297179Y-71905548D01*
X21297181Y-71905549D01*
X21297184Y-71905551D01*
X21486588Y-72002057D01*
X21688757Y-72067746D01*
X21898713Y-72101000D01*
X21898714Y-72101000D01*
X22111286Y-72101000D01*
X22111287Y-72101000D01*
X22321243Y-72067746D01*
X22523412Y-72002057D01*
X22712816Y-71905551D01*
X22807102Y-71837049D01*
X22884786Y-71780609D01*
X22884788Y-71780606D01*
X22884792Y-71780604D01*
X22903768Y-71761627D01*
X22965089Y-71728141D01*
X23034781Y-71733124D01*
X23079131Y-71761626D01*
X23681879Y-72364374D01*
X23681889Y-72364385D01*
X23686219Y-72368715D01*
X23686220Y-72368716D01*
X23798024Y-72480520D01*
X23884835Y-72530639D01*
X23884837Y-72530641D01*
X23934953Y-72559576D01*
X23934955Y-72559577D01*
X24087682Y-72600500D01*
X24087683Y-72600500D01*
X30699902Y-72600500D01*
X30766941Y-72620185D01*
X30767330Y-72620435D01*
X30778319Y-72627555D01*
X30796284Y-72645520D01*
X30883095Y-72695639D01*
X30885855Y-72697232D01*
X30885865Y-72697239D01*
X30933213Y-72724576D01*
X30933215Y-72724577D01*
X31085942Y-72765500D01*
X31085943Y-72765500D01*
X33205501Y-72765500D01*
X33272540Y-72785185D01*
X33318295Y-72837989D01*
X33329501Y-72889500D01*
X33329501Y-73112876D01*
X33335908Y-73172483D01*
X33386202Y-73307328D01*
X33386206Y-73307335D01*
X33472452Y-73422544D01*
X33472455Y-73422547D01*
X33587664Y-73508793D01*
X33587671Y-73508797D01*
X33722517Y-73559091D01*
X33722516Y-73559091D01*
X33729444Y-73559835D01*
X33782127Y-73565500D01*
X35677872Y-73565499D01*
X35737483Y-73559091D01*
X35872331Y-73508796D01*
X35987546Y-73422546D01*
X36073796Y-73307331D01*
X36101429Y-73233243D01*
X36103601Y-73227420D01*
X36145471Y-73171486D01*
X36210936Y-73147068D01*
X36279209Y-73161919D01*
X36307464Y-73183071D01*
X36357636Y-73233243D01*
X36357641Y-73233247D01*
X36459603Y-73307326D01*
X36535978Y-73362815D01*
X36664375Y-73428237D01*
X36732393Y-73462895D01*
X36732396Y-73462896D01*
X36837221Y-73496955D01*
X36942049Y-73531015D01*
X37159778Y-73565500D01*
X37159779Y-73565500D01*
X37380221Y-73565500D01*
X37380222Y-73565500D01*
X37597951Y-73531015D01*
X37807606Y-73462895D01*
X38004022Y-73362815D01*
X38182365Y-73233242D01*
X38338242Y-73077365D01*
X38467815Y-72899022D01*
X38567895Y-72702606D01*
X38636015Y-72492951D01*
X38670500Y-72275222D01*
X38670500Y-72054778D01*
X38636015Y-71837049D01*
X38567895Y-71627394D01*
X38567895Y-71627393D01*
X38506825Y-71507539D01*
X38467815Y-71430978D01*
X38444944Y-71399499D01*
X38338247Y-71252641D01*
X38338243Y-71252636D01*
X38182363Y-71096756D01*
X38182358Y-71096752D01*
X38004025Y-70967187D01*
X38004024Y-70967186D01*
X38004022Y-70967185D01*
X37886791Y-70907452D01*
X37807606Y-70867104D01*
X37807603Y-70867103D01*
X37597952Y-70798985D01*
X37489086Y-70781742D01*
X37380222Y-70764500D01*
X37159778Y-70764500D01*
X37087201Y-70775995D01*
X36942047Y-70798985D01*
X36732396Y-70867103D01*
X36732393Y-70867104D01*
X36535974Y-70967187D01*
X36357641Y-71096752D01*
X36357636Y-71096756D01*
X36307463Y-71146929D01*
X36246140Y-71180413D01*
X36176448Y-71175428D01*
X36120515Y-71133557D01*
X36103601Y-71102580D01*
X36073797Y-71022671D01*
X36073793Y-71022664D01*
X35987547Y-70907455D01*
X35987544Y-70907452D01*
X35872335Y-70821206D01*
X35872328Y-70821202D01*
X35737482Y-70770908D01*
X35737483Y-70770908D01*
X35677883Y-70764501D01*
X35677881Y-70764500D01*
X35677873Y-70764500D01*
X35677864Y-70764500D01*
X33782129Y-70764500D01*
X33782123Y-70764501D01*
X33722516Y-70770908D01*
X33587671Y-70821202D01*
X33587664Y-70821206D01*
X33472455Y-70907452D01*
X33472452Y-70907455D01*
X33386206Y-71022664D01*
X33386202Y-71022671D01*
X33335908Y-71157517D01*
X33329501Y-71217116D01*
X33329500Y-71217135D01*
X33329500Y-71440500D01*
X33309815Y-71507539D01*
X33257011Y-71553294D01*
X33205500Y-71564500D01*
X31465098Y-71564500D01*
X31398380Y-71545021D01*
X31386980Y-71537744D01*
X31368716Y-71519480D01*
X31262776Y-71458316D01*
X31260393Y-71456940D01*
X31260385Y-71456935D01*
X31231783Y-71440422D01*
X31175881Y-71425443D01*
X31079057Y-71399499D01*
X31004798Y-71399499D01*
X30937759Y-71379814D01*
X30892004Y-71327010D01*
X30882060Y-71257852D01*
X30886867Y-71237181D01*
X30893383Y-71217127D01*
X30942246Y-71066743D01*
X30975500Y-70856787D01*
X30975500Y-70644213D01*
X30942246Y-70434257D01*
X30876557Y-70232088D01*
X30780051Y-70042684D01*
X30780049Y-70042681D01*
X30780048Y-70042679D01*
X30655109Y-69870713D01*
X30541181Y-69756785D01*
X30507696Y-69695462D01*
X30512680Y-69625770D01*
X30554552Y-69569837D01*
X30585529Y-69552922D01*
X30717086Y-69503854D01*
X30717093Y-69503850D01*
X30832187Y-69417690D01*
X30832190Y-69417687D01*
X30918350Y-69302593D01*
X30918354Y-69302586D01*
X30968596Y-69167879D01*
X30968598Y-69167872D01*
X30974999Y-69108344D01*
X30975000Y-69108327D01*
X30975000Y-68977648D01*
X34699500Y-68977648D01*
X34699500Y-69182351D01*
X34731522Y-69384534D01*
X34794781Y-69579223D01*
X34854009Y-69695462D01*
X34866713Y-69720396D01*
X34887715Y-69761613D01*
X35008028Y-69927213D01*
X35152786Y-70071971D01*
X35307749Y-70184556D01*
X35318390Y-70192287D01*
X35396498Y-70232085D01*
X35500776Y-70285218D01*
X35500778Y-70285218D01*
X35500781Y-70285220D01*
X35605137Y-70319127D01*
X35695465Y-70348477D01*
X35796557Y-70364488D01*
X35897648Y-70380500D01*
X35897649Y-70380500D01*
X36102351Y-70380500D01*
X36102352Y-70380500D01*
X36304534Y-70348477D01*
X36499219Y-70285220D01*
X36681610Y-70192287D01*
X36782432Y-70119036D01*
X36847213Y-70071971D01*
X36847215Y-70071968D01*
X36847219Y-70071966D01*
X36991966Y-69927219D01*
X36991968Y-69927215D01*
X36991971Y-69927213D01*
X37044732Y-69854590D01*
X37112287Y-69761610D01*
X37205220Y-69579219D01*
X37268477Y-69384534D01*
X37300500Y-69182352D01*
X37300500Y-68977648D01*
X37268477Y-68775466D01*
X37205220Y-68580781D01*
X37205218Y-68580778D01*
X37205218Y-68580776D01*
X37171503Y-68514607D01*
X37112287Y-68398390D01*
X37067322Y-68336500D01*
X36991971Y-68232786D01*
X36847213Y-68088028D01*
X36681613Y-67967715D01*
X36681612Y-67967714D01*
X36681610Y-67967713D01*
X36624653Y-67938691D01*
X36499223Y-67874781D01*
X36304534Y-67811522D01*
X36129995Y-67783878D01*
X36102352Y-67779500D01*
X35897648Y-67779500D01*
X35873329Y-67783351D01*
X35695465Y-67811522D01*
X35500776Y-67874781D01*
X35318386Y-67967715D01*
X35152786Y-68088028D01*
X35008028Y-68232786D01*
X34887715Y-68398386D01*
X34794781Y-68580776D01*
X34731522Y-68775465D01*
X34699500Y-68977648D01*
X30975000Y-68977648D01*
X30975000Y-68460500D01*
X30058012Y-68460500D01*
X30090925Y-68403493D01*
X30125000Y-68276326D01*
X30125000Y-68144674D01*
X30090925Y-68017507D01*
X30058012Y-67960500D01*
X30975000Y-67960500D01*
X30975000Y-67312672D01*
X30974999Y-67312655D01*
X30968598Y-67253127D01*
X30968596Y-67253120D01*
X30918354Y-67118413D01*
X30918350Y-67118406D01*
X30832190Y-67003312D01*
X30832187Y-67003309D01*
X30717093Y-66917149D01*
X30717086Y-66917145D01*
X30582379Y-66866903D01*
X30582372Y-66866901D01*
X30522844Y-66860500D01*
X29875000Y-66860500D01*
X29875000Y-67777488D01*
X29817993Y-67744575D01*
X29690826Y-67710500D01*
X29559174Y-67710500D01*
X29432007Y-67744575D01*
X29375000Y-67777488D01*
X29375000Y-66860500D01*
X29160500Y-66860500D01*
X29093461Y-66840815D01*
X29047706Y-66788011D01*
X29036500Y-66736500D01*
X29036500Y-63750000D01*
X29723391Y-63750000D01*
X30684314Y-63750000D01*
X30679920Y-63754394D01*
X30627259Y-63845606D01*
X30600000Y-63947339D01*
X30600000Y-64052661D01*
X30627259Y-64154394D01*
X30679920Y-64245606D01*
X30684314Y-64250000D01*
X29723391Y-64250000D01*
X29732009Y-64304413D01*
X29795244Y-64499029D01*
X29888140Y-64681349D01*
X30008417Y-64846894D01*
X30008417Y-64846895D01*
X30153104Y-64991582D01*
X30318650Y-65111859D01*
X30500968Y-65204754D01*
X30695578Y-65267988D01*
X30750000Y-65276607D01*
X30750000Y-64315686D01*
X30754394Y-64320080D01*
X30845606Y-64372741D01*
X30947339Y-64400000D01*
X31052661Y-64400000D01*
X31154394Y-64372741D01*
X31245606Y-64320080D01*
X31250000Y-64315686D01*
X31250000Y-65276606D01*
X31304421Y-65267988D01*
X31499031Y-65204754D01*
X31681349Y-65111859D01*
X31846894Y-64991582D01*
X31846895Y-64991582D01*
X31991582Y-64846895D01*
X31991582Y-64846894D01*
X32111859Y-64681349D01*
X32204755Y-64499029D01*
X32267990Y-64304413D01*
X32276609Y-64250000D01*
X31315686Y-64250000D01*
X31320080Y-64245606D01*
X31372741Y-64154394D01*
X31400000Y-64052661D01*
X31400000Y-63947339D01*
X31372741Y-63845606D01*
X31320080Y-63754394D01*
X31315686Y-63750000D01*
X32276609Y-63750000D01*
X32267990Y-63695586D01*
X32204755Y-63500970D01*
X32111859Y-63318650D01*
X31991582Y-63153105D01*
X31991582Y-63153104D01*
X31846895Y-63008417D01*
X31681349Y-62888140D01*
X31499029Y-62795244D01*
X31304413Y-62732009D01*
X31250000Y-62723390D01*
X31250000Y-63684314D01*
X31245606Y-63679920D01*
X31154394Y-63627259D01*
X31052661Y-63600000D01*
X30947339Y-63600000D01*
X30845606Y-63627259D01*
X30754394Y-63679920D01*
X30750000Y-63684314D01*
X30750000Y-62723390D01*
X30695586Y-62732009D01*
X30500970Y-62795244D01*
X30318650Y-62888140D01*
X30153105Y-63008417D01*
X30153104Y-63008417D01*
X30008417Y-63153104D01*
X30008417Y-63153105D01*
X29888140Y-63318650D01*
X29795244Y-63500970D01*
X29732009Y-63695586D01*
X29723391Y-63750000D01*
X29036500Y-63750000D01*
X29036500Y-63267004D01*
X29009581Y-63131677D01*
X29009580Y-63131676D01*
X29009580Y-63131672D01*
X29009578Y-63131667D01*
X28956777Y-63004192D01*
X28880112Y-62889454D01*
X23736819Y-57746161D01*
X23703334Y-57684838D01*
X23700500Y-57658480D01*
X23700500Y-50425316D01*
X23709939Y-50377864D01*
X23769735Y-50233501D01*
X23769737Y-50233497D01*
X23800500Y-50078842D01*
X23800500Y-49921158D01*
X23800500Y-49921155D01*
X23800499Y-49921153D01*
X23790767Y-49872229D01*
X23769737Y-49766503D01*
X23741990Y-49699515D01*
X23709397Y-49620827D01*
X23709390Y-49620814D01*
X23621789Y-49489711D01*
X23621786Y-49489707D01*
X23584260Y-49452181D01*
X23550775Y-49390858D01*
X23555759Y-49321166D01*
X23597631Y-49265233D01*
X23663095Y-49240816D01*
X23671941Y-49240500D01*
X28328059Y-49240500D01*
X28395098Y-49260185D01*
X28440853Y-49312989D01*
X28450797Y-49382147D01*
X28421772Y-49445703D01*
X28415740Y-49452181D01*
X28378213Y-49489707D01*
X28378210Y-49489711D01*
X28290609Y-49620814D01*
X28290602Y-49620827D01*
X28230264Y-49766498D01*
X28230261Y-49766510D01*
X28199500Y-49921153D01*
X28199500Y-50078846D01*
X28230261Y-50233489D01*
X28230264Y-50233501D01*
X28290602Y-50379172D01*
X28290609Y-50379185D01*
X28378602Y-50510874D01*
X28399480Y-50577551D01*
X28399500Y-50579765D01*
X28399500Y-52090380D01*
X28399499Y-52090398D01*
X28399499Y-52256104D01*
X28399498Y-52256104D01*
X28399499Y-52256107D01*
X28440423Y-52408835D01*
X28442706Y-52412790D01*
X28469358Y-52458950D01*
X28469359Y-52458954D01*
X28469360Y-52458954D01*
X28519479Y-52545764D01*
X28519481Y-52545767D01*
X28638349Y-52664635D01*
X28638355Y-52664640D01*
X30823722Y-54850008D01*
X30857207Y-54911331D01*
X30852223Y-54981023D01*
X30835308Y-55012000D01*
X30756203Y-55117669D01*
X30756202Y-55117671D01*
X30705908Y-55252517D01*
X30699501Y-55312116D01*
X30699500Y-55312135D01*
X30699500Y-57007870D01*
X30699501Y-57007876D01*
X30705908Y-57067483D01*
X30756202Y-57202328D01*
X30756206Y-57202335D01*
X30842452Y-57317544D01*
X30842455Y-57317547D01*
X30957664Y-57403793D01*
X30957671Y-57403797D01*
X31092517Y-57454091D01*
X31092516Y-57454091D01*
X31099444Y-57454835D01*
X31152127Y-57460500D01*
X32847872Y-57460499D01*
X32907483Y-57454091D01*
X33042331Y-57403796D01*
X33157546Y-57317546D01*
X33243796Y-57202331D01*
X33294091Y-57067483D01*
X33300500Y-57007873D01*
X33300499Y-55445499D01*
X33320184Y-55378461D01*
X33372987Y-55332706D01*
X33424499Y-55321500D01*
X34260903Y-55321500D01*
X34327942Y-55341185D01*
X34348584Y-55357819D01*
X34705922Y-55715157D01*
X34739407Y-55776480D01*
X34736173Y-55841155D01*
X34731522Y-55855468D01*
X34699500Y-56057648D01*
X34699500Y-56262351D01*
X34731522Y-56464534D01*
X34794781Y-56659223D01*
X34887715Y-56841613D01*
X35008028Y-57007213D01*
X35152786Y-57151971D01*
X35307749Y-57264556D01*
X35318390Y-57272287D01*
X35407212Y-57317544D01*
X35500776Y-57365218D01*
X35500778Y-57365218D01*
X35500781Y-57365220D01*
X35586358Y-57393025D01*
X35675743Y-57422069D01*
X35733418Y-57461507D01*
X35760616Y-57525866D01*
X35748701Y-57594712D01*
X35701457Y-57646188D01*
X35675743Y-57657931D01*
X35500776Y-57714781D01*
X35318386Y-57807715D01*
X35152786Y-57928028D01*
X35008028Y-58072786D01*
X34887715Y-58238386D01*
X34794781Y-58420776D01*
X34731522Y-58615465D01*
X34699500Y-58817648D01*
X34699500Y-59022351D01*
X34731522Y-59224534D01*
X34794781Y-59419223D01*
X34887715Y-59601613D01*
X35008028Y-59767213D01*
X35152786Y-59911971D01*
X35307749Y-60024556D01*
X35318390Y-60032287D01*
X35434607Y-60091503D01*
X35500776Y-60125218D01*
X35500778Y-60125218D01*
X35500781Y-60125220D01*
X35605137Y-60159127D01*
X35695465Y-60188477D01*
X35796557Y-60204488D01*
X35897648Y-60220500D01*
X35897649Y-60220500D01*
X36102351Y-60220500D01*
X36102352Y-60220500D01*
X36304534Y-60188477D01*
X36499219Y-60125220D01*
X36681610Y-60032287D01*
X36774590Y-59964732D01*
X36847213Y-59911971D01*
X36847215Y-59911968D01*
X36847219Y-59911966D01*
X36991966Y-59767219D01*
X36991968Y-59767215D01*
X36991971Y-59767213D01*
X37044732Y-59694590D01*
X37112287Y-59601610D01*
X37205220Y-59419219D01*
X37268477Y-59224534D01*
X37300500Y-59022352D01*
X37300500Y-58817648D01*
X37282013Y-58700929D01*
X37290967Y-58631636D01*
X37316802Y-58593853D01*
X39544114Y-56366543D01*
X39620775Y-56251811D01*
X39673580Y-56124328D01*
X39700500Y-55988994D01*
X39700500Y-55851006D01*
X39700500Y-51891007D01*
X39700500Y-51891006D01*
X39700500Y-37431007D01*
X39700500Y-37431004D01*
X39673581Y-37295677D01*
X39673580Y-37295676D01*
X39673580Y-37295672D01*
X39661999Y-37267713D01*
X39620778Y-37168195D01*
X39620771Y-37168182D01*
X39561515Y-37079500D01*
X39544112Y-37053454D01*
X37671819Y-35181161D01*
X37638334Y-35119838D01*
X37635500Y-35093480D01*
X37635500Y-34910634D01*
X37625585Y-34848034D01*
X37607540Y-34734103D01*
X37607539Y-34734099D01*
X37607539Y-34734098D01*
X37552310Y-34564121D01*
X37552308Y-34564118D01*
X37522299Y-34505220D01*
X37471167Y-34404868D01*
X37366111Y-34260272D01*
X37239728Y-34133889D01*
X37095132Y-34028833D01*
X36935881Y-33947691D01*
X36935878Y-33947689D01*
X36765899Y-33892460D01*
X36648209Y-33873820D01*
X36589366Y-33864500D01*
X36410634Y-33864500D01*
X36351790Y-33873820D01*
X36234101Y-33892460D01*
X36234098Y-33892460D01*
X36064121Y-33947689D01*
X36064118Y-33947691D01*
X35904867Y-34028833D01*
X35760270Y-34133890D01*
X35633890Y-34260270D01*
X35528833Y-34404867D01*
X35447691Y-34564118D01*
X35447689Y-34564121D01*
X35392460Y-34734098D01*
X35392460Y-34734101D01*
X35364500Y-34910634D01*
X35364500Y-35089365D01*
X35392460Y-35265898D01*
X35392460Y-35265901D01*
X35447689Y-35435878D01*
X35447691Y-35435881D01*
X35528833Y-35595132D01*
X35633889Y-35739728D01*
X35760272Y-35866111D01*
X35904868Y-35971167D01*
X36064119Y-36052309D01*
X36064121Y-36052310D01*
X36222670Y-36103825D01*
X36234103Y-36107540D01*
X36410634Y-36135500D01*
X36410635Y-36135500D01*
X36593481Y-36135500D01*
X36660520Y-36155185D01*
X36681162Y-36171819D01*
X36705652Y-36196309D01*
X36739137Y-36257632D01*
X36734153Y-36327324D01*
X36692281Y-36383257D01*
X36626817Y-36407674D01*
X36598579Y-36406464D01*
X36589333Y-36405000D01*
X36410669Y-36405000D01*
X36234219Y-36432946D01*
X36064306Y-36488155D01*
X35905127Y-36569262D01*
X35892205Y-36578651D01*
X35892204Y-36578651D01*
X36472554Y-37159000D01*
X36449840Y-37159000D01*
X36352939Y-37184964D01*
X36266060Y-37235124D01*
X36195124Y-37306060D01*
X36144964Y-37392939D01*
X36119000Y-37489840D01*
X36119000Y-37512553D01*
X35538651Y-36932204D01*
X35538651Y-36932205D01*
X35529262Y-36945127D01*
X35448155Y-37104306D01*
X35392946Y-37274219D01*
X35365000Y-37450668D01*
X35365000Y-37629331D01*
X35392946Y-37805780D01*
X35448155Y-37975693D01*
X35529260Y-38134869D01*
X35538651Y-38147793D01*
X35538652Y-38147794D01*
X36119000Y-37567446D01*
X36119000Y-37590160D01*
X36144964Y-37687061D01*
X36195124Y-37773940D01*
X36266060Y-37844876D01*
X36352939Y-37895036D01*
X36449840Y-37921000D01*
X36472554Y-37921000D01*
X35892205Y-38501347D01*
X35892205Y-38501348D01*
X35905129Y-38510738D01*
X36064306Y-38591844D01*
X36234219Y-38647053D01*
X36410669Y-38675000D01*
X36589331Y-38675000D01*
X36765780Y-38647053D01*
X36935693Y-38591844D01*
X37094867Y-38510739D01*
X37094872Y-38510737D01*
X37107794Y-38501347D01*
X36527447Y-37921000D01*
X36550160Y-37921000D01*
X36647061Y-37895036D01*
X36733940Y-37844876D01*
X36804876Y-37773940D01*
X36855036Y-37687061D01*
X36881000Y-37590160D01*
X36881000Y-37567446D01*
X37461348Y-38147794D01*
X37470737Y-38134872D01*
X37470739Y-38134867D01*
X37551844Y-37975693D01*
X37607053Y-37805780D01*
X37635000Y-37629331D01*
X37635000Y-37450669D01*
X37633536Y-37441427D01*
X37642490Y-37372133D01*
X37687486Y-37318681D01*
X37754237Y-37298041D01*
X37821551Y-37316765D01*
X37843690Y-37334347D01*
X38263181Y-37753838D01*
X38296666Y-37815161D01*
X38299500Y-37841519D01*
X38299500Y-46252297D01*
X38279815Y-46319336D01*
X38227011Y-46365091D01*
X38157853Y-46375035D01*
X38151309Y-46373914D01*
X38078845Y-46359500D01*
X38078842Y-46359500D01*
X37921158Y-46359500D01*
X37921155Y-46359500D01*
X37766510Y-46390261D01*
X37766498Y-46390264D01*
X37620827Y-46450602D01*
X37620814Y-46450609D01*
X37489711Y-46538210D01*
X37414744Y-46613177D01*
X37353420Y-46646661D01*
X37283729Y-46641676D01*
X37227795Y-46599805D01*
X37203379Y-46534340D01*
X37209131Y-46487180D01*
X37268477Y-46304534D01*
X37300500Y-46102352D01*
X37300500Y-45897648D01*
X37268477Y-45695466D01*
X37205220Y-45500781D01*
X37205218Y-45500778D01*
X37205218Y-45500776D01*
X37159500Y-45411050D01*
X37112287Y-45318390D01*
X37104556Y-45307749D01*
X36991971Y-45152786D01*
X36847213Y-45008028D01*
X36681613Y-44887715D01*
X36681612Y-44887714D01*
X36681610Y-44887713D01*
X36624653Y-44858691D01*
X36499223Y-44794781D01*
X36304534Y-44731522D01*
X36129995Y-44703878D01*
X36102352Y-44699500D01*
X35897648Y-44699500D01*
X35873329Y-44703351D01*
X35695465Y-44731522D01*
X35500776Y-44794781D01*
X35318386Y-44887715D01*
X35152786Y-45008028D01*
X35008028Y-45152786D01*
X34887715Y-45318386D01*
X34794781Y-45500776D01*
X34731522Y-45695465D01*
X34699500Y-45897648D01*
X34699500Y-46102351D01*
X34731522Y-46304534D01*
X34794781Y-46499223D01*
X34887715Y-46681613D01*
X35008028Y-46847213D01*
X35152784Y-46991969D01*
X35248385Y-47061426D01*
X35291051Y-47116755D01*
X35299500Y-47161744D01*
X35299500Y-51135500D01*
X35279815Y-51202539D01*
X35227011Y-51248294D01*
X35175500Y-51259500D01*
X34573004Y-51259500D01*
X34437677Y-51286418D01*
X34437667Y-51286421D01*
X34310192Y-51339222D01*
X34195456Y-51415886D01*
X34131309Y-51480033D01*
X34067160Y-51544182D01*
X34005840Y-51577666D01*
X33979481Y-51580500D01*
X33375476Y-51580500D01*
X33308437Y-51560815D01*
X33262682Y-51508011D01*
X33252738Y-51438853D01*
X33257545Y-51418183D01*
X33268475Y-51384542D01*
X33268475Y-51384538D01*
X33268477Y-51384534D01*
X33300500Y-51182352D01*
X33300500Y-50977648D01*
X33268477Y-50775466D01*
X33205220Y-50580781D01*
X33205218Y-50580778D01*
X33205218Y-50580776D01*
X33147970Y-50468422D01*
X33112287Y-50398390D01*
X33075181Y-50347317D01*
X32991971Y-50232786D01*
X32847213Y-50088028D01*
X32681611Y-49967713D01*
X32588369Y-49920203D01*
X32537574Y-49872229D01*
X32520779Y-49804407D01*
X32543317Y-49738273D01*
X32588371Y-49699234D01*
X32681347Y-49651861D01*
X32846894Y-49531582D01*
X32846895Y-49531582D01*
X32991582Y-49386895D01*
X32991582Y-49386894D01*
X33111859Y-49221349D01*
X33204755Y-49039029D01*
X33267990Y-48844413D01*
X33276609Y-48790000D01*
X32433012Y-48790000D01*
X32465925Y-48732993D01*
X32500000Y-48605826D01*
X32500000Y-48474174D01*
X32465925Y-48347007D01*
X32433012Y-48290000D01*
X33276609Y-48290000D01*
X33267990Y-48235586D01*
X33204755Y-48040970D01*
X33111859Y-47858650D01*
X32991582Y-47693105D01*
X32991582Y-47693104D01*
X32846895Y-47548417D01*
X32681349Y-47428140D01*
X32588370Y-47380765D01*
X32537574Y-47332790D01*
X32520779Y-47264969D01*
X32543316Y-47198835D01*
X32588370Y-47159795D01*
X32588920Y-47159515D01*
X32681610Y-47112287D01*
X32751615Y-47061426D01*
X32847213Y-46991971D01*
X32847215Y-46991968D01*
X32847219Y-46991966D01*
X32991966Y-46847219D01*
X32991968Y-46847215D01*
X32991971Y-46847213D01*
X33045061Y-46774140D01*
X33112287Y-46681610D01*
X33205220Y-46499219D01*
X33268477Y-46304534D01*
X33300500Y-46102352D01*
X33300500Y-45897648D01*
X33268477Y-45695466D01*
X33205220Y-45500781D01*
X33205218Y-45500778D01*
X33205218Y-45500776D01*
X33159500Y-45411050D01*
X33112287Y-45318390D01*
X33104556Y-45307749D01*
X32991971Y-45152786D01*
X32847213Y-45008028D01*
X32681614Y-44887715D01*
X32675006Y-44884348D01*
X32588917Y-44840483D01*
X32538123Y-44792511D01*
X32521328Y-44724690D01*
X32543865Y-44658555D01*
X32588917Y-44619516D01*
X32681610Y-44572287D01*
X32702770Y-44556913D01*
X32847213Y-44451971D01*
X32847215Y-44451968D01*
X32847219Y-44451966D01*
X32991966Y-44307219D01*
X32991968Y-44307215D01*
X32991971Y-44307213D01*
X33044732Y-44234590D01*
X33112287Y-44141610D01*
X33205220Y-43959219D01*
X33268477Y-43764534D01*
X33300500Y-43562352D01*
X33300500Y-43357648D01*
X33268477Y-43155465D01*
X33253801Y-43110300D01*
X33205220Y-42960781D01*
X33205217Y-42960775D01*
X33205216Y-42960772D01*
X33200875Y-42952252D01*
X33187977Y-42883584D01*
X33214252Y-42818843D01*
X33271357Y-42778584D01*
X33341162Y-42775590D01*
X33399039Y-42808274D01*
X33876139Y-43285374D01*
X33876149Y-43285385D01*
X33880479Y-43289715D01*
X33880480Y-43289716D01*
X33992284Y-43401520D01*
X34079095Y-43451639D01*
X34079097Y-43451641D01*
X34129213Y-43480576D01*
X34129215Y-43480577D01*
X34281942Y-43521500D01*
X34281943Y-43521500D01*
X35768689Y-43521500D01*
X35835728Y-43541185D01*
X35841574Y-43545182D01*
X35899304Y-43587124D01*
X35904868Y-43591167D01*
X36064119Y-43672309D01*
X36064121Y-43672310D01*
X36222670Y-43723825D01*
X36234103Y-43727540D01*
X36410634Y-43755500D01*
X36410635Y-43755500D01*
X36589365Y-43755500D01*
X36589366Y-43755500D01*
X36765897Y-43727540D01*
X36765900Y-43727539D01*
X36765901Y-43727539D01*
X36935878Y-43672310D01*
X36935878Y-43672309D01*
X36935881Y-43672309D01*
X37095132Y-43591167D01*
X37239728Y-43486111D01*
X37366111Y-43359728D01*
X37471167Y-43215132D01*
X37552309Y-43055881D01*
X37583209Y-42960781D01*
X37607539Y-42885901D01*
X37607539Y-42885900D01*
X37607540Y-42885897D01*
X37635500Y-42709366D01*
X37635500Y-42530634D01*
X37607540Y-42354103D01*
X37607539Y-42354099D01*
X37607539Y-42354098D01*
X37552310Y-42184121D01*
X37552308Y-42184118D01*
X37522299Y-42125220D01*
X37471167Y-42024868D01*
X37366111Y-41880272D01*
X37239728Y-41753889D01*
X37095132Y-41648833D01*
X36935881Y-41567691D01*
X36935878Y-41567689D01*
X36765899Y-41512460D01*
X36648209Y-41493820D01*
X36589366Y-41484500D01*
X36410634Y-41484500D01*
X36351790Y-41493820D01*
X36234101Y-41512460D01*
X36234098Y-41512460D01*
X36064121Y-41567689D01*
X36064118Y-41567691D01*
X35904867Y-41648833D01*
X35760270Y-41753890D01*
X35633890Y-41880270D01*
X35528833Y-42024867D01*
X35447693Y-42184114D01*
X35447692Y-42184116D01*
X35447691Y-42184119D01*
X35444055Y-42195311D01*
X35431218Y-42234819D01*
X35391780Y-42292494D01*
X35327421Y-42319692D01*
X35313287Y-42320500D01*
X34661097Y-42320500D01*
X34594058Y-42300815D01*
X34573416Y-42284181D01*
X33948590Y-41659355D01*
X33948588Y-41659352D01*
X33829717Y-41540481D01*
X33829716Y-41540480D01*
X33724228Y-41479577D01*
X33724227Y-41479576D01*
X33692783Y-41461422D01*
X33636881Y-41446443D01*
X33540057Y-41420499D01*
X33381943Y-41420499D01*
X33375476Y-41420499D01*
X33308437Y-41400814D01*
X33262682Y-41348010D01*
X33252738Y-41278852D01*
X33257545Y-41258181D01*
X33268476Y-41224538D01*
X33268476Y-41224537D01*
X33268477Y-41224534D01*
X33300500Y-41022352D01*
X33300500Y-40817648D01*
X33286873Y-40731614D01*
X33268477Y-40615465D01*
X33250624Y-40560520D01*
X33205220Y-40420781D01*
X33205217Y-40420775D01*
X33205216Y-40420772D01*
X33200875Y-40412252D01*
X33197904Y-40396437D01*
X33190192Y-40382313D01*
X33191587Y-40362804D01*
X33187977Y-40343584D01*
X33194027Y-40328674D01*
X33195176Y-40312621D01*
X33206898Y-40296962D01*
X33214252Y-40278843D01*
X33227403Y-40269571D01*
X33237048Y-40256688D01*
X33255371Y-40249853D01*
X33271357Y-40238584D01*
X33287435Y-40237894D01*
X33302512Y-40232271D01*
X33321621Y-40236428D01*
X33341162Y-40235590D01*
X33355819Y-40243867D01*
X33370785Y-40247123D01*
X33399039Y-40268274D01*
X33575139Y-40444374D01*
X33575149Y-40444385D01*
X33579479Y-40448715D01*
X33579480Y-40448716D01*
X33691284Y-40560520D01*
X33760534Y-40600501D01*
X33828215Y-40639577D01*
X33980943Y-40680501D01*
X33980946Y-40680501D01*
X34146653Y-40680501D01*
X34146669Y-40680500D01*
X35469552Y-40680500D01*
X35536591Y-40700185D01*
X35569869Y-40731613D01*
X35633889Y-40819728D01*
X35760272Y-40946111D01*
X35904868Y-41051167D01*
X36064119Y-41132309D01*
X36064121Y-41132310D01*
X36222670Y-41183825D01*
X36234103Y-41187540D01*
X36410634Y-41215500D01*
X36410635Y-41215500D01*
X36589365Y-41215500D01*
X36589366Y-41215500D01*
X36765897Y-41187540D01*
X36765900Y-41187539D01*
X36765901Y-41187539D01*
X36935878Y-41132310D01*
X36935878Y-41132309D01*
X36935881Y-41132309D01*
X37095132Y-41051167D01*
X37239728Y-40946111D01*
X37366111Y-40819728D01*
X37471167Y-40675132D01*
X37552309Y-40515881D01*
X37574133Y-40448713D01*
X37607539Y-40345901D01*
X37607539Y-40345900D01*
X37607540Y-40345897D01*
X37635500Y-40169366D01*
X37635500Y-39990634D01*
X37607540Y-39814103D01*
X37607539Y-39814099D01*
X37607539Y-39814098D01*
X37552310Y-39644121D01*
X37552308Y-39644118D01*
X37522299Y-39585220D01*
X37471167Y-39484868D01*
X37366111Y-39340272D01*
X37239728Y-39213889D01*
X37095132Y-39108833D01*
X36935881Y-39027691D01*
X36935878Y-39027689D01*
X36765899Y-38972460D01*
X36648209Y-38953820D01*
X36589366Y-38944500D01*
X36410634Y-38944500D01*
X36351790Y-38953820D01*
X36234101Y-38972460D01*
X36234098Y-38972460D01*
X36064121Y-39027689D01*
X36064118Y-39027691D01*
X35904867Y-39108833D01*
X35760270Y-39213890D01*
X35633890Y-39340270D01*
X35569870Y-39428386D01*
X35514539Y-39471052D01*
X35469552Y-39479500D01*
X34360097Y-39479500D01*
X34293058Y-39459815D01*
X34272416Y-39443181D01*
X33948590Y-39119355D01*
X33948588Y-39119352D01*
X33829717Y-39000481D01*
X33829716Y-39000480D01*
X33724228Y-38939577D01*
X33724227Y-38939576D01*
X33692783Y-38921422D01*
X33636881Y-38906443D01*
X33540057Y-38880499D01*
X33381943Y-38880499D01*
X33375476Y-38880499D01*
X33308437Y-38860814D01*
X33262682Y-38808010D01*
X33252738Y-38738852D01*
X33257545Y-38718181D01*
X33268476Y-38684538D01*
X33268476Y-38684537D01*
X33268477Y-38684534D01*
X33300500Y-38482352D01*
X33300500Y-38277648D01*
X33268477Y-38075466D01*
X33205220Y-37880781D01*
X33205218Y-37880778D01*
X33205218Y-37880776D01*
X33159500Y-37791050D01*
X33112287Y-37698390D01*
X33104056Y-37687061D01*
X32991971Y-37532786D01*
X32847213Y-37388028D01*
X32681614Y-37267715D01*
X32675006Y-37264348D01*
X32588917Y-37220483D01*
X32538123Y-37172511D01*
X32521328Y-37104690D01*
X32543865Y-37038555D01*
X32588917Y-36999516D01*
X32681610Y-36952287D01*
X32709252Y-36932204D01*
X32847213Y-36831971D01*
X32847215Y-36831968D01*
X32847219Y-36831966D01*
X32991966Y-36687219D01*
X32991968Y-36687215D01*
X32991971Y-36687213D01*
X33044732Y-36614590D01*
X33112287Y-36521610D01*
X33205220Y-36339219D01*
X33268477Y-36144534D01*
X33300500Y-35942352D01*
X33300500Y-35737648D01*
X33268477Y-35535466D01*
X33205220Y-35340781D01*
X33205218Y-35340778D01*
X33205218Y-35340776D01*
X33123889Y-35181161D01*
X33112287Y-35158390D01*
X33062138Y-35089365D01*
X32991971Y-34992786D01*
X32847213Y-34848028D01*
X32681614Y-34727715D01*
X32675006Y-34724348D01*
X32588917Y-34680483D01*
X32538123Y-34632511D01*
X32521328Y-34564690D01*
X32543865Y-34498555D01*
X32588917Y-34459516D01*
X32681610Y-34412287D01*
X32702770Y-34396913D01*
X32847213Y-34291971D01*
X32847215Y-34291968D01*
X32847219Y-34291966D01*
X32991966Y-34147219D01*
X32991968Y-34147215D01*
X32991971Y-34147213D01*
X33044732Y-34074590D01*
X33112287Y-33981610D01*
X33205220Y-33799219D01*
X33268477Y-33604534D01*
X33300500Y-33402352D01*
X33300500Y-33197648D01*
X33268477Y-32995466D01*
X33205220Y-32800781D01*
X33205218Y-32800778D01*
X33205218Y-32800776D01*
X33159500Y-32711050D01*
X33112287Y-32618390D01*
X33104556Y-32607749D01*
X32991971Y-32452786D01*
X32847213Y-32308028D01*
X32681614Y-32187715D01*
X32675006Y-32184348D01*
X32588917Y-32140483D01*
X32538123Y-32092511D01*
X32521328Y-32024690D01*
X32543865Y-31958555D01*
X32588917Y-31919516D01*
X32681610Y-31872287D01*
X32702770Y-31856913D01*
X32847213Y-31751971D01*
X32847215Y-31751968D01*
X32847219Y-31751966D01*
X32991966Y-31607219D01*
X32991968Y-31607215D01*
X32991971Y-31607213D01*
X33044732Y-31534590D01*
X33112287Y-31441610D01*
X33205220Y-31259219D01*
X33268477Y-31064534D01*
X33300500Y-30862352D01*
X33300500Y-30657648D01*
X33285453Y-30562645D01*
X33268477Y-30455465D01*
X33205218Y-30260776D01*
X33159500Y-30171050D01*
X33112287Y-30078390D01*
X33065985Y-30014660D01*
X32991971Y-29912786D01*
X32847213Y-29768028D01*
X32681614Y-29647715D01*
X32628839Y-29620825D01*
X32588917Y-29600483D01*
X32538123Y-29552511D01*
X32521328Y-29484690D01*
X32543865Y-29418555D01*
X32588917Y-29379516D01*
X32681610Y-29332287D01*
X32791617Y-29252363D01*
X32847213Y-29211971D01*
X32847215Y-29211968D01*
X32847219Y-29211966D01*
X32991966Y-29067219D01*
X32991968Y-29067215D01*
X32991971Y-29067213D01*
X33044732Y-28994590D01*
X33112287Y-28901610D01*
X33205220Y-28719219D01*
X33268477Y-28524534D01*
X33300500Y-28322352D01*
X33300500Y-28117648D01*
X33290993Y-28057625D01*
X33268477Y-27915465D01*
X33220400Y-27767500D01*
X33205220Y-27720781D01*
X33205218Y-27720778D01*
X33205218Y-27720776D01*
X33171503Y-27654607D01*
X33112287Y-27538390D01*
X33068305Y-27477853D01*
X32991971Y-27372786D01*
X32847213Y-27228028D01*
X32681614Y-27107715D01*
X32624951Y-27078844D01*
X32588917Y-27060483D01*
X32538123Y-27012511D01*
X32521328Y-26944690D01*
X32543865Y-26878555D01*
X32588917Y-26839516D01*
X32681610Y-26792287D01*
X32791617Y-26712363D01*
X32847213Y-26671971D01*
X32847215Y-26671968D01*
X32847219Y-26671966D01*
X32991966Y-26527219D01*
X32991968Y-26527215D01*
X32991971Y-26527213D01*
X33100224Y-26378213D01*
X33112287Y-26361610D01*
X33205220Y-26179219D01*
X33268477Y-25984534D01*
X33300500Y-25782352D01*
X33300500Y-25577648D01*
X33268477Y-25375466D01*
X33205220Y-25180781D01*
X33205218Y-25180778D01*
X33205218Y-25180776D01*
X33153279Y-25078842D01*
X33112287Y-24998390D01*
X33069935Y-24940097D01*
X32991971Y-24832786D01*
X32847213Y-24688028D01*
X32681614Y-24567715D01*
X32616765Y-24534673D01*
X32588917Y-24520483D01*
X32538123Y-24472511D01*
X32521328Y-24404690D01*
X32543865Y-24338555D01*
X32588917Y-24299516D01*
X32681610Y-24252287D01*
X32791986Y-24172095D01*
X32847213Y-24131971D01*
X32847215Y-24131968D01*
X32847219Y-24131966D01*
X32991966Y-23987219D01*
X32991968Y-23987215D01*
X32991971Y-23987213D01*
X33044732Y-23914590D01*
X33112287Y-23821610D01*
X33205220Y-23639219D01*
X33268477Y-23444534D01*
X33300500Y-23242352D01*
X33300500Y-23037648D01*
X33288426Y-22961416D01*
X33268477Y-22835465D01*
X33205218Y-22640776D01*
X33171503Y-22574607D01*
X33112287Y-22458390D01*
X33104556Y-22447749D01*
X32991971Y-22292786D01*
X32847213Y-22148028D01*
X32681614Y-22027715D01*
X32675006Y-22024348D01*
X32588917Y-21980483D01*
X32538123Y-21932511D01*
X32521328Y-21864690D01*
X32543865Y-21798555D01*
X32588917Y-21759516D01*
X32681610Y-21712287D01*
X32702770Y-21696913D01*
X32847213Y-21591971D01*
X32847215Y-21591968D01*
X32847219Y-21591966D01*
X32949550Y-21489635D01*
X35847000Y-21489635D01*
X35847000Y-23085370D01*
X35847001Y-23085376D01*
X35853408Y-23144983D01*
X35903702Y-23279828D01*
X35903706Y-23279835D01*
X35989952Y-23395044D01*
X35989955Y-23395047D01*
X36105164Y-23481293D01*
X36105171Y-23481297D01*
X36240017Y-23531591D01*
X36240016Y-23531591D01*
X36246944Y-23532335D01*
X36299627Y-23538000D01*
X36363233Y-23537999D01*
X36430270Y-23557683D01*
X36476026Y-23610486D01*
X36485970Y-23679644D01*
X36456946Y-23743200D01*
X36436119Y-23762316D01*
X36282854Y-23873671D01*
X36143674Y-24012851D01*
X36143674Y-24012852D01*
X36143672Y-24012854D01*
X36093985Y-24081241D01*
X36027976Y-24172094D01*
X35938617Y-24347470D01*
X35877790Y-24534673D01*
X35847000Y-24729077D01*
X35847000Y-24925922D01*
X35877790Y-25120326D01*
X35938617Y-25307529D01*
X35975125Y-25379179D01*
X36027976Y-25482905D01*
X36143672Y-25642146D01*
X36282854Y-25781328D01*
X36402284Y-25868100D01*
X36442096Y-25897025D01*
X36619263Y-25987295D01*
X36670060Y-26035269D01*
X36686855Y-26103090D01*
X36664318Y-26169225D01*
X36619264Y-26208265D01*
X36442359Y-26298402D01*
X36407373Y-26323820D01*
X36407372Y-26323820D01*
X37051054Y-26967500D01*
X37044839Y-26967500D01*
X36943106Y-26994759D01*
X36851894Y-27047420D01*
X36777420Y-27121894D01*
X36724759Y-27213106D01*
X36697500Y-27314839D01*
X36697500Y-27321052D01*
X36053820Y-26677372D01*
X36053820Y-26677373D01*
X36028402Y-26712359D01*
X36028399Y-26712363D01*
X35939082Y-26887661D01*
X35878278Y-27074794D01*
X35847500Y-27269117D01*
X35847500Y-27465882D01*
X35878278Y-27660205D01*
X35939081Y-27847335D01*
X36028405Y-28022645D01*
X36053819Y-28057625D01*
X36053820Y-28057625D01*
X36697500Y-27413945D01*
X36697500Y-27420161D01*
X36724759Y-27521894D01*
X36777420Y-27613106D01*
X36851894Y-27687580D01*
X36943106Y-27740241D01*
X37044839Y-27767500D01*
X37051053Y-27767500D01*
X36407373Y-28411177D01*
X36407373Y-28411178D01*
X36442360Y-28436597D01*
X36619814Y-28527014D01*
X36670611Y-28574988D01*
X36687406Y-28642809D01*
X36664869Y-28708944D01*
X36619815Y-28747984D01*
X36442359Y-28838402D01*
X36407373Y-28863820D01*
X36407372Y-28863820D01*
X37051054Y-29507500D01*
X37044839Y-29507500D01*
X36943106Y-29534759D01*
X36851894Y-29587420D01*
X36777420Y-29661894D01*
X36724759Y-29753106D01*
X36697500Y-29854839D01*
X36697500Y-29861052D01*
X36053820Y-29217372D01*
X36053820Y-29217373D01*
X36028402Y-29252359D01*
X36028399Y-29252363D01*
X35939082Y-29427661D01*
X35878278Y-29614794D01*
X35847500Y-29809117D01*
X35847500Y-30005882D01*
X35878278Y-30200205D01*
X35939081Y-30387335D01*
X36028405Y-30562645D01*
X36053819Y-30597625D01*
X36053820Y-30597625D01*
X36697500Y-29953945D01*
X36697500Y-29960161D01*
X36724759Y-30061894D01*
X36777420Y-30153106D01*
X36851894Y-30227580D01*
X36943106Y-30280241D01*
X37044839Y-30307500D01*
X37051053Y-30307500D01*
X36407373Y-30951177D01*
X36407373Y-30951178D01*
X36442358Y-30976596D01*
X36617664Y-31065918D01*
X36804794Y-31126721D01*
X36999118Y-31157500D01*
X37195882Y-31157500D01*
X37390205Y-31126721D01*
X37577335Y-31065918D01*
X37752643Y-30976595D01*
X37787625Y-30951178D01*
X37787626Y-30951178D01*
X37143948Y-30307500D01*
X37150161Y-30307500D01*
X37251894Y-30280241D01*
X37343106Y-30227580D01*
X37417580Y-30153106D01*
X37470241Y-30061894D01*
X37497500Y-29960161D01*
X37497500Y-29953947D01*
X38141178Y-30597626D01*
X38141178Y-30597625D01*
X38166595Y-30562643D01*
X38255918Y-30387335D01*
X38316721Y-30200205D01*
X38347500Y-30005882D01*
X38347500Y-29809117D01*
X38316721Y-29614794D01*
X38255918Y-29427664D01*
X38166596Y-29252358D01*
X38141178Y-29217373D01*
X38141177Y-29217373D01*
X37497500Y-29861051D01*
X37497500Y-29854839D01*
X37470241Y-29753106D01*
X37417580Y-29661894D01*
X37343106Y-29587420D01*
X37251894Y-29534759D01*
X37150161Y-29507500D01*
X37143947Y-29507500D01*
X37787625Y-28863820D01*
X37787625Y-28863819D01*
X37752645Y-28838405D01*
X37575184Y-28747985D01*
X37524388Y-28700011D01*
X37507593Y-28632190D01*
X37530130Y-28566055D01*
X37575185Y-28527015D01*
X37752641Y-28436597D01*
X37787625Y-28411178D01*
X37787626Y-28411178D01*
X37143948Y-27767500D01*
X37150161Y-27767500D01*
X37251894Y-27740241D01*
X37343106Y-27687580D01*
X37417580Y-27613106D01*
X37470241Y-27521894D01*
X37497500Y-27420161D01*
X37497500Y-27413947D01*
X38141178Y-28057626D01*
X38141178Y-28057625D01*
X38166595Y-28022643D01*
X38255918Y-27847335D01*
X38316721Y-27660205D01*
X38347500Y-27465882D01*
X38347500Y-27269117D01*
X38316721Y-27074794D01*
X38255918Y-26887664D01*
X38166596Y-26712358D01*
X38141178Y-26677373D01*
X38141177Y-26677373D01*
X37497500Y-27321051D01*
X37497500Y-27314839D01*
X37470241Y-27213106D01*
X37417580Y-27121894D01*
X37343106Y-27047420D01*
X37251894Y-26994759D01*
X37150161Y-26967500D01*
X37143947Y-26967500D01*
X37787625Y-26323820D01*
X37787625Y-26323819D01*
X37752645Y-26298405D01*
X37575735Y-26208265D01*
X37524939Y-26160290D01*
X37508144Y-26092469D01*
X37530682Y-26026334D01*
X37575736Y-25987295D01*
X37577522Y-25986384D01*
X37577525Y-25986384D01*
X37752905Y-25897024D01*
X37912146Y-25781328D01*
X38051328Y-25642146D01*
X38167024Y-25482905D01*
X38256384Y-25307525D01*
X38317209Y-25120326D01*
X38323779Y-25078844D01*
X38348000Y-24925922D01*
X38348000Y-24729077D01*
X38317209Y-24534673D01*
X38278425Y-24415311D01*
X38256384Y-24347475D01*
X38256382Y-24347472D01*
X38256382Y-24347470D01*
X38198824Y-24234506D01*
X38167024Y-24172095D01*
X38051328Y-24012854D01*
X37912146Y-23873672D01*
X37758877Y-23762315D01*
X37716214Y-23706987D01*
X37710235Y-23637373D01*
X37742841Y-23575578D01*
X37803680Y-23541221D01*
X37831764Y-23537999D01*
X37895372Y-23537999D01*
X37954983Y-23531591D01*
X38089831Y-23481296D01*
X38205046Y-23395046D01*
X38291296Y-23279831D01*
X38341591Y-23144983D01*
X38348000Y-23085373D01*
X38347999Y-21489628D01*
X38341591Y-21430017D01*
X38335401Y-21413422D01*
X38291297Y-21295171D01*
X38291293Y-21295164D01*
X38205047Y-21179955D01*
X38205044Y-21179952D01*
X38089835Y-21093706D01*
X38089828Y-21093702D01*
X37954982Y-21043408D01*
X37954983Y-21043408D01*
X37895383Y-21037001D01*
X37895381Y-21037000D01*
X37895373Y-21037000D01*
X37895364Y-21037000D01*
X36299629Y-21037000D01*
X36299623Y-21037001D01*
X36240016Y-21043408D01*
X36105171Y-21093702D01*
X36105164Y-21093706D01*
X35989955Y-21179952D01*
X35989952Y-21179955D01*
X35903706Y-21295164D01*
X35903702Y-21295171D01*
X35853408Y-21430017D01*
X35847001Y-21489616D01*
X35847001Y-21489623D01*
X35847000Y-21489635D01*
X32949550Y-21489635D01*
X32991966Y-21447219D01*
X33112287Y-21281610D01*
X33205220Y-21099219D01*
X33268477Y-20904534D01*
X33300500Y-20702352D01*
X33300500Y-20497648D01*
X33268477Y-20295466D01*
X33205220Y-20100781D01*
X33205218Y-20100778D01*
X33205218Y-20100776D01*
X33171503Y-20034607D01*
X33112287Y-19918390D01*
X33104556Y-19907749D01*
X32991971Y-19752786D01*
X32847213Y-19608028D01*
X32681613Y-19487715D01*
X32681612Y-19487714D01*
X32681610Y-19487713D01*
X32624653Y-19458691D01*
X32499223Y-19394781D01*
X32304534Y-19331522D01*
X32129995Y-19303878D01*
X32102352Y-19299500D01*
X31897648Y-19299500D01*
X31873329Y-19303351D01*
X31695465Y-19331522D01*
X31500776Y-19394781D01*
X31318386Y-19487715D01*
X31152786Y-19608028D01*
X31008028Y-19752786D01*
X30887715Y-19918386D01*
X30794781Y-20100776D01*
X30731522Y-20295465D01*
X30699500Y-20497648D01*
X30699500Y-20702351D01*
X30731522Y-20904534D01*
X30794781Y-21099223D01*
X30887715Y-21281613D01*
X31008028Y-21447213D01*
X31152786Y-21591971D01*
X31307749Y-21704556D01*
X31318390Y-21712287D01*
X31409840Y-21758883D01*
X31411080Y-21759515D01*
X31461876Y-21807490D01*
X31478671Y-21875311D01*
X31456134Y-21941446D01*
X31411080Y-21980485D01*
X31318386Y-22027715D01*
X31152786Y-22148028D01*
X31008028Y-22292786D01*
X30887715Y-22458386D01*
X30794781Y-22640776D01*
X30731522Y-22835465D01*
X30699500Y-23037648D01*
X30699500Y-23242351D01*
X30731522Y-23444534D01*
X30794781Y-23639223D01*
X30887715Y-23821613D01*
X31008028Y-23987213D01*
X31152786Y-24131971D01*
X31269909Y-24217064D01*
X31318390Y-24252287D01*
X31393595Y-24290606D01*
X31411080Y-24299515D01*
X31461876Y-24347490D01*
X31478671Y-24415311D01*
X31456134Y-24481446D01*
X31411080Y-24520485D01*
X31318386Y-24567715D01*
X31152786Y-24688028D01*
X31008028Y-24832786D01*
X30887715Y-24998386D01*
X30794781Y-25180776D01*
X30731522Y-25375465D01*
X30710168Y-25510292D01*
X30699500Y-25577648D01*
X30699500Y-25782352D01*
X30715511Y-25883443D01*
X30731523Y-25984535D01*
X30736172Y-25998845D01*
X30738165Y-26068687D01*
X30705921Y-26124841D01*
X28631286Y-28199478D01*
X28519481Y-28311282D01*
X28519479Y-28311284D01*
X28500653Y-28343893D01*
X28482983Y-28374499D01*
X28479164Y-28381112D01*
X28476881Y-28385067D01*
X28457180Y-28410739D01*
X28446258Y-28421661D01*
X28428088Y-28431582D01*
X28426310Y-28433278D01*
X28424259Y-28433673D01*
X28384935Y-28455146D01*
X28315243Y-28450162D01*
X28270896Y-28421661D01*
X27707590Y-27858355D01*
X27707588Y-27858352D01*
X27588717Y-27739481D01*
X27588716Y-27739480D01*
X27501904Y-27689360D01*
X27501904Y-27689359D01*
X27501900Y-27689358D01*
X27451785Y-27660423D01*
X27299057Y-27619499D01*
X27140943Y-27619499D01*
X27133347Y-27619499D01*
X27133331Y-27619500D01*
X18780805Y-27619500D01*
X18713766Y-27599815D01*
X18668011Y-27547011D01*
X18658067Y-27477853D01*
X18677703Y-27426609D01*
X18709390Y-27379185D01*
X18709390Y-27379184D01*
X18709394Y-27379179D01*
X18769737Y-27233497D01*
X18800500Y-27078842D01*
X18800500Y-26921158D01*
X18800500Y-26921155D01*
X18800499Y-26921153D01*
X18800338Y-26920346D01*
X18769737Y-26766503D01*
X18746243Y-26709783D01*
X18709397Y-26620827D01*
X18709390Y-26620814D01*
X18621789Y-26489711D01*
X18621786Y-26489707D01*
X18510292Y-26378213D01*
X18510288Y-26378210D01*
X18379185Y-26290609D01*
X18379172Y-26290602D01*
X18233501Y-26230264D01*
X18233491Y-26230261D01*
X18102788Y-26204262D01*
X18040877Y-26171877D01*
X18006303Y-26111161D01*
X18009049Y-26044326D01*
X18028477Y-25984534D01*
X18042337Y-25897024D01*
X18060500Y-25782352D01*
X18060500Y-25577648D01*
X18028477Y-25375466D01*
X17965220Y-25180781D01*
X17965218Y-25180778D01*
X17965218Y-25180776D01*
X17913279Y-25078842D01*
X17872287Y-24998390D01*
X17829935Y-24940097D01*
X17751971Y-24832786D01*
X17607213Y-24688028D01*
X17441614Y-24567715D01*
X17376765Y-24534673D01*
X17348917Y-24520483D01*
X17298123Y-24472511D01*
X17281328Y-24404690D01*
X17303865Y-24338555D01*
X17348917Y-24299516D01*
X17441610Y-24252287D01*
X17551986Y-24172095D01*
X17607213Y-24131971D01*
X17607215Y-24131968D01*
X17607219Y-24131966D01*
X17751966Y-23987219D01*
X17751968Y-23987215D01*
X17751971Y-23987213D01*
X17804732Y-23914590D01*
X17872287Y-23821610D01*
X17965220Y-23639219D01*
X18028477Y-23444534D01*
X18060500Y-23242352D01*
X18060500Y-23049097D01*
X18080185Y-22982058D01*
X18132989Y-22936303D01*
X18202147Y-22926359D01*
X18265703Y-22955384D01*
X18272179Y-22961414D01*
X20163182Y-24852418D01*
X20196666Y-24913739D01*
X20199500Y-24940097D01*
X20199500Y-25078846D01*
X20230261Y-25233489D01*
X20230264Y-25233501D01*
X20290602Y-25379172D01*
X20290609Y-25379185D01*
X20378210Y-25510288D01*
X20378213Y-25510292D01*
X20489707Y-25621786D01*
X20489711Y-25621789D01*
X20620814Y-25709390D01*
X20620827Y-25709397D01*
X20766498Y-25769735D01*
X20766503Y-25769737D01*
X20921153Y-25800499D01*
X20921156Y-25800500D01*
X20921158Y-25800500D01*
X21078844Y-25800500D01*
X21078845Y-25800499D01*
X21233497Y-25769737D01*
X21379179Y-25709394D01*
X21510289Y-25621789D01*
X21621789Y-25510289D01*
X21709394Y-25379179D01*
X21769737Y-25233497D01*
X21800500Y-25078842D01*
X21800500Y-24921158D01*
X21800500Y-24921155D01*
X21800499Y-24921153D01*
X21786826Y-24852416D01*
X21769737Y-24766503D01*
X21754235Y-24729077D01*
X21709397Y-24620827D01*
X21709390Y-24620814D01*
X21621789Y-24489711D01*
X21621786Y-24489707D01*
X21510292Y-24378213D01*
X21510288Y-24378210D01*
X21379185Y-24290609D01*
X21379175Y-24290604D01*
X21266528Y-24243944D01*
X21226300Y-24217064D01*
X18054077Y-21044842D01*
X18020592Y-20983519D01*
X18023828Y-20918841D01*
X18028477Y-20904534D01*
X18060500Y-20702352D01*
X18060500Y-20497648D01*
X18028477Y-20295466D01*
X17965220Y-20100781D01*
X17965218Y-20100778D01*
X17965218Y-20100776D01*
X17931503Y-20034607D01*
X17872287Y-19918390D01*
X17864556Y-19907749D01*
X17751971Y-19752786D01*
X17607213Y-19608028D01*
X17441613Y-19487715D01*
X17441612Y-19487714D01*
X17441610Y-19487713D01*
X17384653Y-19458691D01*
X17259223Y-19394781D01*
X17064534Y-19331522D01*
X16889995Y-19303878D01*
X16862352Y-19299500D01*
X16657648Y-19299500D01*
X16633329Y-19303351D01*
X16455465Y-19331522D01*
X16260776Y-19394781D01*
X16078386Y-19487715D01*
X15912786Y-19608028D01*
X15768028Y-19752786D01*
X15647715Y-19918386D01*
X15554781Y-20100776D01*
X15491522Y-20295465D01*
X15459500Y-20497648D01*
X15459500Y-20702351D01*
X15491522Y-20904534D01*
X15554781Y-21099223D01*
X15647715Y-21281613D01*
X15768028Y-21447213D01*
X15912786Y-21591971D01*
X16067749Y-21704556D01*
X16078390Y-21712287D01*
X16169840Y-21758883D01*
X16171080Y-21759515D01*
X16221876Y-21807490D01*
X16238671Y-21875311D01*
X16216134Y-21941446D01*
X16171080Y-21980485D01*
X16078386Y-22027715D01*
X15912786Y-22148028D01*
X15768028Y-22292786D01*
X15647715Y-22458386D01*
X15554781Y-22640776D01*
X15491522Y-22835465D01*
X15459500Y-23037648D01*
X15459500Y-23242351D01*
X15491522Y-23444534D01*
X15554781Y-23639223D01*
X15647715Y-23821613D01*
X15768028Y-23987213D01*
X15912786Y-24131971D01*
X16029909Y-24217064D01*
X16078390Y-24252287D01*
X16153595Y-24290606D01*
X16171080Y-24299515D01*
X16221876Y-24347490D01*
X16238671Y-24415311D01*
X16216134Y-24481446D01*
X16171080Y-24520485D01*
X16078386Y-24567715D01*
X15912786Y-24688028D01*
X15768028Y-24832786D01*
X15647715Y-24998386D01*
X15554781Y-25180776D01*
X15491522Y-25375465D01*
X15459500Y-25577648D01*
X15459500Y-25782351D01*
X15491522Y-25984534D01*
X15554781Y-26179223D01*
X15611536Y-26290609D01*
X15628457Y-26323819D01*
X15647715Y-26361613D01*
X15768028Y-26527213D01*
X15819583Y-26578768D01*
X15853068Y-26640091D01*
X15848084Y-26709783D01*
X15819583Y-26754130D01*
X14631286Y-27942428D01*
X14519481Y-28054232D01*
X14519479Y-28054235D01*
X14507184Y-28075531D01*
X14481266Y-28120423D01*
X14440423Y-28191165D01*
X14399499Y-28343893D01*
X14399499Y-28502007D01*
X14399499Y-28502009D01*
X14399500Y-28512003D01*
X14399500Y-61118830D01*
X14399499Y-61118848D01*
X14399499Y-61284554D01*
X14399498Y-61284554D01*
X12500500Y-61284554D01*
X12500500Y-14893713D01*
X13649500Y-14893713D01*
X13649500Y-15106286D01*
X13682753Y-15316239D01*
X13748444Y-15518414D01*
X13844951Y-15707820D01*
X13969890Y-15879786D01*
X14120213Y-16030109D01*
X14292179Y-16155048D01*
X14292181Y-16155049D01*
X14292184Y-16155051D01*
X14481588Y-16251557D01*
X14683757Y-16317246D01*
X14893713Y-16350500D01*
X14893714Y-16350500D01*
X15106286Y-16350500D01*
X15106287Y-16350500D01*
X15316243Y-16317246D01*
X15518412Y-16251557D01*
X15707816Y-16155051D01*
X15729789Y-16139086D01*
X15879786Y-16030109D01*
X15879788Y-16030106D01*
X15879792Y-16030104D01*
X16030104Y-15879792D01*
X16030106Y-15879788D01*
X16030109Y-15879786D01*
X16155048Y-15707820D01*
X16155047Y-15707820D01*
X16155051Y-15707816D01*
X16251557Y-15518412D01*
X16317246Y-15316243D01*
X16350500Y-15106287D01*
X16350500Y-14893713D01*
X36649500Y-14893713D01*
X36649500Y-15106286D01*
X36682753Y-15316239D01*
X36748444Y-15518414D01*
X36844951Y-15707820D01*
X36969890Y-15879786D01*
X37120213Y-16030109D01*
X37292179Y-16155048D01*
X37292181Y-16155049D01*
X37292184Y-16155051D01*
X37481588Y-16251557D01*
X37683757Y-16317246D01*
X37893713Y-16350500D01*
X37893714Y-16350500D01*
X38106286Y-16350500D01*
X38106287Y-16350500D01*
X38316243Y-16317246D01*
X38518412Y-16251557D01*
X38707816Y-16155051D01*
X38729789Y-16139086D01*
X38879786Y-16030109D01*
X38879788Y-16030106D01*
X38879792Y-16030104D01*
X39030104Y-15879792D01*
X39030106Y-15879788D01*
X39030109Y-15879786D01*
X39155048Y-15707820D01*
X39155047Y-15707820D01*
X39155051Y-15707816D01*
X39251557Y-15518412D01*
X39317246Y-15316243D01*
X39350500Y-15106287D01*
X39350500Y-14893713D01*
X39317246Y-14683757D01*
X39251557Y-14481588D01*
X39155051Y-14292184D01*
X39155049Y-14292181D01*
X39155048Y-14292179D01*
X39030109Y-14120213D01*
X38879786Y-13969890D01*
X38707820Y-13844951D01*
X38518414Y-13748444D01*
X38518413Y-13748443D01*
X38518412Y-13748443D01*
X38316243Y-13682754D01*
X38316241Y-13682753D01*
X38316240Y-13682753D01*
X38154957Y-13657208D01*
X38106287Y-13649500D01*
X37893713Y-13649500D01*
X37845042Y-13657208D01*
X37683760Y-13682753D01*
X37481585Y-13748444D01*
X37292179Y-13844951D01*
X37120213Y-13969890D01*
X36969890Y-14120213D01*
X36844951Y-14292179D01*
X36748444Y-14481585D01*
X36682753Y-14683760D01*
X36649500Y-14893713D01*
X16350500Y-14893713D01*
X16317246Y-14683757D01*
X16251557Y-14481588D01*
X16155051Y-14292184D01*
X16155049Y-14292181D01*
X16155048Y-14292179D01*
X16030109Y-14120213D01*
X15879786Y-13969890D01*
X15707820Y-13844951D01*
X15518414Y-13748444D01*
X15518413Y-13748443D01*
X15518412Y-13748443D01*
X15316243Y-13682754D01*
X15316241Y-13682753D01*
X15316240Y-13682753D01*
X15154957Y-13657208D01*
X15106287Y-13649500D01*
X14893713Y-13649500D01*
X14845042Y-13657208D01*
X14683760Y-13682753D01*
X14481585Y-13748444D01*
X14292179Y-13844951D01*
X14120213Y-13969890D01*
X13969890Y-14120213D01*
X13844951Y-14292179D01*
X13748444Y-14481585D01*
X13682753Y-14683760D01*
X13649500Y-14893713D01*
X12500500Y-14893713D01*
X12500500Y-12624500D01*
X12520185Y-12557461D01*
X12572989Y-12511706D01*
X12624500Y-12500500D01*
X39876000Y-12500500D01*
X39943039Y-12520185D01*
G37*
G04 #@! TD.AperFunction*
M02*
